<svg width="154" height="155" viewBox="0 0 154 155" fill="none" xmlns="http://www.w3.org/2000/svg">
<path d="M134.182 109.149C134.896 111.35 136.87 119.259 136.647 123.297C136.493 126.161 135.405 127.055 135.448 127.49C135.491 127.924 136.883 129.102 137.633 129.857C141.044 133.292 141.342 137.457 139.575 140.149C137.655 143.068 131.672 145.569 128.078 146.133C124.649 146.671 114.085 149.687 109.901 143.619C109.07 142.414 109.423 140.963 109.928 136.723C110.071 135.518 109.799 135.273 109.021 134.895C102.235 131.602 103.245 126.186 102.165 122.075C101.268 118.658 101.283 118.627 101.09 118.342C99.5086 116.05 89.4919 111.598 89.9697 106.967C90.2247 104.509 91.8039 103.421 91.9053 103.08C92.0013 102.755 85.991 95.8603 95.9823 94.2881C95.4876 91.8041 92.3277 89.5743 98.4141 85.9781C100.309 84.859 103.023 85.2592 105.219 85.4158C108.4 85.6463 111.441 86.7546 114.436 87.8561C117.721 89.065 118.95 89.5904 123.485 93.1298C128.351 96.9364 132.175 102.972 134.182 109.149Z" fill="white"/>
<path d="M108.761 129.29C106.01 126.7 105.351 123.34 105.765 123.222C106.149 123.113 107.127 125.898 109.683 128.308C112.238 130.718 115.081 131.526 114.996 131.914C114.916 132.29 111.622 131.982 108.761 129.29Z" fill="black"/>
<path d="M136.099 127.308C140.964 118.158 133.693 99.3939 122.955 91.3274C116.939 86.8402 102.251 81.8999 96.3791 86.0214C95.3508 86.6703 94.5641 87.639 94.1401 88.7787C93.7161 89.9184 93.6784 91.1658 94.0326 92.329C94.674 94.2208 95.2477 93.5065 93.6639 93.9197C89.3073 95.0503 87.6045 99.6366 90.9449 102.948C88.7059 104.509 88.9064 107.698 90.1292 110.126C92.256 114.428 100.461 117.688 100.793 119.663C101.779 126.124 102.523 133.065 109.335 135.83C108.652 140.003 107.914 143.708 111.388 145.946C116.163 149.09 123.212 148.477 128.799 146.908C142.129 143.229 146.27 136.267 136.099 127.308ZM128.293 145.091C123.264 146.505 116.609 147.258 112.269 144.54C109.72 143.004 110.104 140.138 110.525 136.245C112.862 136.916 116.236 136.999 116.236 136.645C116.24 136.397 113.767 136.319 111.051 135.297C104.062 132.728 103.601 126.354 102.619 119.368C102.077 115.982 93.8583 113.364 91.7575 109.311C90.7913 107.433 90.4518 105.078 92.349 104.026C93.592 104.706 94.9433 105.165 96.343 105.384L96.6226 104.203C94.2177 103.502 91.842 102.517 91.0862 100.115C90.3996 98.0774 92.0801 96.2439 94.134 95.737C98.6273 94.6125 108.013 98.8862 113.332 100.71C112.852 101.646 112.457 102.623 112.152 103.629L113.7 104.098C115.39 98.5044 118.603 95.7024 118.221 95.2976C117.976 95.025 115.673 96.757 113.934 99.632C110.026 97.8823 106.185 96.0097 102.011 94.7738C100.177 94.2477 94.0633 93.8721 95.9045 89.4556C98.3117 83.6534 111.155 87.311 116.82 89.8872C131.457 96.6257 138.695 117.692 134.916 126.189C132.842 130.887 126.485 134.265 121.531 135.678C119.214 136.33 117.863 136.447 117.875 136.6C117.89 137.445 130.484 135.669 135.439 128.402C144.031 136.994 140.064 141.69 128.293 145.091Z" fill="black"/>
<path d="M36.0439 31.9288C35.643 28.0554 37.4465 23.8908 40.8322 21.9705C45.3263 19.419 53.1578 20.439 76.9478 17.2383C86.1964 15.994 89.6835 14.9187 94.0655 14.6614C99.194 14.3603 100.328 15.8957 102.105 17.0287C104.516 18.5648 105.524 22.7279 105.935 25.5606L115.741 117.974C115.741 117.974 114.042 122.399 111.972 123.535C109.902 124.671 56.3046 131.239 56.3046 131.239C56.3046 131.239 49.0723 132.198 47.2888 126.578C45.97 122.415 46.3387 132.291 36.0439 31.9288Z" fill="#FFC5F6"/>
<path d="M48.0713 36.3839C47.0728 32.9958 48.6274 29.8059 51.2881 28.7506C53.6484 27.8151 56.9842 27.5885 92.3463 23.4431C92.3463 23.4431 97.0778 22.7464 98.256 25.2443C100.023 28.9902 99.4788 27.3181 108.714 111.876C109.028 114.757 107.585 117.63 104.523 118.308C104.361 118.344 106.086 118.129 62.5199 123.386C62.5199 123.386 59.3415 123.377 58.4106 121.466C56.5649 117.675 58.0657 127.307 48.0713 36.3839Z" fill="white"/>
<path d="M116.369 114.795L106.308 22.9023C105.706 17.4127 101.07 13.3779 95.8799 14.0001L43.6567 20.2854C38.5212 20.8998 34.8352 25.8924 35.4381 31.4135L45.5001 123.306C46.0539 128.366 50.0695 132.271 54.8708 132.271C55.6458 132.271 52.2547 132.655 108.149 125.923C113.286 125.305 116.973 120.312 116.369 114.795ZM46.1107 21.6203C99.3555 15.2114 96.2617 15.5524 96.9322 15.5524C100.961 15.5524 104.242 18.8859 104.701 23.0751L114.594 113.441C114.128 117.466 111.184 120.771 107.306 121.238L59.5738 126.982C54.9184 127.541 50.8552 123.855 50.3237 118.994L40.7049 31.1362C40.4455 29.1775 40.8333 27.1877 41.8092 25.4698C42.785 23.7518 44.2956 22.3998 46.1107 21.6195V21.6203ZM107.958 124.314L55.7341 130.602C51.4037 131.122 47.6062 127.683 47.1077 123.13L37.0473 31.2376C36.5588 26.7719 39.3661 22.7218 43.374 21.966C42.0197 23.0745 40.9668 24.5068 40.3128 26.1302C39.6589 27.7537 39.4249 29.5159 39.6327 31.2537L49.2515 119.116C49.849 124.574 54.4545 128.689 59.7021 128.056L107.435 122.312C109.036 122.094 110.553 121.468 111.84 120.492C113.128 119.516 114.141 118.225 114.783 116.743C114.458 120.635 111.666 123.87 107.958 124.316V124.314Z" fill="black"/>
<path d="M102.401 49.4182C99.9148 26.7503 100.097 28.0576 99.8288 27.1328C99.5162 25.9351 98.8375 24.8648 97.8874 24.0712C96.9373 23.2777 95.7632 22.8005 94.5289 22.7063C93.8284 22.6894 96.7395 22.4913 52.3001 27.7335C49.237 28.0945 46.8843 31.2913 47.3744 35.0219C47.3744 35.0219 56.2842 116.118 56.5515 118.345C56.6807 119.535 57.1437 120.665 57.8871 121.603C58.6305 122.541 59.6239 123.251 60.753 123.649C61.8483 123.921 62.9922 123.934 64.0934 123.686C64.1702 123.678 104.264 118.546 104.238 118.352C104.211 118.13 63.6064 122.838 62.4481 122.884C59.8781 122.982 57.8526 120.689 57.5723 118.209C54.5252 90.4413 51.4825 62.6731 48.4443 34.9044C48.0234 31.663 50.0112 29.0899 52.4269 28.8042C97.2272 23.499 94.6557 23.3646 96.3716 24.3201C97.1045 24.7533 97.7251 25.3528 98.1833 26.0703C98.6415 26.7878 98.9244 27.603 99.0092 28.4501C99.033 28.6283 98.7173 25.4131 108.464 111.989C108.628 113.143 108.44 114.319 107.925 115.365C107.41 116.41 106.593 117.277 105.579 117.851C104.779 118.247 103.623 118.447 104.61 118.34C105.498 118.174 106.327 117.778 107.015 117.191C107.702 116.605 108.224 115.848 108.527 114.997C109.24 113.244 109.826 117.112 102.401 49.4174V49.4182Z" fill="black"/>
<path d="M95.3831 32.8484C94.9016 31.1499 93.7702 29.7096 92.234 28.8397C90.3598 27.8543 91.7163 27.9633 58.5778 32.0765C56.2006 32.3722 54.4816 34.4921 53.9969 36.8755C53.783 37.9835 53.7671 39.1207 53.9501 40.2343C60.1286 96.6191 59.7184 93.2479 60.1071 94.4523C61.1632 97.7213 63.7086 99.173 65.7863 98.9556C71.9249 98.3119 95.1389 95.0483 95.8125 94.9308C102.356 93.7948 76.2853 96.9609 65.7034 97.9648C64.0489 98.1184 61.9812 96.9148 61.1025 94.1397C60.7669 93.0797 61.2684 96.9309 55.0208 40.1161C54.8533 39.1167 54.8632 38.0957 55.05 37.0998C55.434 35.1987 56.7705 33.393 58.7061 33.1472C91.565 28.9826 89.846 29.3336 90.4036 29.3927C91.9398 29.5563 93.592 30.7891 94.3531 33.1725C94.6657 34.1511 94.1811 30.7807 100.777 88.0141C101.122 91.0097 99.6714 93.4853 97.7972 94.3355C97.2066 94.6028 96.3978 94.7603 97.1021 94.7019C99.1675 94.6504 101.715 91.8308 101.377 87.9581C101.231 86.2706 95.983 34.7248 95.3831 32.8484Z" fill="black"/>
<path d="M62.6333 110.941C62.6333 101.508 64.5466 104.913 96.0744 100.446C96.9173 100.249 97.7976 100.283 98.6229 100.544C104.621 103.083 104.384 113.222 98.7666 114.823C97.2496 115.255 101.447 114.39 67.7718 118.74C67.7718 118.74 64.4007 119.562 63.6103 117.035C62.9632 115.069 62.6334 113.011 62.6333 110.941Z" fill="#92FCFF"/>
<path d="M72.012 113.882C71.876 113.583 71.6817 113.313 71.5626 113.007C71.3791 112.536 71.3837 112.009 71.2016 111.536C71.0094 111.145 70.7912 110.768 70.5488 110.406C70.0334 109.462 69.1839 106.044 67.9173 106.167C66.7552 106.28 66.3811 109.4 66.4287 109.31C66.3988 109.387 65.2766 114.202 65.5285 115.136C65.8319 116.24 67.0831 116.311 67.5317 115.162C68.2706 113.267 66.8635 113.757 69.2269 113.284C69.5303 113.224 69.6209 113.311 69.6647 113.626C70.1025 116.758 72.7248 115.447 72.012 113.882ZM68.8966 111.347C68.7645 111.835 67.7045 112.211 67.7268 110.959C67.7247 110.387 67.8179 109.818 68.0025 109.277C68.0161 109.257 68.0347 109.243 68.0563 109.234C68.0774 109.224 68.1009 109.22 68.1239 109.224C68.1471 109.227 68.1689 109.236 68.187 109.251C68.2052 109.266 68.2189 109.285 68.2268 109.307C68.4404 109.896 69.0663 110.717 68.8966 111.347Z" fill="white"/>
<path d="M72.7726 114.372C73.0425 114.668 73.3834 114.891 73.7631 115.019C74.1429 115.147 74.5491 115.176 74.9433 115.104C75.3377 115.031 75.707 114.859 76.0162 114.604C76.3254 114.348 76.5641 114.018 76.7099 113.644C77.4672 111.983 75.9356 111.05 75.2305 111.741C74.7866 112.177 74.8872 113.316 74.391 112.918C73.1321 111.908 73.4816 108.144 73.8764 108.007C74.0362 107.952 75.0385 108.404 75.4963 107.653C75.9541 106.901 75.1514 105.682 73.8672 105.755C70.7288 105.928 70.6143 111.703 72.7726 114.372Z" fill="white"/>
<path d="M78.5836 107.877C78.0459 111.42 79.5291 113.03 79.8209 112.015C79.8509 111.912 79.8209 110.807 80.8325 110.82C81.1506 110.856 81.4454 111.004 81.6642 111.237C81.8831 111.471 82.0116 111.775 82.0269 112.095C82.0361 112.307 81.9954 112.518 81.9078 112.711C81.7204 113.212 81.3813 113.641 80.938 113.939C80.4948 114.237 79.9694 114.39 79.4354 114.375C78.865 114.277 78.3215 114.06 77.84 113.738C76.6987 112.74 75.5427 107.798 77.1418 105.929C78.8485 103.932 81.2957 105.945 80.3609 107.054C79.473 108.108 78.771 106.647 78.5836 107.877Z" fill="white"/>
<path d="M81.5985 106.58C81.8942 109.729 82.1239 109.842 82.1316 110.598C82.0602 111.117 82.1606 111.644 82.4173 112.1C82.6201 112.633 82.7499 113.47 83.3797 113.775C84.3023 113.993 85.2725 113.877 86.1172 113.446C86.4928 113.266 86.5842 113.111 86.5535 112.614C86.5143 111.97 86.3837 111.611 85.7162 111.494C84.3175 111.25 84.5318 112.234 84.2092 110.478C84.1125 109.949 85.7984 110.336 85.8914 109.072C85.9421 108.385 85.3591 107.723 84.0341 107.95C83.9043 107.972 83.8667 107.941 83.8444 107.826C83.7154 107.163 83.667 107.011 83.7015 106.928C83.8698 106.53 85.9252 106.904 84.879 105.035C84.452 104.273 83.6578 104.467 82.7 104.674C82.5077 104.657 82.3141 104.686 82.1359 104.76C81.9577 104.835 81.8001 104.951 81.6769 105.1C81.5529 105.247 81.4665 105.423 81.4252 105.611C81.3839 105.8 81.3888 105.996 81.4395 106.182C81.461 106.332 81.7429 107.679 81.5985 106.58Z" fill="white"/>
<path d="M90.408 105.072C89.0854 103.004 86.5852 103.709 86.066 104.939C85.874 105.393 86.0268 106.143 86.2319 107.338C87.1413 112.651 87.3503 112.963 87.8365 113.2C87.9994 113.271 88.1797 113.291 88.3542 113.258C88.5287 113.226 88.6894 113.141 88.8158 113.017C88.8995 112.934 88.9656 112.835 89.0109 112.726C89.0908 112.412 89.0853 112.082 88.9947 111.771C88.3234 108.197 89.3381 110.633 90.6746 108.838C91.4903 107.737 91.1561 106.248 90.408 105.072ZM88.8027 107.539C87.8925 108.893 87.53 105.472 88.0922 105.863C88.8258 105.596 89.4863 106.519 88.7989 107.539H88.8027Z" fill="white"/>
<path d="M92.1744 105.385C92.7274 110.712 92.7504 111.146 92.9302 111.868C93.2943 113.327 94.4733 112.952 94.7521 112.098C95.0478 111.194 94.4817 111.001 94.2674 105.472C94.2375 104.696 95.4879 105.452 95.8935 104.672C95.9823 104.454 96.0172 104.218 95.9954 103.983C95.9737 103.749 95.8957 103.524 95.7683 103.326C95.1638 102.662 91.4301 103.24 90.947 103.541C90.2157 103.997 90.1973 105.339 91.2657 105.393C91.3487 105.394 92.1644 105.302 92.1744 105.385Z" fill="white"/>
<path d="M63.6442 104.965C62.5008 106.278 61.9064 107.981 61.9843 109.72C61.8484 122.11 66.5522 119.251 72.9004 118.477C95.5591 115.712 98.0362 115.152 98.017 114.989C97.9855 114.721 84.5439 115.941 72.7714 117.406C68.8449 117.894 65.6535 119.184 64.3032 117.132C62.9529 115.081 62.8991 109.912 63.2002 108.253C63.3164 107.3 63.7427 106.411 64.4135 105.724C65.0843 105.037 65.9624 104.59 66.9124 104.451L97.0699 100.918C102.585 100.764 104.89 111.403 99.8235 114.244C98.7897 114.824 97.1552 115.113 98.5462 115.012C106.097 114.448 104.655 99.0416 96.3825 99.9019C64.1265 103.248 65.3555 103.195 63.6442 104.965Z" fill="black"/>
<path d="M68.0773 113.944C68.0128 114.287 67.969 114.632 67.9452 114.98C67.9423 115.302 67.8302 115.613 67.6272 115.864C67.4243 116.114 67.1425 116.288 66.8279 116.358C66.5132 116.427 66.1843 116.388 65.8948 116.247C65.6053 116.105 65.3723 115.87 65.2338 115.579C65.0679 114.862 65.103 114.114 65.3352 113.416C65.6673 111.2 66.1942 109.016 66.9098 106.892C67.1763 106.236 67.9007 106.14 67.9137 106.222C67.9183 106.249 67.8154 106.28 67.6549 106.381C67.2124 106.66 67.0235 107.017 66.5158 110.112C66.5035 110.189 65.8038 114.572 65.7953 114.781C65.7561 115.708 66.6141 115.941 67.0243 115.395C67.2055 115.155 67.2048 114.98 67.3054 114.142C67.3983 113.367 67.3922 113.367 67.4797 113.363C67.8561 113.218 68.2432 113.105 68.638 113.023C69.996 112.789 69.7902 112.955 69.877 113.138C70.5037 114.794 70.4822 114.824 70.6742 115.023C70.7595 115.103 70.8648 115.16 70.9793 115.186C71.0938 115.212 71.2133 115.207 71.3252 115.172C71.4372 115.136 71.5375 115.071 71.6158 114.984C71.6941 114.896 71.7474 114.789 71.7703 114.674C71.9293 114.131 69.2003 107.821 68.7962 106.811C68.5482 106.189 67.9713 106.29 67.9652 106.213C67.959 106.135 68.6841 105.996 69.0559 106.685C69.5797 107.655 72.7427 113.792 72.4393 114.866C72.0875 116.126 70.3247 116.474 69.7087 114.774C69.6373 114.577 69.3247 113.759 69.2909 113.682C68.8763 113.714 68.468 113.802 68.0773 113.944Z" fill="black"/>
<path d="M77.2657 112.085C77.1804 111.861 77.0386 111.662 76.8541 111.509C76.6696 111.356 76.4486 111.253 76.2125 111.21C75.9765 111.167 75.7334 111.186 75.5068 111.265C75.2802 111.344 75.0777 111.48 74.9192 111.66C74.7064 111.9 74.5832 112.207 74.5704 112.528C74.4813 113.499 73.3684 109.85 73.9283 108.275C74.1908 108.413 74.4928 108.456 74.7833 108.397C75.0737 108.338 75.335 108.18 75.5229 107.951C75.7116 107.723 75.8159 107.436 75.818 107.14C75.8201 106.844 75.7199 106.556 75.5344 106.324C75.2821 106.014 74.9321 105.799 74.5415 105.713C74.151 105.627 73.7428 105.676 73.3837 105.852C73.8431 105.826 74.3015 105.917 74.7164 106.116C76.2257 106.957 74.8754 108.47 74.0873 107.699C72.7816 106.424 72.7647 114.203 74.8201 113.273C74.9668 113.2 75.0903 113.088 75.1765 112.95C75.2627 112.811 75.3082 112.65 75.3078 112.487C75.3242 112.396 75.3594 112.31 75.4111 112.233C75.4627 112.157 75.5298 112.092 75.6079 112.043C75.686 111.994 75.7735 111.961 75.8648 111.948C75.9561 111.934 76.0492 111.94 76.1382 111.965C76.2272 111.989 76.31 112.032 76.3816 112.09C76.4531 112.149 76.5116 112.221 76.5536 112.303C76.5955 112.386 76.6198 112.476 76.6249 112.568C76.6301 112.66 76.616 112.752 76.5836 112.839C76.5499 113.157 76.4445 113.464 76.2751 113.737C76.1057 114.009 75.8769 114.239 75.6058 114.41C75.3347 114.581 75.0283 114.689 74.7097 114.725C74.3911 114.76 74.0685 114.724 73.7662 114.617C71.6563 113.756 71.0134 108.101 72.4067 106.606C72.8883 106.061 73.3208 105.94 73.2931 105.88C73.2931 105.844 72.8107 105.862 72.1993 106.404C70.4258 107.921 70.8713 114.175 73.5051 115.275C75.9952 116.26 77.8195 113.439 77.2657 112.085Z" fill="black"/>
<path d="M82.307 112.087C81.989 115.544 76.1715 116.879 76.1116 109.087C76.0862 105.696 78.0418 105.188 78.0518 105.299C78.1762 105.516 76.4426 105.675 76.6362 109.071C77.0317 116.009 81.3415 114.545 81.5689 112.008C81.7179 111.265 80.4098 110.802 80.25 111.972C80.2391 112.107 80.1927 112.236 80.1155 112.348C80.0383 112.459 79.9331 112.548 79.8106 112.606C79.688 112.663 79.5523 112.688 79.4174 112.676C79.2824 112.664 79.1528 112.618 79.0418 112.54C78.0856 111.821 77.6869 107.532 78.7346 106.987C78.9573 106.871 78.8752 106.858 79.0572 107.038C79.1653 107.131 79.2968 107.193 79.4375 107.218C79.5782 107.242 79.7228 107.228 79.856 107.176C79.9897 107.125 80.1056 107.038 80.1932 106.924C80.2808 106.811 80.3361 106.677 80.3522 106.535C80.4866 105.976 79.7316 105.152 78.5725 105.229C78.3283 105.245 78.1946 105.277 78.1839 105.246C78.539 105.034 78.9564 104.95 79.3658 105.01C79.7752 105.07 80.1515 105.269 80.4313 105.573C80.6518 105.814 80.7732 106.129 80.7711 106.455C80.769 106.781 80.6435 107.095 80.42 107.333C80.1964 107.57 79.8912 107.715 79.5657 107.737C79.2401 107.759 78.9182 107.657 78.6647 107.451C79.1955 107.536 78.8644 107.335 78.7899 108.163C78.6417 109.813 79.2892 112.452 79.5342 111.922C79.5286 111.728 79.5635 111.536 79.6365 111.357C79.7095 111.178 79.8191 111.017 79.9582 110.882C80.0969 110.748 80.2623 110.644 80.4436 110.577C80.6249 110.509 80.8183 110.481 81.0112 110.493C81.2041 110.504 81.3926 110.556 81.5646 110.644C81.7366 110.732 81.8884 110.855 82.0102 111.005C82.1321 111.155 82.2214 111.329 82.2725 111.515C82.3236 111.701 82.3354 111.896 82.307 112.087Z" fill="black"/>
<path d="M85.7225 114.022C83.1325 114.397 82.3636 114.646 81.9865 111.654C81.3359 106.497 80.6738 105.126 81.9227 104.69C82.23 104.545 83.5595 104.516 82.7292 104.69C82.1509 104.904 82.1916 104.852 82.038 104.934C81.2583 105.36 81.6823 106.417 81.8674 107.368C82.8245 112.304 82.6355 113.436 83.6632 113.532C84.4953 113.535 85.3194 113.371 86.0873 113.051C86.208 112.95 86.2925 112.812 86.3283 112.659C86.364 112.506 86.349 112.345 86.2855 112.201C86.2227 112.057 86.1147 111.937 85.9779 111.859C85.841 111.782 85.6826 111.751 85.5266 111.771C85.4452 111.78 84.2462 112.01 84.1694 112.025C84.1525 112.025 84.1586 111.989 84.1525 111.973L83.8076 109.87C84.512 109.785 84.936 109.793 85.2401 109.563C85.3363 109.467 85.4063 109.348 85.4437 109.217C85.4811 109.086 85.4846 108.948 85.4539 108.816C85.4231 108.683 85.3592 108.561 85.268 108.46C85.1769 108.359 85.0615 108.283 84.9329 108.239C84.4918 108.255 84.0521 108.298 83.6164 108.368L83.3283 106.489C85.6149 106.654 84.949 104.786 84.2892 104.678C84.1586 104.638 82.2538 104.693 83.346 104.493C83.6733 104.4 84.0135 104.363 84.353 104.381C84.5931 104.441 84.8113 104.568 84.9821 104.747C85.1528 104.926 85.2689 105.15 85.3169 105.393C85.3654 105.636 85.3438 105.887 85.2547 106.118C85.1657 106.349 85.0127 106.55 84.8138 106.697C83.8975 107.341 83.8729 106.44 84.0995 107.64C84.1302 107.752 84.6034 107.58 85.0212 107.61C86.3139 107.808 86.9215 110.15 84.6525 110.485H84.641C84.6456 110.5 84.7432 111.064 84.7462 111.078C84.7654 111.19 84.7194 111.17 84.9237 111.132C85.3093 111.004 85.7245 110.994 86.1157 111.104C87.559 111.567 87.317 113.79 85.7225 114.022Z" fill="black"/>
<path d="M89.4248 112.877C89.324 113.145 89.1428 113.375 88.9059 113.536C88.6691 113.696 88.3882 113.78 88.1021 113.774C87.816 113.768 87.5388 113.674 87.3086 113.504C87.0784 113.334 86.9067 113.097 86.8171 112.825C86.4891 110.981 85.9084 106.55 85.8009 105.784C85.7352 105.537 85.7337 105.277 85.7965 105.03C85.8592 104.782 85.9842 104.555 86.1596 104.369C86.5675 103.985 87.619 103.715 87.619 103.859C87.6413 103.936 87.2219 103.962 86.7034 104.383C85.9184 105.233 85.9991 103.846 87.5145 112.62C87.6743 113.235 88.9693 113.275 88.7557 112.053C88.712 111.803 88.4485 110.09 88.354 109.498C89.7366 109.331 90.7728 108.961 90.8119 107.382C90.8503 105.769 89.8672 104.193 88.3302 103.955C87.8924 103.887 87.6389 103.905 87.6328 103.857C87.6251 103.82 87.8686 103.716 88.351 103.708C89.805 103.684 91.3957 105.157 91.4348 107.388C91.465 108.04 91.2517 108.681 90.8364 109.184C90.4211 109.688 89.8334 110.019 89.1874 110.114C89.4747 111.892 89.6252 112.311 89.4248 112.877Z" fill="black"/>
<path d="M94.5019 113.113C94.2952 113.24 94.0586 113.31 93.8161 113.316C93.5736 113.323 93.3338 113.265 93.1209 113.148C92.9082 113.032 92.7296 112.863 92.6029 112.656C92.4762 112.449 92.4059 112.213 92.3989 111.971C91.5739 103.432 92.3482 106.41 90.8243 105.531C90.675 105.438 90.5461 105.316 90.4454 105.172C90.3447 105.028 90.2742 104.865 90.2383 104.693C90.2024 104.521 90.2018 104.344 90.2365 104.172C90.2712 104 90.3405 103.836 90.4402 103.692C90.7843 103.129 91.2037 103.187 91.7253 103.154C93.1846 103.068 93.2376 103.169 91.7598 103.441C91.249 103.535 91.0079 103.493 90.7989 103.898C90.719 104.018 90.6724 104.156 90.6639 104.3C90.6554 104.444 90.6853 104.587 90.7505 104.715C90.815 104.843 90.9126 104.952 91.0334 105.031C91.1541 105.109 91.2935 105.153 91.4372 105.16C92.743 105.236 92.2721 103.505 93.127 111.889C93.1265 112.061 93.1935 112.227 93.3138 112.351C93.4341 112.475 93.5981 112.547 93.7707 112.551C93.9432 112.556 94.1106 112.492 94.2371 112.375C94.3636 112.257 94.4391 112.095 94.4474 111.923C93.7876 102.606 93.4949 105.382 95.2262 104.844C95.962 104.613 95.8952 103.384 95.2262 103.258C94.8114 103.227 94.3951 103.223 93.9796 103.246C91.004 103.255 94.9243 102.805 95.303 102.85C95.6236 102.943 95.8979 103.153 96.0724 103.437C96.2469 103.722 96.3092 104.061 96.247 104.389C96.1855 104.717 96.004 105.011 95.7379 105.212C95.4717 105.414 95.1401 105.509 94.8076 105.479C94.7161 105.481 94.6248 105.488 94.5342 105.501C95.23 112.042 95.5035 112.497 94.5019 113.113Z" fill="black"/>
<path d="M88.3802 107.668C88.8887 107.557 89.05 106.46 89.05 106.46C89.2412 106.36 89.4793 107.759 88.5192 108.129C87.5975 108.483 87.4132 106.285 87.553 105.993C87.6265 105.848 87.7423 105.73 87.8849 105.653C88.0276 105.576 88.1903 105.544 88.3514 105.562C88.5126 105.58 88.6644 105.646 88.7868 105.753C88.9091 105.859 88.9961 106 89.0362 106.157C89.083 106.306 89.0661 106.395 89.0362 106.405C88.967 106.449 88.8265 106.093 88.4593 105.977C88.275 105.92 87.9462 106.038 87.9931 106.305C88.0668 106.729 88.1897 107.674 88.3802 107.668Z" fill="black"/>
<path d="M68.3395 112.025C67.3671 112.211 67.5154 111.502 67.5615 111.018C67.5906 110.707 67.8234 109.164 68.0392 109.21C68.1414 109.232 68.0722 109.843 68.0284 111.531C68.202 111.556 68.6598 111.393 68.5822 111.385C68.7136 111.226 68.3918 110.31 68.3272 110.12C67.5392 107.807 69.3741 110.765 69.0377 111.616C68.9456 111.85 68.5861 111.977 68.3395 112.025Z" fill="black"/>
<path d="M97.7608 15.8741C96.1548 17.8242 92.8343 18.4579 93.9634 18.8696C96.2631 19.7099 97.9698 19.3197 99.9637 23.0834C100.53 24.3277 101.194 25.5251 101.95 26.6642C102.151 25.0423 102.672 23.4763 103.481 22.0563C104.29 20.6363 105.372 19.3904 106.665 18.3903C107.304 17.8888 108.034 17.516 108.815 17.2927C109.91 16.2374 103.422 17.0861 101.356 10.6472C99.9975 6.41579 100.161 10.5404 99.9967 11.274C99.6212 12.961 98.8554 14.5365 97.7608 15.8741Z" fill="white"/>
<path d="M108.893 16.5034C107.112 15.8252 104.837 15.3758 103.379 13.6177C100.998 10.7512 100.829 6.72713 100.291 6.79779C99.4276 6.83159 100.626 13.9349 95.7937 17.0518C94.0755 18.2324 92.2897 18.5219 92.3465 18.8368C92.3419 19.1441 94.0671 19.1971 95.9189 19.9736C101.443 22.112 101.147 28.8788 101.987 28.7437C102.592 28.6031 102.263 22.3624 106.721 18.9605C109.215 17.0864 111.207 17.3706 108.893 16.5034ZM101.818 25.5622C101.378 24.028 100.607 22.609 99.5589 21.4053C97.0688 18.5934 94.1969 18.8038 94.8613 18.5926C98.3699 17.0364 100.084 13.9695 100.563 10.3418C101.78 14.3136 104.372 16.5057 108.371 17.1079C104.959 18.028 102.473 22.0667 101.818 25.5622Z" fill="black"/>
<path d="M56.5436 145.444C57.5421 146.044 58.4692 148.644 61.7943 149.752C64.6431 150.701 66.7715 149.758 68.6049 148.017C71.8869 144.887 74.2123 140.889 75.3104 136.489C76.2236 132.796 79.107 128.185 75.0085 123.816C72.4047 121.041 69.2478 121.52 66.5549 121.044C63.4449 120.494 66.4213 119.078 60.4401 114.543C57.8237 112.586 55.1104 110.763 52.3107 109.08C50.4673 107.544 49.9987 107.831 44.6859 103.715C36.922 97.6998 34.9234 95.2158 30.4808 96.3027C29.1167 96.6368 28.1274 97.0884 27.7234 99.4065C27.3078 101.839 27.7366 104.34 28.9385 106.494C27.4369 105.772 26.2578 104.451 24.6909 103.883C22.1232 102.961 19.0201 104.55 18.0224 107.091C17.5775 108.386 17.5464 109.788 17.9334 111.101C18.3204 112.414 19.1063 113.575 20.1822 114.422C13.7218 111.986 11.4368 116.865 13.7695 121.309C16.0914 125.731 21.465 128.098 27.1911 131.222C26.1649 132.649 24.2139 133.176 23.1755 134.595C22.3682 135.699 21.4703 139.078 22.0379 140.834C22.8828 143.433 26.072 144.668 28.5752 144.659C30.3694 144.653 32.1391 144.248 33.9303 144.135C39.6848 143.771 45.2389 146.412 51.0456 146.29C55.7894 146.193 55.3554 144.73 56.5436 145.444Z" fill="white"/>
<path d="M55.7235 124.434C52.8608 119.256 54.0544 116.446 53.4491 116.343C52.6204 116.161 51.4836 124.614 59.0823 130.272C57.3957 129.741 55.6202 129.551 53.8593 129.713C49.6394 130.128 47.2345 132.803 47.4626 133.069C47.7699 133.442 49.8921 131.466 53.9914 131.055C57.7174 130.695 60.789 131.688 60.9273 131.242C61.2053 130.873 58.0646 128.561 55.7235 124.434Z" fill="black"/>
<path d="M77.6775 127.858C76.818 119.916 67.9419 120.748 65.4694 120.331C63.0584 113.22 57.6871 111.784 46.6919 104.051C41.2323 100.162 37.8551 96.1222 33.7949 95.2243C29.0466 94.1413 25.3406 97.7007 27.2892 103.583C27.6302 104.554 27.6863 103.852 25.4458 103.096C20.0254 101.307 14.8385 106.955 17.2871 111.929C17.738 112.85 17.9431 112.912 17.834 112.895C11.9197 112.109 8.59466 120.599 17.8133 126.886C28.2647 133.7 26.7285 129.222 23.2229 133.355C18.8725 138.324 21.2013 144.744 27.1917 145.478C28.8169 145.61 30.4522 145.557 32.066 145.319C40.0464 144 48.288 149.572 56.2393 145.934C66.5655 161.456 78.8626 138.513 77.6775 127.858ZM18.3909 109.325C18.425 108.598 18.6241 107.888 18.9732 107.249C19.3222 106.611 19.8121 106.06 20.4056 105.638C25.7768 101.732 27.7163 109.121 40.2991 113.857C38.2795 116.783 36.6337 119.95 35.4002 123.285C30.7303 120.454 26.2254 116.99 21.3795 114.31C20.1959 113.655 18.2626 111.479 18.3909 109.325ZM75.7311 131.409C74.9185 136.145 73.1311 141.247 70.24 145.059C65.7659 151.008 61.7542 151.05 57.3753 145.341C62.778 142.115 64.497 135.474 64.0638 135.314C63.5822 135.121 61.7841 140.62 56.9206 143.573C49.4601 148.077 41.3629 142.232 31.867 143.444C29.7932 143.668 27.3307 143.975 25.5042 143.056C19.9309 140.264 23.0701 130.409 36.0324 130.645C39.319 130.682 41.2661 131.471 41.3852 131.189C41.8161 130.527 34.2542 127.502 27.3353 130.475C23.3942 128.527 16.5866 124.999 14.6841 121.052C12.8798 117.414 14.6964 114.37 17.5951 114.754C20.4056 115.118 29.0819 121.459 34.9947 124.489C34.7996 125.108 33.9317 128.072 34.3103 128.188C34.7643 128.327 36.5132 123.456 39.6501 117.959C42.767 112.456 45.8778 108.308 45.5068 107.995C45.2863 107.808 43.3369 109.649 41.0687 112.771C38.8079 111.731 36.6218 110.535 34.5262 109.192C31.6013 107.309 30.0321 106.35 28.9437 103.029C28.2078 100.739 28.2593 98.4972 30.3777 97.3066C33.0414 96.0216 35.9955 98.0118 38.3497 99.8214C43.2271 103.64 40.1801 102.212 56.2884 112.359C59.2502 114.225 61.6651 115.712 63.5853 119.247C66.799 125.108 64.6353 131.934 65.0739 132.044C65.2859 132.097 67.1154 126.959 65.8527 121.65C70.5089 122.505 77.2419 122.258 75.7311 131.409Z" fill="black"/>
<path d="M54 58.9927C54.9985 66.1828 54.9793 66.5968 55.4425 67.4417C56.8351 69.9933 62.1909 70.557 65.0106 69.2213C65.9461 68.8077 66.7469 68.1402 67.3223 67.2946C67.8976 66.4489 68.2245 65.4589 68.2658 64.4369C68.2083 63.5601 68.0195 62.6969 67.7058 61.8761C61.9452 44.2561 62.1871 47.8723 63.2248 43.945C64.5944 42.7562 65.8204 41.4114 66.8778 39.9379C67.0175 39.7846 67.1174 39.5994 67.1688 39.3986C67.2203 39.1977 67.2216 38.9873 67.1728 38.7858C66.7334 34.9945 66.3279 37.2811 69.8611 33.6657C70.4264 33.0865 70.3381 32.5758 69.6921 32.1095C68.7266 31.4113 68.5223 31.6487 68.222 29.9589C68.0906 29.2215 67.8687 28.5026 67.5607 27.8197C65.6785 28.5422 63.8419 29.3784 62.0611 30.3237C61.9029 29.6117 62.6664 28.468 62.9391 27.8151C64.6365 23.7596 65.9492 24.9732 61.3775 22.9585C60.1409 26.0134 58.7693 29.0119 57.2667 31.9451C56.8253 30.7371 56.6168 29.4564 56.6522 28.1708C56.7966 27.4027 57.004 27.6792 58.1884 23.9255C58.3121 23.5338 58.3182 23.6598 54.9701 22.9716C53.495 26.2023 52.8983 29.765 53.2404 33.3001C52.3694 31.9613 50.6788 31.5849 50.0759 29.5019C49.8739 28.8037 49.7371 28.5694 48.9606 28.6877C47.0757 28.9757 47.045 28.9573 46.9275 29.0579C46.3898 29.5188 48.1042 33.1441 48.5765 33.9622C52.6313 41.0002 50.5075 33.8124 54 58.9927Z" fill="white"/>
<path d="M87.5173 63.9328C86.9996 61.415 85.5494 61.2683 83.216 62.3736C82.8918 62.5272 82.8457 62.6531 82.888 62.965C82.9732 63.6017 83.0977 64.2323 83.2605 64.8537C80.3602 65.9959 80.4186 65.8615 80.5238 66.267C82.5692 74.0439 82.5208 73.6599 82.4018 73.8527C81.7612 74.2347 81.0656 74.5158 80.3395 74.686C79.9001 74.8051 79.7411 74.9088 79.6935 75.4088C79.6167 76.2268 79.7242 77.051 80.0099 77.8214L80.5361 96.4023L92.4983 95.0197C93.3017 93.0511 94.2895 96.8286 87.5173 63.9328Z" fill="white"/>
<path d="M74.3743 35.3624C74.2875 36.0045 74.0333 36.8118 73.3866 36.8455C72.898 36.8717 71.8972 36.0344 71.5731 37.4078C71.5331 37.7522 71.4376 38.0878 71.2904 38.4017C68.7473 38.5246 70.2151 37.1728 69.0791 41.5985C71.5908 42.3827 70.4571 41.6469 70.2074 43.8467C70.1782 44.1048 72.1991 44.2776 72.4118 44.6463C72.5931 44.9597 72.59 44.6117 70.9671 53.4148C70.5761 55.5378 70.5285 56.3458 71.7352 59.4143C75.7753 69.7067 75.1148 69.8281 77.3361 71.5379C78.2102 72.2107 79.4099 72.6539 79.7525 73.7016C79.9314 74.2469 79.9337 74.5926 80.5521 74.6141C81.2674 74.5825 81.9657 74.3856 82.5921 74.0388L80.4415 65.9615C81.0628 65.7949 83.1605 65.0844 83.4078 64.7211C83.6851 64.3155 83.2665 62.9714 82.9785 62.4091C87.1653 61.6295 84.4332 62.052 85.9356 57.925C86.6676 55.9134 86.6753 55.7936 86.875 55.6599C87.2437 55.4141 89.4588 55.789 89.8874 55.8711C90.7838 47.4068 91.704 46.8515 92.4989 39.7512C92.8461 36.6351 92.492 36.046 88.5448 33.6626C86.4948 32.4244 85.8465 32.1894 83.0791 32.012C79.1472 31.7608 74.8736 31.6694 74.3743 35.3624Z" fill="white"/>
<path d="M87.072 52.6111L79.0332 51.6149L79.2836 49.6448L80.3259 49.7769L80.2084 50.7017L87.2011 51.5681L87.072 52.6111Z" fill="black"/>
<path d="M81.3272 52.9585L81.1851 54.0008L84.3242 54.4286L84.4663 53.3871L81.3272 52.9585Z" fill="black"/>
<path d="M91.5157 41.6446L91.6816 40.6822L86.3103 39.752L86.1429 40.7145L85.4516 40.5946L85.2596 41.703L84.0468 41.5048L84.2511 40.3258L83.5598 40.206L83.7349 39.1683L71.8772 37.053L71.7358 37.8503L78.2346 39.0085C78.1724 39.3649 78.3261 39.2996 77.4965 39.156L76.9366 42.382L77.6279 42.5018L77.462 43.4635L82.834 44.399L83.0006 43.4381L83.6919 43.5572L83.8763 42.4926L85.0891 42.69L84.8917 43.826L85.583 43.9466L85.4163 44.9082L90.7922 45.8353L90.9588 44.8737L91.6501 44.9927L92.2093 41.7667L91.5157 41.6446Z" fill="black"/>
<path d="M72.1619 71.5048L63.2451 46.6563C63.7828 44.1585 62.9801 45.611 67.7638 39.6736L67.4819 36.92L71.3224 33.0519C68.5142 30.0218 69.3169 31.3675 67.9674 27.0363L62.9871 29.2053L65.5755 24.4355L61.5046 21.8079C57.5321 29.617 58.2656 28.1062 57.453 29.988C57.2402 28.0632 56.9798 29.3943 59.2134 23.3364L54.7585 21.9123C52.2668 28.3113 52.6847 25.9909 52.6847 32.0788C50.9457 30.1509 51.5064 31.1409 50.2921 27.5816L45.9585 28.2936C46.9009 32.5765 46.0591 30.5802 49.9433 37.2657C51.5894 41.3857 50.5286 35.3455 55.1111 73.2837L57.5159 72.8797L58.6358 77.5712L62.2889 76.4506L62.9655 79.0805L70.4928 76.4951L69.5396 72.8951L72.1619 71.5048ZM51.1408 36.7319C47.4317 30.4036 48.1061 31.9597 47.5354 29.3659L49.4026 29.0586C50.3343 31.7892 49.3719 30.3728 53.9935 35.4991C53.9935 25.8895 53.5948 28.5156 55.5297 23.5407L57.4983 24.1697L55.946 28.3796L56.6841 35.062C58.236 31.1723 60.0139 27.3766 62.0085 23.6943L63.8335 24.8718C60.1866 31.5933 61.0407 29.5118 59.8471 34.1787C64.4142 29.5702 62.7474 30.7331 67.144 28.819L67.7385 30.7254L60.2012 36.2956L59.841 38.2258L57.198 37.8417L56.3438 43.8267L57.645 44.0118L58.3125 39.3311L60.9017 39.7074L61.3979 37.0452L68.4221 31.8537L69.4974 33.0135L66.1078 36.4285L66.3974 39.2627C61.6352 45.177 62.5684 43.5333 61.8787 46.737L67.0664 61.4505L64.971 62.0443L65.5087 63.8285L63.1061 64.5444L63.832 66.8072L61.5861 67.5553L60.7412 65.6842L57.9192 66.4447L57.4338 64.7549L55.5489 65.4277C51.8935 35.8309 52.8245 41.0255 51.1408 36.7319Z" fill="black"/>
<path d="M98.7895 93.2693L98.3501 85.3841L89.2383 57.6706L87.0546 57.3181L87.2213 56.1982L90.3243 56.4517L94.29 31.7084L92.677 31.3605L93.1002 28.911L90.9188 28.4809L91.2537 26.5161L79.601 24.4868L79.1916 26.5607L77.0034 26.1589L76.6193 28.2988L74.7759 27.9955L73.3557 36.0934L71.1858 35.6264L70.8072 37.7095L69.1419 37.3254L68.2026 42.103L69.9154 42.487L69.4976 44.4287L71.6229 45.0248L69.718 57.0884L68.105 57.7236L73.4817 72.2244L70.841 73.5094L71.9393 77.2085L62.9097 80.3062L63.8529 97.5721C63.8728 97.9524 64.0386 98.3104 64.3157 98.5716C64.5928 98.8328 64.9599 98.9771 65.3407 98.9746C65.4881 98.9746 64.4374 99.0998 81.2517 96.993L80.8768 91.2323L84.6935 90.8314L80.853 75.1623L83.1081 74.5018L81.0765 66.1503L84.0129 65.2133L83.4561 62.8283L84.7442 62.4881L85.4738 66.1073L82.5728 67.0674L88.1384 89.8567L90.3581 89.6662L91.766 95.4384L97.963 94.3838C98.2183 94.3414 98.4472 94.2014 98.6014 93.9935C98.7556 93.7856 98.823 93.5259 98.7895 93.2693ZM85.7926 56.8718L78.7446 55.9716L79.015 53.9569L76.3881 53.5867L76.5049 52.7479L75.1991 52.5728L74.9134 54.7058L77.468 55.0668C77.2031 57.0162 76.8974 59.385 76.64 61.3344L77.9773 61.5111L78.2338 59.5655L84.2956 60.2721L84.5337 61.4558L82.1979 62.0702L82.7663 64.5051L79.8199 65.4445L81.8469 73.7721L80.5988 74.1377L78.9858 67.5613L77.2914 67.9453L75.8942 62.4635L74.2382 62.8614L71.7335 56.2965L71.1351 56.5323L73.1015 44.0793L71.0407 43.5009L71.4723 41.4946L69.7365 41.1037L70.1681 38.9115L71.8518 39.2956L72.2358 37.1933L73.1145 37.383L72.3956 41.0054L75.5056 41.5929L76.7491 34.8284L78.783 35.2255L79.0664 33.6793L84.6735 34.7454L84.5352 35.9498L88.03 36.5458L87.7681 37.7986L91.8682 38.5144L90.0678 49.7524L89.0355 49.6264L89.2889 47.7546L77.7131 46.3613L77.4435 48.346L75.8604 48.124L75.5532 50.2893L76.8551 50.4721L76.9765 49.608L78.5641 49.8299L78.8383 47.8199L87.8042 48.8998L87.5508 50.7693L89.855 51.0512L89.2152 55.0453L86.106 54.788L85.7926 56.8718Z" fill="black"/>
<path d="M78.7601 39.7109L78.5674 40.8242L79.6806 41.0176L79.8741 39.9044L78.7601 39.7109Z" fill="white"/>
<path d="M79.6805 41.0186L79.4878 42.1318L80.601 42.3245L80.7937 41.2113L79.6805 41.0186Z" fill="white"/>
<path d="M86.7142 41.1497L86.5215 42.2637L87.6355 42.4564L87.8282 41.3431L86.7142 41.1504V41.1497Z" fill="white"/>
<path d="M87.6361 42.4568L87.4434 43.57L88.5566 43.7635L88.7493 42.6503L87.6361 42.4568Z" fill="white"/>
<path d="M41.6781 109.596C42.606 108.914 49.3337 104.002 49.2515 103.912C51.9997 107.026 51.6387 108.203 52.572 107.297C53.0328 106.85 55.0575 105.069 55.6843 105.213C56.9024 105.487 61.4096 113.134 64.1041 116.058C64.3537 116.329 64.3714 116.492 64.0534 116.754C61.0386 119.243 60.9134 119.261 60.9088 119.564C60.9027 119.9 61.5317 120.398 62.8459 122.772C63.6086 124.15 57.5691 126.256 54.94 129.012C54.5841 129.385 54.1922 129.721 53.7702 130.017C51.7079 131.463 50.4321 127.123 49.1962 126.855C48.7192 126.752 48.5441 126.944 45.3765 128.83C44.9571 129.081 44.7221 129.096 44.3142 128.578C42.8648 126.744 38.2778 120.616 37.3592 119.009C37.3141 118.953 37.2934 118.88 37.3016 118.808C37.3098 118.736 37.3462 118.671 37.4029 118.625C39.0344 116.73 39.7379 116.966 39.9484 116.416C40.2695 115.579 36.3023 113.398 38.4452 111.737C39.4745 110.939 40.5152 110.448 41.6781 109.596Z" fill="#FDFE1F"/>
<path d="M35.6694 65.3675C35.5373 65.4919 35.6379 65.2016 34.2646 70.8839C34.0342 71.8448 35.2815 71.2849 35.5273 71.8218C35.5801 72.3962 35.5605 72.975 35.4689 73.5446C36.8077 73.9678 39.3094 74.4079 39.6166 74.2689C39.8647 74.1575 40.2311 72.7635 40.291 72.5184C40.5867 71.3102 41.8694 73.3633 42.2166 71.5698C42.9532 67.7678 43.3004 66.8415 42.6345 66.6802C41.8464 66.4889 41.8456 67.1871 42.1613 64.6632C37.8715 63.5195 37.4422 63.4972 37.2302 64.6071C36.9805 65.8998 36.3085 64.7669 35.6694 65.3675Z" fill="#FDFE1F"/>
<path d="M52.4682 57.9772C52.5097 58.2514 52.1664 58.3528 51.154 58.9972C51.0188 59.0824 51.0004 59.147 51.091 59.2837C52.0396 60.7707 52.1149 60.8337 52.098 61.0219C52.0542 61.4896 48.0548 63.6026 47.6431 63.8154C47.4526 63.9145 47.3566 63.9076 47.2007 63.6887C45.6253 61.4674 46.1876 61.6102 44.7674 62.5204C44.3464 62.79 44.0861 62.8061 43.6859 62.2285C43.2127 61.5449 40.4131 57.2359 40.4246 56.7559C40.4407 56.136 41.9362 56.2689 41.3355 55.4102C40.7618 54.5883 40.4292 54.2028 40.4215 53.8287C40.4154 53.556 40.645 53.2619 40.9139 53.3087C42.8295 52.4999 44.8557 49.7524 45.8296 50.9699C46.8804 52.281 46.9426 52.41 47.0785 52.42C47.1784 52.4277 47.1554 52.42 48.3843 51.5436C49.9854 53.5262 51.3555 55.6846 52.4682 57.9772Z" fill="#FDFE1F"/>
<path d="M57.1792 50.5789C54.7873 51.3332 55.9886 51.6819 56.0916 52.4577C56.1684 53.0645 55.5216 52.8955 55.4894 53.2027C55.4802 53.2926 55.4203 53.1182 56.7314 56.1322C57.269 57.3673 57.7914 56.2797 58.2192 56.5316C58.3313 56.5977 58.3329 56.6345 58.9151 57.6991C59.0971 58.0332 61.4114 56.931 61.7516 56.7544C62.0796 56.5823 61.9759 56.5285 61.4644 55.4171C62.9345 54.6659 62.5335 55.1168 61.5458 53.0284C60.3637 50.5321 60.7239 50.754 59.7077 51.1081C59.5649 51.1588 59.5157 51.1373 59.4412 51.0206C58.5579 49.6403 59.1524 49.9568 57.1792 50.5789Z" fill="#FDFE1F"/>
<path d="M27.9421 84.6014C27.9199 84.755 27.8868 84.6221 29.605 88.2345C27.2885 90.1009 27.1641 90.1547 27.0903 90.3651C26.8184 91.1463 29.1488 94.3431 29.7786 95.5444C30.5959 97.1021 31.6159 100.408 32.6436 100.537C33.6421 100.663 35.6829 97.937 36.5056 99.1705C37.9688 101.365 38.753 102.943 39.5987 102.505C40.0211 102.287 39.8291 101.882 41.343 101.068C48.2704 97.3463 48.3242 97.334 48.4194 97.0514C48.5799 96.579 47.8948 96.1834 46.7811 93.5366C46.6743 93.2823 46.7043 93.174 46.9631 93.0227C49.1652 91.7454 49.8496 91.3329 49.8266 90.7423C49.8058 90.1977 44.2548 80.3608 43.9722 79.8646C43.7763 79.5197 43.6296 79.4936 43.327 79.6341C42.2985 80.1185 41.303 80.6699 40.3468 81.2848L38.2776 77.8284C30.3178 82.7633 27.9944 84.2381 27.9421 84.6014Z" fill="#FDFE1F"/>
<path d="M50.3244 90.3007C43.9031 78.4322 44.3502 78.3416 42.9315 79.2548C42.9315 79.2548 40.6971 80.6781 40.6841 80.6881C40.1897 79.8718 39.7471 79.0253 39.3591 78.1534C38.8983 77.2248 38.3514 77.0957 37.5157 77.7524C37.3506 77.8792 38.1763 77.31 27.7717 83.8588C27.5781 83.9836 27.4382 84.1763 27.3797 84.3991C27.3211 84.6219 27.3481 84.8585 27.4553 85.0624L29.0506 88.2315C27.2294 89.4205 26.0911 89.833 26.6096 90.8284C32.2166 101.582 31.7842 101.115 32.3134 101.256C32.7789 101.38 32.7182 101.311 36.0771 99.3481C38.3859 103.157 38.2508 103.089 38.6986 103.209C39.1955 103.341 38.6832 103.707 48.5562 97.6429C48.7472 97.523 48.8867 97.3364 48.9478 97.1194C49.0088 96.9023 48.987 96.6703 48.8865 96.4685C48.8596 96.407 48.2259 94.9408 47.4133 93.3716L49.9111 91.8899C50.1698 91.7278 50.3568 91.4729 50.4336 91.1775C50.5104 90.882 50.4713 90.5683 50.3244 90.3007ZM44.6297 90.2093L46.2604 93.3086L39.366 97.6767C37.0618 93.294 38.0334 93.6058 34.0662 96.119L30.1128 88.6102C30.1973 88.3843 29.8056 88.687 32.878 86.7399C33.663 86.2421 32.9425 85.4741 31.53 82.7888C39.1056 78.0489 38.3068 78.4537 38.3798 78.6112C38.4528 78.7686 38.3798 78.6281 39.7409 81.2188C40.2885 82.4355 40.9276 81.8333 43.6335 80.0859L47.5969 87.5487C44.907 89.2554 44.2219 89.4359 44.6297 90.2093ZM28.476 84.6944L30.8433 83.2182L32.3641 86.1093L29.9592 87.6339L28.476 84.6944ZM47.8557 96.808L38.9889 102.082C35.9787 97.116 37.24 97.4225 32.6191 100.124L27.6265 90.4536L29.5199 89.217C33.7006 97.1613 33.4371 96.861 33.8435 96.9701C34.2167 97.0714 34.1753 97.0085 37.1171 95.1451C38.4336 97.6452 38.8222 98.9771 39.6594 98.4479L46.5346 94.0928C47.0055 94.9827 47.4461 95.8883 47.8557 96.808ZM49.3604 90.9659C46.8165 92.4652 46.8388 92.456 46.7589 92.5174L45.3855 89.9059L47.9871 88.2584C49.4457 90.9452 49.4687 90.9029 49.3589 90.9659H49.3604Z" fill="black"/>
<path d="M37.3994 92.4313C36.8095 92.7847 36.1482 93.3531 35.9216 92.8423C35.791 92.5466 35.9546 83.7373 35.9577 83.6605C35.98 83.1874 36.278 82.9984 36.649 83.2411C38.3772 84.3787 38.9962 84.6314 38.9801 85.6368C38.8741 92.121 39.2067 91.3468 37.3994 92.4313Z" fill="black"/>
<path d="M42.3108 89.4674C40.0703 90.8131 40.3829 90.8669 40.4766 86.7284C40.4889 86.1846 40.8337 86.0371 41.1932 86.276C44.3754 88.4167 44.6028 88.0895 42.3108 89.4674Z" fill="black"/>
<path d="M57.7027 98.9462C57.6358 99.4385 57.7249 99.6544 58.2895 99.7857C60.0699 100.2 60.9478 99.8118 61.1214 100.4C61.2098 100.701 60.9094 101.211 60.8802 102.92C60.8518 104.59 65.773 103.923 68.671 104.675C70.032 105.029 70.9276 105.152 71.1465 103.722C71.5644 100.994 71.5306 100.937 71.7195 100.767C71.9707 100.537 72.1082 100.63 75.5139 101.151C75.9901 97.7411 76.3527 94.2731 76.7221 90.8497C75.7725 90.8849 74.8233 90.7716 73.9086 90.5141C73.9501 89.8489 74.5092 87.3227 73.9593 86.8887C73.7939 86.7803 73.6041 86.7151 73.407 86.699C63.2314 85.0453 63.8435 85.1083 63.5878 85.1866C62.1737 85.6175 64.0402 88.8988 61.7874 88.5516C58.2795 88.0124 59.3717 86.6521 57.7027 98.9462Z" fill="#FDFE1F"/>
<path d="M74.4911 90.0173L74.8329 87.0755C74.8641 86.8523 74.8055 86.6259 74.67 86.4458C74.5345 86.2657 74.3332 86.1466 74.1102 86.1146C62.5335 84.497 63.2378 84.5016 62.853 84.9279C62.5988 85.2106 62.651 85.2743 62.2693 88.1355C59.912 87.7929 58.9158 87.4188 58.68 88.4849C58.6623 88.5618 58.7683 88.1485 57.1607 99.1115C57.1386 99.253 57.1452 99.3975 57.1801 99.5364C57.2151 99.6754 57.2775 99.8058 57.3639 99.9201C57.4502 100.034 57.5587 100.13 57.6828 100.202C57.8069 100.273 57.9441 100.319 58.0863 100.337L60.5718 100.618C60.4392 101.55 60.3444 102.487 60.2876 103.427C60.2722 103.538 60.2789 103.651 60.3075 103.76C60.336 103.869 60.3858 103.971 60.454 104.06C60.5222 104.15 60.6074 104.225 60.7047 104.281C60.8021 104.338 60.9096 104.374 61.0211 104.389C71.1868 105.695 70.6461 105.594 71.0286 105.305C71.388 105.033 71.3051 105.017 72.0271 101.36C75.4658 101.728 75.4221 101.8 75.7754 101.533C76.1794 101.226 75.9666 101.735 77.3308 91.3107C77.4775 90.2016 76.1579 90.2792 74.4911 90.0173ZM71.3988 86.8343L73.7384 87.1531L73.4235 89.8606L71.0363 89.5196L71.3988 86.8343ZM59.8145 88.8713C62.0803 89.2185 63.2302 89.7231 63.3385 88.2829C63.3385 88.2829 63.6695 85.7705 63.671 85.7482C64.2271 85.8658 62.7401 85.6507 70.5969 86.7299C70.0393 90.8606 69.5369 90.1263 73.5425 90.6986C73.6193 90.8146 73.677 90.1717 72.6208 97.9816C68.4731 97.3886 69.2336 96.8156 68.6606 101.062L61.611 100.055C62.1794 95.8471 62.7501 96.5706 58.7238 95.9953C59.6294 90.0457 59.5886 88.8344 59.8145 88.8713ZM60.8614 99.5731C60.7846 99.557 60.7031 99.5508 58.2276 99.2751L58.604 96.7934L61.187 97.1628L60.8614 99.5731ZM75.0672 100.603C70.4064 100.104 71.3158 99.4156 70.3335 104.375L61.3745 103.344C61.4021 102.94 61.4789 101.93 61.6279 100.87C69.2958 101.966 68.7251 101.889 68.8034 101.889C69.5715 101.889 69.464 101.176 69.8396 98.3971L72.6723 98.8019C73.5771 98.9348 73.3866 98.3826 74.3713 91.0895L76.2378 91.3829L75.0672 100.603Z" fill="black"/>
<path d="M68.546 89.3828C68.9838 90.3644 68.9685 90.2907 68.9585 90.356C68.7442 91.7815 68.7488 92.0903 68.6712 92.078C66.8724 91.7877 66.9814 91.8422 66.9929 91.7654C67.0472 91.4866 67.0816 91.2042 67.0959 90.9205C65.8815 90.7316 65.9814 90.7208 65.9722 90.7861C65.7556 92.2316 65.6649 92.5035 65.7417 92.5158C68.0153 92.8745 67.9577 92.83 67.9922 92.9068C68.4339 93.8945 68.417 93.8208 68.4078 93.883C68.2878 95.065 68.105 96.2398 67.8601 97.4024C67.3701 97.9531 67.231 98.1782 67.1542 98.1659C63.8315 97.6374 63.7985 97.6774 63.7639 97.6006C63.3161 96.6021 63.3353 96.6789 63.3437 96.6197C63.5519 95.2372 63.5527 94.8792 63.6302 94.8915C65.3899 95.175 65.32 95.122 65.3101 95.2026C65.2553 95.4813 65.2214 95.7637 65.2087 96.0475C66.3954 96.2326 66.3001 96.2434 66.3101 96.1804C66.5313 94.6987 66.6173 94.4606 66.5405 94.4483C64.3261 94.0996 64.3277 94.1411 64.2931 94.0643C63.8507 93.075 63.866 93.1464 63.876 93.0819C63.9966 91.9113 64.1779 90.7477 64.4191 89.5955C64.6675 89.3503 64.8961 89.0858 65.1027 88.8044L65.1065 88.8013C65.1076 88.8005 65.109 88.8 65.1104 88.7998H65.115C68.7634 89.3782 68.5115 89.306 68.546 89.3828Z" fill="black"/>
<path d="M52.2983 81.421C52.4658 78.675 52.5088 78.6658 52.3751 78.5475C52.2784 78.463 52.2054 78.483 50.0901 78.2695C49.8556 78.2105 49.6391 78.095 49.4595 77.9331C51.425 64.8225 51.0609 66.4348 51.2983 66.169C51.8574 65.5422 53.2323 66.1183 53.9505 66.1429C54.6687 66.1675 54.416 65.3917 54.4206 64.9669C54.4306 64.1996 54.5081 63.4354 54.651 62.6819C54.8407 62.4668 54.4359 62.4852 63.5263 63.6896C64.5248 63.8217 64.6707 64.2488 64.0086 67.7397C64.7353 67.921 65.4634 68.0938 66.1931 68.259C65.3359 76.7886 65.3935 79.1981 64.1891 79.0368C62.0515 78.7503 62.0561 78.7211 61.8618 78.8386C61.0837 79.3095 61.2473 83.176 60.1544 83.1284C57.4353 83.0109 55.8784 82.4863 54.8146 82.4179C53.8675 82.3542 51.3951 82.4901 52.2983 81.421Z" fill="#FDFE1F"/>
<path d="M64.4294 67.3394C64.7712 64.4644 65.1683 63.3338 64.1268 63.1917C54.0771 61.7922 54.6915 61.7807 54.329 62.2731C54.1385 62.5304 54.1846 62.4513 53.7591 65.6711C51.5915 65.2924 50.7835 64.9875 50.5969 66.4661C49.0922 78.4099 48.8702 77.8292 49.2734 78.35C49.5914 78.7601 49.7627 78.6956 51.9717 78.9299C51.8304 79.935 51.722 80.9446 51.6468 81.9569C51.6262 82.0666 51.6278 82.1794 51.6516 82.2885C51.6754 82.3976 51.7209 82.5008 51.7854 82.5919C51.8499 82.6831 51.932 82.7603 52.027 82.8191C52.122 82.8778 52.2278 82.9169 52.3381 82.9339C59.4245 83.8157 60.4445 83.8103 60.5267 83.8103C61.4822 83.8103 61.4046 82.6781 62.0107 79.3961L64.6268 79.6526C64.7371 79.6641 64.8486 79.6534 64.9546 79.6211C65.0607 79.5888 65.1592 79.5355 65.2443 79.4644C65.3298 79.3938 65.4002 79.3068 65.4515 79.2085C65.5028 79.1102 65.534 79.0027 65.5431 78.8922L66.8573 68.5937C67.004 67.5007 65.8926 67.5729 64.4294 67.3394ZM52.9795 78.396C53.5778 73.9281 54.0548 74.6577 50.6314 74.1715L51.6837 66.4653C53.6477 66.7487 54.7038 67.2595 54.8329 65.7848C54.8329 65.7848 55.1862 63.0895 55.19 63.0511C55.3928 63.111 54.9765 63.045 61.0536 63.8676C60.476 68.1751 59.9783 67.4838 63.447 67.9769C63.5737 68.2004 63.6513 67.2426 62.5299 75.8652C58.8876 75.3467 59.5835 74.7407 59.0228 79.2571L52.9795 78.396ZM63.3594 67.198L61.407 66.9208L61.8025 63.9667L63.7135 64.2217L63.3594 67.198ZM50.1153 77.6487C50.1521 77.5719 50.2812 76.5411 50.52 74.9197L52.64 75.2207L52.2836 77.8806C52.2283 77.8707 51.7259 77.8192 50.1153 77.6487ZM64.5016 78.5573C60.4568 78.161 61.2756 77.4474 60.3055 82.705L52.7329 81.8893C52.7659 81.4692 52.862 80.3431 53.0271 79.1664C59.2118 80.0459 59.0505 80.0298 59.1311 80.0298C59.9099 80.0298 59.7863 78.9729 60.1204 76.2846L62.5606 76.6317C63.3909 76.7546 63.2342 76.0603 64.2604 68.4032L65.7636 68.6436L64.5016 78.5573Z" fill="black"/>
<path d="M57.2438 71.8137C56.3758 71.8137 55.6446 70.7952 55.3159 70.1093C55.2391 69.9557 55.2252 70.0978 55.524 69.4072C56.0179 68.2559 56.6311 67.1595 57.3536 66.136C57.7092 65.5875 57.5771 65.5929 57.8145 66.1797C58.408 67.8099 58.8493 69.4915 59.1325 71.203C58.9935 71.6332 57.4058 71.8137 57.2438 71.8137ZM55.8443 69.9887C56.0801 70.4414 56.4073 70.8403 56.8052 71.16C56.917 71.2289 57.0427 71.2722 57.1731 71.2871C57.3036 71.302 57.4358 71.288 57.5602 71.2461C57.912 71.1946 58.2607 71.1201 58.6025 71.0233C58.3328 69.6118 57.9695 68.2197 57.5149 66.8564C56.844 67.8356 56.2837 68.8861 55.8443 69.9887Z" fill="black"/>
<path d="M59.0895 72.4709C59.2754 71.8565 58.2354 72.2981 57.763 72.4133C56.6946 72.6683 56.5095 72.4786 55.9449 71.6706C54.7659 69.9862 55.0155 71.8142 55.1868 73.8696C55.1723 74.8022 55.4207 75.72 55.9034 76.518C56.8682 76.5088 58.9697 72.8673 59.0895 72.4702V72.4709ZM58.0095 73.3773C57.4537 74.2645 56.8226 75.1023 56.1231 75.8813C55.7606 75.1339 55.7544 74.3351 55.5962 72.5731C55.4825 71.3127 55.6807 72.8281 56.7099 73.0071C58.1662 73.2598 58.7892 72.1568 58.0095 73.3781V73.3773Z" fill="black"/>
<path d="M52.7868 57.5787C48.0653 50.235 49.0646 50.5722 46.9155 51.9509C45.9938 50.4808 45.7465 49.6244 44.8486 50.3648C40.0549 53.3895 39.6087 53.4087 40.0534 54.1146L41.0826 55.8044C39.316 56.9796 39.2722 56.0394 43.5252 62.8347C43.9238 63.4722 44.3939 63.0191 45.7334 62.2387L47.0553 64.1228C47.4992 64.8272 47.8626 64.4477 52.3252 61.6911C52.4535 61.6062 52.543 61.4738 52.5738 61.323C52.6046 61.1722 52.5743 61.0153 52.4895 60.8869C52.4711 60.8531 52.0479 60.0758 51.5225 59.2524C52.3559 58.7623 53.3091 58.3959 52.7868 57.5787ZM50.6715 59.1809L47.4716 61.2348C45.9416 58.8061 46.447 58.9812 44.5459 60.2002L41.9413 56.0617C42.0097 55.8505 41.7524 56.0617 43.1703 55.1554C43.6373 54.8566 43.1403 54.3543 42.2601 52.9571C44.4054 51.603 45.2925 51.0469 45.3624 50.9923C46.8118 53.3073 46.4247 53.2282 48.2896 52.0323L50.9011 56.1262C49.0592 57.3029 49.1614 56.7807 50.6715 59.1809ZM40.8399 53.8519L41.8008 53.2451L42.764 54.7736L41.7839 55.4019L40.8399 53.8519ZM51.6961 61.1242L47.6329 63.5391C45.6919 60.7739 46.2933 60.9783 44.112 62.2479L40.823 56.9481L41.5573 56.4634C44.3539 60.903 44.1765 60.7225 44.43 60.7793C44.6604 60.83 44.6842 60.754 46.0015 59.9091C46.8886 61.317 47.1813 62.0597 47.6483 61.7633L50.8512 59.7071C51.2206 60.2847 51.5425 60.85 51.6961 61.1242ZM50.9695 58.641L50.1085 57.2738L51.1876 56.5825L52.0801 57.9819C52.0655 57.9942 50.9848 58.631 50.9695 58.641Z" fill="black"/>
<path d="M48.4657 56.5602C46.5554 54.9549 45.0976 52.7121 44.8303 53.7797C44.7919 53.9334 44.7881 53.8335 45.3849 55.8904C45.2182 55.9849 45.0531 56.0825 44.8902 56.1846C44.8285 56.2208 44.7837 56.28 44.7656 56.3492C44.7475 56.4184 44.7577 56.492 44.7938 56.5537C44.83 56.6154 44.8892 56.6602 44.9584 56.6783C45.0276 56.6964 45.1012 56.6862 45.1629 56.6501L45.54 56.4197L45.9855 57.9512C46.0084 58.0155 46.0548 58.0688 46.1153 58.1004C46.1758 58.1319 46.246 58.1394 46.3119 58.1213C46.3777 58.1032 46.4342 58.0609 46.4701 58.0029C46.5061 57.9448 46.5187 57.8753 46.5055 57.8084L46.0239 56.1524C46.2152 56.0533 46.6038 55.915 46.421 55.6316C46.2674 55.3943 46.037 55.541 45.8711 55.6255C45.199 53.3135 45.2896 54.5885 48.0847 56.9374C48.3482 57.1632 48.7314 56.7837 48.4657 56.561V56.5602Z" fill="black"/>
<path d="M42.4118 66.3579C42.9318 63.8286 43.534 64.4768 37.9192 63.3623C37.1173 63.095 37.0866 63.6004 36.7502 65.1182C35.5812 64.8793 35.247 64.6981 35.0527 65.6029C33.6371 72.213 33.2439 71.6577 35.2217 71.9903C34.6786 74.4313 34.4137 73.7992 39.4969 74.7385C39.6383 74.7643 39.7842 74.7341 39.9037 74.6542C40.0233 74.5744 40.1071 74.4512 40.1375 74.3107L40.6098 72.5917C42.8711 72.9543 42.1921 73.5603 43.5793 67.2028C43.7291 66.5154 42.9395 66.4754 42.4118 66.3579ZM36.0097 71.5894C36.4944 69.3942 36.6334 69.729 35.0297 69.4018L35.8461 65.7657C37.529 66.1129 37.324 66.278 37.7917 64.1734L40.5676 64.7196C40.2365 66.212 40.1897 66.2388 40.3126 66.4286C40.5192 66.7473 41.4709 66.6313 41.6744 66.8994L40.8564 70.5908C39.0783 70.2275 39.397 69.9825 38.9131 72.1831L36.0097 71.5894ZM41.6076 66.255L40.8157 66.0929L41.0968 64.824L41.8703 64.9776L41.6076 66.255ZM34.6349 71.077L34.906 69.9249L35.7847 70.1046L35.5358 71.2268L34.6349 71.077ZM41.732 71.9557C39.692 71.6293 40.0914 71.4273 39.4109 73.9067L35.7931 73.2922C35.8354 73.0403 35.9145 72.6009 36.0182 72.1401C39.8295 72.9189 39.2135 73.3214 39.7473 70.9111C41.6422 71.2952 41.1298 71.8382 42.1744 67.1321L42.7398 67.2581L41.732 71.9557Z" fill="black"/>
<path d="M62.649 54.6084C60.4661 49.9568 60.9592 50.238 59.6535 50.8125C58.9369 49.2494 59.5951 49.3608 55.5872 51.0836C55.1079 51.3832 55.4628 51.7872 55.8261 52.6121C55.3821 52.8157 54.919 52.9347 55.1287 53.394C57.1334 57.7975 56.5427 57.3651 58.0612 56.7736C58.5828 57.7721 58.731 58.3144 59.175 58.1285C62 56.9441 62.4432 56.9764 62.2051 56.4649C61.7527 55.2797 61.6014 55.6023 62.4232 55.2766C62.4833 55.2492 62.5372 55.2097 62.5815 55.1606C62.6258 55.1116 62.6595 55.054 62.6807 54.9914C62.7018 54.9287 62.7099 54.8625 62.7045 54.7966C62.6991 54.7307 62.6802 54.6667 62.649 54.6084ZM60.9539 55.0354L59.2595 55.7774C58.6396 54.424 58.8232 54.4978 57.7148 54.9832L56.6887 52.7381C57.8024 52.2503 57.7171 52.4078 57.1111 51.0844L58.7779 50.3678C59.41 51.7503 59.2433 51.7081 60.3839 51.2088L61.374 53.3779C60.258 53.8695 60.3409 53.6967 60.9539 55.0354ZM56.5819 51.3117L56.9045 52.0168L56.3292 52.2703L56.015 51.556L56.5819 51.3117ZM59.1166 57.5041C58.2256 55.7951 58.5183 55.9502 57.1718 56.4748L55.747 53.3088L56.2178 53.0937C57.562 56.0278 57.1979 55.8366 58.4115 55.3043C58.8178 56.1899 58.9069 56.5586 59.3002 56.3873C61.4554 55.4448 61.1436 55.5301 61.2066 55.666C61.364 55.9994 61.4992 56.3274 61.5768 56.5217L59.1166 57.5041ZM61.5568 54.9694L61.1574 54.0976L61.6667 53.8749L62.0868 54.7589L61.5568 54.9694Z" fill="black"/>
<path d="M64.6917 115.793C64.6917 115.793 56.7082 104.958 56.616 104.848C56.1229 104.28 55.4977 104.27 54.6958 104.858C54.6958 104.858 52.3147 106.588 52.2625 106.631C50.3507 103.987 49.8322 102.456 48.1709 103.925C48.0057 104.071 48.8829 103.383 37.4337 111.642C37.1942 111.815 37.0328 112.076 36.9848 112.367C36.9367 112.659 37.0059 112.958 37.1772 113.198L39.3033 116.248C37.1326 117.868 36.7363 118.002 36.6349 118.636C36.5328 119.284 36.2739 118.783 43.9917 129.506C44.1633 129.744 44.4218 129.905 44.7113 129.954C45.0008 130.003 45.298 129.936 45.5386 129.768L48.9359 127.475C51.9476 131.115 51.903 131.274 52.6089 131.274C53.0974 131.274 52.3408 131.91 63.4182 124.094C63.6543 123.928 63.8159 123.677 63.8686 123.393C63.9213 123.109 63.8608 122.816 63.7001 122.577C63.0726 121.559 62.4043 120.567 61.6969 119.603C64.5481 117.654 64.8261 117.619 64.9521 116.855C64.9822 116.67 64.9746 116.48 64.9299 116.298C64.8851 116.115 64.8041 115.943 64.6917 115.793ZM57.9379 116.548L60.1392 119.582L52.6081 125.048C49.4159 120.65 50.5911 120.862 46.2222 124.034L40.8371 116.615C40.9186 116.312 40.48 116.705 43.7889 114.3C43.8768 114.237 43.9513 114.157 44.008 114.064C44.0647 113.972 44.1025 113.869 44.1192 113.762C44.1529 113.546 44.0996 113.325 43.9709 113.148L41.8695 110.253C50.1018 104.344 49.1794 104.85 49.3806 105.127C52.2855 109.137 51.4145 109.095 55.6428 105.962L61.0126 113.297L58.1207 115.395C58.0328 115.458 57.9583 115.539 57.9016 115.631C57.8449 115.724 57.8071 115.826 57.7904 115.933C57.7732 116.041 57.7774 116.15 57.8027 116.255C57.828 116.361 57.874 116.46 57.9379 116.548ZM38.5475 112.631L41.0453 110.843L43.0385 113.591L40.5038 115.434L38.5475 112.631ZM62.3183 123.096L52.6665 129.714C48.5833 124.78 50.0212 124.998 44.9856 128.4L38.2003 118.885L40.1689 117.416C45.9403 125.367 45.5724 125.035 46.0532 125.113C46.4987 125.184 46.3474 125.197 49.7001 122.763C51.5151 125.264 52.1319 126.651 53.0529 125.98L60.5755 120.52C61.3436 121.57 62.0111 122.609 62.3183 123.097V123.096ZM60.7821 118.477C60.6009 118.6 60.9219 118.934 58.8696 116.105L61.6201 114.108L63.4989 116.618L60.7821 118.477Z" fill="black"/>
<path d="M54.6008 118.705C54.4379 118.474 54.441 118.568 54.5316 118.421C55.9618 116.116 53.3449 113.521 51.1858 113.694C52.1398 111.466 50.5184 109.443 48.5743 109.936C48.2172 109.168 47.5412 108.899 47.4383 109.049C47.3354 109.2 47.6081 109.568 47.9053 110.015C48.0589 110.245 48.082 110.041 47.2417 110.573C46.4659 109.267 45.9144 109.728 46.734 110.929C46.5343 111.113 46.3438 111.306 46.1641 111.509C46.7501 112.431 48.3285 114.229 49.3248 115.807C52.6352 121.048 51.8679 120.639 52.7043 119.963C52.7858 119.919 52.7297 119.912 52.8818 120.111C53.4386 120.843 54.3657 121.033 53.3772 119.732C53.2743 119.598 53.2566 119.651 53.431 119.533C54.143 119.05 54.0078 118.946 54.0931 119.066C55.0655 120.414 55.2291 119.573 54.6008 118.705ZM49.1612 114.449C48.6235 113.485 48.1135 112.456 47.6941 111.674C47.9797 111.381 48.2878 111.111 48.6158 110.866C50.089 109.851 51.49 111.646 50.4185 113.184C50.0614 113.663 49.6381 114.089 49.1612 114.449ZM52.4063 118.75C51.4849 117.778 50.6361 116.739 49.867 115.642C50.3042 115.156 50.8623 114.794 51.4846 114.594C53.6076 114.238 56.0678 117.224 52.4048 118.745L52.4063 118.75Z" fill="black"/>
<path d="M68.5942 86.9649C69.2855 87.3128 69.5559 88.0402 70.3086 89.6132C70.6036 88.9696 70.7871 87.0179 72.9078 86.4019C73.1383 86.3358 73.2619 86.1807 73.0553 86.0562C72.5545 85.7551 71.0521 85.5815 70.4592 83.8556C69.5474 81.2027 70.5859 85.6115 67.2378 86.3535C67.6526 86.6315 68.1111 86.8381 68.5942 86.9649Z" fill="white"/>
<path d="M29.0584 80.5327C29.5853 79.4669 30.0177 78.3568 30.3503 77.2153C30.7113 78.2138 31.2029 79.1609 31.8097 80.0327C32.6262 81.0066 34.657 81.4068 34.7799 81.6618C34.9335 81.9829 33.3205 82.2064 32.4895 83.2249C32.3912 83.3447 31.2359 85.2273 31.1837 85.3694C31.0047 85.8371 31.0009 86.4301 30.5892 86.7151C30.2559 86.0238 30.1929 85.2288 29.8403 84.5498C29.1252 83.1749 27.6467 82.86 26.9216 82.5159C25.8194 81.9944 28.0392 82.0482 29.0584 80.5327Z" fill="white"/>
<path d="M33.4499 80.854C32.8227 80.5914 32.2679 80.1817 31.8325 79.6595C31.397 79.1373 31.0937 78.518 30.9482 77.8538C30.1655 75.2139 30.4873 75.0318 29.8137 77.9567C28.8551 82.2342 25.5677 81.7611 25.6223 82.2696C25.666 82.6743 28.9535 82.3855 30.0649 85.9879C30.4036 87.0632 30.5204 87.9995 30.6794 87.9934C30.8384 87.9872 30.9405 87.0717 31.29 85.9963C33.0712 80.4476 38.1083 82.8095 33.4499 80.854ZM30.6755 86.2306C30.5089 85.4312 30.1619 84.6803 29.661 84.0354C29.1601 83.3905 28.5185 82.8685 27.7852 82.5092C26.5939 81.9523 26.6815 82.5246 27.8428 81.8225C28.5295 81.3702 29.1115 80.7763 29.55 80.0807C29.9885 79.3851 30.2732 78.6039 30.3852 77.7893C30.5832 78.7922 31.0861 79.7095 31.8252 80.4158C32.5643 81.1221 33.5035 81.5828 34.5144 81.735C32.5965 82.159 31.1264 84.3349 30.6755 86.2321V86.2306Z" fill="black"/>
<path d="M56.369 60.5911C55.1301 61.807 54.0863 61.2969 54.8021 61.8438C55.2759 62.2123 55.6577 62.6858 55.9175 63.2269C56.1773 63.7681 56.3079 64.3621 56.2991 64.9623C58.1694 62.214 59.0704 62.7663 59.3362 62.5044C59.5866 62.2578 58.8139 61.8669 58.6841 61.7778C57.5365 60.9912 57.8353 59.6118 57.5542 59.061C57.0995 59.4866 56.8284 60.1394 56.369 60.5911Z" fill="white"/>
<path d="M58.9627 61.6672C56.9764 60.1863 58.5425 56.1784 56.9741 59.3905C56.8067 59.7892 56.5593 60.1493 56.2473 60.4487C55.9352 60.748 55.5651 60.9803 55.1599 61.131C54.4993 61.3576 53.8772 61.3361 53.8541 61.5028C53.7474 61.8914 55.7966 62.1019 55.9687 64.45C56.1085 66.2112 56.0286 66.1451 56.915 64.6727C58.6432 61.777 61.4997 63.4975 58.9627 61.6672ZM56.5048 64.3194C56.4706 63.8472 56.3394 63.3871 56.1194 62.9679C55.8993 62.5487 55.5952 62.1793 55.2259 61.883C54.9187 61.6411 54.9056 61.7824 55.3281 61.6449C56.2249 61.3243 56.9595 60.6634 57.3727 59.8053C57.4083 60.3455 57.5851 60.867 57.8854 61.3174C58.1857 61.7679 58.5991 62.1317 59.0841 62.3723C58.5403 62.4958 58.029 62.7333 57.5838 63.0689C57.1385 63.4045 56.7695 63.8307 56.501 64.3194H56.5048Z" fill="black"/>
<path d="M46.2607 105.323C48.5973 105.415 48.8308 105.808 50.2064 107.377C50.36 104.721 50.8209 104.151 51.9047 103.082C51.612 102.704 50.4015 103.191 49.3308 102.493C48.7025 102.084 48.1787 101.178 47.9528 101.03C47.5304 100.756 47.8576 101.902 47.8415 102.21C47.7007 103.402 47.1404 104.506 46.2607 105.323Z" fill="white"/>
<path d="M72.2962 85.408C69.6847 84.2643 70.5012 79.4983 69.6002 83.4071C68.9297 86.3934 66.6523 86.0186 66.703 86.4864C66.6845 86.9065 68.9896 86.6008 69.78 89.1547C70.3883 91.0803 70.2162 90.9736 70.8061 89.1601C71.9905 85.4717 75.5506 86.7759 72.2962 85.408ZM70.2938 88.9919C70.1462 88.4709 69.8899 87.987 69.5419 87.5721C69.1938 87.1572 68.7619 86.8207 68.2745 86.5847C67.7668 86.3489 67.7952 86.5616 68.3229 86.2437C68.777 85.9499 69.168 85.5685 69.4729 85.1218C69.7779 84.6751 69.9906 84.1721 70.0987 83.6421C70.2677 84.2557 70.6021 84.811 71.0654 85.2473C71.5287 85.6837 72.103 85.9842 72.7256 86.1162C71.5519 86.4902 70.6871 87.7798 70.2938 88.9919Z" fill="black"/>
<path d="M50.7698 102.605C47.8334 102.374 47.0454 97.4709 47.4893 101.567C47.848 104.696 45.5038 105.088 45.7135 105.53C45.8349 105.939 47.9686 104.859 49.6008 107.074C51.9051 110.164 49.4902 106.514 51.3459 103.983C52.2162 102.782 53.2254 102.76 50.7698 102.605ZM50.0463 106.77C49.7296 106.309 49.3176 105.922 48.8383 105.634C48.3591 105.347 47.8236 105.165 47.2681 105.102C46.6713 105.041 46.7742 105.249 47.1951 104.743C47.5384 104.303 47.7896 103.798 47.934 103.258C48.0783 102.719 48.1128 102.156 48.0354 101.603C48.4071 102.149 48.923 102.58 49.5255 102.85C50.128 103.12 50.7936 103.217 51.4481 103.131C50.4342 103.874 49.9948 105.462 50.0463 106.768V106.77Z" fill="black"/>
<path d="M51.6049 48.0088C52.8223 49.1179 53.9514 48.8706 54.0175 49.0649C54.0789 49.2446 53.5505 49.8514 53.4191 50.1525C53.2033 50.6472 53.3224 51.2517 53.0504 51.7171C52.1387 50.2578 50.7324 50.661 50.7285 50.3822C50.7285 50.2608 51.3653 49.6909 51.5304 49.028C51.5703 48.8698 51.7478 48.1424 51.6049 48.0088Z" fill="white"/>
<path d="M54.4745 48.9868C54.4692 48.6903 53.2602 48.8447 52.6964 48.4492C52.0051 47.9676 51.6349 46.9836 51.3784 47.0889C50.9398 47.2333 51.8154 48.7303 50.8553 49.8471C50.5365 50.2173 50.1686 50.4738 50.2324 50.6236C50.2785 50.7772 50.7109 50.7434 51.181 50.8064C52.6181 50.9508 52.8592 52.4962 53.2894 52.4263C53.7026 52.315 53.0382 50.9224 53.9261 49.7564C54.208 49.3824 54.5283 49.1328 54.4745 48.9868ZM52.8976 51.1897C52.4831 50.6838 51.8905 50.3558 51.2416 50.2734C51.6464 49.7434 51.8661 49.0967 51.8684 48.43C52.0837 48.6937 52.356 48.9054 52.6647 49.049C52.9734 49.1927 53.3107 49.2646 53.6511 49.2595C53.1777 49.7923 52.9104 50.477 52.8976 51.1897Z" fill="black"/>
<path d="M109.589 77.7738C111.105 79.1564 113.108 79.853 115.05 80.5128C118.467 81.6742 122.568 80.1288 124.797 77.2868C127.836 73.4172 127.946 68.844 127.08 67.7164C126.261 69.3916 124.261 71.4033 122.458 70.9762C122.018 70.8707 121.633 70.6066 121.376 70.2347C121.119 69.8628 121.008 69.4092 121.065 68.9607C121.385 67.1872 123.993 64.3192 123.738 63.1363C123.628 62.6232 124.061 61.9028 123.969 60.998C123.914 60.4803 123.733 60.1654 122.778 58.0946C122.705 57.8877 122.592 57.6973 122.446 57.5341C122.299 57.3709 122.122 57.2383 121.924 57.1437C121.349 56.7466 120.838 56.1206 120.139 56.1275C122.151 63.578 113.483 59.2721 112.934 63.5434C112.699 65.3715 114.66 66.1142 113.981 69.0276C113.85 69.586 113.714 69.7742 113.105 69.8786C112.499 70.04 111.862 70.0512 111.251 69.9113C110.64 69.7713 110.071 69.4843 109.596 69.0752C108.942 68.4054 107.766 65.8062 107.983 64.2938C108.213 62.6747 105.744 66.7778 106.37 72.4087C105.987 72.2804 107.572 75.9327 109.589 77.7738Z" fill="#FDFE1F"/>
<path d="M64.2514 10.3524C63.1476 10.4139 63.272 18.0333 69.0773 19.1425C71.0159 19.5111 72.7334 19.6033 74.937 18.0579C76.6675 16.8466 77.0209 15.6461 77.3081 13.54C77.5231 12.7082 77.4104 11.8255 76.9932 11.0744C76.0377 13.3464 73.3471 13.0799 73.0759 11.3909C73.0752 10.717 73.2242 10.0514 73.5122 9.44225C73.7577 8.53069 73.6935 7.56341 73.3297 6.6923C72.9659 5.82118 72.323 5.09557 71.5021 4.62939C71.4107 5.19855 71.7141 5.80764 71.4975 6.34224C71.1657 7.16409 70.1411 7.06885 68.5949 8.10884C67.2684 9.00367 67.3475 9.76638 67.9758 11.1382C68.3599 11.9762 68.5626 13.0484 67.9459 13.3703C67.4881 13.4314 67.0223 13.3801 66.5888 13.2207C66.1553 13.0613 65.7672 12.7986 65.458 12.4555C64.9654 11.8103 64.5597 11.1033 64.2514 10.3524Z" fill="#FDFE1F"/>
<path d="M38.715 26.9418C38.5537 26.6745 38.4308 26.4495 38.059 26.4042C38.2864 27.3789 38.3732 28.3805 38.3148 29.3797C38.3237 29.7421 38.2562 30.1022 38.1166 30.4366C37.9769 30.7711 37.7684 31.0723 37.5045 31.3207C37.3675 31.549 37.161 31.7275 36.9153 31.8301C36.6696 31.9326 36.3975 31.9538 36.1388 31.8906C33.4113 31.5573 34.2808 28.7361 33.3376 27.0962C32.5833 25.7835 32.4927 25.1906 31.094 24.5185C29.3812 23.6974 27.0124 23.5377 27.9848 24.2435C28.4843 24.5693 28.8757 25.0362 29.1095 25.5848C29.3432 26.1335 29.4086 26.7392 29.2974 27.3251C28.8919 28.7645 27.1967 29.4673 26.8081 30.4643C26.6976 30.8746 26.7159 31.309 26.8604 31.7087C27.0049 32.1083 27.2687 32.4539 27.6161 32.6987C29.1937 33.9699 31.4512 33.6012 30.8206 35.993C30.7942 36.1871 30.7113 36.3692 30.5823 36.5165C30.4532 36.6639 30.2837 36.7701 30.0947 36.8218C28.0478 37.6498 27.4471 36.9032 26.6698 36.5668C26.358 36.4316 26.0215 36.3563 25.7181 36.2042C25.0138 35.8501 24.5614 35.122 23.8701 34.7449C23.8732 35.1304 23.9047 35.516 23.9646 35.897C25.0591 38.9962 26.1997 40.1345 28.2536 41.2321C32.0595 43.2653 33.9052 42.8083 36.38 41.6292C39.1397 40.3135 40.0784 38.4348 40.9117 36.1028C41.5485 34.1534 41.4494 32.0381 40.6352 30.1555C40.1636 28.9922 39.516 27.9083 38.715 26.9418Z" fill="#FDFE1F"/>
<path d="M127.334 67.6083C127.027 66.8548 127.053 67.278 126.599 68.0415C125.07 70.6453 120.843 71.4671 121.741 68.6175C122.184 67.235 123.452 65.9208 124.129 64.37C124.566 63.3084 124.714 62.1503 124.559 61.013C124.403 59.8756 123.95 58.7997 123.244 57.8942C122.041 56.358 120.146 55.6721 120.057 55.9655C119.806 56.0723 120.86 58.1362 119.289 59.6639C117.011 61.9751 114.354 59.1439 112.606 62.5327C111.31 65.0229 113.696 66.6627 113.605 68.3902C113.532 69.8595 110.958 70.2827 109.191 67.4185C107.952 65.3516 108.303 63.5067 108.002 63.4813C107.84 63.3776 105.847 65.8831 105.66 69.4593C105.134 79.2525 116.392 84.5999 123.302 79.4514C127.311 76.4689 128.725 71.037 127.334 67.6075V67.6083ZM126.464 73.3075C123.336 81.9485 112.736 81.9032 108.568 75.6425C107.521 74.1141 106.87 72.3505 106.672 70.509C106.474 68.6675 106.735 66.8057 107.432 65.0897C107.869 63.9521 107.739 64.2625 107.714 64.6442C107.49 69.2865 111.757 72.0639 114.089 70.1552C114.335 69.9472 114.536 69.6913 114.679 69.4031C114.823 69.115 114.906 68.8007 114.924 68.4793C115.086 66.0552 112.119 63.9975 114.476 62.3069C115.447 61.6056 116.669 62.1118 117.991 61.6617C120.312 60.9205 121.608 58.3727 120.351 56.2735C122.649 57.9326 123.45 59.9604 123.383 61.8483C123.301 64.89 119.944 66.9477 120.356 69.6882C120.802 73.0279 126.297 71.5178 127.116 68.0968C127.304 69.8609 127.081 71.6447 126.464 73.3082V73.3075Z" fill="black"/>
<path d="M76.9736 10.4308C76.7539 10.407 75.9889 13.0346 74.3068 12.2419C72.7076 11.5338 75.4935 8.83854 74.0664 6.34071C73.3121 5.01345 71.4549 4.25151 71.3627 4.45812C71.1323 4.44046 71.345 5.51732 71.2214 5.87371C71.0201 6.47436 70.2313 6.67944 69.6237 6.85917C67.2373 7.58271 66.1904 9.36545 67.5453 11.3287C67.907 11.8533 68.1044 12.2174 68.0238 12.4271C67.8863 13.103 66.4185 13.209 65.423 11.8464C64.5828 10.6773 64.7371 9.62737 64.5505 9.61892C64.4967 9.57053 64.148 9.80787 63.8124 10.4638C62.9314 12.1882 63.1418 15.2728 65.1642 17.6462C69.2535 22.4291 76.7854 20.0872 77.6487 14.4379C78.0228 12.1198 77.1771 10.3425 76.9736 10.4308ZM64.2156 13.3518C64.0273 12.4665 64.0378 11.5504 64.2463 10.6697C64.249 11.5178 64.5683 12.3345 65.1416 12.9596C65.7148 13.5847 66.5008 13.9733 67.3456 14.0493C67.6536 14.0647 67.9605 14.0006 68.2366 13.8632C68.5128 13.7258 68.749 13.5197 68.9225 13.2648C69.096 13.0098 69.2011 12.7144 69.2276 12.4071C69.2541 12.0998 69.2011 11.7909 69.0738 11.51C68.6598 10.5545 67.3417 9.63659 68.808 8.45757C69.8495 7.61267 72.6108 7.3761 71.7152 5.07797C71.5923 4.80991 71.6054 4.85599 71.6853 4.94817C72.1569 5.48583 72.3466 5.60719 72.6838 6.02349C74.4504 8.19719 72.1131 9.94843 72.6615 11.9631C73.1539 13.9556 76.4044 14.0308 77.0289 11.4977C77.7532 20.4928 65.8063 21.7033 64.2156 13.3518Z" fill="black"/>
<path d="M37.7447 25.9802C37.5819 26.0401 38.1057 27.1407 37.9905 28.9388C37.7601 31.7915 35.5641 32.7309 34.7361 29.7238C34.1216 27.5148 33.7483 24.8626 30.325 23.7988C28.6774 23.2918 27.1328 23.7596 27.1912 23.9624C27.1558 24.1237 29.0691 24.6153 28.9685 26.5386C28.9032 27.9449 27.8394 28.3743 26.9008 29.4435C25.6419 30.8867 25.9023 32.9875 28.4723 33.9691C29.1952 34.1444 29.8581 34.5095 30.3926 35.0267C31.0339 35.7902 30.3618 36.8909 28.5607 36.7434C25.5252 36.493 24.022 34.4107 23.8592 34.5743C23.7271 34.5705 23.4751 36.9646 25.4998 39.5231C31.835 47.4483 44.9855 40.7244 40.9484 30.1125C39.9092 27.4764 37.8953 25.7828 37.7447 25.9802ZM40.569 35.665C39.6096 39.9225 34.7169 42.8666 30.5792 41.7759C28.9532 41.3641 27.4749 40.5056 26.3112 39.2976C25.1476 38.0896 24.3451 36.5802 23.9944 34.9399C25.7226 37.7519 31.0884 38.8295 31.6192 35.8954C31.8972 34.3746 30.3134 33.5028 28.8464 32.9767C27.0222 32.3184 26.8401 31.0304 27.652 30.058C28.3871 29.1301 29.8142 28.3182 29.7159 26.5309C29.7024 25.9868 29.528 25.4589 29.2147 25.0139C28.9013 24.5689 28.4631 24.2268 27.9554 24.0308C28.6833 24.0555 29.4004 24.2132 30.0715 24.4962C32.9603 25.7252 33.1439 27.8904 33.7207 30.0103C35.2354 35.2226 40.5567 31.7117 38.2378 26.6753C38.1572 26.5025 41.7288 30.621 40.569 35.665Z" fill="black"/>
<path d="M96.3262 104.848C96.6334 111.748 103.664 115.167 109.166 117.91C110.05 118.351 110.302 118.629 110.199 120.164C109.847 125.455 113.754 131.273 115.279 132.261C117.832 133.917 123.126 130.001 124.401 126.985C125.875 123.494 124.802 118.752 123.692 115.145C123.268 113.767 121.909 109.488 121.06 108.334C119.864 106.709 114.369 103.97 112.473 103.248C110.078 102.337 107.427 101.819 105.513 100.115C103.439 98.272 101.925 96.6505 99.2618 98.5661C98.3022 99.2988 97.5341 100.253 97.0229 101.346C96.5117 102.44 96.2727 103.641 96.3262 104.848Z" fill="white"/>
<path d="M123.404 111.661C121.331 103.8 112.889 103.45 107.548 100.253C105.675 99.1692 104.724 97.6906 102.987 97.0685C100.349 96.0469 95.5612 99.1969 95.6956 104.604C95.9399 111.096 103.053 117.474 109.368 118.891C109.042 126.771 114.308 132.535 114.853 132.063C115.226 131.756 112.733 128.536 111.528 123.819C110.246 119.122 110.793 115.083 110.317 115.006C110.141 114.973 109.803 115.705 109.572 117.004C101.491 115.051 93.7939 104.829 99.5868 99.8359C102.736 97.2106 103.267 100.01 106.586 101.865C112.313 105.251 119.861 105.136 122.126 112.032C125.817 124.648 126.212 123.8 123.404 111.661Z" fill="black"/>
<path d="M98.451 97.3264C99.2283 98.3096 101.912 97.8595 103.361 96.7842C104.694 99.1775 107.903 98.9479 108.032 98.4586C108.109 98.169 107.297 97.7128 106.737 97.0914C105.38 95.5852 105.491 93.0205 104.828 92.1211C104.125 92.6995 103.759 93.6043 103.076 94.2057C102.128 94.993 100.922 95.4032 99.6899 95.3578C98.8327 95.2488 95.4731 93.4737 95.1666 93.3662C95.4846 96.1866 96.9893 96.4078 96.0346 98.4594C95.2143 100.226 93.1842 101.993 93.0605 102.207C95.8641 102.043 97.994 101.771 98.3058 98.6737C98.3994 98.2306 98.4481 97.7793 98.451 97.3264Z" fill="#FDFE1F"/>
<path d="M104.706 92.81C105.24 94.3569 104.79 95.5067 106.15 96.95C106.593 97.3688 107.005 97.8185 107.384 98.2957C106.981 98.3934 106.562 98.4079 106.153 98.3383C105.744 98.2687 105.353 98.1164 105.005 97.8907C104.657 97.665 104.359 97.3708 104.128 97.0258C103.898 96.6809 103.74 96.2926 103.665 95.8846C102.983 96.728 102.006 97.28 100.932 97.4286C99.8573 97.5771 98.7668 97.3109 97.8818 96.6842C98.5194 99.0753 97.0308 102.102 93.9508 101.814C95.5131 100.113 96.6183 99.3518 96.5438 97.0068C96.5031 95.708 95.8034 94.9553 95.5215 93.853C97.961 94.7748 100.42 97.5906 103.838 94.0489C104.012 93.5663 104.312 93.1387 104.706 92.81ZM105.098 91.4658C104.176 92.2009 103.602 92.5411 103.149 93.5957C100.271 96.4469 98.9456 94.2786 94.3532 92.5481C95.2388 96.0121 95.7358 96.0114 95.7358 97.0322C95.8802 99.0492 94.6935 99.8111 92.251 102.469L93.877 102.622C96.9018 102.903 98.7429 100.533 98.8281 98.0261C99.9175 98.3834 101.097 98.3524 102.166 97.9385C103.993 97.2349 102.838 96.9208 103.871 97.9984C105.626 99.8272 107.592 99.0807 108.705 98.7665C106.589 95.771 106.188 96.4715 105.868 94.4898C105.76 93.4497 105.501 92.431 105.098 91.4658Z" fill="black"/>
</svg>
