<svg width="155" height="155" viewBox="0 0 155 155" fill="none" xmlns="http://www.w3.org/2000/svg">
<path d="M15.07 145.123C14.7948 145.081 14.5392 144.955 14.3378 144.763C14.1365 144.57 13.999 144.321 13.944 144.048C13.6491 142.456 16.8489 135.531 16.8489 135.531C16.8489 135.531 15.1369 133.736 16.034 130.363C16.4019 128.98 19.1716 123.101 21.0888 121.105C22.3746 119.766 24.6988 118.464 26.619 118.92C26.6958 118.937 26.1474 119.439 29.9902 114.898C34.2147 109.906 44.5701 101.41 53.3063 97.4302C62.4743 93.2533 77.9305 89.8261 91.634 92.2571C109.899 95.5023 121.762 106.055 129.38 114.158C132.427 114.116 135.052 116.521 137.06 118.812C140.23 122.422 143.124 126.679 143.323 131.479C143.465 132.862 143.111 134.25 142.325 135.396C143.235 137.588 144.011 139.833 144.648 142.119C144.707 142.348 144.719 142.586 144.684 142.819C144.649 143.052 144.568 143.276 144.445 143.477C144.321 143.678 144.158 143.852 143.966 143.989C143.774 144.126 143.556 144.223 143.326 144.274C133.507 146.45 82.6712 156.375 15.07 145.123Z" fill="#D9B343"/>
<path d="M137.077 123.547C136.7 123.845 141.988 131.018 139.009 131.324C138.965 130.32 138.703 129.338 138.241 128.446C137.388 126.671 133.709 121.911 132.831 120.939C132.054 119.993 130.999 119.318 129.815 119.008C130.327 116.12 134.347 120.374 134.664 119.93C134.799 119.728 132.002 116.456 130.108 117.15C129.032 117.523 128.341 118.97 128.935 120.639C129.883 123.319 135.995 130.728 136.385 131.115C137.393 132.06 138.466 132.711 139.756 132.248C143.487 130.337 137.374 123.309 137.077 123.547ZM134.542 127.111C133.39 125.638 129.959 121.457 129.787 119.591C131.738 120.235 132.971 122.458 134.974 125.091C136.356 126.966 138.08 128.959 138.375 131.222C137.007 130.714 135.619 128.428 134.546 127.111H134.542Z" fill="black"/>
<path d="M119.139 136.563C118.734 129.266 106.909 125.394 106.762 126.511C106.669 126.9 110.994 127.787 114.89 131.682C118.606 135.451 117.773 138.814 116.042 139.399C116.441 137.216 115.054 135.174 113.335 133.785C110.933 131.835 107.694 131.066 104.678 130.329C100.491 129.344 94.166 128.231 91.5752 131.759C89.9307 124.916 103.194 126.828 103.305 126.352C103.574 125.462 90.5867 123.339 89.8278 130.071C89.7041 131.183 89.9117 132.307 90.4245 133.301C90.9374 134.296 91.7327 135.116 92.7104 135.66C95.209 137.197 98.2092 136.831 100.967 137.184C108.055 138.024 110.537 140.941 114.606 141.193C117.648 141.34 119.246 139.449 119.139 136.563ZM105.267 136.354C98.7008 134.563 94.444 136.299 92.1021 132.914C93.6974 129.437 100.848 130.821 104.362 131.657C108.071 132.547 113.307 133.762 114.821 137.471C115.109 138.127 115.186 138.856 115.04 139.557C112.272 139.606 109.83 137.597 105.267 136.354Z" fill="black"/>
<path d="M87.3057 109.096C85.5498 105.933 80.2016 106.375 80.3053 106.905C80.3238 107.113 81.3484 107.084 82.83 107.536C84.5352 108.074 86.7319 109.277 86.2711 111.015C85.9431 112.353 86.1098 111.26 83.2325 110.081C79.2192 108.412 72.934 109.034 71.0637 111.861C70.1896 110.196 71.4953 108.789 73.1667 107.96C74.5339 107.332 76.6999 106.613 74.7858 106.703C67.989 107.102 68.1549 113.775 72.7642 114.655C74.4963 114.986 76.3189 114.466 79.114 114.466C81.1587 114.431 84.1066 115.22 86.1167 113.552C87.7304 112.257 88.0592 110.409 87.3057 109.096ZM79.1125 113.098C75.2882 113.098 73.1214 114.043 71.5445 112.502C73.0768 110.292 80.0703 108.819 85.4915 112.283C83.8938 113.809 81.5634 113.082 79.1125 113.098Z" fill="black"/>
<path d="M21.8169 127.515C20.227 130.461 19.1194 132.963 18.7853 132.857C18.478 132.758 19.0925 129.99 20.7401 126.933C22.3876 123.876 24.3808 121.851 24.6343 122.058C24.9031 122.283 23.4084 124.57 21.8169 127.515Z" fill="black"/>
<path d="M60.4478 129.196C56.6987 124.403 47.8588 129.002 48.2651 129.639C48.4709 130.006 54.0058 127.592 57.5244 128.912C59.5307 129.84 59.5806 130.861 58.728 131.984C58.4876 132.301 57.6381 131.404 54.5035 131.44C49.014 131.484 43.1358 134.619 40.3361 139.036C38.8944 138.382 38.6663 137.333 39.3222 135.887C40.6418 132.977 44.377 130.977 44.1942 130.609C43.9223 129.969 36.7599 133.51 37.435 137.948C37.9827 140.514 40.7908 141.304 43.6435 140.894C46.6352 140.436 63.9879 134.758 60.4478 129.196ZM41.3177 139.311C45.0644 134.764 52.0479 131.767 57.8562 132.877C54.9943 135.369 44.8985 139.826 41.3177 139.311Z" fill="black"/>
<path d="M106.324 118.66C105.124 117.416 105.395 116.18 106.442 115.952C107.961 115.877 109.463 116.299 110.721 117.155C112.026 118 114.688 119.934 110.349 117.822C107.883 116.622 106.351 117.015 106.597 117.005C106.597 117.005 106.591 116.994 106.602 117.055C106.555 118.424 114.071 122.243 113.006 119.673C112.513 118.64 112.98 119.005 113.36 119.447C114.21 120.435 113.297 122.996 107.942 119.797C107.35 119.5 106.804 119.117 106.324 118.66Z" fill="black"/>
<path d="M49.1208 115.707C47.1776 115.855 43.844 117.122 44.9078 118.738C45.8357 120.104 48.4534 119.648 50.0871 119.283C54.6772 118.184 54.522 115.375 49.1208 115.707ZM52.3729 117.499C50.7123 118.662 43.4969 119.182 46.699 117.38C49.8528 115.605 54.2263 116.198 52.3729 117.499Z" fill="black"/>
<path d="M70.3123 123.87C67.3329 126.565 64.9533 125.176 65.3574 123.507C65.511 122.865 66.4427 121.872 65.988 123.046C65.9073 123.187 65.8614 123.346 65.854 123.509C65.8466 123.671 65.878 123.833 65.9455 123.982C66.013 124.13 66.1147 124.26 66.2423 124.361C66.3698 124.462 66.5196 124.532 66.6792 124.564C67.7 124.804 69.9336 123.281 70.0742 122.563C70.1671 121.834 70.1725 121.172 68.0326 121.866C64.1883 123.113 67.5718 121.221 68.8007 120.875C69.9206 120.645 70.8461 120.79 71.0105 121.925C71.0733 122.282 71.042 122.649 70.9195 122.99C70.7971 123.331 70.5878 123.635 70.3123 123.87Z" fill="black"/>
<path d="M28.2342 139.166C26.9622 138.149 28.5506 136.257 30.2451 135.556C31.5846 135.003 32.0554 135.59 31.9564 135.65C31.4485 135.686 30.9598 135.858 30.5415 136.148C28.6528 137.325 28.1605 138.873 29.4601 138.429C30.2622 138.095 30.9796 137.587 31.56 136.94C31.741 136.784 31.8742 136.58 31.9443 136.352C32.0144 136.124 32.0186 135.88 31.9564 135.65C32.0332 135.442 32.8712 136.111 32.09 137.339C31.3089 138.568 29.3533 140.062 28.2342 139.166Z" fill="black"/>
<path d="M129.709 139.819C129.555 140.078 129.311 140.27 129.024 140.36C128.737 140.451 128.427 140.432 128.153 140.308C126.336 139.623 125.304 137.031 125.808 136.45C125.997 136.192 125.974 136.564 126.05 136.79C126.405 137.649 126.971 138.405 127.696 138.987C128.849 139.943 129.478 139.461 128.349 137.857C127.969 137.319 127.007 136.212 126.316 136.258C126.106 136.271 125.992 136.402 125.932 136.368C125.884 136.361 125.855 136.1 126.2 135.912C127.443 135.24 130.529 138.13 129.709 139.819Z" fill="black"/>
<path d="M85.8067 134.112C85.0563 132.052 85.2237 130.669 85.3282 130.676C85.62 130.642 86.1731 136.911 91.956 139.202C94.4861 140.206 97.1906 140.208 99.8988 140.72C102.012 141.119 103.205 141.776 103.149 141.888C103.09 142.032 101.863 141.639 99.7944 141.432C95.7335 141.028 88.5012 141.502 85.8067 134.112Z" fill="black"/>
<path d="M73.5176 117.558C69.2086 117.077 66.9281 114.286 67.2093 114.069C67.4658 113.838 69.1525 116.123 73.6251 116.628C77.0301 117.012 80.6916 116.327 80.7422 116.705C80.7822 117.011 76.6153 117.905 73.5176 117.558Z" fill="black"/>
<path d="M62.8458 135.461C59.9148 138.888 53.9298 141.568 53.7194 141.073C53.5811 140.746 59.0039 138.136 61.938 134.692C63.8175 132.486 64.0072 130.507 63.0302 128.342C62.4157 126.974 61.4556 125.745 61.6115 125.613C61.8166 125.438 67.4582 130.068 62.8458 135.461Z" fill="black"/>
<path d="M107.791 122.564C105.316 121.328 103.827 119.298 104.044 119.108C104.261 118.917 105.811 120.522 108.209 121.726C110.608 122.931 112.824 123.161 112.812 123.438C112.798 123.762 110.271 123.803 107.791 122.564Z" fill="black"/>
<path d="M144.46 138.874C142.953 134.431 143.025 135.884 143.59 134.658C146.239 128.623 137.848 114.358 129.381 113.274C102.152 80.7572 52.422 83.8557 26.6418 118.107C21.332 116.753 15.1611 127.324 14.976 132.128C14.9619 133.382 15.335 134.611 16.0444 135.646C15.5096 136.875 15.0038 138.117 14.5275 139.37C13.6227 141.751 13.393 143.844 13.8293 143.966C14.5866 144.182 16.218 139.402 17.3779 136.699C20.7306 138.127 25.0472 132.616 24.4036 132.185C24.091 131.977 19.9602 136.284 18.0722 135.246C14.2318 133.395 19.3265 124.057 21.9357 121.584C23.3951 120.167 26.1855 118.891 27.0051 120.144C28.2963 121.587 26.9529 127.333 27.3431 127.485C27.7632 127.661 28.9453 124.69 29.0113 122.199C47.858 97.1967 80.2022 88.9781 107.446 101.562C112.861 104.05 114.148 105.095 114.222 104.972C114.262 104.911 111.726 103.346 111.664 103.31C85.0604 87.7346 49.7252 93.9638 28.8915 120.583C28.7644 119.831 28.3723 119.15 27.7862 118.662C53.1532 87.1454 99.6979 82.4317 127.692 113.264C127.111 113.323 126.548 113.497 126.036 113.777C125.524 114.058 125.073 114.438 124.711 114.897C121.744 118.784 127.824 126.575 128.266 126.258C128.71 125.959 123.762 118.587 125.984 115.878C126.811 114.824 128.32 114.726 129.632 114.976C131.323 115.37 132.9 116.152 134.235 117.262C138.175 120.397 141.864 125.851 142.432 131.655C142.706 134.447 141.042 135.847 138.946 135.701C136.686 135.532 134.84 133.535 133.217 131.997C130.543 129.42 127.502 126.938 132.366 132.787C134.16 134.884 136.04 137.028 138.795 137.302C139.876 137.425 140.967 137.181 141.893 136.611C142.247 137.533 142.583 138.462 142.901 139.398C145.014 145.586 145.89 143.062 144.46 138.874Z" fill="black"/>
<path d="M43.7035 96.9363C45.0507 95.6167 47.3035 92.6742 46.9909 90.8277C46.6453 88.7899 40.4084 82.6913 34.0179 81.7181C31.0884 77.9422 23.6786 73.3052 21.2445 72.3313C19.0693 71.4618 16.0853 71.1254 14.354 72.2668C11.0965 74.4174 12.3186 81.7957 12.357 83.4594C12.4522 88.0526 16.0799 94.205 15.9509 95.5146C15.8525 96.5185 14.5983 96.4609 15.3948 100.172C15.895 102.617 16.5361 105.031 17.315 107.402C17.7436 108.666 18.3412 110.029 19.5578 110.575C21.3321 111.367 24.8653 110.384 26.6818 109.395C27.3071 109.054 27.6205 109.006 28.1412 109.637C29.1651 110.886 30.3956 113.353 32.5501 113.184C33.1645 113.136 33.3181 112.806 33.289 112.2C33.2327 110.897 32.8869 109.624 32.2766 108.472C33.0155 108.178 33.683 107.73 34.2345 107.157C35.0325 107.958 37.6402 110.382 38.7893 110.465C39.9399 110.547 40.731 109.203 40.6142 108.064C40.3671 106.943 39.9032 105.88 39.2486 104.937C38.7877 104.084 38.9736 104.129 40.817 101.659C42.1735 103.482 42.7426 104.394 43.5821 104.845C43.8976 105.035 44.2659 105.12 44.633 105.086C45 105.052 45.3467 104.902 45.6222 104.657C46.6537 103.54 45.3149 101.367 43.4577 98.3319C43.1059 97.7597 43.1159 97.5062 43.7035 96.9363Z" fill="#FFC5F6"/>
<path d="M20.8299 89.7485C20.6881 91.0042 20.9746 92.271 21.6429 93.3436C22.3113 94.4161 23.3223 95.2314 24.5121 95.6574C25.3192 95.9511 26.1907 96.0214 27.0345 95.8611C27.8784 95.7008 28.6633 95.3157 29.3065 94.7464C29.9499 94.1776 30.4281 93.4459 30.6908 92.6283C30.9536 91.8107 30.9912 90.9374 30.7997 90.1002C29.7289 85.0523 21.8706 84.1921 20.8299 89.7485Z" fill="#92FCFF"/>
<path d="M29.3575 93.6335C28.6182 94.5418 27.5515 95.1229 26.3875 95.2515C25.2235 95.3801 24.0556 95.0459 23.1359 94.321C21.0851 92.8393 21.1781 90.7109 20.8639 90.7286C20.6481 90.7386 20.4799 93.294 22.5284 95.0729C23.1053 95.5954 23.7878 95.9876 24.5296 96.2231C25.2715 96.4585 26.0553 96.5317 26.8279 96.4376C27.6005 96.3434 28.3438 96.0842 29.0074 95.6776C29.671 95.2709 30.2394 94.7262 30.674 94.0805C31.2556 93.2177 31.5772 92.206 31.6003 91.1656C31.6333 87.7776 28.5817 84.8228 25.1691 85.3673C22.7012 85.7268 20.9446 87.5088 20.7533 89.1041C20.6297 89.9398 20.7733 90.3853 20.8547 90.3837C20.9599 90.3876 21.0083 89.9398 21.2672 89.2416C21.9984 87.1385 25.1921 85.7414 27.5578 86.8874C30.0211 88.0503 31.1387 91.4061 29.3575 93.6335Z" fill="black"/>
<path d="M27.1618 98.9854C33.8442 98.3893 36.8213 90.5978 32.2012 85.4002C30.8479 83.8609 28.967 82.8844 26.9294 82.6631C24.8917 82.4419 22.8451 82.992 21.193 84.205C20.6861 84.5106 20.2587 84.9317 19.9456 85.434C19.9978 85.4885 20.4303 85.0384 21.3719 84.48C28.4483 80.2686 35.408 87.2582 33.1706 93.5097C31.5199 98.2672 25.1356 99.9877 20.9487 96.0782C18.3026 93.6387 18.4255 90.5118 18.1974 90.5302C18.0438 90.5302 18.0015 93.9813 20.5347 96.5075C21.396 97.3731 22.4339 98.0426 23.5776 98.4702C24.7214 98.8978 25.9439 99.0736 27.1618 98.9854Z" fill="black"/>
<path d="M45.8111 87.7351C42.6541 84.4807 38.6833 82.131 34.3113 80.9298C30.5553 76.9954 26.0964 73.7984 21.1646 71.5038C8.72156 66.542 9.154 82.9307 14.9308 94.8653C14.2736 99.7804 15.0603 104.78 17.1951 109.256C17.3903 109.847 17.7417 110.373 18.2121 110.78C18.6824 111.187 19.2541 111.459 19.8666 111.567C22.2315 112.075 25.4851 111.044 27.6596 109.791C28.1204 110.366 29.5913 112.121 30.096 112.621C32.4118 114.918 34.4833 112.841 33.6422 110.471C32.7205 107.859 31.9847 109.441 34.5517 107.936C35.8874 109.399 37.4566 111.491 39.3084 110.911C39.7758 110.751 40.1854 110.456 40.486 110.064C40.7866 109.672 40.9648 109.2 40.9982 108.707C41.1304 107.368 40.3999 105.942 39.6487 104.551C39.2885 103.881 39.4659 104.666 40.8308 102.477C42.3754 104.354 43.0759 105.269 44.182 105.503C44.6505 105.582 45.1316 105.474 45.5214 105.203C45.9113 104.931 46.1786 104.517 46.2658 104.049C46.5677 102.802 45.7888 101.353 45.0369 100.055C43.2626 97.0136 43.1881 99.228 46.1037 95.2294C49.0624 90.9964 47.749 89.7367 45.8111 87.7351ZM12.9799 83.0021C14.161 82.5472 15.2986 81.9863 16.3787 81.3262C17.4801 80.6287 18.0685 80.0657 17.9863 79.9436C17.8641 79.7531 16.8856 80.3584 12.8331 81.9061C12.3208 77.4727 12.8892 72.0054 17.3449 72.2228C19.4587 72.3096 21.978 73.5846 23.7969 74.6637C18.7697 79.2224 18.5923 79.3291 18.6722 79.4551C18.7521 79.5811 19.6461 79.1939 20.9342 78.3129C22.2676 77.369 23.5443 76.3474 24.7577 75.2536C34.6438 81.5097 40.1418 90.2214 40.9921 94.9936C39.7632 95.9214 36.8229 98.344 35.6462 99.4093C32.8987 97.7833 30.5107 100.17 30.7757 102.595C29.3824 103.244 26.2893 104.854 24.9382 105.635C20.0232 101.994 14.5468 93.3475 12.9799 83.0021ZM19.077 109.331C18.2612 108.152 16.1344 102.945 15.9954 96.9015C18.4164 101.203 22.7092 106.788 27.5536 108.45C25.4229 109.552 20.3174 111.122 19.077 109.331ZM32.2382 109.515C32.5493 110.244 33.0378 111.259 32.7397 111.991C32.0377 113.716 30.2603 111.219 28.3271 109.38C29.4316 108.665 28.652 108.882 30.2849 109.057C32.3972 109.269 31.7981 108.476 32.2382 109.515ZM30.4109 107.883C28.8068 107.663 27.2654 107.114 25.8838 106.27C27.7009 105.572 29.4285 104.661 31.03 103.555C31.5039 104.696 32.5462 105.739 33.8089 107.121C32.7804 107.715 31.5948 107.981 30.4109 107.883ZM39.6825 108.551C39.5619 109.602 38.7255 110.109 37.5165 109.083C36.4623 108.107 35.4698 107.067 34.5448 105.967C33.1069 104.408 30.6021 102.366 32.6775 100.376C32.9733 100.094 33.3482 99.9082 33.7522 99.8441C34.1562 99.78 34.5701 99.8405 34.9388 100.018C36.5502 100.921 39.8692 106.898 39.6825 108.551ZM36.412 99.9854C38.1396 98.9109 39.7296 97.6295 41.1465 96.1695C41.2584 97.4415 41.1176 98.7231 40.7321 99.9405C40.3467 101.158 39.7242 102.287 38.9006 103.263C38.1955 102.081 37.3608 100.982 36.412 99.9854ZM44.947 102.164C45.6644 103.863 44.9716 104.585 44.3594 104.479C43.622 104.367 43.0199 103.517 41.2202 101.79C41.5782 101.107 41.8593 100.386 42.0574 99.6397C42.3946 99.3325 42.7533 98.9953 43.1251 98.6312C43.8238 99.7596 44.4329 100.941 44.947 102.164ZM42.3977 97.6389C42.7979 92.5771 39.0857 86.6275 35.9242 82.7732C41.4652 85.3317 46.2167 89.9403 46.2351 91.1139C46.0438 93.2423 43.8018 95.989 42.3977 97.6389Z" fill="black"/>
<path d="M100.248 52.8793C102.497 50.3016 102.486 50.7532 104.411 51.5659C111.433 54.5261 134.808 66.5006 134.885 66.5436C139.008 68.917 140.847 69.1482 139.058 73.372C137.215 77.7286 132.253 87.3911 129.329 91.0042C127.967 92.5404 126.768 94.2135 125.751 95.9968C124.178 98.9778 119.991 101.071 121.268 101.617C126.529 103.862 127.725 106.11 129.129 110.824C129.202 111.069 129.178 111.172 128.923 111.319C128.011 111.847 125.851 112.927 124.959 112.358C124.22 111.886 124.009 110.216 122.552 108.191C121.704 107.092 120.577 106.241 119.288 105.725C117.999 105.21 116.595 105.05 115.223 105.262C112.688 105.828 113.88 105.821 89.108 119.446C82.2282 123.229 80.5054 122.455 78.6044 126.299C77.0951 129.35 77.0474 132.862 74.8507 133.668C73.9605 133.994 71.9519 133.838 71.1639 133.026C69.8189 131.644 71.0993 126.774 71.657 124.924C72.2761 122.871 71.806 123.448 73.7754 121.67C75.3023 120.292 73.3568 119.255 49.97 102.802C49.6252 102.619 49.2321 102.547 48.8447 102.596C46.0535 108.709 49.9016 112.952 44.2024 112.397C43.1055 112.291 42.806 112.064 42.4358 111.245C39.7521 105.265 42.4588 97.7795 49.195 94.1933C52.5746 92.3945 44.8683 96.7503 77.9315 79.595C86.6724 75.0648 89.214 65.5313 100.248 52.8793Z" fill="#92FCFF"/>
<path d="M138.473 67.9308C133.056 64.3922 126.201 61.6677 120.312 58.3143C115.768 55.6475 110.741 53.6458 105.96 51.1057C101.194 48.571 101.166 49.9075 88.0877 68.1573C81.1672 77.8453 79.6311 77.4704 67.2725 83.9884C49.3214 93.3261 45.8658 94.3177 44.6253 96.9361C40.2618 101.893 39.9123 109.664 41.8602 112.417C42.6083 113.429 43.6837 113.617 44.9403 113.492C49.9713 112.894 47.1055 110.493 49.1817 103.462C54.7595 107.35 47.8721 101.849 73.269 120.974C70.6406 122.951 69.8632 126.691 69.5775 129.961C69.4677 131.866 69.5775 133.718 71.9893 134.526C74.0232 135.236 76.2806 134.381 76.9896 132.729C77.5995 131.312 78.154 126.738 81.3769 123.824C83.1665 123.347 84.8937 122.661 86.5231 121.781C87.792 121.143 105.745 111.285 114.612 105.98C115.568 105.807 116.549 105.829 117.496 106.044C118.443 106.26 119.337 106.665 120.124 107.235C124.181 110.207 122.428 115.413 128.138 112.995C129.568 112.391 130.239 111.766 129.828 110.161C128.742 106.101 126.164 102.557 122.111 101.145C128.844 95.3324 139.535 75.094 140.704 71.3964C141.299 69.4838 139.618 68.7234 138.473 67.9308ZM46.5195 109.541C46.3935 111.422 46.5648 111.466 44.7528 111.637C44.1583 111.693 43.7144 111.692 43.3703 111.263C42.275 109.716 42.2182 103.881 44.7467 99.553C45.7124 100.73 46.8291 101.775 48.0679 102.661C47.1742 104.852 46.6509 107.177 46.5195 109.541ZM76.6777 128.15C75.7768 130.295 75.5302 131.606 75.3443 131.974C74.8543 133.119 72.4563 133.28 71.6475 132.128C71.0561 131.441 71.1974 124.323 74.3819 121.787C75.6693 122.733 77.1316 123.413 78.684 123.789C80.1618 124.084 78.5411 123.666 76.6777 128.15ZM125.848 105.904C126.864 107.44 127.607 109.14 128.045 110.928C127.505 111.22 126.939 111.46 126.355 111.644C124.162 112.14 125.522 108.792 121.082 105.807C116.795 103.062 115.182 106.176 120.895 102.108C122.894 102.84 124.621 104.165 125.848 105.904ZM139.204 70.9478C138.474 73.4433 128.005 94.8462 120.847 100.499C117.774 102.972 89.1293 118.619 85.7673 120.281C82.3509 121.967 80.8131 122.461 79.045 122.094C76.5103 121.569 77.2054 121.526 56.0668 105.829C52.6772 103.377 45.7375 99.4754 46.2721 97.887C46.9135 96.0436 52.2748 93.9083 54.0168 93.0342C86.0338 76.3667 81.6949 80.7018 94.5719 62.0802C95.8454 60.2468 101.751 51.6388 103.491 51.9514C104.359 52.105 134.112 67.1773 136.114 68.3463C139.272 70.2496 139.385 70.3456 139.204 70.9478Z" fill="black"/>
<path d="M131.085 61.9944C131.134 58.6721 130.502 55.375 129.228 52.3061C127.955 49.2371 126.067 46.4613 123.68 44.1494C115.491 36.0176 102.596 41.246 102.596 41.246L101.376 42.6977C101.376 42.6977 100.62 41.246 97.426 41.9427C94.2315 42.6401 89.3119 50.1044 88.7274 52.401C87.914 55.5962 90.2236 58.6125 90.2236 58.6125C90.2236 58.6125 89.9663 58.5157 88.7013 60.8346C87.4362 63.1542 89.5185 69.875 89.5185 69.875C89.5185 69.875 85.8317 64.1558 85.7756 59.9382C85.7595 58.6817 85.6658 54.4848 84.6895 53.7014C84.4691 53.3219 83.2478 52.4955 83.82 49.7995C84.3531 47.1879 86.7902 47.1073 87.7634 45.7455C88.1066 45.1821 88.2335 44.5133 88.1205 43.8633C88.0075 43.2134 87.6622 42.6267 87.1489 42.2123C83.5389 39.4686 80.4481 44.8238 80.2853 44.5895C79.2838 43.0626 78.0607 41.6932 76.6561 40.5263C73.3226 38.0185 70.4299 38.7175 69.7194 40.0171C69.1864 40.9649 69.9314 41.9319 70.5044 42.8667C67.3107 42.455 63.872 43.2615 65.1155 45.7086C65.5042 46.4767 66.5964 46.5865 69.1395 47.7625C66.8583 48.2909 64.4542 48.6458 64.733 50.3586C65.1762 52.7228 68.446 51.6014 71.41 53.398C71.9651 53.6609 72.4203 54.0964 72.7076 54.6393C72.9948 55.1822 73.0987 55.8035 73.0038 56.4104C72.6835 58.5303 71.96 59.5457 73.8594 61.9176C75.3725 63.7596 76.4209 65.9381 76.9164 68.2697C77.2329 70.4834 80.475 75.9391 80.475 75.9391L75.4932 79.6029L70.347 78.2541C70.347 78.2541 71.4699 72.2738 69.8907 69.2775C68.3115 66.2819 67.0227 64.5721 62.8658 63.96C58.7089 63.3478 56.8078 63.6374 56.8401 66.7635C56.8724 69.8896 57.42 81.3933 57.4845 83.5847C57.5491 85.776 60.7712 86.5172 62.06 86.5802C67.6587 86.8606 60.4901 85.6155 60.3288 90.7817C60.2113 94.5507 59.7527 101.963 59.7527 101.963C57.5443 102.025 55.41 102.773 53.6456 104.103C50.7077 106.325 50.3313 110.129 51.8022 111.711C53.2731 113.294 65.6278 113.478 65.6278 113.478C65.6278 113.478 70.072 113.854 71.3155 112.046C72.5591 110.238 72.5199 104.589 72.5199 104.589C72.5199 104.589 77.4165 109.636 81.2961 110.465C85.1757 111.294 92.0678 107.979 95.2692 106.058C98.4706 104.137 111.464 92.8762 111.464 92.8762C111.464 92.8762 119.562 93.5161 123.404 91.5951C127.245 89.6741 129.618 85.7576 129.581 82.4809C129.558 80.5081 129.356 78.5413 128.978 76.605C133.847 70.9964 132.979 63.3708 131.085 61.9944Z" fill="#D9B343"/>
<path d="M97.457 46.8567C95.8747 48.082 94.3802 49.4166 92.9844 50.8508C91.6518 52.4472 90.8229 54.4031 90.6026 56.4709C90.3814 58.5384 90.7786 60.625 91.744 62.4666C92.1365 63.1848 92.3131 64.108 92.7763 64.7832C95.599 68.8947 99.0585 72.779 103.99 73.5394C107.769 74.1208 112.295 72.931 114.703 69.9608C115.45 69.0391 115.932 68.1405 116.712 67.2456C119.683 63.8338 120.332 58.6016 115.835 52.1627C114.423 50.3564 112.785 48.7396 110.96 47.3521C107.196 44.1415 100.999 43.8957 99.9664 44.289C98.699 44.7621 98.4893 45.9872 97.457 46.8567Z" fill="#92FCFF"/>
<path d="M75.9709 102.466C80.5626 109.019 86.801 106.362 86.9392 106.834C87.2557 107.377 79.7069 110.31 74.8111 103.274C70.1718 96.6065 74.2589 89.9741 74.7712 90.4326C75.1675 90.6623 71.5467 96.1572 75.9709 102.466Z" fill="black"/>
<path d="M131.873 62.5739C132.891 60.5807 130.913 52.8514 129.478 50.2999C124.66 41.7356 117.133 38.4075 107.494 39.2524C103.829 39.8669 102.494 40.0896 100.976 41.6535C96.9238 39.7517 93.237 43.182 90.5502 46.7843C87.6799 50.6248 86.2136 54.8646 89.1439 58.6828C87.2943 60.4617 87.3711 62.759 87.9026 65.3152C85.3526 57.8709 87.1791 56.6781 86.0592 54.0873C85.5215 52.82 83.6205 50.0702 85.9294 48.3504C86.8096 47.6853 88.375 47.1491 88.9319 45.6099C90.2084 41.8923 84.7657 37.7546 80.6012 43.6359C75.3743 34.2652 67.0828 37.2807 68.3309 41.5551C63.8821 40.996 61.6424 45.7927 65.3054 47.6092C64.8259 47.7597 64.3965 48.038 64.0633 48.4142C63.7301 48.7905 63.5058 49.2504 63.4144 49.7445C63.1348 54.1288 68.9838 53.5158 70.7112 54.5535C73.0585 55.9184 70.3763 57.6781 71.4232 60.0692C72.239 62.024 73.7644 61.749 75.4565 66.2316C76.6025 69.2832 76.9704 71.5959 79.6142 75.6123C77.9789 76.2868 76.4747 77.2429 75.17 78.4373C73.6981 77.9597 72.1995 77.5683 70.682 77.2652C72.0869 72.291 70.7957 65.1294 65.0834 63.4012C62.9973 62.8051 58.0823 61.9886 56.6099 63.6316C55.6113 64.7469 55.7726 64.9373 55.8978 72.861C55.9846 78.3182 56.222 80.6901 56.4532 83.691C56.8487 86.1297 58.6261 87.0837 61.0871 87.3779C56.742 91.6723 58.9464 101.787 58.1852 101.81C52.6872 102.013 49.4505 106.225 49.9943 110.227C50.4275 114.432 57.3319 113.937 61.1316 114.287C71.7697 115.157 73.5992 113.401 73.4618 106.712C73.4472 106.025 73.1945 106.424 75.4465 108.271C78.9482 111.113 83.0644 112.454 87.335 110.926C93.3261 108.783 102.714 103.029 111.905 93.7891C121.568 94.6617 130.167 91.7683 130.43 82.3446C130.423 80.3581 130.22 78.3772 129.825 76.4303C132.791 72.4285 134.928 66.2761 131.873 62.5739ZM100.696 44.987C102.77 44.0745 110.544 46.3826 115.699 53.807C117.696 56.6988 118.931 59.414 117.709 62.6899C116.046 67.3038 112.212 72.2142 107.351 72.8986C101.641 73.8203 93.1925 68.0089 91.316 58.6236C91.7001 57.3617 91.3782 53.8661 96.1627 49.1277C98.3917 46.9433 99.424 46.4986 100.696 44.9877V44.987ZM89.2852 53.7693C89.7253 50.3329 95.3208 41.6757 100.007 42.7856C97.0682 46.4901 90.8836 49.3866 89.7568 57.0352C89.2974 56.0121 89.134 54.8806 89.2852 53.7693ZM65.5174 44.3909C65.9621 43.6275 67.4376 43.1774 68.3248 43.3026C70.3479 43.6505 69.7119 43.8118 71.2082 44.6452C72.7528 45.4901 74.0624 46.2582 75.1477 46.9825C72.2643 49.3797 74.4756 49.4557 71.8695 48.4042C71.0822 48.1047 71.8065 48.3067 67.0805 46.3042C66.5451 46.1543 66.0519 45.8822 65.6395 45.5093C65.4129 45.0853 65.2985 44.7827 65.5174 44.3902V44.3909ZM73.7229 60.3165C72.2213 58.6582 73.5393 58.0176 73.5739 56.0728C76.432 56.6351 78.8015 55.5536 78.7078 55.274C78.6026 54.9368 76.2899 55.6696 73.408 54.9161C72.6023 52.4136 68.8402 51.8053 66.4291 51.4005C64.1587 50.379 65.2816 48.7583 68.3494 48.7821C72.5585 50.3736 72.7904 50.0625 72.6652 50.4112C72.4003 51.1517 72.3772 51.6486 72.5116 51.6985C72.8097 51.8038 73.5985 50.1555 75.0801 48.5494C76.5395 46.9218 78.1041 45.9809 77.9704 45.6936C77.909 45.563 77.4159 45.6322 76.7039 45.9671C75.7292 46.421 77.21 46.3511 72.1076 43.1712C68.0367 40.4983 70.9463 38.6134 74.0371 39.6787C76.4604 40.5105 78.3699 42.8071 79.8331 44.9017C78.7401 47.0662 78.6809 48.799 78.9114 48.7936C79.1041 48.809 79.3192 47.0408 80.9238 44.8264C83.8049 40.9015 86.5492 41.6773 87.3972 43.4078C88.6945 45.9886 85.2289 46.1729 83.9062 48.2114C83.5345 48.7607 83.2912 49.3867 83.1944 50.0429C83.0976 50.6991 83.1498 51.3687 83.3471 52.0019C83.1469 52.4611 82.836 52.8636 82.4423 53.1733C81.1895 54.1196 78.7908 54.903 78.8906 55.211C78.9789 55.4898 82.602 54.8001 83.834 53.2532C84.5138 54.6903 84.9002 54.4744 84.8218 56.9346C82.6458 59.861 76.8959 61.4894 73.7229 60.3165ZM79.608 61.5839C81.5983 61.1217 83.4099 60.0874 84.8195 58.6083C84.871 60.3005 85.1635 61.9767 85.6882 63.5863C82.9836 64.8806 80.1362 65.8525 77.2047 66.482C74.9173 59.083 73.2044 63.279 79.608 61.5831V61.5839ZM77.3806 67.0573C80.3816 66.697 83.2771 65.7262 85.8887 64.2046C86.1038 64.8498 86.3757 65.5871 86.6499 66.2515C83.8952 67.5763 80.9945 68.5729 78.0073 69.221C77.8015 68.5358 77.6025 67.8115 77.3782 67.0573H77.3806ZM71.4378 109.408C70.977 113.796 64.7939 112.421 57.1514 112.242C55.407 112.182 52.1373 111.922 51.6733 110.238C60.4211 111.2 68.5828 110.933 68.5798 110.582C68.5767 110.231 61.574 110.238 51.5835 109.092C51.6142 108.391 51.7555 107.7 52.0021 107.044C53.5467 103.337 58.5117 102.058 62.1025 103.365C64.1402 104.107 64.9229 105.204 65.0627 105.062C65.2163 104.933 63.654 102.641 60.309 101.984C60.3282 98.5689 59.875 92.1754 61.9181 89.4241C62.9743 88.0023 64.8799 87.1674 66.5213 87.8533C71.2105 89.815 71.7889 106.27 71.4355 109.408H71.4378ZM103.903 92.4188C103.878 92.7868 109.727 93.5533 110.13 93.6017C103.75 99.0981 94.5182 106.198 86.6967 109.109C81.7041 110.969 77.038 108.197 73.385 104.323C72.3096 79.0026 63.3076 87.7535 59.0985 84.7717C58.8875 84.6322 58.7115 84.4461 58.584 84.2276C58.4566 84.0092 58.3811 83.7644 58.3634 83.5121C58.133 80.5296 57.9026 78.2722 57.8165 72.8226C57.6944 65.0917 57.6391 65.1893 58.0915 64.8882C58.5755 64.6671 59.1017 64.5536 59.6338 64.5556C60.0908 70.6604 59.8735 82.6633 60.3981 82.651C60.6992 82.6441 61.2199 70.8455 60.7675 64.5725C62.0493 64.6628 63.3216 64.8573 64.5719 65.1539C70.0837 66.707 70.9194 75.0139 68.5859 80.1317C67.9507 81.4636 67.4614 82.1533 67.5759 82.2509C67.7564 82.4045 69.1397 80.9451 69.9838 79.1516C75.3205 80.1716 81.0443 82.3515 84.6405 86.5122C87.8058 90.1299 92.8591 101.797 93.7877 101.254C94.0266 101.117 93.3008 99.2986 92.1079 96.3576C91.8529 95.7285 91.7423 96.0796 94.2801 97.5866C97.6382 99.5552 97.7234 99.0713 94.8515 96.767C90.3198 92.988 90.9343 93.4343 89.8459 91.2106C87.1299 85.6919 84.3671 82.0304 77.2216 79.1762C78.3992 78.5315 79.4798 77.7237 80.4314 76.7767C80.9929 77.5348 82.7918 79.6778 83.016 79.475C83.291 79.2353 80.5743 76.3627 78.4436 70.5866C77.9351 69.148 77.8967 70.3931 82.5268 68.82C88.9925 66.631 85.3426 65.1624 89.16 71.0191C91.1862 74.1045 95.2217 78.9412 99.785 81.1579C101.989 82.2109 103.341 82.4022 103.364 82.31C103.518 81.8492 97.6581 80.5549 93.0496 73.7251C91.3375 71.1988 90.0287 67.8108 90.4273 68.4675C92.2449 71.6844 94.9597 74.3026 98.2403 76.0025C103.026 78.4603 109.514 79.0026 113.993 76.3757C115.603 75.383 117.02 74.1063 118.174 72.6075C117.607 74.9578 117.541 77.5348 119.025 79.4189C115.999 81.1005 112.666 82.1553 109.224 82.5205C106.131 82.7993 104.202 82.2754 104.135 82.542C104.012 82.8123 108.841 85.0298 116.291 82.396C116.238 82.971 116.069 83.5294 115.795 84.0374C115.207 85.1504 105.079 85.036 105.062 85.5874C105.042 86.2526 112.431 86.3363 114.298 86.0483C114.971 87.4302 115.968 88.6291 117.204 89.543C118.44 90.4569 119.878 91.0588 121.397 91.2974C114.61 93.6124 103.965 91.4142 103.9 92.4188H103.903ZM122.674 90.7913C121.098 90.6174 119.581 90.0896 118.237 89.2475C116.892 88.4053 115.756 87.2705 114.912 85.9277C115.523 85.8184 116.098 85.5599 116.585 85.175C119.118 87.526 122.475 88.7837 125.929 88.6752C124.966 89.5537 123.866 90.2685 122.672 90.7913H122.674ZM126.515 88.0722C123.052 88.0259 119.7 86.8443 116.974 84.7088C117.216 84.2879 117.38 83.8272 117.46 83.3485C117.88 81.0834 116.747 82.5735 120.354 80.5557C122.973 81.9936 126.16 80.4896 128.372 78.1669C128.791 81.77 128.871 85.387 126.511 88.0722H126.515ZM131.996 67.2462C131.596 71.7011 126.833 79.3675 122.401 79.1816C117.124 78.9611 119.875 66.8998 126.897 62.0532C127.905 61.4041 128.622 61.3788 128.617 61.2206C128.671 60.9863 126.594 60.4448 123.067 63.8812C124.792 58.215 122.512 54.5474 122.362 54.6181C121.776 54.8385 126.303 60.2059 118.153 70.7787C114.922 74.9502 111.909 76.9772 106.39 76.7621C95.1442 76.3857 88.7775 65.4481 89.5302 61.2052C89.71 60.7031 90.0218 60.2586 90.4327 59.9186C92.992 71.536 107.364 81.5196 116.665 68.2378C120.925 61.9933 120.699 58.2158 116.966 52.9144C112.54 46.6983 105.767 43.4877 101.824 43.5829C102.231 43.0474 102.73 42.5882 103.297 42.2265C104.795 41.9655 106.337 42.1294 107.748 42.6996C116.852 45.9363 122.08 54.4944 122.265 54.4068C123.046 54.161 117.523 44.7335 108.197 41.4077C107.385 41.125 107.401 41.2087 107.742 41.1511C118.483 40.2148 125.793 45.1667 128.885 53.7524C129.505 55.6066 130.38 59.9017 130.238 61.3458C130.238 61.4011 129.437 61.1276 129.397 61.3104C129.317 61.5693 132.451 62.4779 131.992 67.2462H131.996Z" fill="black"/>
<path d="M55.1572 48.0743C54.151 52.98 54.1533 52.8933 54.1694 52.9708C54.323 53.7389 56.6772 50.8063 59.3448 50.5129C58.2158 51.9226 57.34 53.5175 56.7564 55.2267L60.3664 54.5247C61.3918 54.325 62.3381 54.6245 62.0093 55.0078C60.2761 56.3155 58.6337 57.7395 57.0935 59.2699C50.7061 65.5253 50.9488 66.6359 49.9319 68.0492C49.4126 68.6499 48.9272 69.2781 48.4779 69.9326C47.8204 71.1039 47.6276 72.9427 46.1022 72.3536C44.6981 71.8113 41.8923 71.3697 41.7917 69.4648C41.6434 66.6858 46.1122 55.3058 55.1564 48.0735L55.1572 48.0743Z" fill="#92FCFF"/>
<path d="M38.4202 69.9354C37.5061 67.933 41.9257 69.5152 42.3205 69.5191C43.5495 69.526 43.8606 68.0405 45.8945 67.1119C46.9844 66.6142 46.7993 70.6858 47.2056 71.2696C47.3469 71.4416 47.5236 71.5806 47.7241 71.6782C48.6122 72.1948 49.4577 72.7815 50.2526 73.4325C50.7365 73.8296 50.5906 74.1622 50.0468 74.4502C47.8362 75.617 46.9406 75.7322 46.757 75.9403C46.6556 76.0571 46.7048 75.9672 45.6878 79.8514C45.4213 80.8707 43.5879 78.5042 42.8305 77.6455C42.6976 77.4382 42.5018 77.2789 42.2719 77.1909C42.0419 77.1028 41.7898 77.0907 41.5524 77.1562C41.0517 77.2046 38.1629 77.4888 37.8426 77.0994C37.2895 76.4265 39.7705 73.8135 39.8112 73.0945C39.8527 72.4033 38.4202 70.5906 38.4202 69.9354Z" fill="#FDFE1F"/>
<path d="M62.2806 54.7367C62.4288 54.3134 59.1598 53.6836 56.9446 54.9778C56.9984 54.901 60.1291 50.0774 59.9233 49.9084C59.7543 49.5167 55.9622 51.2772 54.3446 53.0238C54.4545 52.7004 55.7272 47.9544 55.3508 47.8361C55.2448 47.6956 46.9019 52.6797 42.3087 65.3171C41.8704 66.4416 41.5612 67.6123 41.387 68.8065C39.5966 68.4033 38.5673 67.9071 37.9306 68.9025C37.4252 69.6921 37.8284 70.1008 39.2594 73.2038C37.5219 76.1303 37.0388 76.5512 37.5235 77.4053C38.088 78.3969 38.9352 78.0328 42.1528 77.6526L44.3802 80.1873C44.4994 80.3226 44.6455 80.4314 44.8093 80.5069C44.973 80.5823 45.1507 80.6226 45.331 80.6253C45.5112 80.628 45.69 80.5929 45.8559 80.5224C46.0218 80.4519 46.1712 80.3474 46.2943 80.2157C46.4594 80.0398 46.5716 79.8217 46.6192 79.5851L47.2767 76.2747L50.3775 74.9397C50.5987 74.8441 50.7888 74.6885 50.9263 74.4905C51.0638 74.2926 51.1433 74.0601 51.1557 73.8194C51.1682 73.5787 51.1132 73.3393 50.9968 73.1282C50.8805 72.9171 50.7075 72.7427 50.4973 72.6247L48.2353 71.3589C54.6703 60.091 62.6585 55.1829 62.2806 54.7367ZM49.9481 73.9343C46.1307 75.5772 46.3273 75.4536 46.2989 75.5995C45.5101 79.6174 45.5846 79.5321 45.3542 79.5321C45.0853 79.5321 42.7749 76.4721 42.4953 76.5089C39.1465 76.9468 38.7317 76.9637 38.6503 76.9637C38.1541 76.9637 38.5834 76.4928 40.4453 73.3536C40.5221 73.2246 40.5835 73.4496 38.8438 69.6768C38.828 69.6433 38.822 69.606 38.8264 69.5692C38.8308 69.5325 38.8454 69.4977 38.8687 69.4688C38.8919 69.44 38.9228 69.4183 38.9578 69.4061C38.9928 69.394 39.0305 69.392 39.0666 69.4003C41.9438 70.0401 42.7841 70.2513 42.8632 70.2513C42.9761 70.2513 42.7803 70.398 45.8219 67.586C45.849 67.5606 45.8827 67.5434 45.9191 67.5362C45.9555 67.5291 45.9932 67.5324 46.0278 67.5457C46.0625 67.559 46.0927 67.5818 46.1149 67.6115C46.1372 67.6412 46.1506 67.6766 46.1537 67.7135C46.5447 71.8612 46.4802 71.6262 46.61 71.6984C49.5103 73.3237 50.4934 73.7 49.9481 73.9343ZM47.5309 70.7183L47.2437 67.6145C47.2146 67.2934 47.0662 66.9949 46.8277 66.778C46.5891 66.5611 46.2779 66.4416 45.9556 66.4431C45.2489 66.4431 45.1368 66.7335 42.6005 69.0792L42.281 69.007C42.4778 67.8596 42.8002 66.7373 43.2427 65.6604C46.4226 57.332 49.6178 53.7028 54.9461 48.3446C53.926 50.3632 53.7171 53.434 54.0912 53.4547C54.2241 53.626 55.5252 52.8295 57.1175 51.8586C59.7459 50.241 58.8457 50.5129 57.7212 52.2849C56.7449 53.808 56.3847 55.262 56.5844 55.3281C56.6666 55.5355 57.9086 55.1914 59.4417 55.0086C60.5401 54.8619 61.4963 54.8933 61.9702 54.8457C58.5392 56.6507 51.6963 62.8999 47.5302 70.7183H47.5309Z" fill="black"/>
<path d="M131.135 16.9655C130.047 15.0453 128.831 14.7657 126.889 14.0721C123.79 12.9638 121.31 12.1442 118.559 12.7925C109.994 14.811 105.629 27.4822 110.04 32.8289C111.713 34.8582 118.384 36.9835 120.739 36.9835C128.694 36.9835 135.082 24.0811 131.135 16.9655Z" fill="#FDFE1F"/>
<path d="M131.538 16.7409C130.33 14.5134 128.532 14.2139 127.045 13.6347C124.818 12.839 122.015 11.862 119.652 12.1247C109.084 13.6455 105.108 28.1985 109.836 33.2817C111.401 35.2642 119.236 37.9156 121.652 37.3526C129.921 36.2373 135.348 23.7244 131.538 16.7409ZM127.103 18.976C127.717 19.0874 128.573 19.1834 129.254 19.3601C130 19.5506 130.886 19.9246 131.489 20.1128C131.738 21.708 131.701 23.3349 131.38 24.9172C128.091 24.6376 128.85 24.441 126.76 23.7482C127.136 22.1866 127.252 20.5744 127.103 18.9753V18.976ZM131.321 19.2449C128.522 18.9914 129.058 18.8178 126.952 18.039C126.687 16.5472 125.94 15.1835 124.826 14.1563C124.422 13.8306 123.597 13.498 126.684 14.6302C128.473 15.3291 130.436 15.5496 131.321 19.2426V19.2441V19.2449ZM108.842 28.9689C108.503 26.4966 108.796 23.9787 109.695 21.6507C110.594 19.3227 112.068 17.2608 113.981 15.6579C120.894 9.89721 129.739 13.9535 125.382 26.0332C120.484 38.961 109.871 35.768 108.842 28.9673V28.9681V28.9689ZM116.02 35.3855C117.586 35.3527 119.116 34.9119 120.459 34.1066C121.611 34.5736 122.038 34.142 124.351 35.3264C121.471 36.8472 119.427 36.4877 116.02 35.384V35.3855ZM125.218 34.811C123.322 34.3063 123.776 34.7841 121.246 33.4929C122.331 32.5383 123.277 31.4358 124.055 30.2178C125.614 30.6018 125.097 29.9682 128.677 31.3046C127.759 32.684 126.585 33.8739 125.218 34.8094V34.811ZM129.155 30.5634C128.541 30.4682 127.551 30.4098 126.787 30.2255C126.023 30.0419 125.117 29.6294 124.529 29.4297C125.4 27.914 126.076 26.2947 126.542 24.61C128.482 25.0708 127.093 24.3603 131.205 25.6976C130.761 27.4093 130.07 29.0476 129.155 30.5611V30.5627V30.5634Z" fill="black"/>
<path d="M114.22 33.4474C117.991 34.7808 121.929 29.6154 123.453 26.2904C125.722 21.2678 125.465 14.3965 120.017 14.2314C114.911 14.0655 111.537 21.2079 111.807 21.327C111.972 21.4038 113.119 18.1286 116.576 15.7645C117.343 15.2251 118.238 14.8958 119.172 14.8093C120.106 14.7228 121.047 14.8821 121.9 15.2714C128.797 18.8276 118.781 37.9715 112.746 31.8514C108.652 27.8941 112.678 19.3806 111.506 21.8754C109.624 25.8733 110.049 32.0142 114.22 33.4474Z" fill="black"/>
<path d="M115.238 24.3311L113.855 25.5216L115.153 30.4435C115.301 30.3222 114.71 30.8276 118.878 27.2314C118.903 27.2157 118.921 27.1913 118.929 27.163C118.938 27.1349 118.937 27.1045 118.924 27.0777C118.777 26.5324 118.476 25.3956 118.463 25.3549C118.202 25.5969 118.873 25.0147 116.151 27.3689C115.952 27.5394 116.164 27.4933 115.238 24.3311Z" fill="black"/>
<path d="M115.433 20.3445L115.908 22.135C115.968 22.0835 117.54 20.727 118.254 20.108C118.36 20.0158 118.264 20.0373 119.126 23.1803L120.509 21.9898L119.216 17.0786L115.433 20.3445Z" fill="black"/>
<path d="M116.728 25.2564L118.114 24.0559L117.639 22.2478L116.251 23.446L116.728 25.2564Z" fill="black"/>
<path d="M121.32 25.0929L120.855 23.314L119.485 24.4984L119.956 26.2773L121.32 25.0929Z" fill="black"/>
<path d="M114.373 21.2465C112.969 22.4562 113.014 22.3702 113.045 22.4862C113.528 24.2889 113.471 24.2451 113.557 24.1698C114.119 23.6821 114.83 23.073 114.886 23.0177C114.386 21.1205 114.449 21.1781 114.373 21.2465Z" fill="black"/>
<path d="M98.9294 27.1261C105.55 22.3885 101.863 4.45825 91.591 4.45825C88.9555 4.65986 86.3515 5.16107 83.8295 5.95219C77.2416 8.47075 77.4973 26.3189 87.5048 29.4557C90.1731 30.296 96.8355 28.6224 98.9294 27.1261Z" fill="#FDFE1F"/>
<path d="M93.1846 4.14482C90.9164 3.67244 87.8925 4.41519 85.6135 4.97973C83.6557 5.50434 82.2716 5.71096 80.9059 7.85853C76.4226 14.9096 79.6409 27.7959 87.702 29.9964C90.0923 30.7061 95.803 29.2422 98.4307 27.9848C105.931 24.3963 103.244 5.92295 93.1846 4.14482ZM85.8716 6.01665C89.5339 5.07728 88.5599 5.34534 87.9992 5.72862C86.772 6.67033 85.8586 7.96155 85.3793 9.43235C83.2639 9.97001 83.7117 10.225 80.9704 10.1666C82.2854 6.7978 83.8584 6.55509 85.8716 6.01665ZM80.6747 11.0169C83.2901 10.5008 81.1893 10.6421 85.0889 10.3617C84.6916 11.9877 84.5491 13.6655 84.6665 15.3351C82.6387 15.7645 83.2586 16.094 80.0057 16.0041C79.9483 14.3158 80.1752 12.6299 80.677 11.0169H80.6747ZM80.0518 16.8114C80.6609 16.6839 81.4682 16.4611 82.1502 16.3736C83.0166 16.263 84.1326 16.3068 84.7417 16.2346C84.9284 18.0165 85.3332 19.7678 85.9477 21.4499C85.3478 21.5835 84.3961 21.9015 83.6103 22.0068C82.8499 22.1089 81.8875 22.059 81.27 22.0836C80.6148 20.3933 80.2054 18.6179 80.0541 16.8114H80.0518ZM81.611 22.8924C85.2617 21.9591 84.7003 22.5022 86.2871 22.3071C86.8307 23.651 87.5801 24.9021 88.5085 26.0154C85.8155 27.0531 86.3962 26.6184 84.4107 26.9233C83.2154 25.782 82.2631 24.4109 81.611 22.8924ZM85.1627 27.5524C85.6542 27.345 86.1627 27.1783 86.6812 27.0531C87.5391 26.878 89.222 26.8342 89.1875 26.7098C90.3513 27.7306 91.7939 28.3801 93.3298 28.5747C88.5039 29.6101 86.9861 28.9219 85.1627 27.5485V27.5524ZM101.326 22.6059C100.756 24.4662 99.7264 26.3088 97.9667 27.1176C96.7201 27.8364 95.2901 28.1742 93.8536 28.0893C84.6296 27.2244 81.4981 6.5643 91.2336 5.01967C97.777 4.71244 103.935 13.474 101.326 22.602V22.6059Z" fill="black"/>
<path d="M99.8186 15.1837C98.8554 11.7104 101.794 21.2148 97.2025 25.1689C92.2614 29.5655 87.2942 19.8169 87.6221 13.0999C88.02 5.71549 94.9958 3.89282 98.8631 12.6967C99.3777 13.8933 99.5544 14.6008 99.612 14.5854C99.5322 13.9041 99.3631 13.2363 99.1089 12.5991C96.4306 5.34451 90.8051 4.97506 88.4947 8.3247C85.3985 12.6621 87.1451 20.7524 91.1407 25.245C95.5196 30.153 102.087 23.4169 99.8186 15.183V15.1837Z" fill="black"/>
<path d="M92.5839 16.8488C92.9722 17.0139 93.3857 17.1121 93.8067 17.1391C94.8605 17.1391 95.8806 15.881 96.3038 15.0476C96.4152 14.8302 96.439 15.0384 96.0096 13.9969C95.1808 12.014 94.1716 10.1113 92.9949 8.31299C92.0447 10.7419 91.3129 13.2507 90.8081 15.8095C90.951 16.1997 91.0846 16.3818 92.5839 16.8488ZM93.1131 9.97744C94.0836 11.52 94.9001 13.1541 95.5511 14.8563C94.3713 16.9025 93.554 16.3641 92.8074 16.1291C92.3917 16.0114 91.9871 15.8572 91.5985 15.6682C91.9606 13.7361 92.4669 11.8339 93.1131 9.97744Z" fill="black"/>
<path d="M96.7902 15.915C93.5811 18.5012 95.9023 18.9382 90.7046 16.998C90.9197 17.9081 91.3007 18.7707 91.8283 19.5427C92.2024 20.1764 94.5481 24.066 95.2847 24.1013C96.7018 24.0629 96.6627 17.4819 96.7902 15.915ZM95.9238 18.6118C95.7218 20.9261 95.7141 22.1734 95.2194 23.1689C94.2025 21.9059 93.2855 20.5656 92.4766 19.1602C91.4389 17.3936 92.2661 18.9935 94.2731 18.9359C95.7801 18.8983 96.0927 16.6708 95.9238 18.6118Z" fill="black"/>
<path d="M69.148 32.2147C76.8658 25.5469 69.6143 4.52197 56.9554 4.52197C53.2432 4.52197 46.2121 8.01601 45.7981 8.26334C42.8125 10.0392 41.8808 14.3059 41.8731 17.74C41.8386 29.3981 50.8544 38.5153 57.7596 37.2349C61.4817 36.5352 67.1041 33.9782 69.148 32.2147Z" fill="#FDFE1F"/>
<path d="M60.3296 4.61174C56.2303 3.10782 51.965 4.97274 47.8972 6.76239C45.8956 7.68871 44.0146 8.17414 42.602 11.4101C38.101 22.0182 46.9463 40.5868 59.51 37.2871C62.4587 36.476 67.1348 34.5381 69.6334 32.3751C76.3849 26.5346 71.536 7.76091 60.3303 4.61174H60.3296ZM45.6698 9.48143C46.507 8.76019 50.723 7.0005 51.6786 6.62644C49.9851 8.12363 48.8826 10.1769 48.5701 12.4155C46.0646 13.5377 46.6399 13.7781 43.1873 14.2989C43.4526 12.4604 44.3267 10.7639 45.6698 9.48066V9.48143ZM43.0007 15.4326C46.1068 14.2428 43.5445 14.8565 48.4157 13.646C48.2732 15.7782 48.4582 17.9196 48.9641 19.9958C46.5062 20.9797 47.3511 21.257 43.2465 21.8531C42.8052 19.7418 42.7221 17.5714 43.0007 15.4326ZM43.4792 22.86C44.2181 22.5658 45.1844 22.1096 46.0246 21.8515C47.09 21.5235 48.5048 21.3346 49.2506 21.1118C49.8739 23.3119 50.7649 25.4272 51.9036 27.4102C51.1778 27.7082 50.0502 28.3165 49.0847 28.6192C48.1492 28.9141 46.9264 29.0616 46.156 29.226C44.9646 27.2423 44.0632 25.0983 43.4792 22.8593V22.86ZM46.7628 30.1661C47.5676 29.7648 48.3943 29.4091 49.2391 29.1008C50.3528 28.7505 51.8506 28.613 52.5173 28.4095C53.4945 29.982 54.7103 31.393 56.1212 32.5917C52.9528 34.4866 53.5942 33.8099 51.1632 34.6272C49.4102 33.4522 47.9131 31.9348 46.762 30.1661H46.7628ZM52.2462 35.2585C52.82 34.8909 53.4226 34.5704 54.0481 34.3C55.1534 33.8675 57.1973 33.4781 57.1266 33.3214C58.8119 34.3594 60.7721 34.8629 62.749 34.7654C56.8762 37.1311 54.8223 36.5781 52.2462 35.2585ZM68.2601 31.922C66.5795 33.0741 65.316 33.8883 63.2975 34.0403C58.9961 34.376 56.1542 32.2054 53.7155 28.6852C44.9132 15.9027 49.6531 0.350375 62.5094 6.8392C73.0783 13.007 73.7281 28.1675 68.2609 31.9181V31.922H68.2601Z" fill="black"/>
<path d="M67.9919 16.5047C67.1892 14.8065 68.0249 17.0662 68.3667 18.4096C69.2677 22.0611 69.25 26.7487 66.8751 29.6344C61.6167 36.2438 53.2446 25.0674 52.1923 16.537C51.0916 7.20927 59.4308 3.29355 66.2483 13.5806C67.1562 14.9739 67.5341 15.8257 67.6017 15.7942C67.3537 14.9539 66.9955 14.1501 66.5364 13.4039C61.5806 4.84816 54.4236 5.63315 52.2499 10.3385C48.3549 18.7053 56.8039 31.5585 62.1828 32.3896C68.0741 33.415 71.6879 24.3369 67.9919 16.5047Z" fill="black"/>
<path d="M61.7606 18.3066C62.2561 17.8487 62.614 17.2616 62.7941 16.6114C62.9741 15.9612 62.9692 15.2737 62.7798 14.6261C62.5904 13.9786 62.2241 13.3967 61.722 12.9461C61.2199 12.4954 60.6021 12.1937 59.9379 12.075C59.8173 10.8607 59.0208 10.1456 58.8104 10.2931C58.6061 10.4267 58.8104 11.0742 59.0108 11.8239C59.0938 12.1188 59.1775 11.9007 57.8587 12.0236C57.4524 9.95588 56.4616 10.0972 57.0031 12.148C56.6574 12.2786 56.321 12.4322 55.9961 12.6089C56.3755 14.1128 57.6859 17.2527 58.3234 19.8289C58.9609 22.4051 59.5593 25.8031 60.1238 27.2794C61.269 26.8554 61.0133 26.8608 61.1769 27.3393C61.6108 28.6166 62.7514 29.2902 61.9979 27.0597C61.9434 26.8976 61.9296 26.9291 62.0264 26.9184C63.4089 26.7648 63.1739 26.4859 63.2799 26.8324C63.9819 29.0798 64.5649 28.0359 64.1094 26.5789C64.005 26.2348 63.9719 26.3331 64.1363 26.2271C67.1925 24.3146 64.6471 19.3711 61.7606 18.3066ZM57.9655 13.6212C59.0247 13.2986 60.0132 13.0352 60.9434 13.5229C61.3957 13.7534 61.7514 14.1371 61.947 14.6056C62.1426 15.0742 62.1653 15.5969 62.011 16.0806C61.4949 17.5584 59.7221 17.7036 58.6982 17.9578C58.4087 16.4447 58.179 14.8571 57.9655 13.6197V13.6212ZM61.1661 25.2731C60.3551 23.5158 59.669 21.7035 59.113 19.8496C59.9396 19.5504 60.832 19.4819 61.6946 19.6515C64.7838 20.6101 66.8001 25.7962 61.1661 25.2731Z" fill="black"/>
<path d="M21.2828 22.6395C18.6505 23.5221 12.9797 27.4524 12.058 28.6084C6.06692 36.0888 16.5821 58.9157 30.2433 58.6261C33.0906 58.5662 38.9673 54.6697 41.7263 51.8554C50.0424 43.3657 35.1007 18.0049 21.2828 22.6395Z" fill="#FDFE1F"/>
<path d="M24.6011 42.8625C26.5751 45.7275 31.6921 51.0965 35.1485 51.3376C37.2224 51.482 38.691 50.1717 39.5197 48.296C42.6167 41.291 35.1416 30.6837 37.3414 33.7599C40.7779 38.5566 42.9178 47.4626 38.3638 51.1825C36.8045 52.456 34.3697 52.6841 31.7482 51.035C20.6654 44.0654 15.1989 27.4055 23.6356 24.8785C30.2673 22.8922 37.0749 32.8543 36.7777 33.0571C36.5703 33.1984 34.0594 28.7627 28.8494 26.1397C25.88 24.6442 22.8998 25.4484 21.5772 27.1228C18.6 30.8934 21.5887 38.4921 24.6011 42.8625Z" fill="black"/>
<path d="M20.3061 22.53C17.6362 23.8977 15.0917 25.4974 12.702 27.3106C5.12478 33.4829 13.7888 55.9964 27.8011 58.9559C29.1238 59.194 30.4817 59.1502 31.7867 58.8284C33.9497 58.1548 37.6073 56.1654 41.5745 52.6606C42.2363 52.0556 42.7992 51.3506 43.2428 50.5714C49.0242 40.5202 34.0257 16.5604 20.3061 22.53ZM15.0539 27.4319C16.1722 26.6385 17.2698 25.8627 18.3759 25.1761C16.9044 27.2099 16.2406 29.7178 16.5133 32.2133C14.2236 33.8378 14.7897 33.9953 11.5038 35.079C11.301 29.9036 13.1805 28.7692 15.0539 27.4319ZM11.5844 36.2803C12.2803 35.8502 13.2427 35.1136 14.0984 34.6489C14.8795 34.2249 15.9019 33.8516 16.6331 33.5221C17.0054 35.9516 17.724 38.3152 18.7668 40.5409C16.6569 41.9097 17.2568 42.1931 13.4424 43.4167C12.4619 41.1466 11.8353 38.7396 11.5844 36.2796V36.2803ZM13.9017 44.4221C14.5815 43.9927 15.4441 43.3713 16.2206 42.9689C17.2191 42.4527 18.5925 42.0195 19.3099 41.6631C20.4853 44.0248 21.9241 46.2459 23.5989 48.284C22.9122 48.6957 21.8968 49.4846 20.9943 49.96C20.1287 50.4155 18.9665 50.7934 18.2292 51.1183C16.5053 49.0812 15.0509 46.8306 13.9017 44.4221ZM19.0157 51.9978C22.5189 49.364 22.2079 50.225 24.4223 49.2465C25.8082 50.8459 27.4175 52.2372 29.2006 53.3773C26.5053 55.839 27.0192 55.0548 24.6627 56.3597C22.5247 55.269 20.6085 53.7898 19.0118 51.9978H19.0157ZM29.769 57.5895C28.4306 57.5797 27.1045 57.3337 25.8517 56.8628C28.3864 54.5202 29.0838 54.9657 30.3773 54.0063C32.3384 54.907 34.5374 55.1521 36.6487 54.7053C34.9774 55.796 31.7422 57.667 29.7613 57.5887H29.769V57.5895ZM42.0714 49.8963C41.6847 50.5391 41.2062 51.122 40.6513 51.6268C39.0383 53.0193 38.5505 53.5892 36.5804 53.9618C32.0233 54.8466 28.7151 52.4963 25.5552 49.1443C19.041 41.9627 13.0246 28.1493 21.4582 23.5754C33.2507 18.9668 47.8214 40.2106 42.0714 49.8963Z" fill="black"/>
<path d="M32.5773 39.3755C29.5218 41.4839 29.7553 41.4678 29.3651 41.265C26.5938 39.8256 26.6284 39.9293 26.5508 39.7066C26.4732 39.4838 26.09 39.8694 32.2262 35.6096C32.4567 35.4506 32.4405 35.5274 35.2487 36.9568C35.8808 37.2787 35.5206 37.3432 32.5773 39.3755Z" fill="black"/>
<path d="M25.4079 38.0504C25.2335 37.9029 25.318 38.0504 24.947 34.8551C24.8963 34.4181 24.5568 34.7783 30.6708 30.5969C31.0848 30.3142 31.1025 31.2467 31.1501 31.676C31.3875 33.8267 31.4896 34.0471 31.2477 34.2107C25.1006 38.4076 25.5769 38.1933 25.4079 38.0512V38.0504Z" fill="black"/>
<path d="M36.6327 38.8549C36.7986 39.0085 36.738 38.901 37.0936 42.1116C37.1328 42.4634 37.4945 42.1024 31.3398 46.3184C31.1455 46.4513 30.998 46.2416 30.9719 46.0043C30.6424 42.9842 30.5456 42.8551 30.7822 42.6961C36.973 38.4348 36.4876 38.7228 36.6327 38.8557V38.8549Z" fill="black"/>
<path d="M143.306 102.193L140.444 100.929C138.38 105.428 122.931 141.267 122.552 141.791C122.377 141.458 117.163 121.072 117.155 120.918C117.155 120.899 117.095 121.282 117.091 121.254C117.073 121.265 117.103 120.879 117.064 120.917C113.03 126.088 112.68 126.69 110.414 129.798C110.167 128.896 107.271 118.545 107.247 118.424C106.018 119.081 96.9721 126.753 96.6771 126.456C96.353 126.131 101.132 120.696 108.381 114.858C108.579 115.501 109.57 118.678 109.57 118.678C111.635 124.757 111.321 124.19 111.6 123.653L118.416 114.38L123.26 132.93C123.26 132.93 136.459 102.542 137.744 99.7397L134.913 98.4901C134.762 98.4224 134.633 98.3135 134.541 98.1758C134.449 98.0382 134.398 97.8775 134.394 97.7121C134.389 97.5467 134.431 97.3834 134.516 97.2409C134.6 97.0985 134.723 96.9828 134.87 96.907L141.498 93.5366C141.615 93.4771 141.744 93.4448 141.876 93.4421C142.008 93.4394 142.138 93.4664 142.258 93.521C142.378 93.5757 142.484 93.6567 142.568 93.7579C142.652 93.8591 142.713 93.978 142.745 94.1058L144.511 101.181C144.55 101.34 144.544 101.507 144.493 101.662C144.442 101.818 144.348 101.956 144.223 102.061C144.098 102.166 143.945 102.234 143.783 102.258C143.621 102.281 143.456 102.259 143.306 102.193Z" fill="#FDFE1F"/>
<path d="M141.894 93.439C142.816 93.439 142.624 93.6257 144.511 101.179C144.551 101.338 144.545 101.505 144.495 101.661C144.444 101.818 144.351 101.956 144.225 102.062C144.1 102.168 143.947 102.236 143.785 102.259C143.622 102.282 143.456 102.26 143.306 102.193L140.444 100.929C138.381 105.428 122.931 141.267 122.552 141.791C122.352 141.407 117.185 120.917 117.064 120.917C111.888 127.641 114.057 124.801 110.414 129.798C110.167 128.896 107.271 118.546 107.247 118.423C106.117 119.028 96.9544 126.734 96.6771 126.456C96.0873 125.865 103.86 118.678 105.264 117.434C105.406 117.308 107.609 115.48 108.381 114.859C108.579 115.502 109.57 118.678 109.57 118.678C111.636 124.766 111.321 124.19 111.6 123.653L118.416 114.38L123.26 132.931C123.26 132.931 136.459 102.542 137.744 99.7404L134.913 98.4908C134.761 98.4236 134.632 98.3149 134.539 98.1772C134.447 98.0395 134.395 97.8785 134.39 97.7127C134.386 97.5469 134.428 97.3832 134.513 97.2407C134.598 97.0982 134.722 96.9827 134.87 96.9077C142.076 93.2409 141.597 93.439 141.894 93.439ZM141.894 92.1494C141.16 92.1494 141.333 92.1717 134.285 95.7556C134.012 95.8946 133.772 96.09 133.58 96.3287C133.388 96.5674 133.249 96.8441 133.172 97.1405C133.095 97.4369 133.081 97.7463 133.132 98.0483C133.184 98.3503 133.298 98.638 133.469 98.8925C133.697 99.2327 134.017 99.5016 134.392 99.6667L136.028 100.389C134.946 102.761 125.007 125.65 123.57 128.975L118.976 111.438L111.784 121.185C110.086 116.086 110.709 118.042 109.055 112.659C105.217 115.642 101.596 118.893 98.2195 122.389C95.6133 125.173 94.7308 126.326 95.7616 127.363C97.2025 128.813 98.8178 126.458 106.458 120.573C106.612 121.111 109.876 132.721 109.876 132.721L116.519 123.706C121.966 144.893 120.791 141.207 122.37 144.224C124.036 141.942 124.217 141.881 125.322 138.942C126.205 136.593 140.958 102.907 141.086 102.623C142.837 103.397 143.065 103.559 143.661 103.559C143.99 103.559 144.314 103.483 144.609 103.339C144.904 103.195 145.163 102.985 145.365 102.726C145.567 102.467 145.708 102.166 145.777 101.844C145.845 101.523 145.84 101.19 145.76 100.871L143.994 93.7962C143.878 93.3265 143.608 92.9092 143.228 92.6107C142.847 92.3122 142.378 92.1498 141.894 92.1494Z" fill="black"/>
</svg>
