<svg width="154" height="154" viewBox="0 0 154 154" fill="none" xmlns="http://www.w3.org/2000/svg">
<path d="M87.4927 89.5976C93.0767 88.4685 101.18 85.7571 102.755 80.3805C103.669 77.239 101.572 74.5661 98.9602 72.5921C97.9992 71.8332 96.9366 71.2127 95.8034 70.7487C95.1352 70.4645 95.5576 69.8116 96.2028 70.1419C97.57 70.8562 95.2657 71.4399 108.193 63.9127C109.168 63.3443 109.23 63.0831 109.729 63.2367C110.49 63.4572 111.224 63.7613 111.918 64.1431C111.987 64.1881 112.042 64.2514 112.078 64.326C112.113 64.4006 112.127 64.4835 112.118 64.5655C112.118 64.5655 112.041 67.9067 111.933 68.8284C111.849 69.5965 112.402 68.9667 103.907 74.9732C102.985 75.626 102.724 75.6721 102.854 75.8795C103.776 77.3466 103.768 77.5847 103.761 87.4009C103.761 94.6977 103.838 98.6457 102.947 97.893C102.864 97.8144 102.8 97.7185 102.759 97.6123C102.718 97.5061 102.701 97.3921 102.709 97.2785C102.762 83.86 103.062 82.608 102.916 81.9935C98.6223 89.7666 83.4218 92.0248 74.3967 91.3258C49.1573 89.3595 52.0837 76.8012 51.9454 84.413C51.7841 93.7837 52.3141 97.4705 52.1298 99.1373C52.1298 99.3984 51.546 99.4983 51.4923 99.2525C50.7242 95.1816 51.0929 79.2821 51.0929 78.9135C51.0895 78.1116 51.2193 77.3148 51.4769 76.5554C51.5614 76.2175 51.8379 76.6553 45.0557 71.824C42.7514 70.1803 42.5901 70.2033 42.5747 69.6503C42.4058 65.0418 42.2598 65.0417 42.7668 64.8113C45.432 63.567 44.9558 63.8589 46.3845 64.7345C49.4184 66.5856 51.2849 67.6686 53.0515 68.7055C57.4527 71.3017 56.3466 71.0098 57.445 70.5259C57.7906 71.0405 57.9673 71.1788 57.5602 71.3862C55.7984 72.3003 54.2632 73.5967 53.0669 75.1805C46.4536 84.9122 68.4824 93.4457 87.4927 89.5976ZM111.012 64.481C111.227 64.3197 111.012 64.3428 109.783 63.8512C109.406 63.7053 110.412 63.2214 97.8772 70.9407C97.7467 71.0175 97.7159 70.9407 99.0755 71.8624C99.3059 72.039 110.935 64.5425 111.012 64.4503V64.481ZM44.9558 64.481C44.5871 64.5732 44.687 64.5809 43.5349 64.9957C43.3044 65.0802 43.5349 65.1954 43.7115 65.3183C48.9269 68.7132 53.8349 71.7088 54.58 72.2311C54.7874 72.377 54.772 72.3156 55.8243 71.463C56.1853 71.1711 56.5156 71.6012 49.741 67.4228C44.7715 64.3735 44.8944 64.5194 44.9712 64.5194L44.9558 64.481Z" fill="#191919"/>
<path d="M42.1834 106.595C41.0137 105.336 39.6496 104.273 38.1433 103.446C37.7592 103.185 38.028 102.947 38.3583 103.108C41.7533 104.782 41.9223 106.027 42.3831 105.735C42.844 105.443 59.02 95.4346 59.7036 95.5498C60.305 95.7342 60.8949 95.9546 61.4702 96.2104C61.8926 96.387 62.2843 96.4869 62.2382 96.9785C62.1 101.894 62.1384 102.002 61.6007 102.355C61.5239 102.409 43.9347 114.752 43.9347 114.944C43.9347 114.944 43.9347 122.08 43.7426 123.462C43.5506 124.845 44.5491 128.194 39.6871 131.097C28.7495 137.641 7.30444 134.768 5.05394 126.104C5.05394 126.104 4.61613 118.424 4.71598 110.743C4.71598 110.574 4.79279 110.236 4.77743 110.105C4.25513 107.317 6.98953 104.337 9.38597 103.569C9.43377 103.557 9.48427 103.562 9.52841 103.584C9.57255 103.606 9.60746 103.643 9.62687 103.688C9.64628 103.733 9.64893 103.784 9.63434 103.831C9.61976 103.878 9.58889 103.919 9.54727 103.945C8.59139 104.508 7.70462 105.181 6.90504 105.95C3.94789 109.022 5.33045 112.294 8.81758 114.453C22.7431 123.04 49.6108 115.551 42.1834 106.595ZM38.9728 130.867C44.7028 127.587 42.6904 124.799 43.205 121.895C43.0744 121.488 43.5353 111.449 43.1589 112.11C38.4582 120.405 15.2542 121.05 7.28908 114.092C5.03858 112.125 5.3535 110.912 5.34581 113.216C5.34581 114.821 5.3919 125.137 5.73754 126.373C7.84979 134.016 29.0798 136.527 38.9728 130.867ZM59.573 96.1336C59.1505 96.3256 54.0427 99.6821 42.8517 106.318C42.6596 106.434 42.7211 106.411 43.2895 107.394C43.8579 108.377 43.2895 108.223 49.1577 104.452C53.9582 101.38 60.9402 97.086 61.1936 96.7711C61.1092 96.7096 59.4731 96.1336 59.573 96.1336Z" fill="#191919"/>
<path d="M110.059 113.132C110.282 112.648 110.021 112.978 97.7314 104.214C94.8357 102.156 95.2889 103.047 95.166 99.8436C95.0661 97.2705 94.9202 97.017 95.5039 96.7712C97.5931 95.934 97.8082 95.8342 98.1308 96.0031C98.1308 96.0031 108.715 102.294 109.214 102.586C113.592 105.197 112.732 105.105 113.562 104.583C115.236 103.523 114.975 104.329 114.844 104.421C114.261 104.852 110.182 107.117 110.704 110.389C111.173 113.362 114.545 115.482 117.325 116.534C130.921 121.673 150.691 117.241 148.341 108.669C147.496 105.597 142.304 103.838 143.502 103.653C144.331 103.523 149.117 106.587 149.247 109.798C149.439 114.353 149.247 122.955 149.147 123.977C148.886 126.281 150.591 131.136 137.926 134.377C129.569 136.512 112.54 134.692 110.443 126.619C110.251 125.836 109.89 113.132 110.059 113.132ZM148.648 112.471C148.057 113.468 147.274 114.337 146.344 115.029C138.471 121.273 116.626 121.173 110.804 112.402C110.589 113.17 110.927 124.261 111.012 125.621C111.665 136.458 143.817 137.396 148.141 127.748C149.047 125.659 148.372 112.471 148.648 112.471ZM97.8543 96.5562C97.7084 96.5562 97.9081 96.4794 96.2183 97.1399C96.0109 97.2167 96.3796 97.3703 96.7022 97.5777C111.81 107.225 111.112 106.902 111.296 106.68C111.582 106.273 111.92 105.907 112.302 105.589C112.617 105.358 97.693 96.5562 97.8543 96.5562Z" fill="#191919"/>
<path d="M53.8357 88.1227C53.8357 87.7156 54.3888 87.4007 54.7114 87.6618C61.2862 93.0385 73.6909 93.5608 78.5222 93.6453C86.5717 93.7835 96.2343 90.9109 96.9563 90.1965C101.35 88.6604 101.204 85.7493 101.173 92.7082C101.173 93.8757 101.089 93.6683 101.012 96.2798C101.012 96.9634 100.543 96.8482 100.466 96.7023C100.313 96.4257 100.359 96.541 100.367 94.1061C100.367 93.8757 100.367 94.0523 99.2913 94.59C95.3587 96.6485 94.821 96.4718 93.2464 97.1862C92.8086 97.3859 92.271 97.2553 92.271 97.5625C92.271 98.7377 92.3478 100.043 92.3708 100.174C92.5475 101.357 92.3017 101.71 92.5936 101.564C94.5445 100.75 94.4754 100.796 94.5752 100.95C95.0745 101.618 92.7088 101.925 92.5475 102.148C92.3862 102.371 92.6627 104.16 92.5936 105.22C92.5936 105.32 92.5936 105.366 92.7241 105.305C92.8547 105.243 93.1159 105.174 93.3079 105.097C94.076 104.76 95.2281 104.206 95.6967 104.038C96.1652 103.869 96.4647 104.038 96.265 104.399C95.9424 105.028 91.2033 106.826 90.1971 107.102C83.1691 109.03 82.762 108.638 81.9555 108.792C79.874 109.253 72.5925 108.969 71.9703 108.731C71.9703 108.731 63.9361 107.502 60.1264 105.028C59.7577 104.79 60.0573 104.191 60.8945 104.575C61.2785 104.752 64.5736 105.996 64.7887 106.111C65.0038 106.227 64.9346 105.75 64.9731 104.03C65.1804 93.0231 65.4109 93.2766 65.0499 93.1306C61.7796 92.3939 58.6406 91.1637 55.7406 89.4822C55.1876 89.1519 54.9264 88.9138 54.5577 88.7141C54.4272 89.4054 55.0877 97.3244 54.358 97.8851C54.1507 98.0464 53.8741 97.8851 53.8741 97.5087C53.7042 94.3827 53.6914 91.2501 53.8357 88.1227ZM91.5797 93.0308C91.019 92.3626 83.653 96.6485 66.7627 93.4686C65.9946 93.3303 65.8487 93.1767 65.8333 93.4686C65.8333 93.8757 65.4723 106.342 65.8717 106.388C66.2711 106.434 74.0672 108.631 77.9691 108.009C78.5682 107.909 79.6282 108.009 79.7511 108.009C80.066 107.878 80.404 108.009 80.6959 107.909C81.1467 107.852 81.6011 107.829 82.0554 107.84C82.4017 107.747 82.7572 107.693 83.1153 107.678C84.5363 107.632 91.9484 105.942 91.9407 105.458C91.9656 104.82 91.9373 104.18 91.8562 103.546C91.6258 101.48 91.6258 93.123 91.5797 93.0308ZM92.3478 96.7944C93.3847 96.3105 92.4476 97.2322 98.3158 94.2981C100.474 93.2151 100.344 93.3227 100.344 93.1998C100.445 92.4363 100.466 91.6636 100.405 90.8955C100.351 89.2595 100.344 89.3055 100.244 89.3593C95.7427 92.2934 91.933 92.4931 92.2172 92.9309C92.3939 93.1537 92.1097 96.7944 92.3939 96.7944H92.3478Z" fill="#D9B343"/>
<path d="M47.9592 54.4651C42.2676 62.0769 25.5233 61.9002 17.7732 57.6143C15.0465 56.0781 14.5933 54.757 14.1171 54.3883C13.9558 55.1564 14.1171 66.0018 14.409 67.1847C15.8223 72.3155 26.0763 74.159 31.8062 74.0975C39.948 73.9593 43.6118 71.3862 43.9651 71.5167C45.6933 72.1466 32.5666 77.3926 20.331 72.8609C17.658 71.87 14.7085 70.0881 13.879 67.346C13.6793 66.7008 13.3721 58.1827 13.3721 58.1289C13.8099 52.7523 12.4273 50.448 16.0527 47.7136C18.1265 46.1774 17.9729 46.9993 17.8193 47.1145C17.3738 47.4448 13.3337 49.6415 14.0864 52.8061C15.3077 57.9215 26.9673 61.8158 39.5255 58.9047C42.7976 58.1366 47.7057 55.9399 47.9745 52.5449C48.2894 48.5355 42.9512 47.1068 43.2201 46.4002C43.2969 46.2082 44.0342 46.5922 44.257 46.7228C48.7042 49.2959 48.6274 51.1623 48.6044 55.6326C48.6044 64.7345 48.4738 65.18 48.1512 65.2645C47.9745 65.3106 47.89 64.842 47.8977 64.7652C47.9361 61.57 47.8824 54.4651 47.9592 54.4651Z" fill="#191919"/>
<path d="M121.981 74.4352C113.985 74.4352 108.24 71.8007 109.691 71.6086C110.083 71.5626 111.089 72.1156 112.549 72.5534C122.703 75.6258 133.617 72.7915 136.559 69.8267C138.864 67.5224 138.479 68.7744 138.633 54.6262C138.633 53.474 138.564 55.1562 135.845 56.9304C128.448 61.7464 113.371 61.2855 107.019 56.508C106.141 55.8573 105.365 55.0808 104.714 54.2037C104.538 54.7721 104.714 61.539 104.814 63.9354C104.876 66.0169 104.276 65.5561 104.215 63.9354C103.708 51.0161 103.869 50.1098 105.866 48.1742C106.522 47.5102 107.306 46.9873 108.171 46.638C108.213 46.6285 108.258 46.6336 108.297 46.6526C108.336 46.6716 108.367 46.7034 108.386 46.7427C108.405 46.7819 108.41 46.8264 108.4 46.8688C108.39 46.9112 108.366 46.949 108.332 46.976C108.109 47.1911 103.378 49.6259 104.876 53.2743C106.896 58.1901 116.689 59.8185 122.319 59.757C135.292 59.6341 142.343 52.8442 136.498 48.2357C135.246 47.2448 133.848 46.638 133.948 46.3846C133.957 46.3579 133.972 46.3335 133.991 46.3129C134.011 46.2922 134.034 46.2758 134.06 46.2647C134.086 46.2538 134.114 46.2486 134.143 46.2493C134.171 46.2501 134.199 46.257 134.224 46.2694C136.82 47.5982 139.094 49.5337 139.125 51.9609C139.209 59.8492 138.963 63.4823 138.979 66.1091C139.071 72.0772 128.241 74.4352 121.981 74.4352Z" fill="#191919"/>
<path d="M137.342 66.2166C137.342 68.037 127.626 74.3967 113.724 70.8789C111.373 70.2798 111.488 69.7498 112.118 69.8189C113.831 70.0186 113.132 71.6239 113.447 65.4869C113.508 64.2272 113.447 62.9599 113.508 61.6925C113.508 61.1088 112.61 61.7693 106.941 58.8583C106.557 58.6586 106.48 58.1977 106.427 58.9044C106.311 60.1717 106.496 63.5129 106.373 64.45C106.373 64.5806 105.966 64.7418 105.966 63.8969V58.3513C105.966 57.8137 106.388 57.6601 106.665 57.9289C108.009 59.2193 112.633 60.8169 113.885 61.0012C116.139 61.5004 118.436 61.7782 120.744 61.8308C133.986 62.3147 137.319 57.2222 137.388 58.6509C137.55 61.8846 137.265 66.2166 137.342 66.2166ZM113.916 70.1799C113.916 70.2567 114.031 70.3566 114.077 70.3566C116.357 71.0122 118.717 71.3508 121.09 71.3628C125.806 71.4396 131.413 70.1108 131.359 69.6269C130.998 66.5545 131.267 64.811 131.113 62.3608C131.052 61.3699 131.274 61.3469 130.79 61.4467C120.306 63.6358 114.023 61.2317 114 61.7233C113.9 63.029 113.839 70.1799 113.9 70.1799H113.916ZM137.02 60.2639V59.1655C137.02 58.9504 136.904 58.9658 136.789 59.0503C131.082 62.5989 131.413 59.3114 131.582 63.751C131.582 64.2964 135.238 62.4529 135.422 62.3608C137.342 61.3776 137.02 61.8538 137.02 60.2639ZM136.943 62.9138C136.943 61.4544 137.158 62.2456 134.8 63.2287C133.85 63.6307 132.875 63.9719 131.881 64.2503C131.497 64.2503 131.62 64.1197 131.674 67.0077C131.674 67.5915 135.553 65.2411 136.037 64.9416C137.135 64.2426 136.943 64.45 136.943 62.9138ZM132.204 69.4733C133.149 69.12 136.928 67.2151 136.928 66.2243C136.928 63.6742 137.342 65.1182 133.993 66.5853C131.559 67.6529 131.689 67.4302 131.689 67.5377C131.689 67.6452 131.774 69.2121 131.789 69.4042C131.797 69.696 132.119 69.4502 132.196 69.4502L132.204 69.4733Z" fill="#D9B343"/>
<path d="M15.5846 66.7085C15.4314 66.3442 15.3581 65.9514 15.3696 65.5564C15.3004 64.5963 15.2236 59.8187 15.2927 58.6436C15.4003 56.731 16.1146 59.8802 24.7018 61.4855C33.2891 63.0908 42.0069 60.9632 43.0131 60.1721C45.0562 59.7112 46.6001 57.96 46.7614 58.728C47.0072 59.8955 46.6615 64.0279 46.6615 64.0432C46.6615 64.3658 46.3543 64.4657 46.2545 63.6746C46.1546 62.8834 46.4004 62.2152 46.1239 62.3765C41.9455 64.8267 40.8241 64.2967 40.8855 64.7268C40.8855 65.1116 40.9085 65.4965 40.9546 65.879C40.9932 66.2672 40.9932 66.6583 40.9546 67.0465C40.9546 67.515 41.0775 67.2769 41.7995 67.0465C41.861 67.0465 42.0991 67.131 41.9608 67.2769C41.5461 67.707 40.8241 67.4535 40.97 68.045C41.0445 68.5074 41.0652 68.9759 41.0314 69.4429C41.0314 70.1572 41.3387 69.6272 41.9301 69.5504C42.0914 69.5504 42.0914 69.6657 42.1375 69.7348C42.414 70.0881 40.2557 70.6872 39.5721 70.9637C32.8897 73.7058 20.3621 72.3232 15.5846 66.7085ZM40.6935 69.8884C40.5015 66.1862 40.4323 61.8081 40.417 61.6468C33.8959 63.3366 24.4637 62.461 23.519 61.8695C23.3193 61.7466 23.327 62.123 23.2962 63.2521C23.0889 71.102 23.2502 70.4798 23.4729 70.5643C29.6944 72.8993 40.7088 70.7026 40.7088 69.8884H40.6935ZM22.8661 61.9079C22.8661 61.7236 22.7509 61.6314 22.651 61.6314C21.2567 61.2946 19.8906 60.8504 18.5648 60.3026C15.8534 58.9738 16.5524 59.0967 15.7613 58.7665V61.9617C15.9456 65.3413 15.7229 63.6361 15.7613 66.1017C15.7613 67.492 22.628 70.7717 22.6741 70.2033C22.989 64.12 22.8047 61.9079 22.8815 61.9079H22.8661ZM46.3543 59.5192C46.3543 58.9354 45.8704 59.5653 44.5877 60.1567C41.5998 61.5162 40.9393 61.3396 40.9393 61.6314C40.8704 62.0811 40.8472 62.5366 40.8701 62.991C41.0775 63.9971 40.7549 64.289 41.1313 64.1277C42.8825 63.6899 42.8595 63.6054 46.1469 61.9387C46.6231 61.7006 46.3082 59.5192 46.3697 59.5192H46.3543Z" fill="#D9B343"/>
<path d="M85.7729 86.2715C87.5902 85.9369 89.3857 85.4932 91.1496 84.9427C94.2219 83.6523 100.036 81.6322 98.7767 77.0698C98.0086 74.2509 93.8917 72.9989 94.2987 72.6302C94.46 72.4766 94.3755 72.3306 94.6213 72.4305C95.2512 72.6916 98.0086 74.3584 98.8689 75.956C99.011 76.2756 99.1861 76.5789 99.3912 76.8624C99.607 77.5782 99.6331 78.3379 99.468 79.0668C98.9841 81.5861 95.7735 83.6753 93.4231 84.6508C84.8051 88.1687 74.1364 88.2915 64.8194 86.0948C64.0898 85.9182 62.4384 85.2499 62.1158 85.1654C60.8945 84.8505 57.2614 82.9917 55.8481 80.7412C54.1353 77.9991 55.9019 75.2724 58.621 73.4521C58.8514 73.3061 59.0741 73.0526 59.2892 73.3445C59.5043 73.6364 59.5043 73.6364 59.389 73.7439C59.2738 73.8515 54.5731 76.4169 56.2399 79.9271C58.3291 84.3205 67.7612 86.5019 72.1701 86.7554C82.7083 87.3698 84.4902 86.2715 85.7729 86.2715Z" fill="#D9B343"/>
<path d="M77.7997 112.548C64.2352 112.456 56.0167 107.786 56.5466 106.972C57.0766 106.157 58.9968 109.069 68.2754 110.812C74.0908 111.8 80.0239 111.883 85.8646 111.058C95.4043 109.568 98.3 106.311 99.1142 106.449C100.842 106.78 91.825 112.648 77.7997 112.548Z" fill="#191919"/>
<path d="M113.9 107.648C114.238 107.133 115.936 105.574 116.159 106.111C116.304 106.465 113.324 107.717 113.693 110.198C114.407 115.006 125.03 115.989 131.075 115.997C139.04 115.997 150.016 111.98 144.071 106.68C143.546 106.289 142.994 105.935 142.42 105.62C142.304 105.543 142.028 104.698 144.317 106.388C145.369 107.156 146.49 108.692 146.168 109.952C146.099 110.228 146.237 110.72 145.131 112.049C143.441 114.092 139.178 115.428 136.582 115.889C124.853 118.055 109.538 114.307 113.9 107.648Z" fill="#D9B343"/>
<path d="M8.32616 107.409C8.85176 106.591 9.59345 105.935 10.4691 105.512C10.6842 105.382 11.0452 105.597 10.423 106.027C8.71789 107.217 7.58112 108.938 8.73325 110.635C9.62711 111.882 10.8698 112.836 12.3049 113.377C17.4357 115.597 22.5896 115.405 23.2578 115.49C26.5453 115.897 38.8424 114.545 40.2864 109.66C41.1159 106.856 36.9375 105.251 36.9452 104.844C36.9452 104.752 37.1219 104.752 37.2985 104.798C37.4752 104.844 37.5597 105.044 37.7594 105.021C39.019 105.935 40.44 106.81 40.7396 108.531C41.3003 111.672 36.7916 113.731 33.7653 114.722C23.9798 117.955 3.86356 114.952 8.32616 107.409Z" fill="#D9B343"/>
<path d="M16.3907 52.7523C15.9068 52.1379 16.2371 50.064 18.4031 48.6968C18.8256 48.4357 19.1712 48.5509 18.9869 48.7813C18.8025 49.0117 18.4492 49.0885 17.4968 50.0794C17.3662 50.21 17.3124 50.4173 17.1895 50.5172C17.0666 50.617 17.0589 50.8244 16.913 50.9243C16.913 51.147 16.744 51.3083 16.7287 51.508C16.7133 51.7077 16.7287 52.1071 16.7287 52.399C16.8961 52.793 17.0943 53.1725 17.3201 53.5358C22.4509 60.0338 47.0375 57.8985 45.3323 51.2315C44.7793 49.0732 42.2984 48.3742 42.3445 48.1592V48.0132C42.5749 48.0132 42.5903 47.9134 43.1586 48.2897C44.208 48.8369 45.0596 49.6991 45.5935 50.7553C47.0529 53.6433 41.9374 56.7541 36.5224 57.5145C23.7183 59.3118 16.1987 54.8569 16.3907 52.7523Z" fill="#D9B343"/>
<path d="M109.161 48.3895C109.414 48.2052 109.744 48.3895 109.537 48.5892C108.7 49.3573 106.373 50.8474 107.671 52.9673C110.612 57.7525 124.039 58.2211 130.107 56.2624C133.786 55.0642 137.695 52.422 135.199 49.6415C134.093 48.3972 132.895 48.0515 132.979 47.8058C133.102 47.1759 140.66 51.4465 132.733 55.6403C122.349 61.1244 99.598 55.7171 109.161 48.3895Z" fill="#D9B343"/>
<path d="M9.3321 127.794C8.71216 127.341 8.11729 126.853 7.55013 126.335C6.94334 125.613 6.82813 126.013 6.72059 122.717C6.72059 122.234 6.759 121.75 6.72059 121.258C6.65926 120.851 6.6438 120.439 6.67451 120.029C6.94334 117.594 6.44408 116.281 7.06623 116.066C7.10393 116.041 7.14796 116.028 7.19297 116.028C7.23797 116.028 7.28201 116.041 7.3197 116.066C9.0322 117.279 10.9277 118.209 12.9344 118.823C15.2594 119.505 17.6352 119.998 20.0393 120.298C27.244 120.743 29.6634 120.505 34.3795 119.484C43.5966 117.494 42.0604 112.01 41.8453 125.129C41.8453 126.135 41.0158 126.75 40.0557 127.433C37.8851 129.06 35.4004 130.219 32.7588 130.836C23.0809 133.279 14.8163 131.597 9.3321 127.794ZM15.9223 130.099C22.5356 132.134 31.3225 131.067 34.9018 129.5C35.1246 129.4 35.186 129.354 35.0478 128.01C34.9556 127.119 34.9633 122.902 34.8865 122.088C34.7252 120.482 35.1092 119.929 34.6099 120.06C32.3103 120.705 29.9389 121.058 27.5512 121.112C17.9347 121.627 15.6842 119.668 15.6765 120.528C15.6535 130.122 15.3386 129.937 15.9223 130.114V130.099ZM7.28898 125.129C7.18145 126.665 14.9699 130.306 14.9699 129.738C15.0313 127.234 15.0697 121.488 15.1926 120.306C15.1926 120.114 13.1572 119.929 10.0848 118.508C6.52089 116.865 7.21217 116.396 7.24289 117.602C7.33506 119.753 7.34275 124.438 7.28898 125.129ZM35.355 121.427C35.355 123.378 35.355 122.917 35.7314 122.81H36.0847C38.7653 121.849 40.2093 120.797 41.2616 120.421C41.3282 120.391 41.3832 120.341 41.4179 120.277C41.4527 120.213 41.4652 120.139 41.4536 120.068C41.4536 117.878 41.4536 117.517 41.3922 117.471C41.3307 117.425 38.9112 119.169 35.5854 119.922C35.2782 119.937 35.355 120.075 35.355 121.404V121.427ZM41.3538 121.366C41.3538 120.597 41.3538 120.905 40.939 121.12C35.9848 123.639 35.3396 123.148 35.355 123.509C35.355 124.123 35.5009 126.297 35.5163 126.374C35.5624 126.896 41.3845 123.708 41.3768 123.232C41.3538 122.479 41.3768 122.057 41.3538 121.343V121.366ZM35.7314 126.834C35.4241 126.927 35.5163 126.834 35.6008 129.139C35.6008 129.607 41.4075 126.527 41.3538 125.436C41.3707 124.924 41.3553 124.411 41.3077 123.9C39.6116 125.155 37.7302 126.137 35.7314 126.811V126.834Z" fill="#D9B343"/>
<path d="M119.576 130.782C115.736 129.315 113.071 127.172 112.441 126.174C112.026 125.528 112.126 118.193 112.126 117.886C112.126 116.857 112.21 116.204 112.848 116.619C121.381 122.226 135.89 121.995 144.055 118.57C147.304 117.195 146.198 117.103 147.266 117.095C147.627 117.095 147.143 123.908 147.266 125.674C147.32 126.581 146.313 127.341 145.515 127.879C144.681 128.512 143.797 129.077 142.872 129.569C136.843 132.672 127.05 133.64 119.576 130.782ZM120.959 128.839C120.959 130.652 120.89 130.46 121.22 130.552C128.647 132.741 136.359 131.689 140.276 130.006C140.507 129.907 140.537 129.891 140.407 128.562C140.315 127.602 140.315 123.432 140.246 122.687C140.107 121.196 140.438 120.451 140.038 120.597C137.573 121.488 128.924 122.341 123.102 121.181C120.851 120.728 121.028 120.805 121.02 121.051C120.966 123.001 121.02 122.295 121.02 124.346C121.005 124.422 120.959 128.079 120.959 128.839ZM112.686 125.575C112.686 126.143 113.362 126.496 113.593 126.711C115.897 128.854 120.383 130.506 120.39 130.183C120.521 119.852 120.613 120.674 120.536 120.674C118.688 120.229 116.887 119.604 115.16 118.808C112.041 117.272 112.648 116.926 112.679 117.986C112.886 125.175 112.579 125.575 112.686 125.575ZM146.651 120.835C146.713 120.813 146.766 120.77 146.802 120.715C146.838 120.66 146.855 120.594 146.851 120.528C146.851 117.97 146.943 117.725 146.621 117.932C144.853 119.007 142.942 119.826 140.945 120.367C140.668 120.436 140.745 120.367 140.745 123.301C142.104 123.301 144.247 122.111 146.651 120.835ZM146.751 121.826C146.751 121.058 146.751 121.404 146.344 121.588C146.344 121.588 144.286 122.679 143.472 122.948C142.645 123.284 141.802 123.577 140.945 123.823C140.584 123.877 140.745 123.939 140.945 126.988C142.959 126.209 144.867 125.176 146.621 123.916C146.751 123.823 146.782 123.985 146.751 121.826ZM141.09 127.295C140.814 127.372 140.883 127.234 140.975 129.645C140.975 130.022 146.874 127.065 146.736 125.805C146.762 125.334 146.762 124.863 146.736 124.392C145.005 125.628 143.103 126.606 141.09 127.295Z" fill="#D9B343"/>
<path d="M67.461 100.98C67.461 94.6436 67.2152 96.656 69.1277 96.6483C69.2583 96.6483 69.3044 96.7328 69.3197 96.8634C69.3197 97.2244 69.5271 104.49 69.3197 104.959C69.2813 105.036 69.3197 105.151 69.3197 105.266C69.3197 106.088 68.9895 105.819 67.8604 105.574C67.2997 105.443 67.461 105.543 67.461 100.98Z" fill="#D9B343"/>
<path d="M70.2193 99.6976C70.2193 94.5284 69.8737 95.1352 71.333 95.3502C72.1011 95.4654 72.1011 95.2196 72.1011 96.295C72.055 98.1 72.2547 103.208 72.1011 103.63C72.032 103.784 72.2624 104.245 71.9321 104.26C71.4155 104.252 70.9009 104.193 70.396 104.083C70.1195 104.068 70.2193 103.884 70.2193 99.6976Z" fill="#D9B343"/>
<path d="M77.5002 104.13C77.5002 104.322 77.5463 104.606 77.3542 104.583C77.0508 104.613 76.7445 104.592 76.4479 104.521C76.2021 104.406 75.6337 104.76 75.6337 104.068V99.6518C75.4955 98.9221 75.6337 99.1525 75.6337 96.0034C75.6337 95.8421 75.7336 95.5118 75.8641 95.5809C76.2849 95.6543 76.7133 95.675 77.1392 95.6424C77.6307 95.6424 77.5002 95.5809 77.5002 98.7147L77.577 103.093C77.577 103.108 77.431 103.669 77.5002 104.13Z" fill="#D9B343"/>
<path d="M80.2729 105.266C80.2729 105.328 80.3882 105.374 80.2269 105.412C79.808 105.48 79.3835 105.506 78.9595 105.489C78.0685 105.489 78.5371 105.804 78.3911 100.881C78.3527 99.713 78.345 100.98 78.3911 96.9556C78.3911 96.7559 78.2605 96.7636 79.9273 96.7098C80.3805 96.7098 80.2038 96.126 80.3113 104.06C80.4189 104.083 80.2038 104.951 80.2729 105.266Z" fill="#D9B343"/>
<path d="M85.0587 96.7096C86.111 96.5176 85.8268 96.3333 85.8268 99.2904C85.8268 105.596 86.5488 105.289 84.0525 105.289C83.9066 105.289 83.945 105.228 83.945 104.882V97.2012C83.945 96.6328 84.1063 96.9093 85.0587 96.7096Z" fill="#D9B343"/>
<path d="M73.3147 101.08C75.1274 101.572 74.7049 100.258 74.7587 103.123C74.8278 106.802 74.7971 106.894 74.6281 106.871C74.3501 106.889 74.0709 106.868 73.7986 106.81C73.6219 106.725 73.3915 106.81 73.1841 106.725C72.8231 106.603 72.8999 106.841 72.8922 104.859C72.8845 100.327 72.7847 101.08 73.3147 101.08Z" fill="#D9B343"/>
<path d="M81.1491 103.561C81.1491 100.227 80.7957 101.072 82.8542 100.873C83.0693 100.873 83.0539 100.627 83.077 104.813C83.077 105.266 82.9771 105.735 83.0001 106.042C83.0232 106.349 83.0001 106.272 82.8388 106.318C82.4492 106.392 82.0522 106.42 81.656 106.403C80.9724 106.387 81.1491 106.218 81.1491 103.561Z" fill="#D9B343"/>
<path d="M87.2469 99.3289C87.6347 99.2219 88.0301 99.1448 88.4297 99.0984C88.8522 99.0524 88.8675 99.0984 88.8675 99.5055C88.8675 102.916 89.0365 102.539 88.8675 104.114C88.8675 104.275 87.6386 104.552 87.3314 104.537C86.9089 104.537 87.0164 104.652 87.0088 102.317C87.0164 99.4441 86.8936 99.3289 87.2469 99.3289Z" fill="#D9B343"/>
<path d="M121.581 69.0587C120.045 69.0587 120.498 69.6963 120.498 63.5899C120.498 63.2366 120.498 63.1368 120.774 63.1521C121.873 63.2136 121.773 63.2366 121.773 63.3979C121.765 69.6271 121.85 69.0587 121.581 69.0587Z" fill="#D9B343"/>
<path d="M116.043 63.8048C116.219 63.8048 116.25 63.7664 116.25 64.1581C116.25 70.0724 116.626 70.2107 115.39 69.7575C115.052 69.6269 115.036 69.6269 115.036 69.289C115.036 62.2456 114.783 63.8048 116.043 63.8048Z" fill="#D9B343"/>
<path d="M118.117 65.118C118.117 68.7357 118.216 68.9585 118.001 68.9124C117.126 68.8433 116.888 68.9124 116.903 68.6205V63.2439C116.903 62.6755 116.903 62.8752 117.809 62.952C118.201 63.0212 118.117 62.8445 118.117 65.118Z" fill="#D9B343"/>
<path d="M123.555 69.612C123.555 69.6888 123.501 69.7272 123.424 69.7272C122.479 69.7272 122.31 69.9346 122.303 69.1896C122.249 63.8744 122.241 63.8821 122.564 63.8821C123.486 63.8821 123.608 63.8821 123.601 64.1125C123.578 65.833 123.616 68.9976 123.555 69.612Z" fill="#D9B343"/>
<path d="M126.282 69.8269C126.113 69.8269 126.051 69.5888 126.051 68.982C126.051 68.6441 125.875 64.0202 126.005 64.0202C127.142 63.8896 127.288 63.8435 127.288 64.0202C127.265 70.2263 127.726 69.5427 126.282 69.8269Z" fill="#D9B343"/>
<path d="M118.686 68.6514C118.686 66.6083 118.64 66.8003 118.886 66.7849C119.884 66.7849 119.907 66.7849 119.907 67.192C119.907 69.4963 120.145 70.7483 119.692 70.6177C118.363 70.5486 118.686 70.6561 118.686 68.6514Z" fill="#D9B343"/>
<path d="M125.353 70.211C123.816 70.572 124.124 70.4107 124.124 66.9159C124.085 66.5319 125.061 66.6547 125.353 66.6394C125.468 66.6394 125.568 70.1572 125.353 70.211Z" fill="#D9B343"/>
<path d="M129.315 68.6513C129.315 68.7972 129.315 68.851 129.2 68.8817C129.085 68.9124 128.325 69.0891 128.271 69.0891C128.217 69.0891 128.094 69.0123 128.094 68.7358C128.094 65.4867 127.994 65.6634 128.309 65.5559C128.57 65.4719 128.842 65.4329 129.116 65.4407C129.369 65.4407 129.315 68.5745 129.315 68.6513Z" fill="#D9B343"/>
<path d="M31.1387 66.4777C31.1387 69.55 31.2155 69.3196 30.9083 69.335C29.9866 69.335 29.8406 69.3811 29.8406 68.974C29.8406 62.8292 29.5027 63.3669 30.6087 63.413C31.2693 63.3976 31.1387 63.2671 31.1387 66.4777Z" fill="#D9B343"/>
<path d="M24.8783 63.951C25.992 64.4196 25.4544 62.6991 25.7002 68.0987C25.7194 68.7447 25.694 69.3914 25.6234 70.0343C25.6234 70.3108 24.7477 70.0343 24.5327 69.9498C24.3176 69.8653 24.4021 69.5427 24.4021 69.5274C24.4021 63.0754 24.2869 63.951 24.8783 63.951Z" fill="#D9B343"/>
<path d="M27.4746 69.0586C27.4746 69.2506 26.8524 69.0586 26.3839 69.0586C26.1227 69.0586 26.2456 64.8264 26.2533 64.5346C26.2917 62.9984 26.1919 63.0521 26.5452 63.1213C27.3901 63.2826 27.4899 63.1213 27.4899 63.4285C27.4899 63.5207 27.4669 68.9818 27.4746 69.0586Z" fill="#D9B343"/>
<path d="M32.9201 66.2858C32.9201 70.1262 33.3733 70.0264 31.9523 69.9649C31.622 69.9649 31.6911 69.9649 31.6911 68.3596C31.6911 65.8941 31.5682 66.4164 31.622 65.9939C31.8678 64.0583 31.1688 64.1505 32.7127 64.1275C33.1428 64.1198 32.8202 66.2858 32.9201 66.2858Z" fill="#D9B343"/>
<path d="M36.5383 69.7266C36.3744 69.8098 36.1956 69.8594 36.0122 69.8726C35.8289 69.8857 35.6448 69.8622 35.4707 69.8034C35.3555 69.8034 35.4707 69.1198 35.3555 66.4008C35.3555 65.7172 35.4016 65.0336 35.4169 64.3577C35.4169 64.2578 35.4169 64.1964 35.5475 64.2117C36.0852 64.2732 36.6305 63.7202 36.6382 64.373C36.6612 69.6268 36.7995 69.6345 36.5383 69.7266Z" fill="#D9B343"/>
<path d="M28.2355 67.0155C28.2355 67.0155 28.8039 67.0769 29.1726 67.1307C29.3031 67.1307 29.2724 67.4533 29.2724 67.9526C29.2724 69.2506 29.4568 70.9174 29.1572 70.8559C28.8576 70.7945 28.0588 70.9404 28.0588 70.4872C28.0665 66.3856 27.9667 67.0155 28.2355 67.0155Z" fill="#D9B343"/>
<path d="M34.7866 70.3417C34.7866 70.4722 34.7098 70.5183 34.5792 70.5337C34.2843 70.5827 33.9832 70.5827 33.6882 70.5337C33.3657 70.4722 33.6882 69.4123 33.5039 67.108C33.5039 66.8853 34.464 66.916 34.656 66.916C34.8481 66.916 34.802 66.9621 34.802 67.0619C34.7866 69.827 34.9786 68.4291 34.7866 70.3417Z" fill="#D9B343"/>
<path d="M37.4677 67.5224C37.4677 65.8249 37.3986 65.8403 37.629 65.8249C38.8426 65.7174 38.689 65.3333 38.6967 66.4087C38.6967 67.6914 38.6967 67.7528 38.7658 67.9449C38.8349 68.1369 38.6967 68.2367 38.6967 68.9357C38.6967 69.2737 38.328 69.1124 38.0131 69.2583C37.91 69.3148 37.7922 69.3389 37.6751 69.3274C37.3986 69.3197 37.4677 69.4964 37.4677 67.5224Z" fill="#D9B343"/>
<path d="M16.8596 126.012C16.8596 122.848 16.7444 122.402 17.3512 122.656C18.6569 123.216 18.3113 121.258 18.319 129.031C18.3114 129.213 18.2804 129.394 18.2268 129.569C16.537 129.607 16.8596 129.546 16.8596 126.012Z" fill="#D9B343"/>
<path d="M20.3472 124.361C20.3472 127.434 20.4624 126.858 20.4163 127.165C20.2627 128.156 20.4163 128.463 20.2396 128.447C19.7865 128.447 18.9569 128.547 18.9569 128.171C18.9569 122.234 18.7726 126.635 18.9569 121.972C18.9569 121.665 18.9569 121.742 20.0553 121.88C20.4317 121.926 20.3472 121.734 20.3472 124.361Z" fill="#D9B343"/>
<path d="M24.0335 128.693C23.0273 128.693 22.9966 128.693 22.9966 128.402C22.9428 120.89 22.9966 124.638 22.9966 122.172C22.9966 122.057 23.058 122.003 23.1425 122.042C24.118 122.334 24.3714 121.735 24.3714 122.587C24.4022 129.239 24.5327 128.693 24.0335 128.693Z" fill="#D9B343"/>
<path d="M29.1877 126.082C29.1877 122.587 29.1109 122.91 29.4335 122.933C29.6963 122.932 29.9568 122.882 30.2016 122.787C30.2467 122.771 30.2946 122.766 30.342 122.771C30.3895 122.775 30.4353 122.79 30.4766 122.814C30.5179 122.838 30.5536 122.87 30.5814 122.909C30.6092 122.948 30.6284 122.992 30.6378 123.039C30.6509 123.1 30.6455 123.165 30.624 123.224C30.5423 123.772 30.5423 124.328 30.624 124.876C30.624 129.177 30.7239 129.116 30.4166 129.162C30.1094 129.208 29.2184 129.369 29.18 129.162L29.1877 126.082Z" fill="#D9B343"/>
<path d="M26.4298 129.146C26.4758 129.5 26.0303 129.438 25.2008 129.423C24.9397 129.423 25.0933 129.223 25.0395 126.581C24.9704 123.439 25.0395 125.114 25.0395 123.063C25.0395 122.932 25.0395 122.909 26.1379 122.863C26.5142 122.863 26.4144 122.786 26.4144 125.383C26.4912 125.352 26.4221 129.069 26.4298 129.146Z" fill="#D9B343"/>
<path d="M20.9157 128.14C20.9157 126.112 20.8389 126.074 21.1 126.097C22.1216 126.173 22.3674 126.097 22.3751 126.465C22.4749 130.667 22.4903 130.421 22.0678 130.39C20.6929 130.306 20.9157 130.621 20.9157 128.14Z" fill="#D9B343"/>
<path d="M27.4362 130.052C27.1981 130.052 27.0829 129.922 27.0829 129.676C27.0829 125.836 26.983 126.028 27.2749 125.981C27.6411 125.927 28.0107 125.899 28.381 125.897C28.5115 125.897 28.5423 125.951 28.5423 126.058C28.5423 130.283 28.6575 129.899 28.2657 129.991C27.9935 130.05 27.7142 130.071 27.4362 130.052Z" fill="#D9B343"/>
<path d="M31.4613 126.666C31.4613 124.73 31.3844 124.83 31.6917 124.784C31.7477 124.758 31.8072 124.74 31.8683 124.73C33.105 124.73 32.7824 123.693 32.8438 126.42C32.9367 127.059 32.9367 127.709 32.8438 128.348C32.8438 128.448 32.7747 128.455 31.9298 128.67C31.3307 128.824 31.4613 128.624 31.4613 126.666Z" fill="#D9B343"/>
<path d="M122.771 123.155C124.108 123.432 123.685 122.387 123.716 129.5C123.711 129.683 123.677 129.864 123.616 130.037C123.086 130.037 122.272 130.037 122.272 129.53C122.257 122.464 122.141 123.025 122.771 123.155Z" fill="#D9B343"/>
<path d="M125.744 128.854C125.744 128.969 125.644 129.016 125.513 129C124.169 128.739 124.361 129.63 124.361 126.696C124.361 124.684 124.253 124.991 124.3 124.538C124.515 122.525 124.138 122.233 124.638 122.31C124.737 122.31 125.075 122.31 125.582 122.425C125.905 122.448 125.721 128.685 125.744 128.854Z" fill="#D9B343"/>
<path d="M129.408 129.177C128.548 129.123 128.417 129.292 128.417 128.87C128.417 122.264 128.34 122.426 128.617 122.526C129.976 123.009 129.8 121.343 129.8 125.398C129.8 129.454 129.946 129.208 129.408 129.177Z" fill="#D9B343"/>
<path d="M131.827 125.897C131.827 129.207 131.989 128.547 131.827 128.969C131.605 129.737 132.311 130.014 130.599 129.914C130.529 129.914 130.453 129.799 130.414 129.737C130.376 129.676 130.284 123.462 130.499 123.439C130.714 123.416 131.167 123.378 131.489 123.362C131.812 123.347 131.827 123.239 131.827 125.897Z" fill="#D9B343"/>
<path d="M134.584 126.581C134.584 123.094 134.5 123.393 134.776 123.416C135.253 123.416 135.683 123.163 135.882 123.301C136.082 123.44 136.028 129.001 136.028 129.077C136.028 129.845 135.491 129.684 134.715 129.746C134.515 129.738 134.584 129.876 134.584 126.581Z" fill="#D9B343"/>
<path d="M126.313 128.655C126.313 126.389 126.244 126.581 126.505 126.596C127.611 126.666 127.772 126.666 127.772 126.988C127.772 130.406 127.888 130.975 127.511 130.913C126.129 130.675 126.313 131.389 126.313 128.655Z" fill="#D9B343"/>
<path d="M132.834 130.506C132.784 130.512 132.734 130.507 132.686 130.491C132.639 130.475 132.596 130.448 132.561 130.412C132.526 130.376 132.5 130.333 132.484 130.285C132.469 130.237 132.465 130.186 132.473 130.137C132.473 126.296 132.381 126.496 132.672 126.45C133 126.401 133.332 126.375 133.663 126.373C133.971 126.373 133.932 126.373 133.932 126.665C133.932 130.767 134.017 130.36 133.663 130.444C133.392 130.507 133.112 130.528 132.834 130.506Z" fill="#D9B343"/>
<path d="M138.234 126.159C138.234 127.065 138.41 128.778 138.134 128.932C137.819 129.04 137.495 129.122 137.166 129.177C136.759 129.231 136.836 129.254 136.836 126.758C136.836 125.329 136.774 125.283 136.982 125.298C137.339 125.245 137.693 125.17 138.042 125.076C138.433 124.907 138.134 126.159 138.234 126.159Z" fill="#D9B343"/>
<path d="M20.1237 111.833C7.64227 109.006 3.11053 88.9206 12.8422 80.0108C14.7164 78.2826 18.2726 76.8232 20.5923 76.2779C36.5301 72.4989 44.9791 95.9179 34.2182 107.439C34.6406 107.462 27.8738 113.607 20.1237 111.833ZM36.8988 87.0311C31.8909 74.5497 21.2759 73.7432 15.1235 81.4702C11.6901 85.7792 10.4381 95.388 15.208 103.023C19.1559 109.344 25.1931 111.003 29.5789 109.421C32.8203 108.246 36.0616 104.812 37.3674 101.356C40.1632 93.944 36.7606 87.0311 36.8988 87.0311Z" fill="#D9B343"/>
<path d="M36.1692 94.4052C36.1692 110.351 19.2328 113.124 15.1773 95.6725C11.5596 80.1264 27.7586 70.387 34.61 86.5015C35.6215 89.0147 36.1505 91.6961 36.1692 94.4052ZM17.1744 83.9284C11.0296 94.6817 20.7229 111.265 29.8863 106.065C35.2629 102.992 36.6147 94.9121 34.7406 88.6598C31.4378 77.6608 21.9212 75.5793 17.1744 83.9207V83.9284Z" fill="#D9B343"/>
<path d="M29.5176 88.4603C28.5037 90.1271 26.307 91.6248 25.9921 92.0627C31.4071 90.5265 33.4041 93.161 31.5914 96.4408C30.6467 98.1459 29.4485 98.745 28.9799 99.3288C28.5114 99.9125 29.8095 103.307 28.3655 103.607C27.8585 103.715 27.8201 103.476 27.1442 100.596C25.5619 101.526 25.4544 101.464 25.4928 101.81C25.5312 102.155 25.8692 103.853 25.4928 104.521C25.4354 104.623 25.3518 104.709 25.2505 104.768C25.1493 104.827 25.0341 104.858 24.9167 104.858C24.7994 104.858 24.6842 104.827 24.583 104.768C24.4817 104.709 24.3981 104.623 24.3407 104.521C24.101 103.885 23.9059 103.233 23.7569 102.57C23.6494 102.194 23.5342 102.47 22.3974 102.655C21.7829 102.747 21.468 101.771 22.1516 101.387C23.3959 100.681 23.3422 100.719 23.2577 100.366C22.2899 96.2564 21.1301 89.4819 21.084 88.5064C21.084 88.1838 20.4311 88.8213 18.5185 89.574C17.6736 89.912 17.6429 89.4127 17.689 89.2668C18.0423 88.1992 19.5555 87.3696 20.6922 86.6092C20.5002 85.2267 20.2775 84.0438 20.5002 83.5369C20.6462 83.2143 21.2299 82.7688 21.4911 83.1298C21.9058 83.7519 22.0978 86.0255 22.3974 85.8565C23.2653 85.4494 23.8184 85.5877 23.7723 85.1883C23.5767 84.3633 23.4533 83.5229 23.4036 82.6766C23.4069 82.5608 23.4462 82.4489 23.516 82.3564C23.5858 82.2639 23.6826 82.1954 23.793 82.1604C23.9032 82.1252 24.0217 82.1249 24.1321 82.1595C24.2425 82.1942 24.3395 82.2621 24.4098 82.354C24.5865 82.546 24.6325 82.7611 25.1241 84.2665C25.3315 84.9117 25.2547 85.0346 25.7232 84.9117C29.2718 84.1667 30.9002 86.1714 29.5176 88.4603ZM24.141 94.605C24.1794 95.1273 24.4252 96.2103 24.8707 98.7758C25.0704 99.9356 25.0396 99.4901 26.9906 98.2381C28.1658 97.47 30.831 95.0505 29.9784 93.9445C29.1259 92.8384 26.0074 93.5067 24.7554 94.0213C24.2639 94.2056 24.1333 94.221 24.164 94.5743L24.141 94.605ZM22.9735 87.6308C22.6816 87.7306 22.7584 87.7921 23.0196 88.9749C23.081 89.2668 23.4343 90.7569 23.5035 91.0565C23.5726 91.356 23.5495 91.4021 25.0396 90.2269C32.8434 83.821 22.5433 87.6001 22.9965 87.6001L22.9735 87.6308Z" fill="#191919"/>
<path d="M125.775 112.486C113.301 109.659 108.777 89.5582 118.494 80.6561C120.368 78.9356 123.924 77.4762 126.244 76.9232C142.174 73.1518 150.631 96.5632 139.87 108.085C140.3 108.085 133.517 114.237 125.775 112.486ZM142.535 87.6841C137.535 75.2257 126.935 74.3731 120.767 82.1154C117.349 86.4014 116.074 96.0332 120.844 103.676C124.792 109.997 130.829 111.649 135.215 110.066C138.456 108.891 141.698 105.458 143.003 102.001C145.776 94.5969 142.397 87.6841 142.535 87.6841Z" fill="#D9B343"/>
<path d="M141.805 95.0425C141.805 110.988 124.907 113.761 120.814 96.3099C117.188 80.7637 133.372 71.032 140.246 87.1619C141.258 89.667 141.787 92.3408 141.805 95.0425ZM122.795 84.5658C116.651 95.319 126.344 111.91 135.507 106.71C140.884 103.637 142.205 95.5648 140.361 89.3049C137.258 78.8051 127.726 75.9017 122.795 84.5658Z" fill="#D9B343"/>
<path d="M135.169 89.1052C134.163 90.7796 131.958 92.2697 131.651 92.7075C137.028 91.1713 139.086 93.7905 137.258 97.0856C136.321 98.7908 135.123 99.3899 134.647 99.9737C134.171 100.557 135.484 103.952 134.032 104.26C133.525 104.367 133.487 104.121 132.819 101.241C131.236 102.178 131.121 102.117 131.16 102.462C131.198 102.808 131.536 104.505 131.198 105.166C131.141 105.269 131.058 105.354 130.956 105.414C130.855 105.473 130.739 105.504 130.622 105.503C130.505 105.503 130.39 105.472 130.288 105.413C130.187 105.353 130.103 105.268 130.046 105.166C129.8 104.535 129.605 103.885 129.462 103.223C129.355 102.846 129.232 103.123 128.11 103.299C127.496 103.399 127.189 102.424 127.872 102.032C129.117 101.333 129.055 101.372 128.971 101.011C128.01 96.9013 126.843 90.1267 126.797 89.1513C126.797 88.7288 123.095 91.3403 123.41 89.9194C123.748 88.844 125.276 88.0222 126.405 87.2541C126.213 85.8792 125.99 84.6963 126.213 84.1817C126.359 83.8591 126.943 83.4136 127.204 83.7823C127.619 84.4045 127.818 86.6703 128.11 86.5014C128.948 86.102 129.539 86.2479 129.493 85.8408C129.287 85.015 129.161 84.1714 129.117 83.3215C129.124 83.2077 129.165 83.0987 129.236 83.0089C129.306 82.9191 129.402 82.8527 129.511 82.8184C129.619 82.7838 129.735 82.7826 129.844 82.8147C129.953 82.8469 130.05 82.911 130.123 82.9989C130.299 83.1986 130.345 83.406 130.837 84.9114C131.044 85.5643 130.968 85.6795 131.436 85.5643C134.946 84.8192 136.544 86.8163 135.169 89.1052ZM129.792 95.2499C129.831 95.7645 130.077 96.8552 130.522 99.413C130.722 100.573 130.691 100.127 132.65 98.883C133.817 98.1149 136.49 95.6877 135.63 94.5817C134.77 93.4756 131.659 94.1515 130.407 94.6662C129.9 94.8582 129.785 94.8659 129.816 95.2269L129.792 95.2499ZM128.625 88.268C128.333 88.3678 128.41 88.437 128.671 89.6198C128.74 89.9117 129.078 91.4018 129.163 91.6936C129.247 91.9855 129.163 92.047 130.653 90.8641C138.48 84.4582 128.149 88.2603 128.648 88.2603L128.625 88.268Z" fill="#191919"/>
<path d="M73.2834 81.6012C52.7907 78.7669 45.1866 39.3946 72.6151 32.935C83.6449 30.3312 91.8942 37.3438 95.2431 45.9925C101.05 60.9088 95.8499 70.3871 91.1722 75.4027C91.7252 75.372 83.2532 82.9761 73.2834 81.6012ZM94.7899 47.5825C88.0077 30.6384 73.5522 29.4094 65.1416 39.986C60.4793 45.8466 58.7434 58.9732 65.2491 69.3501C70.6795 77.9988 78.8904 80.1956 84.8354 78.0449C89.2596 76.4396 93.6531 71.8003 95.4274 67.0612C97.5473 61.4311 97.2247 53.612 94.8053 47.5517L94.7899 47.5825Z" fill="#D9B343"/>
<path d="M93.7987 57.621C93.7987 79.3426 70.756 83.1216 65.2027 59.3569C60.2715 38.1883 82.2927 24.9311 91.6787 46.8831C93.1145 50.2791 93.8361 53.9342 93.7987 57.621ZM67.9294 43.3499C59.5572 58.0742 72.8221 80.5869 85.2345 73.5051C92.6005 69.3036 94.321 58.2431 91.84 49.7865C87.7845 35.8303 74.7654 31.3139 67.9294 43.3499Z" fill="#D9B343"/>
<path d="M84.766 49.5257C83.3834 51.8299 80.3879 53.8423 79.9808 54.4261C87.2853 52.3522 90.0889 55.9008 87.6233 60.3941C86.356 62.6984 84.7199 63.5817 84.067 64.3191C83.4142 65.0565 85.1654 69.7495 83.2221 70.1643C82.4541 70.3256 82.4541 69.6343 81.5708 66.055C79.4047 67.3607 79.2665 67.2378 79.3126 67.7294C79.3587 68.221 79.8195 70.5022 79.351 71.4086C79.2719 71.5477 79.1574 71.6633 79.0191 71.7438C78.8808 71.8243 78.7237 71.8667 78.5637 71.8667C78.4037 71.8667 78.2465 71.8243 78.1082 71.7438C77.97 71.6633 77.8555 71.5477 77.7764 71.4086C77.4413 70.5475 77.1842 69.6581 77.0083 68.751C76.847 68.244 76.7011 68.6127 75.1649 68.8431C74.32 68.9737 73.8975 67.6449 74.8192 67.1226C76.509 66.1702 76.4322 66.2163 76.317 65.7324C74.9882 60.1484 73.406 50.9082 73.3445 49.6025C73.3445 49.1647 72.4458 50.0403 69.8574 51.0619C68.7206 51.515 68.6745 50.8545 68.736 50.6624C69.2122 49.2031 71.2707 48.0817 72.8068 47.0294C72.5534 45.1629 72.2385 43.5192 72.5534 42.8587C72.7608 42.4055 73.5519 41.7756 73.8975 42.2903C74.489 43.1736 74.7271 46.1845 75.1418 46.0078C76.3093 45.5086 77.1158 45.6161 77.0237 45.0938C76.752 43.9718 76.5798 42.828 76.509 41.6758C76.5157 41.5185 76.5705 41.367 76.666 41.2418C76.7616 41.1167 76.8934 41.0239 77.0434 40.9762C77.1934 40.9284 77.3546 40.9279 77.5049 40.9747C77.6552 41.0215 77.7876 41.1134 77.8839 41.238C78.1297 41.4991 78.1912 41.791 78.8594 43.8341C79.1513 44.7251 79.0361 44.8557 79.6736 44.7251C84.4281 43.7112 86.6555 46.4303 84.766 49.5257ZM77.4692 57.8518C77.5152 58.5661 77.8225 60.0408 78.46 63.528C78.7365 65.0641 78.6136 64.5726 81.3634 62.7599C82.9456 61.7306 86.5403 58.4048 85.4342 56.8993C84.3282 55.3939 80.0192 56.3156 78.3294 57.0146C77.5997 57.3525 77.4308 57.3602 77.4692 57.8518ZM75.8792 48.3582C75.4875 48.4888 75.6027 48.5809 75.9407 50.2093C76.0251 50.6164 76.5014 52.6364 76.6089 53.0282C76.7164 53.4199 76.6627 53.5121 78.6366 51.9144C79.5584 51.1463 83.514 47.7667 82.3849 47.0294C81.1253 46.2152 75.6181 48.3582 75.8792 48.3582Z" fill="#191919"/>
<path d="M67.0848 17.6648C67.538 18.1717 67.2231 17.803 68.8514 28.8098C68.9359 29.3474 69.0127 29.5779 68.7746 29.6547C67.4996 30.008 66.5395 17.6648 67.0848 17.6648Z" fill="#191919"/>
<path d="M58.5971 34.3561C57.8674 34.2946 52.6752 25.9071 52.6752 25.861C52.5139 24.5629 58.3513 32.5895 59.0119 33.8722C59.3652 34.3561 58.528 34.3561 58.5971 34.3561Z" fill="#191919"/>
<path d="M79.5742 28.5182C80.5958 22.0663 83.7449 17.1966 82.9538 19.4855C79.8815 28.2571 80.5343 29.4015 79.8815 29.3478C79.4283 29.3017 79.7048 28.5336 79.5742 28.5182Z" fill="#191919"/>
<path d="M97.0016 26.4444C98.8373 25.8299 90.6955 33.1421 90.2577 32.9348C89.2362 32.4509 91.3254 31.0376 96.0338 27.2893C96.1029 27.2893 96.9171 26.4674 97.0016 26.4444Z" fill="#191919"/>
<path d="M27.4742 53.7575C16.3753 51.2458 12.2968 33.334 20.9839 25.3382C22.6583 23.802 25.8305 22.5039 27.8967 22.0123C42.0987 18.6635 49.6643 39.5017 40.0555 49.8172C40.4319 49.8556 34.364 55.3167 27.4742 53.7575ZM42.4443 31.6211C38.0355 20.5145 28.5649 19.7157 23.0116 26.6516C19.9393 30.492 18.8025 39.0486 23.0731 45.8538C26.6216 51.5223 32.006 52.974 35.9079 51.5607C38.8112 50.5161 41.6839 47.4745 42.8207 44.3791C44.2339 40.7076 44.0035 35.5922 42.4673 31.6211H42.4443Z" fill="#D9B343"/>
<path d="M41.7758 38.2046C41.7758 52.4296 26.6752 54.9105 23.0421 39.3414C19.8085 25.4696 34.2486 16.7749 40.3856 31.1612C41.2995 33.3972 41.7716 35.789 41.7758 38.2046ZM24.8779 28.8646C19.4244 38.4811 28.0654 53.2745 36.2225 48.6352C41.0769 45.8701 42.1983 38.5809 40.5546 33.0968C37.5897 23.3497 29.0793 21.3911 24.8394 28.8646H24.8779Z" fill="#D9B343"/>
<path d="M35.8545 32.8965C34.9558 34.3866 32.9895 35.7231 32.7283 36.1148C37.5827 34.7707 39.3339 37.1057 37.7363 40.0244C37.1208 41.0074 36.3414 41.8777 35.432 42.5975C35.0096 43.1045 36.2001 46.1615 34.8867 46.438C34.3721 46.5378 34.349 46.0847 33.796 43.742C32.375 44.5946 32.2598 44.5101 32.3213 44.848C32.3827 45.186 32.6439 46.6607 32.3213 47.2598C32.2706 47.3509 32.1965 47.4267 32.1067 47.4795C32.0169 47.5323 31.9147 47.5602 31.8105 47.5602C31.7063 47.5602 31.604 47.5323 31.5142 47.4795C31.4244 47.4267 31.3503 47.3509 31.2997 47.2598C31.0743 46.6979 30.8995 46.117 30.7774 45.5239C30.6699 45.2013 30.5854 45.4471 29.5792 45.5931C29.0262 45.6699 28.7496 44.825 29.3487 44.4717C30.4548 43.8418 30.4087 43.8879 30.3242 43.5653C29.4332 39.9015 28.427 33.849 28.381 32.9887C28.381 32.6968 27.7972 33.2652 26.0767 33.9411C25.3086 34.2407 25.3086 33.7952 25.3086 33.6646C25.6389 32.7199 26.96 31.9825 27.9815 31.2836C27.8202 30.0469 27.6205 28.9793 27.8202 28.5568C27.9585 28.265 28.4731 27.8425 28.6959 28.1882C29.0799 28.7489 29.2489 30.7459 29.51 30.6153C30.2781 30.2697 30.7851 30.3542 30.739 30.0162C30.5608 29.2826 30.4477 28.5346 30.401 27.7811C30.4051 27.6772 30.441 27.5772 30.5038 27.4944C30.5666 27.4117 30.6533 27.3502 30.7522 27.3183C30.8511 27.2865 30.9574 27.2858 31.0567 27.3164C31.156 27.3469 31.2435 27.4073 31.3074 27.4892C31.4764 27.6659 31.5071 27.8425 31.9603 29.1867C32.1523 29.7704 32.0755 29.8626 32.4979 29.7704C35.7316 29.0638 37.0911 30.9226 35.8545 32.8965ZM31.0693 38.35C31.0693 38.8185 31.3074 39.7786 31.7221 42.0675C31.9065 43.0661 31.799 42.7511 33.6193 41.5913C34.6562 40.9308 37.0066 38.7417 36.2769 37.7509C35.5472 36.76 32.7283 37.3668 31.6223 37.8277C31.1538 38.0274 31.0539 38.0427 31.0693 38.3346V38.35ZM30.0323 32.1361C29.7789 32.2206 29.825 32.2898 30.0708 33.3344C30.6238 35.7154 30.2244 35.7692 31.8374 34.4558C38.8116 28.7949 29.6483 32.1361 30.0323 32.1361Z" fill="#191919"/>
<path d="M118.07 53.7575C106.972 51.2458 102.901 33.334 111.58 25.3382C113.255 23.802 116.434 22.5039 118.493 22.0123C132.695 18.6635 140.261 39.5017 130.659 49.8172C131.036 49.8556 124.96 55.3167 118.07 53.7575ZM133.041 31.6211C128.624 20.5453 119.161 19.6927 113.592 26.6516C110.52 30.492 109.391 39.0486 113.654 45.8538C117.203 51.5223 122.595 52.974 126.489 51.5607C129.392 50.5161 132.257 47.4745 133.402 44.3791C134.838 40.7 134.638 35.5922 133.041 31.6211Z" fill="#D9B343"/>
<path d="M132.395 38.2046C132.395 52.4296 117.279 54.9105 113.654 39.3414C110.435 25.4696 124.86 16.7749 130.997 31.1612C131.907 33.3985 132.382 35.7892 132.395 38.2046ZM115.436 28.8646C109.959 38.5118 118.639 53.2591 126.773 48.6352C131.635 45.8701 132.748 38.5809 131.105 33.0968C128.186 23.3267 119.668 21.4372 115.436 28.8646Z" fill="#D9B343"/>
<path d="M126.473 32.8963C125.582 34.3941 123.6 35.7229 123.339 36.1146C128.201 34.7705 129.952 37.1055 128.355 40.0242C127.737 41.0056 126.958 41.8756 126.05 42.5973C125.666 43.0581 126.742 46.1689 125.482 46.4377C124.975 46.5299 124.967 46.1766 124.391 43.7418C122.978 44.5943 122.855 44.5098 122.901 44.8478C122.947 45.1858 123.231 46.6605 122.901 47.2596C122.851 47.3512 122.777 47.4275 122.687 47.4805C122.597 47.5335 122.495 47.5612 122.39 47.5607C122.286 47.5605 122.184 47.5325 122.094 47.4796C122.004 47.4267 121.93 47.3507 121.88 47.2596C121.657 46.6973 121.485 46.1164 121.365 45.5237C121.25 45.2011 121.165 45.4392 120.144 45.5928C119.591 45.6697 119.322 44.8248 119.921 44.4714C121.019 43.8416 120.973 43.8877 120.889 43.5651C119.998 39.9013 118.991 33.8488 118.945 32.9885C118.945 32.6966 118.362 33.265 116.641 33.9409C115.873 34.2405 115.873 33.795 115.873 33.6644C116.203 32.7197 117.532 31.9823 118.554 31.2833C118.385 30.0467 118.185 28.9791 118.385 28.5566C118.523 28.2647 119.038 27.8423 119.268 28.1879C119.644 28.7486 119.813 30.7457 120.075 30.6151C120.843 30.2695 121.35 30.3539 121.311 30.016C121.131 29.2825 121.015 28.5346 120.965 27.7808C120.969 27.7045 120.989 27.63 121.025 27.5628C121.061 27.4956 121.113 27.4375 121.175 27.3931C121.237 27.3486 121.308 27.3189 121.383 27.3063C121.459 27.2936 121.536 27.2983 121.609 27.32C121.707 27.3497 121.793 27.4087 121.856 27.489C122.018 27.6656 122.056 27.8423 122.509 29.1864C122.701 29.7702 122.625 29.8624 123.047 29.7702C126.235 29.1173 127.725 30.8609 126.473 32.8963ZM121.687 38.3498C121.726 38.8183 121.918 39.7784 122.333 42.0673C122.517 43.0658 122.417 42.7509 124.23 41.5911C125.274 40.9305 127.633 38.7338 126.91 37.7506C126.043 36.5601 121.626 37.6431 121.687 38.3344V38.3498ZM120.651 32.1359C120.389 32.2204 120.466 32.2818 120.651 33.3341C120.704 33.5953 121.012 34.9241 121.088 35.1852C121.165 35.4464 121.088 35.5078 122.417 34.4171C129.43 28.7947 120.259 32.1359 120.651 32.1359Z" fill="#191919"/>
</svg>
