<svg width="155" height="155" viewBox="0 0 155 155" fill="none" xmlns="http://www.w3.org/2000/svg">
<path d="M10.0478 38.1128C11.0594 37.4984 12.127 36.9861 13.1924 36.4722C17.0198 34.6288 18.1542 34.8162 20.8786 35.9799C22.8342 36.8155 30.2593 39.8971 31.0174 41.845C31.2479 42.4395 31.1903 42.3304 31.2402 50.0006C31.2571 52.5522 30.8938 52.3932 30.6472 53.7058C30.2901 55.6092 30.8646 56.2766 28.6225 57.4403C25.6743 59.1041 22.4503 60.2229 19.1051 60.7431C18.12 61.0336 17.0862 61.1218 16.0661 61.0022C15.0459 60.8826 14.0606 60.5577 13.1693 60.0472C11.7345 59.3682 6.00612 56.0585 5.24263 54.6759C4.78178 53.8364 4.86627 53.5154 4.67425 46.0295C4.50373 39.3034 3.88772 41.8473 10.0478 38.1128Z" fill="#FFC5F6"/>
<path d="M29.5682 38.8592C18.8195 34.3006 18.3702 33.6892 16.3225 34.5426L6.18368 38.7671C5.45685 39.0687 4.83588 39.5793 4.39943 40.2341C3.96297 40.8889 3.73067 41.6585 3.73194 42.4455V53.8631C3.73081 54.6502 3.96344 55.42 4.40034 56.0747C4.83724 56.7294 5.45872 57.2397 6.18599 57.5407C17.291 62.17 16.7856 62.0763 17.8663 62.0763C18.947 62.0763 18.2934 62.2299 29.5467 57.5407C30.2736 57.2394 30.8946 56.729 31.3311 56.0743C31.7676 55.4196 31.9998 54.65 31.9984 53.8631V42.5276C31.9991 41.7449 31.7689 40.9794 31.3366 40.3269C30.9043 39.6744 30.2892 39.1639 29.5682 38.8592ZM16.9416 36.0265C17.2338 35.9049 17.5473 35.8427 17.8638 35.8436C18.1803 35.8445 18.4935 35.9085 18.785 36.0319C29.8777 40.7426 29.0659 40.3739 29.3362 40.5583L17.8679 44.9233L6.39798 40.473C6.67756 40.2871 5.87107 40.6404 16.9416 36.0258V36.0265ZM6.80507 56.0553C6.37214 55.8754 6.00235 55.571 5.74255 55.1808C5.48275 54.7905 5.34463 54.3319 5.3457 53.8631C5.3457 41.6251 5.22818 42.0676 5.62682 41.324L17.331 45.865C17.331 61.9096 17.493 60.5102 16.9538 60.2859L6.80507 56.0553ZM30.3854 53.8631C30.3863 54.3319 30.2481 54.7904 29.9883 55.1806C29.7285 55.5708 29.3589 55.8752 28.9261 56.0553L18.7804 60.2859C18.2427 60.5109 18.4025 61.9165 18.4025 45.8673L30.1089 41.4124C30.496 42.1359 30.3885 41.6505 30.3885 53.8631H30.3854Z" fill="black"/>
<path d="M44.2492 61.6809C43.3275 60.5287 39.5907 58.6815 36.937 57.8888C34.9015 57.2813 34.8939 57.9794 33.6342 58.491C34.5943 56.0078 32.8976 52.4576 30.8898 50.5797C28.2745 48.1371 28.604 47.0756 26.8957 47.4021C26.671 47.4751 26.4643 47.595 26.2894 47.7539C26.1145 47.9128 25.9753 48.1071 25.8811 48.3238C24.9348 49.9813 27.9066 52.0436 28.4235 53.334C28.5396 53.6204 28.5742 53.9333 28.5233 54.2381C28.4725 54.5428 28.3382 54.8276 28.1354 55.0607C27.2905 55.669 26.0508 55.043 25.4517 54.3863C24.8526 53.7296 24.4855 52.9208 23.9202 52.2503C22.5975 50.6818 20.943 51.1035 20.3017 52.3194C19.9691 52.9515 20.5482 54.0468 20.9438 54.639C23.3249 58.2068 23.6521 58.7575 24.3234 59.4573C25.8596 61.0656 28.0748 61.6417 29.0856 61.4543C29.6395 61.292 30.1704 61.0597 30.6655 60.763C30.8529 60.9166 31.0473 61.0618 31.2477 61.1985C31.0111 61.7196 30.8805 62.2825 30.8637 62.8545C31.0818 66.0452 36.9623 69.0261 38.9747 70.1514C40.3665 70.931 41.5271 68.8786 41.0033 67.9946C40.5677 67.2595 38.1337 66.9961 36.5222 65.3001C35.5537 64.2809 35.6581 63.3131 36.1535 62.8422C36.51 62.5981 36.9122 62.4285 37.3359 62.3436C37.7596 62.2587 38.1961 62.2603 38.6191 62.3483C39.6997 62.7634 40.7146 63.3325 41.6323 64.0381C42.5824 64.7448 43.1478 64.9598 44.0134 64.0527C44.727 63.3123 44.9405 62.5488 44.2492 61.6809Z" fill="#FDFE1F"/>
<path d="M44.9817 62.4412C44.9715 62.1539 44.875 61.8764 44.7046 61.6448C44.5343 61.4132 44.2981 61.2384 44.0269 61.1431C41.9984 59.0017 37.9291 56.3595 34.733 57.0292C35.3713 53.5821 31.08 49.79 28.7819 47.8229C28.5284 47.6078 28.6728 47.4765 28.1275 47.1992C26.8048 46.5279 25.1496 47.839 25.506 49.1425C25.9561 50.9091 27.9738 52.7479 28.0706 54.112C28.119 54.8379 27.7595 55.0768 27.1205 54.8993C25.6911 54.4968 23.6733 51.5197 22.8745 51.1564C21.0987 50.3576 19.233 52.2317 20.2891 53.8755C20.5449 54.2511 21.9198 58.1975 25.1281 60.6293C26.6397 61.7507 28.3878 62.4804 30.1299 61.7876C30.0388 62.675 30.1709 63.5711 30.514 64.3945C30.8571 65.2179 31.4004 65.9427 32.0946 66.5029C33.5786 67.8217 37.6341 69.8671 38.7386 70.2865C38.9253 70.692 39.8608 70.9985 40.8893 69.6989C41.9024 68.4208 41.1842 67.5098 40.7549 67.4576C39.9983 66.7725 37.1095 65.0489 36.5611 63.9766C36.2331 63.313 36.7147 62.8199 37.3922 62.7031C38.6388 62.4804 41.0022 64.1525 42.3594 64.6579C43.1943 65.7686 45.1276 64.0619 44.9817 62.4412ZM21.0065 54.2226C20.8475 53.6927 20.3567 52.8831 21.1325 52.1304C21.4014 51.9037 21.7255 51.7521 22.0718 51.6908C22.4182 51.6296 22.7746 51.6609 23.1049 51.7817C23.4352 53.3716 25.8163 56.6836 27.9216 56.255C27.3394 57.8496 28.1966 59.418 29.381 60.6331C25.8708 61.6393 21.7692 55.1444 21.0065 54.2196V54.2226ZM36.5596 65.8285C39.817 68.1827 40.6688 67.3954 40.7526 68.102C40.7902 68.4231 40.6412 68.7165 40.2602 69.1981C39.2241 70.51 39.0589 70.0261 38.8008 69.8556C35.7876 67.37 31.1868 65.6749 31.4272 62.263C32.5339 62.974 33.8464 63.2949 35.1563 63.1747C34.9558 64.3031 35.6586 65.1441 36.5596 65.8285ZM42.5921 64.3937C42.0076 63.5073 39.1703 61.2514 37.3461 61.3874C37.4115 61.137 37.4178 60.8748 37.3645 60.6215C37.3112 60.3682 37.1997 60.1308 37.0388 59.928C36.7631 59.6285 36.2254 59.1653 36.631 60.1892C36.7115 60.4223 36.7274 60.6729 36.6768 60.9144C36.6262 61.1558 36.5111 61.379 36.3437 61.5602C34.5333 63.6563 27.8502 59.3212 28.8479 56.3203C29.2711 54.9339 30.3795 55.1052 30.4386 54.9454C30.5039 54.8379 29.9778 54.546 29.348 54.7526C29.4689 53.9625 29.2799 53.1561 28.8203 52.5021C28.0465 51.3795 27.1117 50.3769 26.0459 49.5265C26.0186 49.2433 26.0648 48.9579 26.1801 48.6978C26.2955 48.4377 26.476 48.2117 26.7042 48.0418C27.1182 47.7734 27.6192 47.6736 28.1044 47.763C29.4102 49.7401 33.4158 53.1734 33.4734 56.2619C33.4928 56.5345 33.4549 56.8082 33.3623 57.0653C33.2698 57.3225 33.1244 57.5574 32.9357 57.7551C32.5102 57.0866 32.1234 56.3942 31.7774 55.6812C31.2912 54.9669 30.6837 54.8709 30.6253 55.0284C30.5485 55.182 30.8281 55.4892 30.9886 56.0768C31.1352 57.0606 31.5396 57.9882 32.1607 58.7651C32.4983 59.2048 32.9506 59.5428 33.4678 59.742C33.9851 59.9412 34.5472 59.9939 35.0925 59.8942C35.8829 59.6822 36.6072 59.5831 35.9374 59.2098C35.3744 58.8773 34.753 59.1891 34.0894 58.7636C33.9903 58.7037 34.0064 58.7244 34.0456 58.6653C37.396 57.0108 41.7941 60.4657 43.9709 61.5894C44.7597 62.6417 43.5238 64.661 42.5921 64.3968V64.3937Z" fill="black"/>
<path d="M129.267 38.0605C130.278 37.446 131.345 36.933 132.411 36.4199C136.239 34.5765 137.374 34.7631 140.098 35.9268C142.053 36.7624 149.478 39.844 150.236 41.7919C150.467 42.3864 150.409 42.2773 150.459 49.9475C150.476 52.4991 150.113 52.3401 149.866 53.6527C149.509 55.5561 150.083 56.2236 147.841 57.3872C144.893 59.0507 141.669 60.1695 138.324 60.69C137.339 60.9805 136.305 61.0686 135.285 60.949C134.265 60.8294 133.279 60.5046 132.388 59.9941C130.953 59.3151 125.225 56.0054 124.462 54.6228C124.001 53.7833 124.086 53.463 123.894 45.9765C123.723 39.2526 123.107 41.7942 129.267 38.0605Z" fill="#FFC5F6"/>
<path d="M148.852 38.8592C138.066 34.2844 137.638 33.6945 135.605 34.5425L125.467 38.767C124.74 39.0686 124.119 39.5791 123.683 40.234C123.246 40.8888 123.014 41.6585 123.016 42.4454V53.863C123.014 54.6498 123.246 55.4194 123.682 56.0741C124.119 56.7289 124.74 57.2393 125.467 57.5406C136.572 62.1707 136.066 62.0762 137.147 62.0762C138.278 62.0762 138.069 62.0263 148.827 57.5406C149.554 57.2391 150.175 56.7287 150.611 56.074C151.048 55.4193 151.28 54.6499 151.279 53.863V42.5276C151.28 41.7452 151.05 40.9801 150.618 40.3276C150.187 39.6752 149.572 39.1644 148.852 38.8592ZM136.224 36.0264C136.517 35.9054 136.83 35.8435 137.147 35.8444C137.463 35.8453 137.776 35.909 138.068 36.0318C149.164 40.7371 148.35 40.3715 148.621 40.5528L137.152 44.9209L125.682 40.4706C125.955 40.2901 125.064 40.6803 136.224 36.0264ZM126.086 56.0529C125.653 55.8732 125.283 55.5689 125.023 55.1786C124.763 54.7883 124.625 54.3296 124.626 53.8607C124.626 41.5951 124.513 42.0582 124.907 41.3217L136.612 45.8626C136.612 61.9072 136.774 60.5078 136.234 60.2835L126.086 56.0529ZM149.666 53.8607C149.667 54.3296 149.529 54.7883 149.27 55.1786C149.01 55.5689 148.64 55.8732 148.207 56.0529L138.06 60.2835C137.523 60.5085 137.683 61.9141 137.683 45.8649L149.389 41.41C149.78 42.1358 149.671 41.6512 149.671 53.863L149.666 53.8607Z" fill="black"/>
<path d="M134.869 51.0572C134.702 50.5495 133.763 49.3674 133.046 49.3674C131.587 49.3582 130.165 53.227 128.342 53.3484C128.086 53.3727 127.828 53.3203 127.602 53.1979C127.376 53.0755 127.191 52.8886 127.071 52.661C126.424 51.22 129.906 47.9756 129.529 46.908C129.212 46.4667 128.826 46.0793 128.386 45.7604C127.7 45.4056 127.023 45.9578 126.498 46.4571C120.575 52.088 121.564 50.9397 121.153 53.8599C121.014 54.4606 121.042 55.0878 121.235 55.6734C119.865 55.5137 118.477 55.6024 117.138 55.9353C116.4 56.1995 115.997 56.493 113.053 58.3801C112.324 58.8487 110.94 59.2903 110.683 60.4394C110.486 61.3166 111.151 62.8973 112.079 62.8143C112.842 62.7467 112.583 62.0693 115.919 60.9033C116.506 60.6486 117.142 60.5284 117.782 60.5515C118.101 60.5714 118.405 60.6946 118.647 60.9024C118.89 61.1103 119.059 61.3916 119.127 61.7037C119.223 62.5524 117.379 64.9527 115.74 65.3314C115.223 65.4512 114.581 65.485 114.338 65.9543C114.115 66.3913 114.399 66.9067 114.675 67.313C115.507 68.542 116.05 68.4252 116.694 68.0281C121.939 64.8021 122.301 64.6424 122.839 64.0179C123.483 63.2744 124.529 60.9156 124.366 59.5983C124.526 59.4094 124.711 59.2435 124.915 59.1045C126.132 58.4677 127.4 60.7827 130.875 57.5944C131.854 56.6957 132.62 55.509 134.123 53.3914C134.618 52.694 135.134 51.8629 134.869 51.0572Z" fill="#FDFE1F"/>
<path d="M135.372 50.9222C135.334 50.4487 135.129 50.0041 134.793 49.668C134.458 49.3319 134.013 49.1263 133.54 49.088C133.212 49.047 132.88 49.0924 132.575 49.2196C132.27 49.3468 132.004 49.5514 131.803 49.8131C131.102 50.5243 128.388 53.8263 127.507 52.9576C125.817 51.6811 131.941 47.4082 129.11 45.4887C128.063 44.7621 126.738 45.3466 126.695 45.829C124.156 47.952 120.741 51.0313 120.568 54.331C120.515 55.2949 120.849 55.159 120.295 55.0791C117.118 54.6605 113.228 57.2451 111.328 59.2498C111.122 59.3069 110.935 59.4208 110.791 59.5786C109.337 61.1063 111.926 64.1871 112.992 62.7661C114.338 62.2592 116.72 60.5894 117.958 60.8114C118.649 60.9312 119.11 61.4297 118.789 62.0848C118.243 63.1525 115.342 64.8907 114.595 65.5658C114.127 65.6227 113.454 66.5352 114.46 67.8071C115.527 69.1505 116.448 68.7611 116.61 68.3955C118.967 67.4003 121.197 66.1298 123.254 64.6103C123.949 64.0501 124.492 63.3253 124.836 62.5017C125.179 61.6781 125.311 60.7818 125.22 59.8943C126.96 60.5855 128.709 59.8597 130.222 58.7367C132.437 57.0585 133.452 55.2089 134.69 52.7211C135.216 51.6511 135.397 51.5098 135.372 50.9222ZM112.763 62.5042C111.834 62.7669 110.595 60.7422 111.386 59.6976C113.728 58.4886 117.978 55.1221 121.311 56.7743C121.35 56.8319 121.366 56.8119 121.267 56.8726C120.594 57.2889 119.98 56.9863 119.419 57.3181C119.203 57.4387 119.136 57.5669 119.167 57.643C119.199 57.719 119.332 57.7528 119.508 57.7966C120.227 58.1076 121.035 58.1442 121.779 57.8995C123.939 56.9271 124.16 54.8525 124.367 54.1889C124.527 53.6021 124.808 53.2979 124.731 53.142C124.675 52.983 124.067 53.0805 123.578 53.7941C123.231 54.5063 122.844 55.1986 122.42 55.8679C122.367 55.8344 122.312 55.8019 122.257 55.7704C120.539 52.7671 125.496 48.2538 126.951 46.2945C127.314 45.8098 127.193 45.8789 127.392 45.8566C127.606 45.819 127.824 45.8245 128.036 45.8728C128.247 45.9212 128.447 46.0114 128.623 46.1381C128.799 46.2648 128.947 46.4255 129.06 46.6107C129.173 46.7958 129.247 47.0017 129.279 47.2162C129.345 47.8114 129.439 47.4189 128.033 48.7923C127.143 49.7048 126.124 50.8431 125.973 52.1081C125.876 53.155 126.266 52.8201 125.651 52.7994C125.109 52.7702 124.883 53.0053 124.916 53.0606C124.95 53.1558 125.197 53.1235 125.541 53.2702C126.444 53.6497 127.097 55.126 126.127 56.6575C125.304 57.9832 123.092 59.8651 121.117 60.1669C119.13 60.5164 118.341 59.1815 118.723 58.3051C118.859 57.961 119.074 57.8004 119.024 57.7159C118.942 57.4932 117.687 58.0723 118.007 59.5056C116.215 59.3635 113.346 61.6178 112.763 62.5042ZM116.275 68.2188C115.753 68.195 115.454 67.7626 115.096 67.3086C114.552 66.6173 114.533 66.3524 114.668 65.913C115.789 65.8132 120.637 63.7823 120.205 61.2853C121.515 61.4053 122.827 61.0845 123.933 60.3735C124.191 64.075 118.337 66.1035 116.275 68.2188H116.275ZM125.974 58.7383C127.161 57.5201 128.013 55.9501 127.434 54.3602C129.056 54.6897 130.583 52.9669 131.47 51.5758C132.609 49.7655 131.88 49.9206 132.646 49.8092C134.082 49.5857 134.939 50.6726 134.554 51.7356C133.978 53.4661 129.217 59.6723 125.974 58.7383Z" fill="black"/>
<path d="M58.5874 106.241C58.4899 105.283 58.1573 104.358 58.0828 103.399C58.0221 102.622 58.1319 101.841 58.135 101.062C58.1481 97.4731 55.8054 95.2572 53.3821 95.4054C53.0188 93.4706 52.5433 91.3484 50.9595 90.1786C50.286 89.6479 49.4958 89.2854 48.6543 89.1211C47.8127 88.9568 46.9442 88.9955 46.1205 89.2338C45.8801 85.7951 43.6442 82.2204 40.0872 82.7389C35.2482 83.4447 25.9689 95.609 24.0272 99.4832C22.3105 102.91 21.5132 107.014 22.5279 110.641C20.8611 108.089 17.4785 110.935 17.4186 116.348C17.3753 116.918 17.451 117.49 17.6407 118.029C17.8305 118.568 18.1301 119.062 18.5208 119.479C19.7176 121.192 21.036 122.818 22.4657 124.342C24.0564 125.853 28.9222 129.158 32.2465 130.141C37.1953 131.604 41.0527 129.631 41.7901 127.889C42.0205 127.343 42.0205 126.954 42.2509 124.313C42.3392 123.285 42.2801 122.3 41.2977 121.981C48.3841 120.188 50.5225 113.35 50.6753 113.184C51.5176 112.432 52.5453 111.918 53.6524 111.694C56.8016 111.536 58.9054 109.379 58.5874 106.241ZM27.0082 117.087C28.5887 118.443 30.2738 119.672 32.0476 120.763C30.1477 119.872 28.4368 118.624 27.0082 117.087ZM33.295 121.388C35.1012 122.162 37.067 122.49 39.0265 122.344C36.8843 123.224 35.6469 122.541 33.295 121.39V121.388Z" fill="white"/>
<path d="M58.1725 102.527C60.0997 99.8541 57.9352 94.979 54.9988 94.7248C54.8513 91.3682 50.6975 87.772 46.9085 88.6161C46.8915 86.8685 46.2044 85.1941 44.9888 83.9383C43.7732 82.6826 42.122 81.9414 40.3759 81.8677C37.7321 81.7686 35.9125 83.45 34.2242 85.4831C28.515 92.5257 19.8248 100.119 21.3441 109.063C16.7356 110.007 13.8514 116.797 20.2834 123.311C24.5747 127.522 33.4723 133.586 39.1016 131.257C40.0954 130.855 40.9881 130.238 41.7155 129.451C42.443 128.664 42.9872 127.725 43.3092 126.703C43.7173 125.28 43.575 123.755 42.9106 122.432C46.8969 120.778 49.6805 116.763 51.7513 112.949C53.9411 112.288 56.399 112.304 58.1487 110.312C60.072 108.173 59.9353 104.847 58.1725 102.527ZM54.3589 97.6189C54.5901 97.1519 54.763 96.6588 54.8736 96.1496C56.134 96.8047 57.4851 99.3817 57.1195 101.413C56.0154 100.478 54.7051 99.8203 53.2967 99.4923C52.6983 99.3371 53.3374 99.6613 54.3589 97.6189ZM53.1707 95.042C53.1132 96.6167 52.4462 98.1074 51.3104 99.1996C49.41 99.0864 47.5043 99.3021 45.6772 99.8372C37.9879 102.087 41.5549 103.506 38.6623 100.483C42.5196 97.5321 46.3746 94.1441 46.8662 90.0018C49.8887 89.6154 53.1031 92.644 53.1707 95.042ZM41.8867 126.282C41.5964 127.053 41.1453 127.754 40.5634 128.337C39.9815 128.92 39.2821 129.373 38.5117 129.666C33.7304 131.529 25.1976 125.483 21.5661 122.004C16.0405 116.563 18.198 111.258 21.6206 110.306C23.64 117.665 33.526 125.291 41.71 122.858C42.2063 123.934 42.2696 125.16 41.8867 126.282ZM56.8376 109.184C54.978 111.421 50.6084 110.454 45.2717 115.17C44.2954 116.036 43.8676 116.625 43.9482 116.714C44.1572 116.949 46.2379 115.09 49.9033 113.61C47.2718 117.618 44.7478 120.835 40.1593 121.588C32.516 122.713 23.007 114.551 23.0385 107.042C23.0178 100.528 29.1917 94.2493 33.4247 89.2874C36.1729 86.1045 38.5755 81.678 42.8952 84.3893C45.4299 85.9478 46.3823 90.031 43.7708 93.651C41.9962 95.8599 39.9757 97.8593 37.7482 99.6106C34.0929 96.3746 30.0673 96.6872 30.0604 97.1757C30.0489 97.9308 33.8671 97.2671 38.812 102.975C37.9487 103.506 32.0974 107.556 32.4131 107.997C32.5982 108.258 35.861 106.119 38.9119 104.478C54.7883 95.9452 60.0205 105.356 56.8376 109.184Z" fill="black"/>
<path d="M33.9897 93.8117C34.1157 96.7427 34.4298 99.9925 36.6012 101.96C38.4231 103.609 41.0561 103.891 43.3896 104.649C49.1987 106.534 48.8553 109.052 71.9687 117.141C77.0665 118.925 77.9821 118.401 81.5353 116.814C86.5371 114.578 91.2554 112.836 95.9753 110.054C98.3487 108.655 101.342 107.782 103.764 106.468C107.869 104.241 112.767 103.758 116.789 101.382C118.172 100.566 118.584 99.2313 119.044 97.6951C119.332 96.4969 119.341 95.248 119.07 94.0452C118.053 87.6362 119.589 81.2311 119.025 74.7661C118.376 67.3157 120.394 59.8498 118.926 52.5184C118.594 51.658 118.048 50.8966 117.34 50.3063C116.577 49.5858 115.396 49.5781 114.453 49.1173C113.604 48.8042 112.796 48.3916 112.044 47.8883C109.468 45.7746 102.827 45.4212 89.1148 38.6344C86.4349 37.3079 81.0498 35.1703 78.0881 34.7479C73.4503 34.0858 71.7452 36.0029 67.4569 37.8894C58.0924 42.0079 52.1796 44.5771 47.0311 47.0066C41.7689 49.489 35.7763 49.3708 34.8553 54.1045C34.6003 55.4103 33.9989 67.2273 33.9106 69.6453C33.6176 77.6986 33.644 85.7604 33.9897 93.8117Z" fill="#FFC5F6"/>
<path d="M64.4241 60.4688C64.975 60.9417 65.6046 61.3143 66.2844 61.5695C66.9342 61.7907 66.9465 60.2714 66.9849 59.8797C67.0471 59.2368 67.2153 58.7153 66.9411 58.6922C66.2498 58.6316 65.8957 59.1124 65.3895 59.4757C65.1353 59.6546 64.2674 60.0725 64.4241 60.4688Z" fill="#92FCFF"/>
<path d="M82.5105 107.498C80.9167 107.671 80.5711 108.201 80.4997 109.227C80.3975 110.686 80.8476 112.275 81.1211 112.496C81.2218 112.553 81.334 112.587 81.4496 112.595C81.5651 112.603 81.6809 112.585 81.7885 112.542C86.5737 111.385 86.4585 111.205 86.4593 109.905C86.4593 109.376 86.4524 107.412 86.1014 107.012C85.4047 106.217 82.645 107.224 81.6787 107.78L82.5105 107.498Z" fill="#92FCFF"/>
<path d="M109.254 61.4074H109.322C109.231 60.6447 110.443 60.4742 110.756 60.3858C110.897 60.3459 114.174 58.8888 114.76 59.4057C115.121 59.723 114.794 60.6178 114.837 61.5226C114.956 63.9236 118.476 67.1696 112.929 68.589C111.103 69.056 109.794 69.6451 110.117 68.2211C110.629 65.9668 107.924 64.9721 109.254 61.4081V61.4074Z" fill="#92FCFF"/>
<path d="M120.141 53.9463C120.184 52.935 119.914 51.935 119.368 51.0828C118.822 50.2306 118.026 49.5675 117.09 49.1841L79.1084 34.0742C76.4516 33.0173 78.1621 32.9221 36.8911 49.7932C35.9428 50.1638 35.1235 50.8035 34.534 51.6336C33.9445 52.4637 33.6104 53.448 33.5729 54.4655V98.2236C33.5325 99.2179 33.7936 100.201 34.322 101.045C34.8505 101.888 35.6215 102.552 36.5339 102.949L74.5167 118.911C75.1482 119.174 75.8261 119.308 76.5103 119.305C77.1944 119.302 77.871 119.161 78.5 118.892L116.911 102.337C117.835 101.953 118.63 101.313 119.202 100.491C119.774 99.6701 120.098 98.7021 120.137 97.702L120.141 53.9463ZM118.246 85.3105L106.025 90.5557V76.4805L118.246 71.1914V85.3105ZM90.5591 97.222V83.146L104.714 77.0427C105.035 77.1679 104.952 74.4773 104.952 91.0158L90.5591 97.222ZM104.952 92.1872V105.447L90.5591 111.651V98.391L104.952 92.1872ZM76.5092 103.279C62.5053 97.3971 63.9048 98.2182 63.9048 97.4578L76.831 92.1741L89.4492 97.1936C89.5052 97.0545 89.486 96.9923 89.486 97.6852L76.5092 103.279ZM77.2926 46.3798L89.8893 52.069C86.9636 53.4416 83.3743 55.1414 77.6943 57.8405C76.5168 58.3989 78.8211 59.0656 63.904 52.2749L77.2926 46.3798ZM62.5975 51.6796C58.5808 49.8517 54.556 48.0419 50.5231 46.25L64.0822 40.7075L75.7964 45.8667L62.5975 51.6796ZM78.3564 45.6824L89.9961 40.4271L103.546 45.816C97.8544 48.3868 94.931 49.7141 91.1751 51.4692L78.3564 45.6824ZM104.952 75.7738C104.588 75.9275 106.124 76.4513 91.5668 70.6599V52.8249L104.952 58.8689V75.7738ZM89.486 96.0514L77.3648 91.2294V77.7878L89.486 82.6091V96.0514ZM63.9271 66.1182C64.3826 65.0813 62.8963 66.4216 74.39 60.6425C75.1581 60.2584 75.8017 59.9197 76.3179 59.667V76.5289C76.3179 76.7032 77.2834 76.2362 63.9048 81.705C63.9048 65.433 63.8503 66.0844 63.9271 66.1182ZM77.3925 76.0265V59.1601C80.7959 57.5471 87.1134 54.5577 90.4938 52.9716V70.6676L77.3925 76.0265ZM77.3648 76.5988L77.3817 76.6418L77.3648 76.6349V76.5988ZM63.9048 82.8641L76.2918 77.8008V91.2355L63.9048 96.298V82.8641ZM90.6689 81.9309L78.0453 76.9099L91.0299 71.6023L103.301 76.4843L90.6689 81.9309ZM91.5361 52.811C90.6912 52.811 90.6827 52.8832 91.1797 52.6505L91.5361 52.811ZM75.6205 58.8275C73.2717 59.9858 68.6862 62.3745 63.4009 64.7141L49.5315 58.6086L62.5891 52.8571C68.4588 55.5231 73.519 57.8566 75.6205 58.8275ZM62.8318 65.6358V82.288L48.7335 76.363V59.4266L62.8318 65.6358ZM47.6605 75.9121L35.4932 70.7982C35.6191 52.9639 35.57 54.2466 35.7121 53.692L47.6605 58.9542V75.9121ZM35.4332 71.9587L47.6605 77.0758V91.1564L35.4332 85.9971V71.9587ZM48.7335 77.5266L62.8318 83.4517C62.8318 97.9478 62.8003 96.9224 62.8318 96.9992C62.8318 97.7627 64.9594 98.4271 48.7335 91.6073V77.5266ZM62.8318 98.696V111.962L48.7335 106.038V92.7717L62.8318 98.696ZM118.304 70.0193L106.025 75.3115V58.6677L118.32 53.1167C118.465 53.6928 118.428 52.4731 118.304 70.0193ZM117.887 52.1351C104.048 58.3835 105.4 57.6653 105.528 57.9518L92.4616 52.0514C96.0309 50.39 99.0634 49.0159 104.928 46.3675C117.557 51.3885 117.147 51.0191 117.887 52.1351ZM76.0137 35.8309C77.6267 35.1726 77.7496 35.5551 88.6104 39.8756L76.8809 45.1754L65.4625 40.1429L76.0137 35.8309ZM49.1452 46.8145C53.199 48.6106 57.2443 50.4259 61.281 52.2603L48.2012 58.021L36.1499 52.7127C36.8803 51.6259 36.4517 52.003 49.1452 46.8138V46.8145ZM35.3395 98.2366V87.1577L47.6635 92.3208V105.587L37.2598 101.218C36.6785 100.969 36.1849 100.553 35.8426 100.021C35.5004 99.4902 35.3251 98.8685 35.3395 98.2366ZM63.9048 112.413V99.1476L76.0337 104.265V117.389C75.483 117.302 76.2695 117.61 63.9048 112.413ZM77.1075 117.379V104.168L89.4899 98.8565V112.114C76.7265 117.612 77.6306 117.285 77.1075 117.379ZM116.169 100.612L106.025 104.984V91.7248L118.148 86.4826V97.6882C118.136 98.3146 117.942 98.9241 117.591 99.443C117.24 99.9619 116.746 100.368 116.169 100.612Z" fill="black"/>
<path d="M86.7053 107.928C86.7276 107.478 86.6129 107.032 86.3765 106.649C86.2307 106.481 86.0399 106.358 85.8266 106.295C85.6133 106.232 85.3865 106.232 85.1729 106.294C85.3734 103.375 80.6005 103.764 81.0706 107.517C79.7794 108.168 79.9883 109.874 80.1396 111.4C80.1401 111.716 80.2356 112.024 80.4138 112.284C80.5919 112.544 80.8443 112.745 81.1381 112.859C81.8673 112.972 82.6136 112.856 83.2734 112.525C86.2375 111.494 86.9948 111.647 86.7053 107.928ZM81.9546 106.356C82.3387 105.358 84.3457 104.524 84.4571 106.491C81.2249 107.429 82.3417 107.097 81.7488 107.259C81.7764 106.951 81.8456 106.646 81.9546 106.356ZM83.03 111.703C82.1129 111.968 81.4684 112.246 81.1865 111.776C81.0329 111.524 80.6696 108.898 81.417 108.396C81.5598 108.306 84.9294 107.244 85.0723 107.202C85.8611 106.9 85.8504 107.188 85.961 108.006C86.398 111.2 85.8796 110.833 83.033 111.703H83.03Z" fill="black"/>
<path d="M83.6078 108.699C82.9813 108.682 83.0857 110.678 83.7084 110.595C84.331 110.512 84.2358 108.716 83.6078 108.699Z" fill="black"/>
<path d="M67.3289 58.3015C66.9617 58.0442 66.4264 58.3836 65.7996 58.7531C64.2919 56.2898 63.4301 53.9986 62.5882 56.7054C62.44 57.1801 61.9868 58.27 62.0268 58.3468C62.0337 58.3591 62.0221 58.376 62.0014 58.3652C58.1118 55.4173 57.2131 55.3213 61.4415 59.0527C61.6396 59.1832 61.7833 59.4613 62.2096 59.4283C62.357 59.4126 62.4962 59.353 62.6093 59.2571C62.7223 59.1612 62.8038 59.0335 62.8432 58.8906C63.1858 57.6463 63.1658 58.005 63.5276 56.8628L65.0246 59.3C63.2058 60.5735 63.8348 60.9429 65.5623 61.6757C67.0255 62.3055 67.1522 62.4776 67.5739 59.4206C67.6161 59.1164 67.693 58.5557 67.3289 58.3015ZM66.4579 61.0927C66.431 61.211 66.5155 61.2463 66.0523 61.0159C65.9755 60.9775 64.9063 60.4836 64.8295 60.4575C65.4384 59.946 66.0983 59.4987 66.7989 59.1225C66.7766 59.376 66.646 60.2417 66.4579 61.0919V61.0927Z" fill="black"/>
<path d="M116.194 64.8562C116.04 63.4998 114.955 62.9798 114.956 60.3583C114.952 58.8221 115.417 58.4066 112.072 59.6194C110.147 60.3222 109.28 60.5972 108.952 62.1057C108.419 64.4929 109.815 65.8947 109.994 66.8125C110.424 68.8864 108.408 70.4748 112.899 68.9379C114.96 68.2435 116.419 67.0338 116.194 64.8562ZM115.218 67.2795C114.317 67.4456 113.435 67.7029 112.585 68.0476C109.461 69.1161 110.214 69.6307 110.687 68.2013C111.154 66.652 110.678 65.9684 110.208 64.9684C109.702 63.7146 109.505 62.3579 109.631 61.0119C110.256 61.2777 113.387 60.3975 114.619 59.3598C114.322 60.0203 114.174 60.7384 114.186 61.4626C114.198 62.1869 114.37 62.8996 114.69 63.5497C115.605 65.4308 115.472 65.0121 115.221 67.2795H115.218Z" fill="black"/>
<path d="M113.524 62.052C113.409 61.7164 110.447 62.7356 110.562 63.0713C110.678 63.4069 113.639 62.3877 113.524 62.052Z" fill="black"/>
<path d="M113.865 63.6425C113.754 63.3061 110.988 64.2194 111.1 64.5558C111.212 64.8922 113.977 63.9797 113.865 63.6425Z" fill="black"/>
<path d="M112.917 65.1942C111.358 65.6804 110.636 66.4654 113.077 65.7065C115.501 64.9476 114.48 64.7049 112.917 65.1942Z" fill="black"/>
<path d="M70.5538 7.49742C71.5654 6.88295 72.6322 6.36986 73.6976 5.85678C77.5258 4.01336 78.661 4.20001 81.3846 5.36443C83.3402 6.19935 90.7653 9.28169 91.5234 11.2288C91.7539 11.8233 91.6962 11.715 91.7462 19.3844C91.7623 21.9367 91.3998 21.777 91.1532 23.0896C90.796 24.993 91.3698 25.6604 89.1285 26.8241C86.1801 28.4875 82.9561 29.6063 79.6111 30.1269C78.6259 30.4172 77.5921 30.5051 76.572 30.3854C75.5519 30.2656 74.5666 29.9407 73.6753 29.4302C72.2405 28.7512 66.5121 25.4415 65.7486 24.0597C65.2878 23.2195 65.373 22.8992 65.181 15.4126C65.0097 8.68719 64.3937 11.2319 70.5538 7.49742Z" fill="#FFC5F6"/>
<path d="M90.119 8.57137C79.3696 4.01429 78.9202 3.40212 76.8725 4.2547L66.7337 8.4792C66.0068 8.78092 65.3859 9.29163 64.9496 9.9466C64.5132 10.6016 64.2811 11.3713 64.2827 12.1583V23.576C64.2814 24.3628 64.5137 25.1322 64.95 25.7869C65.3863 26.4415 66.0071 26.952 66.7337 27.2536C77.8165 31.8745 77.3333 31.7892 78.414 31.7892C79.4947 31.7892 78.9271 31.909 90.0944 27.2536C90.8212 26.9522 91.4422 26.4418 91.8787 25.7871C92.3152 25.1324 92.5475 24.3629 92.5461 23.576V12.2405C92.5469 11.4581 92.3171 10.6928 91.8854 10.0402C91.4537 9.38766 90.8393 8.87676 90.119 8.57137ZM77.4923 5.74096C77.7847 5.61999 78.0982 5.55825 78.4147 5.5593C78.7311 5.56036 79.0442 5.62419 79.3358 5.7471C90.4124 10.4517 89.6213 10.0868 89.8893 10.2673L78.4187 14.6354L66.948 10.1859C67.2253 10.0016 66.395 10.3672 77.4923 5.74096ZM67.3535 25.7681C66.9207 25.5882 66.5509 25.2838 66.2912 24.8936C66.0314 24.5033 65.8932 24.0448 65.8942 23.576C65.8942 11.3096 65.7813 11.7735 66.1753 11.0369L77.8802 15.5779C77.8802 31.6156 78.0423 30.2231 77.5023 29.9988L67.3535 25.7681ZM90.9339 23.576C90.9353 24.0449 90.7973 24.5036 90.5375 24.8939C90.2776 25.2842 89.9077 25.5885 89.4745 25.7681L79.3281 29.9988C78.7904 30.2238 78.9502 31.6294 78.9502 15.5802L90.6566 11.1253C91.0468 11.8473 90.9385 11.3634 90.9385 23.576H90.9339Z" fill="black"/>
<path d="M148.551 110.964C147.933 109.237 146.415 108.016 144.967 106.889C144.47 106.393 143.801 106.108 143.098 106.095C142.83 108.022 143.354 104.958 141.414 99.8851C140.646 97.8789 139.195 94.8695 137.522 93.3472C137.21 93.063 133.424 89.688 130.86 87.575C126.507 83.988 121.853 80.2635 116.273 79.444C114.999 79.2129 113.689 79.2756 112.443 79.6275C108.814 80.7927 109.541 83.6984 108.795 85.3191C108.379 86.0239 107.915 86.6994 107.407 87.3407C105.183 90.8294 107.475 95.8772 112.661 96.9725C111.958 98.8928 108.615 96.6653 108.757 101.625C108.944 108.137 110.677 107.882 112.927 110.506C114.011 111.771 114.656 113.348 115.573 114.731C117.485 117.629 122.431 121.477 124.022 122.094C127.454 123.424 131.826 121.389 134.929 119.908C131.739 122.26 130.134 121.578 127.885 122.791C126.56 123.506 126.029 124.093 127.454 126.248C134.67 137.173 151.07 118.003 148.551 110.964Z" fill="white"/>
<path d="M149.401 112.746C149.17 109.438 147.071 106.217 143.908 105.419C144.173 89.392 115.379 72.58 109.447 80.2855C108.948 80.9687 108.614 81.7576 108.469 82.5911C108.324 83.4245 108.374 84.2801 108.613 85.0914C106.162 86.2697 105.424 89.66 106.215 92.4037C105.7 93.0844 105.334 93.8657 105.141 94.6969C104.947 95.5281 104.93 96.3907 105.091 97.2288C105.252 98.0668 105.587 98.8617 106.074 99.5624C106.561 100.263 107.19 100.854 107.919 101.297C106.921 104.46 108.073 106.812 110.269 109.334C113.195 112.692 111.454 109.955 116.548 116.526C119.092 119.818 121.883 122.949 126.072 123.444C126.898 129.641 133.394 131.98 138.842 128.868C142.856 126.609 149.753 119.266 149.401 112.746ZM109.102 86.3089C110.808 89.5349 114.451 90.657 117.556 91.7239C119.55 92.4229 121.507 93.2262 123.417 94.1303C122.265 95.5489 121.255 97.0771 120.401 98.6928C115.428 96.4069 115.807 98.0968 111.508 95.824C106.623 93.234 107.103 87.9733 109.105 86.3089H109.102ZM106.998 94.2202C108.008 95.7853 109.518 96.9618 111.283 97.5575C110.127 98.0009 109.158 98.8279 108.538 99.9002C107.815 99.1662 107.294 98.2579 107.025 97.2632C106.755 96.2684 106.748 95.2211 107.002 94.2225L106.998 94.2202ZM121.093 118.884C118.892 116.817 117.059 113.892 115.005 111.562C113.363 109.694 110.631 107.526 109.72 105.099C108.952 103.153 109.698 100.53 111.339 99.5262C113.643 98.0307 117.653 99.1805 120.195 100.314C128.066 103.89 131.219 112.157 131.812 111.845C131.92 111.789 131.564 110.761 130.653 109.015C129.02 105.958 127.852 104.867 128.234 105.11C131.619 107.241 134.717 108.355 134.864 108.012C135.077 107.525 125.91 102.136 125.082 101.683C123.994 100.726 122.794 99.905 121.508 99.2381C125.53 92.7501 128.682 90.2031 128.334 89.8091C128.153 89.5725 126.056 90.9612 123.711 93.8031C122.893 93.2529 122.041 92.7549 121.16 92.3123C118.395 90.6947 116.075 90.1831 113.734 88.829C111.331 87.4272 109.413 85.1514 110.17 82.4999C111.129 79.2348 115.051 80.2049 118.294 80.9883C123.75 82.5105 128.743 85.3605 132.829 89.2837C137.256 93.5166 141.864 98.7028 142.026 104.787C142.348 115.11 129.584 127.031 121.095 118.887L121.093 118.884ZM146.286 118.125C144.772 120.987 141.195 125.378 137.928 127.278C133.676 129.784 128.557 128.43 127.381 123.514C135.332 123.448 142.978 114.995 143.828 106.747C146.776 107.904 149.388 112.339 146.289 118.127L146.286 118.125Z" fill="black"/>
<path d="M94.4125 100.739C94.1468 101.169 93.6444 101.755 93.9593 101.85C96.7298 102.695 99.2707 101.268 105.305 103.594C108.31 104.752 111.784 106.868 113.747 109.624C115.293 111.796 115.521 113.428 115.759 112.946C116.505 111.431 115.974 111.41 117.471 109.663C119.16 107.688 121.111 106.957 123.807 105.983C126.701 104.939 129.821 103.639 132.953 103.969C134.489 104.132 133.721 103.355 132.799 98.7257C131.754 93.4981 133.439 89.355 137.415 86.5538C137.812 86.2581 138.234 85.9975 138.676 85.7749C139.113 85.6244 139.521 85.4016 139.884 85.1159C140.9 84.1996 132.434 83.8424 127.662 78.3214C126.356 76.7722 125.329 75.0081 124.627 73.1076C124.235 72.1667 123.961 71.1405 123.512 70.2288C122.767 68.718 122.99 66.4851 122.411 67.0497C120.342 69.0667 119.854 71.3663 116.348 72.5692C110.066 74.726 103.329 75.9526 96.7383 75.1039C100.366 83.4315 96.802 96.8861 94.4125 100.739Z" fill="white"/>
<path d="M140.526 84.9258C140.684 84.3429 134.245 82.9219 129.005 77.7719C123.163 72.0288 123.299 65.9817 122.748 66.004C122.471 65.8926 121.365 68.4903 118.36 70.528C117.689 70.9677 116.988 71.3581 116.261 71.6963C105.61 76.8701 96.7603 74.2218 96.6036 74.9153C96.238 75.0636 97.4285 77.2357 97.8026 83.3336C98.5338 95.2528 93.0535 101.445 93.6672 101.875C93.6011 102.729 101.383 102.305 106.381 104.615C109.113 105.893 111.497 107.809 113.334 110.2C116.483 114.31 114.742 114.173 117.648 110.886C124.068 103.531 133.854 104.766 133.898 103.941C135.137 103.711 129.882 93.9033 137.958 86.8952C139.42 85.6148 140.598 85.1647 140.526 84.9258ZM137.271 85.9866C133.179 88.6188 130.496 94.1283 132.559 100.864C132.839 101.875 133.224 102.853 133.706 103.783C131.208 102.678 121.163 103.286 116.738 110.201C114.561 113.562 116.687 113.666 114.273 109.562C112.947 107.39 111.138 105.554 108.987 104.196C106.835 102.838 104.399 101.996 101.869 101.734C90.4397 100.328 93.5666 104.794 97.2012 96.6431C100.471 89.3086 99.5369 78.7312 96.8525 75.1296C98.9086 76.1965 105.136 77.0637 111.469 75.2464C114.632 74.3539 118.596 72.5903 120.805 70.0088C123.557 66.7828 121.889 65.9379 122.847 70.1793C124.094 75.9169 129.121 81.6761 136.448 84.1585C140.675 85.5918 140.015 84.2138 137.271 85.9866Z" fill="black"/>
<path d="M84.0014 21.3883C83.6581 20.5111 83.2994 20.3014 82.4891 20.3191C81.7479 20.3344 80.8761 20.5802 80.6456 21.2861C80.492 21.7654 80.7393 25.1765 79.9843 26.3855C79.8937 26.5651 79.7576 26.7179 79.5897 26.8286C79.4217 26.9393 79.2276 27.0041 79.0268 27.0165C78.826 27.0289 78.6255 26.9886 78.4451 26.8994C78.2647 26.8103 78.1109 26.6754 77.9988 26.5084C75.7137 24.1641 77.7377 20.1232 75.4065 20.1624C74.8666 20.1832 74.3538 20.4043 73.968 20.7826C73.5822 21.1609 73.3511 21.6692 73.3196 22.2086C73.2881 22.7539 73.4072 23.2993 73.3434 23.8446C73.0769 26.1235 72.5707 24.1196 73.8404 29.8319C74.1653 31.2951 74.5555 32.564 76.2629 33.3651C73.9586 34.0564 73.6222 37.5043 73.3442 40.1957C73.0876 42.7204 73.4978 44.5047 75.9841 45.431C77.349 45.9395 77.3759 45.6123 77.273 45.9295C76.6117 45.6024 75.8887 45.4191 75.1515 45.3918C72.7504 45.1898 72.1559 50.4052 72.2435 52.6349C72.298 54.0021 72.8019 54.2833 73.8657 54.274C74.6591 54.2664 75.0463 54.1611 75.3297 53.4522C75.832 52.2025 75.7959 50.4013 77.581 50.6202C78.4259 50.7239 78.6755 51.1379 78.7439 51.9506C78.8568 53.2909 77.7453 54.0782 79.0833 54.5575C80.8922 55.2042 81.8285 55.6251 82.0466 50.525C82.178 49.3552 81.9406 48.1736 81.3676 47.1454C81.4936 46.6262 81.575 46.0962 81.6111 45.5624C82.3178 45.4487 83.1535 45.5916 83.8555 44.0953C85.0522 41.5445 84.407 36.8983 83.5982 34.1485C83.4807 33.7484 83.3739 33.6255 82.9637 33.5418C81.7901 33.3021 81.9191 33.5725 81.8884 33.276C85.7934 31.9265 85.0929 24.1818 84.0014 21.3883Z" fill="#FDFE1F"/>
<path d="M83.9877 20.588C83.7703 20.3437 83.5006 20.1516 83.1986 20.0261C82.8966 19.9005 82.5702 19.8448 82.2437 19.863C81.9171 19.8813 81.5989 19.973 81.3128 20.1314C81.0267 20.2898 80.78 20.5107 80.5912 20.7778C80.2548 21.3308 80.3861 21.9353 80.2786 23.3793C79.9145 28.0301 78.1279 27.1829 77.5526 25.2281C77.0319 23.3977 77.1532 21.0435 76.4427 20.3123C76.2338 20.1327 75.99 19.9983 75.7267 19.9175C75.4634 19.8367 75.1861 19.8112 74.9125 19.8427C74.6388 19.8741 74.3746 19.9618 74.1364 20.1003C73.8983 20.2387 73.6914 20.4249 73.5286 20.6472C72.7874 21.7456 71.2405 30.8889 75.3183 33.5158C73.6569 34.6679 73.1438 37.433 72.9495 39.4562C72.7429 41.5454 73.0578 43.746 74.7099 45.0517C71.4924 46.8406 71.4471 53.4354 72.4333 54.3533C73.3973 55.2642 75.3206 54.9777 75.518 53.5998C75.9243 52.8839 76.1401 52.0636 76.4812 51.526C76.9781 50.7425 77.6072 50.8562 77.8468 51.0989C78.2508 51.506 77.8468 54.2888 78.2915 54.4439C78.7731 55.636 80.8885 55.6944 81.5121 54.5207C82.1543 53.7526 83.4838 48.4651 81.8708 46.4274C81.8893 46.3544 81.9069 46.2814 81.9231 46.2077C85.6737 45.2798 85.275 40.6652 85.0722 37.1581C84.9639 35.7448 84.6966 34.055 83.513 33.2761C86.9556 30.352 85.275 22.0159 83.9877 20.5873V20.588ZM78.1848 49.6441C77.0403 49.8592 76.5134 48.4797 76.3636 48.5058C76.2361 48.5173 76.1939 49.1925 76.687 49.8024C75.3283 50.3093 74.9258 52.314 74.9726 53.6382C74.8063 53.8029 74.6048 53.9277 74.3832 54.0032C74.1617 54.0787 73.9259 54.1029 73.6936 54.0741C73.4614 54.0452 73.2386 53.9641 73.0423 53.8367C72.8459 53.7093 72.6811 53.539 72.5601 53.3386C72.5286 53.2618 72.5693 53.3955 72.779 52.228C73.2874 49.6088 73.6077 46.3352 76.1778 45.8421C76.3782 45.9128 76.5741 45.9696 76.7646 46.0172C76.4073 46.5837 76.1903 47.2272 76.1317 47.8944C76.1586 48.1901 76.2646 48.3284 76.3444 48.323C76.4358 48.3184 76.4981 48.1771 76.611 47.982C77.0388 47.2078 77.7001 46.783 78.0742 45.7776C78.8622 43.716 77.184 41.9279 77.0841 40.4224C77.0311 39.7135 77.5826 38.516 76.7592 39.258C75.2653 40.6014 76.8959 42.9986 77.0334 44.5225C76.6685 44.5162 76.3039 44.5466 75.945 44.6131C73.6408 43.1261 74.0371 40.0315 74.5847 37.2617C74.839 35.9422 75.2507 34.6502 76.4435 34.0358C76.7738 34.1418 77.1102 34.224 77.452 34.2816C77.4274 34.787 77.1594 36.8332 77.6517 36.7133C77.8821 36.6619 79.3039 34.1786 78.4375 31.2599C78.21 30.51 77.936 29.7751 77.6172 29.0593C77.4505 28.9933 77.1402 29.4733 77.1663 30.256C77.1663 30.9304 77.4513 32.1685 77.4513 32.9159C73.6984 32.5318 73.7998 26.8249 73.8412 23.0075C73.8758 20.8415 73.6876 21.2171 73.9465 21.0297C74.1159 20.8685 74.3191 20.7471 74.5412 20.6741C74.7634 20.6012 74.9991 20.5786 75.2311 20.608C75.4631 20.6374 75.6856 20.7181 75.8826 20.8442C76.0795 20.9702 76.2459 21.1386 76.3698 21.3369C76.4981 21.5382 75.3782 27.1921 78.3745 27.9594C77.7016 28.1745 77.5296 28.8412 77.6832 28.8727C77.7715 28.9188 77.9136 28.7052 78.2209 28.6008C78.8768 28.378 80.2725 28.9464 80.9491 30.6439C81.6323 32.4834 81.6214 34.5088 80.9184 36.3408C80.2924 37.688 78.9029 38.0306 78.0903 37.2318C77.8345 36.9898 77.7593 36.7556 77.6594 36.7709C77.4758 36.7709 77.4751 37.741 78.4359 38.2687C77.6594 38.3455 76.4712 39.1551 77.9121 38.9239C81.8647 38.2679 81.7019 48.9859 78.1848 49.6418V49.6441ZM81.3094 50.4007C80.9253 54.4716 81.2326 53.9416 81.0789 54.109C80.9138 54.2666 80.718 54.3885 80.5037 54.4671C80.2894 54.5457 80.0612 54.5793 79.8333 54.5658C79.6055 54.5523 79.3828 54.492 79.1793 54.3888C78.9757 54.2855 78.7957 54.1414 78.6502 53.9654C79.045 52.9531 79.469 51.3201 78.8522 50.4245C79.9235 49.9315 80.784 49.0729 81.2794 48.0027C81.4291 48.7934 81.4392 49.6042 81.3094 50.3984V50.4007ZM83.5768 35.2693C83.8648 36.3185 84.2834 41.7036 83.4623 43.6123C83.1995 44.2742 82.7122 44.8226 82.0859 45.1616C82.2679 43.0293 81.7019 39.4162 79.7402 38.5099C81.7687 38.2365 82.5744 36.0174 82.6942 33.9651C82.9236 34.1091 83.1204 34.2994 83.2722 34.5236C83.424 34.7479 83.5275 35.0013 83.576 35.2678L83.5768 35.2693ZM82.6343 32.3275C82.4039 30.6216 81.5882 28.7636 79.9752 28.103C79.4483 27.8726 79.3792 27.9978 79.6441 27.8895C81.4876 27.1521 81.5283 22.8969 80.6688 21.4629C81.6504 20.5796 82.3724 20.3254 83.9094 21.181C83.7834 23.579 85.3557 29.9119 82.6343 32.326V32.3283V32.3275Z" fill="black"/>
<path d="M101.443 93.0865C101.284 94.5459 101.501 94.9476 102.512 95.7564C112.558 103.794 116.446 103.78 125.836 99.8442C127.492 99.1529 127.727 98.6729 127.883 97.3594C129.36 84.9532 129.439 85.133 129.184 84.4432C128.635 82.9593 124.064 80.8332 122.631 80.1419C117.292 77.5711 116.546 77.1126 115.387 77.0119C113.181 76.8199 106.418 79.668 104.381 80.5536C103.252 81.0437 103.27 81.6597 102.959 83.2281C102.311 86.4907 101.805 89.78 101.443 93.0865Z" fill="#92FCFF"/>
<path d="M128.261 81.6175C118.027 75.9981 117.641 75.3445 115.518 75.9874L105.005 79.1696C104.251 79.3958 103.582 79.8409 103.082 80.4484C102.581 81.0558 102.273 81.7983 102.195 82.5814L101.043 93.9392C100.963 94.7218 101.116 95.5106 101.484 96.206C101.852 96.9013 102.418 97.4719 103.11 97.8457C113.457 103.445 113.308 103.556 114.682 103.556C115.527 103.556 115.099 103.608 126.352 100.201C127.105 99.9745 127.775 99.5292 128.275 98.9219C128.775 98.3145 129.084 97.5725 129.162 96.7895L130.305 85.5124C130.386 84.7341 130.235 83.9494 129.871 83.2565C129.508 82.5637 128.948 81.9935 128.261 81.6175ZM115.984 77.5274C116.287 77.4364 116.605 77.4064 116.919 77.4392C117.234 77.4721 117.539 77.567 117.816 77.7186C128.371 83.51 127.612 83.0753 127.86 83.2811L116.01 86.4695L105.046 80.8855C105.34 80.7295 104.488 81.0068 115.984 77.5274ZM103.88 96.4301C103.467 96.2072 103.13 95.8673 102.91 95.4531C102.691 95.0382 102.6 94.5679 102.647 94.1012C103.885 81.8886 103.726 82.3456 104.192 81.6582L115.378 87.3566C113.761 103.313 114.063 101.945 113.548 101.666L103.88 96.4301ZM127.564 96.629C127.518 97.096 127.334 97.5387 127.036 97.9009C126.738 98.2631 126.338 98.5283 125.889 98.6629C114.479 102.119 115.272 101.894 114.982 101.93L116.448 87.4649L128.544 84.2105C128.854 84.9702 128.796 84.4778 127.564 96.629Z" fill="black"/>
<path d="M112.813 89.6523C112.628 88.6907 112.621 88.534 112.393 88.3727C111.976 88.0778 111.374 88.4749 111.005 88.6316C109.244 89.3804 108.669 89.7491 110.468 91.0073L109.008 93.3883C108.283 90.1109 108.286 90.0287 108.136 89.8889C108.02 89.7562 107.858 89.6705 107.683 89.6477C107.508 89.625 107.33 89.6667 107.183 89.7653C106.44 90.2829 100.654 98.4931 107.235 91.0403C107.598 90.6294 107.338 90.2998 108.194 94.0865C108.416 95.0666 109.16 94.8984 109.444 94.4882L111.243 91.5503C112.752 92.4444 113.373 92.5465 112.813 89.6523ZM110.272 89.8474C112.21 89.0724 111.818 88.746 112.023 89.8052C112.1 90.2177 112.219 90.922 112.241 91.1824C111.54 90.8073 110.88 90.3599 110.272 89.8474Z" fill="black"/>
<path d="M112.706 98.6362C105.647 101.662 109.855 107.976 112.584 110.814C113.441 111.707 115.591 112.373 116.389 113.32C117.313 114.564 118.321 115.743 119.408 116.848C120.282 117.653 142.136 121.339 125.729 103.759C122.569 100.372 116.968 96.8081 112.706 98.6362Z" fill="white"/>
<path d="M113.001 109.488C110.367 106.832 108.67 104.78 109.763 101.641C111.447 96.8025 118.817 99.2204 122.999 102.114C127.331 105.109 131.305 112.111 131.815 111.847C132.447 111.52 128.835 103.859 124.08 100.578C118.653 96.8386 110.141 94.7225 107.995 101.008C106.598 105.1 108.572 107.71 111.669 110.812C115.51 114.657 115.495 115.247 117.961 117.857C119.681 119.676 121.076 120.456 121.222 120.26C121.386 120.04 120.366 118.97 118.984 117.009C115.557 112.152 115.545 112.053 113.001 109.488Z" fill="black"/>
<path d="M58.3531 109.181C61.4178 105.413 55.0695 98.4899 47.9071 100.243C43.4821 101.326 31.831 107.631 31.1627 109.64C30.8386 110.62 31.7772 111.617 32.2933 112.508C32.8484 113.381 33.5713 114.135 34.4202 114.726C36.7936 116.511 39.4681 119.21 42.2793 118.253C44.0735 117.642 45.8586 114.72 47.5676 113.961C47.8195 113.851 56.8208 111.064 58.3531 109.181Z" fill="white"/>
<path d="M46.1246 101.509C41.5821 102.672 37.9383 105.036 34.2438 107.151C31.855 108.518 31.8535 108.196 33.8252 106.551C52.4898 90.9844 63.922 103.817 58.1506 110.311C57.0092 111.596 55.6159 112.054 53.933 112.429C46.9057 113.995 44.2873 117.093 43.9478 116.715C43.871 116.625 44.2942 116.036 45.2713 115.17C50.5557 110.492 54.9584 111.444 56.8372 109.184C59.7083 105.733 55.8271 99.0263 46.1246 101.509Z" fill="black"/>
<path d="M62.9904 87.8881C62.6417 83.9639 63.6817 66.7187 63.1532 65.7709C62.8652 65.2563 61.4634 64.7255 58.0324 63.1594C56.8418 62.6164 55.5184 62.3982 54.3348 61.8229C52.2978 60.8359 50.8915 60.0563 48.886 59.0056C47.9289 58.5055 46.1208 58.4395 45.2299 57.8304C42.4385 56.0694 39.4475 54.6469 36.32 53.5928C35.1817 53.2487 34.7608 53.7718 34.5427 54.8986C34.4182 55.5392 34.568 55.2719 34.5526 55.9125C34.4413 60.521 34.2347 57.2382 34.4336 64.5642C34.5457 68.6874 34.7116 69.4393 34.3099 70.5185C35.2854 81.6366 32.4296 84.6513 36.8131 87.5647C39.8617 89.5894 48.3468 91.2108 54.6021 94.5036C56.9832 95.7579 59.4165 97.0299 62.0718 97.4746C62.6309 97.5683 63.0503 97.4423 63.1648 96.3463C63.409 94.9699 63.525 93.5735 63.5104 92.1755C63.3929 90.76 62.9904 89.3098 62.9904 87.8881Z" fill="white"/>
<path d="M38.8608 84.7295C36.9713 83.9469 37.5335 83.7717 37.9321 58.2842C38.8684 58.2304 39.6265 59.0707 40.4568 59.5055C51.6786 65.3798 59.315 67.1418 59.6069 67.5858C59.752 67.807 59.3342 91.7038 59.2228 92.0694C58.8234 93.3982 58.3718 92.4535 57.9171 92.3766C57.1148 92.1945 56.34 91.9074 55.6128 91.5225C53.1672 90.4664 50.525 89.7075 48.0794 88.6514C43.1306 86.5161 45.9863 87.6828 38.8608 84.7295Z" fill="#92FCFF"/>
<path d="M42.3291 76.8828C42.3568 76.5671 42.4405 75.1976 42.1809 75.0087C41.8113 74.9032 41.4665 74.7254 41.1663 74.4854C40.8662 74.2454 40.6168 73.9481 40.4327 73.6108C40.2934 73.3576 40.2206 73.0732 40.2211 72.7843C40.2216 72.4953 40.2953 72.2112 40.4354 71.9585C40.5755 71.7057 40.7774 71.4927 41.0222 71.3391C41.267 71.1856 41.5467 71.0967 41.8352 71.0807C42.0488 71.0423 42.9374 71.0039 42.9774 71.1168C41.5303 67.082 40.3229 65.0811 43.8622 67.3762C44.6203 65.7732 44.6226 65.7171 44.7954 65.5842C45.8508 64.7677 46.5206 67.5728 47.4838 66.3285C47.791 65.9352 47.8156 65.1487 47.9884 64.9129C48.1858 64.6441 48.8663 64.6226 49.0115 65.6265C49.106 66.2832 48.8886 67.7687 49.6828 67.9C50.0112 67.8962 50.3301 67.7886 50.5938 67.5928C51.759 66.9937 52.6123 67.7618 52.4779 68.2841C52.4341 68.4546 52.2475 68.6504 52.3573 68.8271C52.8449 68.5175 53.434 68.4101 53.9995 68.5275C54.1429 68.6493 54.243 68.8144 54.2845 68.9979C54.3261 69.1815 54.3069 69.3735 54.2299 69.5453C53.928 70.2611 53.2314 70.3133 53.2406 70.818C53.2406 70.9716 53.2283 70.9132 53.8973 72.2919C54.1062 72.4763 54.2376 72.7321 54.2645 73.0093C55.3475 73.0093 55.4681 72.8626 55.9696 73.5654C56.1426 73.8301 56.2531 74.1307 56.2926 74.4444C56.3322 74.7581 56.2998 75.0767 56.198 75.376C56.0961 75.6753 55.9274 75.9476 55.7048 76.172C55.4821 76.3965 55.2112 76.5673 54.9127 76.6716C53.4034 77.1685 55.3913 77.303 54.9304 80.3454C54.763 81.4476 54.8183 82.9745 53.7998 83.4177C53.4511 83.5714 53.2452 83.6904 53.6308 84.2212C54.1562 84.9439 54.4565 84.7749 54.8597 86.4094C55.0929 87.1328 55.1523 87.9009 55.0333 88.6515C54.9243 90.2399 55.7208 91.4412 55.0379 91.2561C53.6528 90.9657 52.3329 90.4234 51.1437 89.6562C51.0669 89.6216 46.0252 87.8988 40.3252 85.2189C38.5762 84.3963 41.2922 81.7932 43.8584 81.6089C44.7378 81.5459 44.1986 81.0075 43.628 80.4176C41.9113 78.6279 42.2523 77.7661 42.3291 76.8828Z" fill="#FDFE1F"/>
<path d="M42.3986 72.2652C41.589 72.2444 41.188 73.0271 41.3593 73.1024C41.4607 73.1585 41.8094 72.7045 42.387 72.7183C42.5053 72.7214 42.6213 72.7498 42.7273 72.8028C42.5853 72.8464 42.4589 72.9298 42.3629 73.0432C42.267 73.1565 42.2056 73.295 42.186 73.4422C42.1664 73.5894 42.1895 73.7391 42.2525 73.8736C42.3155 74.008 42.4158 74.1216 42.5414 74.2008C42.7987 74.3421 42.9815 74.2676 42.9785 74.2115C42.9877 74.0978 42.417 73.8782 42.6712 73.3743C42.7442 73.2207 42.7834 73.2552 42.8433 73.2744C44.0461 73.8236 43.8418 73.8674 43.6521 73.2299C43.5681 72.9596 43.4027 72.7218 43.1784 72.549C42.9542 72.3762 42.6821 72.2768 42.3993 72.2644L42.3986 72.2652Z" fill="black"/>
<path d="M64.0944 66.3316C64.0944 63.6349 62.5582 64.6257 37.1459 52.9047C36.7951 52.7416 36.4088 52.6694 36.0228 52.695C35.6367 52.7205 35.2633 52.8428 34.9369 53.0506C33.4176 54.0115 33.923 52.8248 33.6388 85.1153C33.6332 85.5759 33.7653 86.0276 34.0182 86.4126C34.2711 86.7976 34.6333 87.0982 35.0583 87.2759C62.7241 98.9017 61.6342 98.9232 63.1112 97.9439C64.5883 96.9646 64.1036 98.1498 64.0944 66.3316ZM61.5558 96.665C33.8739 85.0308 35.5775 85.7989 35.4024 85.58C36.2772 85.2205 37.4232 84.2489 37.2036 83.967C36.9839 83.6851 35.5714 84.5884 35.2511 84.8196C35.4815 52.9438 35.4508 54.9501 35.5022 54.7872C35.8187 55.5169 37.3142 58.183 37.7051 57.9264C38.0638 57.6906 36.7181 55.2796 35.97 54.3302C36.301 54.2273 34.453 53.4853 61.8546 65.5897C61.2816 65.8201 59.3345 66.7994 59.5035 67.1681C59.6894 67.5721 61.8316 66.5006 62.4461 66.1066C62.4991 66.2671 62.506 64.1503 62.5344 96.0129C62.5344 96.4738 62.5306 95.9622 61.3623 94.655C59.8384 92.9406 57.4911 91.5058 60.7616 95.1926C61.2855 95.7787 61.7686 96.3002 62.1396 96.652C62.0491 96.6965 61.95 96.7207 61.8492 96.7229C61.7483 96.7252 61.6482 96.7054 61.5558 96.665Z" fill="black"/>
<path d="M38.2584 71.0801C38.3874 54.0408 37.4403 54.007 37.3128 71.0479C37.2414 73.4981 37.2645 83.8212 37.3589 83.8327C38.0809 83.9272 38.2499 71.3528 38.2584 71.0801Z" fill="black"/>
<path d="M59.1907 92.4338C59.8551 92.5106 60.0156 80.4762 60.0287 79.9861C60.1554 63.3585 59.2083 63.3247 59.0831 79.9546C59.0409 81.4977 59.0086 92.4146 59.1907 92.4338Z" fill="black"/>
<path d="M55.4881 91.0219C55.7641 88.8535 55.3526 86.6532 54.3114 84.7312C53.5702 83.5307 53.3575 83.904 53.8122 83.6559C54.982 83.0184 55.1487 81.9538 55.1356 80.6343C55.3215 80.0651 55.3901 79.4641 55.3373 78.8677C55.2845 78.2712 55.1113 77.6917 54.8284 77.164C54.6586 76.8821 55.1026 77.2408 55.9367 76.462C57.6165 74.9512 56.2363 71.9533 54.4535 72.6538C54.2308 71.3319 53.2807 71.4133 53.7523 70.9156C53.917 70.7784 54.0687 70.6261 54.2054 70.4609C55.1755 69.1774 54.5687 67.831 53.021 68.2688C52.4519 68.4677 52.806 68.5184 52.7576 67.9193C52.6961 67.0905 51.567 66.324 49.8803 67.4738C49.4886 67.7541 49.5907 67.781 49.4963 67.2572C49.3342 66.3455 49.1322 65.0582 48.6882 64.6779C48.4486 64.4329 48.0576 64.363 47.6744 64.8922C47.4497 65.2573 47.2717 65.649 47.1444 66.0582C46.8955 66.6635 46.7941 66.1266 46.0975 65.4115C45.473 64.7701 44.7149 64.7609 44.2886 65.5359C44.1273 65.8808 44.0021 66.241 43.9146 66.6112C43.8941 66.7046 43.8555 66.7931 43.8009 66.8716C43.2755 66.7503 42.7517 65.9729 41.9997 65.8869C40.3445 65.784 41.6595 68.301 42.562 70.7044C39.687 70.1767 38.7753 74.3482 42.0496 75.455C41.6525 77.6349 42.1072 79.8731 43.8162 81.2464C41.8085 81.503 40.0104 82.6136 39.5533 84.6107C29.7986 81.291 58.4699 93.6058 58.824 92.7601C58.8747 92.628 57.5858 91.9682 55.4881 91.0219ZM53.4266 82.98C51.9181 83.8134 45.7511 83.2058 45.6819 80.4783C45.6481 79.1434 46.2196 77.9006 47.9301 76.8798C47.8691 77.1018 47.8784 77.3372 47.9566 77.5537C48.0349 77.7702 48.1783 77.9572 48.3672 78.0888C49.4924 78.6902 50.0316 77.9567 50.3051 79.2141C50.3481 79.4038 50.4241 79.5059 50.4779 79.4929C50.5317 79.4798 50.5693 79.3876 50.6185 79.2194C51.246 77.0688 47.732 78.0266 48.8657 76.7615C49.3703 76.1786 52.3858 76.0979 53.3398 76.8645C54.3429 77.6771 52.1815 77.5773 51.7798 78.5189C51.6262 78.8861 51.6746 79.625 51.8028 79.6619C51.9787 79.7125 52.087 79.0359 52.2745 78.8001C52.6485 78.3292 54.0472 78.5896 54.3483 77.4943C54.5887 78.1042 54.6747 78.7632 54.6002 79.4145C54.422 81.6827 53.1171 81.3609 51.0263 81.2656C40.76 80.5428 52.0809 82.5837 53.8014 81.9892C54.3544 81.8125 54.4251 81.5007 54.2623 81.9892C54.1949 82.2008 54.0863 82.3971 53.9429 82.5667C53.7995 82.7363 53.6241 82.876 53.4266 82.9777V82.98ZM47.1329 76.4251C46.8769 76.2798 46.6575 76.0779 46.4915 75.8348C46.3255 75.5917 46.2172 75.3139 46.1751 75.0226C47.6544 74.9112 47.4478 74.8959 47.4532 74.9704C47.4831 75.4013 47.4109 75.6171 47.9524 75.5472C48.4939 75.4773 48.3848 75.2615 48.3587 74.9235C49.3457 75.0257 49.4072 75.2131 49.7413 75.0771C49.6053 75.7308 49.5984 75.5894 49.2213 75.6847C48.8278 75.7673 48.4733 75.9793 48.2143 76.2869C47.9777 76.3748 47.7469 76.4774 47.5231 76.5941C47.3889 76.5468 47.2585 76.4895 47.1329 76.4228V76.4251ZM51.0855 75.5065C49.5393 75.5188 50.1507 75.7761 50.0524 74.9412C50.2244 74.9719 51.2997 74.869 51.6961 74.8444C51.6646 74.9212 51.7099 75.0472 51.7391 75.3152C51.7598 75.5042 52.6746 75.6079 52.6431 75.2384C52.6308 75.104 52.6124 74.9849 52.5971 74.8766C52.9243 74.9189 53.5771 75.0664 53.6025 75.0671C52.9097 76.2615 53.2492 75.5426 51.0855 75.5065ZM53.8022 73.7982C54.0372 74.3106 53.7822 74.6915 53.5718 74.6209C52.6908 74.3894 51.7685 74.3631 50.8758 74.5441C49.56 74.6885 50.5816 74.7599 50.1192 73.6992C50.3055 73.3698 50.5779 73.0972 50.9072 72.9108C51.2366 72.7244 51.6105 72.6312 51.9888 72.641C52.3671 72.6509 52.7356 72.7635 53.0548 72.9668C53.3739 73.1702 53.6318 73.4565 53.8007 73.7952L53.8022 73.7982ZM49.7789 74.3359C49.7505 74.8736 49.3104 74.594 48.7074 74.5218C47.4293 74.3513 46.1105 74.7614 45.9592 74.6439C45.642 74.4726 46.0683 72.6753 47.8702 72.6861C48.9947 72.6845 49.8565 73.6992 49.7797 74.3298L49.7789 74.3359ZM55.0711 73.3044C56.2793 73.7199 56.2386 76.1624 54.3299 76.5856C54.2753 76.5403 53.6186 76.0718 53.4911 76.0019C53.7822 75.7085 53.9727 75.3298 54.0349 74.9212C54.0743 74.8905 54.1103 74.8557 54.1425 74.8175C54.1661 74.8942 54.2124 74.9619 54.2751 75.0119C54.3379 75.0619 54.4142 75.0919 54.4942 75.0979C54.5296 75.0748 54.6125 75.2423 54.5649 75.3413C54.472 75.5664 54.0733 75.7684 54.1325 75.8882C54.1847 76.0418 54.7777 75.975 54.9897 75.5042C55.0258 75.4213 55.0435 75.3315 55.0416 75.2411C55.0398 75.1507 55.0184 75.0617 54.9789 74.9804C54.9394 74.899 54.8828 74.8272 54.8129 74.7697C54.7431 74.7123 54.6616 74.6707 54.5741 74.6478C54.6509 74.5372 54.985 74.4557 55.1018 74.6339C55.2977 74.9512 55.4259 74.8213 55.409 74.5379C55.3798 74.0448 54.737 73.9511 54.3514 74.2368C54.3568 74.0201 54.3105 73.8053 54.2162 73.6101C54.1724 73.5194 54.6386 73.15 55.0688 73.2982L55.0711 73.3044ZM44.625 66.8271C44.685 66.6266 44.8923 65.7087 45.0982 65.6634C45.6781 65.2417 46.8533 68.7358 47.8526 65.8716C47.8787 65.7948 48.1598 65.0136 48.2673 65.0328C48.5508 64.5888 49.2036 69.1206 49.0277 69.8387C49.0116 69.9156 49.0078 69.8649 43.4744 70.8058C43.5267 70.9517 43.244 70.2335 43.1856 70.0792C43.3393 70.0553 48.5262 69.0507 48.5031 68.8633C48.4747 68.6175 45.0575 69.0415 43.0942 69.8441C40.3645 62.8076 43.688 70.0085 44.6258 66.8271H44.625ZM42.6127 75.5733C43.8017 75.7008 44.2448 74.8774 43.8562 75.008C42.3891 75.5019 40.3276 74.0095 40.8668 72.3243C41.2508 71.1245 42.7594 71.2121 43.6857 71.8673C44.4538 72.4211 44.5459 73.1123 44.6642 73.0862C44.7149 73.0824 44.7687 72.9096 44.7157 72.5947C44.6151 72.1927 44.4208 71.8203 44.1488 71.5078C49.633 70.5177 49.444 70.5554 49.5808 70.3557C49.7798 69.7589 49.8149 69.1195 49.6822 68.5046C50.4787 68.0437 51.0278 67.5061 51.7806 67.7488C52.7176 68.1113 50.5962 69.7857 50.9941 70.03C51.0747 70.126 51.6008 69.6951 52.4818 69.1974C53.3383 68.7427 54.1824 68.6782 53.8091 69.5607C53.5464 70.2082 53.094 70.2312 52.8628 70.8081C52.4711 71.7582 53.5687 71.7659 53.7669 72.9587C53.5096 72.6905 53.1945 72.4845 52.8455 72.3567C52.4965 72.2289 52.1229 72.1825 51.7533 72.2211C51.3836 72.2597 51.0277 72.3823 50.7127 72.5795C50.3977 72.7767 50.1319 73.0433 49.9356 73.3589C49.677 72.9556 49.3037 72.6388 48.8636 72.4493C48.4236 72.2598 47.9369 72.2062 47.4662 72.2955C46.9954 72.3848 46.5621 72.6128 46.222 72.9502C45.8819 73.2877 45.6505 73.7192 45.5575 74.1892C45.5406 74.4196 45.4884 74.8329 45.8379 74.9796C45.8117 75.3602 45.9055 75.7394 46.1059 76.0639C46.3064 76.3885 46.6034 76.6421 46.9554 76.7892C47.2396 76.9044 47.0906 76.6809 46.2165 77.5266C45.8147 77.9066 45.4965 78.3661 45.2821 78.8759C45.0677 79.3857 44.9619 79.9346 44.9715 80.4875C44.9661 81.2441 45.4123 81.5068 44.632 80.9292C42.9245 79.6841 42.5335 77.6832 42.6134 75.5733H42.6127ZM43.8554 86.1914C44.4962 85.7567 45.2311 85.4803 45.9996 85.3851C46.7681 85.2899 47.5482 85.3785 48.2758 85.6437C51.4034 86.6999 52.193 88.7706 52.4342 88.6669C52.6017 88.5978 52.1577 87.3266 50.8904 86.4126C47.6874 84.043 44.6535 84.6314 43.5505 86.0739C42.3903 85.6259 41.2237 85.1946 40.0511 84.7804C40.9259 82.8556 42.509 82.2457 44.5521 81.728C44.9039 81.9131 45.2749 82.0598 45.6581 82.1643C46.8433 83.5945 48.4233 83.7366 50.1561 84.0077C51.0798 84.1775 52.0274 84.1712 52.9488 83.9893C54.4489 85.8004 54.7846 88.4089 54.9228 90.7638C51.6346 89.2983 47.2995 87.5186 43.8547 86.1914H43.8554Z" fill="black"/>
<path d="M59.442 67.4817C59.6149 67.0508 38.6391 58.2438 38.4524 58.664C38.1283 59.3929 59.1502 68.2052 59.4428 67.4817H59.442Z" fill="black"/>
<path d="M90.2354 49.3792C90.8169 48.479 91.29 48.5735 91.7032 49.1488C93.0528 51.0152 98.6591 58.9235 98.2696 61.2201C98.0999 61.7851 97.7953 62.3003 97.3821 62.7214C96.9689 63.1425 96.4595 63.4568 95.8978 63.6372C95.354 63.8024 94.592 64.2164 94.0544 64.3915C93.4399 64.7041 92.8423 65.0482 92.2639 65.4223C90.3729 66.2672 88.2261 64.731 84.4832 62.5204C83.5261 61.9559 83.7873 61.1325 84.2528 60.1547C86.0062 56.4344 88.0049 52.8346 90.2354 49.3792Z" fill="#92FCFF"/>
<path d="M89.8577 76.3859C90.1504 76.9881 90.5636 77.9797 91.3786 77.664C91.8494 77.4812 91.9431 76.876 92.1536 76.4174C92.4009 75.975 92.7112 75.5725 93.0753 75.22C93.8142 74.3812 98.7061 66.5213 98.2153 65.542C97.8927 64.8976 96.1576 66.4276 93.55 67.4146C92.5997 67.8588 91.5536 68.0587 90.5066 67.996C89.4595 67.9334 88.4447 67.6103 87.5542 67.0559C85.6793 66.0927 84.6801 65.3823 83.8713 65.8815C83.4726 66.1281 83.5863 66.112 83.7606 66.5982C85.8268 72.3174 88.7755 74.1585 89.8577 76.3859Z" fill="#92FCFF"/>
<path d="M83.3772 62.5257C84.1023 63.5726 90.0596 66.2893 90.9483 66.168C91.0105 66.168 91.0635 66.1257 91.1342 66.168L91.3108 66.118C96.4809 63.6601 100.858 63.5588 97.686 58.0531C95.5945 54.6228 91.688 47.9235 91.2617 48.1716C90.7532 47.8513 84.9495 57.5116 84.6761 57.987C83.8826 59.4403 82.8204 61.2053 83.3772 62.5257ZM90.5704 64.7055C88.516 63.9622 86.5409 63.0156 84.6745 61.8797C84.3742 61.6608 84.7214 61.6931 85.8904 61.4711C88.1056 61.0502 90.1287 60.5348 90.7087 60.4603C90.7271 65.3953 90.9936 64.8415 90.5704 64.7063V64.7055ZM91.4645 64.5158C90.903 64.7539 91.1787 65.2631 91.3423 60.4326C92.1742 60.4703 94.9524 61.2468 97.2666 61.6117C96.6329 62.6916 92.9668 63.8791 91.4645 64.5166V64.5158ZM92.5037 51.4391C96.0423 58.8534 97.3964 59.5355 97.398 61.0748C97.3918 61.4765 97.9272 61.3275 92.5029 59.9126C92.1301 59.8182 91.7493 59.7591 91.3654 59.736C91.4291 57.5677 91.552 50.4797 91.2978 48.6033C91.6379 49.5739 92.0407 50.5214 92.5037 51.4398V51.4391ZM84.6807 61.2553C85.213 59.5739 89.4659 52.996 91.0558 49.048C90.7978 51.479 90.7087 57.0553 90.7063 59.759C89.2954 59.9203 84.6361 61.3981 84.6807 61.256V61.2553Z" fill="black"/>
<path d="M98.9214 64.3478C98.8013 64.269 98.6628 64.2229 98.5195 64.214C98.3762 64.2051 98.233 64.2338 98.1041 64.2971C96.1793 65.2434 94.17 66.1037 91.752 67.2451C90.7143 67.7359 91.265 67.7773 89.4908 67.0914C83.207 64.6528 84.1717 63.2971 83.1878 63.7403C81.114 64.6773 88.6267 76.4667 90.8173 78.0682C92.252 79.1167 97.9912 68.4287 98.8269 66.6797C99.194 65.8955 99.6134 64.8025 98.9214 64.3478ZM85.4099 67.666C84.3638 65.5153 84.1733 66.5215 88.9838 68.3872C90.2412 68.8749 90.2704 68.8865 90.4532 68.9425C91.1268 69.173 90.6644 68.136 90.6467 73.1586C90.6229 74.5959 90.6821 76.0333 90.8242 77.4637C90.0661 75.9828 87.6642 72.2991 85.4099 67.666ZM91.0508 77.9799C90.871 77.3424 91.3234 79.172 91.3442 73.1609C91.3603 68.5354 91.0008 69.0639 91.3204 68.9663L97.5511 66.1144C95.074 71.3213 91.2167 77.4691 91.0508 77.9799Z" fill="black"/>
<path d="M75.3652 98.5048C74.4303 98.0853 73.5803 97.498 72.8573 96.772C72.382 96.0653 71.8406 95.4054 71.2405 94.8011C70.1068 93.496 69.167 92.0344 68.45 90.4614C68.162 89.7271 68.0798 89.0657 67.3394 85.1346C66.6696 81.5792 66.0513 77.2901 69.1275 74.8484C71.5723 72.9074 76.2231 73.5012 78.2678 74.4044C80.8931 75.5642 84.5254 79.4807 85.6061 84.5862C86.0785 86.8137 86.4026 92.688 85.4978 94.778C83.6912 98.9464 76.217 98.7798 75.3652 98.5048Z" fill="#FDFE1F"/>
<path d="M80.6666 75.194C77.4736 72.2191 74.7676 72.7361 70.5332 73.3959C63.9622 74.4166 65.1773 93.6796 74.6893 98.5516C76.1348 99.2766 79.2364 98.9648 80.8478 98.6407C83.0069 98.1798 83.9202 97.9056 85.0293 96.5945C88.2015 92.3661 86.4941 80.3801 80.6666 75.194ZM69.782 74.8368C70.3473 74.4719 73.3305 74.0894 73.8697 74.0372C73.2483 74.456 72.7173 74.9953 72.3083 75.6232C71.8992 76.2512 71.6205 76.9549 71.4887 77.6926C69.7589 78.0351 69.9348 78.2302 68.0146 77.8792C68.2988 76.7824 68.828 75.4551 69.782 74.8368ZM67.8295 78.6957C70.2567 78.3938 68.8441 78.4391 71.2997 78.5958C71.0557 80.3086 71.05 82.0469 71.2828 83.7612C69.4617 84.2221 69.8027 84.3834 67.7004 84.1522C67.458 82.3378 67.5016 80.4966 67.8295 78.6957ZM67.8149 84.9533C70.5032 84.3903 69.6583 84.7436 71.4072 84.6683C71.6882 86.4084 72.1223 88.1202 72.7046 89.7838C70.4886 90.1318 71.3335 90.1072 69.1107 89.8345C68.5249 88.2525 68.0913 86.6183 67.8157 84.9541L67.8149 84.9533ZM69.4379 90.6633C71.9019 90.2132 71.8919 90.6787 73.0417 90.6833C73.5836 92.0908 74.2889 93.4298 75.1432 94.6727C73.478 95.2304 73.829 95.026 72.0332 95.0422C70.9526 93.7224 70.079 92.2459 69.4425 90.6633H69.4379ZM72.6638 95.7327C74.2861 95.2019 74.9681 95.6052 75.7685 95.4585C76.7114 96.5498 77.9392 97.3574 79.3147 97.7912C76.2831 98.1176 74.7292 97.8257 72.6638 95.7358V95.7327ZM85.5969 92.4107C85.0155 96.4969 83.2789 97.0492 80.9638 97.5292C76.0411 97.3626 73.5663 91.1702 72.4557 86.3651C69.3634 72.9596 77.0412 70.4656 82.5584 78.963C85.1039 82.9571 86.1784 87.7133 85.5969 92.4138V92.4107Z" fill="black"/>
<path d="M83.9515 86.6055C84.2525 89.2362 84.1919 93.1343 82.2763 94.9286C82.0555 95.1573 81.7912 95.3396 81.4989 95.4647C81.059 95.6532 80.5728 95.7058 80.1028 95.6157C79.6327 95.5256 79.2004 95.297 78.8613 94.9593C73.54 90.6687 71.2211 74.144 77.6001 76.1019C80.0918 76.8661 81.9475 80.3448 82.943 82.7536C83.9084 85.1515 83.9998 85.1062 83.201 82.6591C79.9751 73.0695 72.755 72.9174 73.0131 81.8603C73.2589 88.336 78.1923 99.7929 82.6772 95.3548C84.7073 93.3624 84.7411 89.4006 84.2234 86.5625C83.7203 84.0163 83.6273 84.0762 83.9515 86.6055Z" fill="black"/>
<path d="M79.5588 84.8273C79.8904 84.5068 80.1284 84.1019 80.2473 83.6563C80.3661 83.2107 80.3612 82.7411 80.2332 82.298C80.1052 81.855 79.8588 81.4552 79.5206 81.1416C79.1824 80.828 78.7652 80.6125 78.3137 80.5183C78.2277 79.6803 77.6885 79.191 77.5456 79.2893C77.3843 79.3938 77.6071 80.0666 77.72 80.4768C76.8152 80.4814 76.9726 80.6304 76.9158 80.3923C76.5886 79.0412 76.001 79.317 76.3712 80.6381C76.1537 80.7569 75.9278 80.8596 75.6953 80.9453C75.958 81.9853 76.859 84.1598 77.3006 85.9379C78.9474 92.5665 78.1793 90.9067 79.1778 90.8668C79.4006 91.9267 80.3599 92.5919 79.8046 90.9313C79.757 90.7923 79.7424 90.8199 79.8491 90.8038C80.6902 90.6786 80.5466 90.5104 80.6049 90.727C80.9452 91.9766 81.5435 91.9336 81.171 90.5641C81.0981 90.2984 81.0658 90.3998 81.2547 90.2569C83.231 88.8044 81.3853 85.4571 79.5588 84.8273ZM77.0287 81.6166C77.3314 81.4538 77.6663 81.3597 78.0095 81.3413C78.3528 81.3228 78.6958 81.3804 79.0142 81.5099C79.2352 81.6387 79.42 81.8213 79.5515 82.0408C79.683 82.2602 79.7568 82.5093 79.7662 82.7649C79.7751 83.0208 79.7188 83.2748 79.6026 83.5029C79.4864 83.7311 79.314 83.9259 79.1018 84.0692C78.6252 84.3618 78.1008 84.5683 77.5526 84.679C77.3459 83.6106 77.1808 82.4854 77.0287 81.6166ZM79.2454 89.7162C78.6871 88.4929 78.2146 87.2322 77.8314 85.9433C78.3751 85.712 78.9753 85.6476 79.5557 85.7582C81.5927 86.4057 82.9261 89.9397 79.2454 89.7162Z" fill="black"/>
<path d="M98.9962 127.105C100.008 126.491 101.075 125.978 102.14 125.465C105.968 123.621 107.103 123.808 109.827 124.972C111.783 125.807 119.208 128.889 119.966 130.837C120.196 131.431 120.139 131.323 120.189 138.992C120.205 141.545 119.842 141.385 119.596 142.698C119.238 144.601 119.812 145.268 117.571 146.432C114.622 148.096 111.399 149.214 108.053 149.735C107.068 150.025 106.034 150.113 105.014 149.994C103.994 149.874 103.009 149.549 102.118 149.038C100.683 148.359 94.9545 145.05 94.191 143.667C93.7302 142.827 93.8154 142.507 93.6234 135.021C93.4521 128.295 92.8361 130.84 98.9962 127.105Z" fill="#FFC5F6"/>
<path d="M118.562 127.62C107.808 123.063 107.363 122.45 105.315 123.303L95.1764 127.528C94.4495 127.829 93.8284 128.34 93.392 128.995C92.9555 129.649 92.7232 130.419 92.7246 131.206V142.622C92.724 143.409 92.9565 144.178 93.3929 144.833C93.8293 145.488 94.4499 145.998 95.1764 146.301C106.281 150.931 105.776 150.832 106.857 150.832C107.937 150.832 107.285 150.99 118.537 146.301C119.264 145.998 119.884 145.488 120.321 144.833C120.757 144.178 120.989 143.409 120.989 142.622V131.288C120.99 130.506 120.761 129.74 120.329 129.088C119.897 128.435 119.282 127.924 118.562 127.62ZM105.934 124.789C106.227 124.668 106.54 124.606 106.856 124.607C107.173 124.608 107.486 124.672 107.778 124.795C118.872 129.503 118.06 129.134 118.331 129.316L106.862 133.683L95.3922 129.234C95.6702 129.048 94.8668 129.401 105.934 124.789ZM95.7954 144.816C95.3623 144.636 94.9924 144.332 94.7325 143.942C94.4727 143.551 94.3347 143.093 94.3361 142.624C94.3361 130.386 94.2186 130.828 94.6172 130.085L106.322 134.626C106.322 150.663 106.484 149.271 105.944 149.046L95.7954 144.816ZM119.376 142.624C119.377 143.093 119.239 143.551 118.979 143.942C118.72 144.332 118.35 144.636 117.916 144.816L107.771 149.046C107.233 149.271 107.394 150.677 107.394 134.628L119.099 130.173C119.489 130.895 119.381 130.419 119.381 142.624H119.376Z" fill="black"/>
<path d="M54.0406 127.105C55.0522 126.491 56.1191 125.978 57.1844 125.465C61.0118 123.621 62.1478 123.808 64.8715 124.972C66.827 125.807 74.2521 128.889 75.0102 130.837C75.2407 131.431 75.1831 131.323 75.233 138.992C75.2491 141.545 74.8866 141.385 74.64 142.698C74.2821 144.601 74.8566 145.268 72.6153 146.432C69.6669 148.096 66.443 149.214 63.0979 149.735C62.1127 150.025 61.0789 150.113 60.0588 149.994C59.0387 149.874 58.0533 149.549 57.1621 149.038C55.7273 148.359 49.9989 145.05 49.2354 143.667C48.7746 142.827 48.8598 142.507 48.6678 135.021C48.4965 128.295 47.8805 130.84 54.0406 127.105Z" fill="#FFC5F6"/>
<path d="M73.6053 127.69C62.8574 123.132 62.4058 122.52 60.3588 123.373L50.22 127.597C49.4933 127.899 48.8725 128.409 48.4362 129.064C47.9998 129.719 47.7677 130.488 47.769 131.275V142.691C47.7679 143.478 48.0002 144.247 48.4365 144.902C48.8728 145.557 49.4935 146.068 50.22 146.37C61.3251 151 60.8197 150.905 61.9004 150.905C63.0318 150.905 62.8282 150.853 73.5807 146.37C74.3076 146.068 74.9285 145.557 75.365 144.903C75.8014 144.248 76.0337 143.478 76.0325 142.691V131.359C76.0335 130.576 75.8038 129.811 75.3721 129.158C74.9404 128.506 74.3258 127.995 73.6053 127.69ZM60.9787 124.859C61.271 124.738 61.5845 124.676 61.9009 124.677C62.2174 124.678 62.5305 124.742 62.8221 124.865C73.9064 129.565 73.1022 129.204 73.3756 129.386L61.9073 133.754L50.4343 129.303C50.7085 129.119 49.8175 129.512 60.9787 124.859ZM50.8399 144.886C50.4072 144.706 50.0376 144.401 49.7779 144.011C49.5182 143.621 49.3799 143.162 49.3805 142.694C49.3805 130.428 49.2676 130.891 49.6616 130.154L61.3665 134.696C61.3665 150.74 61.5286 149.341 60.9886 149.116L50.8399 144.886ZM74.4202 142.694C74.4212 143.162 74.283 143.621 74.0232 144.011C73.7634 144.402 73.3937 144.706 72.9609 144.886L62.8144 149.116C62.2767 149.341 62.4357 150.748 62.4357 134.698L74.143 130.24C74.5332 130.966 74.4248 130.482 74.4248 142.694H74.4202Z" fill="black"/>
<path d="M111.073 127.789C111.016 126.815 109.619 124.074 108.368 121.54C108.036 120.675 107.396 119.962 106.571 119.539C106.131 119.239 105.628 119.044 105.101 118.969C104.573 118.894 104.036 118.94 103.53 119.106C102.388 119.345 102.624 119.391 102.319 119.022C103.011 118.96 103.353 118.797 103.815 117.904C105.493 114.662 103.881 113.586 103.268 110.991C103.113 109.862 102.819 108.757 102.392 107.7C101.553 105.473 101.431 103.853 98.661 105.424C97.919 105.845 97.8652 106.143 98.1317 106.822C98.5573 107.905 99.7793 111.307 99.5589 112.455C99.5401 112.685 99.4571 112.906 99.3194 113.092C99.1817 113.278 98.9947 113.421 98.7796 113.506C98.5645 113.591 98.3299 113.614 98.1023 113.573C97.8747 113.532 97.6633 113.427 97.4919 113.272C96.1685 112.397 96.1793 111.105 95.9757 110.057C95.713 108.71 94.6538 106.506 93.3258 106.355C92.9987 106.35 92.678 106.446 92.4072 106.63C92.1369 106.814 91.9296 107.076 91.8134 107.382C91.4809 108.792 94.5786 116.686 95.5348 117.784C96.1413 118.431 96.9432 118.861 97.8176 119.008C98.2185 121.318 98.6448 120.384 97.7884 121.005C97.4753 121.338 97.2525 121.746 97.1412 122.19C97.0299 122.633 97.0337 123.098 97.1524 123.54C97.518 125.578 101.021 129.684 101.819 130.229C103.379 131.3 105.38 130.78 104.697 129.016C104.462 128.532 104.166 128.078 103.817 127.667C102.141 125.326 103.693 123.541 104.978 123.904C106.049 124.203 106.284 125.607 106.615 126.379C107.098 127.453 107.805 128.411 108.688 129.19C108.921 129.383 109.207 129.5 109.509 129.524C109.81 129.549 110.112 129.479 110.372 129.326C110.633 129.173 110.84 128.943 110.966 128.668C111.091 128.393 111.129 128.086 111.073 127.789Z" fill="#FDFE1F"/>
<path d="M111.275 126.691C110.989 124.193 108.229 118.294 104.592 118.161C106.201 114.883 103.336 107.531 102.005 105.628C102.18 103.874 98.6873 103.742 98.0168 105.569C97.6005 106.726 99.4446 110.977 99.3517 112.234C99.3171 112.967 98.6973 113.194 98.1228 112.73C97.4276 112.168 96.1841 108.717 95.2624 107.666C95.2383 107.432 95.1682 107.205 95.0561 106.999C94.9441 106.792 94.7924 106.61 94.6096 106.463C94.4269 106.315 94.2167 106.205 93.9913 106.139C93.7659 106.073 93.5296 106.052 93.2961 106.077C91.9573 106.146 91.3759 107.494 91.806 108.074C90.9181 109.025 93.4267 116.168 94.6249 117.913C94.9069 118.371 95.2784 118.767 95.7171 119.078C96.1557 119.389 96.6526 119.608 97.178 119.722C97.3539 120.357 97.4484 120.414 97.3716 120.345C96.9949 120.779 96.7314 121.3 96.6044 121.86C96.4773 122.421 96.4908 123.005 96.6434 123.559C97.1995 125.863 100.883 130.667 101.848 130.384C101.953 130.562 102.104 130.71 102.284 130.811C103.734 131.712 105.995 130.419 104.876 129.015C104.492 127.786 103.259 125.056 104.457 124.881C105.941 124.664 106.648 127.716 107.775 128.658C107.998 129.887 110.957 130.578 111.138 128.965C111.341 128.225 111.388 127.45 111.275 126.691ZM93.3714 111.11C92.3498 107.415 91.7192 108.426 92.24 107.524C92.3513 107.329 92.5121 107.166 92.7062 107.054C92.9003 106.941 93.1207 106.881 93.3452 106.881C93.6613 106.875 93.9742 106.946 94.2565 107.088C94.5388 107.23 94.7821 107.439 94.9651 107.697C94.9444 108.516 96.0044 111.485 96.3039 112.267C96.4376 112.694 96.6626 113.088 96.9637 113.419C97.2656 113.749 97.6358 114.01 98.049 114.182C96.8969 115.214 96.7748 117.178 96.9576 118.626C94.979 116.705 94.2101 114.126 93.3714 111.11ZM104.552 129.327C104.516 129.84 104.496 130.009 103.81 130.238C103.177 130.358 102.527 130.341 101.902 130.188C101.748 129.616 98.3125 124.791 97.9484 123.249C97.8086 122.747 97.8463 122.211 98.0552 121.733C99.026 123.305 100.909 124.874 102.741 124.882C102.393 126.226 103.597 128.595 104.552 129.327ZM110.593 128.804C110.245 129.412 108.835 128.951 108.383 128.696C107.845 128.394 108.239 128.658 107.652 126.895C107.162 125.539 106.589 123.839 104.944 123.565C105.185 123.001 104.991 122.516 104.883 122.542C104.774 122.548 104.755 122.819 104.538 123.14C103.092 125.311 98.2764 122.284 98.1381 117.442C97.9561 113.382 100.429 114.412 100.495 114.331C100.546 114.286 100.475 114.015 100.052 113.777C101.457 112.363 100.108 110.001 99.3609 108.259C99.0874 107.548 98.7134 106.881 98.2503 106.276C98.6197 105.549 99.215 104.97 100.766 105.047C101.166 105.067 101.33 105.264 101.625 105.545C101.373 107.946 105.754 115.938 102.63 118.546C101.97 117.1 101.93 115.234 101.005 114.542C100.19 113.932 100.65 114.926 100.736 115.737C100.943 117.691 100.999 119.392 102.701 120.752C103.222 121.16 103.582 121.349 103.889 121.608C104.497 122.069 104.685 122.499 104.875 122.491C105.201 122.457 104.997 121.566 104.589 120.968C104.221 120.523 103.827 120.1 103.406 119.704C104.528 119.27 105.788 119.474 107.04 120.894C108.275 122.271 111.247 127.597 110.593 128.804Z" fill="black"/>
<path d="M74.6245 110.706C74.1906 110.17 73.5782 109.808 72.8994 109.686C71.1527 109.6 70.9538 113.021 69.8646 114.372C69.0889 115.334 68.0289 115.25 67.7524 114.808C67.5771 114.231 67.5968 113.613 67.8085 113.048C68.2407 112.241 68.5633 111.379 68.7678 110.486C69.0931 109.65 69.1026 108.723 68.7947 107.881C68.4944 107.254 66.972 106.902 66.1586 107.737C65.7914 108.199 65.5288 108.735 65.3905 109.309C64.7468 111.161 61.6691 115.981 64.7661 118.219C64.5779 119.448 64.7015 119.247 64.3275 119.141C61.4149 118.317 57.5829 126.552 57.5806 127.529C57.5982 127.821 57.712 128.1 57.9043 128.321C58.0966 128.541 58.3565 128.693 58.6436 128.75C60.2136 129.085 60.9755 127.291 61.507 126.461C62.3343 125.17 63.3167 125.083 63.7038 125.345C63.9713 125.64 64.1557 126.001 64.238 126.391C64.3203 126.781 64.2976 127.186 64.1723 127.564C63.9473 128.303 63.1792 129.237 63.6999 130.035C64.2453 130.873 64.5525 130.927 65.0764 130.935C66.4712 130.956 65.8898 131.067 67.3184 129.581C68.1977 128.423 68.9954 127.205 69.7056 125.937C70.1958 125.013 70.3277 123.942 70.0759 122.927C69.8241 121.912 69.2065 121.027 68.3415 120.44C68.5335 119.703 68.3876 119.886 68.7678 119.955C70.0613 119.98 71.3252 119.567 72.3548 118.784C73.0953 117.763 73.6588 116.626 74.0215 115.419C74.1559 114.932 74.2274 114.431 74.3595 113.945C74.616 113.022 75.2866 111.712 74.6245 110.706Z" fill="#FDFE1F"/>
<path d="M75.1898 110.732C74.7559 109.473 73.0868 108.766 72.0691 109.702C71.1028 109.869 69.4653 115.099 68.5359 114.717C67.3131 114.289 69.8186 109.801 69.4115 108.309C69.3263 108.037 69.1839 107.785 68.9938 107.572C68.8038 107.359 68.5704 107.189 68.3093 107.073C68.0484 106.957 67.7657 106.897 67.4801 106.898C67.1945 106.9 66.9124 106.962 66.6525 107.08C65.687 107.567 60.0331 114.63 63.647 118.669C61.4195 119.043 60.5746 120.322 59.5707 121.959C58.8257 123.2 57.0806 126.542 57.2788 127.926C57.4585 129.322 59.6898 129.738 60.2966 128.68C60.6806 128.656 61.4426 127.922 62.1039 126.937C62.2313 126.682 62.437 126.474 62.691 126.344C62.9451 126.214 63.234 126.168 63.5156 126.214C65.1878 126.721 62.8889 129.168 63.488 129.728C63.5268 130.012 63.6337 130.283 63.7995 130.517C63.9653 130.752 64.1851 130.943 64.4404 131.074C64.6956 131.206 64.9789 131.273 65.266 131.271C65.5531 131.269 65.8354 131.198 66.0887 131.062C67.5481 130.222 72.139 124.561 69.9246 121.063C73.1598 120.656 74.0024 117.655 74.6975 114.706C74.802 114.244 75.5109 111.08 75.1898 110.732ZM60.0531 128.438C58.9063 128.637 58.2496 128.482 57.6582 127.479C58.8103 126.314 61.0677 121.405 62.3935 120.557C62.8705 120.249 63.4102 120.051 63.9734 119.978C63.8713 120.45 63.6895 120.901 63.4358 121.312C62.0217 123.565 62.6861 125.003 64.5802 122.011C65.548 120.451 65.4566 118.755 65.7861 117.288C66.0934 115.886 66.5227 115.503 66.3768 115.239C66.1709 114.837 64.7707 115.267 64.3897 117.453C62.2391 114.4 66.6356 109.085 66.3522 107.66C67.2862 107.686 67.9713 107.338 69.0405 108.736C68.1534 109.273 66.4521 113.23 66.8791 114.672C66.7393 114.749 66.4098 115.029 66.4897 115.176C66.5773 115.339 66.9674 115.259 67.2155 115.319C68.9468 115.319 67.9345 125.082 64.3736 124.958C63.1278 124.892 63.2099 123.759 62.9311 123.74C62.7499 123.709 62.4326 124.254 62.65 124.925C61.1476 125.331 59.9701 127.707 60.0531 128.438ZM66.2278 130.503C65.1809 130.536 64.7999 130.6 63.9235 129.686C64.5238 129.345 64.9886 128.807 65.2403 128.164C65.4919 127.521 65.5152 126.811 65.3061 126.153C67.2524 125.719 68.1979 123.623 68.7394 121.706C70.5275 124.27 66.6372 128.296 66.2278 130.502V130.503ZM74.1898 112.423C72.6974 116.274 72.6743 119.764 69.2118 119.768C69.4617 118.518 69.4307 117.227 69.1212 115.99C70.6312 115.483 71.851 112.428 72.1736 110.869C72.371 109.852 72.1321 110.092 72.5576 110.005C72.9629 109.982 73.3676 110.059 73.7371 110.227C74.1065 110.395 74.4297 110.65 74.6791 110.971C74.868 111.18 74.8035 110.839 74.1898 112.423Z" fill="black"/>
</svg>
