<svg width="154" height="155" viewBox="0 0 154 155" fill="none" xmlns="http://www.w3.org/2000/svg">
<path d="M114.631 100.766C108.342 89.1675 113.11 91.0662 111.366 55.4276C111.325 54.5919 111.729 55.1296 111.388 54.0159C111.4 52.2562 111.337 50.1939 109.904 49.1569C109.29 48.7145 111.254 48.4657 82.7759 48.5425C80.7523 48.4563 78.7256 48.4717 76.7034 48.5886C72.7239 48.7222 70.3459 48.5048 70.1501 48.5755C67.438 48.5824 67.7275 48.6262 67.7091 48.448C66.6576 48.3981 66.8219 48.352 66.4502 48.5847C44.0143 48.6431 48.1412 46.2559 48.8609 65.6908C49.6797 87.7227 50.6583 88.6567 49.629 93.137C48.5337 97.8884 45.1234 103.415 44.6195 106.385C44.3469 107.998 44.4275 107.523 47.0582 134.617C47.1489 135.552 47.4238 135.897 48.5944 135.829C51.9502 135.634 55.3728 135.155 58.671 135.682C64.1544 136.558 99.5979 135.525 113.259 135.71C113.971 111.008 119.295 109.37 114.631 100.766Z" fill="#FFC5F6"/>
<path d="M47.135 106.256C122.517 106.256 114.532 105.859 116.301 107.183L113.061 135.776H47.1357L44.0634 108.018C44.0634 108.018 42.783 106.256 47.1357 106.256H47.135Z" fill="#92FCFF"/>
<path d="M86.325 93.2407C85.9596 93.2765 85.6114 93.4131 85.3191 93.6353C85.0268 93.8574 84.802 94.1564 84.6697 94.4988C84.4152 95.1867 84.2928 95.9163 84.3087 96.6495C84.1743 99.9838 84.0361 100.786 84.5392 101.536C86.0354 103.77 92.5396 101.871 96.4376 102.604C98.8341 103.055 101.376 102.715 103.815 102.715C108.285 102.715 107.316 100.297 106.929 95.608C106.596 91.5763 99.1989 93.7876 90.5925 93.2069C87.8489 93.0187 89.3873 93.1831 86.325 93.2407Z" fill="#FDFE1F"/>
<path d="M74.6739 93.2243C75.4197 93.6504 76.0292 94.2795 76.4313 95.0385C76.6203 95.5101 76.6065 95.7897 76.7693 98.5802C76.8461 99.8805 76.8845 101.437 75.717 102.245C74.4251 103.136 74.124 102.273 65.7487 102.51C61.1202 102.641 60.0034 102.341 56.5486 102.751C55.3488 102.893 54.9939 102.785 54.2489 101.785C53.9896 101.506 53.8027 101.167 53.7044 100.799C53.6062 100.43 53.5995 100.043 53.6851 99.6716C54.0354 95.7851 54.0254 95.0131 54.4862 94.2013C54.6501 93.8755 54.9114 93.6088 55.2337 93.4383C55.5561 93.2677 55.9236 93.2018 56.2851 93.2496C57.7967 93.5983 59.4558 93.235 61.0042 93.3379C70.7513 93.987 73.309 92.6997 74.6739 93.2243Z" fill="#FDFE1F"/>
<path d="M86.2265 110.946C85.5552 110.194 82.5197 110.025 82.4007 111.219C81.7862 117.384 82.0343 123.599 82.2855 129.79C82.3346 130.997 82.6695 131.566 84.4546 131.498C86.2396 131.431 86.4516 131.557 86.5476 130.849C86.7511 130.14 86.9078 129.418 87.0154 128.688C85.7511 117.214 87.6767 112.568 86.2265 110.946Z" fill="#FDFE1F"/>
<path d="M54.0202 66.3332C54.852 83.3349 54.9565 84.954 56.1816 85.8066C57.5058 86.7283 59.1772 85.6653 79.2827 86.2521C80.3711 86.2844 98.6455 86.2905 103.401 86.1277C106.844 86.0102 106.446 85.7482 106.199 57.1546C106.184 55.4648 105.863 54.5815 103.657 54.1667C97.743 53.0522 85.3829 54.5415 80.4963 54.3472C78.6413 54.2704 76.791 54.0914 74.9345 54.0707C71.7539 54.0361 68.5732 54.4762 65.3979 54.285C62.0091 54.0807 57.8645 52.9977 54.5394 54.828C52.9249 55.7152 53.5394 56.4932 54.0202 66.3325V66.3332Z" fill="#FDFE1F"/>
<path d="M75.0758 71.1175C74.7332 72.6306 74.2194 72.1306 78.6743 71.6644C79.5123 71.5768 78.5591 75.8443 78.0844 80.2263C77.9093 81.8393 78.099 83.7065 77.7541 85.2957C77.4661 86.6268 78.2757 86.2174 82.037 85.7895C82.2513 85.2749 82.408 84.738 82.5048 84.1896C82.6292 83.2979 82.706 82.4007 82.7352 81.5013C83.3443 77.0402 83.7737 73.3112 84.3597 68.347C82.9119 68.5267 81.4594 68.6696 80.0039 68.7771C79.9854 67.3815 80.1713 68.1488 83.5286 55.2034C83.9572 53.552 79.5077 54.1688 78.7757 54.3493C78.5007 54.4169 78.4408 54.4952 78.3917 54.7541C78.2344 56.1334 78.0036 57.5033 77.7004 58.858C77.2349 60.385 76.1688 66.2808 75.075 71.1167L75.0758 71.1175Z" fill="white"/>
<path d="M107.558 100.066C107.558 99.9893 107.345 95.3808 107.221 94.8293C107.104 94.3088 106.826 93.8385 106.426 93.4856C106.026 93.1326 105.525 92.915 104.994 92.8637C104.677 92.8468 102.779 92.8545 86.8154 92.8545C83.8813 92.8545 83.9873 95.0866 83.866 96.9784C83.3959 104.275 82.147 102.956 105.05 102.956C105.592 102.942 106.116 102.758 106.549 102.431C106.981 102.103 107.3 101.648 107.46 101.13C107.566 100.786 107.6 100.423 107.558 100.066ZM106.329 101.561C105.578 102.416 106.489 102.165 86.2048 102.165C85.9521 102.156 85.7042 102.094 85.477 101.983C85.2499 101.872 85.0488 101.714 84.8868 101.52C84.7245 101.326 84.6049 101.101 84.5358 100.857C84.4667 100.614 84.4497 100.359 84.4858 100.109C84.5265 99.3887 84.2884 100.634 86.6065 100.621C99.0365 100.45 98.2815 99.9294 87.8093 99.762C86.1311 99.7389 85.9429 99.7758 85.575 99.5891C85.271 99.4162 85.0275 99.1539 84.8776 98.8379C84.7284 98.5217 84.6802 98.1672 84.7393 97.8225C84.8745 95.4776 84.5757 93.7855 86.8131 93.787C105.958 93.7985 104.765 93.787 104.913 93.7931C105.247 93.8314 105.56 93.9719 105.811 94.1953C106.062 94.4188 106.237 94.7142 106.313 95.0413C106.386 95.5866 106.427 96.1358 106.439 96.6858C106.525 97.9915 106.73 99.04 105.72 99.5692C105.263 99.7996 105.111 99.7428 103.57 99.7658C93.6614 99.9309 92.5093 100.45 104.742 100.618C105.111 100.663 105.485 100.621 105.835 100.497C106.185 100.372 106.501 100.167 106.758 99.8987C106.821 101.068 106.524 101.341 106.331 101.561H106.329Z" fill="black"/>
<path d="M77.1265 100.066C76.8792 95.4422 77.1926 93.376 74.8223 92.9006C74.4743 92.8338 75.7332 92.6133 56.6255 92.8545C55.9616 92.7738 55.2895 92.9113 54.7106 93.2462C54.346 93.4823 54.0468 93.8063 53.8405 94.1885C53.6341 94.5707 53.5274 94.9987 53.5301 95.433C53.0692 100.614 53.0538 101.123 53.8949 102.082C54.9825 103.323 54.6545 102.956 74.6134 102.956C74.9737 102.947 75.3282 102.863 75.6544 102.71C75.9807 102.557 76.2714 102.337 76.5082 102.065C76.7447 101.793 76.9218 101.475 77.0283 101.131C77.1347 100.787 77.1682 100.424 77.1265 100.066ZM75.8976 101.56C75.1487 102.414 76.0666 102.165 55.7736 102.165C55.521 102.156 55.2731 102.094 55.0461 101.983C54.819 101.872 54.6178 101.714 54.4557 101.52C54.2935 101.326 54.174 101.1 54.1049 100.857C54.0358 100.614 54.0187 100.359 54.0547 100.109C54.0892 99.4662 54.0232 100.598 55.7967 100.622C63.5483 100.728 69.0462 100.144 61.3362 99.8656C54.1399 99.6052 56.1899 99.8449 55.5555 99.722C54.8565 99.6321 54.2336 98.9977 54.3081 97.8018C54.4702 95.2071 54.1107 93.7677 56.6262 93.7854C75.5796 93.9214 74.396 93.7716 74.6433 93.8146C76.3615 94.1648 75.8408 96.1826 76.0827 97.834C76.1407 98.1738 76.0936 98.5231 75.9477 98.8354C75.8018 99.1476 75.564 99.4079 75.2662 99.5814C74.9509 99.7249 74.6032 99.7821 74.2585 99.7473C62.1834 99.9148 62.5505 100.432 73.0703 100.604C74.416 100.622 75.4513 100.826 76.3239 99.9025C76.383 100.916 76.2179 101.2 75.9022 101.56H75.8976Z" fill="black"/>
<path d="M58.8159 98.9171C58.3225 98.9159 57.8497 98.7192 57.501 98.37C57.1523 98.0209 56.9562 97.5479 56.9556 97.0545C56.802 94.7586 59.2767 93.9468 60.3275 95.4269C60.3577 95.4693 60.3794 95.5172 60.3911 95.568C60.4028 95.6188 60.4044 95.6714 60.3958 95.7227C60.3872 95.7741 60.3686 95.8233 60.341 95.8675C60.3134 95.9117 60.2773 95.95 60.2349 95.9803C60.1925 96.0105 60.1446 96.0322 60.0938 96.0439C60.043 96.0556 59.9904 96.0572 59.9391 96.0486C59.8877 96.04 59.8385 96.0214 59.7943 95.9938C59.7501 95.9662 59.7118 95.9301 59.6815 95.8877C59.0732 95.0298 57.6507 95.5528 57.7452 97.0053C57.8558 98.6874 60.0825 98.1905 59.7768 97.3763C59.594 96.8885 58.4288 97.5806 58.4288 96.8087C58.4288 96.4047 58.8036 96.4177 59.0678 96.4047C61.3291 96.294 60.9704 98.9171 58.8159 98.9171Z" fill="black"/>
<path d="M63.826 98.1283C62.4611 96.9155 62.6969 97.6214 63.2752 96.9716C63.4034 96.8198 63.497 96.642 63.5497 96.4505C63.6024 96.2589 63.6128 96.0582 63.5803 95.8623C63.5478 95.6663 63.4731 95.4797 63.3614 95.3154C63.2497 95.1512 63.1037 95.0131 62.9334 94.9108C62.641 94.7468 62.317 94.647 61.9829 94.6181C61.6489 94.5893 61.3125 94.632 60.9963 94.7434C60.5908 94.9738 60.9456 95.1458 61.1254 98.4648C61.1311 98.5697 61.1783 98.668 61.2565 98.7381C61.3347 98.8083 61.4375 98.8445 61.5424 98.8388C62.0517 98.8104 61.9073 98.2121 61.8666 97.656C63.1408 98.4379 63.2491 98.8204 63.5648 98.8204C63.6451 98.8202 63.7234 98.7957 63.7894 98.75C63.8553 98.7043 63.9059 98.6396 63.9342 98.5645C63.9625 98.4894 63.9674 98.4074 63.948 98.3295C63.9287 98.2516 63.8861 98.1815 63.826 98.1283ZM61.7921 96.7826C61.7491 96.3253 61.6978 95.8687 61.6384 95.4131C63.107 95.2964 63.2514 96.7127 61.7921 96.7826Z" fill="black"/>
<path d="M66.7571 97.8626C65.0327 97.8257 65.3461 98.3365 65.2593 97.1168C66.3285 97.0553 66.8577 97.1383 66.8285 96.6298C66.8008 96.1528 66.4106 96.2581 65.2017 96.3279C65.118 95.2764 65.0158 95.45 65.4882 95.4393C66.0258 95.427 66.7102 95.5099 66.668 94.9784C66.628 94.4653 66.0151 94.6358 65.4705 94.6474C64.4236 94.6712 64.4359 94.7564 64.5127 94.7242C63.9505 94.9838 64.8161 99.1691 64.5895 98.54C64.6178 98.6353 64.681 98.7164 64.7664 98.7672C64.8518 98.818 64.9531 98.8348 65.0504 98.8143C66.5988 98.4917 67.1373 98.8749 67.1488 98.2681C67.15 98.2157 67.1408 98.1636 67.1217 98.1147C67.1026 98.0659 67.0741 98.0213 67.0376 97.9835C67.0012 97.9458 66.9576 97.9157 66.9095 97.8949C66.8613 97.8742 66.8095 97.8632 66.7571 97.8626Z" fill="black"/>
<path d="M69.8185 97.8626C68.0957 97.8257 68.4075 98.3358 68.3215 97.1168C69.3899 97.0553 69.9191 97.1383 69.8899 96.6298C69.8623 96.1429 69.436 96.2596 68.2631 96.328C68.1802 95.2764 68.078 95.45 68.5496 95.4393C69.0873 95.427 69.7717 95.5107 69.7302 94.9784C69.6902 94.4661 69.0865 94.6359 68.532 94.6474C67.4851 94.6712 67.4973 94.7564 67.5742 94.7242C67.0119 94.9838 67.8814 99.1691 67.651 98.5401C67.6795 98.6352 67.7426 98.7162 67.828 98.7669C67.9133 98.8177 68.0146 98.8346 68.1118 98.8143C69.6595 98.4917 70.198 98.875 70.2095 98.2682C70.2107 98.2158 70.2015 98.1637 70.1825 98.1149C70.1635 98.0661 70.1349 98.0215 70.0986 97.9838C70.0622 97.9461 70.0188 97.916 69.9707 97.8952C69.9226 97.8744 69.8709 97.8633 69.8185 97.8626Z" fill="black"/>
<path d="M73.4188 96.3217C73.3923 96.004 73.2881 95.6977 73.1155 95.4297C72.9428 95.1617 72.7069 94.9402 72.4286 94.7848C72.1502 94.6293 71.838 94.5447 71.5192 94.5382C71.2005 94.5318 70.8851 94.6038 70.6007 94.7479C70.3572 95.0397 70.7781 98.7273 70.6975 98.4431C70.7305 98.5591 70.7405 98.7373 71.3311 98.7373C72.9311 98.7373 73.5932 98.1651 73.4188 96.3217ZM72.4518 97.6881C72.1609 97.896 71.8027 97.9872 71.4479 97.9439C71.3818 96.9615 71.3665 96.4077 71.3096 95.38C71.6522 95.337 71.9986 95.4161 72.2882 95.6043C72.5001 95.9049 72.6272 96.2571 72.656 96.6237C72.6848 96.9904 72.6142 97.3581 72.4518 97.6881Z" fill="black"/>
<path d="M102.243 98.1745C100.883 96.9655 101.116 97.6629 101.691 97.0177C101.819 96.8658 101.913 96.688 101.966 96.4966C102.018 96.3052 102.029 96.1046 101.997 95.9086C101.965 95.7124 101.891 95.5256 101.779 95.3612C101.667 95.1968 101.521 95.0588 101.35 94.9569C101.059 94.7942 100.736 94.6948 100.403 94.6651C100.07 94.6355 99.7353 94.6763 99.4194 94.7849C99.0261 94.9531 99.3579 95.1428 99.5407 98.5101C99.548 98.6143 99.5955 98.7116 99.6732 98.7814C99.7509 98.8512 99.8527 98.888 99.957 98.8842C100.466 98.8435 100.323 98.2582 100.281 97.7021C101.557 98.4856 101.664 98.8658 101.979 98.8658C102.039 98.865 102.098 98.8509 102.152 98.8244C102.205 98.7979 102.252 98.7598 102.289 98.7128C102.326 98.6657 102.352 98.611 102.364 98.5527C102.377 98.4944 102.377 98.4339 102.363 98.3757C102.344 98.298 102.302 98.2279 102.243 98.1745ZM100.209 96.8288C100.165 96.3712 100.114 95.9144 100.055 95.4585C101.521 95.3433 101.662 96.7597 100.205 96.8288H100.209Z" fill="black"/>
<path d="M91.4238 96.676C91.3953 96.1891 90.9691 96.3058 89.7962 96.3734C89.7132 95.3219 89.6118 95.4955 90.0835 95.4855C90.6211 95.4732 91.3055 95.5562 91.2632 95.0247C91.2225 94.5123 90.6234 94.6821 90.0658 94.6944C89.459 94.7082 88.8269 94.6368 88.8868 95.1683C89.2263 98.193 88.9636 98.9235 89.5965 98.8643C90.1572 98.8136 89.9183 98.0509 89.8546 97.1622C90.9222 97.1008 91.4537 97.1838 91.4238 96.676Z" fill="black"/>
<path d="M94.5483 97.9079C92.8247 97.8726 93.1381 98.3818 93.0513 97.1621C94.1197 97.1007 94.6497 97.1836 94.6205 96.6759C94.5921 96.1889 94.1773 96.3049 92.9929 96.3733C92.91 95.3218 92.8078 95.4954 93.2802 95.4854C93.8179 95.4731 94.5022 95.556 94.46 95.0245C94.4193 94.5091 93.8002 94.6827 93.2625 94.6942C92.6112 94.7088 92.2778 94.6712 92.1381 94.9201C92.1227 96.2089 92.2402 97.4955 92.4891 98.7605C92.5357 98.8026 92.5915 98.8332 92.652 98.85C92.7125 98.8668 92.7761 98.8693 92.8378 98.8573C94.3886 98.5408 94.9255 98.9195 94.937 98.3112C94.9374 98.2331 94.9152 98.1566 94.8731 98.0909C94.831 98.0252 94.7707 97.9731 94.6996 97.941C94.6519 97.92 94.6004 97.9088 94.5483 97.9079Z" fill="black"/>
<path d="M98.803 98.3018C97.2991 94.5927 97.4066 94.6265 97.0518 94.615C96.9745 94.6123 96.8981 94.6328 96.8326 94.6739C96.767 94.715 96.7152 94.7747 96.6838 94.8454C96.1763 95.995 95.7974 97.1972 95.554 98.4301C95.5463 98.4863 95.5506 98.5435 95.5666 98.5979C95.5827 98.6523 95.61 98.7027 95.6469 98.7458C95.6839 98.7889 95.7299 98.8235 95.7816 98.8471C95.8334 98.8707 95.8896 98.8828 95.9465 98.8825C96.3774 98.8825 96.3374 98.4316 96.4427 98.0122L97.8007 97.9354L98.0695 98.5991C98.0887 98.6474 98.1174 98.6915 98.1538 98.7287C98.1902 98.7659 98.2337 98.7955 98.2816 98.8158C98.3295 98.8361 98.381 98.8467 98.4331 98.8469C98.4852 98.8472 98.5367 98.8371 98.5849 98.8172C98.6332 98.7979 98.6773 98.7693 98.7145 98.7329C98.7517 98.6965 98.7813 98.653 98.8016 98.6051C98.8219 98.5571 98.8325 98.5056 98.8327 98.4536C98.833 98.4015 98.8229 98.3499 98.803 98.3018ZM96.667 97.2088C96.7791 96.8248 96.8974 96.4592 97.0402 96.0605L97.4865 97.1612L96.667 97.2088Z" fill="black"/>
<path d="M106.288 54.2781C104.872 52.8379 107.974 53.2704 56.2142 53.2704C55.7583 53.2699 55.307 53.3619 54.8876 53.5408C54.4682 53.7198 54.0894 53.9819 53.7742 54.3114C53.459 54.6409 53.2139 55.0308 53.0538 55.4577C52.8936 55.8847 52.8217 56.3396 52.8423 56.7951L54.0367 83.7835C54.0742 84.6525 54.446 85.4733 55.0745 86.0745C55.7031 86.6757 56.5396 87.0107 57.4094 87.0095H103.348C104.232 87.0049 105.079 86.6556 105.71 86.0359C106.34 85.4162 106.703 84.575 106.723 83.6913C107.248 54.6798 107.676 55.6898 106.288 54.2781ZM81.4522 85.428H78.1017C79.6141 69.7006 79.3944 71.3258 79.1271 71.3566C74.8819 71.8412 75.2375 71.8328 75.2567 71.756C75.9688 68.8295 78.0672 59.687 79.0035 54.8526H82.4983C81.8178 57.8297 81.3462 60.283 79.3967 69.2159C81.5727 68.8319 82.3477 68.8319 84.1251 68.5799C83.175 74.8091 81.7748 83.2251 81.4522 85.428ZM55.6197 83.7144C54.314 54.3841 54.1604 56.1968 54.9185 55.4064C55.6766 54.616 54.4146 54.8526 77.6801 54.8526C76.5786 61.4367 76.4511 64.0205 74.5217 72.3651C74.4817 72.5371 74.1853 72.4496 78.4551 72.0901C78.8537 72.1439 77.2638 81.3924 76.7868 85.4303H57.4094C56.9475 85.4299 56.5035 85.2513 56.1701 84.9316C55.8367 84.6119 55.6395 84.1759 55.6197 83.7144ZM105.142 83.6637C105.133 84.1338 104.94 84.5816 104.605 84.9116C104.27 85.2417 103.82 85.4278 103.35 85.4303H82.774C83.3017 81.2519 83.7165 76.4989 84.8064 67.8863C83.2487 68.146 83.4192 68.0999 80.7824 68.3641C79.757 68.4816 80.1234 69.8688 83.8455 54.8549H103.882C104.24 54.8549 104.59 54.9621 104.886 55.1626C105.183 55.3631 105.413 55.6479 105.546 55.9802C105.635 56.2006 105.678 56.4364 105.675 56.6745L105.142 83.6637Z" fill="black"/>
<path d="M85.4686 131.987H83.2642C82.7956 131.987 82.3463 131.802 82.0152 131.47C81.8511 131.306 81.7208 131.111 81.632 130.897C81.5431 130.683 81.4975 130.453 81.4976 130.221V111.496C81.4985 111.028 81.6846 110.579 82.0152 110.247C82.1791 110.083 82.3738 109.953 82.5881 109.864C82.8024 109.775 83.0322 109.73 83.2642 109.73H85.4686C85.7006 109.729 85.9304 109.775 86.1447 109.864C86.3591 109.953 86.5537 110.083 86.7175 110.247C86.8817 110.411 87.012 110.606 87.1008 110.82C87.1897 111.035 87.2353 111.264 87.2352 111.496V130.224C87.2338 130.692 87.0471 131.14 86.716 131.47C86.3849 131.801 85.9364 131.987 85.4686 131.987ZM83.2642 111.052C82.6274 111.052 82.8202 110.035 82.8202 130.224C82.8202 130.792 83.2887 130.669 85.4686 130.669C86.1053 130.669 85.9133 131.686 85.9133 111.496C85.9133 110.929 85.444 111.052 83.2642 111.052Z" fill="black"/>
<path d="M77.4125 117.271C72.4967 117.231 69.8369 117.131 69.8438 117.675C69.8514 118.252 73.3946 118.169 77.3956 118.201C80.7437 118.228 80.7729 117.298 77.4125 117.271Z" fill="black"/>
<path d="M76.6347 120.363C70.9316 120.338 66.7263 120.216 66.7378 120.786C66.7493 121.357 71.3871 121.271 76.6216 121.293C81.0059 121.312 81.0281 120.381 76.6347 120.363Z" fill="black"/>
<path d="M76.6347 123.582C70.9316 123.558 66.7263 123.434 66.7378 124.005C66.7493 124.577 71.3556 124.491 76.6216 124.512C81.0143 124.531 81.0197 123.601 76.6347 123.582Z" fill="black"/>
<path d="M116.842 105.12C112.003 90.8698 112.179 91.6325 112.179 90.8045C112.179 48.8499 112.672 50.6334 110.985 48.9513C109.281 47.2484 112.783 47.7561 51.4917 47.8168C50.9407 47.8176 50.3955 47.9303 49.8893 48.148C49.383 48.3656 48.9263 48.6839 48.5467 49.0833C48.1671 49.4827 47.8725 49.9551 47.6808 50.4717C47.4891 50.9884 47.4044 51.5386 47.4316 52.0889C49.5124 94.0658 49.5124 91.0703 49.0945 92.1011C45.7771 100.279 47.1743 96.9055 42.8691 107.048L46.4216 136.474C77.4793 136.474 74.7771 136.66 113.766 136.66C117.374 105.255 117.368 106.669 116.842 105.12ZM49.0139 52.0098C48.9968 51.6734 49.0483 51.3369 49.1652 51.021C49.2822 50.7051 49.4622 50.4162 49.6942 50.1719C49.9262 49.9277 50.2055 49.7332 50.515 49.6002C50.8246 49.4672 51.1579 49.3985 51.4948 49.3983C119.896 49.3269 106.193 49.3423 108.111 49.3423C108.437 49.3422 108.761 49.4064 109.062 49.5313C109.364 49.6562 109.638 49.8393 109.869 50.0702C110.1 50.3011 110.283 50.5752 110.408 50.8769C110.533 51.1786 110.598 51.502 110.598 51.8286V90.5933C104.023 90.6309 91.0614 91.1041 80.7882 91.1125C71.3031 91.1202 57.4598 90.6286 50.9326 90.5933L49.0139 52.0098ZM50.6583 92.439C57.4014 92.4144 71.1172 91.909 80.7882 91.919C83.8951 91.919 110.843 92.3676 110.868 92.4444L115.289 105.465H45.2617C45.2948 105.385 50.0469 94.2225 50.6568 92.439H50.6583ZM115.514 107.105C115.078 111.546 115.643 106.455 112.356 135.077C76.5783 135.077 76.3648 134.891 47.8494 134.891L44.943 107.048C118.91 107.048 115.522 107.016 115.513 107.105H115.514Z" fill="black"/>
<path d="M133.673 90.2123C130.239 95.0674 125.577 99.6599 125.269 99.6821C124.794 99.7105 123.871 92.2532 123.818 91.7762C122.143 93.102 120.582 94.5665 119.153 96.1543L116.225 88.9158C114.052 83.5392 115.498 82.9923 116.187 84.3587C117.396 86.7587 118.5 89.2102 119.496 91.7063C121.975 90.2024 123.183 87.1884 125.555 85.5247C125.295 85.706 126.181 89.3206 126.26 89.7738C126.797 92.8684 126.658 93.307 127.478 92.4421C135.244 84.265 137.613 80.2863 137.564 82.4285C137.53 83.8891 137.367 85.3438 137.078 86.7759C136.269 90.7846 136.657 94.953 136.347 99.0131C136.177 101.241 135.63 113.307 136.314 113.966C136.611 114.251 137.095 114.11 137.503 114.164C137.803 114.216 138.073 114.38 138.258 114.622C138.443 114.864 138.53 115.167 138.502 115.47C138.414 116.136 138.002 116.431 135.19 119.406C134.26 120.39 133.643 120.411 132.843 119.383C132.212 118.573 129.492 114.864 130.237 114.154C130.586 113.823 132.135 113.847 132.618 113.889C132.885 111.799 133.818 93.0842 133.798 92.4314C133.789 92.0104 133.442 90.538 133.673 90.2123Z" fill="#FFC5F6"/>
<path d="M136.864 82.6719C136.864 82.6719 135.496 108.742 135.315 114.531L137.55 114.633C137.666 114.638 137.78 114.677 137.877 114.743C137.973 114.81 138.048 114.902 138.095 115.01C138.142 115.117 138.158 115.235 138.141 115.351C138.124 115.467 138.074 115.576 137.998 115.665L134.619 119.634C134.558 119.706 134.481 119.763 134.395 119.801C134.309 119.839 134.215 119.857 134.121 119.854C134.027 119.85 133.934 119.826 133.851 119.782C133.767 119.739 133.695 119.677 133.639 119.601L130.467 115.333C130.399 115.24 130.357 115.13 130.347 115.015C130.338 114.9 130.36 114.784 130.411 114.681C130.463 114.577 130.543 114.491 130.641 114.43C130.739 114.369 130.852 114.336 130.968 114.335C131.049 114.335 131.936 114.379 133.209 114.437C133.483 105.728 133.948 99.3702 134.5 88.5731C131.035 92.5733 128.87 95.0451 125.494 98.9093C124.683 94.2701 124.083 90.9657 124.08 90.7991C124.076 90.4465 124.216 90.3382 123.203 91.3505C120.848 93.6994 121.293 93.2278 119.22 95.4084C116.731 90.0095 115.031 84.3863 115.417 84.2565C115.721 84.1551 118.427 90.7353 119.451 92.475C119.703 92.9036 119.528 92.8161 120.044 92.2446C122.441 89.5847 120.847 91.4489 125.277 86.4839C126.935 96.2295 126.646 94.0803 126.833 94.0803L126.766 94.3161C126.808 94.32 136.484 82.9484 136.864 82.6719ZM136.322 81.9245C135.952 82.1926 127.313 92.2507 127.247 92.3283C126.78 90.0386 126.727 89.5256 125.864 84.4416C120.326 90.6462 122.511 88.1668 119.807 91.1324C116.708 84.7749 116.487 82.9246 115.117 83.3808C114.125 83.7104 114.326 84.7342 115.108 87.3473C116.139 90.6679 117.423 93.9046 118.949 97.029C121.934 93.8875 121.308 94.5235 123.411 92.4397C123.619 93.6686 123.271 91.5764 124.914 100.97L133.44 91.2031C132.965 100.127 132.572 105.93 132.317 113.469C130.891 113.405 131.042 113.41 130.969 113.409C130.681 113.409 130.4 113.489 130.156 113.641C129.911 113.791 129.713 114.007 129.584 114.263C129.455 114.52 129.401 114.808 129.426 115.094C129.451 115.379 129.555 115.653 129.727 115.883C134.578 122.412 133.478 122.397 138.704 116.267C138.845 116.102 138.95 115.91 139.011 115.702C139.073 115.494 139.09 115.275 139.062 115.06C139.034 114.845 138.961 114.638 138.847 114.453C138.734 114.268 138.583 114.109 138.405 113.986C138.166 113.822 137.886 113.727 137.597 113.713L136.269 113.65C137.453 78.4251 138.928 80.0335 136.322 81.9245Z" fill="black"/>
<path d="M133.676 128.336C132.349 127.685 130.896 127.332 129.418 127.303C128.889 127.276 128.508 127.102 128.461 127.52C128.354 122.555 123.29 118.958 120.284 115.579C118.613 113.547 116.84 111.6 114.971 109.747C111.653 106.705 111.116 108.96 106.746 109.011C106.076 109.019 106.536 109.246 105.427 107.663C105.024 107.085 104.588 106.53 104.121 106C103.295 105.066 102.325 103.793 100.948 103.903C97.7517 104.161 91.9618 110.97 100.398 121.384C98.6849 120.189 96.3269 120.884 94.6678 121.835C93.7667 122.312 93.0405 123.063 92.5942 123.98C92.1479 124.897 92.0044 125.932 92.1846 126.935C92.8374 132.677 97.0297 134.049 101.809 135.939C100.793 137.07 102.011 134.957 106.522 141.359C109.15 145.086 113.489 142.784 114.908 145.029C115.606 146.133 115.72 149.692 120.064 150.234C126.11 150.989 133.179 143.148 135.118 139.543C135.625 138.56 135.948 137.492 136.073 136.394C136.216 135.406 136.801 134.529 136.904 133.564C137.092 131.77 135.163 129.171 133.676 128.336Z" fill="white"/>
<path d="M137.47 132.162C136.608 128.245 132.671 126.316 129.028 126.922C127.996 121.633 123.533 117.445 117.76 111.136C115.963 109.173 114.249 107.773 111.479 107.388C110.967 107.284 110.437 107.297 109.93 107.424C109.423 107.551 108.951 107.79 108.548 108.123C107.911 107.929 107.238 107.889 106.582 108.007C106.012 107.126 105.378 106.287 104.687 105.497C101.033 101.529 95.9229 103.269 95.4059 110.202C95.1378 113.794 96.235 117.355 98.4783 120.174C93.8429 119.682 91.1292 122.484 91.2391 126.382C91.5678 133.738 98.8762 134.831 102.722 138.349C105.745 141.082 108.536 145.532 114.283 145.024C114.93 150.487 119.984 153.55 127.378 149.011C132.805 145.717 138.743 138.2 137.47 132.162ZM134.88 137.98C130.689 147.059 117.498 154.9 115.528 144.906C121.658 143.984 124.533 138.737 124.083 138.466C123.657 138.173 121.387 142.476 115.041 143.228C108.907 143.421 108.069 140.694 103.96 136.981C100.242 133.583 96.2385 133.106 94.1647 129.793C91.6723 125.918 92.925 119.785 101.631 122.808L101.784 122.89L101.798 122.865C108.41 125.205 111.466 128.703 111.865 128.325C112.004 128.192 111.245 127.019 109.518 125.493C111.809 126.296 115.996 126.678 109.908 124.644C108.551 124.211 107.482 123.694 106.985 123.561C103.388 121.197 101.562 121.422 99.4223 118.381C96.661 114.464 95.896 106.399 99.9945 105.147C103.535 104.889 103.989 107.503 107.866 111.939C112.663 117.466 118.389 120.95 118.569 120.666C118.811 120.303 112.956 116.855 107.464 109.259C110.929 109.458 114.713 115.276 117.631 117.298C118.296 117.759 118.717 117.933 118.764 117.861C118.864 117.708 117.531 116.622 115.801 114.405C114.776 113.074 113.662 111.815 112.467 110.636C110.785 109.055 110.179 109.074 111.246 109.219C113.474 109.527 114.906 110.74 116.406 112.389C122.46 119.043 130.273 125.838 127.285 133.487C126.961 134.308 126.698 134.753 126.806 134.845C127.064 135.067 129.616 132.718 129.2 128.115C134.042 127.664 137.865 131.449 134.88 137.98Z" fill="black"/>
<path d="M47.2478 122.836C47.8761 117.736 47.6088 112.489 49.0429 107.551C49.5765 106.136 49.9175 104.655 50.0568 103.149C50.1036 99.4617 46.754 97.7028 43.4596 100.921C41.2322 103.094 40.9695 105.02 40.1806 105.865C39.0792 107.044 38.0937 106.39 35.9976 110.978C28.0955 128.281 31.7593 130.663 30.8821 132.743C30.4374 133.796 26.2099 136.838 27.2383 140.621C27.839 142.831 31.3092 146.766 37.013 148.496C41.4603 149.845 51.2381 150.463 53.6806 146.41C55.4879 143.414 53.1644 139.651 53.2635 139.03C53.3941 138.21 54.1968 138.888 58.2653 131.307C63.9623 120.689 64.2464 120.461 64.2418 119.306C64.2249 115.53 54.8097 110.308 46.8216 122.49L48.5521 120.407L47.2478 122.836Z" fill="white"/>
<path d="M65.0259 119.509C64.9567 114.354 55.3026 110.117 48.6026 118.961C49.3753 106.364 52.7034 103.609 50.5612 100.066C48.3737 96.3238 42.7966 98.4299 39.9178 104.861C33.6033 108.963 28.4732 125.737 30.2022 132.765C24.7488 137.775 24.6996 142.443 31.4972 146.863C38.6573 151.746 47.8398 151.183 51.87 148.943C55.2581 147.1 55.0752 142.996 53.7902 139.315C56.6806 137.145 57.5339 134.237 60.6093 128.65C63.5819 123.243 65.0673 121.619 65.0259 119.509ZM62.8053 121.029C62.2077 122.351 62.5803 121.234 58.9902 127.756C54.2726 136.328 54.6927 138.373 47.1616 140.247C44.4848 140.873 42.7466 140.785 42.7113 141.052C42.5723 141.666 48.6494 142.263 52.6965 140.024C53.0254 141.123 53.2045 142.262 53.2288 143.409C53.1919 147.347 50.5404 147.795 48.3184 148.354C45.0947 149.03 41.7572 148.938 38.5759 148.084C35.3946 147.231 32.4589 145.641 30.0063 143.442C27.3464 141.078 26.6475 138.427 30.6415 134.117C31.6754 136.637 33.7008 138.234 36.095 139.557C37.9054 140.505 38.1803 140.377 36.4967 138.961C32.6977 135.645 30.9019 133.949 31.8113 127.021C32.8329 118.936 36.1695 111.709 38.6473 108.562C37.2824 113.876 37.2118 120.687 37.8101 120.613C38.284 120.585 38.655 107.806 43.6422 102.312C47.2476 98.4322 49.8015 100.076 49.3722 103.451C49.1356 105.456 46.8375 111.474 46.647 121.709C46.117 122.477 45.6354 123.199 45.216 123.871C43.6837 126.297 43.0715 127.997 43.2958 128.108C43.6668 128.3 48.0426 122.073 48.4896 122.079C48.4896 121.814 48.3875 122.01 49.3845 120.773C50.4983 119.217 51.8861 117.876 53.4799 116.817C58.1438 114.059 64.6541 116.826 62.8053 121.029Z" fill="black"/>
<path d="M54.9686 129.196C54.5938 128.982 53.2304 132.637 51.8156 134.256C49.675 136.736 47.0435 137.636 47.1357 137.851C47.2025 138.075 50.1181 137.405 52.4117 134.778C53.635 133.111 54.5051 131.211 54.9686 129.196Z" fill="black"/>
<path d="M140.263 63.5134C140.104 60.5462 138.266 57.9417 136.03 56.1098C134.64 54.9722 130.671 53.2164 128.449 54.1895C126.607 54.9332 124.946 56.0625 123.576 57.5015C120.894 60.4971 118.066 66.6203 117.929 72.4524C117.867 75.1146 118.445 76.0893 120.296 77.7622C123.044 80.247 126.304 82.4998 129.846 81.3968C135.787 79.5488 140.556 68.9983 140.263 63.5134Z" fill="#92FCFF"/>
<path d="M140.456 63.1063C140.253 57.7681 133.562 51.6979 127.705 54.0021C121.6 56.3064 117.09 65.777 117.444 72.5653C117.603 76.4957 119.287 77.8821 120.866 79.0941C122.75 80.5251 124.89 81.5842 127.17 82.2149C128.149 82.3431 129.144 82.221 130.062 81.86C136.356 79.6648 140.787 69.9331 140.456 63.1063ZM122.52 78.6632C120.052 77.0218 118.887 75.8336 118.756 72.4985C118.318 64.3406 125.604 51.7386 132.787 55.4799C137.823 58.1237 134.4 68.4683 131.115 73.8081C129.095 77.0717 126.213 79.8361 122.52 78.6632ZM123.953 79.5311C125.531 79.5867 127.08 79.0986 128.341 78.1486C128.861 78.5557 129.411 78.9228 129.987 79.247C130.319 79.4904 130.709 79.7923 131.071 80.0419C128.352 81.5866 126.629 81.0028 123.956 79.5311H123.953ZM131.997 79.4444C130.398 79.1118 130.01 78.9597 129.113 77.5157C130.177 76.5037 131.097 75.3506 131.848 74.0885C134.014 75.259 132.872 74.2559 135.068 76.3351C134.208 77.5205 133.174 78.5688 132.001 79.4444H131.997ZM135.641 75.5325C132.767 74.0808 134.339 74.9065 132.378 73.2052C133.316 71.6088 134.1 69.9268 134.719 68.1818C137.291 69.5506 135.992 68.7472 138.143 70.7043C137.491 72.4009 136.653 74.0202 135.644 75.5325H135.641ZM138.496 69.7457C135.675 68.2756 136.609 68.5083 135.056 67.1833C135.551 65.6004 135.868 63.967 136 62.3136C138.06 62.9204 138.126 63.2645 139.55 64.8368C139.392 66.5084 139.038 68.1557 138.496 69.7449V69.7457ZM139.613 63.6125C136.325 61.5333 136.711 61.6531 136.042 61.2806C136.054 59.2467 135.611 57.0561 134.15 55.6535C137.05 57.2204 139.656 60.3258 139.609 63.6102L139.613 63.6125Z" fill="black"/>
<path d="M124.441 76.6587C130.001 76.1433 134.96 65.3217 133.586 59.9251C132.462 55.613 127.16 54.2666 123.056 61.396C120.675 65.6113 123.469 61.1656 124.734 59.6908C125.373 58.8989 126.135 58.2141 126.991 57.6623C127.498 57.355 128.063 57.1542 128.651 57.0721C129.239 56.99 129.838 57.0282 130.41 57.1846C135.467 58.5955 132.542 69.0485 128.228 73.6831C123.466 78.7533 118.333 75.2523 121.519 65.2603C122.357 62.7094 122.247 62.6849 121.229 65.1543C119.25 70.1023 119.141 77.0612 124.441 76.6587Z" fill="black"/>
<path d="M128.496 59.498C128.287 59.4162 128.073 59.348 127.855 59.2937C127.259 60.4097 126.263 62.9913 125.275 64.9161C124.883 65.6842 122.83 69.0446 122.296 70.4049C123.193 70.7682 123.046 70.5969 122.883 70.9756C122.463 71.9319 122.702 73.021 123.487 71.239C123.579 71.0278 123.525 71.0432 123.685 71.1453C124.572 71.7114 124.58 71.4257 124.448 71.7053C123.628 73.4665 124.53 73.0878 125.044 71.9879C125.198 71.6661 125.085 71.7299 125.351 71.7521C128.035 72.0125 129.192 68.3856 128.33 66.0683C128.13 65.5652 128.015 65.6911 128.396 65.6527C128.919 65.6079 129.421 65.4236 129.849 65.1189C130.276 64.8143 130.614 64.4005 130.828 63.9207C131.041 63.4408 131.122 62.9124 131.061 62.3907C131.001 61.869 130.801 61.3732 130.483 60.9551C131.074 60.164 131.005 59.296 130.808 59.2714C130.624 59.243 130.4 59.7438 130.109 60.3099C129.938 60.6471 130.196 60.4896 129.073 59.8068C129.962 58.3305 129.304 57.8943 128.496 59.498ZM123.935 69.7459C124.429 68.2213 125.028 66.7327 125.728 65.291C126.414 65.5137 127.02 65.9331 127.469 66.4976C128.788 68.6706 127.114 72.8182 123.935 69.7459ZM129.645 61.4505C129.904 61.6131 130.116 61.8407 130.26 62.1108C130.404 62.3809 130.474 62.6839 130.465 62.9898C130.455 63.2959 130.365 63.5941 130.203 63.8541C130.041 64.1142 129.813 64.3268 129.543 64.4706C128.437 65.0851 127.278 64.3892 126.453 64.0275C127.129 62.9068 127.891 61.7654 128.45 60.8729C128.865 61.0296 129.265 61.2224 129.645 61.4505Z" fill="black"/>
<path d="M19.7326 64.8794C17.7202 68.7475 18.7387 71.69 20.5275 75.1042C23.2612 80.3272 24.2858 81.2712 27.2191 83.5708C28.1684 84.3911 29.2305 85.0709 30.3729 85.5894C31.2606 85.9341 32.212 86.0839 33.1626 86.0285C34.1133 85.9731 35.0408 85.7138 35.8824 85.2683C38.2571 83.7491 40.0447 81.4678 40.9518 78.7987C42.8698 71.6662 32.0059 56.839 24.4878 60.1556C22.4441 61.1891 20.7796 62.8425 19.7326 64.8794Z" fill="#92FCFF"/>
<path d="M24.973 59.3137C20.8745 60.1486 17.6862 65.8762 18.0372 70.2874C19.429 79.5982 30.3266 89.4758 35.6817 86.097C37.9773 84.541 39.8872 82.4814 41.2658 80.0752C44.3635 73.1431 33.8429 57.5509 24.973 59.3137ZM21.9928 62.5704C21.3475 64.3881 21.3186 66.3678 21.9107 68.2036C21.3938 68.792 20.9067 69.406 20.4513 70.0431C20.1633 70.3703 19.8138 70.7344 19.4989 71.0808C18.7845 68.3672 20.1133 64.7241 21.9975 62.5704H21.9936H21.9928ZM19.8176 72.2038C20.5089 70.5808 20.724 70.156 22.2194 69.2044C22.7626 70.7603 23.468 72.2548 24.324 73.6631C23.3839 75.0941 23.973 74.9996 22.0197 76.8392C21.1059 75.3861 20.3667 73.8302 19.8176 72.2038ZM22.5512 77.6703C22.8462 77.0712 23.178 76.492 23.5444 75.9344C25.8103 73.6693 23.7518 74.1309 28.2812 78.8531C27.1521 80.6197 28.0869 79.9346 26.023 81.8064C24.7139 80.5618 23.5493 79.1735 22.5512 77.668V77.6703ZM26.735 82.4463C27.9141 80.3017 27.2105 81.3379 29.0101 79.5851C30.0143 80.5835 31.136 81.4563 32.3505 82.1843C31.9534 83.6875 31.7361 84.0193 30.3105 84.7567C29.0121 84.1646 27.8075 83.3854 26.735 82.4439V82.4463ZM31.2768 85.1146C33.2738 82.6045 33.028 82.9885 33.2446 82.6475C34.6105 83.2812 36.1645 83.3788 37.5989 82.9209C34.7831 85.7621 33.4743 85.789 31.2768 85.1123V85.1146ZM40.6659 78.0935C40.3456 79.3378 40.5069 79.2917 39.3041 80.95C39.1018 81.2917 38.8323 81.5888 38.5119 81.8233C38.1915 82.0578 37.8268 82.2248 37.4399 82.3141C34.5265 83.2312 31.8582 81.2718 29.6553 79.135C21.7033 71.4925 18.9743 59.3951 27.2957 60.3429C34.247 61.1586 41.5054 71.4464 40.6659 78.0912V78.0935Z" fill="black"/>
<path d="M36.3103 68.367C34.8355 66.3508 34.6128 66.2241 36.0545 68.5383C41.5264 77.4605 37.8073 82.0429 32.1987 78.3123C28.3528 75.7054 23.2735 68.5168 24.7636 64.4536C25.4618 62.5872 27.3505 61.9911 29.1417 62.528C30.5964 62.9589 32.3861 64.3991 33.4983 65.4253C37.4877 69.1597 32.2056 62.9121 29.3068 61.9934C25.4817 60.7245 21.6858 64.0573 25.1637 71.1491C27.1147 75.1124 32.2524 81.155 36.4777 80.2517C41.3781 79.2017 39.2405 72.4341 36.3103 68.367Z" fill="black"/>
<path d="M31.6014 71.839C32.4525 71.6293 32.772 70.845 33.0677 70.3243C34.057 68.5753 33.7744 68.4717 33.6569 68.2266C30.4124 66.0422 29.1505 65.2272 26.5674 64.1296C27.0166 66.6821 27.744 69.1776 28.7365 71.5717C29.6482 71.925 30.6413 72.0179 31.6014 71.839ZM27.6842 65.4822C29.525 66.43 31.2933 67.5124 32.9748 68.7205C32.8129 69.1417 32.6143 69.5478 32.3811 69.9341C31.9832 70.6407 31.7612 71.6531 29.3517 70.9426C28.6164 69.1821 28.0573 67.353 27.6826 65.4822H27.685H27.6842Z" fill="black"/>
<path d="M30.5236 73.9211C31.3685 74.8175 31.6258 74.9427 32.6597 75.8844C33.6812 76.8161 34.7335 77.7531 36.1007 77.9405C36.898 77.1064 35.7167 71.2144 34.6191 69.0845C34.1882 69.9547 34.0906 70.1344 33.8202 70.785C32.556 73.8113 31.996 72.4134 30.0904 72.5647C28.674 72.6768 29.0435 72.3496 30.5236 73.9211ZM33.2887 73.1269C34.871 71.7167 34.3479 69.9086 34.8326 72.0055C35.2283 73.6544 35.4966 75.3312 35.6352 77.0211C34.6906 76.5872 33.8355 75.9802 33.1144 75.2315C29.5305 71.9733 31.8217 74.4311 33.2857 73.1254L33.2887 73.1269Z" fill="black"/>
<path d="M28.5062 95.8748C26.9585 95.8233 24.9484 95.5046 25.8471 94.2288C28.2282 90.8492 29.4802 89.1102 30.3404 89.5565C30.7498 89.7693 34.2607 94.1074 34.3859 94.6628C34.6555 95.8548 32.7514 96.2588 31.6423 96.0177C30.6115 113.568 30.716 112.505 30.5977 112.597C30.3949 112.754 30.6745 112.866 23.5106 107.067C21.0795 105.097 24.0106 108.55 23.188 125.363C23.1979 125.67 23.1273 125.975 22.9829 126.247C21.2931 128.823 21.2455 118.758 20.8076 114.871C20.3775 111.048 19.3713 107.289 19.2484 103.444C19.1831 101.406 19.3606 99.312 18.7246 97.3764C18.6754 97.7896 22.5282 102.593 27.8725 106.681C27.8856 103.07 28.0976 99.4625 28.5062 95.8748Z" fill="#92FCFF"/>
<path d="M30.0543 90.0356C30.476 90.0356 30.3147 89.9803 33.8425 94.446C33.915 94.5384 33.96 94.6493 33.9726 94.766C33.9851 94.8827 33.9647 95.0007 33.9135 95.1064C33.8624 95.212 33.7827 95.3013 33.6833 95.3639C33.584 95.4265 33.4691 95.46 33.3517 95.4606C33.1835 95.4606 33.9431 95.4706 31.2226 95.4268C30.6413 100.883 30.3682 106.367 30.4046 111.853C24.0686 107.341 22.0408 104.96 22.1176 105.036C22.0347 104.837 22.8005 111.303 22.8281 118.918C22.8512 125.225 22.4441 125.994 22.3396 125.994C21.7873 125.994 21.5231 118.314 19.2895 98.6397C22.7236 102.641 24.2752 104.607 28.2762 107.703C28.4229 107.817 28.2639 103.221 29.1072 95.3899L26.7845 95.3531C26.6675 95.3509 26.5533 95.3161 26.4549 95.2526C26.3565 95.1891 26.2778 95.0994 26.2277 94.9936C26.178 94.8874 26.1589 94.7695 26.1726 94.6531C26.1863 94.5366 26.2323 94.4263 26.3053 94.3346C29.7755 90.0064 29.6342 90.0356 30.0543 90.0356ZM28.8453 89.693C25.5249 93.833 24.8397 94.2248 25.3889 95.3892C25.8897 96.4545 26.8913 96.2817 28.0818 96.3001C27.7649 99.4785 27.5551 102.667 27.4528 105.859C23.9964 102.957 22.0846 100.478 18.0337 95.7586C21.4094 125.484 20.5684 126.933 22.3404 126.918C23.4157 126.908 23.5025 125.693 23.6146 124.166C23.8527 118.58 23.726 112.985 23.2367 107.415C25.7762 109.68 28.4756 111.76 31.314 113.637C31.2457 107.87 31.4924 102.105 32.0529 96.3654C33.2119 96.3839 34.2296 96.5782 34.7466 95.5121C35.3034 94.3599 34.6644 93.9974 31.271 89.7038C31.1267 89.5204 30.9429 89.3719 30.7334 89.2694C30.5238 89.1669 30.2938 89.1129 30.0604 89.1116C29.8272 89.1109 29.5969 89.1629 29.3865 89.2636C29.1761 89.3642 28.9911 89.511 28.8453 89.693Z" fill="black"/>
<path d="M80.0322 72.7774C81.1444 71.2919 86.5011 63.8008 86.6209 63.0327C86.7269 62.3545 84.9595 60.4135 86.0694 57.3334C86.9911 54.7719 89.5258 53.3578 90.86 53.5314C91.7133 53.642 94.7004 55.255 95.6114 56.911C96.5492 58.6139 96.2505 59.3167 98.322 59.7184C103.387 60.7 103.719 59.1623 105.226 57.5293C108.203 54.3033 113.764 56.4056 114.213 59.935C114.295 60.6233 114.217 61.3212 113.984 61.9742C113.752 62.6272 113.371 63.2174 112.872 63.6986C111.023 65.4514 112.239 64.5573 115.316 71.5101C115.483 71.8864 115.442 72.0938 114.976 72.2736C112.524 73.2222 112.761 72.0508 113.048 73.7798C113.417 75.5902 113.538 77.4413 113.409 79.2839L112.269 79.0927C111.486 81.1535 110.74 83.0814 108.467 84.8825C106.982 86.06 102.546 88.2706 100.973 87.2452C99.3459 88.438 98.885 89.3497 97.4471 89.667C95.5108 90.094 92.5413 89.3858 91.7825 88.0809C91.5328 87.6507 91.456 86.941 91.0144 86.6399C90.5405 86.3143 89.5642 86.454 88.9912 86.3089C85.9826 85.5492 83.4694 81.5736 83.2843 79.002C82.6975 79.1941 82.1399 79.4652 81.626 79.8078C81.689 77.6341 82.0561 75.4796 82.7182 73.408C81.8087 73.2643 80.9109 73.0538 80.0322 72.7782V72.7774Z" fill="white"/>
<path d="M108.799 64.6672C106.144 61.9789 103.471 65.3447 101.907 66.1996C101.694 66.3476 101.436 66.4175 101.177 66.3973C100.919 66.3772 100.675 66.2682 100.487 66.089C100.363 65.9698 100.268 65.8237 100.209 65.6619C99.9073 65.5337 100.317 67.8003 102.68 66.4845C102.944 66.4492 102.639 66.3732 103.172 67.245C103.591 67.9368 104.153 68.5312 104.821 68.9885C105.305 69.2864 105.856 69.4573 106.424 69.4857C106.991 69.514 107.557 69.3987 108.068 69.1506C109.404 71.2744 107.909 66.5437 106.648 65.794C106.274 65.586 105.863 65.454 105.437 65.4056C105.012 65.3573 104.581 65.3935 104.17 65.5121C105.015 64.9361 106.006 64.3062 106.998 64.5766C107.446 64.6877 107.858 64.9133 108.192 65.2314C108.527 65.5494 108.773 65.949 108.906 66.3908C109.918 69.285 110.151 71.1054 110.317 71.0962C110.654 71.0854 110.173 66.0629 108.799 64.6672ZM107.922 68.9132C104.619 68.7381 104.792 67.7342 103.083 66.4093C106.69 65.6343 106.529 66.6689 107.922 68.9132Z" fill="black"/>
<path d="M99.3915 65.7308C99.3331 65.7369 99.3047 65.9397 98.979 66.0933C98.7842 66.2164 98.5536 66.27 98.3245 66.2455C98.0954 66.221 97.8813 66.1197 97.717 65.9582C97.2562 65.5511 95.1532 59.5792 90.666 63.6907C89.8211 64.4696 87.5529 67.3215 87.6704 67.4598C87.8901 67.7186 90.1974 65.1002 91.1783 64.276C93.5171 62.3558 94.9949 62.8505 96.6171 65.5895C95.5165 64.8076 93.3397 64.1531 91.6322 65.1954C90.5246 65.8598 89.6352 67.0181 89.7834 67.1541C89.8549 67.2201 90.1406 67.0135 90.6053 66.6886C90.984 67.1287 92.5171 68.2786 93.9849 67.9729C95.2058 67.7149 96.3526 67.1845 97.3399 66.4213C98.9529 67.3891 99.7079 65.7031 99.3915 65.73V65.7308ZM92.6415 67.1472C92.004 66.9782 91.3357 66.6279 90.8326 66.5327C91.5728 65.9368 92.4628 65.5562 93.405 65.4328C94.5871 65.4489 95.7492 65.7362 96.803 66.2723C95.2691 66.7209 93.9027 67.4974 92.6415 67.1472Z" fill="black"/>
<path d="M112.208 64.8103C113.289 63.7979 114.385 62.6834 114.6 61.1665C115.352 55.8989 107.85 52.0792 103.217 59.1195C100.282 59.5097 100.026 59.6956 97.0664 58.8568C96.7139 56.4281 93.5155 53.3573 90.6751 53.3611C86.615 53.3427 83.4167 58.7332 86.2386 62.6427C84.2892 65.02 84.0027 66.8841 81.2284 70.2891C80.5808 71.0218 80.0332 71.8372 79.6 72.7139C79.4894 72.9275 79.5132 72.8361 79.6446 72.9444C84.1364 75.6142 81.6209 70.6117 81.1854 80.6644C81.7353 80.3057 82.2238 79.9854 82.6447 79.7274C83.6003 79.1574 82.8375 79.2005 83.8146 81.5846C84.3818 83.0824 85.3549 84.3928 86.6248 85.3688C87.8947 86.3449 89.4113 86.9482 91.0046 87.111C92.2059 90.784 97.4512 92.2856 101.054 87.8791C103.122 87.9702 105.176 87.4903 106.989 86.492C108.803 85.4936 110.307 84.0153 111.337 82.219C113.058 79.2534 111.866 79.1843 113.004 79.6843C113.827 80.0507 113.754 80.0407 113.753 79.9601C114.696 69.9887 111.035 74.7786 116.258 72.2792C116.453 72.2431 113.855 67.1115 112.208 64.8103ZM110.948 72.3583C110.857 72.6225 111.842 72.9551 112.275 73.0419C112.757 74.8799 112.993 76.7736 112.977 78.6735C112.987 78.97 111.551 78.0222 110.055 77.7104C109.473 77.5798 109.133 77.6143 109.125 77.6812C109.109 77.7918 109.399 77.7687 111.813 79.0806C111.08 81.262 109.727 83.1826 107.92 84.608C106.114 86.0334 103.931 86.9018 101.639 87.1072C102.892 85.3329 103.709 83.3558 103.506 83.2667C103.077 83.0578 100.337 89.2294 96.5203 89.5067C90.7988 90.0136 91.2765 83.3827 90.8149 83.4203C90.7051 83.4203 90.4724 84.5156 90.8034 86.3276C89.4649 85.9835 88.2206 85.3437 87.1618 84.4554C86.1031 83.5671 85.257 82.4528 84.6856 81.1944C84.3279 80.5041 84.0578 79.7718 83.8814 79.0146C85.3108 78.2465 86.2532 77.9001 86.211 77.7634C86.1611 77.5637 84.3883 77.9531 82.3229 78.9769C82.1447 79.0445 82.1555 79.0676 82.1977 78.9124C82.4192 77.2276 82.8143 75.5702 83.3767 73.9667C83.2085 73.9068 83.25 73.959 83.7815 73.8899C84.7524 73.7593 85.2939 73.4659 85.2609 73.3338C85.1771 72.962 83.707 73.5796 80.9319 72.4697C80.9964 72.4052 80.9127 72.4566 81.2799 71.9481C82.0003 70.9412 82.932 69.988 83.641 68.8666C84.555 67.3688 85.3238 65.8533 86.2371 64.4416C87.7034 62.0951 89.3771 60.5927 89.2173 60.36C89.1359 60.2471 88.5713 60.4721 87.8148 61.0697C87.4307 61.3754 87.0713 61.7103 86.7394 62.072C86.2027 61.0936 85.9915 59.9697 86.1362 58.8631C86.2809 57.7566 86.7741 56.7248 87.5444 55.9173C88.0552 55.3815 88.6734 54.9595 89.3586 54.6792C91.9194 53.6522 95.1039 56.0326 96.2108 58.6249C95.2561 58.3264 94.2551 58.2043 93.2567 58.2646C91.7973 55.8482 87.9131 55.9788 87.7464 58.9014C87.7072 59.9122 88.1427 58.7293 88.5145 58.1648C89.2058 57.1662 91.1429 57.0449 92.4225 58.4052C91.0891 58.7285 90.0607 59.5327 90.1759 59.7248C90.3187 60.0212 92.3642 58.8706 94.9933 59.4175C96.5718 59.7463 98.2009 60.456 100.063 60.4982C103.212 60.5505 105.306 59.0842 108.181 61.0996C108.897 61.6173 109.341 62.0021 109.459 61.9015C109.621 61.7656 108.983 60.6841 108.03 59.9552C111.889 58.5173 111.794 61.0651 112.072 61.1073C112.341 61.1626 112.567 59.6226 110.957 58.8868C109.464 58.1955 107.251 59.4106 107.285 59.4874C106.327 59.0339 105.257 58.8695 104.207 59.0143C108.893 53.653 114.103 57.313 113.661 61.0397C113.501 62.3923 112.522 63.4047 111.789 64.2434C110.953 63.1758 110.231 62.5436 110.066 62.6727C109.601 63.0337 112.524 66.6975 114.905 71.7246C114.907 71.7311 114.91 71.7373 114.913 71.7431L114.903 71.7492C112.382 72.6709 111.076 71.9819 110.948 72.3575V72.3583Z" fill="black"/>
<path d="M97.1954 62.2955C98.3683 63.2794 98.6809 64.6258 98.8476 64.5613C98.9136 64.5437 98.9075 64.2026 98.7408 63.678C97.8959 61.0281 94.7083 60.737 94.6837 61.0358C94.6492 61.2025 96.0148 61.32 97.1954 62.2955Z" fill="black"/>
<path d="M100.586 64.4045C100.712 64.4982 101.571 63.406 103.068 62.6955C104.552 61.9589 105.942 61.9612 105.947 61.8045C105.952 61.6263 104.394 61.4696 102.838 62.2208C101.253 62.9927 100.457 64.3092 100.586 64.4045Z" fill="black"/>
<path d="M96.2519 67.1096C92.8017 68.3785 97.2459 72.8503 99.3389 72.8503C100.506 72.8503 102.202 71.9202 103.136 71.1936C104.851 69.8586 104.799 68.0014 102.23 67.5229C101.168 67.3247 97.4217 66.681 96.2519 67.1096ZM102.089 68.3009C106.018 69.0314 100.791 72.2474 99.1576 72.0484C97.9202 71.8948 94.2657 68.6842 96.5292 67.8531C97.5024 67.4944 101.443 68.1811 102.089 68.3009Z" fill="black"/>
<path d="M103.767 72.6262C103.598 72.7275 104.919 75.0595 103.36 75.7753C102.648 76.1202 101.386 75.4474 100.662 75.0994C97.5995 73.6654 95.3329 75.7699 93.9227 74.4081C93.7025 74.2048 93.5547 73.9351 93.5018 73.64C93.2568 72.4741 94.4281 71.5424 94.2645 71.3818C94.1316 71.249 92.1046 72.8282 93.1431 74.5986C93.2675 76.2669 93.3144 77.7593 93.6677 78.4821C93.8743 78.8961 92.4595 84.9924 94.6124 86.8281C96.0111 88.0356 97.9506 87.3735 99.0174 85.8258C100.209 83.9351 101.21 81.9314 102.008 79.8439C102.883 79.499 103.663 77.4267 103.851 76.3644C105.731 75.0863 103.984 72.4894 103.767 72.6269V72.6262ZM94.415 84.6767C94.8659 84.1621 95.6025 82.9408 96.7193 82.9262C97.7724 82.9124 98.2125 83.8879 98.6395 84.7881C96.9551 87.4119 94.8582 86.8082 94.415 84.6767ZM99.6381 83.0714C99.0459 84.1007 99.4276 83.8841 98.6111 83.1812C97.5926 82.2734 96.0227 82.1059 94.2768 83.4163C94.2032 81.9831 94.2137 80.5469 94.3083 79.115C95.2815 79.4806 95.8352 78.1986 96.1709 77.2808C97.4612 76.8815 98.8533 76.9717 100.081 77.5343C100.542 77.6879 100.349 79.4222 101.31 79.8431C100.789 80.937 100.233 82.0136 99.6419 83.0714H99.6381ZM102.191 78.6541C101.774 79.4084 101.636 79.1603 101.593 79.2502C100.924 79.0274 100.07 75.0134 100.21 77.0227C98.9977 76.4826 97.6386 76.3668 96.3522 76.694C96.9497 74.3628 95.2392 78.9038 94.5433 78.5044C94.0464 78.3507 94.0302 76.3138 93.978 75.3874C95.4719 76.1709 97.1863 75.4281 98.7148 75.4796C100.01 75.5234 101.455 76.8123 102.975 76.6755C102.804 77.3668 102.542 78.0327 102.195 78.6557L102.191 78.6541Z" fill="black"/>
<path d="M91.6033 70.3158C91.4804 70.2651 90.5695 72.5087 90.273 75.4558C89.9588 78.4007 90.3897 80.7833 90.5203 80.7595C90.6785 80.7441 90.4896 78.3869 90.7976 75.5104C91.0864 72.6316 91.7546 70.3603 91.6033 70.3158Z" fill="black"/>
<path d="M107.197 71.8235C107.047 71.8311 107.049 73.7698 106.429 76.0664C105.83 78.3622 105.071 80.1611 105.221 80.2264C105.335 80.284 106.321 78.5627 106.94 76.1977C107.58 73.8243 107.338 71.7996 107.197 71.8235Z" fill="black"/>
<path d="M37.9628 59.6177C38.0143 59.5409 39.8562 55.1482 42.4178 52.8447C45.7275 49.8699 50.0372 49.0964 53.0704 48.9704C56.5898 48.8253 58.9931 51.0335 61.6277 53.0728C61.8466 53.2425 62.1523 53.6719 62.375 53.8409C70.2994 44.8642 81.6457 44.9648 89.5839 53.1342C93.8491 48.8959 99.7795 45.4533 105.123 48.2116C106.336 48.8375 108.594 49.2454 111.054 52.6334C111.799 53.7484 112.333 54.9912 112.629 56.2995C113.299 56.2542 114.023 54.9938 114.578 54.6021C116.946 52.9238 119.186 51.3384 123.536 51.6311C130.093 52.0727 133.297 56.1859 134.172 56.7857C134.122 55.7235 133.837 54.1481 133.837 53.0643C133.837 45.9879 135.443 40.1374 141.912 36.7117C135.844 31.8405 130.787 25.7511 130.785 17.9319C130.905 16.7461 131.111 15.5705 131.399 14.4141C126.061 17.9549 116.933 18.5049 110.584 12.9639C108.749 11.3624 107.346 8.79778 106.271 6.66556C95.6986 16.4149 85.7887 14.6737 78.518 4.56714C73.0308 15.3649 58.7904 15.8058 52.7816 6.83147C51.8353 9.08044 50.3007 11.7688 48.2499 13.2926C42.705 17.4058 35.1532 16.9272 29.6099 12.5822C29.1106 23.4414 22.7908 28.7773 12.4761 28.977C22.4052 39.3232 21.624 44.2144 17.4318 54.2749C24.3507 48.9482 35.4911 51.3699 37.9628 59.6177Z" fill="#FDFE1F"/>
<path d="M142.056 36.7103C141.667 35.542 134.877 30.412 132.425 21.8531C131.098 17.1793 132.087 14.1791 131.645 14.0831C131.361 13.7029 129.095 16.1401 123.065 16.1117C110.054 15.8912 107.089 6.21635 106.27 6.61038C105.628 5.93216 94.3707 18.2669 81.9637 7.64654C76.6401 3.10559 80.1579 3.64095 75.5479 7.76175C72.8542 10.0333 69.5387 11.4406 66.0335 11.8004C57.2911 13.1061 53.1296 6.37458 52.7817 6.58581C52.1672 6.35922 49.3468 15.8328 37.35 14.8044C31.6899 14.3381 29.7981 12.017 29.4924 12.3634C28.9448 12.3595 29.219 18.6425 23.9361 23.8801C18.9097 28.8727 12.205 28.1545 12.1966 28.8374C11.7434 29.2836 17.5386 34.5328 18.9558 41.252C19.647 44.5625 18.8252 47.8115 17.8543 50.9876C14.8895 60.2699 17.2859 50.7671 28.3472 52.9493C31.1331 53.4564 33.7 54.7953 35.7101 56.7897C38.38 59.5641 37.406 60.4812 38.7395 58.7046C42.5031 53.6459 45.3166 50.963 51.8177 50.2295C56.3879 49.7402 57.4094 51.1089 61.3098 53.3633C62.4489 54.0392 62.4619 54.0338 63.4973 53.1812C65.1986 51.8163 66.9867 50.0774 70.2235 49.085C73.9385 48.0154 77.8647 47.9097 81.6319 48.7778C84.4339 49.469 86.4156 50.8977 88.5171 52.5583C90.031 53.7458 89.216 53.3802 93.0903 50.933C95.9184 49.1918 98.9431 48.1379 102.223 48.449C105.417 48.9252 108.341 50.5075 110.488 52.9193C112.139 54.7873 112.382 56.421 112.644 56.3711C112.75 56.57 114.045 55.9947 115.891 54.8403C118.585 53.2649 120.252 52.599 123.53 52.8164C126.85 53.0699 128.531 53.8756 131.14 55.4586C132.973 56.6353 134.246 57.239 134.358 57.0447C135.429 56.9971 133.301 45.4957 139.623 38.9946C141.006 37.546 142.162 36.9369 142.056 36.7103ZM138.869 38.1774C134.37 41.6768 133.254 48.0327 133.682 53.6697C133.741 54.6775 133.89 55.6768 134.132 56.6568C133.39 55.9159 132.609 55.2149 131.792 54.5569C129.526 52.569 126.655 51.403 123.645 51.2472C120.157 51.006 117.911 51.8747 115.257 53.9286C114.364 54.6092 113.522 55.3536 112.737 56.156C113.241 52.0529 105.435 44.3152 96.569 47.6871C92.7946 49.1011 89.8697 52.2188 89.5793 53.1006C89.3358 52.311 87.547 50.5367 86.5531 49.7386C80.8538 45.306 70.7473 45.6071 65.3538 50.2832C64.303 51.1911 62.5787 53.1812 62.4266 53.7435C62.2008 53.2058 60.0624 51.377 59.2206 50.7548C57.5019 49.3684 55.3608 48.6115 53.1527 48.6096C48.707 48.6779 43.997 50.2364 41.1797 53.7473C35.6886 60.3959 39.7134 60.3306 36.5665 56.0731C32.8751 51.1197 24.5613 49.7079 19.5449 52.4907C17.1676 53.8034 17.2191 55.179 18.9043 51.3793C21.823 44.5602 21.6364 38.437 15.4986 31.6524C11.8179 27.6246 11.4845 29.6093 16.2029 29.1093C19.5285 28.7722 22.6443 27.3271 25.0498 25.0061C28.974 21.1165 30.2728 15.5817 29.6814 12.7851C32.6823 16.7907 45.3934 19.2939 51.29 10.5154C53.582 7.05434 52.2886 6.19792 53.198 7.78787C57.3702 15.2691 70.3264 15.1224 76.3321 8.55596C80.7578 3.67398 76.16 3.21543 81.201 8.46148C85.3871 12.8189 91.8237 14.9419 98.2027 12.4963C102.274 10.9985 105.675 7.91767 106.238 6.77399C106.341 8.07283 108.287 11.6767 111.614 14.2045C117.721 18.916 127.13 18.2385 130.851 15.0225C131.85 14.1776 130.865 14.4633 130.627 17.8952C130.535 21.1251 131.306 24.3211 132.86 27.1537C135.337 32.0265 139.896 35.9468 141.752 36.6711C140.685 36.937 139.697 37.4534 138.869 38.1774Z" fill="black"/>
<path d="M126.411 34.9514C129.11 33.7839 129.893 28.888 128.571 26.4471C127.534 24.5307 124.606 23.0943 122.401 23.102C121.7 23.1058 121.007 23.2513 120.364 23.5298C119.72 23.8083 119.14 24.2141 118.658 24.7227C118.564 24.1395 118.32 23.5908 117.949 23.131C117.578 22.6712 117.094 22.3162 116.544 22.1012C115.994 21.8862 115.397 21.8186 114.813 21.905C114.228 21.9915 113.677 22.2291 113.213 22.5943C112.642 23.1165 112.12 23.6898 111.654 24.3072C110.529 20.6119 106.939 19.161 103.793 19.2746C101.428 19.3607 100.727 20.8108 100.594 23.1857C100.274 22.7948 100.004 22.366 99.7895 21.9092C98.4138 19.4797 95.4382 19.0588 92.723 18.4221C92.1014 18.3333 91.4674 18.4382 90.9075 18.7225C90.3476 19.0069 89.8889 19.4569 89.5938 20.0112C87.8503 22.9476 88.9993 36.1219 89.3534 37.7848C89.6607 39.2358 90.5286 42.0093 92.0894 42.4702C93.6839 42.9433 97.9345 41.3734 100.586 39.1359C100.952 40.4171 101.757 41.529 102.859 42.2777C103.962 43.0265 105.292 43.3645 106.618 43.2329C106.882 43.1758 107.155 43.1674 107.422 43.2083C107.92 43.3304 109.496 45.2007 113.251 44.6592C115.233 47.0833 117.977 46.7638 118.877 45.084C120.616 47.1133 123.006 46.9412 124.002 43.9011C124.095 45.1493 125.057 46.24 125.718 47.3191C125.901 47.6433 126.15 47.9259 126.447 48.1502C127.232 48.6018 128.143 48.7831 129.041 48.6664C132.843 47.7785 128.258 38.4078 126.411 34.9514ZM93.4735 25.1643C93.3098 24.6646 93.2124 24.1456 93.1839 23.6205C93.1539 22.5413 95.6418 22.7625 95.8315 24.2396C96.0535 25.9394 93.0771 26.6667 93.4735 25.1643ZM96.1748 36.2471C95.1118 36.9998 93.442 36.0167 94.0196 35.0635C94.0764 34.9706 93.6125 34.5903 94.0564 34.1418C95.5604 32.624 97.9614 34.979 96.1748 36.2464V36.2471ZM101.062 26.7228C100.886 28.1438 101.246 28.9795 100.852 30.4319C100.513 31.69 98.4453 30.0993 98.6519 28.7675C98.7856 27.8995 99.4016 27.5139 99.6504 27.0423C99.6266 26.7113 99.5736 26.3265 100.034 26.1882C100.108 26.1381 100.191 26.1033 100.278 26.0861C100.365 26.0689 100.455 26.0695 100.542 26.0879C100.629 26.1064 100.712 26.1423 100.784 26.1934C100.857 26.2446 100.919 26.31 100.965 26.3856C101.028 26.4871 101.061 26.6037 101.062 26.7228ZM107.677 36.3239C107.639 36.4446 107.568 36.5519 107.471 36.6331C107.374 36.7143 107.256 36.7661 107.131 36.7823C107.006 36.7985 106.878 36.7783 106.764 36.7243C106.65 36.6703 106.553 36.5847 106.486 36.4775C106.296 36.1193 106.204 35.717 106.219 35.3116C105.84 34.2048 108.623 33.4989 107.677 36.3255V36.3239ZM110.589 27.4832C109.782 29.2329 108.568 29.0447 106.97 28.4257C106.799 28.4103 106.639 28.3369 106.515 28.2178C106.391 28.0987 106.312 27.9409 106.29 27.7705C106.257 27.6319 106.267 27.4866 106.318 27.3537C106.369 27.2208 106.459 27.1063 106.576 27.0254C106.693 26.944 106.831 26.8993 106.973 26.8971C107.116 26.8949 107.255 26.9353 107.374 27.0131C108.211 26.9106 109.04 26.7481 109.854 26.5269C110.44 26.3226 110.804 27.0185 110.589 27.4855V27.484V27.4832ZM116.11 31.2737C115.909 31.9392 115.491 32.5185 114.923 32.9198C114.13 33.6264 112.981 31.9666 113.617 31.124C113.877 30.2983 114.232 29.2498 115.171 29.4856C115.513 29.6261 115.794 29.8824 115.966 30.2097C116.138 30.537 116.189 30.9142 116.11 31.2753V31.2737ZM125.593 30.0049C125.552 31.0141 124.462 31.147 123.709 31.3674C123.541 31.4111 123.363 31.3868 123.214 31.2999C123.064 31.213 122.955 31.0706 122.91 30.9035C122.88 30.793 122.879 30.6765 122.907 30.5656C122.992 30.1669 123.043 29.7614 123.061 29.3543C122.979 29.243 122.933 29.1087 122.93 28.9702C122.93 27.6706 125.656 28.4548 125.593 30.0049Z" fill="white"/>
<path d="M76.5311 24.9955C77.2959 24.4412 78.2043 24.119 79.1475 24.0675C80.0906 24.016 81.0287 24.2374 81.8493 24.7052C82.8832 25.3197 84.5192 26.9941 84.6144 28.3152C84.6341 28.889 84.4318 29.4482 84.0497 29.8766C83.6676 30.3051 83.1351 30.5697 82.5629 30.6157C84.8257 33.3454 85.454 33.8071 85.6514 36.3763C85.8141 37.5023 85.6407 38.6513 85.1529 39.6791C84.215 41.3336 81.9799 41.8958 80.1434 41.4058C78.3323 40.7925 76.7263 39.6897 75.5034 38.2197C75.374 38.9308 75.1118 39.6112 74.7307 40.2252C74.5352 40.5297 74.259 40.7739 73.9328 40.9304C73.6065 41.087 73.2432 41.1497 72.8834 41.1116C72.0508 40.958 71.5423 40.1323 71.1391 39.3872C68.4533 34.452 66.1591 29.3136 64.2777 24.0193C63.7139 22.4693 63.174 20.7933 63.6079 19.2011C63.7157 18.7115 63.9865 18.273 64.376 17.9575C64.7616 17.741 65.1947 17.623 65.6368 17.6139C66.079 17.6047 66.5165 17.7049 66.9107 17.9053C67.7334 18.403 70.1091 22.1836 70.775 23.6383C70.7389 21.404 70.8249 17.2762 72.7144 16.0972C72.8515 15.9959 73.0079 15.9237 73.1739 15.8851C73.34 15.8465 73.5122 15.8424 73.6799 15.873C73.8476 15.9036 74.0073 15.9683 74.149 16.063C74.2908 16.1577 74.4116 16.2804 74.5041 16.4237C76.3621 18.4476 76.7269 22.2573 76.5311 24.9955Z" fill="white"/>
<path d="M59.9486 35.0698C61.2083 32.817 59.2611 24.0039 58.3356 21.5821C57.0798 18.3001 54.5574 17.9344 53.3392 19.0397C52.4881 19.8078 52.429 21.1412 51.7415 22.0622C51.3856 21.5875 50.9076 21.2181 50.3585 20.9934C49.8095 20.7686 49.2097 20.6968 48.6231 20.7856C45.8864 21.2357 45.9448 24.0362 45.6613 24.7797C43.5053 21.778 41.6558 22.1835 40.6887 25.1545C39.9743 24.5752 39.1448 24.1545 38.2554 23.9202C37.1701 23.636 35.2307 24.8019 35.5287 27.3812C35.627 28.2345 35.9074 29.2169 35.3482 29.8683C34.4726 29.2 33.8888 28.1831 32.9625 27.5916C30.5599 26.0631 27.463 27.7453 26.5036 28.0848C21.9458 29.6939 27.6035 40.8297 29.7427 45.7316C30.4624 47.3799 31.4563 49.3624 33.4456 49.2817C34.6592 49.2318 38.098 47.0082 39.2985 45.2293C39.9797 44.0851 40.4663 42.8359 40.7386 41.5325C41.4255 42.5685 42.1962 43.5465 43.0429 44.4566C44.9217 46.2232 47.2851 46.1794 48.65 43.8306C49.1055 42.9584 49.4396 42.0281 49.6431 41.0655C49.8789 41.4211 50.3344 41.872 50.5602 42.233C51.7016 44.0564 54.3822 45.0465 57.6044 43.7308C60.1237 42.7015 58.9209 43.0103 61.4963 42.7322C62.629 42.6481 63.7079 42.2153 64.5848 41.4933C66.7738 39.1476 64.0978 34.0044 59.9486 35.0698ZM29.1482 32.5243C29.0443 32.457 28.9622 32.3612 28.9116 32.2483C28.861 32.1354 28.8442 32.0103 28.8631 31.888C28.882 31.7657 28.9359 31.6515 29.0182 31.5592C29.1005 31.4669 29.2078 31.4003 29.3271 31.3676C34.3612 30.2078 30.3725 37.3326 29.1505 32.5243H29.1482ZM33.2682 42.4649C33.2467 41.6761 32.5631 41.1031 33.2682 40.6922C33.3704 40.633 33.6776 39.7574 35.2245 40.4863C37.6617 41.6339 33.322 44.3283 33.2682 42.4649ZM37.3752 36.2065C36.6378 35.9915 35.5786 35.8717 35.3152 35.0029C35.1777 34.5505 35.4089 34.2349 35.4957 33.8162C35.6762 32.946 35.0148 31.8853 35.8259 31.6326C35.9052 31.5458 36.0057 31.4812 36.1175 31.4451C36.2293 31.4089 36.3485 31.4024 36.4636 31.4263C36.5786 31.4501 36.6855 31.5035 36.7737 31.5812C36.8618 31.6588 36.9283 31.758 36.9666 31.8691C37.346 33.0566 37.7178 34.2456 38.1763 35.4023C38.366 35.877 37.8184 36.334 37.3783 36.2065H37.3752Z" fill="white"/>
<path d="M60.6218 34.5849C60.9451 33.6141 60.5695 23.6473 58.064 19.9866C56.0347 17.0579 52.4063 17.5003 51.5184 21.1387C51.0167 20.6699 50.395 20.3491 49.7222 20.2119C49.0494 20.0746 48.3517 20.1263 47.7065 20.3611C47.0612 20.5959 46.4936 21.0048 46.0664 21.5424C45.6392 22.08 45.3691 22.7253 45.2861 23.4069C43.7852 21.7939 41.4579 21.7325 40.5631 23.7095C40.1744 24.5867 40.7167 24.238 39.4878 23.5482C37.3371 22.2947 33.8999 24.0245 35.2341 29.0585C32.2931 24.45 24.3556 26.4685 24.285 30.8305C24.2589 31.8766 25.9271 39.0644 28.0878 43.7498C30.2599 48.187 31.7493 51.5244 36.0475 49.0242C38.1121 47.7953 39.9648 46.0809 40.6868 43.7866C41.2359 42.0461 40.3365 42.5293 42.4534 44.6315C45.1125 47.22 48.2018 46.2007 49.3347 44.0324C50.2387 42.3772 49.7118 41.9517 50.1366 42.6215C51.3386 44.5417 53.4248 44.9564 55.7114 44.9257C56.4402 44.9529 57.1664 44.8246 57.8419 44.5494C58.5173 44.2742 59.1264 43.8584 59.6286 43.3296C67.639 44.4418 67.6022 34.5849 60.6218 34.5849ZM36.1642 32.1939C37.2619 35.7501 37.3771 35.5911 37.2319 35.5205C36.7439 35.2747 36.2282 35.0885 35.6957 34.9659C35.5206 34.9567 36.2065 34.2232 36.1642 32.1939ZM35.38 47.9074C33.5451 48.9966 32.3522 48.8906 30.985 46.6731C27.799 41.596 25.176 32.0671 25.1345 30.8366C25.3012 27.9118 29.7476 26.924 32.0941 27.8795C32.6899 28.1449 33.2264 28.5268 33.6722 29.0028C34.118 29.4788 34.464 30.0393 34.6898 30.6511C34.9155 31.2629 35.0165 31.9137 34.9868 32.5652C34.9571 33.2167 34.7972 33.8556 34.5167 34.4444C34.39 34.6994 34.7955 33.9067 33.8838 35.807C33.6319 36.3331 35.9791 35.5258 38.1428 37.7794C38.4378 37.6534 42.8036 43.4226 35.38 47.9074ZM48.8377 41.1483C48.5174 45.4004 44.8168 47.1708 40.9817 41.1252C40.9205 40.3727 40.7413 39.6346 40.451 38.9377C39.2988 36.2071 39.8234 39.6098 37.1973 31.1477C36.6105 29.1046 35.2694 26.1075 36.9869 24.6958C37.2664 24.4831 37.6032 24.3589 37.9539 24.3394C41.6899 23.8509 42.7621 35.0865 43.9842 38.228C44.4005 39.3033 44.4174 39.9178 43.7315 35.0258C43.2153 31.5863 43.4127 33.6932 44.6885 36.4207C44.8858 36.971 45.1832 37.4801 45.5657 37.9223C45.6425 37.8839 42.8497 29.8097 42.8197 29.7321C42.4956 28.1302 41.9173 26.5905 41.1069 25.1712C41.3949 23.1242 42.9019 22.7364 44.1793 23.8946C45.6793 25.2365 49.2487 36.1196 48.8377 41.1498V41.1475V41.1483ZM52.8879 43.4602C51.377 43.0923 50.5698 41.6352 50.1742 40.1298C50.2311 33.6932 46.2915 25.6336 46.2308 24.1258C46.1056 21.3646 49.5866 19.9359 51.3264 22.7817C53.4447 26.3149 53.9094 34.4344 53.9379 39.0099C55.2344 38.4722 56.491 37.7733 57.8428 38.3862C60.8 39.715 59.8191 45.1508 52.8879 43.4633V43.4602ZM60.2285 42.4916C61.6933 39.7811 59.5027 36.009 55.2467 37.0728C55.2467 33.2753 54.3457 25.0806 52.2381 22.0036C53.5246 16.4219 60.2055 17.9458 59.2323 36.0888C60.4328 35.9045 62.2401 35.459 63.6619 36.9921C65.609 39.099 64.5237 42.6322 60.2285 42.4916Z" fill="black"/>
<path d="M31.9341 31.7876C31.7795 31.5095 31.5588 31.2738 31.2915 31.1013C31.0242 30.9288 30.7185 30.8247 30.4014 30.7984C30.0844 30.7721 29.7657 30.8242 29.4736 30.9502C29.1815 31.0763 28.9249 31.2723 28.7265 31.5211C28.3648 31.2584 27.8348 31.0863 27.7726 31.2499C27.6881 31.4512 28.4493 31.8475 29.0192 33.1417C29.5031 34.2601 29.6582 35.3462 29.8956 35.327C29.9908 35.327 30.0937 35.0458 30.1045 34.5957C31.4579 34.3668 32.5716 33.0181 31.9341 31.7876ZM30.073 34.0304C29.9911 33.2435 29.6694 32.5008 29.1513 31.9028C30.9732 30.6047 32.5002 32.9943 30.073 34.0304Z" fill="black"/>
<path d="M36.1182 40.8395C35.4476 39.3878 33.5873 39.4001 32.7002 40.8656C32.2877 40.6121 31.8553 40.6244 31.8376 40.7696C31.8161 40.8825 32.0081 41.0054 32.2216 41.2381C33.2478 42.3542 33.1748 44.1645 33.5689 44.1284C33.7171 44.1185 33.8054 43.6561 33.8054 43.4978C35.9868 43.3957 36.6136 41.8749 36.1174 40.8395H36.1182ZM33.8062 42.9394C33.7734 42.3083 33.5331 41.7056 33.1226 41.2251C34.8508 39.1435 37.0806 42.2159 33.8062 42.9394Z" fill="black"/>
<path d="M86.2919 37.5023C86.2935 36.2724 86.0137 35.0585 85.4739 33.9535C84.934 32.8485 84.1484 31.8817 83.1773 31.1271C83.7357 31.0147 84.2358 30.7068 84.5877 30.2589C84.9397 29.811 85.1204 29.2522 85.0975 28.6831C85.0061 25.1498 79.5726 22.2987 76.9435 24.2281C76.9734 21.8532 77.0003 20.6181 76.3566 18.5734C75.9465 17.2761 74.9526 15.3989 73.7928 15.3175C73.4381 15.2337 73.0668 15.2542 72.7236 15.3767C70.3694 16.3867 70.1228 18.956 70.182 21.7218C69.801 20.7903 69.3384 19.8943 68.7994 19.0443C66.0512 14.9619 61.9741 17.2178 62.8329 21.1796C63.1347 22.5429 67.2601 34.3316 71.0952 40.1875C72.4087 42.2613 74.3865 42.3965 75.3965 39.9778C76.1009 38.3272 74.782 39.3403 78.3153 41.2736C82.8009 43.7292 86.331 41.3903 86.2919 37.5023ZM72.03 39.5707C68.4315 33.7225 64.2223 21.5314 64.0864 20.9161C63.4719 18.2877 66.075 15.806 69.0321 21.7065C71.7135 27.0831 72.0645 32.2892 72.5239 32.2293C72.6629 32.2124 72.6775 31.1425 72.464 29.4335C72.1901 27.3963 71.7406 25.3867 71.1206 23.427C71.351 20.4007 71.1974 18.3684 72.6882 16.8675C74.1407 15.4082 75.5064 19.3815 75.7291 21.4476C76.2483 26.2651 76.021 24.712 75.6799 25.6437C75.3271 26.4326 75.1494 27.2885 75.159 28.1526C75.1685 29.0167 75.3651 29.8685 75.7352 30.6494C75.5597 31.372 75.5336 32.1229 75.6584 32.8561C74.378 33.7962 73.7858 36.0053 74.9879 38.1444C74.471 40.5585 73.3012 41.749 72.03 39.5707ZM85.0768 37.49C84.9101 44.2676 74.007 39.7942 75.9603 34.4821C76.4826 33.4491 77.3383 33.714 77.9919 33.7286C79.5757 35.2203 82.2218 36.7242 82.4238 36.4415C82.7425 35.9999 79.1978 33.7955 77.4166 31.0096C75.7529 28.3497 76.5586 25.7735 77.8667 25.2289C80.0173 24.1536 83.7172 26.3811 83.8033 28.7222C83.832 29.0347 83.744 29.3467 83.5562 29.5981C83.3684 29.8494 83.0941 30.0223 82.7863 30.0833C81.3308 30.4589 79.8745 29.5564 79.7393 29.7807C79.5918 29.9873 80.6986 30.9973 82.0996 31.1632C83.0637 31.9046 83.8368 32.8655 84.3546 33.966C84.8724 35.0664 85.12 36.2746 85.0768 37.49Z" fill="black"/>
<path d="M96.3703 24.252C96.3122 23.9202 96.1763 23.6069 95.9738 23.3378C95.7713 23.0686 95.5078 22.8513 95.2051 22.7035C94.9029 22.5552 94.5698 22.4805 94.2331 22.4854C93.8965 22.4904 93.5658 22.5748 93.268 22.732C93.0691 22.414 92.5475 21.8748 92.4001 22.0353C92.2526 22.1958 92.9223 23.083 92.9922 24.4225C93.0806 25.7452 92.8179 26.8973 93.0483 26.9618C93.1351 26.9972 93.3356 26.7506 93.5092 26.3043C94.954 26.6446 96.6299 25.7475 96.3703 24.252ZM93.6666 25.7736C93.8794 24.934 93.8295 24.0493 93.5238 23.2389C95.881 22.6759 96.6245 25.8404 93.6666 25.7736Z" fill="black"/>
<path d="M126.054 29.6813C125.995 29.35 125.858 29.0372 125.656 28.7685C125.453 28.4997 125.19 28.2825 124.888 28.1344C124.586 27.9863 124.253 27.9116 123.917 27.9163C123.58 27.9209 123.249 28.0049 122.951 28.1613C122.752 27.8463 122.23 27.3041 122.083 27.4654C121.935 27.6267 122.605 28.513 122.676 29.8526C122.764 31.1745 122.501 32.3274 122.731 32.3919C122.818 32.4265 123.018 32.1799 123.192 31.7336C124.644 32.077 126.313 31.1691 126.054 29.6813ZM123.35 31.2029C123.563 30.3633 123.513 29.4786 123.207 28.6682C125.567 28.1052 126.304 31.2643 123.35 31.2029Z" fill="black"/>
<path d="M97.2769 34.9835C97.2404 34.6045 97.0993 34.243 96.8695 33.9393C96.6397 33.6357 96.3301 33.4018 95.9752 33.2637C95.6203 33.1256 95.234 33.0888 94.8594 33.1573C94.4848 33.2258 94.1366 33.3969 93.8535 33.6517C93.5724 33.2615 93.0977 33.0164 93.0086 33.1655C92.9456 33.2615 93.0938 33.4581 93.2283 33.7799C93.9142 35.3584 93.1192 37.1111 93.5217 37.2179C93.6115 37.2448 93.7429 37.1265 93.971 36.6687C96.2515 37.4906 97.4167 36.1933 97.2769 34.9835ZM94.1646 36.1479C94.372 35.4903 94.355 34.7824 94.1162 34.1356C96.6202 32.7645 97.9098 36.86 94.1646 36.1479Z" fill="black"/>
<path d="M117.033 31.7804C115.996 31.6268 116.521 32.3427 116.347 30.5807C116.149 28.5729 114.072 28.5836 113.376 30.6321C113.042 31.6714 113.362 31.5654 112.942 31.4002C112.522 31.2351 112.223 31.2666 112.197 31.3641C112.144 31.5792 112.983 32.0024 113.579 32.9771C114.175 33.9518 114.288 34.9035 114.512 34.9188C114.786 34.9357 114.773 34.0371 114.679 33.6131C115.061 33.3014 115.469 33.0243 115.9 32.7851C116.768 32.3319 117.57 32.305 117.623 32.0938C117.643 31.9893 117.432 31.8342 117.033 31.7804ZM114.486 33.0094C114.307 32.5879 114.042 32.209 113.706 31.8979C113.838 31.3041 114.078 30.7394 114.413 30.232C114.675 29.9017 115.114 29.7388 115.387 30.0668C115.748 30.5085 115.655 31.305 115.834 31.9448C115.285 32.1529 114.814 32.5255 114.486 33.0117V33.0094Z" fill="black"/>
<path d="M126.918 35.1649C128.29 34.2924 129.291 32.9439 129.729 31.3782C131.552 25.043 124.554 21.1987 120.431 22.7579C119.215 23.2388 119.125 23.8701 119.013 23.6474C117.769 21.2563 114.967 20.35 112.896 22.092C111.142 23.6082 112.503 23.672 111.029 21.8539C108.438 18.6763 101.653 16.806 100.453 20.9452C100.178 21.8938 100.413 21.9438 100.114 21.37C98.0283 17.6693 92.6186 16.6647 90.0255 18.78C88.9379 19.8553 88.6622 20.6142 88.2113 26.7835C87.8656 30.829 88.0378 34.9021 88.7236 38.904C89.0992 40.6706 89.8174 42.3304 91.5272 42.9026C93.475 43.617 98.2095 42.6453 100.475 40.1882C101.089 42.7229 102.821 43.0547 105.2 43.5839C105.854 43.7121 106.524 43.738 107.186 43.6607C107.975 44.3152 108.901 44.7846 109.895 45.0346C110.889 45.2847 111.926 45.3089 112.931 45.1055C114.256 47.187 117.222 47.7431 118.877 46.0195C119.232 46.4249 119.683 46.7357 120.189 46.9239C120.694 47.1122 121.239 47.1721 121.773 47.0982C122.307 47.0244 122.815 46.8191 123.251 46.5008C123.686 46.1826 124.036 45.7612 124.269 45.2745C124.83 49.2793 128.57 50.5336 130.393 48.6211C132.996 45.8621 128.637 38.5115 126.918 35.1649ZM100.382 26.7259C100.353 30.5494 100.402 30.2898 100.333 30.213C99.9173 29.7614 99.4519 29.3586 98.9454 29.0125C99.5521 28.3384 100.038 27.5649 100.382 26.7259ZM93.9374 41.7805C91.8052 42.0355 90.5494 41.5654 89.9434 38.6443C88.8173 33.3906 89.1607 27.1015 89.6208 21.8631C89.5937 21.4132 89.6695 20.963 89.8426 20.5469C90.0156 20.1307 90.2812 19.7594 90.6193 19.4613C94.343 16.7407 102.525 21.3984 98.7073 27.2958C96.754 29.9841 96.1449 28.5947 98.1942 30.041C102.799 33.2838 102.276 40.606 93.9374 41.7774V41.7805ZM105.459 42.3273C103.155 41.888 101.767 41.8143 101.222 39.2227C101.951 38.062 102.342 36.7206 102.349 35.3498C102.356 33.979 101.98 32.6334 101.263 31.465C101.735 24.142 101.553 25.0399 101.501 23.2357C101.469 21.9584 101.561 20.618 102.737 20.1203C105.031 19.1548 110.248 21.3861 110.897 24.1643C111.026 24.7941 110.944 24.5806 110.461 25.679C109.585 26.4548 107.765 26.6498 106.604 26.4678C106.285 25.2619 105.459 24.6728 105.334 24.7972C105.163 24.9393 106.006 25.9985 105.925 27.4855C105.821 28.3262 105.558 29.1394 105.15 29.882C105.021 29.8635 104.972 30.0817 105.176 30.1124C105.489 30.1255 106.035 29.5071 106.289 29.0417C107.155 29.092 108.006 29.2869 108.808 29.6185C109.362 29.8874 109.798 30.3507 110.033 30.9204C110.268 31.49 110.286 32.1262 110.082 32.7078C109.473 34.2908 107.862 34.2954 106.152 34.0727C105.589 33.0872 105.208 32.9205 105.596 34.2217C105.81 34.85 105.94 35.5044 105.98 36.1673C105.968 37.6381 104.948 38.7058 105.169 38.8617C105.354 39.0261 106.168 38.2142 106.512 37.4208C107.672 37.6942 109.057 38.0099 109.661 39.0837C110.906 41.782 107.507 42.6845 105.456 42.325L105.459 42.3273ZM109.904 27.1791C109.105 29.809 110.519 28.0147 106.623 28.1776C106.687 27.9103 106.719 27.6368 106.719 27.3619C107.78 27.5527 108.871 27.4888 109.902 27.1752L109.904 27.1791ZM106.602 35.0988C107.544 35.3293 107.385 35.0604 107.181 35.6726C106.83 36.728 107.228 36.6389 106.745 36.5851C106.802 36.0837 106.752 35.5759 106.599 35.095L106.602 35.0988ZM116.409 45.8582C114.863 45.8736 113.45 44.7522 113.212 42.6246C113.145 41.255 113.289 39.8833 113.64 38.5575C115.193 38.7811 116.209 37.96 116.085 37.7027C115.946 37.4346 114.95 37.7027 113.781 37.5122C112.608 37.3524 111.707 36.8293 111.504 37.0552C111.252 37.3501 112.147 38.0621 112.791 38.3256C112.299 40.1828 111.832 42.2597 112.441 44.0817C111.164 44.0075 109.904 43.7488 108.7 43.3136C112.336 42.0032 111.806 37.9884 108.547 36.9277C107.874 36.7134 108.116 37.0168 108.425 36.0828C108.767 35.0543 108.356 35.2863 108.899 35.1925C111.606 34.7317 112.468 31.1109 110.325 29.1753C111.051 25.5453 111.923 26.5469 112.099 24.7665C112.502 24.0877 113.01 23.4772 113.604 22.9576C115.106 21.7156 117.105 22.5398 117.898 24.2096C118.752 25.9394 118.837 28.7836 118.834 30.7192C118.933 40.712 119.808 45.8582 116.409 45.8582ZM129.889 46.4812C129.743 48.7178 127.398 48.714 126.089 46.9935C124.666 45.1063 125.113 39.1981 124.154 39.4001C123.699 39.4908 124.298 42.8105 123.002 44.8252C122.835 45.1219 122.593 45.3698 122.301 45.5444C122.009 45.719 121.676 45.8142 121.336 45.8206C120.995 45.827 120.659 45.7443 120.36 45.5807C120.062 45.4172 119.811 45.1784 119.633 44.8881C120.497 42.9572 120.241 40.7136 120.19 34.3384C120.152 31.1224 120.235 27.9587 119.694 25.593C119.9 22.5667 126.041 23.3939 128.094 26.9026C129.419 29.12 128.678 32.313 126.789 34.1226C125.252 35.5681 123.793 35.7356 123.848 35.9522C123.867 36.1143 124.945 36.1304 126.153 35.5812C127.2 38.1889 130.048 43.6484 129.889 46.4789V46.4812Z" fill="black"/>
<path d="M47.5875 77.8215C52.3958 91.9766 61.268 85.1951 70.8069 84.8034C75.066 84.6275 76.4984 84.2166 77.8134 79.3454C78.4348 77.0411 79.3442 74.2092 77.8257 72.3703C75.1143 69.0868 71.7501 70.6936 70.8415 68.4262C72.512 68.3391 74.1656 68.0471 75.7649 67.5567C71.1341 63.6448 72.5389 64.6188 69.0334 63.7578C70.9951 59.935 71.4475 59.7445 69.4865 57.1522C67.0778 53.9784 66.0655 51.6957 68.0817 48.2393C63.1506 50.6779 63.3964 52.2825 64.7728 55.851C65.1799 56.9064 65.4303 58.1668 64.815 59.1162C64.7177 59.2819 64.587 59.4255 64.431 59.5378C64.2751 59.6501 64.0974 59.7286 63.9094 59.7683C63.4732 59.8367 60.5068 59.107 58.1572 61.114C56.2301 62.76 52.9734 61.3536 50.8849 62.7892C50.2904 63.1978 49.8219 63.823 49.1322 64.0366C48.0499 64.3722 46.9293 63.5266 46.3709 62.5411C45.8125 61.5556 45.5936 60.4027 45.0129 59.4303C44.6092 58.76 44.0469 58.1992 43.3754 57.7974C42.704 57.3955 41.9441 57.1649 41.1626 57.1258C40.381 57.0867 39.6019 57.2404 38.8937 57.5733C38.1856 57.9062 37.5701 58.4081 37.1016 59.0348C40.22 59.7568 41.6333 60.4987 42.3123 63.5888C42.6733 65.2402 42.7547 66.9768 43.4598 68.5122C44.1649 70.0476 45.7641 71.3695 47.4186 71.0354C44.1772 73.8167 44.3208 73.0056 44.0205 78.4375C43.9998 78.8069 44.1219 78.8983 44.4046 78.8791C45.5459 78.8453 46.6522 78.4776 47.5868 77.8215H47.5875Z" fill="white"/>
<path d="M79.1947 75.3972C79.2297 74.2148 78.8858 73.0521 78.2133 72.0789C77.5408 71.1058 76.5748 70.373 75.4564 69.9875C74.0739 69.4499 73.0708 69.8009 71.914 68.9429C73.4812 68.9589 75.0219 68.539 76.3643 67.7301C74.3481 65.8637 72.3372 63.1907 69.4638 63.3981C73.295 59.404 69.7011 56.8755 68.2871 54.3784C66.7962 51.8114 67.8132 50.9834 69.1128 46.9709C67.3715 47.7444 65.469 48.4534 64.2738 50.1147C62.1646 53.0565 64.3161 55.4637 64.4935 57.6989C64.5516 58.0993 64.4775 58.5078 64.2824 58.8624C64.0874 59.2169 63.7821 59.4982 63.4128 59.6636C62.6918 59.3753 61.9108 59.2689 61.1389 59.354C60.367 59.439 59.628 59.7129 58.9871 60.1514C55.5091 62.13 56.4984 61.2943 53.0574 61.5662C52.4218 61.5897 51.8015 61.7676 51.25 62.0845C50.6985 62.4014 50.2325 62.8478 49.8921 63.385C48.7492 63.554 48.0387 64.1247 47.0809 63.2729C45.6561 62.0078 45.4863 54.363 38.0789 57.5353C37.2227 57.934 36.392 58.3854 35.5918 58.8871C39.6343 60.3634 40.8993 59.6921 41.8041 63.2537C42.4186 65.6939 41.7818 70.5214 46.1523 71.4723C43.5408 73.4516 43.6107 75.8895 43.5484 78.8605C43.53 79.6716 43.2458 79.6209 44.6745 79.4957C45.7266 79.3614 46.7334 78.9849 47.6155 78.3958C48.1375 80.9411 49.439 83.2608 51.3392 85.0329C56.0914 89.2628 62.0986 86.3386 68.3524 85.4169C72.6821 84.7095 76.5318 86.5691 77.9942 80.7162C78.6824 77.6569 79.144 78.1178 79.1947 75.3972ZM74.5593 67.4505C73.4515 67.9794 72.2236 68.2062 71 68.108C69.9021 67.0264 68.8644 65.8854 67.8915 64.69C70.7841 62.8635 74.1929 67.194 74.5593 67.4505ZM64.4743 54.1211C63.9558 52.237 64.5549 50.3482 67.3155 48.938C67.4783 48.8551 66.363 50.6632 66.509 52.3791C66.7394 55.0113 69.1612 56.8647 69.9469 58.659C70.9078 60.7543 69.3133 62.8274 67.4276 64.0817C66.5059 62.8128 65.6817 61.0232 64.2016 60.0646C66.2493 58.7127 64.8368 55.6258 64.4735 54.1211H64.4743ZM39.0928 58.8679C37.8953 58.5814 38.2479 58.6536 38.1649 58.6475C38.7371 58.3709 39.3347 58.1505 39.9492 57.9892C44.9118 56.7142 44.7167 62.3881 46.4703 63.9496C48.0495 65.2922 49.4612 64.1163 50.4336 64.1685C51.5857 64.1285 52.6096 65.8091 52.7379 66.9467C52.7844 67.6816 52.5953 68.4123 52.1982 69.0325C51.8011 69.6527 51.2166 70.1301 50.5296 70.3954C49.689 70.6553 48.8093 70.7661 47.9304 70.7226C39.9353 70.7095 46.1661 60.6821 39.0928 58.8679ZM75.9503 82.9037C74.2859 84.8616 71.5722 83.5666 65.5197 84.9399C62.1631 85.718 58.4855 86.6574 55.7442 86.2173C51.7916 85.6312 49.2546 82.0289 48.2169 77.9626C51.8776 75.08 51.5819 71.9316 51.2524 71.9546C50.7716 71.9431 51.8738 73.54 48.0825 76.799C47.1043 77.661 45.9029 78.2297 44.6161 78.4396C44.5869 77.2968 44.69 76.1545 44.9233 75.0354C45.7006 72.2219 47.9442 71.8402 47.8352 71.622C50.5634 71.622 52.7724 70.8386 53.35 68.1364C55.1113 69.1257 58.5485 65.591 60.3934 67.2915C61.3359 68.1603 62.7399 70.6711 65.2094 70.5674C66.5919 70.5467 67.499 69.5321 67.4092 69.4307C67.2924 69.297 66.4767 70.0859 65.2216 69.9683C61.5663 69.7456 61.9749 64.5886 57.5323 66.3506C56.2711 66.8822 54.7441 67.8868 53.5935 67.8868C53.2225 67.8868 53.5298 67.853 53.4115 66.8783C53.2679 65.4389 52.2156 63.6231 50.7677 63.3704C52.2962 61.696 54.284 62.5885 56.2626 62.2767C58.2796 62.6093 59.7667 63.352 59.855 63.1815C59.9318 63.0786 59.004 62.3712 57.5008 61.9042C57.9095 61.7314 58.3074 61.5339 58.6921 61.3127C60.279 61.5816 61.3197 62.4426 61.4895 62.2344C61.6147 62.1039 60.8266 61.1668 59.5432 60.8411C63.3106 58.8441 64.7961 61.9333 66.4821 64.4319C67.9499 66.568 68.1596 66.1164 68.2287 67.2892C68.294 68.489 67.5666 68.8654 67.6419 69.0689C67.7187 69.3554 68.9331 68.8976 69.0175 67.5028C70.4001 68.9621 71.0146 69.6765 71.8841 70.1342C69.9362 70.8155 70.7166 72.3663 70.5645 72.3886C70.4777 72.2826 67.953 71.1105 66.6004 72.5814C65.4137 73.8472 65.9997 75.8842 66.181 75.8511C66.3623 75.8181 65.9229 72.9109 67.9921 72.6044C69.2979 72.3801 70.5921 73.2957 72.0576 74.146C71.7617 73.5013 71.5117 72.8365 71.3095 72.1566C71.0891 71.1013 71.9785 70.6112 73.0608 70.536C73.7499 70.6245 74.4309 70.7684 75.097 70.9661C75.915 71.2612 76.6329 71.7817 77.1675 72.4676C77.7022 73.1534 78.032 73.9766 78.1186 74.8419C78.1317 75.9814 77.952 77.115 77.5871 78.1946C77.2138 78.8183 76.8052 78.8452 76.0509 78.8475C72.5316 78.8329 71.3065 81.0957 68.7272 79.5794C67.2732 78.7276 66.6795 77.3604 66.4644 77.4503C66.1956 77.5402 66.7478 79.4205 68.4676 80.3414C66.0228 80.0618 64.2323 78.0725 59.9141 75.3964C57.2489 73.8249 54.2641 73.6913 53.1127 76.3688C51.9506 79.1985 52.784 81.2531 52.8554 80.1486C52.8784 78.6271 53.362 77.1483 54.2426 75.9072C53.8513 76.9987 53.8576 78.1933 54.2602 79.2807C55.8732 83.8362 62.1716 81.257 64.9851 81.3998C68.9269 81.4935 69.4961 81.7332 73.0162 80.5326C75.9887 79.5119 75.9042 80.1156 77.1316 79.8007C76.8674 80.8214 76.6608 82.0942 75.9503 82.9037ZM60.1968 79.0349C57.5853 78.4488 55.5114 77.5755 54.8294 77.4127C54.7978 76.6522 55.0031 75.9007 55.417 75.262C58.1283 74.5577 60.7798 77.3958 64.8645 80.0088C63.8199 79.7784 62.1032 79.4704 60.1968 79.0349ZM64.1294 80.4282C61.021 80.5196 55.2864 82.6111 54.8455 77.6892C57.0745 79.3721 61.3535 80.2377 64.1294 80.4282Z" fill="black"/>
<path d="M68.5862 77.4268C69.2675 77.5635 74.5082 75.7485 70.3198 76.6825C69.2844 76.9222 68.9625 77.0297 68.7029 76.9552C68.1161 76.7516 68.4971 76.0819 68.941 75.6571C70.064 74.3606 73.5288 77.2317 73.6141 77.1426C73.8115 76.9629 71.4635 74.8767 69.7737 74.8061C68.2682 74.7846 67.0884 77.022 68.5862 77.4268Z" fill="black"/>
<path d="M73.7165 74.0047C74.1336 74.9732 75.1659 76.0747 75.2896 75.9564C75.4954 75.7674 73.5399 73.9448 74.1912 72.5153C74.4301 71.9715 74.6813 71.9815 74.944 72.2888C75.4524 72.8833 74.394 74.3518 74.669 74.4248C75.0839 73.9605 75.3783 73.4013 75.5262 72.7965C75.6352 71.8087 74.4355 70.8632 73.7135 72.2911C73.579 72.5568 73.5092 72.8505 73.5098 73.1482C73.5103 73.446 73.5812 73.7394 73.7165 74.0047Z" fill="black"/>
<path d="M56.4358 70.1822C56.7968 69.9825 56.405 70.09 57.1823 70.9333C59.2362 73.1769 63.5237 72.3029 63.2787 71.4902C62.969 70.7318 62.4589 70.0719 61.803 69.5812C61.147 69.0904 60.37 68.7873 59.555 68.7044C56.9174 68.4447 54.9541 70.6461 55.2076 70.8596C55.2951 70.9418 55.7045 70.5831 56.4358 70.1822ZM63.0144 71.5724C61.9294 71.6632 60.8374 71.6266 59.7608 71.4633C58.6808 71.2017 57.6745 70.6977 56.8183 69.9894C59.3568 68.8142 61.2379 69.6952 63.0144 71.5716V71.5724Z" fill="black"/>
<path d="M102.886 110.274C107.412 113.807 109.976 119.349 107.201 124.463C105.327 123.766 103.587 122.753 101.752 121.958C98.9625 120.748 94.6757 119.92 93.0835 122.29C91.8407 124.141 92.7824 127.744 93.1887 129.587C93.3032 130.107 93.0535 130.283 92.5166 130.202C87.1446 129.357 83.1966 123.081 85.7398 115.301C86.2907 113.355 87.3997 111.613 88.9297 110.291C88.1244 111.155 87.3728 112.068 86.6791 113.024C86.6968 111.32 96.0007 104.904 102.886 110.274Z" fill="#92FCFF"/>
<path d="M108.757 119.599C107.944 110.452 98.5863 104.883 90.5183 108.814C82.968 112.47 82.882 122.299 86.9436 127.958C93.9386 137.613 109.965 132.076 108.757 119.599ZM106.485 125.257C105.45 125.307 105.525 125.382 104.641 124.858C105.034 123.779 105.237 122.641 105.243 121.493C105.958 121.192 106.747 121.109 107.508 121.255C107.417 122.641 107.07 123.998 106.485 125.257ZM107.535 120.294C106.418 120.804 106.452 120.875 105.224 120.559C105.165 119.565 104.953 118.586 104.596 117.657C105.728 116.456 105.104 116.773 106.635 115.796C107.199 117.23 107.504 118.753 107.535 120.294ZM106.24 114.926C105.494 116.067 105.478 116.177 104.216 116.77C103.628 115.513 102.792 114.388 101.759 113.462C102.403 112.114 102.18 112.31 103.346 111.33C104.592 112.271 105.586 113.507 106.237 114.926H106.24ZM102.61 110.8C102.342 111.651 101.778 112.379 101.021 112.852C99.9452 112.069 98.7283 111.501 97.4373 111.18C97.9143 109.72 98.2691 109.945 99.0449 109.225C100.311 109.552 101.515 110.085 102.61 110.8ZM97.9934 109.003C97.2176 110.587 97.3935 109.958 96.4572 111.011C94.8501 110.771 93.2085 110.937 91.682 111.494C91.8886 110.234 92.2757 110.025 93.295 109.272C94.8227 108.841 96.4263 108.749 97.9934 109.003ZM86.2255 116.096C86.5851 114.666 87.2848 113.344 88.2652 112.242C89.2456 111.14 90.4775 110.292 91.8563 109.769C91.3747 110.474 90.9386 111.209 90.5506 111.97C89.92 112.346 89.3232 112.776 88.7671 113.256C85.9105 115.854 85.4866 120.096 86.2255 116.096ZM86.1487 122.234C85.949 108.874 102.159 109.014 104.082 119.718C105.294 127.339 98.733 131.905 91.4047 129.884C90.0324 129.059 88.853 127.949 87.9458 126.629C87.0386 125.309 86.4247 123.811 86.1456 122.234H86.1487ZM95.0969 131.204C97.3869 131.255 99.6318 130.563 101.496 129.232C102.236 129.332 102.316 129.333 102.617 129.629C100.378 131.034 97.7093 131.593 95.0938 131.204H95.0969ZM103.319 129.147C102.688 129.071 102.551 129.081 102.167 128.687C103.075 127.88 103.793 126.881 104.268 125.762C104.619 125.671 104.985 125.653 105.343 125.711C105.596 125.798 105.838 125.915 106.062 126.061C105.365 127.264 104.432 128.314 103.319 129.147H103.319Z" fill="black"/>
<path d="M89.7705 125.98C94.6624 131.153 102.372 128.117 102.653 121.811C102.898 117.015 98.6941 113.338 94.9374 114.073C93.6432 114.325 93.7085 114.366 94.9581 114.304C102.193 113.755 105.009 125.175 97.4375 127.533C93.9312 128.707 89.4448 126.123 88.6813 122.53C88.5009 121.305 88.631 120.055 89.0597 118.893C89.4883 117.732 90.2018 116.697 91.1346 115.883C91.9203 115.182 92.468 114.928 92.4334 114.864C91.8797 115 91.3672 115.268 90.9395 115.645C87.9647 117.85 86.5921 122.598 89.7705 125.98Z" fill="black"/>
<path d="M103.278 122.36C99.8788 120.763 95.8816 119.907 93.4084 122.689C91.6748 124.639 91.8975 127.77 93.2709 129.986C96.0821 134.526 102.01 135.601 105.623 139.382C108.311 142.194 109.273 145.662 117.989 143.126C125.319 140.994 126.066 137.272 122.958 133.141C119.649 128.738 117.639 129.531 115.148 129.666C112.192 129.827 111.713 126.326 103.278 122.36Z" fill="white"/>
<path d="M102.262 135.598C100.015 134.01 98.6524 133.614 96.8573 132.411C91.7234 128.975 91.7833 122.035 97.2859 121.965C103.838 121.879 111.524 128.648 111.864 128.327C112.203 128.007 108.127 122.874 100.828 120.664C94.7105 118.809 91.0736 121.879 91.2372 126.384C91.5045 133.743 98.8636 134.842 102.72 138.351C105.745 141.103 108.682 145.549 114.395 145.015C121.596 144.343 124.49 138.717 124.083 138.469C123.585 138.127 120.597 143.705 112.852 143.205C107.94 142.574 106.824 138.823 102.262 135.598Z" fill="black"/>
<path d="M101.583 132.75C99.9177 131.865 98.3453 130.816 96.8888 129.618C95.802 128.634 95.3196 127.852 95.3918 127.8C95.6583 127.575 95.0078 128.107 101.977 132.064C103.653 132.954 105.193 134.079 106.551 135.405C107.543 136.497 107.912 137.343 107.836 137.384C107.449 137.634 107.919 136.351 101.583 132.75Z" fill="black"/>
</svg>
