<svg width="155" height="155" viewBox="0 0 155 155" fill="none" xmlns="http://www.w3.org/2000/svg">
<path d="M85.1801 38.0404C85.7024 38.6625 85.1801 39.1618 84.5196 39.0773C83.0986 38.9006 82.9834 38.0941 82.2998 38.6318C81.9925 38.893 81.7314 39.0466 81.4395 39.254C80.9863 39.5689 81.9157 39.5919 82.4764 40.191C83.2445 40.9591 82.1615 41.7272 80.0646 40.6365C79.2505 40.2217 76.8694 42.4492 76.0859 41.2664C75.7557 40.7748 78.0215 39.7302 77.6759 39.5996C74.5497 38.3783 70.8399 36.0817 68.405 34.799C68.2668 34.7299 68.405 34.7069 66.6231 35.7361C66.1392 36.0126 64.9179 35.6439 66.5693 34.0002C66.8458 33.7314 65.5938 33.332 65.325 32.6484C65.2982 32.5297 65.3043 32.406 65.3427 32.2906C65.381 32.1751 65.4502 32.0723 65.5427 31.9933C65.6351 31.9143 65.7474 31.862 65.8674 31.8421C65.9874 31.8221 66.1106 31.8354 66.2236 31.8803C67.7598 32.4487 67.9365 32.9172 68.4434 32.5255C69.4035 31.7574 69.7108 31.7574 69.465 31.6422C68.3436 31.02 68.0747 30.9663 68.0747 30.5285C68.0747 29.8909 68.8428 29.8218 69.4112 30.0446C70.7631 30.5515 71.0549 30.9586 71.4927 30.7051C73.0289 29.8141 75.9477 28.662 77.6375 29.4531C79.9417 30.5669 78.1367 32.9403 78.0906 33.1476C78.4516 33.2014 82.6147 31.2505 84.6348 32.3795C86.6548 33.5086 85.6102 35.5902 84.051 37.2492C84.4708 37.4448 84.853 37.7126 85.1801 38.0404ZM75.5636 36.2738C75.218 36.4427 75.8325 36.6117 79.1506 38.3169C79.4578 38.4782 79.4041 38.4321 81.0401 37.1724C86.747 32.7559 82.3535 32.9249 75.5636 36.2738ZM75.1105 30.9509C73.4744 31.4348 69.7953 33.6546 70.0564 33.8159C73.413 35.4212 73.1749 35.3521 73.3976 35.1677C74.2084 34.553 74.9781 33.8859 75.7019 33.1707C77.5146 31.3119 76.7081 30.4824 75.1335 30.9509H75.1105Z" fill="#191919"/>
<path fill-rule="evenodd" clip-rule="evenodd" d="M98.1019 34.2587C98.2916 34.4999 98.2916 34.89 98.2916 36.013C98.2701 36.013 98.2932 37.4186 98.3262 39.5017C98.4153 45.0503 98.5812 55.4011 98.2072 56.7745C97.9045 57.8168 97.3538 58.1348 91.0017 61.8078C90.1 62.3301 89.0815 62.9192 87.9301 63.5874C84.3969 65.6306 81.24 67.2896 79.5272 68.1268C79.4005 68.1883 79.2661 68.2574 79.1263 68.3296C78.4058 68.7006 77.5317 69.1515 76.7928 69.0101C75.6637 68.7874 60.7551 60.2923 58.2895 58.1647C56.8248 56.8805 56.688 52.3825 56.6197 50.1228C56.6158 49.9769 56.612 49.8409 56.6074 49.7157C56.4154 44.1778 56.2234 38.2865 56.8993 35.2142C57.1604 34.0544 72.8986 25.4902 76.1476 23.9924C76.3891 23.8808 76.6643 23.8671 76.9157 23.954C83.9933 26.7477 90.86 30.0488 97.4621 33.8316C97.7839 34.0137 97.9813 34.1058 98.1019 34.2594V34.2587ZM76.8312 24.5846C76.0247 24.3157 57.6213 35.3455 57.9746 35.6067C60.9625 37.7988 69.5075 41.733 73.5568 43.5971C74.9402 44.2346 75.7997 44.6294 75.7328 44.6317C76.2091 44.8775 76.4602 45.0695 76.739 45.131C77.5663 45.3138 78.6462 44.3475 86.6167 40.2306C90.3726 38.2873 96.7017 34.7771 96.7862 34.6696C96.8163 34.6282 96.832 34.5781 96.831 34.527C96.8301 34.4758 96.8124 34.4264 96.7808 34.3862C96.7593 34.3599 96.7323 34.3386 96.7017 34.324C95.6187 33.5482 78.6285 25.4372 76.8312 24.5846ZM76.1553 47.7118C75.8634 49.8855 75.5562 66.4762 77.0002 67.3365C77.5839 67.7029 77.5071 66.1813 77.3305 62.6849C77.2521 61.1257 77.1538 59.1732 77.0847 56.8213C77.0554 55.7719 77.0286 54.7224 77.004 53.6729C76.9249 50.4416 76.8581 47.658 76.7237 47.3431C76.6699 47.2279 76.2398 47.0359 76.1553 47.7118Z" fill="#D9B343"/>
<path d="M33.2039 68.634C33.7262 69.2562 33.2039 69.7554 32.5433 69.6709C31.1223 69.4943 31.0071 68.6878 30.3235 69.2254C30.0455 69.4482 29.7551 69.6556 29.4556 69.8476C29.0101 70.1625 29.9395 70.1856 30.5002 70.7847C31.2683 71.5528 30.1699 72.3208 28.0884 71.2302C27.2742 70.8077 24.8931 73.0429 24.102 71.86C23.7794 71.3684 26.0453 70.3238 25.6996 70.1932C22.5735 68.972 18.8636 66.6754 16.4288 65.3927C16.2905 65.3235 16.4288 65.3005 14.6468 66.3297C14.1629 66.6063 12.9416 66.2376 14.593 64.5939C14.8695 64.325 13.6176 63.9256 13.3487 63.2497C13.3217 63.131 13.3276 63.0071 13.3659 62.8916C13.4041 62.776 13.4733 62.6731 13.5658 62.5939C13.6584 62.5148 13.7708 62.4626 13.891 62.4428C14.0111 62.423 14.1343 62.4364 14.2474 62.4816C15.7836 63.05 15.9602 63.5185 16.4672 63.1268C17.4273 62.3587 17.7345 62.3587 17.4887 62.2435C16.352 61.6137 16.0985 61.5676 16.0831 61.1298C16.0831 60.4923 16.8128 60.4231 17.4196 60.6459C18.7714 61.1528 19.0633 61.5599 19.4934 61.3064C21.0296 60.4155 23.9484 59.2633 25.6382 60.0544C27.9424 61.1682 26.1374 63.5416 26.0837 63.749C26.4523 63.8027 30.6077 61.8595 32.6355 62.9809C34.6632 64.1023 33.6263 66.2068 32.0671 67.8506C32.4881 68.0447 32.8726 68.3097 33.2039 68.634ZM23.6027 66.8828C23.2571 67.0594 23.8792 67.2207 27.1897 68.9259C27.4969 69.0872 27.4509 69.0488 29.0792 67.7891C34.8245 63.2958 30.2621 63.5569 23.6027 66.852V66.8828ZM23.1342 61.5676C21.598 62.0361 17.8113 64.2636 18.0725 64.4249C21.4367 66.0379 21.1986 65.9611 21.4214 65.7767C22.2512 65.1646 23.039 64.4974 23.7794 63.7797C25.5614 61.8979 24.7318 61.053 23.1342 61.5369V61.5676Z" fill="#191919"/>
<path fill-rule="evenodd" clip-rule="evenodd" d="M46.1267 64.8414C46.3149 65.0818 46.3149 65.4697 46.3149 66.5904C46.2934 66.5904 46.3195 68.0298 46.3571 70.1528C46.457 75.7053 46.6398 85.9309 46.2842 87.2981C45.9969 88.3388 45.4492 88.6553 39.2423 92.2423C38.1658 92.864 37.0899 93.4869 36.0148 94.111C32.4816 96.1542 29.3247 97.8132 27.6119 98.6505C27.4813 98.7134 27.3415 98.7841 27.1964 98.8586C26.4743 99.2288 25.6049 99.6743 24.869 99.5338C23.7476 99.311 8.82364 90.8313 6.36575 88.6883C4.8964 87.3826 4.76505 82.9576 4.69823 80.6879L4.6844 80.2393C4.50006 74.7014 4.3234 68.8102 4.98396 65.7378C5.2067 64.578 20.9602 56.0061 24.1862 54.5314C24.4326 54.4323 24.7079 54.4323 24.9543 54.5314C32.0266 57.326 38.8881 60.6271 45.4853 64.409C45.8079 64.5941 46.0061 64.6878 46.1259 64.8414H46.1267ZM24.8544 55.1612C24.0556 54.8924 5.64452 65.9145 6.00552 66.1756C9.03179 68.4123 17.7842 72.4279 21.759 74.2528C23.0402 74.8404 23.8252 75.2007 23.7638 75.2007C24.2377 75.4357 24.4888 75.6223 24.7669 75.6823C25.5964 75.862 26.6687 74.9195 34.6476 70.8072C38.4036 68.8639 44.7326 65.3461 44.8171 65.2385C44.8362 65.2109 44.8492 65.1795 44.8553 65.1464C44.8614 65.1134 44.8604 65.0794 44.8524 65.0468C44.8445 65.0141 44.8297 64.9835 44.809 64.957C44.7883 64.9305 44.7623 64.9086 44.7326 64.8929C43.6496 64.1248 26.6595 56.0061 24.8544 55.1612ZM24.1708 78.2884C23.8867 80.4698 23.5717 97.0528 25.0234 97.9208C25.6072 98.2656 25.5304 96.754 25.3537 93.2669C25.2498 91.3116 25.1678 89.3551 25.1079 87.3979C25.0787 86.3506 25.0518 85.3032 25.0273 84.2557C24.9489 81.0243 24.8813 78.2423 24.7469 77.9274C24.6931 77.8045 24.263 77.6125 24.1708 78.2884Z" fill="#D9B343"/>
<path d="M89.527 57.7039C89.8649 56.3367 90.2951 57.4427 87.6375 54.9541C87.373 54.7261 87.1977 54.4119 87.1426 54.0671C87.0875 53.7223 87.1561 53.3691 87.3364 53.07C87.4547 52.8718 87.619 52.7044 87.8141 52.5807C88.6974 51.8127 89.2504 51.9355 90.3411 52.8035C92.7222 54.7007 91.5317 54.0324 93.1984 53.5716C96.578 52.6268 100.111 55.2153 100.649 57.8729C100.718 58.2339 101.102 57.9266 102.554 58.5488C106.241 60.085 105.465 61.8669 106.394 61.6826C107.364 61.5276 108.357 61.5898 109.3 61.8647C110.243 62.1397 111.113 62.6205 111.848 63.2726C111.868 63.2896 111.883 63.3109 111.894 63.3348C111.905 63.3587 111.91 63.3846 111.91 63.4108C111.91 63.4369 111.904 63.4628 111.894 63.4866C111.883 63.5105 111.867 63.5317 111.848 63.5491C109.62 65.0852 109.636 65.1236 109.405 65.0084C105.511 62.7042 102.608 65.7765 102.999 64.1943C103.391 62.612 103.929 63.1036 103.583 62.3739C103.237 61.6442 101.832 60.8377 100.879 60.5919C100.395 60.469 100.987 61.36 99.4123 62.8962C98.5443 63.7257 98.7748 61.6749 98.337 61.6365C97.8991 61.5981 97.9759 63.9869 99.3585 65.116C100.995 66.4601 102.508 65.8841 105.181 64.8625C106.179 64.4631 105.665 66.3987 105.127 66.9747C105.004 67.0976 105.058 67.282 105.227 67.5431C106.233 69.0793 106.978 69.8474 108.852 70.2161C108.952 70.4696 108.952 69.9857 108.937 72.7585C108.937 72.7969 108.883 72.843 108.852 72.8967C108.207 72.8276 105.273 73.3192 102.892 68.5647C102.865 68.4889 102.811 68.4263 102.739 68.3905C102.667 68.3546 102.584 68.3482 102.508 68.3727C101.105 68.6833 99.6383 68.5213 98.337 67.9118C97.748 67.5895 97.2306 67.151 96.816 66.6229C96.4015 66.0948 96.0984 65.4881 95.9252 64.8395C95.833 64.5629 95.856 64.4708 95.3184 64.4247C94.0482 64.362 92.8247 63.9265 91.8005 63.1727C89.1736 60.9529 89.2735 58.7408 89.527 57.7039ZM97.2079 59.2401C98.1449 58.4105 98.3216 58.6717 98.1987 58.3568C97.9398 57.6808 97.4846 57.0978 96.8916 56.6826C96.2987 56.2675 95.5951 56.0392 94.8713 56.0272C94.391 56.0187 93.9138 56.1057 93.4673 56.2829C91.0555 57.2891 91.7467 60.9452 95.7024 61.913C96.0404 62.0206 95.7946 60.8223 97.1848 59.2631L97.2079 59.2401Z" fill="#191919"/>
<path d="M137.157 68.634C137.679 69.2562 137.157 69.7554 136.496 69.6709C135.075 69.4943 134.96 68.6878 134.276 69.2254C133.969 69.4866 133.708 69.6402 133.416 69.8476C132.963 70.1625 133.892 70.1856 134.453 70.7847C135.221 71.5528 134.138 72.3208 132.041 71.2302C131.227 70.8154 128.846 73.0429 128.062 71.86C127.732 71.3684 129.998 70.3238 129.652 70.1932C126.526 68.972 122.816 66.6754 120.381 65.3927C120.243 65.3235 120.381 65.3005 118.599 66.3297C118.116 66.6063 116.894 66.2376 118.546 64.5939C118.83 64.325 117.578 63.9256 117.301 63.2497C117.278 63.1314 117.286 63.0089 117.325 62.8949C117.364 62.7808 117.433 62.6792 117.525 62.6007C117.616 62.5221 117.727 62.4695 117.846 62.4486C117.965 62.4276 118.087 62.439 118.2 62.4816C119.736 63.05 119.898 63.5262 120.42 63.1268C121.388 62.3587 121.68 62.3587 121.426 62.2435C120.297 61.6367 120.036 61.5676 120.036 61.1298C120.036 60.4923 120.765 60.4231 121.372 60.6459C122.724 61.1528 123.016 61.5599 123.454 61.3064C124.99 60.4155 127.901 59.2633 129.599 60.0544C131.903 61.1682 130.098 63.5416 130.044 63.749C130.428 63.8027 134.576 61.8518 136.596 62.9809C138.616 64.11 137.587 66.2068 136.027 67.8506C136.447 68.0437 136.829 68.3089 137.157 68.634ZM127.54 66.8828C127.194 67.0594 127.809 67.2207 131.127 68.9259C131.434 69.0872 131.38 69.0488 133.017 67.7891C138.731 63.3419 134.33 63.5032 127.54 66.852V66.8828ZM127.087 61.5676C125.459 62.0592 121.772 64.2713 122.033 64.4249C125.389 66.0379 125.151 65.9611 125.374 65.7767C126.19 65.1681 126.96 64.5007 127.678 63.7797C129.491 61.8748 128.684 61.053 127.087 61.5369V61.5676Z" fill="#191919"/>
<path fill-rule="evenodd" clip-rule="evenodd" d="M150.08 64.8414C150.268 65.0818 150.268 65.4697 150.268 66.5904C150.247 66.5904 150.27 68.0121 150.304 70.1144C150.394 75.6707 150.559 85.9777 150.192 87.3211C149.89 88.3642 149.345 88.6799 143.093 92.2937C142.165 92.8299 141.111 93.439 139.914 94.1341C136.381 96.1849 133.224 97.8363 131.512 98.6735C131.374 98.7409 131.237 98.8103 131.101 98.8817C130.382 99.2534 129.513 99.7035 128.777 99.5568C127.648 99.3341 112.739 90.839 110.274 88.7114C108.809 87.4194 108.672 82.9277 108.604 80.6695L108.592 80.2624C108.4 74.7168 108.208 68.8332 108.884 65.7608C109.145 64.5933 124.883 56.0675 128.132 54.5314C128.378 54.4323 128.654 54.4323 128.9 54.5314C135.974 57.327 142.838 60.6281 149.439 64.409C149.762 64.5941 149.96 64.6878 150.08 64.8414ZM125.563 74.1991C126.573 74.6645 127.334 75.0163 127.71 75.2014C128.187 75.4372 128.438 75.6247 128.718 75.6853C129.549 75.8674 130.624 74.9288 138.609 70.808C142.372 68.8647 148.694 65.3468 148.778 65.2393C148.785 65.2278 148.794 65.217 148.803 65.207C148.994 64.9835 149.126 64.8291 128.808 55.162C128.001 54.8931 109.598 65.9152 109.951 66.1764C112.91 68.3547 121.375 72.2643 125.563 74.1991ZM128.109 78.2892C127.832 80.4475 127.533 97.0536 128.977 97.9215C129.537 98.2541 129.472 96.9522 129.299 93.492C129.193 91.4618 129.109 89.4306 129.046 87.3987C129.017 86.3514 128.99 85.3039 128.965 84.2564C128.887 81.0251 128.819 78.2431 128.685 77.9282C128.631 77.8053 128.201 77.6132 128.109 78.2892Z" fill="#D9B343"/>
<path d="M60.7855 53.0641C61.2924 53.4865 61.6227 52.7568 63.3125 51.62C64.0806 51.0901 64.5415 50.9672 65.394 51.7813C65.5906 51.9302 65.7485 52.1242 65.8542 52.347C65.9599 52.5698 66.0103 52.8147 66.0013 53.0611C65.9923 53.3076 65.924 53.5482 65.8022 53.7626C65.6805 53.977 65.5088 54.159 65.3019 54.293C62.8593 56.5051 63.3586 55.3376 63.5583 57.012C63.9347 60.215 61.1465 62.9187 58.7577 63.3027C57.1294 63.5638 57.1063 63.1798 56.9681 63.6791C56.534 65.0072 55.6099 66.12 54.3841 66.7907C53.1582 67.4614 51.7228 67.6396 50.3702 67.2891C49.917 67.1508 50.0937 67.1431 49.748 67.7883C49.0256 69.1982 47.8892 70.3533 46.4913 71.0988C46.3147 70.7839 46.4222 71.4829 46.3838 68.0264C46.3838 67.6962 46.9522 67.1585 47.3209 66.69C48.3348 65.3996 47.2441 66.2061 47.0981 64.0017C47.006 62.6959 50.3856 65.246 52.5516 64.6622C52.9599 64.541 53.34 64.3397 53.6698 64.0702C53.9996 63.8007 54.2725 63.4683 54.4726 63.0923C54.6727 62.7164 54.7961 62.3043 54.8355 61.8803C54.8749 61.4562 54.8296 61.0285 54.7022 60.6221C54.6638 60.5529 54.5486 60.6221 54.5486 60.6605C54.5335 61.1019 54.456 61.5389 54.3182 61.9585C54.1876 62.2888 53.8573 62.1966 53.6423 61.9585C51.9601 60.2073 52.805 59.2011 51.8757 59.4853C50.9463 59.7695 49.5714 60.4531 49.2949 61.3517C49.1028 61.9585 49.6636 61.7358 50.063 63.3795C50.1859 63.9402 49.5714 63.6714 49.2488 63.5178C47.8278 62.8572 45.4083 62.6575 44.0335 63.5178C43.0251 63.0555 42.0407 62.5428 41.084 61.9816C41.8703 61.3357 42.7895 60.8714 43.776 60.6217C44.7626 60.3721 45.792 60.3434 46.7909 60.5376C47.3362 60.6681 47.1442 58.6634 50.6313 57.4038C51.8065 56.9813 52.3442 57.181 52.4133 56.8507C52.6596 55.943 53.145 55.1181 53.8189 54.462C55.7315 52.1807 59.6257 52.1116 60.7855 53.0641ZM54.8558 57.3577C54.6485 57.8262 55.7622 57.5958 56.5533 59.4238C56.7942 59.855 56.9653 60.3217 57.0603 60.8064C57.1294 61.5745 61.0774 59.9231 60.9545 57.3039C60.8316 54.6847 56.3536 54.0395 54.8558 57.3577Z" fill="#191919"/>
<path d="M100.98 99.1112C100.971 99.2622 100.971 99.4135 100.98 99.5644V99.1112ZM117.041 81.376C116.672 81.1994 116.226 81.4759 115.635 81.8907C113.446 83.4268 113.753 83.5344 113.246 83.1734C110.796 81.4221 105.65 83.5574 104.897 86.9677C104.774 87.5054 101.663 86.9063 99.4744 90.5547C99.1749 90.9541 98.6449 90.0939 97.6387 90.6238C101.095 92.5287 100.872 92.2138 100.911 93.5733C101.533 93.8805 101.679 93.8421 102.247 94.1033C102.554 94.2415 102.624 93.8959 102.524 93.4965C102.101 91.8528 101.64 92.2215 101.809 91.5916C102.071 90.6622 103.853 89.7482 104.651 89.6714C105.135 89.6253 104.498 90.332 106.188 92.1984C106.38 92.4058 106.741 92.4442 106.81 92.1984C107.102 91.1538 107.002 90.8159 107.086 90.8159C107.578 90.8159 107.501 93.5733 105.097 94.8483C103.998 95.4321 103.246 94.8483 101.141 94.1417C101.057 94.1417 100.888 94.0265 100.888 94.2569C100.888 94.6256 100.826 99.5875 101.057 99.6335C102.831 97.4368 102.255 97.3293 102.762 97.4522C103.814 97.7455 104.93 97.7171 105.967 97.3708C107.003 97.0245 107.912 96.376 108.576 95.5089C109.913 93.7269 109.114 93.5579 109.928 93.5733C113.638 93.6424 116.787 90.2168 115.858 86.6605C115.781 86.3917 115.75 86.192 115.912 86.0614C117.532 84.6635 117.816 84.5252 118.108 84.1872C118.761 83.4576 118.646 82.1288 117.041 81.376ZM110.466 90.9695C109.844 91.1001 109.59 91.2844 109.536 90.9695C109.414 90.3274 109.164 89.7167 108.799 89.1742C108.435 88.6316 107.965 88.1685 107.416 87.8126C107.278 87.7435 107.278 87.6897 107.347 87.5515C108.607 85.0091 111.541 84.6942 112.839 86.1151C114.437 87.8357 112.455 90.5701 110.466 90.9695Z" fill="#191919"/>
<path d="M86.0246 96.6689C86.6237 97.3755 86.0246 97.9362 85.2565 97.8517C83.6435 97.6443 83.4592 96.7303 82.7449 97.3448C82.4361 97.6013 82.1127 97.8394 81.7771 98.0591C81.2701 98.4048 82.3147 98.4355 82.9522 99.1114C83.7895 99.9947 82.5912 100.847 80.2332 99.6337C79.2961 99.1498 76.6232 101.669 75.7091 100.34C75.3328 99.7873 77.9289 98.6198 77.5295 98.4739C73.9425 97.1681 69.7488 94.5489 67.0144 93.0358C66.8608 92.9436 67.0144 92.9129 65.002 94.0881C64.472 94.403 63.051 93.9498 64.9559 92.1141C65.2785 91.7992 63.8729 91.346 63.5349 90.5779C63.5086 90.4439 63.5185 90.3053 63.5635 90.1764C63.6086 90.0475 63.6872 89.9329 63.7913 89.8445C63.8953 89.7561 64.0211 89.697 64.1556 89.6734C64.2901 89.6497 64.4285 89.6623 64.5565 89.71C66.3231 90.3705 66.4921 90.8852 67.0681 90.4781C68.1511 89.6408 68.5045 89.6332 68.2126 89.4719C66.9222 88.7883 66.6303 88.7038 66.6303 88.2276C66.6303 87.4595 67.4522 87.4134 68.1665 87.6745C69.7027 88.2352 70.033 88.7115 70.5245 88.4426C72.2681 87.4518 75.5786 86.1384 77.4374 87.037C80.0565 88.3044 78.0057 90.9927 77.9366 91.2308C78.3591 91.2846 83.0674 89.0801 85.3717 90.3475C87.5377 91.538 86.4317 93.9498 84.6804 95.824C85.1765 96.0209 85.6321 96.3073 86.0246 96.6689ZM75.1331 94.6642C74.7337 94.8485 75.4941 94.9714 79.204 96.9684C79.5573 97.1528 79.4958 97.0836 81.3392 95.6704C87.5685 90.9082 83.2595 90.7546 75.1331 94.6642ZM74.6338 88.65C72.9056 89.1723 68.5429 91.7224 68.8962 91.8914C72.7366 93.7501 72.4524 93.6196 72.6906 93.4275C73.6211 92.7066 74.5133 91.9374 75.3635 91.1233C77.3375 89.0571 76.4081 88.1047 74.6108 88.65H74.6338Z" fill="#191919"/>
<path fill-rule="evenodd" clip-rule="evenodd" d="M100.68 92.3956C100.895 92.6706 100.895 93.113 100.895 94.3873C100.875 94.3873 100.896 95.796 100.927 97.9267C101.018 104.098 101.198 116.324 100.741 117.86C100.405 119.032 99.7827 119.393 91.1548 124.393L89.097 125.587C85.0723 127.907 81.5006 129.773 79.565 130.726C79.439 130.79 79.3138 130.857 79.1895 130.925C78.386 131.356 77.3568 131.91 76.4927 131.732C75.21 131.478 58.2045 121.747 55.5162 119.442C53.8678 118.012 53.7242 113.172 53.6466 110.548C53.6397 110.311 53.6336 110.092 53.6267 109.895C53.4039 103.604 53.1888 96.9374 53.9569 93.4502C54.2795 92.1368 72.1069 82.4205 75.786 80.7153C75.9254 80.6546 76.0757 80.6233 76.2277 80.6233C76.3797 80.6233 76.53 80.6546 76.6694 80.7153C84.6955 83.8708 92.4793 87.6112 99.9578 91.9064C100.321 92.1145 100.544 92.2213 100.68 92.3956ZM55.0384 93.8097C55.0461 93.845 55.0975 93.8719 55.1628 93.9188C58.6116 96.402 68.1689 100.814 72.7782 102.942C74.3989 103.691 75.4089 104.157 75.3252 104.157C75.8606 104.421 76.144 104.631 76.4574 104.697C77.3944 104.899 78.6034 103.831 87.6146 99.1648C91.8545 96.9604 99.0285 92.9817 99.136 92.8588C99.1682 92.825 99.2013 92.7981 99.2097 92.7651C99.2881 92.4678 97.4577 91.6683 76.5234 81.4219C75.6939 81.0225 56.9371 92.5439 56.7912 92.6821C55.3587 93.5424 55.02 93.7098 55.0384 93.8097ZM75.7546 107.645C75.432 110.01 75.071 128.928 76.7377 129.919C77.3875 130.305 77.3061 128.653 77.1064 124.602C76.9922 122.397 76.9 120.19 76.8299 117.983C76.7838 116.556 76.7454 115.1 76.7093 113.738C76.6194 110.357 76.5449 107.558 76.4082 107.23C76.3391 107.084 75.8552 106.876 75.7553 107.645H75.7546Z" fill="#D9B343"/>
<path d="M38.3496 93.2121C36.3986 91.5761 34.5091 88.9569 35.6459 86.7678C36.0146 86.0535 33.5336 85.1548 33.1496 83.8952C32.8577 82.9197 33.4952 82.1593 34.4169 81.6908C35.5768 81.0993 37.689 84.1717 38.2574 83.5956C39.0081 83.1435 39.8792 82.9318 40.7537 82.9888C43.4266 83.2961 45.2777 84.356 46.4376 86.7832C46.7832 88.2426 46.5989 87.3439 48.304 88.0352C51.9601 89.5099 51.5914 91.4378 52.3211 91.2765C53.6032 91.1027 54.9085 91.256 56.1155 91.722C53.5885 93.4348 54.2644 93.143 53.865 93.888C53.0969 93.888 53.0969 93.7498 52.444 93.719C50.1398 93.5885 48.8801 95.0632 48.8417 94.2337C48.893 93.6908 49.0982 93.1739 49.4331 92.7436C50.2012 91.8679 48.304 90.6313 47.1288 90.2319C46.2225 89.9324 46.8754 91.3764 45.3238 92.5899C44.6325 93.1353 45.0012 91.2612 44.2715 91.1997C43.8721 91.0154 43.8568 94.3719 46.3992 95.4165C47.6665 95.9311 47.7587 95.3628 51.146 94.4103C51.507 94.3028 51.7527 94.4948 51.699 94.8789C51.3994 97.114 50.3011 96.0848 51.8219 97.9973C53.8573 100.555 53.5578 97.6517 53.5194 102.36C51.9653 101.912 50.6106 100.948 49.6789 99.6256C49.3851 99.1333 49.1284 98.6199 48.9108 98.0895C48.6497 97.5672 48.7572 98.2815 46.6065 98.0895C45.8285 98.0304 45.0739 97.7958 44.3995 97.4033C43.725 97.0109 43.1482 96.4708 42.7123 95.8236C41.6293 94.3412 42.2438 94.034 41.5832 93.9341C40.4573 94.0238 39.3304 93.7722 38.3496 93.2121ZM37.9809 88.0121C37.8964 89.8095 39.8781 90.8617 41.5371 91.5684C42.0364 91.7835 41.637 89.6251 44.0258 88.2042C44.4943 87.9276 42.2284 85.1318 40.1853 85.6771C38.918 86.0151 37.9655 86.6219 37.9809 88.0044V88.0121Z" fill="#191919"/>
</svg>
