<svg width="154" height="154" viewBox="0 0 154 154" fill="none" xmlns="http://www.w3.org/2000/svg">
<path d="M106.665 53.7142H41.7871V100.543H106.665V53.7126V53.7142Z" fill="black"/>
<path d="M100.869 113.664C101.371 111.936 101.395 110.105 100.94 108.365C100.485 106.624 99.567 105.04 98.2837 103.779C96.8374 102.397 90.6281 98.0184 86.0165 97.5844C82.7037 97.271 79.0707 97.1819 76.3908 99.1544C73.7109 101.127 70.614 106.873 71.773 111.021C72.2792 112.832 74.0773 113.976 75.4207 115.293C79.6897 119.445 85.3897 121.798 91.344 121.868C97.882 121.916 99.2338 119.016 100.869 113.664Z" fill="#92FCFF"/>
<path d="M102.125 109.624C101.775 107.397 101.04 105.47 98.1401 102.963C92.0215 97.808 80.6115 94.2763 74.6365 99.5338C72.6733 101.261 71.8714 104.834 71.2085 107.351C70.8481 108.374 70.7992 109.481 71.068 110.532C72.8169 117.506 87.108 124.779 95.5117 121.991C96.9042 121.553 98.7822 120.481 99.4781 119.313C101.111 116.337 102.018 113.017 102.125 109.624ZM77.4062 99.0069C85.9704 94.9699 101.979 102.897 100.969 110.923C99.4973 121.648 80.0093 114.639 75.2594 107.805C73.0973 104.857 73.1426 100.973 77.4062 99.0069ZM73.2732 104.212C73.4602 106.297 74.3984 108.243 75.9131 109.687C75.4046 111.749 75.794 111.627 74.4222 113.819C71.5211 110.625 71.6663 109.204 73.2732 104.208V104.212ZM75.0851 114.509C75.2794 113.911 75.473 113.007 75.7418 112.316C75.9853 111.69 76.3931 110.979 76.6635 110.425C78.2025 111.802 79.915 112.973 81.7575 113.906C81.2014 115.768 81.7091 115.658 80.0823 118.2C78.2518 117.208 76.5697 115.965 75.0851 114.505V114.509ZM80.8557 118.606C82.0563 114.797 81.8343 116.194 82.6454 114.347C84.6275 115.298 86.7047 116.036 88.8423 116.549C88.6426 117.129 88.4422 118.107 88.1457 118.838C87.8707 119.518 87.3876 120.293 87.1126 120.846C84.9445 120.352 82.8437 119.599 80.8557 118.602V118.606ZM88.0228 121.033C88.7433 117.764 88.8746 118.627 89.8217 116.764C91.5136 117.138 93.2512 117.263 94.9794 117.136C94.6483 119.95 94.5661 119.232 93.8272 121.169C91.901 121.471 89.936 121.424 88.0266 121.029L88.0228 121.033ZM94.7866 120.946C95.0762 118.301 95.6853 118.258 96.0025 116.992C97.673 116.651 99.1731 115.74 100.246 114.415C98.955 118.96 97.541 120.16 94.7858 120.942L94.7866 120.946Z" fill="black"/>
<path d="M76.6872 106.881C79.4346 111.101 87.475 115.015 95.2296 114.455C102.102 113.933 100.432 105.577 91.0305 101.446C88.121 100.2 88.2654 100.393 90.9076 101.71C98.1668 105.427 100.509 111.045 97.5792 113.001C94.3172 115.281 81.3526 112.649 77.2633 106.5C76.2793 105.04 75.8292 103.651 76.741 102.135C78.4308 99.279 83.1507 99.557 86.4012 100.167C90.1533 100.907 88.2446 100.337 86.465 99.8827C77.4645 97.6452 73.6348 102.209 76.6872 106.881Z" fill="black"/>
<path d="M65.9419 116.689C66.671 115.048 66.9496 113.243 66.749 111.458C66.5484 109.674 65.8758 107.976 64.8005 106.538C63.5976 104.98 58.1765 99.7602 53.7308 98.6711C50.5516 97.8915 47.0307 97.2885 44.1496 98.8631C41.3384 100.399 37.4519 105.635 38.0095 109.957C38.2499 111.822 39.8406 113.209 40.9628 114.703C44.5062 119.397 49.729 122.536 55.5365 123.464C61.9301 124.442 63.6276 121.714 65.9419 116.689Z" fill="#92FCFF"/>
<path d="M67.6724 111.415C65.799 101.583 46.4731 91.773 40.3683 101.18C39.1552 103.264 38.1734 105.475 37.4404 107.772C35.7659 116.63 58.1135 131.228 64.7483 120.744C66.1262 118.548 68.1578 113.967 67.6724 111.415ZM45.0844 98.8832C53.7308 96.0228 68.4674 106.01 66.4242 113.938C63.7544 124.295 45.6152 114.958 41.8269 107.209C40.0457 103.791 41.045 100.074 45.0844 98.8832ZM40.4052 103.462C40.3023 105.536 40.9429 107.579 42.2133 109.222C41.4344 111.179 41.8438 111.116 40.1978 113.095C37.8052 109.487 38.2046 108.098 40.4052 103.462ZM40.7524 113.876C41.0227 113.312 41.3346 112.444 41.6925 111.796C42.0136 111.216 42.5075 110.575 42.8447 110.066C44.1455 111.639 45.6456 113.036 47.3073 114.222C46.5054 115.989 47.0354 115.938 45.0875 118.232C43.4461 116.989 41.9874 115.522 40.7539 113.874L40.7524 113.876ZM45.7941 118.751C47.4494 115.224 47.1099 116.439 48.1237 114.793C49.9147 116.008 51.8295 117.03 53.836 117.841C53.561 118.387 53.2331 119.329 52.8421 120.013C52.4819 120.644 51.9035 121.34 51.5579 121.848C49.5189 121.051 47.5841 120.01 45.7957 118.747L45.7941 118.751ZM52.4289 122.166C53.5726 119.049 53.581 119.901 54.77 118.196C56.3577 118.803 58.0267 119.172 59.7219 119.292C59.016 122.027 59.0437 121.289 58.0413 123.123C56.1283 123.147 54.2268 122.822 52.4304 122.164L52.4289 122.166ZM59.0199 123.034C59.6558 120.479 60.2711 120.488 60.7519 119.294C62.4186 119.189 63.9968 118.507 65.2145 117.364C63.3519 121.606 61.8664 122.629 59.0214 123.032L59.0199 123.034Z" fill="black"/>
<path d="M46.8707 110.977C49.9207 113.625 53.6017 115.443 57.5586 116.254C59.4658 116.638 61.578 117.048 63.211 116.148C64.5121 115.481 65.3832 113.915 64.8432 111.391C64.0644 108.106 60.9958 105.051 58.0771 103.206C55.577 101.657 55.5186 101.763 57.9158 103.449C61.1226 105.753 65.2011 110.118 64.2433 113.783C63.552 116.585 60.2492 116.032 57.7146 115.538C53.8842 114.733 50.3196 112.972 47.3522 110.42C45.5088 108.851 43.3805 106.234 43.3405 103.955C43.2914 102.201 44.9113 100.308 47.6418 100.221C49.7209 100.2 51.7865 100.558 53.7366 101.28C57.2936 102.546 55.5132 101.71 53.8411 101.008C43.415 96.7071 38.6383 103.885 46.8707 110.977Z" fill="black"/>
<path d="M58.0311 127.328C57.0978 129.494 57.1985 130.337 58.0211 131.989C59.2869 134.53 61.8677 138.662 64.5783 139.538C67.1783 140.379 72.6086 139.488 77.1104 135.206C81.136 131.376 83.9257 125.053 84.0501 122.993C84.2867 119.096 80.3111 115.884 77.6642 113.647C77.2027 113.209 76.6669 112.857 76.0819 112.608C74.8891 112.18 72.5027 112.516 71.2952 112.971C68.5301 114.014 65.9677 117.123 63.4553 118.526C60.8561 119.976 59.6533 125.706 58.0311 127.328Z" fill="#92FCFF"/>
<path d="M84.4586 121.204C84.1437 119.171 79.5428 113.738 76.154 112.254C75.4393 111.946 74.6692 111.788 73.8912 111.79C73.1132 111.791 72.3436 111.952 71.63 112.262C64.2179 115.11 54.0407 126.429 58.067 133.336C59.3807 135.578 61.0864 137.566 63.1026 139.205C64.4754 140.16 66.1584 140.56 67.8141 140.326C76.1886 139.647 85.4994 127.877 84.4586 121.204ZM58.7 127.537C59.5449 124.413 62.0565 120.873 64.3324 118.69C66.1643 116.893 69.8826 114.03 71.991 113.18C77.4613 111 85.6369 118.236 74.0932 129.935C70.2528 133.84 64.4921 137.866 60.2722 134.409C58.6969 132.244 57.8312 130.724 58.6969 127.537H58.7ZM61.3053 135.725C62.6758 136.349 64.2091 136.52 65.6834 136.214C66.4692 137.175 67.0076 136.993 68.1851 139.043C65.6919 139.377 64.1849 139.114 61.3022 135.725H61.3053ZM69.1398 138.864C67.6966 137.466 67.8786 138.031 66.6819 135.949C68.1892 135.4 69.6054 134.627 70.8834 133.657C72.3512 134.809 72.266 134.159 74.0149 136.575C72.5379 137.622 70.8867 138.397 69.1383 138.864H69.1398ZM74.7638 136.038C74.3137 135.674 73.6047 135.209 73.1139 134.738C72.5932 134.237 72.0678 133.489 71.6791 133.062C73.2947 131.822 74.7734 130.412 76.0903 128.858C77.6718 130.246 76.8584 129.071 79.2279 131.793C77.9114 133.379 76.4125 134.803 74.7623 136.038H74.7638ZM79.7748 131.105C77.4352 129.597 78.085 129.723 76.717 128.092C77.9199 126.604 78.9267 124.969 79.7126 123.225C82.3241 125.371 81.1343 124.48 82.6198 126.125C81.9063 127.909 80.9483 129.585 79.7733 131.105H79.7748ZM82.9539 125.219C80.8801 123.855 81.3194 123.856 80.0859 122.251C80.4963 121.26 80.6893 120.192 80.6519 119.12C80.6146 118.047 80.3477 116.996 79.8693 116.035C80.8863 117.163 81.8446 118.342 82.7404 119.568C83.9563 121.155 83.5976 123.306 82.9524 125.219H82.9539Z" fill="black"/>
<path d="M60.572 132.553C62.7703 136.371 69.5679 132.08 72.6088 129.319C83.6839 119.181 76.7065 110.789 69.4273 116.465C68.6301 117.088 62.6451 121.271 67.5133 118.21C70.3959 116.346 73.4514 113.723 76.2695 115.982C83.1823 121.304 64.5776 137.81 61.1266 132.201C59.1964 129.206 61.8555 124.123 64.1989 121.189C66.0178 118.962 65.8173 119.012 63.9785 120.999C61.2479 124.011 58.5473 129.269 60.572 132.553Z" fill="black"/>
<path d="M66.7506 125.726C66.8151 125.649 66.9296 125.797 65.2252 124.362C65.1484 124.297 64.782 124.841 63.4885 126.386C63.4332 126.451 63.4755 126.343 63.1206 127.872C64.141 128.817 65.2082 129.709 66.3182 130.546C68.1493 129.761 67.0701 130.681 71.1318 125.842C71.194 125.765 71.151 125.87 71.5005 124.365C71.522 124.275 71.6802 124.437 69.4366 122.57C69.3598 122.506 69.6932 122.21 71.1149 120.513C71.1794 120.436 71.0634 120.389 72.1964 121.331C72.2156 121.347 72.2102 121.361 72.181 121.396L71.3876 122.341C71.3177 122.424 71.2109 122.275 72.9099 123.705C72.9867 123.772 73.3308 123.255 74.642 121.69C74.8125 121.182 74.93 120.658 74.9945 120.126C72.34 117.915 71.8891 117.426 71.8315 117.502C71.7739 117.579 70.4735 118.045 70.366 118.173C66.723 122.511 66.9518 122.23 66.9342 122.307C66.6922 123.365 66.5501 123.702 66.6269 123.766C68.889 125.68 68.7261 125.477 68.6585 125.557C67.458 126.991 67.0118 127.637 66.9326 127.57C65.8412 126.648 65.8911 126.745 65.9549 126.67L66.7506 125.726Z" fill="black"/>
<path d="M109.743 119.702C109.873 122.637 110.626 127.315 112.136 129.688C114.168 132.88 120.222 135.721 125.6 133.093C131.962 129.981 137.928 126.116 143.368 121.58C145.92 119.6 147.922 116.998 149.181 114.023C151.549 107.994 147.343 106.142 140.26 101.273C141.812 94.9108 139.353 87.107 136.005 81.6697C132.431 75.8629 125.5 69.348 122.016 66.8678C117.715 63.8077 108.702 60.2622 103.476 61.0303C100.543 61.4604 97.648 63.3062 96.7624 66.1358C87.7826 64.4153 82.4644 71.3888 84.7149 76.697C81.303 76.0595 77.9426 79.0021 77.2544 82.4017C75.7052 90.0649 83.8799 95.7495 87.7903 99.1283C97.5351 107.55 89.0884 112.12 109.743 119.702Z" fill="white"/>
<path d="M150.303 110.199C149.601 105.344 144.179 103.522 140.821 100.892C142.728 93.5126 140.42 86.9209 136.228 80.4974C126.617 65.8468 113.692 59.6821 104.38 59.7873C100.226 59.8641 97.4526 62.0148 96.2198 65.0657C88.7033 63.7922 81.3911 69.2379 83.362 75.9264C79.1667 76.047 75.2533 80.6886 76.5022 86.235C77.5161 90.9203 81.1169 94.2846 84.4496 97.2463C90.6781 102.777 89.8823 102.916 93.8733 109.646C97.1177 115.253 102.282 119.075 108.845 119.869C109.126 122.085 109.655 124.263 110.423 126.362C113.424 134.334 118.706 136.36 126.338 133.588C134.081 130.671 151.525 119.176 150.303 110.199ZM148.659 112.451C146.937 119.95 132.072 129.551 125.742 131.993C118.817 134.576 114.549 132.821 111.708 125.858C110.953 123.957 110.394 121.984 110.04 119.969C114.06 120.167 119.027 118.609 118.933 118.293C118.738 117.582 103.716 123.527 95.3527 108.782C93.2128 105.095 92.1221 102.21 88.9007 98.9884C85.3291 95.3837 75.9377 88.9333 78.3487 81.9606C79.1606 79.515 81.4264 77.405 84.008 77.6961C84.0694 77.2076 84.3559 79.0472 87.8261 81.8438C89.3209 83.0413 97.2399 89.3096 99.1939 90.789L99.9059 89.921C89.582 80.7631 86.863 79.5657 85.3667 76.299C82.7767 70.8148 88.8708 65.6686 95.8489 66.2285C93.9286 73.8987 101.581 77.2122 104.943 80.3314L106.132 79.0533C102.833 76.0109 98.0425 73.9624 97.4096 69.6058C97.2217 68.5952 97.2644 67.5553 97.5343 66.5634C97.8043 65.5716 98.2946 64.6535 98.9688 63.8775C99.6429 63.1015 100.484 62.4877 101.428 62.0818C102.372 61.6759 103.396 61.4884 104.423 61.5332C121.759 61.269 142.616 84.3977 139.724 99.3493C138.502 104.006 136.897 107.201 132.061 111.196C128.215 114.361 124.204 116.151 124.299 116.359C124.376 116.543 136.084 112.768 140.436 102.069C144.133 105.05 149.884 107.125 148.659 112.448V112.451Z" fill="black"/>
<path d="M10.6795 92.7613C11.2755 76.5231 33.7222 56.1534 45.8088 59.2864C47.0234 59.5728 48.1359 60.1873 49.025 61.0628C49.9141 61.9384 50.5456 63.0414 50.8506 64.2514C52.5152 63.3986 54.3568 62.9485 56.2272 62.9372C62.1499 63.2198 65.6639 70.4061 61.6891 75.7765C66.462 73.6966 71.7326 78.9657 67.777 85.7049C66.3591 88.1205 64.2269 90.0231 62.4641 92.2006C55.9353 100.266 56.9208 109.155 41.9453 115.59C41.145 115.935 40.9599 116.199 41.1527 117.151C41.9737 121.216 41.8662 125.635 38.7247 128.315C36.3367 130.352 32.749 129.885 29.6282 129.55L30.4777 130.37C21.9519 128.415 7.16697 122.06 5.24291 113.856C4.26052 109.668 6.12314 104.433 11.7771 100.773C11.0228 98.1699 10.653 95.4709 10.6795 92.7613Z" fill="white"/>
<path d="M69.4281 78.4012C69.0081 77.1414 68.1869 76.0538 67.0903 75.3048C65.9937 74.5558 64.6819 74.1865 63.3556 74.2535C67.057 66.8799 57.6786 58.9394 51.3503 63.2583C45.4829 46.1745 2.35464 75.4087 11.0356 100.543C-1.62023 110.221 4.43002 119.634 18.7511 126.945C25.203 130.19 34.6544 133.641 39.7337 128.548C42.5419 125.051 42.5265 121.289 41.9973 116.356C54.1785 113.415 56.9973 99.7388 64.5653 91.1845C67.4472 87.8633 71.1932 83.4215 69.4281 78.4012ZM67.8405 82.8976C67.1492 85.6366 65.0999 87.9079 63.2465 90.0409C54.415 100.005 52.6607 114.714 37.2298 115.714C31.3408 116.088 27.0472 114.354 26.9274 114.699C26.8129 115.012 33.5767 117.925 40.8559 116.598C41.1263 120.9 41.1317 126.567 37.0923 128.621C30.6649 132.011 16.7847 124.617 11.1977 120.224C4.16272 114.612 3.59357 108.33 11.458 101.664C13.2508 106.081 16.5596 109.714 20.7903 111.911C22.4671 112.809 21.5876 112.049 20.0445 110.912C18.8305 109.928 17.6794 108.87 16.5981 107.741C-1.94437 85.0552 34.9363 55.4868 46.5436 60.5193C49.0522 61.577 50.5377 64.2338 49.7519 66.7301C49.0737 68.9291 46.5306 71.8594 45.1204 74.0723L46.5966 75.004C48.7565 71.5929 52.1891 68.3584 51.6491 64.4811C56.0488 61.4472 62.9808 65.9482 62.4285 71.3555C62.2142 73.9747 60.2064 75.6107 53.6362 86.2426L54.564 86.8748C55.8452 85.1635 62.0099 76.461 62.0621 76.3842C65.0953 74.8357 69.1862 77.7791 67.8405 82.8976Z" fill="black"/>
<path d="M47.1706 36.7534C39.444 36.5421 31.8783 38.9843 25.7334 43.6732C19.5885 48.362 15.2355 55.0146 13.3993 62.5228C6.2253 65.0667 0.728079 69.4463 6.89815 73.846C10.8715 76.6787 13.5099 76.4344 13.8978 78.1864C14.4938 80.8817 7.03717 87.7737 9.38061 92.0382C10.3945 93.8816 12.837 94.4001 14.9324 94.208C20.1961 93.7264 21.011 92.2164 26.9192 96.0407C33.3343 100.193 40.2563 105.66 48.5793 105.859C51.6202 105.932 54.0328 105.507 56.4254 103.44C61.2559 99.2613 63.6208 92.9729 65.6271 86.9089C74.8726 58.9596 76.7183 37.5599 47.1706 36.7534Z" fill="#FFC5F6"/>
<path d="M72.169 53.8776C71.6582 49.6409 69.887 44.2711 66.492 41.8033C53.7072 33.5425 37.2562 33.1469 23.3177 44.7996C16.7989 50.253 15.6307 55.6143 15.3949 55.0774C12.8602 56.1258 8.49126 53.1418 10.6596 48.0701C11.1223 48.938 11.8784 49.6132 12.7929 49.9752C13.7074 50.3372 14.7208 50.3624 15.6522 50.0464C20.1071 48.6278 16.6031 40.8478 11.4883 44.0108C11.7956 41.8371 13.2419 39.7586 12.9393 39.5605C12.7088 39.4068 10.3869 41.7818 10.0205 44.732C9.92528 45.6061 10.1119 45.1468 9.69025 45.739C6.6947 50.0403 7.92364 55.9753 13.1874 57.1658C15.3787 57.6482 14.4632 55.8478 13.0491 62.0217C10.3579 62.9935 7.78474 64.2653 5.37819 65.813C2.29738 68.1073 2.64917 70.5997 5.19615 73.3556C7.31535 75.6439 10.1311 77.1679 13.2058 77.6907C13.7435 79.8583 14.1144 77.9719 10.5789 84.2303C8.10568 88.7559 7.40595 94.1509 12.3793 94.9259C15.1529 95.3261 18.5786 94.4328 22.1686 93.6693C22.1533 93.5925 22.0795 93.5587 22.6802 94.1632C32.2352 103.784 46.0094 107.205 51.9652 106.222C62.2952 104.403 69.4453 79.0856 71.5261 67.3039C72.3777 62.8818 72.5941 58.3609 72.169 53.8776ZM12.7626 45.5784C15.5969 44.2036 16.6522 48.0263 14.7205 48.3674C14.2007 48.4687 13.6622 48.4052 13.1803 48.1857C12.6983 47.9662 12.2969 47.6017 12.0322 47.143C11.8866 46.9224 11.768 46.6852 11.6788 46.4364C11.9859 46.0879 12.353 45.7974 12.7626 45.5784ZM4.67232 69.529C4.55096 67.5858 7.48967 66.1417 9.16487 65.1778C10.3498 64.5206 11.5536 63.8982 12.7749 63.3113C11.9511 67.7012 12.0088 72.2112 12.9446 76.5785C7.94745 75.0977 4.72301 71.1405 4.67232 69.529ZM10.4514 88.1168C11.0283 86.0168 12.0759 84.3416 14.0238 80.4774C15.5913 85.0474 18.091 89.2419 21.3644 92.7952C14.457 93.6432 8.50355 95.2815 10.4499 88.1199L10.4514 88.1168ZM51.8085 105.269C43.5523 106.666 26.1235 98.8171 19.6939 88.636C9.00204 73.8296 11.6427 49.9089 33.6009 40.1373C43.1252 35.899 54.8946 36.22 65.6564 42.9961C68.6934 45.1967 70.301 50.3014 70.7665 54.0566C72.4348 67.5642 62.5725 103.45 51.8085 105.272V105.269Z" fill="black"/>
<path d="M42.7683 101.645C35.1527 99.378 26.9042 93.7456 22.8748 88.8706C17.6556 82.4033 16.6156 77.181 16.2845 77.2939C16.1125 77.3515 17.1663 80.6013 18.5527 83.3534C20.8421 88.104 24.3246 92.1796 28.66 95.182C39.3349 103.124 49.0075 103.347 49.0229 103.056C46.9076 102.733 44.8176 102.262 42.7683 101.645Z" fill="black"/>
<path d="M53.9131 100.218C53.9155 100.21 53.9194 100.207 53.9131 100.218V100.218Z" fill="black"/>
<path d="M67.6261 49.7108C67.5186 49.5095 67.3699 49.3333 67.1895 49.1935C67.0092 49.0538 66.8014 48.9537 66.5797 48.8999C66.358 48.8461 66.1274 48.8398 65.9031 48.8813C65.6788 48.9228 65.4658 49.0113 65.278 49.1409C62.7203 50.8007 49.6858 92.5379 52.3549 100.515C56.9573 110.734 73.1901 60.4064 67.6261 49.71V49.7108ZM55.8105 98.3562C55.4426 98.887 54.3673 100.208 53.9287 100.217C51.2266 95.2915 64.4608 45.6829 66.7796 50.1686C70.8152 58.3748 60.7071 91.3413 55.8113 98.3562H55.8105Z" fill="black"/>
<path d="M45.3774 81.6575L46.2992 79.2725C83.2942 71.1922 77.681 71.776 81.5645 74.0941L90.9498 107.921L89.1993 112.639L57.3704 119.52L55.0462 117.715C46.78 86.7076 49.0842 95.2718 45.3774 81.6575Z" fill="#FFC5F6"/>
<path d="M52.3223 81.1026C61.2828 113.544 60.593 111.98 61.3719 111.809C88.838 105.681 87.5169 106.244 87.2842 105.407C78.4957 73.858 79.1816 75.4264 78.4258 75.5708C51.1778 80.6817 52.0803 80.2277 52.3223 81.1026Z" fill="#FDFE1F"/>
<path d="M82.7075 74.9378C81.3342 69.7063 74.9429 72.314 67.8957 73.7319C45.4283 78.2513 46.2302 77.726 45.1487 79.4926C44.0265 81.3283 44.0265 79.5379 54.4741 117.974C54.6824 118.742 55.1775 119.4 55.8572 119.814C56.5369 120.228 57.3494 120.365 58.1271 120.197C89.9883 113.342 89.095 114.007 90.0344 112.125C92.9316 106.326 92.6958 112.981 82.7075 74.9378ZM68.1906 75.1989C76.0736 73.6274 80.3365 71.7886 81.2628 75.3172C81.7121 77.0285 90.1373 107.617 90.1373 107.617C86.5818 108.385 62.7165 113.858 61.1304 114.212C57.5687 114.919 59.5942 116.548 49.6451 78.948L68.1906 75.1989ZM49.089 92.4356C45.9268 80.8375 45.8085 81.2868 46.426 80.2768C46.5861 80.0101 46.8053 79.7839 47.0667 79.6155C47.3282 79.4472 47.6248 79.3412 47.9338 79.3059C48.1473 80.0848 57.6025 113.529 58.0073 114.154C57.8547 115.026 57.6125 115.879 57.2845 116.7C56.9607 117.211 56.5992 117.697 56.2031 118.154C55.902 117.769 56.4473 119.422 49.089 92.4356ZM88.6956 111.46C88.1963 112.458 90.2748 111.738 57.8122 118.738C57.6947 118.763 57.5741 118.775 57.4543 118.773C57.869 116.485 58.3168 116.726 59.4183 115.156C60.2363 115.358 89.6042 109.504 89.681 109.488L88.6956 111.46Z" fill="black"/>
<path d="M54.5378 90.2268C57.2868 102.439 63.0414 118.605 59.9682 107.575C56.9957 96.8946 51.8971 78.4989 54.5378 90.2268Z" fill="black"/>
<path d="M59.5446 79.4637C70.0774 77.1464 78.4181 75.7 78.3881 75.4696C78.3213 74.9934 69.0051 76.6602 67.1848 77.0388C59.7612 78.5865 51.4658 81.2387 59.5446 79.4637Z" fill="black"/>
<path d="M85.6226 106C84.4191 103.688 82.5888 101.761 80.3412 100.44C83.0548 98.8983 80.4134 92.9579 78.8933 91.6C78.5408 91.2843 78.7881 91.0485 79.2006 90.7981C80.3942 90.0676 80.7843 88.1996 79.4602 86.4568C78.5123 85.2094 77.6298 85.4414 76.5061 86.433C76.1989 85.3577 74.5982 84.999 74.327 84.499C74.0336 83.9559 74.9622 83.3153 74.7671 81.6086C74.5482 79.6884 72.545 81.0825 71.777 82.4351C71.8733 81.849 71.8058 81.2478 71.5819 80.6977C71.343 80.1139 71.0165 80.0832 70.4466 80.3236C69.2714 80.8183 67.9457 81.4934 68.0348 82.8353C68.074 83.4221 68.1884 82.8046 65.7421 79.2614C65.4817 78.8827 65.0877 78.4541 64.6629 78.7237C63.6183 79.3889 65.2774 82.3107 63.5507 81.7338C62.1443 81.2638 61.8563 80.8889 61.4077 80.8966C60.877 80.9043 60.5413 81.495 60.4945 82.0234C60.4453 82.5918 60.9246 85.0082 58.9399 83.9359C57.6172 83.2216 56.482 83.7823 57.5634 85.1649C58.7039 86.6396 59.9802 88.004 61.3755 89.2404C58.0727 89.7066 57.6564 93.3374 59.8393 94.4903C60.5431 94.7769 61.2907 94.9411 62.0499 94.9757C62.4731 95.0372 62.5691 95.1585 62.6743 95.5779C63.3533 98.2762 64.9371 100.794 67.6416 101.339C68.3812 101.487 68.2437 101.948 67.693 102.307C64.6744 104.268 62.712 107.991 63.3717 111.524C70.1198 110.381 76.7995 108.866 83.3805 106.986C84.5703 106.65 86.0174 106.851 85.6226 106Z" fill="white"/>
<path d="M87.4468 105.992C86.9237 105.973 86.4007 106.032 85.8952 106.168C84.8698 103.584 83.3137 101.462 80.749 100.453C82.2768 99.0215 82.0548 97.5736 81.2936 95.6511C81.2168 95.6818 81.2514 92.674 78.9755 91.2315C79.6983 90.8121 80.2277 90.1257 80.4498 89.3201C80.6718 88.5144 80.5688 87.6538 80.163 86.9233C79.3388 85.3525 77.4839 84.9462 76.5821 85.9916C75.834 84.609 74.9692 84.7542 74.685 84.4062C74.3217 84.0445 75.1835 83.4077 75.1804 82.102C75.1619 80.0796 73.337 79.9659 72.0804 81.5935C72.3369 80.128 70.9582 79.3299 69.4604 80.2478C68.8207 80.7472 68.2926 81.3752 67.9104 82.0912C66.5639 79.6978 65.5432 78.0065 64.6337 78.4812C63.712 78.9628 64.4425 81.5067 63.8856 81.4875C63.0169 81.4475 62.2158 80.237 61.0037 80.5819C59.7502 80.9444 60.3716 82.9545 60.2794 83.5644C60.1757 84.2472 58.3546 83.112 57.3791 83.3847C55.6071 83.9039 57.6249 85.7657 60.7464 89.2298C56.4513 89.7721 57.6664 95.5965 62.2058 95.3292C62.8395 98.4308 64.6084 101.19 67.6738 101.976C64.5347 103.794 62.1067 107.705 62.9501 111.274L62.937 111.279L62.9862 111.432C54.1985 113.971 87.5996 106.611 87.4468 105.992ZM79.822 97.327C78.9248 98.069 77.6244 98.2841 76.553 98.6374C69.147 100.849 69.1931 101.286 76.7365 99.3018C78.3795 98.8578 80.3327 98.5084 81.0378 96.9269C81.7821 99.7419 79.3987 100.854 76.5376 101.535C74.2034 102.042 72.052 102.698 70.0088 101.248C67.9672 99.7673 68.4972 96.3623 70.5173 94.0542C70.5 94.3246 70.5555 94.5947 70.6782 94.8363C70.8009 95.0778 70.9862 95.282 71.2147 95.4276C72.1057 95.9299 73.4967 95.0189 74.0789 95.4583C74.4929 95.7348 74.7564 96.5966 74.9238 96.4821C74.9394 96.221 74.9024 95.9594 74.8151 95.7128C74.7278 95.4662 74.5918 95.2397 74.4154 95.0466C73.741 94.383 72.7148 94.9168 71.7002 94.8284C71.2393 94.7117 70.8967 93.7577 71.9721 92.9697C73.2732 92.1194 74.7562 91.5871 76.301 91.4158C76.8533 91.3605 77.8864 91.5249 77.9678 92.0303C78.146 92.6732 77.0829 93.1586 76.5699 93.81C76.0568 94.4613 76.225 94.9882 76.493 95.7056C76.5944 95.9268 76.6543 96.0505 76.7066 96.0451C76.7588 96.0397 76.7895 95.8915 76.7765 95.6372C76.7265 94.6648 76.546 94.4997 77.6306 93.7385C78.2527 93.2777 78.8987 92.7462 78.6944 91.8582C78.6399 91.6094 78.4217 91.3813 78.9202 91.8444C80.1868 92.9912 81.3443 96.1096 79.822 97.327ZM69.76 94.2547C69.2289 94.3227 68.6899 94.2242 68.2173 93.9727C67.7446 93.7212 67.3618 93.3291 67.1216 92.8506C67.2437 92.7915 68.104 92.3022 68.8283 91.9934C68.7515 92.1263 68.7714 92.1109 69.0541 92.7024C69.2177 93.0465 70.3138 92.4481 70.1655 92.1378C69.9927 91.7737 69.9689 91.6647 69.8921 91.6155C71.1571 91.2607 71.4098 91.4834 71.7785 91.1017C71.926 91.988 71.8976 92.1002 71.532 92.3606C71.1448 92.6171 70.8407 92.9789 70.6533 93.4036C69.7461 94.2001 69.8475 94.31 69.7584 94.2554L69.76 94.2547ZM76.4078 87.4809C77.0023 88.0577 76.8456 88.7221 76.4846 88.7567C75.2464 88.9034 74.0536 89.3097 72.9836 89.9503C71.2885 90.9304 72.6626 90.3958 71.5465 89.2675C71.595 88.87 71.7251 88.4869 71.9286 88.1421C72.1321 87.7972 72.4047 87.4982 72.7292 87.2637C73.0538 87.0292 73.4232 86.8642 73.8145 86.7792C74.2058 86.6942 74.6104 86.6909 75.003 86.7696C75.5276 86.8747 76.0132 87.1224 76.4063 87.4855L76.4078 87.4809ZM76.2941 90.6608C73.4161 90.9058 72.3769 92.197 72.3523 91.6808C72.2962 90.4795 71.5312 91.137 73.168 90.2982C74.5098 89.607 74.1112 89.8374 74.2018 90.0041C74.4906 90.5371 74.4469 90.6954 75.1397 90.4918C75.9139 90.2683 75.5014 89.7798 75.3217 89.4533C76.139 89.2475 76.533 89.2936 76.8018 89.1561C76.7858 89.6974 76.6085 90.2217 76.2926 90.6616L76.2941 90.6608ZM71.532 90.1923C71.7201 90.9811 71.0964 90.8236 70.1993 91.0372C68.1063 91.5257 66.9787 92.6294 66.706 92.5418C66.408 92.465 66.2982 91.6539 66.289 91.3398C66.3769 90.7061 66.6699 90.1186 67.1231 89.6671C67.5764 89.2157 68.1651 88.925 68.7991 88.8396C69.2199 88.7836 69.6478 88.8195 70.0534 88.9449C70.3799 89.0227 70.6836 89.1762 70.9399 89.393C71.1962 89.6098 71.398 89.8839 71.5289 90.193L71.532 90.1923ZM77.7274 86.0983C79.6891 85.9708 80.905 89.5086 78.444 90.958C78.1186 90.8266 77.7711 90.7585 77.4201 90.7576C76.6743 90.5556 76.8825 90.8697 77.0783 90.2775C77.2401 89.8116 77.2668 89.3093 77.1551 88.8289C77.2143 88.7321 77.2565 88.6253 77.2811 88.5147C77.3328 88.6223 77.4207 88.7082 77.5294 88.7575C77.6381 88.8068 77.7606 88.8163 77.8756 88.7843C77.9632 88.7244 78.1828 88.938 78.1698 89.1238C78.1467 89.5209 77.7089 89.9372 77.8226 90.0379C77.9371 90.1746 78.6337 89.7821 78.6675 89.1238C78.674 89.005 78.6533 88.8863 78.6071 88.7767C78.561 88.667 78.4905 88.5693 78.401 88.4909C78.3118 88.4125 78.2062 88.3551 78.0918 88.3229C77.9775 88.2907 77.8574 88.2846 77.7404 88.3051C77.5592 88.1937 78.1375 87.636 78.4793 87.921C78.8634 88.2451 78.9302 88.05 78.7558 87.7021C78.4486 87.0876 77.5392 87.3618 77.268 87.9809C77.1714 87.6018 76.9531 87.2648 76.6467 87.0216C76.7153 86.779 76.8543 86.5623 77.0461 86.3988C77.2379 86.2353 77.474 86.1323 77.7243 86.1029L77.7274 86.0983ZM58.2778 85.3203C57.3384 84.1681 57.3638 84.1489 57.5965 84.0913C58.2386 83.9254 59.4215 84.7135 60.4215 84.4193C61.6505 84.0214 60.3409 81.4629 61.2119 81.2148C62.0829 80.9667 62.9132 82.1826 64.0246 82.0881C64.666 82.042 64.7006 81.5505 64.6929 80.8961C64.6806 79.853 64.5293 78.3867 65.3458 79.0941C65.7697 79.4505 68.1877 83.5644 68.4366 84.778C68.4857 85.0176 69.2569 84.4585 61.7542 88.9587C61.5184 89.0355 61.579 89.0309 60.7265 88.0923C60.8033 88.0462 67.2015 83.9715 67.1247 83.8294C67.0624 83.7103 65.3765 84.4807 63.4662 85.7258C59.9238 88.0255 60.9177 88.3012 60.0613 87.3603C59.4465 86.6976 58.8508 86.0176 58.2747 85.321L58.2778 85.3203ZM62.7327 95.2663C64.0776 94.9936 64.6337 93.9252 64.328 93.9037C64.2835 93.9037 64.2789 93.9352 64.2866 93.9413C64.3903 93.9467 63.8672 94.3699 63.5753 94.5128C62.9889 94.7358 62.3574 94.8142 61.7342 94.7415C61.111 94.6688 60.5145 94.447 59.9952 94.0949C59.4713 93.7447 59.0983 93.2101 58.9504 92.5975C58.8026 91.9848 58.8907 91.339 59.1972 90.7883C59.8462 89.8758 61.4101 89.6492 62.4746 89.9472C63.1659 90.1976 63.7881 90.6086 64.2912 91.1455C64.4294 91.0809 63.9133 89.8566 62.4808 89.3896C63.189 88.9694 67.4841 86.2796 68.8759 85.4639C69.1931 85.278 69.1202 84.7726 69.0771 84.6359C68.4765 82.1841 67.7606 83.4791 68.9235 81.8761C69.4297 81.191 69.8721 80.6426 70.7669 80.6011C71.6518 80.5758 71.5074 81.5666 71.2186 82.4023C70.8599 83.3923 70.7907 84.0744 70.8921 84.0921C71.0004 84.152 71.416 83.324 72.2854 82.2103C73.2778 81.0113 74.4868 80.6134 74.4453 82.0958C74.4346 82.9991 73.8616 83.4423 73.8539 84.1635C73.8355 85.1206 74.8939 85.3156 75.1466 85.4639C75.6211 85.7545 75.9893 86.1903 76.1966 86.7067C75.7347 86.4255 75.211 86.2621 74.6712 86.2306C74.1315 86.1991 73.5923 86.3006 73.1009 86.5261C72.6095 86.7516 72.181 87.0943 71.8529 87.524C71.5249 87.9538 71.3073 88.4575 71.2193 88.991C70.7496 88.6391 70.1945 88.4191 69.6113 88.3536C69.0281 88.2882 68.438 88.3797 67.902 88.6187C67.366 88.8577 66.9035 89.2355 66.5624 89.7131C66.2213 90.1906 66.014 90.7506 65.9618 91.3352C65.941 92.0318 66.163 92.9681 66.7721 92.9482C66.9416 93.5079 67.3037 93.9897 67.7944 94.3081C68.285 94.6265 68.8724 94.761 69.4527 94.6879C67.3843 97.4568 67.9765 100.372 69.3444 101.593C65.7444 101.293 63.8142 98.7311 62.7327 95.267V95.2663ZM63.4901 111.294C62.9524 107.666 65.4341 104.013 68.4458 102.128C69.0157 102.202 69.5918 102.212 70.164 102.158C71.0403 102.631 72.0232 102.872 73.019 102.857C74.4561 102.857 78.5799 102.058 80.2621 100.853C82.8329 102.125 83.9489 103.794 85.3791 106.26C79.9448 107.262 68.21 109.977 63.4901 111.296V111.294Z" fill="black"/>
<path d="M81.3365 105.32C79.5853 103.763 76.9162 104.227 74.6288 104.646C69.0294 105.67 68.7406 109.652 69.0387 109.705C69.4557 109.782 69.6339 106.325 74.7725 105.381C76.8248 104.997 79.043 104.583 81.0262 105.749C81.6046 106.082 81.9026 106.405 81.9956 106.338C82.0731 106.292 81.9149 105.825 81.3365 105.32Z" fill="black"/>
<path d="M63.1906 92.0848C61.1337 89.6123 59.4354 92.783 60.0606 92.8053C60.182 92.8168 60.6544 91.3836 61.9601 91.7346C61.2397 91.8114 61.1383 92.7484 61.5569 93.2485C62.0177 93.8123 62.7513 93.5596 62.689 93.4282C62.6629 93.336 61.732 93.2992 61.8149 92.4988C61.8457 92.101 62.0945 92.2684 62.2889 92.2323C63.4656 92.1708 63.2943 92.2139 63.1906 92.0848Z" fill="black"/>
<path d="M59.9683 56.2034C59.0483 54.9813 58.4767 53.5325 58.3144 52.0114C58.1521 50.4902 58.4051 48.9535 59.0466 47.5647C59.7802 46.0285 63.3986 40.6811 66.9342 38.9452C69.4742 37.6978 72.3354 36.5326 75.0613 37.2938C77.7873 38.055 81.9787 41.6911 82.3067 45.3388C82.4496 46.931 81.3635 48.3827 80.6937 49.8344C78.5507 54.4204 74.729 58.0087 70.0173 59.8588C64.8304 61.865 62.8802 59.9671 59.9683 56.2034Z" fill="#92FCFF"/>
<path d="M82.8114 44.7272C82.7047 43.7963 82.3267 42.9173 81.7245 42.1995C80.4295 40.3814 78.7067 37.7791 76.6022 36.9903C70.2186 34.5977 62.1813 40.886 58.8508 46.8379C57.2924 49.7114 57.2747 51.4857 57.6749 53.3936C58.785 56.0776 60.5151 58.4605 62.7235 60.3471C63.931 61.0753 65.3354 61.409 66.7414 61.3018C74.2549 60.99 83.5365 50.9319 82.8114 44.7272ZM58.5228 51.0816C58.9161 44.9262 67.3398 37.0102 74.2011 37.5594C77.9717 37.8321 79.4057 40.6318 78.5147 43.8163C76.9562 50.0155 65.4095 60.609 59.9638 55.4098C58.8631 53.6978 58.4138 52.8091 58.5228 51.0816ZM63.4271 59.3885C62.4986 58.6276 61.6642 57.7586 60.9416 56.8001C62.1246 57.4151 63.4722 57.6389 64.7905 57.4391C65.4095 58.2909 66.0148 58.2564 66.8904 60.0752C65.6933 60.197 64.4872 59.9579 63.4271 59.3885ZM67.8329 59.9531C66.5609 58.6251 66.6807 59.0759 65.7859 57.2156C67.1545 56.8016 68.458 56.1968 69.6579 55.419C70.8776 56.5796 70.7332 55.82 72.2747 58.1581C70.9132 59.0168 69.4088 59.6247 67.8329 59.9531ZM73.039 57.6757C71.0059 56.0381 71.7655 56.6772 70.4805 54.8822C71.9898 53.8517 73.3883 52.6677 74.6535 51.3489C76.0914 52.7192 75.4777 51.6562 77.265 54.0772C76.0035 55.4395 74.5849 56.6474 73.039 57.6757ZM77.8296 53.442C75.9239 52.1001 76.4009 52.1178 75.3233 50.6254C76.4729 49.3568 77.4568 47.9474 78.2512 46.4309C80.14 48.1153 79.3212 47.348 80.6277 49.0946C79.8996 50.6656 78.958 52.1286 77.8296 53.442ZM80.9895 48.2428C79.2805 47.0085 79.5839 46.8502 78.6852 45.4923C79.381 43.9949 79.5656 42.3104 79.2106 40.6978C81.6938 43.9399 82.3052 44.8471 80.9895 48.2428Z" fill="black"/>
<path d="M62.2283 55.3026C63.7645 55.7082 65.442 54.9892 67.0151 54.2941C70.1914 52.8781 72.9552 50.6771 75.0462 47.8982C76.4672 46.0218 77.7606 43.2897 77.2829 41.1989C76.8858 39.45 74.8557 38.019 72.2304 38.6074C68.605 39.4523 65.6417 42.0776 65.7377 42.1944C65.8668 42.348 68.4091 39.9216 72.3318 39.1266C74.6829 38.6758 76.3458 39.9354 76.6408 41.3441C77.0471 43.2344 75.7306 45.8029 74.4625 47.4543C72.4292 50.1248 69.7632 52.2471 66.7047 53.6297C64.72 54.4915 62.0409 55.6352 60.9164 53.4884C60.0646 51.9315 60.6046 49.7616 61.3304 48.1394C63.0694 44.2936 65.7853 42.4271 65.6525 42.2612C65.2961 41.8295 57.8694 49.0542 60.335 53.7964C60.5227 54.1695 60.7893 54.4974 61.1162 54.7575C61.4431 55.0176 61.8225 55.2035 62.2283 55.3026Z" fill="black"/>
<path d="M66.6631 43.696C66.5094 43.8005 66.5793 43.7874 66.0962 46.008C66.0194 46.3528 65.8043 46.0256 70.0135 49.5781C70.1448 49.6894 70.2761 49.5435 70.3115 49.373C70.7762 47.1417 70.8492 47.0918 70.6863 46.9535C66.4488 43.3926 66.8028 43.6008 66.6631 43.696Z" fill="black"/>
<path d="M71.8202 46.0025C73.53 45.3165 74.2835 45.1437 73.9663 44.8711C69.8048 41.3232 70.1174 41.4915 69.8186 41.6097C67.6195 42.49 67.6979 42.404 67.6257 42.5591C67.5228 42.7811 69.6511 44.285 69.5851 44.3618C71.6996 46.1369 71.5222 46.1223 71.8202 46.0025Z" fill="black"/>
<path d="M65.0531 47.2745C62.8095 48.1654 62.9025 48.081 62.8303 48.2346C62.7688 48.3667 62.4562 48.0472 66.7183 51.6702C66.8566 51.7878 66.8305 51.747 69.0495 50.8791C69.2031 50.8177 69.3137 50.6617 69.197 50.5688C65.2536 47.3712 65.4448 47.1193 65.0531 47.2737V47.2745Z" fill="black"/>
<path d="M75.0684 68.0911C75.5511 66.4312 75.5749 64.6716 75.1374 62.9993C74.6999 61.327 73.8174 59.8045 72.5836 58.5937C71.1942 57.2656 65.2284 53.0634 60.7973 52.6417C57.6136 52.3406 54.1234 52.2577 51.548 54.1495C48.9726 56.0413 45.9977 61.5662 47.1115 65.5518C47.5977 67.2915 49.3266 68.3937 50.6163 69.6572C54.7181 73.6459 60.1949 75.9073 65.9159 75.9748C72.1981 76.0209 73.4969 73.2342 75.0684 68.0911Z" fill="#92FCFF"/>
<path d="M76.296 64.2123C75.9542 62.0424 75.2407 60.2029 72.4556 57.7987C66.5697 52.8446 55.5968 49.4442 49.8438 54.5021C47.9497 56.1673 47.1731 59.6153 46.541 62.024C46.1942 63.0108 46.1471 64.0782 46.4058 65.0918C48.0902 71.7933 61.8344 78.8014 69.9263 76.1177C71.2604 75.6983 73.0754 74.6637 73.7498 73.5338C75.3204 70.6704 76.1928 67.4766 76.296 64.2123ZM52.5321 54.0236C60.6485 50.1946 76.1209 57.6728 75.1416 65.4512C73.7383 75.6515 55.0944 69.0981 50.4713 62.4503C48.293 59.4862 48.5388 55.8716 52.5321 54.0243V54.0236ZM48.5465 59.1022C48.7501 61.068 49.6444 62.8978 51.0704 64.2661C50.5934 66.2324 50.9698 66.1371 49.6594 68.2033C46.8605 65.1202 47.0717 63.7676 48.5465 59.1022ZM50.3131 68.8884C50.4944 68.3124 50.6733 67.4529 50.9276 66.7954C51.158 66.2024 51.5489 65.5296 51.8093 65.0004C53.2802 66.3153 54.9159 67.4333 56.6752 68.3262C56.1575 70.0928 56.6306 70.036 55.0852 72.4178C53.3376 71.4698 51.7313 70.2818 50.3131 68.8884ZM55.8572 72.821C56.9801 69.1695 56.6913 70.7165 57.5654 68.7655C59.4596 69.6725 61.444 70.3774 63.4858 70.8686C63.2977 71.43 63.1133 72.361 62.8314 73.0561C62.571 73.7013 62.1079 74.4325 61.8398 74.9617C59.7683 74.4893 57.7609 73.7707 55.8602 72.821H55.8572ZM62.7439 75.1484C63.3975 72.0898 63.5611 72.8287 64.4628 71.0836C66.0781 71.4393 67.7357 71.5591 69.3855 71.4393C69.0937 74.0753 69.0015 73.4517 68.2879 75.2797C66.4479 75.5672 64.5712 75.5225 62.7469 75.1476H62.7439V75.1484ZM69.2388 75.0539C69.4838 72.682 70.1267 72.3863 70.4056 71.2949C71.9793 70.9692 73.3956 70.1182 74.4219 68.8815C73.1738 73.2243 71.8119 74.3196 69.2419 75.0539H69.2388Z" fill="black"/>
<path d="M51.8214 61.5808C54.4629 65.6393 62.1907 69.4061 69.6504 68.8646C76.1753 68.3714 74.7881 60.3633 65.6171 56.3447C62.9956 55.2248 62.9104 55.317 65.4942 56.6089C68.3123 58.056 71.622 60.4924 72.7219 63.4449C76.4656 74.2819 47.2859 64.6915 51.8952 57.0183C53.5082 54.2816 58.0399 54.5451 61.166 55.1273C64.7499 55.8316 62.9749 55.2909 61.2298 54.8431C52.5965 52.6909 48.8727 57.069 51.8214 61.5808Z" fill="black"/>
<path d="M64.1772 65.1439C64.1899 65.1722 64.2125 65.1949 64.2408 65.2076C64.2692 65.2204 64.3012 65.2223 64.3308 65.213C65.9822 64.9956 69.3618 64.5532 69.391 64.5486L66.463 60.2557L64.585 60.5046C66.5506 63.4525 66.536 63.2098 66.3155 63.239C65.367 63.3619 63.2655 63.6277 63.1587 63.6384C63.2946 63.8535 63.4244 64.0263 64.1772 65.1439Z" fill="black"/>
<path d="M59.2233 59.9509C60.1957 59.8265 62.3317 59.5469 62.4131 59.5361L61.3501 57.9723L56.2085 58.6436L59.1318 62.9265L61.0083 62.6784C60.4007 61.7375 59.0696 59.9709 59.2233 59.9517V59.9509Z" fill="black"/>
<path d="M63.198 60.6774L61.3101 60.9239L62.3877 62.4993L64.2741 62.2558L63.198 60.6774Z" fill="black"/>
<path d="M62.8431 65.3888L61.7862 63.8373L59.9229 64.0785L60.9843 65.6277L62.8431 65.3896V65.3888Z" fill="black"/>
<path d="M64.6604 57.6022C64.5913 57.5 64.6934 57.5254 62.7832 57.7742C62.7064 57.7835 62.6296 57.6306 63.804 59.3534C63.9092 59.3473 64.6281 59.2474 65.6151 59.123C65.7288 59.1076 65.7349 59.1898 64.6604 57.6022Z" fill="black"/>
<path d="M140.296 83.0982C138.589 79.5143 136.78 78.1232 136.563 77.4635C136.277 76.5955 137.395 74.2889 137.71 70.9877C137.864 69.4077 137.229 67.7993 137.836 66.2586C138.173 65.578 138.563 64.9252 139.004 64.3061C141.498 60.1054 139.304 55.7803 135.113 53.7325C132.406 52.4107 134.359 52.7678 129.565 47.2944L130.006 47.4173C125.926 43.6537 125.328 43.0999 124.991 42.5469C124.139 41.152 124.617 39.4507 121.53 33.4519C122.001 35.4351 120.593 30.6361 117.269 29.848C113.849 29.0369 110.631 32.4595 105.111 37.0588C99.6369 36.5757 99.2321 38.9691 95.5222 37.3031C90.3368 34.975 86.2598 31.7045 82.9731 36.31C82.0084 37.6618 81.1781 39.761 80.291 40.9408C80.1635 41.8832 78.0005 43.8925 77.31 44.5308C75.4489 46.2506 74.084 47.6162 73.4204 50.4282C73.6147 51.0481 73.488 53.9038 74.2653 55.1136C74.7623 55.887 75.7969 56.6981 75.75 58.1337C75.6794 60.2913 74.5741 59.8427 75.3552 63.3375C76.7263 69.4722 79.9899 73.1015 80.2134 75.3274C80.9331 75.7168 80.7388 76.7438 80.3908 77.753C80.4354 78.5203 80.4415 79.2892 80.4085 80.0573C81.387 81.6219 82.6751 83.2533 83.1682 84.8801C83.772 86.8733 82.1229 88.7144 83.159 90.6915C83.7811 91.6806 84.4691 92.6268 85.2183 93.5235C86.2997 94.9567 86.1269 95.3008 85.9802 97.1289C85.7559 99.9193 86.2045 100.508 87.8651 102.749C88.3421 103.268 88.7786 103.824 89.1709 104.41C89.9059 104.593 90.6203 104.85 91.3039 105.178C92.7632 105.751 94.1005 105.513 95.5568 105.781C97.1513 106.076 96.7527 106.112 97.8365 107.506C99.2728 109.353 101.505 110.466 103.638 111.299C106.502 112.416 108.869 112.394 110.892 107.651C111.958 105.152 110.897 104.064 111.373 103.286C111.919 102.393 114.048 102.183 114.946 101.903C115.946 101.542 116.894 101.05 117.765 100.439C128.573 93.5027 129.11 91.422 130.847 91.309C131.453 91.2699 131.864 91.6071 132.444 91.6885C134.209 91.7738 135.963 91.3712 137.514 90.5248C141.358 88.5301 141.743 86.1352 140.296 83.0982Z" fill="#FFC5F6"/>
<path d="M108.789 101.039C103.97 102.252 97.2681 103.923 92.3223 102.583C90.4421 102.074 94.3424 102.967 98.9126 102.43C111.829 100.921 122.521 94.2263 128.138 86.666C131.887 81.6197 131.693 80.5981 131.907 80.6749C131.793 81.31 131.58 81.923 131.274 82.4915C127.27 91.336 117.069 98.4163 108.789 101.039Z" fill="black"/>
<path d="M93.5371 44.093C88.4101 48.8797 87.6674 49.8905 87.1205 47.4449C86.5479 44.4746 86.5094 41.426 87.0068 38.4421C87.1481 38.1249 87.3471 37.992 87.3102 37.9252C87.2933 37.873 87.0076 37.8699 86.6834 38.2263C85.6434 39.3707 84.8892 48.7215 87.4968 49.6539C88.6144 50.0533 89.4509 49.3298 94.2099 44.8288C95.0356 44.0484 96.164 43.2926 96.0649 42.0813C95.8383 39.3162 87.9953 36.8583 88.1405 37.7524C88.1489 37.8952 88.9985 37.9982 90.2727 38.6119C97.0718 41.8855 95.084 42.6489 93.5371 44.093Z" fill="black"/>
<path d="M126.136 67.2439C126.085 69.0028 123.457 69.9261 120.949 64.4158C120.164 62.6899 120.449 61.4924 120.576 61.5216C120.792 61.5562 120.459 62.2897 121.508 64.1423C122.145 65.2691 123.205 67.1256 124.458 67.6471C125.665 68.0473 125.274 66.6778 124.791 65.4965C124.37 64.4665 122.923 60.7497 121.813 60.6859C120.876 60.6322 120.691 61.4371 120.598 61.4003C120.444 61.4225 120.598 60.3188 121.805 60.1944C123.632 60.0054 126.175 65.9235 126.136 67.2439Z" fill="black"/>
<path d="M132.165 64.3007C131.873 65.9974 130.431 66.0274 129.623 64.8499C129.428 64.568 127.735 61.2629 127.696 59.643C127.685 59.176 127.788 58.9272 127.844 58.9364C128.02 58.964 127.732 59.2236 128.689 61.2906C129.652 63.0818 130.533 65.2962 131.07 64.7262C131.531 64.2877 131.202 62.8913 131.14 62.584C129.784 55.8356 128.043 58.6668 127.914 58.6061C127.5 58.6061 128.846 56.7289 130.219 58.2136C131.444 59.527 132.36 63.1639 132.165 64.3007Z" fill="black"/>
<path d="M141.453 84.3155C140.748 82.0957 139.016 79.8275 137.162 77.2921C137.983 73.878 138.261 70.3558 137.984 66.8553C142.89 61.2728 140.372 54.6695 134.527 52.9213C132.342 48.6891 129.094 45.0977 125.102 42.4999C124.775 38.7983 123.478 35.2483 121.342 32.2075C117.416 26.7771 114.067 28.6574 109.256 32.4102C102.182 38.005 106.659 36.6701 101.714 36.9228C101.637 36.9274 97.3979 37.2254 97.4064 37.3022C94.7642 35.4465 89.2969 32.5669 85.8474 33.3312C82.1736 34.0993 80.4078 38.8069 79.377 42.4384C72.6747 46.3065 71.6853 53.1917 74.6425 56.5751C74.8798 56.8493 75.2816 57.261 75.2094 57.4968C74.5549 58.3864 74.1747 59.4479 74.1156 60.5508C73.942 65.3559 78.6435 72.7411 78.9546 72.9846C79.7226 73.437 79.7726 74.4271 79.7296 75.3181C79.4991 80.0633 79.1996 81.3169 81.7389 83.5704C84.7429 86.1197 79.9262 87.9816 83.9203 93.0947C83.8434 93.157 84.5639 93.7453 85.1607 94.8468C86.5433 97.0965 84.4848 99.4553 87.5026 103.394C88.3648 104.562 89.5816 105.419 90.9713 105.837C92.7633 106.256 94.5959 106.479 96.4363 106.501C100.263 112.296 108.365 115.872 111.29 109.044C111.996 107.356 112.265 105.517 112.071 103.697C117.199 102.149 125.033 97.5597 129.448 92.5233C130.079 91.8036 129.767 91.8981 130.49 91.9856C137.031 92.3005 143.393 90.5193 141.453 84.3155ZM108.842 110.232C106.117 112.991 100.662 109.802 97.7728 106.489C102.212 106.336 106.806 105.217 111.038 104.002C110.948 107.051 109.87 109.187 108.842 110.232ZM108.806 103.218C84.0063 110.5 87.485 98.4145 86.8436 95.525C89.2047 96.7823 91.5028 96.6472 91.5036 96.3699C91.5297 95.9858 88.5849 95.9044 85.8075 93.3283C84.2298 91.0309 83.2858 90.5777 83.8104 88.0038C84.1177 86.4439 84.5785 85.0636 83.7459 83.635C83.1714 82.6864 82.3887 82.2992 81.808 81.608C79.7787 79.1132 82.7835 74.0139 79.9615 71.8517C79.7756 71.7403 79.9869 72.0161 78.9 70.0951C73.1916 60.0039 76.5228 58.8448 76.5911 57.5429C78.377 54.6626 77.9914 54.5965 76.2616 56.4269C75.8776 55.8309 74.293 54.6203 74.3506 51.8529C74.3967 49.1393 75.7539 46.1813 79.0068 43.8725C78.3891 46.4535 78.109 49.1038 78.1734 51.7569C78.5767 59.0038 88.1179 54.032 87.5718 53.416C87.4343 53.2048 84.5455 54.6872 81.8165 54.4145C79.2733 54.1503 79.5675 52.3191 79.728 48.9987C80.0353 44.7588 82.0323 35.6792 86.1761 34.799C88.8522 34.1945 93.1496 36.4166 95.3371 37.7439C98.1407 39.4997 100.055 41.0228 97.6806 44.6912C96.4209 46.6069 94.003 49.246 96.3695 47.4487C99.4203 45.1183 101.445 41.5106 98.9479 38.6349C107.09 37.7531 108.486 37.9175 108.511 37.6194C108.528 37.4389 107.513 37.1586 105.802 36.9965C107.163 35.7544 108.588 34.5836 110.071 33.4886C114.483 30.2811 116.901 28.6067 120.154 33.0647C122.034 35.6747 123.336 38.6548 123.975 41.8071C122.913 41.1711 121.809 40.608 120.67 40.1219C120.363 38.3384 119.518 35.7376 118.249 34.4872C117.509 33.779 116.712 33.8604 116.702 34.0202C116.686 34.269 117.893 33.7406 119.63 39.6902C117.839 39.0022 115.991 38.4713 114.109 38.1033C116.161 33.0263 116.595 34.5824 116.619 34.0163C116.627 33.8696 116.037 33.686 115.37 34.1431C114.327 34.8589 113.521 36.7231 113.188 37.9436C112.674 37.8668 109.845 37.5173 109.819 37.7462C109.729 38.5066 124.637 38.8077 132.611 52.5457C127.158 51.9789 118.935 54.9522 119.159 55.4276C119.249 55.635 130.045 51.8222 135.301 54.5466C136.697 55.1796 137.831 56.2764 138.509 57.6508C139.188 59.0252 139.37 60.5922 139.024 62.0854C137.399 68.3377 128.473 72.1858 121.291 72.6044C113.34 73.1651 109.14 66.6763 113.456 60.2743C115.387 57.3908 118.246 56.1511 118.119 55.9215C118.047 55.7679 114.854 57.046 112.777 59.7865C109.148 64.5487 110.107 70.847 116.003 73.222C115.235 76.2751 119.068 79.9435 123.973 79.647C128.562 79.3598 131.252 75.3181 130.708 71.9415C133.04 70.9802 135.178 69.6005 137.014 67.8707C137.197 83.6096 127.411 97.8984 108.803 103.218H108.806ZM129.715 72.341C129.6 77.5586 123.171 79.9904 118.732 76.6676C118.207 76.3295 117.772 75.87 117.462 75.328C117.153 74.786 116.978 74.1774 116.954 73.5538C120.759 74.6744 126.077 73.7074 129.712 72.3386L129.715 72.341ZM139.974 87.7127C138.77 90.3504 133.833 90.7544 130.729 90.9257C133.49 87.2566 135.549 83.1082 136.8 78.69C138.373 81.2976 141.25 85.0813 139.971 87.7104L139.974 87.7127Z" fill="black"/>
<path d="M128.068 44.1882C129.715 43.5822 130.219 43.5292 130.016 43.0361C128.699 39.8201 128.71 39.496 128.234 39.6634C93.1321 51.896 94.9095 51.0596 95.1944 51.6456C97.0939 55.5344 97.0063 55.6259 97.4511 55.4622C99.3275 54.771 99.6263 54.5521 99.8168 54.9822C100.921 57.4808 100.933 57.818 101.396 57.6498C103.113 57.0245 103.405 56.8049 103.602 57.2281C104.59 59.3526 104.634 59.7467 105.094 59.5715C112.698 56.6781 112.87 56.7972 112.631 56.2595C111.801 54.3892 111.479 53.9806 111.995 53.7916C113.366 53.2932 113.844 53.2317 113.649 52.7563C112.65 50.3153 112.357 49.9742 112.87 49.7853C114.162 49.3091 114.479 49.094 114.67 49.5072C115.756 51.8591 115.777 52.1956 116.23 52.0419C117.761 51.5043 118.086 51.2654 118.274 51.7124C119.077 53.6219 119.102 53.9491 119.548 53.7932C127.179 51.1233 127.378 51.2416 127.142 50.6916C126.411 48.9865 126.091 48.5648 126.605 48.3828C128.506 47.7122 129.007 47.6754 128.809 47.1746C127.831 44.6813 127.569 44.3726 128.068 44.1882Z" fill="black"/>
<path d="M101.129 53.0919C101.953 55.0828 101.963 55.3793 102.362 55.2425C104.024 54.6765 104.233 54.5098 104.393 54.8792C105.227 56.8056 105.245 57.1067 105.641 56.9707C107.339 56.3762 107.727 56.3486 107.549 55.9238C106.73 53.9644 106.723 53.6818 106.328 53.8108C104.682 54.3485 104.421 54.5413 104.265 54.1557C103.474 52.1779 103.466 51.8898 103.066 52.0304C101.367 52.6303 100.95 52.6595 101.129 53.0919Z" fill="white"/>
<path d="M116.071 47.56C116.896 49.5509 116.906 49.8481 117.306 49.7106C118.968 49.1453 119.176 48.9779 119.337 49.3481C120.171 51.2737 120.188 51.5756 120.584 51.4396C122.283 50.8451 122.67 50.8175 122.493 50.3919C121.674 48.4325 121.665 48.1507 121.272 48.2797C119.625 48.8174 119.363 49.0094 119.209 48.6238C118.417 46.6467 118.409 46.3579 118.009 46.4993C116.311 47.0984 115.892 47.1283 116.071 47.5608V47.56Z" fill="white"/>
<path d="M39.109 23.5418C39.2769 22.3092 39.2564 21.0583 39.0483 19.8319C39.9964 20.3006 41.0307 20.5693 42.087 20.6214C43.1433 20.6735 44.199 20.5079 45.1886 20.1349C46.1782 19.7618 47.0806 19.1893 47.8397 18.4529C48.5987 17.7165 49.1983 16.8318 49.6011 15.854C49.8827 15.3657 50.0478 14.8189 50.0834 14.2563C51.5267 15.9039 50.7286 16.5844 52.8148 17.9601C55.1098 19.474 56.1314 19.8342 59.6085 19.7612C61.6255 19.9049 62.6041 18.8703 62.8115 19.0346C63.0058 19.1883 62.6993 19.1176 61.9366 21.7329C61.2232 23.6074 61.1176 25.6588 61.6347 27.5965C61.9036 28.9107 62.4796 30.122 64.542 31.3955L64.3753 31.6743C65.8347 33.103 67.1112 32.7957 67.1635 33.4317C63.323 35.5263 61.8521 36.4757 59.6216 39.4036C57.5155 42.1687 55.5622 45.8141 55.7558 48.8035C55.8218 49.8181 54.7826 48.4402 51.744 49.1453C51.0981 49.3354 50.4628 49.5597 49.8407 49.8174C49.0672 50.0862 48.134 49.9172 47.422 50.3197C46.0625 51.0878 44.64 52.0003 44.0885 53.5257C43.7897 54.3522 43.3204 52.1777 42.3902 51.0156C41.6275 50.0647 40.3817 49.7867 39.4554 48.9932C40.2803 48.9671 36.2394 47.0154 34.2592 46.7658C33.7124 46.6966 33.3583 46.7043 30.9234 46.6736C30.9234 46.3395 31.2307 46.4048 31.9988 45.268C33.6117 42.8869 33.4435 38.8391 32.6824 37.0917C32.6724 37.0694 32.6693 37.2092 32.6562 37.2307C31.8751 34.3657 30.3205 33.9279 30.9373 33.6314C34.9643 31.7043 37.8793 30.0759 39.109 23.5418Z" fill="#FDFE1F"/>
<path d="M33.7872 40.3386C33.9093 42.1384 33.4224 43.927 32.4047 45.4165C31.5429 46.5148 30.721 46.8413 30.6726 46.7483C30.4176 46.405 32.9853 45.1092 32.791 40.3778C32.6159 36.1118 30.5351 34.0142 30.7318 33.7937C30.9683 33.5272 33.6006 35.9467 33.7872 40.3386Z" fill="black"/>
<path d="M46.3719 20.2007C42.5468 22.3452 38.807 20.1562 39.022 19.8343C39.1334 19.6323 41.1174 20.6155 43.3395 20.2184C49.1001 19.1945 49.7261 13.748 50.0987 13.7987C50.5134 13.8256 50.0917 18.1184 46.3719 20.2007Z" fill="black"/>
<path d="M37.9812 28.6231C35.5747 32.2538 30.8648 34.0665 30.7311 33.7939C30.3886 33.0957 38.5856 30.7415 38.8499 22.4261C38.8998 20.8531 38.8737 19.8461 39.0219 19.8354C39.2178 19.8223 40.6841 24.5468 37.9812 28.6231Z" fill="black"/>
<path d="M38.277 48.5831C34.4911 46.4171 30.7036 47.2213 30.6729 46.7481C30.6598 46.5461 36.154 44.9239 41.4346 49.5593C43.662 51.5141 44.1452 53.8537 43.9524 53.9167C43.3917 54.1448 43.8272 51.7584 38.277 48.5831Z" fill="black"/>
<path d="M49.1796 50.1325C44.1686 51.9889 44.399 54.0029 43.9512 53.9199C43.8836 53.9069 43.8782 53.7095 43.9405 53.3362C44.5403 50.6786 49.8548 47.9987 53.7636 48.4772C55.0739 48.6378 55.7606 49.1762 55.6892 49.2699C55.5233 49.5718 53.7428 48.4427 49.1796 50.1325Z" fill="black"/>
<path d="M56.4442 46.3335C55.9419 48.1055 55.8558 49.2737 55.6892 49.2668C55.3919 49.2737 55.11 44.2343 58.909 39.3869C62.2479 35.127 67.2505 32.9833 67.3987 33.3067C67.6276 33.8067 59.0081 37.2838 56.4442 46.3335Z" fill="black"/>
<path d="M61.2455 27.2234C60.0618 22.2938 62.8692 18.3904 63.211 18.6854C63.5244 18.9043 61.0066 21.9789 62.2125 26.9899C63.456 32.1477 67.5223 32.915 67.3955 33.3067C67.3441 33.6163 62.5412 32.62 61.2455 27.2234Z" fill="black"/>
<path d="M55.6087 18.9719C59.9239 20.4797 63.0008 18.316 63.2128 18.6831C63.4509 19.0264 59.5475 21.4021 55.2754 19.9121C53.3776 19.2262 51.7916 17.8775 50.8097 16.1146C50.0816 14.7781 49.9863 13.8311 50.0985 13.8019C50.4395 13.6851 51.564 17.5609 55.6087 18.9711V18.9719Z" fill="black"/>
<path d="M46.4927 22.8738C50.1649 20.7308 52.4669 21.5527 56.3035 23.3008C58.3067 24.2133 59.5157 25.135 59.3382 28.7405C58.8244 39.1634 50.3585 46.8851 45.167 47.0563C42.706 46.9932 40.3314 46.1364 38.397 44.6138C36.1411 42.8879 35.9668 41.5415 36.1066 39.3601C36.5559 32.3367 41.6023 25.7311 46.4927 22.8738Z" fill="#92FCFF"/>
<path d="M57.5582 23.3591C53.3982 21.432 50.8282 20.137 46.7181 22.2262C39.2838 25.7932 34.017 37.4828 36.0194 42.7342C36.7391 44.3395 37.5064 44.8787 39.677 46.037C44.0744 48.3159 46.6836 48.2138 49.8466 46.302C58.0498 41.463 63.5616 26.1396 57.5582 23.3591ZM58.8132 28.659C56.7594 28.4593 57.0182 28.321 55.3315 27.4538C55.4145 26.6643 55.3372 25.8662 55.1043 25.1073C54.8713 24.3483 54.4875 23.6443 53.9758 23.0373C57.8201 24.5604 58.9 25.0689 58.8132 28.6582V28.659ZM36.9995 42.331C35.0025 37.3653 39.929 26.5183 47.1751 23.1902C57.0728 18.7337 56.4975 31.0569 48.8903 40.38C43.5098 46.9626 38.6217 45.6783 37.0003 42.3256L36.9995 42.3302V42.331ZM44.7004 46.5693C43.6147 46.3907 42.5563 46.0737 41.5512 45.6261C43.0573 45.5785 44.521 45.116 45.7811 44.2896C46.6167 44.7044 47.2712 44.3994 48.8603 45.4763C47.6137 46.2473 46.165 46.628 44.7004 46.5693ZM49.7022 44.9563C48.0638 44.4724 48.2704 44.795 46.6444 43.6713C47.8766 42.6556 48.9851 41.4986 49.9472 40.2241C51.1807 40.5736 51.1761 40.0428 53.6225 41.2572C52.5099 42.6816 51.1869 43.9285 49.6991 44.9548L49.7022 44.9563ZM54.2001 40.5098C51.819 40.1258 52.7546 40.4269 50.5563 39.4069C51.6355 37.8837 52.5778 36.268 53.3721 34.5786C55.2601 35.2085 54.2792 34.5072 56.946 35.9197C56.1779 37.5327 55.2585 39.0689 54.2001 40.5083V40.5098ZM57.297 35.137C55.1049 34.7576 55.4813 34.6923 53.7638 33.6915C54.5019 32.015 55.0044 30.2444 55.257 28.4301C57.8201 28.9892 56.3208 28.5023 58.7595 29.5446C58.5673 31.4735 58.0738 33.3603 57.297 35.1363V35.137Z" fill="black"/>
<path d="M50.3038 36.1364C53.4837 30.9134 54.9246 23.2533 49.5587 23.4268C45.027 23.602 40.7011 30.7621 40.9285 30.8927C41.0575 30.9695 45.262 24.1243 49.5741 24.0467C54.4131 23.9599 52.3023 31.4204 49.6663 35.7455C42.1628 48.0004 35.6663 43.4064 40.0375 32.8813C40.5621 31.6654 40.9231 31.0202 40.8709 30.9902C40.6335 30.8466 36.4413 38.0336 38.7755 42.1606C41.4039 46.8536 47.481 40.7473 50.3038 36.1364Z" fill="black"/>
<path d="M47.1642 27.8263C46.7195 27.5582 46.5966 27.6504 46.4261 27.5528C45.8462 28.5306 44.8976 30.8356 43.8991 32.5032C40.1462 38.7685 40.8037 36.8275 41.6248 37.6048C40.9988 38.5649 41.2215 39.7862 42.0465 38.1217C42.1156 37.9835 42.0826 37.9912 42.1755 38.0603C42.8944 38.5903 42.9182 38.3606 42.8015 38.5657C42.1156 39.7716 42.6148 40.1556 43.3476 38.866C43.492 38.6125 43.3914 38.6632 43.641 38.697C46.1527 39.0742 47.3501 35.2522 46.4261 33.3534C46.9144 33.3601 47.3953 33.2336 47.8171 32.9875C48.2389 32.7414 48.5858 32.3851 48.8204 31.9568C49.055 31.5285 49.1685 31.0444 49.1487 30.5565C49.1289 30.0686 48.9766 29.5952 48.7081 29.1873C49.2703 28.4907 49.2296 27.7233 49.0507 27.6903C48.8717 27.6573 48.6451 28.0897 48.3648 28.5859C48.238 28.8109 48.4193 28.7395 47.6735 28.1727C48.5583 26.8592 47.9154 26.4683 47.1642 27.827V27.8263ZM42.5365 36.7914C43.0318 35.4565 43.6187 34.1573 44.2931 32.9033C44.8746 33.1364 45.3733 33.5375 45.7256 34.0555C46.7802 36.0702 45.1019 39.6779 42.5365 36.7914ZM48.493 30.46C48.5882 30.8122 48.5597 31.1864 48.4122 31.5201C48.2647 31.8538 48.0072 32.1268 47.6827 32.2935C46.6896 32.7927 45.7318 32.1176 45.0282 31.7481C45.6711 30.7911 46.3877 29.8225 46.9231 29.0598C47.6397 29.3924 48.2933 29.7373 48.493 30.4562V30.46Z" fill="black"/>
<path d="M68.7477 30.6637C68.9227 31.5794 69.2435 32.4611 69.6978 33.2752C69.7974 33.4196 69.9339 33.5348 70.093 33.6088C70.2521 33.6827 70.428 33.7128 70.6027 33.6959C70.7773 33.679 70.9442 33.6157 71.0862 33.5125C71.2281 33.4094 71.3399 33.2702 71.4099 33.1093C71.6449 32.7045 71.6557 32.4803 72.1665 29.6921C72.3777 28.5346 68.1179 27.9086 68.7477 30.6637Z" fill="#FFC5F6"/>
<path d="M74.9908 28.6852C73.8325 32.3567 73.6512 32.6317 73.9108 33.0372C74.1705 33.4428 75.6774 33.876 76.2151 33.9075C76.8995 33.9459 77.2305 33.8261 81.0771 32.8951C82.1947 32.6248 82.1394 32.3997 82.6179 31.7876C83.0642 31.2169 83.5396 30.9304 82.7262 29.6492C82.2799 28.9479 79.6976 25.2035 79.0593 25.0714C78.5609 24.9638 75.616 26.7051 74.9908 28.6852Z" fill="#FFC5F6"/>
<path d="M91.5438 124.931C92.5147 124.06 93.5708 123.148 94.865 122.984C96.7207 122.748 96.8559 124.228 97.4965 127.715C97.7454 129.071 97.3683 129.041 96.7722 129.826C96.1332 130.671 96.0809 132.726 94.693 132.741C93.8811 132.75 93.4356 131.896 91.083 130.868C89.7772 130.299 88.9001 129.909 88.8678 128.169C88.8455 126.974 89.0253 127.196 91.5438 124.931Z" fill="#FFC5F6"/>
<path d="M98.729 121.119C99.0388 120.987 99.3822 120.955 99.7106 121.029C100.556 121.76 101.337 122.563 102.043 123.429C102.53 124.01 102.543 124.402 101.788 124.901C101.201 125.315 100.573 125.668 99.9149 125.954C99.2152 125.886 98.7229 123.566 98.686 123.414C98.5255 122.799 97.9433 121.563 98.729 121.119Z" fill="#FFC5F6"/>
<path d="M34.7794 58.0478C34.2779 59.6129 33.8711 61.2067 33.5612 62.8207C33.36 63.9014 33.671 64.1726 34.2602 64.3999C35.4568 64.8685 36.7211 65.1396 38.0046 65.2049C38.4109 65.1281 39.3787 64.4291 41.9503 63.4997C42.6416 63.2508 43.0456 63.0028 42.9488 62.3023C42.6976 60.4535 41.2275 59.8444 40.656 59.4526C39.5269 58.6846 38.275 56.5746 35.9492 57.1845C35.705 57.2395 35.475 57.3447 35.2736 57.4933C35.0723 57.6419 34.904 57.8308 34.7794 58.0478Z" fill="#FFC5F6"/>
<path d="M44.1087 66.7841C44.1525 66.6119 44.1497 66.4312 44.1006 66.2604C44.0515 66.0897 43.958 65.9351 43.8295 65.8124C43.701 65.6897 43.5423 65.6033 43.3694 65.5622C43.1966 65.521 43.016 65.5265 42.846 65.5782C42.346 65.7371 41.9742 66.1235 41.4957 66.3194C40.9004 66.5636 39.2682 67.4984 39.4341 68.1259C39.5294 68.4869 40.6078 69.394 40.9058 69.6214C41.6409 70.1821 42.0579 70.063 42.5802 69.3564C43.1811 68.5567 43.6936 67.6942 44.1087 66.7841Z" fill="#FFC5F6"/>
<path d="M83.3888 29.9341C83.3366 29.8573 80.0722 25.1028 79.9063 24.9415C79.7151 24.7606 79.4768 24.6372 79.2186 24.5855C78.9605 24.5339 78.693 24.5561 78.4469 24.6497C78.2027 24.7372 78.1143 24.811 75.3677 27.0208C74.7808 27.4747 74.84 27.6506 74.6764 28.1691C74.6572 28.2459 73.6648 32.3167 73.694 32.6332C73.7769 33.4013 74.8246 33.8045 74.3085 33.2477C74.2023 33.1399 74.1291 33.0042 74.0974 32.8563C74.0657 32.7084 74.0768 32.5545 74.1295 32.4128C76.0674 26.947 74.5135 28.7413 78.6228 25.6536C78.6663 25.6094 78.7191 25.5754 78.7773 25.5541C78.8355 25.5327 78.8977 25.5245 78.9594 25.53C79.0211 25.5355 79.0809 25.5546 79.1344 25.5859C79.1879 25.6172 79.2338 25.66 79.2688 25.7112C82.8911 30.7652 82.6584 30.4933 82.6154 30.7322C82.5946 30.8574 82.6223 30.7521 81.6975 32.1593C81.5093 32.445 81.56 32.2699 76.728 33.5787C76.0182 33.7561 76.3063 33.7892 75.5996 33.6286C74.131 33.2945 74.1641 33.4259 75.4752 33.9958C75.6672 34.0987 75.8746 34.1694 76.0897 34.207C76.4814 34.25 81.6445 33.2085 81.7236 33.187C82.2682 33.0288 82.3619 32.7799 83.3704 31.372C83.5048 31.157 83.5776 30.9092 83.5809 30.6556C83.5841 30.4021 83.5177 30.1525 83.3888 29.9341Z" fill="black"/>
<path d="M72.4564 28.8626C72.3118 28.6424 72.1069 28.4684 71.8661 28.3615C71.6253 28.2546 71.3588 28.2192 71.0985 28.2597C69.5776 28.5131 69.0023 28.5062 68.5722 29.0124C67.8617 29.8465 68.4347 30.7851 69.2259 32.8298C69.5661 33.7093 70.189 33.6878 70.1983 33.581C70.2436 33.432 69.9202 33.528 69.7604 32.6716C69.3111 30.2552 68.8264 29.5839 69.5692 29.517C70.1683 29.3634 70.7828 29.2728 71.4003 29.2482C71.4993 29.2709 71.5868 29.3283 71.647 29.4101C71.7072 29.4918 71.736 29.5925 71.7283 29.6937C71.7283 29.7144 71.1515 33.0118 71.1238 33.0733C71.0499 33.1901 70.9518 33.2898 70.8361 33.3656C70.7205 33.4414 70.5899 33.4915 70.4533 33.5126C69.9732 33.687 71.0232 34.0426 71.5754 33.3997C71.7629 33.1432 71.8888 32.8475 71.9441 32.5349C72.64 30.2698 72.9081 29.5247 72.4564 28.8634V28.8626Z" fill="black"/>
<path d="M42.8631 62.4127C42.777 63.1516 42.4099 62.9896 38.4289 64.7078C37.7967 64.9651 38.1447 64.9159 37.0463 64.6878C34.189 64.0926 33.8641 64.0664 33.8971 63.6163C33.9041 63.5395 35.345 58.0477 35.3665 57.9709C35.3893 57.8963 35.4321 57.8295 35.4904 57.7778C35.5487 57.726 35.6201 57.6913 35.6968 57.6775C37.4027 57.4839 37.3559 57.4593 37.5341 57.5599C37.5486 57.5707 42.045 60.7091 42.0566 60.7245C42.1825 60.8527 43.4568 63.6017 42.671 61.0402C42.3323 60.14 42.4951 60.4871 41.8745 59.9126C37.7806 56.5668 37.7798 56.5468 37.1454 56.6098C34.0823 56.8587 34.7451 56.2027 32.9547 63.2922C32.9085 63.4794 32.9016 63.6741 32.9345 63.8641C32.9673 64.0541 33.0392 64.2353 33.1456 64.3961C33.252 64.5569 33.3906 64.6939 33.5526 64.7984C33.7146 64.903 33.8965 64.9728 34.0869 65.0035C37.8851 65.6817 37.8551 65.7716 38.1731 65.681C38.5403 65.5888 42.4468 63.5242 42.5243 63.4819C43.4645 62.9658 42.9529 61.6462 42.8631 62.4127Z" fill="black"/>
<path d="M44.0282 66.2049C43.9606 66.2356 44.0128 66.4353 43.9206 66.6965C43.9037 66.7464 41.9582 69.3518 41.9167 69.3848C41.5488 69.6152 41.4558 69.4155 40.0502 68.2281C39.9919 68.1782 39.9485 68.113 39.9251 68.0399C39.9016 67.9668 39.8989 67.8886 39.9173 67.8141C39.9942 67.4823 40.2292 67.5836 42.7946 65.9522C42.8941 65.8791 43.0111 65.8335 43.1338 65.82C43.2565 65.8065 43.3806 65.8256 43.4936 65.8754C43.6587 65.9384 43.8845 66.1527 43.9675 66.1012C44.1288 66.0014 43.5304 64.9261 42.4981 65.3892C39.5187 66.728 39.1723 66.8255 38.9741 67.5552C38.9009 67.8083 38.9019 68.077 38.9771 68.3295C39.0522 68.582 39.1984 68.8075 39.3981 68.9793C40.6171 70.0039 40.9681 70.4125 41.6118 70.411C42.707 70.411 43.035 69.3894 44.0888 67.4339C44.5366 66.602 44.115 66.1435 44.0282 66.2049Z" fill="black"/>
<path d="M97.8298 128.442C97.8244 128.065 96.7176 123.779 96.6953 123.701C96.4103 122.663 95.0055 122.86 95.7313 123.127C96.4318 123.38 96.1983 123.724 96.9388 127.971C97.0432 128.644 97.0755 128.297 96.6016 129.307C95.3442 131.986 95.2536 132.258 94.8296 132.127C94.7528 132.103 89.7448 129.431 89.6765 129.393C89.6095 129.354 89.5547 129.296 89.5181 129.228C89.4814 129.159 89.4642 129.082 89.4683 129.004C89.6742 127.3 89.6388 127.34 89.7756 127.189C89.7902 127.177 93.8825 123.53 93.9002 123.521C94.0638 123.422 97.0179 122.824 94.3495 122.994C93.4033 123.116 93.7804 123.029 93.0684 123.508C88.8546 126.721 88.8439 126.721 88.7601 127.348C88.2955 130.394 87.8146 129.59 94.2973 132.97C94.4688 133.058 94.6567 133.11 94.8492 133.122C95.0416 133.134 95.2345 133.106 95.4157 133.04C95.5967 132.973 95.7621 132.87 95.9013 132.736C96.0405 132.603 96.1505 132.442 96.2244 132.264C97.7522 128.758 97.842 128.775 97.8298 128.442Z" fill="black"/>
<path d="M102.679 123.356C102.493 122.978 100.249 120.862 99.8322 120.806C99.5488 120.753 99.0111 120.729 99.6947 121.17C99.8345 121.278 99.9536 121.411 100.047 121.561C101.53 123.481 102.288 123.882 101.66 124.28C100.2 125.356 100.273 125.317 100.153 125.356C100.054 125.381 99.9498 125.37 99.8587 125.325C99.7677 125.28 99.6961 125.203 99.6571 125.109C99.6502 125.09 98.6586 121.894 98.6548 121.829C98.667 121.692 98.7087 121.558 98.7771 121.438C98.8455 121.318 98.9389 121.214 99.0511 121.133C99.3337 120.826 98.7723 120.956 98.5411 121.106C97.8498 121.567 98.0257 122.223 98.6041 124.788C98.7216 125.268 98.7577 125.837 99.3891 126.181C99.6182 126.31 99.8798 126.372 100.143 126.357C100.406 126.343 100.659 126.253 100.872 126.098C101.964 125.283 103.279 124.613 102.679 123.356Z" fill="black"/>
<path d="M82.9881 66.4395C84.016 65.2235 84.6645 63.7324 84.853 62.1513C84.8975 60.0306 83.4635 58.6557 84.1548 58.9368C84.6548 59.1396 84.5273 59.3977 85.4191 59.4745C88.9638 59.7679 91.0883 59.7149 93.6783 57.247C94.0821 56.7748 94.5159 56.3291 94.9772 55.9128C95.0406 57.096 95.426 58.2393 96.0917 59.2195C96.581 59.9876 97.1102 60.728 97.6778 61.4392C98.6379 62.3823 99.8292 63.0561 101.132 63.3932C102.435 63.7302 103.804 63.7186 105.101 63.3595C104.728 64.557 104.226 65.7102 103.602 66.7982C102.757 68.2791 103.179 70.0242 103.094 71.7263C103.037 74.5853 103.769 77.4048 105.208 79.8757C104.011 80.4302 102.864 81.0884 101.782 81.8428C97.5572 84.7892 100.566 90.5314 99.0166 89.6097C96.9112 88.357 93.802 87.2985 91.4816 88.1918C90.6021 88.5306 89.5721 89.4469 87.2617 90.2972C87.9269 88.7164 87.1803 87.0335 86.4383 85.5688C86.2572 85.1316 85.932 84.7695 85.5166 84.5426C84.6261 83.8668 83.678 83.2705 82.6831 82.7607C82.2645 82.5925 80.8835 82.2852 81.0402 81.3474C81.1339 80.789 83.4835 78.1345 82.4996 73.8869C81.7699 70.7293 81.9035 71.1809 79.7967 68.6823C79.5877 68.4342 79.6131 68.2584 79.9364 68.1931C81.087 67.8795 82.1378 67.2757 82.9881 66.4395Z" fill="#FDFE1F"/>
<path d="M103.465 71.6742C103.623 66.7208 105.605 63.5501 105.262 63.3643C105.181 63.1246 103.329 63.8197 100.973 62.9649C98.596 61.9416 96.717 60.0248 95.7412 57.6282C94.7504 55.1472 95.6606 55.0366 93.5906 56.8171C92.5328 57.8057 91.2564 58.5303 89.8654 58.9319C88.4745 59.3336 87.0082 59.4008 85.5863 59.1282C83.1791 58.6551 83.6077 58.069 84.1216 60.5162C85.3943 66.8406 79.4662 67.9667 79.5092 68.31C79.2788 68.5043 80.9686 70.2924 81.6906 72.1458C82.6568 74.6099 82.2282 77.2152 81.4148 79.7077C80.5246 82.3538 80.3994 81.5688 82.345 82.6464C85.1255 84.2479 86.8199 86.8824 87.0396 88.828C87.3161 90.825 86.4251 91.0255 89.0251 89.8526C92.1289 88.4962 94.583 87.8279 97.693 89.2136C100.015 90.239 99.4542 90.6691 99.5955 88.1183C99.9634 81.2992 105.401 80.3921 105.258 79.8866C105.607 79.6555 103.307 76.9449 103.465 71.6742ZM105.138 79.8344C102.617 79.6393 98.3927 83.1449 98.8943 88.1298C99.0924 90.1115 99.7392 89.6783 98.0271 88.5868C95.7389 87.1105 92.4746 86.8655 88.6932 89.2289C86.7938 90.4579 87.6886 90.5493 87.7477 88.7865C87.8845 86.3286 85.6217 83.1065 82.6438 82.0027C80.447 81.22 80.7819 82.5742 82.0715 79.9711C84.4526 75.063 82.9295 70.5006 79.7719 68.4052C82.61 68.6833 86.5011 64.8974 84.8021 60.3149C84.1984 58.7526 83.809 59.222 85.4005 59.8042C86.9327 60.3028 88.579 60.3323 90.1281 59.8887C91.6771 59.4452 93.0584 58.5489 94.0945 57.3148C95.4501 55.7149 94.5384 55.7018 95.0692 57.8471C96.1061 62.0716 101.327 65.6002 104.972 63.6154C103.399 66.0033 102.531 68.7863 102.467 71.645C102.351 75.7251 104.105 79.0433 105.14 79.8344H105.138Z" fill="black"/>
<path d="M87.0378 72.8718C87.8489 73.3027 91.6026 75.1914 92.5197 75.1453C92.9606 75.123 93.0243 75.0478 97.4923 73.0407C101.083 71.4278 97.4501 68.8239 94.6227 63.137C94.1824 62.0333 93.543 61.02 92.7363 60.1476C92.7302 60.1422 89.4573 65.2938 89.1946 65.7977C88.7338 66.6833 88.4097 67.6411 87.9311 68.5113C86.1399 71.7742 85.8081 72.2181 87.0378 72.8718Z" fill="#92FCFF"/>
<path d="M92.935 77.6875C93.3805 77.6636 93.4366 77.583 98.4007 75.2088C99.2157 74.8186 99.4123 75.49 99.0383 76.2074C98.3969 77.4409 93.3168 86.5143 92.6977 86.5604C92.6435 86.5566 92.5908 86.5417 92.5427 86.5166C92.4946 86.4915 92.4522 86.4567 92.4181 86.4145C90.9311 84.8422 89.679 83.0634 88.7005 81.1331C87.2373 78.5608 84.5367 74.4331 86.2803 75.046C86.7596 75.3225 87.2197 75.6305 87.6582 75.9677C89.3534 76.7207 91.1217 77.297 92.935 77.6875Z" fill="#92FCFF"/>
<path d="M85.7456 72.7128C86.3946 73.6491 91.719 76.0755 92.5178 75.9703C92.5739 75.9703 92.6215 75.9327 92.6845 75.9703L92.8427 75.9257C95.0072 74.8957 97.1924 74.4764 98.843 73.0162C100.716 71.3594 98.2808 68.4384 97.4052 66.9483C93.8988 60.9664 92.9779 59.7751 92.8013 59.878C92.3481 59.5923 87.165 68.2164 86.9115 68.6581C86.1964 69.9523 85.2478 71.5307 85.7456 72.7128ZM93.9096 62.796C97.1433 69.5644 98.2877 70.0161 98.2877 71.4147C98.2831 71.7082 98.4367 71.6452 97.1509 71.2611C95.7579 70.8119 94.3343 70.4638 92.8911 70.2196C93.2529 58.1114 92.0539 58.9079 93.9096 62.796ZM92.8704 70.841C93.6584 70.8756 94.438 71.1728 97.0434 71.6905C98.2547 71.9301 98.3062 71.8211 97.9851 72.1137C96.7761 73.2144 94.5341 73.8035 92.6568 74.6354C92.7375 73.8772 92.8135 72.5231 92.8704 70.841ZM86.9123 71.576C87.45 69.8448 91.179 64.2224 92.6161 60.6569C92.3857 62.8252 92.3043 67.8485 92.3035 70.238C91.0293 70.3832 86.8739 71.7028 86.9123 71.576ZM86.8355 71.9693C88.5629 71.7143 91.835 70.9347 92.3066 70.8702C92.3127 72.6122 92.3504 73.9986 92.4118 74.7321C91.6706 74.5616 86.8201 72.4309 86.8332 71.9701L86.8355 71.9693Z" fill="black"/>
<path d="M92.0515 77.1163C87.5198 75.3858 87.3078 74.928 85.2716 73.1038C85.1901 73.9499 85.2501 74.8036 85.449 75.63C86.6365 79.5042 92.1452 87.0914 92.6076 86.6905C92.9663 86.9901 96.4719 82.9 99.5665 76.4242C99.9423 75.5823 100.106 74.6612 100.044 73.7413C91.6429 77.8736 92.5262 77.2968 92.0515 77.1163ZM92.4079 86.0753C91.4639 84.2318 89.7841 81.9068 87.009 76.1592C88.7068 77.1644 90.5225 77.9555 92.4148 78.5142C92.1956 81.0294 92.1923 83.5587 92.4048 86.0745L92.4079 86.0753ZM92.7704 85.9362C92.9196 83.4597 92.9062 80.976 92.7305 78.5011C92.8734 78.4781 92.4286 78.6678 98.4243 75.9219C96.7622 79.3806 94.8734 82.7257 92.7704 85.9355V85.9362Z" fill="black"/>
<path d="M114.089 110.131C113.832 104.774 114.243 103.828 113.935 103.06C113.184 101.164 110.728 102.856 102.752 95.1555C100.642 93.1186 99.4607 91.504 99.5644 88.1936C99.6934 84.0751 102.79 79.1578 105.718 79.1462C106.511 79.207 107.284 79.4281 107.99 79.796C113.576 82.1863 119.677 83.2179 125.219 85.7057C126.703 86.2428 127.958 87.2732 128.773 88.6245C130.57 91.2944 132.175 95.3629 135.711 96.5896C136.556 96.8822 136.993 97.0504 136.934 97.9837C136.848 98.8079 136.614 99.6098 136.243 100.351C133.406 106.621 127.746 111.209 121.676 114.454C116.576 117.179 114.461 117.874 114.089 110.131Z" fill="white"/>
<path d="M124.147 84.3268C106.404 78.4663 106.598 78.3803 105.021 78.679C103.275 79.0093 101.69 80.4242 100.62 81.8543C95.4285 88.7948 100.811 97.0326 108.378 101.204C113.226 103.878 119.814 105.154 119.928 104.733C120.159 103.881 109.81 102.303 103.543 95.1577C96.6927 87.3462 102.622 80.8942 105.333 80.3973C106.475 80.1876 107.414 80.8251 109.614 81.5079C124.382 86.095 125.247 86.33 126.864 87.5712C130.463 90.3364 130.765 95.8535 133.381 99.4874C133.979 100.318 134.434 100.671 134.513 100.609C134.767 100.408 134.072 100.112 132.602 95.2675C130.837 89.4546 129.953 86.2455 124.147 84.3268Z" fill="black"/>
<path d="M115.014 114.502C115.406 114.307 114.261 112.421 114.522 107.387C114.56 105.937 114.761 104.496 115.122 103.091L113.502 102.44C113.204 103.278 113.036 104.156 113.001 105.044C112.464 111.323 114.602 114.747 115.014 114.502Z" fill="black"/>
<path d="M136.454 96.8559C136.537 96.4557 133.158 95.885 131.512 91.6943L130.351 92.1498C131.051 93.9859 132.394 95.5052 134.131 96.425C135.488 97.0733 136.44 96.9995 136.454 96.8559Z" fill="black"/>
<path d="M119.304 87.8128C113.759 86.3127 106.54 83.0453 106.665 82.7672C106.769 82.5368 113.168 85.3749 119.499 87.0908C124.492 88.4434 126.924 89.5787 128.48 95.079C129.284 97.9209 127.98 94.3961 126.944 92.5873C125.156 89.4473 123.153 88.8543 119.304 87.8128Z" fill="black"/>
<path d="M30.4481 80.8262C33.6741 77.9021 44.7522 74.067 49.3477 73.4265C51.0598 73.1868 52.1666 73.3189 53.5591 74.8712C56.6315 78.2984 56.2375 83.8671 53.682 87.6983C51.1266 91.5296 46.8998 93.9045 42.6292 95.6227C41.5616 96.0521 41.5992 96.4983 41.8012 96.973C43.4303 100.828 43.919 105.07 43.2091 109.195C42.9403 110.736 42.3927 112.4 41.037 113.181C38.4401 114.678 25.265 114.032 16.541 104.342C15.7624 103.555 15.1501 102.62 14.7406 101.592C13.5155 98.0176 16.7277 97.7511 18.8714 96.0936C23.7373 92.3299 26.8596 84.0753 30.4481 80.8262Z" fill="white"/>
<path d="M34.0875 83.2979C31.9415 85.1351 29.8216 88.7997 29.5374 88.5977C29.3884 88.4894 31.4576 84.5737 33.6083 82.728C34.9524 81.5712 36.3211 81.2187 38.2514 80.641C40.9005 79.8476 40.9858 80.0688 38.4296 81.1388C36.2205 82.0605 35.3779 82.1941 34.0875 83.2979Z" fill="black"/>
<path d="M56.0139 77.5549C54.9509 73.7098 52.1174 71.2374 48.3069 72.4218C47.8245 72.5754 46.6417 72.9971 37.2587 76.3736C31.1347 78.5772 29.468 79.2777 23.6712 88.9011C20.2086 94.6848 22.0935 92.5549 19.151 94.9767C18.9705 95.1265 16.4181 97.2042 16.4857 97.4131C16.5256 97.5444 16.9949 97.5176 17.6163 97.2011C18.5267 96.7189 19.3753 96.128 20.1433 95.4414C18.2999 99.3118 17.6724 100.082 17.826 100.209C17.9136 100.286 18.3906 99.9132 19.078 99.0852C20.5374 97.3447 21.244 95.6043 25.0353 89.7545C30.8037 80.8969 31.3936 80.3423 37.8486 78.0165C49.6311 73.7782 49.0773 73.941 49.8991 73.8742C56.1253 73.4187 58.746 89.6016 41.5876 95.5897C38.2564 96.7641 35.764 96.8309 35.7709 97.1335C35.7709 97.2426 36.3593 97.3693 37.433 97.3739C38.5422 97.3739 39.6482 97.2641 40.7358 97.046C44.8912 104.42 41.7167 111.783 42.2144 111.986C42.7659 112.293 46.5311 104.419 42.4894 96.6243C50.4668 94.3215 58.3904 86.6714 56.0139 77.5549Z" fill="black"/>
</svg>
