<svg width="155" height="155" viewBox="0 0 155 155" fill="none" xmlns="http://www.w3.org/2000/svg">
<path d="M96.1585 15.2547C95.1677 16.1227 83.4082 21.2766 83.293 20.977C83.2316 20.8234 85.9506 15.7617 86.0351 15.5543C86.2732 14.9552 86.5574 15.0858 88.8309 15.0858C89.1075 15.0858 95.859 15.0397 96.1585 15.2547Z" fill="#191919"/>
<path d="M66.1643 15.462C66.5483 15.462 73.223 15.4083 73.4995 15.6618C79.0298 20.7158 79.9515 20.9693 80.1128 21.4071C80.0513 21.4071 79.1143 21.9524 64.751 15.8768C63.4913 15.3468 64.8124 15.4467 66.1796 15.4467L66.1643 15.462Z" fill="#191919"/>
<path d="M81.4732 15.5462C84.2076 15.4924 84.822 15.4386 84.5916 15.8073C84.4687 15.9917 81.911 20.7385 81.742 21.0457C81.573 21.3529 81.4347 21.3222 80.3901 20.462C77.625 18.1577 77.9323 18.3958 77.1719 17.7045C73.9459 14.8165 74.0841 15.6768 81.4732 15.5462Z" fill="#191919"/>
<path d="M95.3749 14.5865C86.2731 14.4867 86.2116 14.8707 85.7892 14.3254C84.253 12.3667 82.0102 10.3928 81.749 9.96262C82.3712 9.74756 96.6346 14.3561 96.6039 14.502C96.5732 14.648 96.0893 14.6249 95.3749 14.6249V14.5865Z" fill="#191919"/>
<path d="M64.3211 14.8933C62.6773 14.8933 77.44 9.98524 77.7089 9.90075C79.8288 9.18643 78.0007 10.4768 75.2433 12.9731C72.8699 15.093 73.7839 14.8242 71.495 14.8242C71.5104 14.686 64.3211 14.8857 64.3211 14.8933Z" fill="#191919"/>
<path d="M76.918 14.3863C76.2882 14.2865 75.4356 14.6629 75.3818 14.3095C75.3818 14.179 79.7753 10.0927 79.8291 10.0543C80.1901 9.77012 80.2131 9.7778 80.5434 10.1004C81.8899 11.3744 83.1717 12.7151 84.3839 14.1175C84.6911 14.563 77.3021 14.4478 76.918 14.3863Z" fill="#191919"/>
<path fill-rule="evenodd" clip-rule="evenodd" d="M53.8905 24.8325C53.8367 23.9953 53.7768 23.1942 53.7192 22.4276C53.2276 15.8989 52.9212 11.8357 58.7295 8.82554C69.9897 2.99574 101.474 3.99426 106.267 13.772C107.711 16.6985 107.035 25.6083 106.397 27.1829C102.349 36.9223 65.7805 38.2588 55.5342 28.6192C55.4661 28.5527 55.3951 28.4891 55.3215 28.4287C54.8314 28.0147 54.0487 27.3534 53.8905 24.8325ZM70.2201 6.5904C45.3877 10.0084 52.8613 25.3625 78.454 26.315C94.3919 26.8987 104.93 22.4745 105.452 17.19C105.721 14.471 104.861 12.9041 102.065 11.0453C95.2522 6.5904 80.5816 5.18479 70.2201 6.5904ZM74.4292 45.0563C68.2845 44.3804 59.2364 42.176 55.6418 38.8348C54.2208 37.5214 54.1056 37.0989 53.8521 31.8222L53.8291 31.3014C53.7807 30.2422 53.7146 28.802 53.9366 28.7498C54.0426 28.7137 54.2377 28.898 54.5895 29.2314C56.3499 30.8943 62.0469 36.2786 80.3666 36.6304C87.5175 36.7687 102.188 35.0942 106.781 28.8957C107.227 28.2889 107.303 29.0494 107.311 29.372C107.365 31.73 107.158 36.9684 106.059 38.4892C103.309 42.2605 91.0738 46.8998 74.4292 45.0563ZM65.65 49.9107C63.9318 46.7039 59.8202 44.1231 54.1478 42.4541C54.1325 42.1492 54.1176 41.8442 54.1033 41.5393C54.051 40.4755 53.9727 38.8817 54.2054 38.8279C54.3114 38.791 54.5065 38.9754 54.8583 39.3087C56.6188 40.9739 62.3157 46.3636 80.6354 46.7154C87.7863 46.846 102.449 45.1792 107.05 38.9731C107.496 38.374 107.572 39.1267 107.58 39.457C107.634 41.8073 107.426 47.0534 106.328 48.5665C103.571 52.3455 91.3426 56.9771 74.6904 55.1337C72.2586 54.8672 69.3514 54.3564 66.5064 53.6275C66.3789 52.1143 66.1154 50.7755 65.65 49.9107ZM68.3805 125.694C67.4785 125.494 66.5814 125.272 65.6899 125.029C65.8435 124.618 65.9564 124.193 66.0263 123.755C66.3466 121.41 66.4757 119.043 66.4127 116.678C67.2868 116.894 68.2215 117.095 69.2239 117.278C68.5902 120.262 68.3329 123.077 68.3813 125.694H68.3805ZM107.092 56.6123C107.527 54.4002 107.618 51.3332 107.58 49.6803C107.572 49.3577 107.496 48.6049 107.05 49.204C102.449 55.4102 87.7863 57.077 80.6354 56.9464C74.7472 56.8335 70.164 56.1998 66.5947 55.3372C66.6784 58.8428 66.2291 62.671 65.9495 63.7094C68.9689 64.5159 72.0996 65.0774 74.6904 65.3647C79.9188 65.9438 84.7109 65.8839 88.9108 65.413C89.1458 64.9514 89.45 64.456 89.8448 63.9206C92.57 60.1977 99.2178 57.7298 107.092 56.6115V56.6123ZM88.3785 66.7641C85.449 67.1005 82.7223 67.2157 80.6354 67.1773C74.4907 67.0591 69.7669 66.3747 66.1354 65.4545C66.4073 68.2266 66.3044 71.0255 65.8266 73.7752C65.8132 73.8156 65.7993 73.8558 65.7852 73.8958C68.7074 74.682 71.684 75.2501 74.6904 75.5956C79.58 76.1371 84.088 76.1202 88.0867 75.73C88.008 73.9423 88.0155 72.1519 88.1089 70.3649C88.1558 69.9985 88.1489 69.6199 88.1412 69.2128C88.1281 68.5061 88.1135 67.7165 88.3785 66.7641ZM88.1596 77.0312C85.3131 77.3476 82.6701 77.4552 80.6354 77.416C73.8685 77.2862 68.823 76.4689 65.0631 75.4059C64.5175 76.2949 63.8036 77.069 62.9617 77.6848C63.5976 78.0182 63.5485 78.5796 63.4609 79.5851C63.4394 79.8309 63.4164 80.1028 63.3995 80.4039C63.4038 81.383 63.293 82.3593 63.0692 83.3126C66.882 84.5907 71.2601 85.454 74.6904 85.8343C78.6898 86.2774 82.4335 86.3458 85.853 86.1423C86.0605 85.7167 86.3092 85.3125 86.5958 84.9356C86.8644 84.4048 87.322 83.9938 87.8785 83.7834C87.8555 82.0092 87.9553 81.3717 88.4546 80.8647L88.4791 80.8394C88.5122 80.8056 88.5344 80.7833 88.5467 80.7564C88.5705 80.7042 88.559 80.6366 88.5237 80.4377C88.4876 80.2303 88.4261 79.8808 88.3547 79.2594C88.2747 78.518 88.2097 77.7752 88.1596 77.0312ZM85.3499 87.5072C83.781 87.6186 82.2081 87.6627 80.6354 87.6393C72.2686 87.4787 66.5348 86.2675 62.6068 84.8403L62.5853 84.8972C63.5032 85.0754 63.4555 86.0416 63.3803 87.5832C63.371 87.7698 63.3618 87.9657 63.3534 88.1693L64.2213 88.9373C65.3919 89.9166 65.9127 91.979 66.0824 94.4422C69.0611 95.2318 72.138 95.7826 74.6904 96.0652C76.7896 96.2979 78.8181 96.427 80.766 96.4677C82.0786 95.2771 83.5019 94.2146 85.0166 93.2947C85.0204 91.7101 85.0619 90.2776 85.1211 89.3675C85.1163 88.7401 85.1932 88.1147 85.3499 87.5072ZM79.3412 97.8364C73.8294 97.6536 69.5188 97.0038 66.1477 96.1505C66.1692 98.0922 66.0332 100.173 65.865 102.11C65.7951 102.917 65.6032 103.708 65.2959 104.457C67.9178 105.187 70.5854 105.74 73.2809 106.114C74.9108 103.111 76.9601 100.267 79.3412 97.8364ZM72.5513 107.524C69.982 107.206 67.7691 106.774 65.8643 106.278C65.9856 106.783 65.9572 107.444 65.9296 108.091L65.9188 108.355C65.9111 108.622 65.7514 113.211 65.2437 114.674L65.3051 114.692C65.5319 114.676 65.7575 114.737 65.9441 114.867C67.1487 115.189 68.3628 115.473 69.5849 115.719C69.9106 114.429 70.2916 113.153 70.727 111.896C71.2439 110.402 71.8534 108.942 72.552 107.524H72.5513ZM102.872 16.6985C102.71 10.3156 91.8572 8.74873 85.5051 8.12658C78.6537 7.45834 60.4807 7.89615 58.2302 14.1868C56.9014 17.9274 62.6544 20.7309 63.0461 20.6925C63.169 21.0074 67.4703 22.7817 74.0529 23.6804C80.8121 24.6021 89.5145 24.026 93.5777 22.9891C99.108 21.5758 102.956 19.7708 102.872 16.6985ZM74.8671 22.5974C69.7362 22.0136 57.6234 19.2408 59.2825 14.2713V14.3174C61.3794 8.04977 94.2152 6.02969 101.243 14.2022C105.437 19.1103 91.765 24.5253 74.8671 22.5974Z" fill="#D9B343"/>
<path d="M64.8123 50.3715C66.3485 53.2595 65.4114 62.5611 65.012 63.575C60.6108 74.8352 23.5351 74.9427 13.0584 66.0789C11.1996 64.5428 11.1535 63.9129 10.9308 62.0465C10.633 58.819 10.574 55.574 10.7541 52.3378C10.685 43.9656 24.9945 41.8918 33.359 41.4232C48.2753 40.586 61.4557 44.1116 64.8123 50.3715ZM14.8864 47.4451C10.9692 50.7939 10.8156 54.9263 17.6208 58.8743C22.8362 61.8929 29.0116 62.7838 34.9336 63.1218C59.4587 64.5504 68.7295 54.1659 61.5556 48.459C50.81 39.8947 22.7209 40.7704 14.9095 47.4528L14.8864 47.4451Z" fill="#D9B343"/>
<path d="M10.8237 123.34C10.601 120.851 10.4243 116.65 10.5088 116.75C16.377 123.478 30.8939 124.293 35.8097 124.354C66.6946 124.73 65.1815 113.424 65.4273 115.759C65.5616 118.391 65.4484 121.029 65.0893 123.64C62.9002 137.388 12.0066 136.136 10.8237 123.34Z" fill="#D9B343"/>
<path d="M15.4935 108.332C11.4457 106.027 10.4548 105.098 10.5009 101.188C10.3703 100.858 10.0017 97.5015 10.5009 97.8625C23.497 107.924 66.4256 105.121 63.4531 92.048C63.43 91.5042 63.4531 90.9597 63.5222 90.4197C63.5222 89.6516 63.4838 89.9358 63.6604 89.6516C65.8418 91.4643 65.2427 99.0223 64.9739 102.041C63.8064 115.075 27.1915 114.983 15.4935 108.332Z" fill="#D9B343"/>
<path d="M7.84325 92.7701C7.73572 92.2632 7.27486 84.9663 7.65123 84.7666C7.85861 84.6591 7.77412 86.1722 12.9203 88.8759C24.7028 95.0206 50.4185 94.9668 60.4421 87.6546C61.7401 86.7022 62.4775 85.2044 62.4775 86.057C62.4775 89.0372 62.201 91.8945 62.1933 91.9098C62.032 92.8315 62.5159 94.7902 58.6985 97.5092C47.3615 105.59 10.232 103.723 7.84325 92.7701Z" fill="#D9B343"/>
<path d="M10.4317 113.532C10.3856 113.332 9.77883 105.474 10.209 105.39C10.3319 105.39 10.7927 105.981 10.8542 106.066C15.1478 112.579 31.8537 114.069 39.6575 113.939C61.8092 113.562 64.6281 106.258 64.8816 106.319C65.1351 106.381 64.8816 110.213 64.8816 110.498C64.6665 112.495 65.2119 115.106 61.8092 117.649C50.2111 126.413 12.7129 124.108 10.4317 113.532Z" fill="#D9B343"/>
<path d="M38.721 82.547C30.1568 82.547 11.0698 80.4655 10.6934 72.0165C10.2787 62.4615 10.4015 64.4431 12.1682 66.517C18.8198 74.3131 51.118 77.3624 63.0772 67.9149C63.8596 67.265 64.5961 66.5618 65.2816 65.8103C65.5735 66.7244 65.174 72.6771 64.9206 73.4912C62.9389 80.0891 47.9612 82.3243 44.5969 82.3319C44.4971 82.3627 38.721 82.7006 38.721 82.547Z" fill="#D9B343"/>
<path d="M8.2887 83.5532C7.85089 82.9311 7.55901 76.4484 7.83552 72.1471C7.80303 70.9054 8.19298 69.6895 8.94157 68.6984C9.57909 67.7383 9.70966 67.4771 9.57909 70.2345C9.57909 71.0026 8.88013 72.8077 10.2473 75.2502C13.6807 80.55 24.7642 82.6392 31.6156 83.3843C51.5859 85.558 60.9336 79.4209 60.949 79.4209C61.1103 79.4209 62.6157 78.0921 62.5696 78.6528C62.1164 84.3444 63.4837 87.9851 46.9236 91.4108C38.3671 93.1774 28.4895 92.3095 21.5382 90.7963C18.4198 90.1127 9.31026 86.5411 8.2887 83.5532Z" fill="#D9B343"/>
<path d="M58.5685 48.6432C61.3029 50.5711 62.0249 52.8677 60.7115 54.7879C56.0261 61.647 28.3826 63.4597 17.6984 55.8172C16.047 54.6343 14.8181 52.837 15.3097 50.863C17.2606 42.9593 48.1378 41.3233 58.5685 48.6432ZM59.7129 54.2118C62.3782 51.1395 56.7174 48.2361 52.8001 46.9764C38.5981 42.3679 17.7215 45.9856 16.577 51.0857C15.3404 56.6083 30.5793 59.4809 36.2939 59.6269C40.1804 59.7267 55.0353 59.6499 59.7129 54.2118Z" fill="#D9B343"/>
<path d="M27.407 54.1119C27.0306 53.7816 26.2856 54.3116 24.5881 54.181C23.5435 54.1042 22.9905 53.1595 23.6741 52.8215C24.9107 52.2147 25.9323 52.4759 25.4253 52.0534C25.0413 51.7385 25.4945 51.2853 23.8892 51.5004C23.3669 51.5772 22.1225 51.6617 21.8537 51.2085C21.1855 50.0871 22.1763 50.0026 23.4283 49.6723C24.0044 49.5264 23.8123 49.7184 23.605 48.9042C23.3976 48.0901 24.5497 46.9303 25.7633 49.0502C25.94 49.3574 25.7633 49.3267 27.4915 49.0502C31.5317 48.3743 43.4755 47.706 43.8902 47.6215C43.5062 47.2144 43.4524 47.2759 43.245 47.0531C42.7534 46.5232 44.159 46.0854 45.6952 47.1684C45.9423 47.3467 46.2437 47.4336 46.5478 47.4141C46.9395 47.4141 47.3159 47.4756 47.723 47.4756C48.4911 47.4756 51.31 47.0224 51.0949 48.6354C51.0411 49.0271 50.588 48.9811 48.253 49.15C47.9688 49.15 48.3375 49.4342 48.5218 49.7338C48.8828 50.3175 49.0979 49.8797 51.31 49.9796C51.7478 49.9796 52.4007 50.3022 52.3776 50.8859C52.3776 51.9459 49.5587 51.3237 49.9197 51.8768C50.7954 53.2055 50.1041 56.2702 46.8474 55.7172C44.3741 55.2717 41.5399 52.9521 41.1789 52.8753C41.1789 53.3515 42.5384 56.8079 38.1065 57.8832C33.6746 58.9585 30.6483 56.9615 27.407 54.1119ZM37.7762 56.0014C38.89 55.7172 39.8117 55.1872 39.5582 54.0044C39.2911 52.5279 38.6543 51.1432 37.7071 49.9796C37.4383 49.6186 37.5151 49.5725 33.0986 50.1409C27.0998 50.909 26.877 50.8398 27.215 51.2085C30.3642 54.5881 33.5978 57.0921 37.7762 56.0014ZM42.6997 49.3344C42.0061 49.4772 41.3025 49.5671 40.5951 49.6032C39.7349 49.6032 41.3632 50.571 42.2772 51.3545C43.5599 52.3543 44.9638 53.1879 46.4556 53.8354C47.0317 54.0504 48.4527 54.2809 48.4911 53.5205C48.5756 52.1456 47.1162 50.4481 46.1407 49.4726C45.749 49.0886 45.5877 49.2038 42.6997 49.3344Z" fill="#191919"/>
<path fill-rule="evenodd" clip-rule="evenodd" d="M146.023 80.5801C146.438 79.5278 147.421 69.8652 145.815 66.862C139.218 54.5265 98.4396 54.6801 91.0352 64.7728C89.5859 66.7445 89.6035 67.9442 89.6212 69.1586C89.6273 69.6041 89.6342 70.0526 89.5682 70.5411C89.4385 73.3595 89.5181 76.1836 89.8063 78.9901L89.8171 79.08C90.0383 80.9534 90.1128 81.5809 92.0107 83.1839C102.887 92.3703 141.414 92.3011 146.023 80.5801ZM96.7882 75.6643C89.7295 71.5781 89.8601 67.2768 93.9386 63.7896V63.8204C102.08 56.8615 131.275 55.9705 142.428 64.8419C149.948 70.8023 140.124 81.5556 114.777 80.0808C108.625 79.7275 102.203 78.7981 96.7882 75.6643ZM119.296 120.954C119.763 117.724 119.813 114.499 119.409 111.432C128.154 111.029 136.455 109.119 141.268 105.604C141.859 105.171 142.338 104.631 142.691 104.234C143.145 103.723 143.388 103.448 143.388 103.945C143.388 107.018 143.096 110.013 143.089 110.036C143.063 110.175 143.052 110.338 143.039 110.524C142.967 111.6 142.842 113.441 139.456 115.851C135.311 118.806 127.614 120.547 119.296 120.954ZM119.048 122.464C133.206 121.937 146.112 117.682 144.394 110.167C144.361 109.603 144.385 109.037 144.464 108.477C144.464 108.338 144.462 108.233 144.461 108.152V108.151C144.459 107.96 144.458 107.909 144.48 107.871C144.49 107.855 144.502 107.841 144.515 107.828C144.537 107.804 144.567 107.77 144.61 107.709C146.875 109.599 146.253 117.456 145.977 120.582C145.229 128.959 130.327 132.118 116.202 131.657C117.507 128.715 118.462 125.629 119.048 122.464ZM119.259 110.433C118.719 107.185 117.65 104.139 116.004 101.484C133.057 102.374 141.338 97.2691 141.78 96.998L141.793 96.9896C141.795 96.9883 141.796 96.9872 141.798 96.9865C141.851 96.9865 142.041 96.8513 142.275 96.6839C142.79 96.3167 143.52 95.7959 143.488 96.2184C143.446 96.7384 143.42 97.2438 143.394 97.7346C143.134 102.713 142.951 106.224 127.22 109.476C124.645 110.007 121.956 110.309 119.259 110.433ZM88.5827 91.5369C87.8684 91.8134 87.1671 92.1291 86.4805 92.4801C86.4928 91.4355 86.5273 90.4147 86.588 89.4899C86.5526 88.1992 86.9561 86.9347 87.7325 85.9029L87.8154 85.7785C88.4091 84.8868 88.4959 84.7562 88.393 87.4391C88.393 87.592 88.3646 87.7901 88.33 88.0298C88.2194 88.8094 88.0451 90.0261 88.5827 91.5369ZM115.139 100.2C114.624 99.4917 114.061 98.8184 113.456 98.1847C109.892 94.4671 100.598 90.1966 95.736 90.1966C93.7567 90.1857 91.7878 90.4829 89.9 91.0776C89.6945 90.524 89.5774 89.9416 89.5528 89.3517C89.2018 81.0893 89.2279 81.1254 90.3033 82.614C90.5206 82.9143 90.781 83.2745 91.089 83.6371C98.0018 91.7865 131.629 94.8819 144.003 85.0888C144.822 84.4148 145.592 83.6832 146.307 82.8997C146.607 83.8521 146.199 90.043 145.938 90.9109C143.864 97.7699 128.272 100.128 124.808 100.128C124.774 100.121 124.224 100.147 123.466 100.183C121.664 100.269 118.686 100.411 118.686 100.297C117.64 100.297 116.441 100.267 115.139 100.2ZM109.555 141.908C111.989 139.271 114.033 136.194 115.633 132.885C117.13 132.946 118.501 132.961 119.677 132.941C140.318 132.597 144.812 126.472 145.717 125.238C145.823 125.094 145.88 125.016 145.908 125.022C146.125 125.066 145.991 127.682 145.931 128.842V128.843C145.918 129.119 145.908 129.312 145.908 129.369C145.872 129.709 145.858 130.065 145.843 130.435V130.435V130.436C145.766 132.326 145.676 134.575 142.728 136.797C136.245 141.665 121.808 143.242 109.555 141.908ZM139.325 65.057C142.167 67.054 142.92 69.4505 141.553 71.4552C136.691 78.5754 107.972 80.4802 96.8113 72.5228C95.0984 71.3016 93.8234 69.4505 94.338 67.3766C96.3812 59.135 128.495 57.4606 139.325 65.057ZM140.516 70.8484C143.296 67.6147 137.397 64.6268 133.357 63.3211C118.671 58.5666 96.8958 62.2765 95.7206 67.5917C94.4302 73.3293 110.314 76.3249 116.221 76.4708C120.215 76.5707 135.654 76.4862 140.516 70.8484Z" fill="#D9B343"/>
<path d="M106.943 70.7492C106.543 70.4113 105.768 70.9489 104.009 70.8183C102.918 70.7339 102.342 69.7507 103.049 69.3974C104.339 68.7675 105.407 69.0364 104.869 68.6293C104.477 68.3067 104.946 67.7921 103.264 68.0532C102.718 68.1377 101.428 68.2222 101.144 67.7537C100.452 66.5862 101.482 66.5017 102.78 66.1637C103.379 66.0101 103.187 66.2098 102.972 65.3956C102.757 64.5815 103.94 63.3448 105.207 65.5493C105.391 65.8718 105.207 65.8334 107.004 65.5493C111.213 64.8503 123.626 64.1513 124.056 64.0668C123.656 63.6444 123.603 63.7058 123.388 63.4754C122.873 62.9224 124.332 62.4692 125.93 63.5983C126.19 63.7826 126.503 63.8748 126.821 63.8595C127.22 63.8595 127.635 63.9209 128.042 63.9132C128.849 63.9132 131.768 63.4524 131.545 65.1268C131.491 65.5262 131.022 65.4801 128.595 65.6568C128.296 65.6568 128.68 65.9563 128.872 66.2636C129.256 66.878 129.433 66.4172 131.775 66.5247C132.228 66.5247 132.897 66.855 132.881 67.4618C132.881 68.5678 129.947 67.9227 130.324 68.491C131.238 69.8736 130.516 73.0996 127.144 72.4544C124.571 71.9935 121.629 69.5817 121.252 69.5049C121.252 69.9965 122.666 73.5912 118.034 74.7126C113.402 75.834 110.307 73.7064 106.943 70.7492ZM117.696 72.7078C118.864 72.4083 119.816 71.8553 119.555 70.6263C119.278 69.0936 118.618 67.656 117.635 66.4479C117.35 66.0639 117.435 66.0178 112.865 66.6092C106.628 67.3773 106.398 67.3389 106.72 67.7229C110 71.2101 113.31 73.8446 117.704 72.7078H117.696ZM122.827 65.795C122.106 65.9456 121.374 66.0408 120.638 66.0792C119.739 66.0792 121.467 67.0854 122.389 67.8996C123.723 68.9344 125.181 69.7988 126.729 70.4727C127.328 70.7031 128.803 70.9412 128.849 70.1424C128.933 68.7138 127.412 66.9549 126.399 65.941C125.999 65.5185 125.838 65.6414 122.835 65.772L122.827 65.795Z" fill="#191919"/>
<path d="M72.0018 112.318C75.535 102.095 84.6983 91.3338 95.8126 91.4875C100.421 91.5489 110.076 95.758 114.009 100.705C115.737 102.886 117.35 106.373 118.056 111.135C118.732 115.899 118.44 120.75 117.196 125.399C114.193 136.782 104.738 148.879 92.986 148.941C88.5004 148.941 78.9837 145.576 74.8591 140.768C68.4071 133.325 68.8065 121.466 72.0018 112.318ZM77.0174 140.699C78.4374 142.114 80.1758 143.167 82.0868 143.771C84.2144 144.724 88.1317 144.463 88.7154 144.278C89.2992 144.094 95.3364 143.741 101.98 135.829C105.321 131.726 107.748 126.958 109.101 121.842C113.54 105.528 106.213 95.0053 98.1629 93.2848C88.293 91.1649 79.7288 99.6292 74.9743 108.577C70.2198 117.526 69.2674 133.533 76.979 140.699H77.0174Z" fill="#D9B343"/>
<path d="M96.9496 95.6888C89.7296 94.5213 83.3851 99.7213 79.7137 105.436C78.3218 107.554 77.1434 109.806 76.1958 112.157C73.2387 122.011 71.9636 133.287 80.1822 139.478C88.178 145.499 100.498 137.335 105.529 124.884C109.308 115.475 108.916 97.586 96.9496 95.6888ZM104.339 123.916C99.5073 137.043 89.2303 141.498 84.1455 139.908C74.4062 136.835 73.6918 122.672 76.9178 113.301C78.7859 107.646 82.4004 102.73 87.2409 99.2604C92.3027 95.7042 98.9543 95.8117 102.864 100.881C107.672 107.08 107.073 116.427 104.339 123.878V123.916Z" fill="#191919"/>
<path d="M90.2514 112.786C80.3892 113.839 78.7301 115.675 80.3738 113.616C84.1374 108.923 94.4759 98.7458 95.0366 98.4232C95.7663 98.0084 94.6295 100.351 91.9643 109.945C91.0426 113.286 91.3268 112.833 90.2207 112.833L90.2514 112.786Z" fill="#191919"/>
<path d="M101.443 119.945C101.443 121.02 101.566 120.245 93.9924 114.246C92.172 112.802 92.2872 113.9 93.2243 110.459C95.4671 102.125 95.5286 101.465 96.2967 99.1221C96.6423 97.9239 100.129 112.118 101.443 119.945Z" fill="#191919"/>
<path d="M89.3841 125.568C88.6852 125.568 88.808 126.19 91.5501 116.527C92.2645 114.008 91.6961 114.039 93.6547 115.759C100.644 121.827 101.144 121.758 100.498 122.096C99.3462 122.68 91.2506 125.053 89.3841 125.568Z" fill="#191919"/>
<path d="M95.2591 129.024C91.9102 131.973 89.2142 133.994 85.9499 136.405C85.4352 136.782 85.5428 136.682 87.0406 131.95C88.5383 127.219 87.6704 127.534 88.9915 127.211C99.7985 124.584 106.105 119.5 95.2591 129.024Z" fill="#191919"/>
<path d="M90.4358 114.023C91.1501 114.023 90.72 113.777 89.299 119.284C88.7044 121.079 88.217 122.908 87.8397 124.761C87.8397 124.907 87.686 124.953 87.5785 124.853C87.1791 124.461 79.4675 115.836 79.9591 115.72C82.8087 115.021 87.7168 114.499 90.4358 114.023Z" fill="#191919"/>
<path d="M78.9143 117.372C79.4289 117.795 86.672 126.32 87.0714 126.781C87.2942 127.042 87.2788 127.035 86.7642 128.509C84.0221 136.436 85.0667 138.218 83.4537 133.494C81.641 128.21 84.2218 136.567 79.3982 120.437C78.4228 117.318 78.6532 117.725 78.9143 117.372Z" fill="#191919"/>
</svg>
