<svg width="155" height="154" viewBox="0 0 155 154" fill="none" xmlns="http://www.w3.org/2000/svg">
<path d="M65.7564 94.0412C65.7925 93.0703 65.7886 89.6631 65.102 88.9027C64.764 88.5294 64.5712 88.5186 61.0311 87.2805C59.902 86.8865 59.3467 87.1338 59.1162 88.5747C58.6907 91.23 57.3243 99.4347 58.6085 102.016C59.5456 103.902 65.4568 108.1 66.1289 109.995C66.7357 111.706 68.6206 144.029 67.2211 146.915C66.9699 147.424 66.604 147.867 66.1523 148.21C65.7006 148.553 65.1754 148.787 64.6181 148.892C74.6073 149.898 84.6642 150.046 94.6788 149.337C93.6137 149.275 92.5875 148.914 91.7178 148.296C90.0956 146.887 90.5219 146.678 87.2291 113.545C87.0663 111.904 87.905 111.74 93.0751 107.414C95.6013 105.301 95.7925 104.165 94.6519 101.569C92.7624 97.2679 87.8927 87.9741 86.6146 87.1092C85.6806 86.4748 83.6014 86.6683 83.0384 87.8973C82.639 88.7706 82.914 89.2913 84.6714 96.5152C85.4448 99.6967 85.1975 100.432 84.0915 102.558C81.2887 107.953 79.2297 113.702 77.9706 119.65C78.4675 117.165 73.7368 110.852 72.6569 108.52C72.2543 107.568 71.755 106.66 71.1668 105.811C70.3864 104.76 65.5175 100.439 65.7564 94.0412Z" fill="#92FCFF"/>
<path d="M111.052 116.721C113.774 121.913 115.054 124.046 115.481 126.548C116.326 131.519 112.892 134.7 108.173 133.813C106.13 133.32 104.199 132.444 102.482 131.232C105.093 147.642 105.512 147.121 103.72 147.998C99.3116 150.154 92.4956 148.88 91.4794 148.066C90.8854 147.447 90.544 146.628 90.5223 145.77C89.3226 137.488 88.4746 129.262 87.8525 120.917C87.1212 111.115 86.4699 113.036 92.3143 108.665C93.2688 108.056 94.0742 107.24 94.6708 106.278C96.3829 102.98 93.0317 99.3077 92.0009 96.6002C91.7044 95.8221 91.5101 95.0072 91.209 94.2307C90.1506 91.4963 87.8294 89.3694 86.9077 86.5882L88.7419 85.7233C91.6415 84.3569 95.508 86.4622 97.7962 89.4209C100.927 93.471 105.101 105.368 111.052 116.721Z" fill="#D9B343"/>
<path d="M43.5148 103.142C48.0626 91.7891 58.8843 86.1191 58.8328 88.8297C58.703 95.6288 55.3672 101.618 63.6257 106.619C65.3692 107.674 65.7548 108.028 65.9791 109.928C67.3329 121.372 67.9368 132.893 67.7872 144.416C67.7695 145.742 67.6436 147.269 66.5659 148.044C65.5513 148.774 65.3508 148.578 49.4905 148.851C43.3304 148.956 39.9662 147.648 38.9523 140.716C38.2372 135.839 38.5168 116.214 42.514 105.543C43.167 104.161 43.5438 102.665 43.6231 101.138L43.5148 103.142Z" fill="#D9B343"/>
<path d="M65.3379 89.3446C66.4809 92.1865 65.1644 95.5354 66.1967 98.415C67.305 101.506 72.7754 105.52 77.3232 117.44C77.5099 117.93 77.7595 118.487 78.268 118.617C82.0685 103.913 84.7637 101.659 85.1808 100.018C85.614 98.3166 84.0363 91.1911 83.5501 89.3415C83.0248 87.3383 80.0254 89.1111 78.2803 89.7348C74.4029 91.1304 70.1431 89.9744 66.0676 89.3415C65.5492 89.2609 65.6068 89.3945 65.2158 90.6857L65.3379 89.3446Z" fill="white"/>
<path d="M43.6382 62.6763C42.3691 62.7585 41.1358 63.1309 40.0334 63.765C38.931 64.3991 37.989 65.2779 37.2798 66.3336C36.5707 67.3892 36.1134 68.5937 35.9433 69.854C35.7732 71.1143 35.8947 72.3969 36.2986 73.6028C36.7025 74.8087 37.3778 75.9058 38.2727 76.8095C39.1675 77.7132 40.2579 78.3993 41.4598 78.815C42.6617 79.2307 43.943 79.3648 45.2049 79.2071C46.4669 79.0494 47.6757 78.604 48.7383 77.9052C50.5172 76.7354 50.6017 82.1297 62.1799 87.6216C68.1656 90.4589 75.0639 91.8783 80.793 88.5034C83.7947 86.7367 88.6714 86.0992 89.3534 85.3734C90.1691 84.5062 88.2673 83.1306 88.8019 82.0668C89.8819 81.7446 90.9328 81.3319 91.9434 80.8332C92.8974 80.3624 92.7945 79.9599 92.455 79.1472C91.1208 75.952 94.336 69.669 91.9419 59.3036C91.0632 55.5008 87.7051 46.2331 85.2887 42.9164C79.253 34.6334 72.6152 47.0641 62.5686 51.4315C57.0583 53.8279 49.7207 54.0614 49.7914 63.2386C49.7975 64.0612 49.5994 64.4114 48.7437 64.363C46.7982 64.2532 44.9709 64.0981 43.6382 62.6763Z" fill="white"/>
<path d="M44.5803 71.4799C43.1156 69.4637 40.5863 70.1619 40.6254 69.6941C40.6877 68.9898 43.9236 68.0965 45.767 70.6205C47.7887 73.3856 45.3269 76.1853 44.9298 75.759C44.6203 75.4802 46.0036 73.4393 44.5803 71.4807V71.4799Z" fill="black"/>
<path d="M93.7837 79.6509C92.8719 77.3274 92.9388 76.8735 92.5079 76.5125C94.9535 66.9705 92.0739 55.6934 87.8156 46.706C89.4286 44.8096 87.7833 36.4835 83.4682 31.5108C64.3505 9.40367 27.1434 36.816 41.1226 62.4802C35.0931 63.9834 33.2236 72.331 37.3459 77.034C38.8017 78.7029 40.8421 79.75 43.0468 79.9596C45.2515 80.1692 47.4526 79.5254 49.1968 78.1608C56.0013 87.5238 65.0571 91.4534 73.9731 90.9695C75.5047 92.7545 77.7567 90.9434 90.1614 86.3901C91.61 85.8578 90.6844 84.5613 90.1368 83.1073C93.4296 81.8845 94.5809 81.6794 93.7837 79.6509ZM90.3219 80.694C89.699 80.9397 89.0707 81.1686 88.4385 81.3891C88.1596 81.4699 87.9233 81.6564 87.7798 81.9089C87.6364 82.1614 87.5971 82.4599 87.6704 82.7409C87.9001 83.4038 88.1482 84.059 88.4155 84.7072C83.8592 86.4562 82.6633 87.1651 77.1737 88.9317C76.7789 89.0585 75.9171 89.5746 75.54 89.4778C75.4632 89.4586 75.858 89.9564 73.8279 85.8217C73.2357 84.6166 71.2932 85.771 69.6802 86.3456C68.9398 86.6098 69.3407 87.1198 67.7001 83.4161C67.1271 82.1257 65.2322 83.2432 65.8014 84.526C68.1394 89.7943 67.1747 89.5669 72.3102 87.6997C72.6896 88.4555 73.0015 89.0784 73.3087 89.7851C63.2075 89.2105 56.4046 84.5436 50.0156 77.3497C51.4888 75.6092 51.4366 73.7942 51.2084 73.7788C50.9219 73.7412 50.6953 75.8112 48.3304 77.3121C47.0413 78.1245 45.536 78.5265 44.0135 78.465C42.491 78.4034 41.0231 77.8811 39.8038 76.9672C38.5848 76.0527 37.6721 74.7897 37.1867 73.3451C36.7013 71.9006 36.6661 70.3427 37.0856 68.8777C37.4027 67.6702 38.0275 66.5656 38.899 65.6716C39.7677 64.816 40.872 64.2391 42.0705 64.0149C43.6282 66.2347 46.7259 69.2655 49.4802 68.9153C51.6562 68.6956 53.7209 65.6586 52.4543 61.4725C49.9641 52.6395 52.9796 62.2106 81.4189 42.1474C83.3346 43.6613 84.4913 47.5931 86.7833 47.2859C90.2397 56.6189 92.9856 66.5119 91.3649 76.3274C90.1644 76.7291 90.7843 77.8067 91.3396 79.3644C91.7713 80.5726 92.0171 80.0249 90.3273 80.6932L90.3219 80.694Z" fill="black"/>
<path d="M92.0122 73.2657C91.529 72.3363 91.1127 71.3762 90.6672 70.4238C90.5449 70.2145 90.3569 70.0516 90.1325 69.9602C89.908 69.8688 89.6597 69.8541 89.426 69.9184C89.0051 70.0666 86.5994 70.9222 86.3644 71.0705C85.0848 68.1272 86.1009 68.4536 77.6542 71.4891C72.6432 73.2895 72.3099 73.0068 71.2107 73.7865C70.2291 74.4839 70.8543 75.2151 71.2107 76.3688C70.8613 76.494 70.4427 76.7067 70.266 76.7643C69.6769 76.9602 69.0862 77.1538 68.4994 77.3504C68.2202 77.4311 67.9836 77.6177 67.8401 77.8704C67.6966 78.1231 67.6575 78.4219 67.7313 78.703L68.6223 81.1263C69.1069 82.4428 71.2338 81.8737 70.7422 80.5418L70.2115 79.097C73.0987 78.1446 74.4114 78.0701 73.2147 75.2266C73.906 74.9655 74.6741 74.8203 75.3438 74.6045C78.2165 73.6751 81.1306 72.5183 84.1162 71.4745C85.2914 74.4186 86.4351 73.3463 89.1456 72.3486C89.4575 73.0284 89.7693 73.7081 90.1142 74.3725C90.7663 75.6322 92.6643 74.5208 92.0122 73.2665V73.2657Z" fill="black"/>
<path d="M73.4235 81.0918C77.8016 83.6073 82.9939 80.4213 87.5848 77.7122C87.7328 77.6172 87.8502 77.4814 87.923 77.3212C87.9958 77.161 88.0208 76.9832 87.995 76.8092C87.9692 76.6352 87.8937 76.4723 87.7776 76.3401C87.6615 76.2079 87.5097 76.112 87.3405 76.0639C87.1145 75.9985 86.8719 76.0224 86.6631 76.1307C82.9363 78.3329 77.8984 81.5527 74.3513 79.5103C74.142 79.3947 73.8958 79.3654 73.6652 79.4286C73.4346 79.4919 73.2378 79.6427 73.1168 79.849C72.9958 80.0552 72.9601 80.3006 73.0174 80.5328C73.0747 80.7649 73.2204 80.9655 73.4235 81.0918Z" fill="black"/>
<path d="M45.0189 56.3287C41.5725 55.3049 39.289 53.4645 39.4887 53.1427C39.7153 52.7794 42.2246 53.9584 45.4345 54.9247C48.6451 55.8894 51.3949 56.1306 51.4025 56.5507C51.4118 57.0269 48.2795 57.2996 45.0197 56.3287H45.0189Z" fill="white"/>
<path d="M50.4052 46.8169C45.1599 43.9159 43.0676 40.4326 43.3503 40.2114C43.5223 40.0762 44.305 40.8089 45.623 41.8735C52.0881 47.0965 59.8058 49.1066 59.6023 49.7933C59.4679 50.2334 54.6512 49.165 50.4052 46.8169Z" fill="white"/>
<path d="M57.5775 40.9391C53.0381 37.7177 50.0187 34.3389 50.2898 34.0624C50.5848 33.7605 53.989 36.5971 58.4254 39.7463C62.8619 42.8954 66.6624 45.1636 66.4758 45.5476C66.3037 45.891 62.1169 44.1574 57.5775 40.9391Z" fill="white"/>
<path d="M66.2543 34.6808C63.2311 30.8173 60.277 28.0913 60.5459 27.7587C60.7678 27.4515 64.2596 29.7558 67.4088 33.7775C70.5579 37.7992 71.9566 41.7434 71.601 41.8855C71.2139 42.066 69.2814 38.5435 66.2543 34.6808Z" fill="white"/>
<path d="M75.0061 32.5465C72.6627 28.8727 70.0834 26.3734 70.3615 26.0454C70.4859 25.8987 71.3124 26.3396 72.4515 27.3143C77.8949 31.9728 79.5471 39.3326 78.9418 39.4993C78.5271 39.6137 77.3465 36.2203 75.0061 32.5465Z" fill="white"/>
<path d="M83.7622 88.7382L82.6976 89.0116C85.5956 102.038 85.5526 97.1764 80.994 107.298C74.9468 120.763 81.9487 121.085 73.1357 107.4C66.3073 96.8 67.1015 100.667 66.6998 95.9713L66.219 88.5569L64.7412 88.6391C65.3011 100.94 64.6076 98.294 68.4872 103.661C76.1412 114.305 78.5192 119.923 79.3472 136.499C79.5776 141.415 79.6921 148.926 80.0124 148.926C80.2167 148.926 80.5992 142.894 80.5554 136.464C80.4218 122.859 77.2757 119.74 82.5524 107.999C87.1134 97.8707 87.4629 101.485 83.7622 88.7382Z" fill="black"/>
<path d="M72.0087 114.257C69.07 107.845 63.0436 106.96 59.9144 102.351C58.3375 99.9862 58.9059 97.0628 59.6755 88.2613C60.2398 88.0914 60.8081 87.9349 61.3799 87.792L61.1548 86.7167C42.2037 91.0287 38.2212 111.183 38.3064 130.696C38.3472 135.765 37.1136 144.585 41.4088 148.187C43.468 149.894 46.5957 149.918 49.2179 149.838C66.5706 149.227 68.1414 151.031 68.361 144.446C68.6798 132.943 68.0633 121.433 66.5176 110.029C69.1583 112.001 69.8296 113.084 70.7291 114.868C72.4518 118.089 73.7903 121.501 74.717 125.034C75.0542 126.524 75.1656 127.376 75.2954 127.371C75.4981 127.368 76.1495 123.432 72.0087 114.257ZM66.2542 147.243C65.3325 148.401 60.5488 147.781 58.9181 147.83L54.3242 147.976C54.8565 139.905 53.5692 111.01 52.788 111.082C52.5806 111.104 52.0583 120.251 52.6674 136.289C52.8303 140.549 52.9163 144.532 52.8065 148.025C44.4389 148.29 40.8811 148.907 40.0185 140.535C39.6813 137.12 40.0185 133.486 39.9909 130.687C39.8657 114.289 42.5678 94.5619 58.1178 88.7859C56.6623 101.883 55.7805 102.514 65.2495 109.12C67.0322 123.171 67.4539 145.728 66.2542 147.243Z" fill="black"/>
<path d="M112.225 117.35C110.612 113.441 109.662 111.485 107.533 107.169C101.683 95.3585 100.769 90.3383 96.0114 86.8557C94.18 85.4862 91.9664 84.7233 89.6801 84.6736L89.6417 85.772C97.6252 86.2459 100.031 94.3438 102.599 100.254C106.424 109.027 105.371 105.247 111.558 120.132C112.754 122.908 114.767 126.068 114.565 128.641C114.271 131.791 111.614 133.518 108.485 132.83C107.317 132.534 106.176 132.137 105.076 131.644C103.457 130.927 103.648 130.975 102.806 130.012C101.928 124.968 98.4279 107.077 97.583 107.242C96.2687 107.497 103.788 141.519 103.743 146.041C103.758 146.926 103.654 147.347 102.407 147.677C100.467 148.2 96.2396 148.176 94.2502 148.109C92.2609 148.041 91.5619 147.608 91.101 145.197C91.0857 145.12 88.7346 125.764 87.8336 113.302C91.5673 108.802 95.1727 108.592 96.1105 105.148C96.8694 102.416 95.5045 100.447 87.2775 85.8234L85.9763 86.5301C93.5036 100.929 94.2994 101.559 94.5444 103.443C94.9476 106.375 91.6387 107.514 89.4235 109.499C80.8516 116.887 82.3364 127.616 82.864 127.558C83.3149 127.506 82.1781 121.306 86.7936 114.671C87.1354 121.046 87.6615 127.409 88.3052 133.352C90.038 148.628 88.286 149.645 97.0023 149.767C107.925 149.781 105.433 147.309 104.48 138.957C103.978 134.569 103.497 132.751 103.574 132.827C106.911 134.493 110.586 135.582 113.575 133.539C114.346 132.99 114.985 132.277 115.448 131.452C115.911 130.627 116.185 129.71 116.252 128.766C116.459 125.392 114.306 122.625 112.225 117.35Z" fill="black"/>
<path d="M89.0844 47.5946C87.1867 47.5949 85.3452 48.2397 83.8619 49.4235C82.3787 50.6073 81.3415 52.2599 80.9204 54.1103C78.3181 54.264 74.629 56.261 73.0598 57.4899C71.7187 56.554 70.1332 56.0309 68.4986 55.9849C66.8639 55.9389 65.2515 56.3722 63.86 57.2313C62.4685 58.0903 61.3587 59.3377 60.6674 60.8197C59.976 62.3017 59.7333 63.9536 59.9692 65.5718C57.2561 66.0908 54.4689 66.0882 51.7568 65.5641L51.1953 67.0312C52.6128 67.817 54.1873 68.2777 55.8048 68.38C57.4224 68.4823 59.0424 68.2236 60.5476 67.6226C64.3965 76.6323 78.163 72.7381 76.5016 62.9265C79.6615 60.891 78.4218 61.3027 81.9804 60.3918C86.4353 67.5235 97.4558 64.3405 97.4558 55.9645C97.4559 54.8652 97.2395 53.7766 96.8188 52.7609C96.3981 51.7452 95.7815 50.8224 95.0041 50.0451C94.2267 49.2678 93.3038 48.6512 92.2881 48.2306C91.2724 47.81 90.1838 47.5937 89.0844 47.5939V47.5946ZM75.8571 60.8442C74.7135 58.3533 74.2065 59.2957 74.9216 58.3018C76.3649 56.2641 78.0639 55.5828 80.7207 56.2879C80.7483 57.0445 80.8789 57.7941 81.1093 58.5153C78.9449 60.3565 78.8243 60.411 75.8571 60.8434V60.8442Z" fill="black"/>
<path d="M65.9962 63.7117L63.165 64.3891L63.8417 67.2203L66.6729 66.5436L65.9962 63.7117Z" fill="white"/>
<path d="M68.151 60.203L65.3198 60.8805L65.9957 63.7116L68.8277 63.035L68.151 60.203Z" fill="white"/>
<path d="M86.9782 54.8464L84.147 55.5239L84.8237 58.3551L87.6548 57.6784L86.9782 54.8464Z" fill="white"/>
<path d="M89.1324 51.3395L86.3013 52.0169L86.978 54.8481L89.8091 54.1707L89.1324 51.3395Z" fill="white"/>
<path d="M126.954 70.0654C128.928 70.8873 128.789 73.3283 128.477 75.3245C125.201 96.3095 124.928 99.3596 121.746 99.1868C119.092 99.0424 107.272 98.1652 105.048 95.7135C102.487 92.8892 104.176 85.6676 104.527 82.1559C105.485 72.5548 105.415 70.0854 107.418 68.4378C110.269 66.0921 116.718 67.7573 118.931 67.9962C121.7 68.2432 124.41 68.9422 126.954 70.0654Z" fill="white"/>
<path d="M128.221 70.3932C126.636 68.9761 123.52 68.3524 121.414 68.0559C114.613 67.0989 111.813 66.0627 108.64 67.2817C105.327 68.5705 105.374 71.5116 104.901 75.2852C102.885 92.273 101.514 96.019 107.415 97.569C110.229 98.2311 121.312 100.893 123.735 99.3049C125.015 98.5245 125.381 97.1704 126.571 91.0525C127.613 85.5899 129.177 74.1853 129.193 73.1507C129.236 72.6483 129.172 72.1425 129.005 71.6669C128.837 71.1914 128.57 70.7572 128.221 70.3932ZM105.965 75.4188C106.426 71.9471 106.175 69.3148 108.998 68.1911C109.762 67.8839 109.264 68.0068 108.845 68.7564C107.244 71.649 105.619 89.68 105.629 91.6985C105.553 93.217 105.861 94.7302 106.527 96.0974C102.831 94.8661 104.583 87.8458 105.965 75.4188ZM128.254 73.1384C128.254 73.2536 125.202 97.0744 123.128 98.311C122.407 98.7719 119.071 98.5138 118.273 98.4446C114.863 98.0566 111.487 97.4163 108.173 96.529C105.996 95.2632 106.498 90.7192 106.782 88.0693C109.051 67.9415 108.457 67.5129 114.694 67.8977C124.211 69.311 128.365 69.6198 128.254 73.1384Z" fill="black"/>
<path d="M126.743 73.4742C126.655 71.5747 124.267 71.0401 122.333 70.7306C119.096 70.1975 118.631 72.0555 118.526 75.3015C118.498 76.1802 118.001 77.8861 120.35 78.7625C121.599 79.1611 122.889 79.4161 124.197 79.5206C124.58 79.5313 124.958 79.4237 125.279 79.2123C125.599 79.001 125.847 78.6962 125.988 78.3393C126.39 76.7447 126.642 75.1156 126.743 73.4742ZM125.801 74.8875C125.139 78.4437 125.493 79.0152 122.469 78.317C119.16 77.5236 119.392 77.2586 119.462 75.3445C119.538 72.6393 119.576 71.1031 122.227 71.4818C123.277 71.5205 124.307 71.7845 125.247 72.256C126.231 72.9012 126.033 73.6363 125.801 74.889V74.8875Z" fill="black"/>
<path d="M121.451 73.6599C121.321 73.6482 121.191 73.6621 121.066 73.7009C120.942 73.7397 120.827 73.8025 120.727 73.8859C120.627 73.9692 120.545 74.0714 120.484 74.1866C120.424 74.3018 120.387 74.4278 120.375 74.5574C120.363 74.6869 120.377 74.8175 120.416 74.9417C120.455 75.0659 120.518 75.1812 120.601 75.2811C120.684 75.3809 120.787 75.4634 120.902 75.5238C121.017 75.5842 121.143 75.6213 121.273 75.633C121.534 75.6566 121.795 75.5753 121.996 75.407C122.198 75.2387 122.325 74.9972 122.348 74.7355C122.372 74.4739 122.291 74.2135 122.122 74.0118C121.954 73.8101 121.712 73.6835 121.451 73.6599Z" fill="black"/>
<path d="M124.028 72.8917C123.769 72.8737 123.514 72.9579 123.317 73.1261C123.119 73.2942 122.996 73.5331 122.972 73.7914C122.949 74.0496 123.028 74.3067 123.192 74.5076C123.356 74.7084 123.592 74.8369 123.85 74.8655C124.106 74.8798 124.358 74.7938 124.553 74.6258C124.747 74.4578 124.869 74.2209 124.892 73.965C124.915 73.7091 124.838 73.4543 124.677 73.2542C124.516 73.0541 124.283 72.9244 124.028 72.8924V72.8917Z" fill="black"/>
<path d="M123.382 75.3935C123.124 75.3756 122.869 75.4598 122.671 75.628C122.474 75.7963 122.351 76.0351 122.328 76.2933C122.305 76.5514 122.384 76.8082 122.548 77.0089C122.712 77.2097 122.947 77.3383 123.205 77.3674C123.464 77.3854 123.719 77.3012 123.916 77.1327C124.113 76.9643 124.237 76.7251 124.259 76.4668C124.282 76.2089 124.202 75.9525 124.039 75.752C123.875 75.5515 123.639 75.4229 123.382 75.3935Z" fill="black"/>
<path d="M114.716 84.5393C115.007 84.7897 116.382 85.8251 116.81 85.789C117.611 85.6573 118.391 85.4237 119.132 85.0939C119.754 84.7275 119.525 83.3726 118.867 83.5393C118.399 83.6161 118.32 83.623 118.167 83.5255C118 83.3909 117.883 83.2046 117.834 82.9959C117.785 82.7873 117.807 82.5682 117.896 82.3733C118.084 82.0323 118.472 81.7589 118.416 81.3909C118.251 80.8946 118.017 80.424 117.72 79.993C117.619 79.8985 114.62 83.0999 114.417 83.964C114.336 84.229 114.583 84.4249 114.716 84.5393ZM116.094 84.9672C115.716 84.7323 115.354 84.4732 115.01 84.1914C114.818 84.0286 114.483 84.0232 116.905 83.9464C116.641 85.6423 116.925 85.4887 116.094 84.9672ZM118.881 84.7137C118.222 85.0017 117.529 85.2029 116.818 85.312C116.891 85.0432 116.995 84.5608 117.113 83.9579C117.249 83.9825 118.442 84.4533 118.572 84.5025C118.986 84.6569 119.02 84.6215 118.881 84.7137ZM117.997 81.1928C118.06 81.4101 118.124 81.4232 117.988 81.6037C117.771 81.8825 117.195 82.3219 117.392 83.0777C117.627 83.888 118.102 84.1261 118.638 84.0378C119.03 83.974 118.974 83.9279 119.022 84.1653C119.054 84.2913 119.054 84.4234 119.022 84.5493C118.423 84.2329 117.801 83.961 117.161 83.7375C117.999 79.3179 117.518 79.5414 117.997 81.1928ZM117.613 80.2549C116.396 84.6884 118.01 83.4126 114.912 83.9011C115.183 83.2682 116.817 81.5753 117.612 80.2549H117.613Z" fill="black"/>
<path d="M119.472 85.5032C119.061 85.5393 119.549 85.421 116.761 86.2168C116.395 86.2575 115.354 85.4994 115.071 85.2636C114.057 84.411 114.299 83.9647 114.175 84.7536C114.001 85.865 115.799 89.8076 116.172 89.6494C117.373 89.1355 119.962 85.4257 119.472 85.5032ZM116.069 89.4205C115.791 88.5656 115.39 87.8582 114.693 85.5332C116.859 87.4181 116.596 85.7966 116.233 88.0218C116.151 88.4854 116.096 88.9535 116.069 89.4236V89.4205ZM118.483 86.5732C117.502 87.9404 116.535 88.9988 116.198 89.4366C116.541 88.1685 116.552 86.7207 116.63 86.6984C116.854 86.6661 117.073 86.6124 117.286 86.5371C119.23 85.9848 118.937 85.9433 118.483 86.5763V86.5732Z" fill="black"/>
<path d="M106.37 119.19C106.322 123.597 106.53 132.683 110.829 133.768C111.575 133.894 112.342 133.81 113.044 133.526C113.745 133.241 114.354 132.766 114.801 132.155C115.676 130.92 116.31 129.531 116.668 128.06C118.41 122.462 119.987 118.245 119.597 114.145C119.48 112.907 118.703 113.895 111.802 112.863C110.455 112.661 108.981 111.975 107.632 111.968C106.067 111.961 106.441 112.679 106.37 119.19Z" fill="#D9B343"/>
<path d="M120.812 92.9928C121.372 92.5214 121.84 91.9512 122.195 91.3107C124.677 87.8543 131.65 87.2774 129.338 92.0327C125.69 99.5423 124.087 103.675 120.456 105.858C129.262 116.135 109.691 114.524 105.617 110.671C105.263 110.333 104.981 109.927 104.787 109.477C104.594 109.028 104.492 108.544 104.489 108.054C104.486 107.565 104.581 107.08 104.769 106.628C104.956 106.176 105.233 105.766 105.582 105.423C106.05 104.964 106.632 104.64 107.267 104.484C105.178 103.575 103.669 101.482 102.342 99.6291C101.647 98.8137 101.226 97.8005 101.139 96.7326C101.15 95.6681 102.031 94.5536 103.087 94.6841C102.371 94.0188 101.789 93.2229 101.372 92.3392C101.169 91.8942 101.096 91.4012 101.16 90.9165C101.224 90.4318 101.423 89.9749 101.734 89.5978C102.712 88.5886 104.376 88.9311 105.717 89.3467C104.449 88.7522 104.267 86.8066 105.202 85.7635C105.709 85.2763 106.349 84.9505 107.041 84.8274C107.733 84.7043 108.446 84.7896 109.09 85.0723C109.977 85.4784 110.799 86.0129 111.53 86.6584C114.5 88.9451 117.6 91.06 120.812 92.9928Z" fill="white"/>
<path d="M130.747 90.2942C129.926 86.1588 122.831 87.3025 120.492 92.4334C113.603 88.3625 110.48 82.7723 106.696 83.8515C105.964 83.9956 105.301 84.3811 104.814 84.9465C104.326 85.5118 104.042 86.2243 104.008 86.9699C103.987 88.5507 104.556 87.3317 102.573 87.8386C100.45 88.3417 99.2549 91.4871 101.963 94.2668C101.515 94.481 101.126 94.8023 100.832 95.2023C100.537 95.6023 100.345 96.0687 100.273 96.5603C99.917 99.2993 103.631 102.59 105.866 104.241C103.302 105.452 103.115 109.771 105.86 111.762C105.571 117.279 105.655 122.809 106.111 128.315C107.122 134.982 111.696 136.303 114.495 133.51C118.224 129.789 120.354 119.956 120.212 114.242C122.281 113.656 123.556 112.286 123.492 110.112C123.443 109.388 123.286 108.675 123.026 107.997C122.657 107.175 122.081 106.463 121.354 105.929C125.592 103.273 127.011 97.8069 129.566 93.4764C130.251 92.3627 130.86 91.6007 130.747 90.2942ZM109.683 132.276C108.713 131.344 108.08 129.384 107.855 128.027C107.471 125.698 107.106 115.841 107.079 112.454C109.206 113.418 115.823 114.865 118.985 114.48C118.681 121.191 114.357 136.826 109.683 132.276ZM129.029 90.722C128.998 91.4033 128.228 92.0616 126.925 94.8068C125.198 98.3922 123.689 102.806 120.666 104.921C117.083 107.568 114.263 106.855 114.224 107.269C114.18 107.55 117.013 108.07 120.123 106.605C122.093 107.797 122.326 110.519 121.506 111.574C119.698 114.032 111.862 112.083 108.909 111.26C106.241 110.503 105.516 109.36 105.439 107.65C105.416 107.392 105.427 107.131 105.472 106.876C105.536 106.433 105.749 106.025 106.077 105.719C106.405 105.414 106.827 105.23 107.274 105.198C110.712 107.332 113.848 107.603 113.874 107.225C113.955 106.692 108.894 106.042 103.148 99.3723C102.242 98.2808 101.34 96.7953 102.407 95.8544C102.607 95.6801 103.159 95.349 103.364 95.5157C108.132 99.3792 112.044 100.267 112.214 99.8055C112.453 99.1695 105.966 95.803 103.158 92.8996C102.786 92.5888 102.509 92.1803 102.358 91.7203C102.206 91.2603 102.187 90.7671 102.301 90.2965C103.263 87.5222 107.403 92.6484 112.266 94.5487C113.609 95.081 114.515 95.2023 114.611 94.978C114.909 94.2868 106.085 89.3641 105.729 87.8402C105.207 85.7963 107.232 84.9982 108.822 85.7402C110.986 86.7472 116.827 93.0248 122.424 94.2245C123.32 94.4204 123.836 94.3897 123.858 94.2791C123.885 94.1255 123.098 93.8374 121.817 93.173C123.9 88.8725 129.121 88.778 129.031 90.722H129.029Z" fill="black"/>
<path d="M24.6088 138.227C26.2701 140.865 28.0052 141.308 30.6767 140.629C37.8967 138.794 42.5513 132.505 42.5245 129.898C42.5068 128.208 40.5789 125.643 39.5289 124.791C37.631 123.255 34.8482 123.231 32.5669 124.1C30.2857 124.969 28.3885 126.603 26.5428 128.202C22.4335 131.766 21.5456 133.363 24.6088 138.227Z" fill="#FDFE1F"/>
<path d="M43.0395 129.193C42.8706 126.694 40.1569 124.167 38.2551 123.37C33.877 121.484 23.3181 127.538 22.3019 133.342C22.0353 136.174 24.6714 143.327 31.9998 140.971C36.692 139.427 43.5073 134.103 43.0395 129.193ZM37.0776 124.409C38.3119 125.298 37.4909 127.572 36.7489 128.887C34.8886 132.215 26.4887 137.698 24.1806 134.644C21.6475 131.251 31.979 123.18 37.0776 124.412V124.409ZM24.1415 135.717C25.2229 136.567 26.9511 136.461 28.2838 136.141C29.6379 137.677 29.9789 137.53 30.7209 139.674C27.2668 140.457 25.4633 138.943 24.1415 135.717ZM31.7094 139.38C30.0143 137.239 30.6771 138.084 29.5081 135.759C30.9354 135.175 32.2786 134.404 33.5022 133.465C35.4723 135.56 34.9569 134.374 36.2734 136.9C34.8705 137.928 33.3353 138.762 31.7094 139.38ZM37.1491 136.235C34.8233 134.137 35.7081 134.603 34.5068 132.696C35.6615 131.841 36.6545 130.786 37.4394 129.582C38.017 129.92 38.5662 130.306 39.0808 130.735C39.6646 131.299 40.1638 132.258 40.5156 132.629C39.5989 134.007 38.4615 135.226 37.1491 136.235ZM41.117 131.479C40.5434 131.132 39.994 130.747 39.4725 130.327C38.8895 129.743 38.3734 128.774 38.0201 128.416C38.5259 127.379 38.6897 126.209 38.4878 125.073C40.862 126.693 42.2384 128.809 41.117 131.479Z" fill="black"/>
<path d="M127.184 61.5469C129.286 58.9477 128.484 57.579 126.936 42.9768C126.783 41.5448 126.107 40.2196 125.037 39.2556C123.967 38.2917 122.579 37.7569 121.139 37.7538C120.701 37.7538 121.83 37.6478 106.23 39.3007C104.692 39.4648 103.282 40.2328 102.309 41.4359C101.337 42.639 100.882 44.1789 101.044 45.7174C102.657 60.9632 102.267 61.7705 104.472 63.7383C105.079 64.2827 105.793 64.6936 106.569 64.9443C107.344 65.1951 108.164 65.2801 108.974 65.1938C123.706 63.6369 125.152 64.0586 127.184 61.5477V61.5469Z" fill="white"/>
<path d="M128.885 57.2226L127.37 42.9323C127.194 41.2784 126.368 39.7622 125.074 38.7166C123.781 37.671 122.125 37.1814 120.471 37.3552L106.184 38.8691C104.53 39.0468 103.015 39.8729 101.969 41.1665C100.923 42.46 100.433 44.1154 100.606 45.7696C102.155 60.3787 101.715 62.0939 104.416 64.2806C107.104 66.452 108.386 65.7077 123.311 64.127C124.965 63.9484 126.48 63.1213 127.525 61.827C128.57 60.5328 129.059 58.8769 128.885 57.2226ZM108.519 39.8484C121.724 38.449 120.757 38.5427 121.139 38.5427C122.386 38.5449 123.588 39.0074 124.514 39.8415C125.441 40.6756 126.026 41.8225 126.159 43.0621L127.44 55.1396C127.306 56.3097 126.778 57.3995 125.942 58.2294C125.107 59.0594 124.014 59.5801 122.843 59.7059L111.878 60.868C111.202 60.9403 110.519 60.8786 109.867 60.6864C109.215 60.4943 108.607 60.1754 108.079 59.7481C107.55 59.3209 107.111 58.7936 106.786 58.1964C106.462 57.5992 106.258 56.9439 106.187 56.2679C104.98 44.8733 104.361 43.7127 106.146 41.5044C106.762 40.7369 107.586 40.1621 108.519 39.8484ZM123.182 62.9065C101.077 65.2499 104.138 67.5097 101.821 45.6391C101.685 44.3367 102.059 43.0324 102.865 42.0002C103.671 40.968 104.845 40.2881 106.141 40.1034C102.958 42.877 104.06 45.4801 105.215 56.3677C105.374 57.8769 106.086 59.2738 107.213 60.2899C108.34 61.306 109.803 61.8694 111.32 61.8719C111.794 61.8719 111.013 61.9395 122.945 60.6744C123.932 60.572 124.88 60.2316 125.706 59.6824C126.532 59.1332 127.213 58.3917 127.689 57.5214C127.781 58.8278 127.363 60.1189 126.522 61.1232C125.681 62.1275 124.484 62.7668 123.182 62.9065Z" fill="black"/>
<path d="M117.02 57.9906C116.867 57.87 114.543 55.8599 112.131 53.7876C112.005 53.6801 111.941 53.8429 113.428 51.8559C113.526 51.7253 113.453 51.7499 113.782 52.0341C116.92 54.7454 116.603 54.5611 116.738 54.3798C119.017 51.3259 119.05 51.2775 119.133 51.1738L120.949 52.7323L117.02 57.9906Z" fill="black"/>
<path d="M113.216 49.2414L111.4 47.6845L115.317 42.4369L120.281 46.7082L118.847 48.6208C118.332 48.1799 116.535 46.6307 115.77 45.9693C115.641 45.8549 114.113 48.0985 113.216 49.2414Z" fill="black"/>
<path d="M115.986 48.454L117.807 50.0217L116.362 51.9557L114.545 50.3865L115.986 48.454Z" fill="black"/>
<path d="M110.35 49.0984L112.146 50.6469L110.724 52.5471L108.936 50.9994L110.35 49.0984Z" fill="black"/>
<path d="M120.192 49.7722C121.77 47.6614 121.604 47.8235 121.681 47.8896C123.525 49.4726 123.482 49.3681 123.387 49.4933C121.928 51.4305 122.041 51.3752 121.932 51.2807C121.117 50.5756 120.283 49.8674 120.192 49.7722Z" fill="black"/>
<path d="M112.693 28.0183C110.286 16.1505 110.522 14.6666 107.887 12.9207C107.249 12.4955 106.534 12.201 105.781 12.0542C105.029 11.9075 104.255 11.9114 103.504 12.0658C91.6367 14.473 90.1528 14.2372 88.4069 16.8718C86.7017 19.4441 87.4084 20.5456 89.8663 32.6491C90.1336 33.9661 90.8471 35.1505 91.8864 36.0024C92.9257 36.8543 94.2271 37.3215 95.5709 37.3253C96.4042 37.3253 95.8904 37.3798 108.138 34.8958C109.653 34.5868 110.984 33.689 111.838 32.3996C112.692 31.1101 113 29.5343 112.693 28.0183Z" fill="white"/>
<path d="M113.124 27.9316C110.896 16.941 111.089 14.5146 108.131 12.5545C105.248 10.6427 103.613 11.5959 92.0244 13.9462C91.2167 14.1094 90.4491 14.4302 89.7654 14.8903C89.0818 15.3504 88.4956 15.9407 88.0403 16.6276C87.585 17.3144 87.2696 18.0843 87.1121 18.8931C86.9547 19.702 86.9582 20.5339 87.1225 21.3414L89.4337 32.736C89.7227 34.1533 90.4919 35.4274 91.6113 36.3434C92.7308 37.2594 94.132 37.7611 95.5784 37.7639C96.4778 37.7639 96.0247 37.8 108.222 35.3268C109.438 35.0805 110.554 34.479 111.428 33.5986C112.302 32.7181 112.896 31.5981 113.134 30.3803C113.292 29.5714 113.288 28.7393 113.124 27.9316ZM93.6298 14.8656C104.43 12.6758 103.949 12.7311 104.663 12.7311C105.828 12.7327 106.956 13.1364 107.858 13.8739C108.76 14.6114 109.379 15.6375 109.612 16.779L111.649 26.8064C111.53 27.9265 111.057 28.9796 110.299 29.8131C109.542 30.6466 108.538 31.2173 107.435 31.4426L98.9664 33.16C98.2847 33.2986 97.5823 33.3014 96.8995 33.1684C96.2167 33.0354 95.5668 32.7691 94.9869 32.3847C94.407 32.0004 93.9086 31.5055 93.5201 30.9285C93.1316 30.3514 92.8606 29.7034 92.7226 29.0215L91.0052 20.5541C90.7825 19.4501 90.9168 18.304 91.3887 17.2813C91.8605 16.2587 92.6453 15.4127 93.6298 14.8656ZM111.183 31.9695C109.642 34.2945 108.468 34.0318 96.5823 36.4405C95.2692 36.7056 93.9046 36.4388 92.788 35.6987C91.6714 34.9587 90.894 33.8059 90.6265 32.4933L88.3184 21.0995C88.0623 19.8397 88.2963 18.5297 88.9727 17.4365C89.649 16.3433 90.7168 15.5491 91.9584 15.2159C91.2466 15.9193 90.7211 16.7889 90.4293 17.7462C90.1375 18.7035 90.0886 19.7184 90.287 20.6993L92.0045 29.1667C92.28 30.5284 93.0173 31.7531 94.0918 32.6339C95.1662 33.5146 96.5118 33.9973 97.9011 34.0003C98.7245 34.0003 98.3719 34.0287 107.579 32.1607C108.56 31.9616 109.476 31.5213 110.244 30.8796C111.012 30.238 111.608 29.4152 111.979 28.4854C112.152 29.7047 111.869 30.945 111.186 31.9695H111.183Z" fill="black"/>
<path d="M104.953 23.6819L104.125 19.545L104.956 19.3783L105.784 23.5152L104.953 23.6819Z" fill="black"/>
<path d="M95.5075 26.8507L93.7248 27.2078L92.896 23.0709C94.3339 22.7829 95.87 22.1991 96.1558 23.627C96.1916 23.8042 96.1773 23.9879 96.1146 24.1574C96.052 24.327 95.9433 24.4758 95.8009 24.5871C95.9938 24.6492 96.167 24.7606 96.3035 24.9104C96.44 25.0601 96.5349 25.2429 96.5789 25.4407C96.6228 25.6385 96.6143 25.8443 96.554 26.0378C96.4938 26.2312 96.3841 26.4055 96.2357 26.5434C96.0364 26.7279 95.7787 26.8367 95.5075 26.8507ZM94.6856 23.4619L93.8722 23.6247L94.0627 24.5787L94.8769 24.4158C94.9829 24.4098 95.0842 24.3698 95.1657 24.3018C95.2472 24.2337 95.3045 24.1412 95.3293 24.0379C95.3494 23.9519 95.3459 23.8621 95.3194 23.7778C95.2928 23.6936 95.244 23.6181 95.1782 23.5591C95.1124 23.5002 95.0319 23.4601 94.9452 23.443C94.8586 23.4259 94.7689 23.4324 94.6856 23.4619ZM94.2087 25.3053L94.4122 26.3222C95.2325 26.1579 95.857 26.144 95.7333 25.5257C95.6266 24.9811 95.2202 25.1017 94.2087 25.3037V25.3053Z" fill="black"/>
<path d="M99.348 26.082L98.5223 26.2471C98.0944 24.1118 98.5361 24.9874 96.4131 22.3667L97.3164 22.1854L98.4462 23.694L98.8963 21.8697L99.7996 21.6885C98.8525 24.926 98.9201 23.9451 99.348 26.082Z" fill="black"/>
<path d="M102.986 25.3547L101.203 25.7111L100.375 21.5734C101.812 21.2861 103.349 20.7024 103.634 22.1295C103.67 22.3067 103.655 22.4904 103.593 22.6599C103.53 22.8295 103.421 22.9782 103.279 23.0896C103.472 23.1516 103.645 23.2629 103.781 23.4126C103.918 23.5623 104.013 23.7452 104.057 23.9429C104.101 24.1407 104.093 24.3466 104.032 24.5401C103.972 24.7336 103.863 24.908 103.714 25.0459C103.514 25.2303 103.257 25.3401 102.986 25.3539V25.3547ZM102.164 21.9651L101.351 22.1279L101.541 23.0804L102.355 22.9175C102.426 22.9157 102.497 22.8982 102.561 22.8663C102.625 22.8344 102.681 22.7889 102.726 22.7329C102.77 22.6769 102.802 22.6118 102.819 22.5421C102.835 22.4725 102.837 22.4001 102.822 22.3299C102.802 22.2239 102.747 22.1277 102.665 22.0564C102.584 21.9851 102.482 21.9428 102.374 21.9359C102.303 21.931 102.231 21.9418 102.164 21.9674V21.9651ZM101.686 23.8085L101.891 24.8255C102.711 24.6611 103.335 24.6473 103.212 24.029C103.103 23.4836 102.699 23.6042 101.686 23.8108V23.8085Z" fill="black"/>
<path d="M108.026 20.7906L108.711 24.2078L107.879 24.3745L107.195 20.9565L106.082 21.1793L105.938 20.4596L108.995 19.8451L109.139 20.5656L108.026 20.7906Z" fill="black"/>
<path d="M67.3491 4.04004C63.6822 5.00246 62.3465 9.72929 61.8372 13.4829C60.4378 23.783 59.9301 24.4144 75.4547 26.6219C77.0027 26.8656 78.5842 26.4859 79.8528 25.566C81.1214 24.6461 81.9737 23.2609 82.2231 21.7138C83.8415 10.7447 83.8799 10.8914 83.7785 10.1571C83.5965 8.83292 81.7876 6.4841 80.7991 5.89805C79.3505 5.03779 69.7278 3.41712 67.3491 4.04081V4.04004Z" fill="white"/>
<path d="M83.1071 7.1852C81.0686 4.45464 79.093 4.74651 69.1647 3.31018C67.5183 3.07367 65.8453 3.49989 64.5128 4.49533C63.1803 5.49077 62.297 6.97413 62.0568 8.61999L60.6366 18.4339C60.4001 20.0803 60.8263 21.7532 61.8217 23.0858C62.8172 24.4183 64.3006 25.3016 65.9464 25.5418C76.0852 27.0088 77.7489 27.7692 80.4149 25.7791C83.2115 23.6891 82.9204 21.295 84.2899 11.8375C84.4095 11.0224 84.3665 10.1916 84.1635 9.39313C83.9605 8.59465 83.6015 7.84425 83.1071 7.1852ZM63.2665 8.79819C63.3615 8.14153 63.5848 7.51002 63.9239 6.93972C64.263 6.36941 64.7111 5.8715 65.2426 5.47442C65.7741 5.07733 66.3787 4.78886 67.0217 4.62548C67.6648 4.46211 68.3337 4.42702 68.9903 4.52223L77.6429 5.77191C78.6569 6.26208 79.4887 7.06212 80.018 8.0563C80.5472 9.05047 80.7465 10.1872 80.587 11.3022C79.5961 18.152 79.7874 20.1498 77.49 21.8657C75.1927 23.5816 73.5013 22.855 66.4825 21.8396C65.3681 21.6782 64.3341 21.1662 63.5303 20.3776C62.7265 19.589 62.1948 18.5649 62.0122 17.4538L63.2665 8.79742V8.79819ZM83.0833 11.667C81.6239 21.7397 81.925 23.1331 79.686 24.8013C77.4278 26.4911 76.076 25.7737 66.1238 24.3328C64.8975 24.1539 63.7796 23.5311 62.9821 22.5824C62.1847 21.6338 61.7633 20.4254 61.798 19.1866C63.5384 22.8258 66.4157 22.5723 73.4591 23.5878C74.2427 23.7035 75.0414 23.6625 75.809 23.4673C76.5767 23.272 77.2979 22.9263 77.9309 22.4502C80.3704 20.6283 80.1975 19.1305 81.3151 11.4051C81.4571 10.4213 81.3536 9.41759 81.0139 8.48342C80.6742 7.54925 80.1088 6.71356 79.368 6.05073C80.5684 6.36674 81.6105 7.11368 82.2953 8.149C82.9802 9.18433 83.2598 10.4356 83.081 11.6639L83.0833 11.667Z" fill="black"/>
<path d="M77.5714 13.2671C77.5256 12.4295 77.3024 11.6112 76.9165 10.8663C76.5306 10.1215 75.9908 9.46711 75.333 8.94658C74.6751 8.42604 73.9142 8.05121 73.1006 7.8469C72.287 7.64259 71.4392 7.61347 70.6135 7.76147C69.7878 7.90947 69.003 8.2312 68.3109 8.70537C67.6189 9.17954 67.0356 9.79532 66.5995 10.5119C66.1634 11.2285 65.8845 12.0296 65.7813 12.8621C65.6781 13.6946 65.753 14.5396 66.0009 15.341C67.9826 22.0233 78.0054 20.246 77.5714 13.2671ZM75.5345 13.1734C73.9507 12.9806 73.9176 13.0021 73.893 12.9007C73.7559 12.4515 73.4806 12.057 73.1064 11.7732C72.7322 11.4895 72.278 11.3309 71.8085 11.32C71.4302 11.3084 71.055 11.3912 70.7168 11.5608C70.3785 11.7304 70.0878 11.9816 69.8708 12.2916C69.6539 12.6017 69.5175 12.9608 69.474 13.3367C69.4306 13.7126 69.4813 14.0935 69.6218 14.4448C69.7623 14.7962 69.988 15.1071 70.2786 15.3495C70.5693 15.5918 70.9157 15.758 71.2866 15.833C71.6575 15.9081 72.0412 15.8896 72.4032 15.7793C72.7652 15.669 73.094 15.4703 73.36 15.2012C73.9599 14.609 73.1864 14.6097 75.5913 14.9446C75.4021 15.5964 75.0287 16.1797 74.516 16.6244C73.887 17.1957 73.0963 17.5579 72.2529 17.6609C71.4094 17.764 70.5548 17.6029 69.8068 17.1999C69.0587 16.7969 68.4541 16.1718 68.0762 15.4108C67.6983 14.6497 67.5658 13.7902 67.6969 12.9507C68.4358 8.27145 75.2318 8.41432 75.834 13.1734C75.8394 13.231 75.8102 13.211 75.5345 13.1734Z" fill="black"/>
<path d="M110.691 140.575C112.518 142.966 117.363 147.428 120.555 147.678C132.833 148.644 145.754 130.201 142.38 122.241C141.401 120.251 136.579 116.525 134.91 115.627C125.403 110.582 110.613 124.411 109.294 134.971C109 136.95 109.502 138.966 110.691 140.575Z" fill="#FDFE1F"/>
<path d="M142.822 122.172C142.265 121.059 141.454 120.092 140.453 119.351C138.1 117.227 135.091 114.468 131.904 114.21C122.917 113.001 113.042 122.612 109.734 131.324C108.728 133.716 108.557 136.378 109.251 138.878C110.859 142.412 116.358 146.966 119.11 147.855C120.561 148.348 123.037 148.184 124.66 147.814C136.399 144.896 145.742 128.909 142.822 122.172ZM141.572 127.856C139.967 127.2 140.244 127.15 139.022 126.002C139.83 123.135 139.641 121.44 139.225 120.092C140.983 121.706 142.769 122.756 141.572 127.856ZM110.437 138.445C107.755 128.887 121.391 113.93 131.749 115.479C133.968 115.689 136.162 117.381 137.853 118.859C142.758 127.379 125.233 147.267 114.58 143.323C112.884 141.993 111.475 140.334 110.437 138.445ZM116.067 144.507C117.922 144.877 119.841 144.772 121.644 144.2C122.825 145.045 123.218 144.79 124.459 146.395C120.257 147.502 118.251 146.109 116.067 144.507ZM125.538 146.069C123.989 145.042 124.096 145.409 122.776 143.785C124.783 142.904 126.663 141.761 128.368 140.385C129.524 141.161 129.681 140.555 131.636 142.581C129.824 144.092 127.759 145.273 125.538 146.069ZM132.451 141.904C130.127 140.775 130.973 141.283 129.274 139.644C131.221 137.987 132.996 136.138 134.574 134.125C136.305 135.069 135.964 134.342 137.755 136.077C136.229 138.226 134.448 140.183 132.452 141.904H132.451ZM138.288 135.298C136.016 134.371 136.614 134.281 135.269 133.203C136.682 131.311 137.83 129.234 138.681 127.031C139.723 127.348 140.643 127.979 141.315 128.836C140.632 131.129 139.612 133.307 138.287 135.298H138.288Z" fill="black"/>
<path d="M114.411 140.692C123.177 146.346 141.514 126.122 135.261 119.173C131.244 114.607 122.831 118.77 118.701 123.118C117.342 124.55 119.074 123 120.484 121.95C128.904 115.751 135.434 117.406 135.53 122.397C135.734 130.452 124.558 140.891 117.66 140.779C111.534 140.735 110.994 133.336 116.354 126.037C117.434 124.611 118.979 122.929 117.537 124.265C112.669 128.765 109.416 137.432 114.411 140.692Z" fill="black"/>
<path d="M120.403 131.036C118.345 128.914 118.551 129.05 118.453 129.143C115.765 131.744 115.927 131.561 115.898 131.647C115.367 133.19 115.206 133.462 115.283 133.538C119.379 137.774 119.025 137.465 119.124 137.434C121.111 136.82 120.973 136.887 121.059 136.805C126.503 131.546 126.19 131.876 126.223 131.78C126.782 130.147 126.905 129.966 126.83 129.889C124.096 127.066 124.295 127.338 124.397 127.242C126.701 125.025 126.888 124.745 126.961 124.822C128.312 126.235 128.239 126.09 128.153 126.172C126.889 127.388 126.889 127.355 126.939 127.406C129.003 129.533 128.789 129.391 128.89 129.294C131.584 126.688 131.414 126.881 131.447 126.784C132.099 124.883 132.108 124.953 132.049 124.89C128.723 121.464 128.309 120.903 128.239 120.98C127.623 121.236 126.987 121.438 126.335 121.582C126.229 121.615 126.553 121.332 121.179 126.516C121.087 126.604 121.158 126.474 120.479 128.426C120.443 128.524 120.256 128.292 122.954 131.077C123.031 131.154 122.91 131.181 120.446 133.564C120.355 133.652 120.49 133.717 119.161 132.353C119.06 132.253 120.501 131.138 120.403 131.036Z" fill="black"/>
<path d="M16.242 56.9557C19.3213 58.9243 24.1096 61.0803 27.0844 61.0872C27.6953 61.0616 28.3007 60.961 28.8871 60.7877C40.9761 57.6201 47.6062 34.7079 41.2357 28.8758C40.4281 28.193 39.497 27.6715 38.4928 27.3397C35.26 25.9164 32.0409 24.4424 28.7857 25.1122C15.5984 27.8143 8.61261 52.0768 16.242 56.9557Z" fill="#FDFE1F"/>
<path d="M40.3002 27.685C39.7687 27.4054 35.0219 25.1656 32.1585 24.6602C19.4512 22.3168 8.39836 46.4924 14.1414 55.2609C16.1292 58.2964 21.6287 60.5055 25.2019 61.2828C39.2011 64.3782 50.0788 32.8634 40.3002 27.685ZM42.4939 34.8497C40.7127 34.7261 40.9669 34.5855 39.4169 33.8666C39.1588 28.0675 36.5696 27.5406 38.0943 28.2265C39.9139 29.0606 42.0238 29.5814 42.4939 34.8497ZM16.3596 55.9315C11.8916 52.1832 13.2473 38.515 21.5319 30.2258C23.5336 28.1084 26.1167 26.6301 28.9563 25.9767C31.1837 25.466 33.859 26.4053 35.9782 27.2956C43.4839 33.9964 32.862 58.9839 21.2155 58.5753C19.4969 57.8911 17.8666 57.0033 16.3596 55.9307V55.9315ZM23.0466 59.2489C24.9701 59.0131 26.8023 58.2932 28.3718 57.1566C29.7251 57.5752 30.1146 57.2403 31.8151 58.3855C28.0768 60.8073 25.7142 60.1137 23.0489 59.2489H23.0466ZM32.7591 57.7204C30.9249 57.2211 31.1315 57.5345 29.3396 56.3877C31.0072 54.886 32.4674 53.1688 33.6816 51.2815C35.0165 51.6548 34.9965 51.0149 37.5673 52.3645C36.2929 54.4186 34.666 56.2317 32.7614 57.7204H32.7591ZM38.1419 51.4451C35.5019 51.0941 36.3607 51.2469 34.326 50.2699C35.6861 48.0316 36.8184 45.6624 37.7056 43.1981C39.2902 43.4846 39.175 42.9815 41.427 44.0722C40.6344 46.6533 39.5321 49.129 38.1442 51.4451H38.1419ZM41.6905 43.1436C41.1605 43.1229 40.633 43.0608 40.1128 42.9577C39.3939 42.7534 38.5766 42.2603 38.0812 42.0774C38.8456 39.7825 39.2934 37.394 39.4123 34.978C40.5278 34.9515 41.6245 35.2679 42.5546 35.8843C42.6297 38.3332 42.3392 40.7796 41.6928 43.1428H41.6905V43.1436Z" fill="black"/>
<path d="M18.678 55.3741C19.4101 55.838 20.2377 56.1301 21.0987 56.2285C21.9598 56.327 22.832 56.2292 23.6498 55.9424C34.5867 52.6289 42.2015 27.4893 30.3983 27.6898C23.5354 27.8542 18.1396 38.1543 18.4552 38.314C18.6857 38.4354 20.599 33.8929 25.5263 30.2368C28.4696 28.0723 31.4828 28.1384 33.135 29.1461C35.5383 30.5663 35.7465 35.214 35.2204 38.1496C34.2224 42.985 32.0201 47.4902 28.8175 51.2479C21.1082 60.0341 13.2 54.086 17.3876 41.1928C17.9913 39.4224 18.456 38.4853 18.3861 38.4507C17.8392 38.1735 12.2207 51.0259 18.678 55.3733V55.3741Z" fill="black"/>
<path d="M28.0201 32.6477C27.6207 32.5017 27.2128 32.3819 26.7973 32.2913C25.9946 33.8828 24.7381 37.5803 23.3839 40.3101C23.3324 40.3869 19.8845 46.6354 19.3384 48.1354C20.4283 48.5448 20.2355 48.4542 20.3945 48.5886C19.5227 50.1532 20.0358 52.1602 21.191 49.2031C21.5982 49.4968 22.0379 49.7427 22.5014 49.9358C21.1826 52.7102 22.741 52.1956 23.4515 50.2154C27.8588 51.0165 29.1354 44.5216 27.5132 41.5721C31.1232 41.4953 32.6263 37.4398 30.6201 34.7899C31.4312 33.6377 31.2753 32.4241 30.9826 32.3934C30.6754 32.3527 30.2637 33.3251 29.9227 34.0479C28.7421 32.9649 28.7828 33.3366 28.9687 32.9787C29.9895 31.0139 29.0463 30.5577 28.0201 32.6477ZM21.751 47.1761C22.3698 45.0397 23.1385 42.9497 24.0514 40.9215C24.9942 41.2839 25.8206 41.8962 26.4417 42.6927C28.3911 45.8304 26.2589 51.8822 21.751 47.1761ZM30.405 36.803C30.5748 37.2016 30.6338 37.6386 30.5758 38.0679C30.5179 38.4972 30.345 38.9029 30.0756 39.2421C29.8061 39.5814 29.4501 39.8415 29.045 39.9952C28.64 40.1488 28.201 40.1902 27.7743 40.115C26.8305 39.8979 25.9293 39.5254 25.1075 39.0128L25.0176 39.1895C24.9408 39.1419 27.0262 35.8375 27.7459 34.647C28.9042 35.1632 29.9618 35.6762 30.405 36.803Z" fill="black"/>
<path d="M19.942 81.269C18.5594 81.968 14.3894 84.674 13.49 85.9152C8.85073 92.3065 18.8943 112.679 31.0992 113.351C31.6783 113.401 32.2614 113.379 32.8351 113.286C35.4881 112.735 41.4999 108.867 42.9416 106.289C47.8705 97.478 32.607 74.8547 19.942 81.269Z" fill="#FDFE1F"/>
<path d="M24.3895 79.6008C21.2726 79.4833 18.0359 81.8091 15.502 83.6026C14.4444 84.204 13.5452 85.0487 12.8789 86.0666C9.87647 91.2243 14.505 105.002 24.2928 111.394C29.6648 114.805 34.301 115.117 41.458 108.655C42.3111 107.969 43.0137 107.115 43.5219 106.145C47.3562 96.6448 35.311 79.4288 24.3895 79.6008ZM16.6088 84.4636C15.8811 86.2937 15.7124 88.2984 16.1241 90.2243C14.8283 91.1821 15.0649 91.282 13.4358 91.7305C12.8674 86.7011 14.6701 85.8646 16.6088 84.4636ZM13.5741 92.7083C14.327 91.9557 15.2917 91.4509 16.3392 91.2612C16.9111 93.4959 17.7848 95.6422 18.9361 97.641C17.5305 98.5197 18.0551 98.6986 15.7669 99.3262C14.7114 97.2413 13.9724 95.0109 13.5741 92.7083ZM16.1909 100.143C18.1281 98.6687 17.9744 99.2278 19.5022 98.6164C20.8005 100.751 22.3099 102.75 24.0078 104.582C21.9754 106.126 22.659 105.718 20.6658 106.408C18.9264 104.508 17.4238 102.403 16.1909 100.141V100.143ZM21.3778 107.158C23.5323 105.404 23.6268 106.006 24.802 105.404C26.2969 106.936 27.989 108.262 29.8338 109.347C28.3744 110.764 28.528 110.417 26.892 111.245C24.8284 110.216 22.9619 108.832 21.3778 107.156V107.158ZM27.9005 111.69C29.2884 110.273 29.634 110.569 30.8853 109.884C32.5697 110.646 34.4185 110.97 36.2619 110.824C33.9215 112.141 31.82 113.246 27.9005 111.685V111.69ZM42.889 104.329C42.3083 106.638 40.0079 108.39 37.8434 109.845C35.7667 110.324 33.5923 110.139 31.6257 109.318C23.7912 105.943 12.9411 90.3211 18.0835 83.4282C22.278 80.5671 24.2083 80.5095 27.1946 81.1908C37.0123 83.6817 44.7455 96.9497 42.889 104.324V104.329Z" fill="black"/>
<path d="M38.4038 92.6823C37.9007 91.8917 37.3133 91.158 36.6518 90.494C36.456 90.6477 39.8924 94.3629 40.6175 99.8801C41.4624 106.829 36.0128 109.507 29.3427 104.442C25.6335 101.541 22.7168 97.7511 20.863 93.4228C19.8153 90.7898 19.1202 86.3947 21.0934 84.6105C22.4468 83.3523 25.2411 82.7148 28.4125 84.1796C34.0549 86.8149 36.3054 90.5901 36.5612 90.3788C36.8024 90.1891 29.9141 81.5566 23.3739 82.7271C12.2819 84.801 24.2395 106.835 35.0673 107.844C40.9862 108.437 44.067 101.428 38.4038 92.6823Z" fill="black"/>
<path d="M29.306 96.2414C29.7057 96.2326 30.0982 96.1332 30.4539 95.9508C30.8097 95.7684 31.1195 95.5077 31.3599 95.1883C31.9393 94.176 32.2453 93.0304 32.2478 91.864C32.2478 91.5637 32.2916 91.662 32.0642 91.4746C28.8045 88.7863 29.4727 89.1634 24.146 85.8361C24.2349 87.8917 24.5439 89.9319 25.0677 91.9216C26.5202 97.3989 25.4133 96.6147 29.306 96.2414ZM27.0018 95.5032C25.6837 90.4285 25.4832 89.2671 25.312 87.7594C27.4224 89.0059 29.4036 90.4594 31.2263 92.0983C31.1932 92.9882 30.9477 93.8573 30.5104 94.633C30.3474 94.8195 30.1468 94.9696 29.9218 95.0732C29.6967 95.1768 29.4524 95.2318 29.2046 95.2344C28.4772 95.3766 27.7405 95.4662 27.0002 95.5025L27.0018 95.5032Z" fill="black"/>
<path d="M29.6565 99.9951C30.8593 100.756 35.1276 103.357 36.4034 103.357C36.5923 103.357 36.6338 103.303 36.888 103.163C37.2291 100.302 35.9264 98.7777 33.3625 92.603C32.9492 93.3479 32.6697 94.1595 32.5368 95.001C32.0214 97.7439 31.3347 97.0987 26.7446 97.6402C27.5633 98.5964 28.5502 99.3945 29.6565 99.9951ZM29.2017 98.4167C30.2392 98.4203 31.2651 98.198 32.2081 97.7654C33.9885 96.7914 32.9884 93.9249 33.9831 96.3628C35.169 99.2524 35.9225 100.81 35.9417 102.249C33.9217 101.464 28.8676 98.4359 29.2017 98.4167Z" fill="black"/>
<path d="M23.7716 25.0104C19.4465 28.0283 23.5934 25.1287 27.016 28.3286C27.6819 28.9507 28.6989 31.2082 29.0898 31.0591C29.1766 31.0261 29.1805 30.9055 29.1712 30.8157C29.051 29.4308 29.3005 28.0388 29.8942 26.7819C30.488 25.5251 31.4048 24.4483 32.5508 23.6617C33.0801 23.3083 32.8834 22.955 32.2713 22.9343C31.1009 22.9286 29.9439 22.6845 28.8709 22.2169C27.8724 21.6255 26.2948 19.59 25.6035 18.5162C25.648 21.2353 25.2194 24.0941 22.9651 25.6119L23.7716 25.0104Z" fill="white"/>
<path d="M33.5774 23.0479C33.6112 22.5294 30.1448 22.9327 28.3091 21.4165C26.1646 19.6499 25.4817 16.7265 25.0977 16.854C24.4701 16.9984 26.2944 21.9872 23.2343 24.9873C22.1252 26.0749 20.8739 26.5519 20.9592 26.7747C21.0552 27.3254 25.3312 25.8291 27.9527 30.2518C28.7208 31.5337 29.1701 32.7097 29.3775 32.6874C29.8691 32.6874 28.634 28.0558 31.4974 24.8613C32.5858 23.667 33.6504 23.2576 33.5774 23.0479ZM30.9713 24.3867C29.5774 26.0711 28.8195 28.1915 28.8298 30.3778C28.2886 29.1857 27.4213 28.171 26.328 27.4507C25.2348 26.7304 23.9602 26.3339 22.6513 26.3069C24.2797 25.4528 25.8289 23.2606 25.8005 19.8019C25.7951 19.2881 25.7275 19.318 25.9318 19.6744C26.386 20.5865 27.0502 21.3777 27.8698 21.983C28.6894 22.5883 29.641 22.9904 30.6464 23.1562C33.4115 23.6017 32.5528 22.6439 30.9713 24.3867Z" fill="black"/>
<path d="M25.1195 77.3543C24.1617 80.6678 22.3052 80.3844 22.7315 81.0143C23.9743 80.9038 25.2233 81.1414 26.3387 81.7006C27.4541 82.2598 28.3917 83.1184 29.0468 84.1803C29.195 84.4292 29.377 84.718 29.6658 84.7341C29.0806 78.4281 32.2274 78.0233 32.4602 76.8735C27.0305 76.8835 27.4514 75.2536 25.191 73.0945C25.0688 74.2044 25.9537 74.4671 25.1195 77.3543Z" fill="white"/>
<path d="M33.0992 76.8174C33.0899 76.3427 29.9308 76.9887 28.1104 75.7328C25.9805 74.2666 25.1302 71.6351 24.7854 71.7826C24.22 71.9654 26.3369 76.4633 23.7162 79.4312C22.7945 80.5365 21.6646 81.0619 21.7606 81.2608C21.8935 81.7623 25.717 80.0395 28.4875 83.9092C29.3086 85.0398 29.8271 86.1159 30.0045 86.0398C30.4139 85.9031 28.9745 81.7846 31.3264 78.6562C32.2335 77.468 33.1806 77.0048 33.0992 76.8174ZM30.7995 78.2599C29.6488 79.9244 29.1193 81.9401 29.3033 83.9552C28.7897 83.0758 28.0824 82.325 27.2352 81.76C26.3879 81.195 25.4229 80.8307 24.4136 80.6947C22.7845 80.5073 23.1163 81.1486 24.2101 79.8598C24.8164 79.1081 25.2593 78.2382 25.5106 77.3057C25.7619 76.3732 25.816 75.3986 25.6694 74.444C25.6226 73.9708 25.5634 74.0031 25.78 74.3157C26.2712 75.1199 26.946 75.7962 27.7491 76.2892C28.5522 76.7821 29.4607 77.0776 30.4001 77.1515C33.0031 77.3405 32.1221 76.5263 30.7995 78.2599Z" fill="black"/>
<path d="M69.5739 119.207C67.0077 117.978 64.8747 118.913 62.6204 120.156C56.7783 123.376 61.9798 132.592 67.156 136.652C72.3022 140.685 77.3892 136.178 77.1066 131.003C76.8531 126.351 72.2983 120.513 69.5739 119.207Z" fill="#FDFE1F"/>
<path d="M77.7356 130.409C76.896 126.185 72.6109 118.85 67.5515 117.948C64.7203 117.677 57.5617 120.295 59.8998 127.626C62.1925 134.639 70.0385 142.265 75.2838 136.881C77.7548 134.479 78.1626 132.797 77.7356 130.409ZM76.449 132.746C75.5573 133.975 73.2868 133.153 71.9718 132.407C68.6406 130.534 63.1895 122.115 66.2457 119.825C69.6315 117.31 77.7025 127.616 76.449 132.746ZM65.1758 119.783C64.3247 120.858 64.4238 122.588 64.7418 123.924C63.171 125.307 63.3277 125.625 61.2086 126.352C60.4267 122.894 61.9529 121.094 65.1758 119.783ZM61.4943 127.341C63.6611 125.634 62.8646 126.275 65.1205 125.149C65.7013 126.576 66.4695 127.919 67.4048 129.143C65.9154 130.538 66.6528 130.513 63.9637 131.908C62.936 130.506 62.1051 128.969 61.4943 127.341ZM64.6266 132.789C66.7204 130.477 66.2826 131.338 68.1721 130.156C69.0244 131.312 70.0763 132.308 71.2782 133.095C70.9357 133.67 70.5506 134.218 70.1261 134.734C70.1261 134.862 68.4724 135.934 68.2281 136.164C66.8507 135.245 65.6339 134.104 64.6266 132.789ZM74.2799 135.828C73.676 136.498 72.8699 136.952 71.9842 137.122C71.0984 137.292 70.1814 137.168 69.3726 136.769C69.7206 136.196 70.1069 135.648 70.5286 135.127C71.1131 134.545 72.0832 134.032 72.4427 133.679C73.478 134.187 74.6479 134.354 75.7839 134.154C75.3455 134.766 74.8411 135.327 74.2799 135.828Z" fill="black"/>
</svg>
