<svg width="154" height="155" viewBox="0 0 154 155" fill="none" xmlns="http://www.w3.org/2000/svg">
<path d="M37.2021 73.804C37.9702 52.1439 56.2031 35.4187 78.649 36.1991C87.3492 36.535 95.6999 39.7067 102.43 45.2307C109.159 50.7545 113.897 58.3276 115.923 66.7952C120.786 87.8639 108.332 111.107 83.0487 115.617C73.2809 117.359 62.3755 114.319 54.9995 109.407C44.1894 102.209 36.6414 89.5775 37.2021 73.804ZM110.487 56.8377C107.707 52.0813 103.953 47.9658 99.472 44.761C75.5629 28.4575 46.2894 41.8422 39.9058 65.4287C33.9708 87.3546 47.6919 110.417 71.1171 114.225C101.362 119.142 126.972 87.4775 110.487 56.8377Z" fill="#D9B343"/>
<path d="M84.7215 107.543C81.7551 108.233 78.7235 108.6 75.6779 108.639C62.9706 107.904 53.4363 101.474 47.9291 91.7653C42.9166 82.9284 42.7537 71.9263 47.7893 61.7699C60.0534 37.0251 96.9257 37.658 106.962 65.6618C112.642 81.5105 105.203 101.561 84.7215 107.543ZM104.538 63.207C101.714 56.99 96.9257 51.8728 90.91 48.6417C87.1202 46.6999 82.9848 45.5239 78.7404 45.1806C70.2145 44.8181 63.4684 46.8966 56.7238 52.4852C51.1416 57.1186 47.3631 63.5646 46.0473 70.6989C44.6114 77.9766 45.8668 85.5276 49.5803 91.9489C53.2938 98.3701 59.2127 103.224 66.2366 105.609C91.844 114.519 116.272 89.0056 104.54 63.207H104.538Z" fill="#D9B343"/>
<path d="M77.4649 48.3765C84.0075 56.5282 92.733 74.4746 93.147 75.2235C93.6563 76.1452 94.0895 76.1522 87.454 79.8121C87.4317 79.8244 77.7691 85.1972 77.1032 85.4376C75.4902 86.0183 60.4633 75.3925 60.4464 75.3802C59.454 74.6682 59.858 74.0845 60.2497 73.3955C60.5001 72.9561 60.8527 72.3601 61.2951 71.5075C65.5033 63.2469 70.6208 55.4821 76.5524 48.3573C77.0171 47.8388 77.3136 48.1875 77.4649 48.3765ZM76.6884 49.9703C76.6884 49.7544 76.6546 49.4718 76.5025 49.6254C74.7643 51.3759 60.4041 73.894 61.4142 73.6274C62.7967 73.2657 71.0422 69.3899 76.2744 68.207C76.3888 68.1809 76.458 68.1018 76.4941 67.886C76.5302 67.6701 76.5263 51.9558 76.6884 49.9703ZM77.2837 67.6517C77.256 68.1433 77.5356 68.2969 77.975 68.462C89.0101 72.6312 91.9957 74.9255 91.6654 74.2435C90.3957 71.6189 77.3444 49.2751 77.395 49.895C77.4342 50.3758 77.3889 67.6724 77.2837 67.6517ZM76.4457 69.5059C76.4457 68.6126 76.8105 68.6318 61.9541 74.4401C60.3342 75.073 60.5716 73.9792 71.874 81.6601C76.501 84.8039 76.4334 84.605 76.3935 83.7885C76.2667 81.1732 76.4457 72.7096 76.4457 69.5059ZM77.2337 83.8853C77.2261 84.2632 77.2614 84.5366 77.8413 84.1749C90.4557 76.305 93.0226 76.0101 92.3152 75.6544C89.315 74.1459 79.942 70.0382 77.743 69.244C77.4173 69.1264 77.3275 69.2562 77.3182 69.4352C77.309 69.6142 77.2529 83.012 77.2337 83.8853Z" fill="#D9B343"/>
<path d="M60.0118 77.8608C60.9243 78.3785 70.04 84.9165 75.4558 88.1924C76.8184 89.0173 74.425 89.6257 92.1894 79.2618C92.6418 78.9976 92.992 79.2995 92.8707 79.6497C92.7777 79.9186 85.8258 92.6066 78.9951 100.253C77.3683 102.075 76.5672 103.825 75.9996 103.172C71.0875 96.8334 66.5301 90.2279 62.3483 83.3857C60.6885 80.52 61.74 82.2336 59.7368 78.867C59.3128 78.155 59.5878 77.8194 60.0118 77.8608ZM76.727 101.464C77.389 101.009 83.9286 92.4131 91.1909 81.1713C91.9152 80.0499 90.8299 81.2182 81.5437 86.7123C77.2423 89.2578 76.8921 89.1986 76.7876 89.6311C76.7623 89.8116 76.6356 101.298 76.727 101.464ZM75.5195 89.2516C75.2292 89.0289 74.7445 88.767 74.001 88.3299C67.8332 84.6892 61.5188 79.619 61.2922 79.7957C61.1939 79.8725 69.4278 92.1535 70.2389 93.3448C76.8836 103.109 75.9059 102.485 75.8383 99.8129C75.7776 97.3972 75.7546 92.7126 75.8214 90.7817C75.8381 90.416 75.8307 90.0489 75.7991 89.6841C75.7901 89.5965 75.7609 89.512 75.7139 89.4367C75.6669 89.3622 75.6032 89.2992 75.528 89.2532L75.5195 89.2516Z" fill="#D9B343"/>
<path d="M143.378 11.7071C143.367 11.2262 142.445 11.3622 142.226 11.3622C141.527 11.3835 140.827 11.3656 140.13 11.3084C139.914 11.2762 139.774 11.3775 139.701 10.972C139.627 10.5664 139.688 6.61462 139.569 4.9348C139.528 4.36488 138.34 4.26196 138.165 4.86721C138.051 5.83116 138.165 10.4689 138.204 10.9536C138.222 11.184 138.127 11.2247 137.892 11.25C137.385 11.3069 135.683 11.4037 135.337 11.3798C135.268 11.376 134.623 11.4259 134.578 11.9106C134.323 14.8539 134.194 28.9875 134.06 35.1883C134.056 35.4142 133.935 35.501 133.716 35.4902C133.047 35.5142 132.377 35.5021 131.709 35.4541C131.672 35.4551 131.636 35.4485 131.603 35.4347C131.569 35.4209 131.538 35.4002 131.513 35.3739C131.487 35.3476 131.467 35.3163 131.455 35.282C131.442 35.2476 131.437 35.211 131.439 35.1745C131.439 32.5323 131.616 32 131.036 31.9109C130.198 31.7573 130.026 31.9324 130.026 32.692C130.038 33.4647 129.991 34.3673 130.003 35.0854C130.074 35.4456 129.879 35.418 129.486 35.4003C128.665 35.3671 127.842 35.3815 127.022 35.4433C126.769 35.4902 126.677 35.8013 126.648 36.1615C126.615 36.584 126.394 44.9077 126.384 47.0023C126.486 47.411 126.139 47.4993 125.757 47.4924C125.376 47.4855 124.277 47.4494 123.996 47.4156C123.535 47.3618 123.66 47.7082 123.701 44.6727C123.708 44.1788 123.753 43.9622 123.624 43.8102C123.452 43.7118 123.26 43.6538 123.061 43.6406C122.863 43.6273 122.665 43.659 122.481 43.7333C122.27 43.824 122.382 43.9922 122.331 46.6283C122.317 47.3687 122.262 47.3787 121.941 47.3687C119.802 47.298 119.345 47.1045 119.129 48.2536C119.022 48.8173 118.6 60.046 118.514 63.547C118.474 65.1392 118.768 65.0916 119.496 65.1185C120.224 65.1454 121.113 65.1669 122.051 65.2621C122.305 65.3105 122.187 65.5694 122.187 66.7607C122.197 69.8407 121.908 69.9413 122.787 69.9936C123.483 70.0335 123.478 69.8077 123.5 69.578C123.59 68.5933 123.641 66.849 123.705 65.7015C123.73 65.3067 123.602 65.3174 125.43 65.4073C126.559 65.4618 126.532 65.4618 126.614 64.1407C126.859 60.119 127.305 49.5386 127.305 48.9694C127.305 48.4003 127.365 48.3089 127.711 48.3741C128.297 48.3603 129.394 48.4241 130.062 48.4763C130.062 49.3581 129.858 51.3881 130.072 52.0264C130.11 52.1524 130.379 52.1731 130.628 52.1992C131.451 52.286 131.305 52.3913 131.459 48.676C131.473 48.3419 131.973 48.4609 133.163 48.4609C133.574 48.4609 134.153 48.5539 134.372 48.4087C134.443 48.3529 134.5 48.2807 134.537 48.1982C134.575 48.1157 134.592 48.0253 134.587 47.9348C134.635 47.0584 134.919 45.1758 134.919 37.4473C134.919 36.2952 134.875 36.2614 135.269 36.2913C137.663 36.4895 138.087 36.117 138.071 36.7414C138.044 38.0817 137.972 41.2601 138.217 41.8638C138.311 42.1073 139.029 41.9552 139.237 41.9675C139.614 41.9875 139.391 36.6984 139.41 36.5463C139.453 36.15 139.766 36.2929 141.894 36.2775C143.118 36.269 143.036 36.0601 143.078 35.4149C143.112 34.8243 143.54 18.5285 143.378 11.7071Z" fill="#D9B343"/>
<path d="M37.1107 97.5294C36.9486 94.1275 37.8212 94.8864 34.3709 94.5968C33.7841 94.5484 33.7841 94.3787 33.7841 94.1682C33.7641 93.5084 33.8209 91.122 33.8071 90.4046C33.8033 90.1488 33.5944 90.0973 32.9891 90.0728C32.178 90.1749 32.5375 89.7924 32.3746 93.6559C32.3662 93.8471 32.3608 94.0077 32.3524 94.1344C32.3385 94.338 32.3316 94.4324 31.6726 94.4225C30.8928 94.3871 30.1114 94.4032 29.3338 94.4716C28.9559 94.5599 28.919 94.8848 28.9021 95.1176C28.3299 108.459 28.9697 111.073 28.4535 111.33C27.5851 111.375 26.7144 111.347 25.8505 111.249C25.5432 111.286 25.6969 110.906 25.8313 107C25.8451 106.562 24.6999 106.534 24.5255 106.869C24.3442 107.538 24.3911 110.651 24.3442 110.951C24.3151 111.131 24.2636 111.249 24.1215 111.211C21.5945 111.211 20.7189 110.94 20.5883 111.879C20.4953 112.583 20.4016 119.011 20.4278 119.257C20.4677 119.571 20.3333 119.773 20.0829 119.69C19.4698 119.592 18.8503 119.539 18.2295 119.531C17.2947 119.347 16.9898 119.633 16.9898 119.175C17.0575 117.711 17.0318 116.245 16.913 114.784C16.7678 114.394 15.7877 114.453 15.7486 114.707C15.6328 116.136 15.6138 117.57 15.6917 119.001C15.6917 119.154 15.7055 119.392 15.4843 119.392C14.515 119.365 13.2569 119.339 12.8275 119.365C11.7076 119.447 12.0087 121.438 11.7337 128.097C11.3128 138.197 11.5271 143.205 11.5801 143.801C11.6109 144.109 11.6569 144.381 12.3713 144.553C12.6094 144.618 15.068 144.726 15.3922 144.726C15.81 144.739 15.737 144.935 15.737 145.255C15.737 145.374 15.6426 148.599 15.6602 149.431C15.9099 150.77 17.1903 150.861 17.1903 149.336C17.1903 148.161 17.2847 145.935 17.2671 145.152C17.2494 144.37 18.9077 145.033 20.44 144.623C20.5105 144.606 20.5737 144.566 20.6209 144.511C20.6679 144.456 20.6966 144.387 20.7027 144.315C20.7619 143.901 21.371 129.431 21.1367 120.95C21.1306 120.72 21.2803 120.66 21.5031 120.67C24.0516 120.789 23.8412 120.547 23.8196 121.327C23.8004 122.051 23.7144 123.574 23.7697 124.161C23.8719 124.385 24.2029 124.435 24.491 124.446C24.8166 124.46 25.0977 124.409 25.1461 124.162C25.2998 123.367 25.236 121.68 25.2859 121.274C25.3359 120.869 25.2014 120.75 25.6316 120.777C26.0617 120.805 28.2999 120.888 28.5634 120.854C28.8591 120.822 29.0811 120.682 29.0811 120.442C29.0649 119.612 29.3522 112.796 29.3522 112.715C29.356 112.644 29.3877 112.577 29.4405 112.53C29.4931 112.483 29.5625 112.458 29.6333 112.462C29.8177 112.446 31.847 112.503 31.9898 112.529C32.3216 112.585 32.3646 112.667 32.3508 113.012C32.2798 114.124 32.301 115.24 32.4146 116.348C32.4476 116.55 33.5321 116.614 33.622 116.348C33.7048 115.245 33.713 114.137 33.6466 113.033C33.6374 112.701 33.662 112.519 33.834 112.529C34.1297 112.546 35.5683 112.481 35.8441 112.456C36.5699 112.394 36.6752 112.303 36.7428 110.903C36.7965 109.89 37.1829 99.0248 37.1107 97.5294Z" fill="#D9B343"/>
<path d="M101.561 36.8137C101.27 36.8137 101.177 36.7115 101.23 36.4926C101.973 33.2705 113.338 15.6843 114.302 15.3924C114.647 15.2879 114.929 15.5322 114.532 16.1897C114.524 16.2096 101.949 36.6155 101.561 36.8137Z" fill="#D9B343"/>
<path d="M113.79 109.576C119.896 114.849 127.623 126.013 128.066 126.858C128.209 127.131 128.066 127.479 127.759 127.333C127.181 127.051 120.646 118.072 113.031 110.193C112.735 109.886 112.701 109.882 112.813 109.663C112.975 109.342 113.379 109.22 113.79 109.576Z" fill="#D9B343"/>
<path d="M72.6499 29.154C72.6499 29.3168 72.7359 29.9582 72.2613 29.7531C71.1391 29.2676 69.672 13.5855 70.0568 6.65968C70.0814 6.21342 70.4132 6.14121 70.5945 6.39084C70.9885 6.94233 70.4224 7.19811 72.6499 29.154Z" fill="#D9B343"/>
<path d="M40.2799 45.3535C37.6215 44.1323 24.8412 27.8902 25.7384 27.2773C26.372 26.8464 31.3016 34.6425 39.9573 43.8473C40.965 44.9226 40.9658 44.8412 40.796 45.1047C40.7371 45.1855 40.6591 45.2505 40.5691 45.2939C40.4791 45.3373 40.3797 45.3578 40.2799 45.3535Z" fill="#D9B343"/>
<path d="M51.6672 117.051C52.1281 116.293 52.6542 114.932 53.1612 115.301C54.0014 115.915 47.6025 125.762 47.0525 126.636C42.7797 133.412 41.149 136.136 40.6574 135.863C40.1658 135.591 39.9876 136.17 51.6672 117.051Z" fill="#D9B343"/>
<path d="M143.488 84.1727C143.568 84.2096 143.633 84.271 143.675 84.3471C143.717 84.4231 143.734 84.5107 143.723 84.5975C143.677 84.9984 143.346 84.9316 143.102 84.8817C136.245 83.4784 122.287 82.178 122.228 82.168C121.801 82.0912 121.639 81.6088 122.066 81.5489C126.1 80.9767 141.259 83.125 143.488 84.1727Z" fill="#D9B343"/>
<path d="M83.3912 145.113C82.0908 145.595 82.6231 136.636 80.6676 122.273C80.5523 121.429 81.1691 121.498 81.3473 122.037C82.4864 125.486 83.8851 144.93 83.3912 145.113Z" fill="#D9B343"/>
<path d="M10.8193 69.4207C13.9108 69.7072 28.5499 71.1335 31.3657 72.526C31.7113 72.6973 31.6937 73.2888 31.2366 73.2849C30.8464 73.2849 31.0193 73.0737 24.247 72.0083C10.3446 69.8208 9.9567 70.4161 10.0281 69.8815C10.0827 69.4721 10.2916 69.5036 10.8193 69.4207Z" fill="#D9B343"/>
</svg>
