<svg width="155" height="155" viewBox="0 0 155 155" fill="none" xmlns="http://www.w3.org/2000/svg">
<path d="M127.882 24.4473C127.76 22.7114 127.598 18.6175 127.882 17.5345C127.907 17.4126 127.974 17.3033 128.071 17.226C128.169 17.1487 128.29 17.1083 128.415 17.1121C128.497 17.1136 128.578 17.1351 128.651 17.1735C129.419 17.642 129.419 18.9094 129.557 19.9617C130.087 24.455 129.641 25.0541 130.325 24.6624C131.347 24.1017 133.751 22.5271 135.202 22.2122C136.324 21.9664 136.086 22.9803 135.794 23.3489C134.772 24.6086 131.654 26.1678 132.138 26.2907C133.075 26.6364 135.794 27.8269 136.201 28.0727C137.153 28.6949 137.138 29.6089 135.778 29.509C133.935 29.3554 130.855 27.9728 130.294 27.9728C129.734 27.9728 129.941 28.4414 129.995 29.8163C130.125 33.5031 130.148 35.4233 129.741 35.8535C128.359 37.3051 128.074 28.8946 128.059 28.8177C128.013 28.595 124.342 31.122 123.927 31.3755C122.967 31.9976 121.968 31.0145 123.082 29.8393C124.1 28.9097 125.195 28.067 126.354 27.32C127.26 26.6825 127.122 26.7439 126.554 26.5058C125.601 26.1217 123.09 25.4381 122.659 24.9696C122.229 24.5011 122.659 23.7714 123.351 23.7944C126.131 23.8866 127.921 24.9466 127.882 24.4473Z" fill="#D9B343"/>
<path d="M25.073 36.3295C25.6798 42.889 23.4907 38.9717 23.1528 36.3295C22.8378 36.3756 22.9915 36.7135 19.896 38.8565C18.6287 39.7321 17.9374 39.0716 18.2216 38.434C18.8054 37.136 19.7578 36.6444 21.294 35.1543C20.3206 34.7687 19.3255 34.4404 18.3138 34.1711C17.6379 33.9638 16.6317 33.6412 16.5779 33.1189C16.4396 31.8899 17.8299 31.9283 19.0896 32.1818C21.1557 32.5966 22.8225 33.8255 22.6996 32.5274C22.546 30.7762 22.1235 25.7606 22.4845 25.2459C23.9516 23.1491 24.52 29.4935 24.7197 31.8361C24.7657 32.3738 30.6724 26.3597 31.8629 27.8037C32.1624 28.1647 25.457 34.1711 25.7182 34.2787C33.6525 37.5738 24.9962 36.3295 25.073 36.3295Z" fill="#D9B343"/>
<path d="M131.615 84.1277C131.615 88.3522 130.678 89.6119 131.723 88.9129C132.768 88.2139 134.795 86.6086 136.616 86.6086C139.143 86.6086 134.596 88.9129 132.629 90.2955C133.397 90.8024 138.536 92.4999 137.507 93.4523C136.477 94.4047 132.998 92.9761 131.178 92.231C130.909 92.1235 130.771 92.1082 130.755 92.2848C130.486 94.6352 130.141 97.9533 129.311 97.1238C128.482 96.2942 128.635 93.629 128.72 92.5152C128.72 92.3463 128.72 92.3309 128.551 92.4077C127.906 92.7226 125.809 93.7749 125.018 93.6904C124.61 93.6443 124.549 93.0836 125.018 92.6996C127.552 90.5643 129.672 91.4937 124.61 89.9191C122.345 89.2125 123.374 86.6854 128.612 88.8745C128.889 88.9206 129.042 88.8284 129.081 88.5903C129.419 86.286 129.234 81.0016 131.093 82.123C131.846 82.5915 131.562 84.1277 131.615 84.1277Z" fill="#D9B343"/>
<path d="M36.7794 85.8943C36.9099 86.1017 33.2922 88.1986 33.5764 88.3215C34.3217 88.5917 34.9475 89.1168 35.343 89.8039C35.7962 90.8792 32.5625 89.896 32.5318 89.9268C32.5011 89.9575 32.5779 91.5397 32.0786 92.5997C31.9481 92.8685 31.5947 92.4768 31.4642 92.208C30.8113 90.8177 30.9649 89.9037 30.7806 89.9037C30.5962 89.9037 28.2612 91.5935 27.5085 91.5321C26.7558 91.4706 26.871 90.6718 27.3395 90.1572C28.7759 88.621 29.6976 88.8284 28.8219 88.4827C28.0539 88.1832 27.1398 87.154 27.9924 86.5779C28.484 86.2476 29.0908 86.6547 30.2967 87.0311C30.7498 87.1693 30.6654 87.0771 30.6654 86.3705C30.6654 82.9448 32.1631 82.9218 32.3705 85.1646C32.5395 86.985 32.3244 87.2 32.8544 86.9005C32.9543 86.9082 36.4875 85.3336 36.7794 85.8943Z" fill="#D9B343"/>
<path d="M99.5245 7.81018C100.517 7.20354 101.564 6.68932 102.651 6.27401C103.641 5.97445 103.549 6.96529 103.042 7.38005C102.237 7.98212 101.388 8.52137 100.5 8.99304C99.9392 9.40013 102.497 9.99924 102.036 10.9978C101.844 11.3972 99.5936 10.6982 99.2556 10.5753C98.7333 10.4217 99.2556 13.3174 98.6258 13.4633C97.2816 13.6861 97.5274 11.3741 97.4737 10.9286C97.4199 10.4831 95.3153 12.3803 94.8007 11.2282C94.432 10.4601 95.1233 9.93011 96.2831 9.38477C96.8899 9.1313 95.2385 8.87015 94.8161 7.84859C94.7724 7.72534 94.7607 7.59301 94.7822 7.46402C94.8037 7.33503 94.8576 7.21363 94.939 7.11122C95.0202 7.00863 95.1265 6.92862 95.2475 6.87885C95.3685 6.82909 95.5003 6.81125 95.6303 6.82703C96.2494 6.98625 96.8384 7.24571 97.3738 7.59512C97.9729 7.93308 97.3738 4.82231 98.6104 4.69942C100.07 4.5458 98.9868 8.10206 99.5245 7.81018Z" fill="#D9B343"/>
<path d="M69.3997 143.17C70.8053 143.654 68.0862 146.327 69.1155 147.356C69.9604 148.831 72.8868 147.587 73.8546 147.31C74.953 146.995 76.1589 150.92 81.4049 147.971C81.9042 147.687 82.2268 148.17 81.9042 148.516C79.3387 151.588 76.1512 150.82 73.916 149.123C73.2401 148.816 69.5149 150.72 67.8788 148.531C67.0647 147.441 67.3181 146.611 67.6023 145.298C66.8957 145.298 61.2041 148.094 56.4036 146.611C55.4051 146.296 54.0148 145.528 53.5924 144.56C51.7874 140.39 60.9814 138.139 59.0304 138.17C58.4237 138.17 53.6 136.903 52.6092 134.107C51.8411 131.948 53.0777 130.013 54.9672 128.976C60.4591 125.965 69.4918 131.503 70.5672 134.429C70.667 134.698 70.5057 135.136 70.0986 134.882C69.6915 134.629 63.3164 128.177 57.2792 129.383C54.0609 130.02 53.0777 132.133 53.577 133.446C54.7215 136.48 60.943 137.486 64.2381 137.371C65.4363 137.371 65.6207 139.299 63.7081 138.907C61.1197 138.354 52.6092 142.394 55.1593 144.445C58.8615 147.372 66.9034 143.17 69.3997 143.17Z" fill="#D9B343"/>
<path d="M109.048 134.153C108.841 137.371 102.696 138.716 102.281 138.9C103.264 139.184 106.544 140.513 107.251 142.564C107.418 143.049 107.401 143.578 107.204 144.052C107.008 144.526 106.644 144.912 106.183 145.137C103.687 146.396 99.4624 145.06 98.917 145.221C99.7465 145.905 100.392 146.55 100.108 147.526C99.6697 149.062 95.5528 148.701 94.6003 148.662C91.7277 148.562 88.2943 148.132 87.9103 146.773C87.6645 145.897 88.2866 145.874 89.554 146.243C92.8952 147.211 98.9477 147.487 98.6789 146.85C98.2718 145.866 96.8355 145.528 95.837 144.76C95.7466 144.67 95.6838 144.555 95.6556 144.43C95.6275 144.305 95.6353 144.175 95.678 144.054C95.7206 143.933 95.7963 143.826 95.8963 143.746C95.9964 143.666 96.1168 143.616 96.2441 143.601C97.2887 143.478 104.831 145.528 105.845 143.601C106.252 142.832 105.077 141.88 104.171 141.396C100.061 139.161 98.2641 139.645 96.0751 139.376C95.307 139.207 95.307 138.293 96.1826 138.147C96.582 138.078 109.901 137.318 107.512 132.863C105.523 129.137 96.4591 130.267 90.3835 134.238C89.9457 134.522 89.7076 134.145 89.9457 133.815C95.0381 128.346 109.501 127.056 109.048 134.153Z" fill="#D9B343"/>
<path d="M74.2999 132.839C60.2439 96.4397 55.4664 99.0435 56.8182 98.0527C57.4634 97.5918 58.9381 99.0665 60.1824 100.557C68.1552 110.096 75.3292 132.525 74.7761 132.932C74.876 132.955 74.4305 133.177 74.2999 132.839Z" fill="#D9B343"/>
<path d="M95.5681 102.308C95.7601 102.577 95.5681 102.492 95.1841 103.483C86.3434 124.221 87.6338 131.526 86.4125 131.495C83.993 131.418 91.5203 102.308 95.5681 102.308Z" fill="#D9B343"/>
<path d="M80.5523 133.216C80.6292 134.246 80.0531 134.568 79.7843 133.585C78.4401 128.692 78.1329 115.051 77.0498 108.046C76.5045 104.528 76.3739 105.626 76.6889 104.904C76.6889 104.828 77.0652 104.904 77.1574 104.951C80.1069 106.94 79.984 133.216 80.5523 133.216Z" fill="#D9B343"/>
<path d="M117.113 75.4253C108.296 96.7321 81.9424 107.132 60.0211 95.5109C53.0566 91.7895 47.3115 86.1407 43.473 79.2401C39.6344 72.3395 37.865 64.4792 38.3763 56.5994C40.0123 32.1357 60.9121 16.8431 82.0729 18.1949C91.9618 18.8732 101.274 23.0969 108.298 30.0902C115.323 37.0834 119.588 46.3765 120.311 56.2622C120.79 62.8138 119.693 69.3848 117.113 75.4261V75.4253ZM53.2696 89.4276C70.0907 103.645 93.4714 101.556 107.282 87.661C128.888 65.924 119.617 30.9298 92.35 21.3518C81.4892 17.5113 69.6299 19.2318 60.167 24.2705C35.6726 37.3127 32.5311 71.8844 53.2696 89.4276Z" fill="#191919"/>
<path d="M114.671 59.3335C114.671 78.8046 99.1714 96.1481 76.0288 94.7425C57.8558 93.6364 41.1883 76.3083 43.769 55.1628C45.8736 37.7655 59.8375 23.0873 79.9691 23.5866C89.2779 23.8273 98.1224 27.7033 104.609 34.3847C111.095 41.0661 114.707 50.0217 114.671 59.3335ZM100.746 85.4102C121.607 68.1819 114.326 35.8607 91.429 27.1813C69.9225 19.0241 47.6479 33.687 45.0825 55.3625C41.4724 85.9402 77.1502 104.897 100.746 85.4102Z" fill="#191919"/>
<path d="M77.8481 49.3485C77.8481 51.0767 77.8481 50.8079 77.5255 50.8847C71.7395 52.7405 66.1472 55.1534 60.8273 58.0894C57.801 60.5396 72.3486 35.93 77.2106 29.0172C78.5164 27.1507 77.7329 29.9159 77.8481 49.3485Z" fill="#D9B343"/>
<path d="M79.6223 28.7866C80.3904 29.3396 90.8902 45.3082 94.9841 53.3655C95.9212 55.1936 97.8798 58.0355 96.6739 57.5055C85.3984 52.5436 81.2584 51.3147 80.1062 50.8615C79.5916 50.6618 79.6915 50.2547 79.6684 45.9381C79.5993 28.8327 79.2076 28.7866 79.6223 28.7866Z" fill="#D9B343"/>
<path d="M79.7615 52.8968C79.7615 52.3668 80.1839 52.6433 81.5434 53.2424C85.7679 55.0859 90.2382 56.7526 94.2707 58.6191C95.899 59.3872 97.2432 59.5638 96.5749 60.0247C90.3304 64.4412 81.2131 69.526 80.5372 69.8716C79.1623 70.5629 79.7154 69.8716 79.7691 64.0111C79.9304 56.43 79.6846 52.8968 79.7615 52.8968Z" fill="#D9B343"/>
<path d="M79.592 74.4038C79.592 72.9675 78.916 73.6818 81.9807 71.9075C92.5496 65.7628 97.2888 61.8072 97.7189 62.2603C98.341 62.9055 88.233 77.53 85.0454 81.3167C80.2064 87.062 79.4307 88.9284 79.4307 87.3923C79.4614 87.4076 79.7456 80.7252 79.592 74.4038Z" fill="#D9B343"/>
<path d="M78.0404 74.219C77.7946 85.6866 78.1018 88.6898 77.134 87.3917C69.2918 76.9457 68.808 76.4388 62.1409 66.492C61.2807 65.2093 59.3912 62.6516 60.4511 62.6976C61.0195 62.6976 74.0847 70.7856 77.088 72.6367C77.3876 72.7739 77.6388 72.9983 77.8088 73.2806C77.9787 73.5629 78.0595 73.89 78.0404 74.219Z" fill="#D9B343"/>
<path d="M77.8494 68.9963C77.8878 69.3419 77.8494 69.9026 77.1658 69.5262C74.2087 67.8288 61.9039 60.4551 61.1742 59.7715C60.9898 59.6025 60.8746 59.687 63.7703 58.3505C66.0746 57.2675 67.1192 56.8144 70.4758 55.524C77.3118 52.8741 77.788 52.1751 77.8033 52.7051C77.8033 52.7051 77.7419 67.7136 77.8494 68.9963Z" fill="#D9B343"/>
</svg>
