<svg width="155" height="154" viewBox="0 0 155 154" fill="none" xmlns="http://www.w3.org/2000/svg">
<path d="M52.9408 103.073C57.9656 100.764 59.6439 98.3364 61.3329 98.7474C61.7469 98.9033 62.1117 99.1669 62.3897 99.5109C62.6677 99.855 62.8489 100.267 62.9144 100.704C64.3369 106.553 56.636 116.404 50.2724 117.227C49.6725 117.304 47.4635 117.291 47.1033 116.809C46.7553 116.344 47.2116 115.691 47.1102 112.005C46.9804 107.305 46.104 106.451 46.8959 105.422C47.7523 104.307 49.5082 104.651 52.9408 103.073Z" fill="#D9B343"/>
<path d="M47.4114 115.803C47.1827 117.464 46.5418 119.043 45.5473 120.393C45.0393 121.06 44.3507 121.566 43.5634 121.852C42.7761 122.138 41.9232 122.191 41.1062 122.006C40.3757 121.783 40.1845 121.664 39.5308 122.189C35.8486 125.139 35.2295 125.894 30.1263 125.624C25.0231 125.355 15.5587 125.071 16.7554 120.388C17.1694 118.769 19.0543 118.124 20.3939 117.124C21.7979 116.076 18.9683 115.611 18.6065 113.206C18.4245 111.997 19.1127 110.696 18.6134 109.58C18.1457 108.536 16.3092 107.783 17.2777 105.323C17.9414 103.633 22.6467 97.6419 27.0325 96.0842C27.3553 96.0305 27.6498 95.8676 27.8667 95.6226C28.0836 95.3775 28.2097 95.0654 28.2238 94.7385C28.6078 92.9719 28.6478 91.1208 29.3337 89.4509C30.9812 85.44 35.4715 85.4523 36.6305 89.8672C37.4578 93.0164 36.2465 93.9888 38.3871 99.8678C38.7781 100.943 38.7313 101.174 39.9072 100.688C43.8598 99.0567 49.4469 105.317 47.4114 115.803Z" fill="white"/>
<path d="M35.4547 109.202C34.1689 106.034 34.0368 103.175 33.5698 103.155C32.6704 103.116 32.5391 110.638 37.1568 114.388C34.1328 114.114 32.1773 117.723 32.6796 118.152C33.0975 118.507 34.7389 116.979 35.5123 116.392C36.5516 115.611 38.2275 115.386 38.2268 114.896C38.5524 114.561 36.6891 112.389 35.4547 109.202Z" fill="black"/>
<path d="M60.9958 97.2823C57.3596 97.1894 56.4402 103.416 46.7155 103.868C45.074 100.733 42.1576 98.7532 39.1398 100.599C36.8685 96.9013 38.4485 93.1577 37.6266 89.8096C37.4577 88.9387 37.0584 88.129 36.4704 87.4648C35.8824 86.8006 35.1271 86.3062 34.2832 86.0329C33.1786 85.738 32.0193 85.714 30.9036 85.963C29.0601 86.5098 28.577 88.4209 28.2921 90.2881C26.868 99.5912 28.7391 91.133 23.0414 97.8069C20.2517 101.157 18.0135 101.55 17.0265 103.902C16.6049 104.925 16.5006 106.052 16.727 107.135C16.9534 108.219 17.5 109.21 18.2961 109.979C17.9921 110.512 17.7989 111.102 17.7282 111.712C17.6575 112.322 17.7106 112.94 17.8844 113.529C18.3009 114.866 19.0345 116.082 20.0228 117.074C15.5809 117.816 15.3513 123.154 18.1448 124.678C19.4006 125.369 20.7886 125.207 22.1143 125.215C26.5262 125.201 34.711 129.594 40.6644 122.266C44.1416 123.52 46.4651 121.552 47.5519 118C63.1902 118.807 68.7811 97.4659 60.9958 97.2823ZM19.1694 109.006C18.6692 108.4 18.3479 107.666 18.2417 106.888C18.1354 106.109 18.2485 105.316 18.568 104.598C19.3361 102.902 21.6266 102.432 24.4823 99.0059C25.371 97.9406 25.9194 96.9213 27.2014 96.8115C29.2645 96.664 31.4443 99.1926 29.1608 103.714C26.8096 104.258 24.5138 106.402 22.5275 107.502C21.1911 108.246 20.2878 108.105 19.1694 109.006ZM39.1974 121.113C34.5804 126.963 27.8727 124.157 24.1321 123.718C22.8504 123.601 21.5618 123.58 20.277 123.656C18.4544 123.632 17.644 122.519 17.6947 121.175C17.8483 117.181 22.39 117.954 26.315 118.542C35.3347 119.95 24.808 117.245 22.3009 117.019C21.2456 115.416 18.8361 113.388 19.7524 111.225C20.2202 110.178 21.1903 110.039 22.1435 109.725C24.9808 108.795 28.726 104.574 30.9834 105.635C31.6189 106.059 32.1258 106.649 32.4491 107.341C32.7724 108.033 32.8996 108.801 32.8169 109.56C32.1747 114.61 24.5161 116.121 24.5645 116.508C24.5776 116.627 25.1544 116.716 26.1867 116.579C32.0611 115.79 36.748 110.588 33.5742 105.634C33.2697 105.097 32.8471 104.637 32.3385 104.288C31.8299 103.939 31.2486 103.71 30.6386 103.619C32.6848 99.956 31.6117 96.8837 29.4096 95.5941C30.3912 88.8763 30.1163 87.5291 32.5588 87.6689C37.0137 87.8924 35.8347 92.6162 35.9714 95.8107C36.231 102.004 39.1206 102.581 40.53 106.472C41.4272 108.819 42.7214 116.807 39.1974 121.113ZM45.3513 118.969C44.498 120.89 43.193 121.463 41.4533 121.149C43.1508 118.379 43.554 114.961 43.3443 111.735C43.0371 106.678 42.1584 104.845 39.8948 101.68C45.5549 99.0197 48.2194 112.448 45.3513 118.969ZM47.9375 116.416C48.5848 112.917 48.4481 109.317 47.5373 105.876C47.2001 104.783 47.1686 106.011 51.4546 105.085C56.7459 104.022 59.7315 99.4422 60.919 99.5966C64.2794 99.741 61.0342 115.606 47.9375 116.416Z" fill="black"/>
<path d="M90.7255 14.9677C99.8005 11.8339 110.318 17.3703 112.522 26.7149C114.469 34.9718 109.326 43.6574 101.199 46.2459C92.6734 48.9611 82.8418 44.3387 80.1113 35.4926C77.4545 26.8754 82.6168 17.7689 90.7255 14.9677Z" fill="white"/>
<path d="M96.1843 47.5523C88.8813 47.5523 81.8679 43.0052 79.5997 35.6469C78.3569 31.3848 78.8007 26.808 80.8394 22.8641C82.878 18.9203 86.3553 15.9115 90.5511 14.4607C99.9787 11.2048 110.779 16.9954 113.042 26.5904C115.414 36.6508 107.519 47.5515 96.1843 47.5515V47.5523ZM80.622 35.332C83.2635 43.8985 92.7986 48.3603 101.036 45.7365C113.873 41.648 117.031 23.836 104.131 16.7335C90.8768 9.43507 76.5273 22.0548 80.622 35.332Z" fill="black"/>
<path d="M90.0107 41.1628C91.9697 41.8519 94.0176 42.2555 96.0916 42.361C105.724 42.7589 108.853 23.2094 102.295 20.4504C101.643 20.1755 96.395 18.7852 93.9233 19.591C85.1064 22.4621 83.1985 38.847 90.0107 41.1628Z" fill="#FDFE1F"/>
<path d="M104.725 22.0993C103.496 19.9686 102.107 19.8826 100.522 19.5008C98.4735 19.0699 95.6761 18.4785 93.686 19.2067C85.0219 22.2621 82.5732 38.4389 89.6066 41.4698C91.662 42.3554 96.289 43.2525 98.1739 42.6864C105.285 40.4013 108.318 28.6734 104.725 22.0993ZM105.236 29.4184C102.587 29.6212 103.201 29.38 101.249 29.0182C101.391 27.4821 101.298 25.9321 100.975 24.4228C101.507 24.4397 102.235 24.4166 102.827 24.4696C103.032 24.4696 104.44 24.7699 104.771 24.8237C105.174 26.3199 105.33 27.8715 105.236 29.4177V29.4184ZM104.545 24.0833C102.232 24.2446 102.561 24.0249 100.754 23.614C100.34 22.0963 99.3631 20.7934 98.0226 19.9701C101.969 20.6138 103.42 20.8227 104.544 24.0833H104.545ZM89.4906 40.4574C86.1594 38.7215 85.8668 33.2566 86.6188 29.5943C89.2687 16.6904 103.195 15.8117 100.331 31.3064C99.3322 36.2444 96.8351 41.5819 91.7642 41.2194C90.9835 41.0385 90.2219 40.7834 89.4899 40.4574H89.4906ZM93.4079 41.5857C94.8075 41.3359 96.0998 40.6718 97.1178 39.6793C98.1355 39.942 98.5326 39.5257 100.56 40.2531C98.2945 42.1772 96.5409 42.1518 93.4094 41.5857H93.4079ZM101.189 39.6655C99.0057 39.4213 99.7516 39.7515 97.7038 39.0203C98.5433 37.9403 99.2231 36.7452 99.7224 35.4717C101.134 35.5877 100.661 35.1238 103.716 35.7943C103.119 37.23 102.263 38.5436 101.191 39.6693L101.189 39.6655ZM104.008 35.0716C100.928 35.0977 102.666 35.2037 100.018 34.7044C100.586 33.1226 100.973 31.4814 101.17 29.8125C102.855 29.9469 101.689 29.5313 105.183 30.1281C105.007 31.8211 104.613 33.4841 104.009 35.0754L104.008 35.0716Z" fill="black"/>
<path d="M93.8832 39.7009C95.9186 38.7124 99.4641 33.3342 99.3213 27.1258C99.1177 19.1522 91.7978 18.6714 88.7984 27.1726C88.2707 28.6758 87.8998 29.9516 89.0181 27.2571C91.8385 20.5786 96.0738 20.5348 97.6484 23.0787C100.533 27.5935 97.1476 37.4773 93.6382 39.2025C90.8162 40.6449 87.5741 37.2254 88.1079 30.8994C88.3145 28.7756 88.2892 28.2111 87.8775 30.8702C86.8851 37.6294 90.7463 41.2871 93.8832 39.7009Z" fill="black"/>
<path d="M92.5955 31.2764C92.8329 31.4097 93.0971 31.4882 93.3688 31.506C93.6405 31.5238 93.9127 31.4805 94.1655 31.3793C96.6941 30.5613 96.2232 31.3532 95.6249 27.5266C95.4014 26.1405 95.0319 24.7818 94.5227 23.4734C93.1952 25.2376 92.0602 27.1387 91.1369 29.1442C91.0447 29.327 91.0478 29.2548 91.1285 29.4384C91.4504 30.1676 91.9558 30.8008 92.5955 31.2764ZM94.3214 24.9904C94.8174 26.7284 95.1787 28.502 95.4021 30.2956C95.037 30.4427 94.6597 30.5576 94.2746 30.6389C93.594 30.8025 92.8052 31.2664 91.8274 29.304C92.5158 27.7876 93.3519 26.3427 94.3237 24.9904H94.3214Z" fill="black"/>
<path d="M91.5713 37.7835C92.2541 37.7881 96.3987 32.4376 95.8434 31.8531C95.4594 31.446 94.0975 32.5444 92.8379 32.4307C92.2065 32.3723 91.7902 31.2548 91.2318 30.7409C91.1818 30.6954 91.1196 30.6655 91.0528 30.655C90.986 30.6444 90.9176 30.6537 90.8561 30.6817C90.7945 30.7097 90.7425 30.7551 90.7065 30.8123C90.6705 30.8695 90.652 30.936 90.6534 31.0036C90.6649 31.5305 90.2878 37.7751 91.5713 37.7835ZM91.3071 31.9614C92.109 33.1289 92.6282 33.5283 94.8979 32.6873C93.9547 34.1954 92.8795 35.6168 91.685 36.9348C91.2449 35.9017 91.2679 32.5767 91.3071 31.9622V31.9614Z" fill="black"/>
<path d="M100.258 22.6101C102.716 21.587 103.24 20.5002 103.869 18.2028C104.449 16.0898 104.858 12.7847 104.043 10.7408C103.014 12.648 103.487 13.433 101.571 14.8962C99.4789 16.4938 98.8675 13.7271 98.8736 11.0941C98.8736 9.90743 99.8944 8.61167 99.187 6.76979C99.1571 6.69298 96.8566 3.87946 95.7898 4.04153C95.6853 4.13831 96.2967 4.83804 96.4042 5.19904C97.0625 7.44801 93.9978 8.44346 93.8496 8.53255C92.4455 9.37745 91.7289 9.15701 91.4777 9.95813C91.347 10.2807 91.3137 10.6345 91.382 10.9758C91.4503 11.3171 91.617 11.6309 91.8617 11.8784C92.4762 12.7839 92.1306 12.5143 92.5469 13.1127C93.113 13.9284 93.5984 13.7986 93.7397 15.1051C93.8787 16.384 92.4608 16.8164 91.3848 16.5384C90.6205 16.341 90.3816 15.6044 89.9308 15.4738C89.0951 15.2311 88.6857 13.7225 88.3946 13.4844C88.1426 13.0883 87.9257 12.6709 87.7463 12.2371C87.6372 11.5089 87.1318 13.7102 87.1318 13.8915C87.1894 21.978 93.6268 25.3722 100.258 22.6093V22.6101Z" fill="#D9B343"/>
<path d="M104.488 11.4898C104.195 10.6257 103.892 10.214 103.843 10.2386C103.672 10.2209 103.659 11.4299 102.773 12.9822C101.305 15.4455 98.9605 15.2865 99.5312 12.2625C99.777 10.933 100.208 9.47666 99.8999 8.10331C99.1448 4.42416 95.3873 3.45099 95.319 3.84041C95.2168 3.97022 96.7085 5.24141 95.7798 6.91277C94.6715 8.93439 91.3741 7.72004 90.9985 10.7094C90.7035 12.8301 93.0032 13.579 93.3458 15.0945C93.5862 16.0607 92.5009 16.7374 90.9647 15.8265C88.2702 14.2188 87.9691 11.7556 87.7203 11.8439C87.6051 11.7832 86.3339 13.8048 87.029 16.9686C87.469 19.1324 88.7029 21.0532 90.4878 22.3531C92.2727 23.653 94.4795 24.2379 96.6739 23.9928C103.611 23.3668 106.093 16.1913 104.488 11.4898ZM104.162 15.2327C102.275 27.728 84.9936 23.989 87.6849 12.231C87.8484 13.354 88.3279 14.4074 89.0675 15.2681C91.6429 18.3819 94.9011 17.2651 94.3481 14.884C93.9787 13.0275 91.8134 12.2979 92.0154 10.8323C92.1767 9.35223 93.7882 9.34916 95.0233 8.71932C95.426 8.53214 95.7797 8.25374 96.0562 7.90618C96.3327 7.55862 96.5244 7.15144 96.6163 6.71691C96.7076 6.28216 96.6962 5.83212 96.5832 5.40252C96.4701 4.97292 96.2584 4.57561 95.9649 4.24212C96.7365 4.64399 97.4061 5.21657 97.923 5.91628C98.4398 6.616 98.7902 7.42441 98.9474 8.27997C99.3315 10.32 97.816 12.526 98.6402 14.4362C99.8146 17.1176 103.847 15.1905 103.972 11.0428C104.298 12.4154 104.362 13.8363 104.162 15.2327Z" fill="black"/>
<path d="M52.622 8.5632C61.697 5.42862 72.2145 10.9658 74.4181 20.3104C76.3652 28.5666 71.2228 37.2521 63.0957 39.8406C54.5699 42.5558 44.7383 37.9334 42.0078 29.0873C39.3509 20.4694 44.5133 11.3675 52.622 8.5632Z" fill="white"/>
<path d="M58.081 41.1473C50.778 41.1473 43.7653 36.5994 41.4964 29.2419C40.2544 24.9801 40.6987 20.4039 42.7373 16.4606C44.7758 12.5173 48.2526 9.50887 52.4478 8.05794C61.8784 4.80047 72.6762 10.5926 74.939 20.1876C77.3109 30.2465 69.4149 41.1473 58.081 41.1473ZM57.9158 8.21847C41.5647 8.21847 35.4607 30.4047 50.3117 38.1686C62.9983 44.8003 76.9176 33.2528 73.8921 20.4342C72.2023 13.2418 65.2895 8.21847 57.9158 8.21847Z" fill="black"/>
<path d="M65.0088 34.6638C62.8198 35.3551 60.5501 35.7584 58.2566 35.8621C47.5617 36.2599 44.0899 16.7113 51.3691 13.9515C52.2248 13.6266 57.9969 12.3093 60.663 13.092C70.4354 15.957 72.593 32.3411 65.0088 34.6638Z" fill="#FDFE1F"/>
<path d="M58.4532 12.3416C55.9923 12.4568 53.5513 12.8393 51.1725 13.4814C44.4563 16.1098 45.9879 32.9679 55.4462 36.0425C58.0577 37.0487 65.5573 35.5487 67.148 34.0394C73.1844 29.2273 68.9891 12.4207 58.4532 12.3408V12.3416ZM53.8447 13.9023C56.8241 13.3109 56.076 13.4668 55.5522 13.7841C54.3957 14.5885 53.5349 15.7501 53.102 17.0907C51.0058 17.517 51.5089 17.7489 48.8537 17.5646C50.1579 14.2096 51.966 14.3156 53.8447 13.9023ZM48.5856 18.3496C49.1747 18.2643 50.0503 18.0577 50.77 17.9809C54.3478 17.9809 52.0558 16.9478 52.5413 22.4973C50.3391 22.8644 51.1403 23.1286 48.0702 22.8982C47.973 21.3635 48.1486 19.8238 48.5887 18.3504H48.5856V18.3496ZM48.1386 23.6571C52.0612 23.038 50.8046 23.4827 52.638 23.3376C52.8585 25.0005 53.2832 26.6296 53.9008 28.1888C50.7516 28.738 52.9714 28.5805 49.4351 28.5552C48.7721 26.9925 48.3355 25.3432 48.1386 23.6571ZM49.7838 29.3202C49.9436 29.288 51.3968 28.9638 51.7209 28.9638C52.6995 28.8947 54.241 29.0813 54.2357 28.9746C54.7947 30.2575 55.5416 31.4501 56.4516 32.5132C54.1158 33.2759 55.0214 32.9011 52.5758 33.1522C51.4125 32.0615 50.4653 30.7612 49.7838 29.3195V29.3202ZM53.3124 33.7621C55.4277 33.0647 56.1344 33.4295 57.1037 33.2045C57.0269 32.8665 58.0892 34.5586 61.1162 35.0832C56.6321 35.7929 55.1942 35.1669 53.3124 33.7621ZM68.6512 30.1091C68.3175 31.3727 67.5937 32.4989 66.5827 33.3273C66.3218 33.5338 66.0411 33.7139 65.7447 33.865C55.6674 38.6571 50.5058 21.7077 54.443 15.6866C59.2797 8.47733 71.9586 18.7283 68.6512 30.1091Z" fill="black"/>
<path d="M67.068 23.034C66.111 19.9279 69.1642 29.0328 64.5979 32.2726C59.8979 35.7651 55.1273 26.4298 55.3178 20.4694C55.5974 13.6994 62.302 12.6149 66.1041 20.7229C66.6179 21.8335 66.8053 22.4895 66.8576 22.4764C66.7627 21.8395 66.5863 21.2173 66.333 20.6253C63.6447 13.8477 58.3003 13.3131 56.2134 16.0168C53.0834 19.8672 54.9967 27.3784 58.8564 31.7987C63.1969 36.7491 69.4322 30.7157 67.068 23.034Z" fill="black"/>
<path d="M63.2319 24.8462C61.9822 27.8533 62.1251 27.6428 62.0122 27.5107C59.9061 25.0428 60.3354 25.549 60.1073 25.2648C60.0574 25.3724 59.764 26.0859 59.4552 26.8171C59.3999 26.9469 59.1779 26.6174 62.4861 30.4871C62.5759 30.5938 62.3563 31.0247 64.4002 26.1174C63.1336 24.6411 63.2703 24.754 63.2319 24.8462Z" fill="black"/>
<path d="M59.7963 23.0487C60.9868 20.183 60.9085 20.2667 60.9799 20.3527C61.4761 20.9349 62.4746 22.1024 62.9147 22.6163L63.5906 21.0033L60.4699 17.3549L58.6265 21.7867C59.9253 23.2991 59.7594 23.144 59.7963 23.0487Z" fill="black"/>
<path d="M61.7445 25.4329L62.4242 23.8L61.279 22.4612L60.6016 24.0934L61.7445 25.4329Z" fill="black"/>
<path d="M57.4658 24.5856L58.5911 25.9075L59.2601 24.3021L58.131 22.9795L57.4658 24.5856Z" fill="black"/>
<path d="M65.5242 23.2468C65.0196 22.6599 64.4796 22.0232 64.4335 21.9786C63.6923 23.7591 63.7361 23.5824 63.7914 23.6462C64.9481 25.0003 64.8836 24.9788 64.9266 24.8751C65.6087 23.2214 65.6041 23.3397 65.5242 23.2468Z" fill="black"/>
<path d="M45.4632 16.0307C47.2767 17.8042 50.5326 18.0631 53.4736 15.8456C54.9499 14.7319 55.1235 13.9 55.1688 12.2172C55.1957 11.3165 55.128 10.4154 54.9668 9.52884C54.6848 8.93969 54.3389 8.38333 53.9353 7.86977C53.7694 7.83828 53.7732 8.0641 53.6703 8.39438C53.3899 9.29227 52.6633 10.2063 51.9651 10.0688C50.0772 9.69706 51.2562 6.73684 49.1024 5.32893C48.3966 4.86807 46.6761 4.18063 47.2145 4.95256C47.7352 5.69838 47.8343 5.68839 47.3934 6.48874C46.4548 8.1939 45.6668 7.68389 45.4686 8.83756C45.2006 10.3952 46.9956 10.4214 47.5724 11.7463C47.726 12.1089 47.1361 13.0728 46.1261 13.1335C44.6276 13.2241 43.3948 11.1572 43.3917 11.5305C43.3779 13.3916 44.8672 15.447 45.4632 16.0307Z" fill="#D9B343"/>
<path d="M55.4849 10.2283C54.9703 8.24816 53.6699 7.12598 53.5386 7.26807C53.3627 7.32414 53.6661 9.6937 52.0462 9.64915C50.2796 9.64377 52.272 4.8171 48.059 4.39234C46.062 4.18957 47.2786 4.84705 47.3439 5.6474C47.4484 6.77265 44.6733 7.55841 45.1364 9.80968C45.4022 11.1869 47.0666 11.4526 47.0928 12.0041C47.2203 12.5948 46.0858 13.1924 44.8123 12.455C43.7301 11.8159 43.485 10.9242 43.3314 10.9803C42.8352 10.8159 42.4681 15.1556 46.6419 17.1749C51.3495 19.5406 56.8252 15.2078 55.4849 10.2283ZM54.256 13.7546C51.5892 18.9008 44.2862 16.8776 43.4628 11.9296C44.5957 14.409 48.324 14.2208 48.1351 11.8781C47.9884 10.577 46.3761 10.4649 46.1634 9.59308C45.7793 7.97471 48.473 7.13519 47.93 5.50915C47.6373 4.6727 46.7172 4.52369 47.9254 4.97686C49.9454 5.72344 49.8318 6.65667 50.1037 8.59917C50.6014 11.9895 54.4234 10.7176 53.9664 8.10222C54.4714 8.94957 54.7616 9.90757 54.8117 10.8927C54.8618 11.8779 54.6702 12.8604 54.2537 13.7546H54.256Z" fill="black"/>
<path d="M50.7176 53.7663C48.8926 56.3379 48.3964 59.8596 48.6222 62.9888C48.9395 67.3754 51.1569 74.5993 55.3622 74.9564C53.4363 77.4056 52.2164 80.3347 51.8344 83.4269C51.3382 86.3971 52.2714 89.3497 53.5918 91.8037C53.8844 92.3467 54.8307 92.6655 55.1203 93.0449C55.2171 93.1717 55.1441 93.1048 56.6503 94.2117C57.6097 94.9168 57.5129 96.0413 57.6726 96.6795C58.4592 99.818 57.3831 100.361 55.3184 104.94C54.2516 107.502 53.6168 110.222 53.4397 112.991C53.4566 114.097 54.1786 114.137 51.6731 116.141C48.9525 118.318 46.8103 121.492 45.0844 124.52C44.2719 126.205 43.7885 128.03 43.6604 129.896C43.1427 134.818 43.0728 138.96 46.8863 142.56C48.5526 143.964 50.4903 145.01 52.5787 145.632C70.0373 150.875 86.8409 150.83 103.521 147.026C110.617 145.407 111.94 141.157 113.299 134.659C114.822 127.381 110.529 106.222 102.478 98.6359C102.117 98.2964 100.124 96.9607 99.9022 96.519C99.6718 96.0628 99.5719 95.9813 99.9514 95.2133C100.719 93.6771 106.403 87.4002 106.284 76.7084C106.263 74.9272 105.764 74.9495 107.093 73.5009C116.445 63.3114 113.449 52.4291 110.092 50.6172C106.03 48.4189 102.693 53.4991 101.88 53.3877C101.573 53.3462 100.895 52.6096 100.685 52.3815C89.6144 40.3532 78.4741 45.7014 78.1937 44.0316C77.8335 41.9132 67.4796 36.555 60.3433 40.1312C59.9701 40.2511 59.6397 40.4766 59.3919 40.7802C59.1441 41.0839 58.9895 41.4529 58.9469 41.8425C58.8555 42.5607 59.4846 42.9417 59.5614 43.3265C59.6858 43.9271 58.3324 43.6398 56.2893 44.8473C55.5373 45.292 54.8176 45.7398 54.6763 46.418C54.5073 46.8942 54.4421 47.4012 54.4835 47.9043C54.5504 48.2323 54.7347 48.6931 55.098 48.7784C57.3915 49.316 59.937 49.5465 61.944 51.1917C62.1283 51.3453 62.1452 51.4682 61.9148 51.6433C57.8608 54.7387 58.1512 55.6774 57.5198 56.2158C56.7079 56.9071 56.7194 55.937 56.3339 54.8939C55.5573 52.7978 52.7139 50.9528 50.7176 53.7663Z" fill="#D9B343"/>
<path d="M58.4534 98.1619C59.8483 101.66 60.9021 103.38 64.7356 104.691C72.0694 107.202 79.5175 104.328 82.6383 98.4468C84.4617 95.0104 86.3167 87.4716 83.3995 83.3339C82.9217 82.6564 82.4962 82.7194 81.6812 83.1242C76.6825 85.6151 75.7992 82.3354 73.6931 82.9168C72.9304 83.128 70.5624 85.3885 68.5623 84.059C67.5707 83.3992 67.1528 81.9951 66.0276 81.6011C65.6488 81.4989 65.2585 81.4452 64.8662 81.4413C62.1065 81.2109 60.9835 79.5257 60.6955 79.5211C60.3959 79.5149 60.1156 79.8598 60.0411 80.0657C59.6917 80.83 59.4048 81.6215 59.1831 82.4321C57.9926 88.5108 55.0861 89.7129 58.4534 98.1619Z" fill="white"/>
<path d="M74.3529 60.6221C73.3037 53.1924 66.2811 53.4021 63.0827 58.1304C59.7799 63.0147 60.7017 72.2786 67.805 72.211C72.5095 72.1657 75.0649 65.6869 74.3529 60.6221Z" fill="white"/>
<path d="M89.6148 63.5325C88.4481 56.1888 80.589 56.2356 76.9344 61.0408C73.2184 65.9251 74.2584 75.189 82.248 75.1214C87.5455 75.0753 90.419 68.5972 89.6148 63.5325Z" fill="white"/>
<path d="M90.1549 63.4441C88.7724 54.5112 78.2449 55.3423 75.0289 62.6891C75.0527 50.9219 64.2058 52.8498 61.648 59.1082C58.6409 65.1347 61.3784 73.589 67.9464 72.9615C68.7113 72.9331 69.463 72.7532 70.1579 72.4323C70.8529 72.1114 71.4773 71.6558 71.995 71.092C74.8661 68.0864 73.6487 66.4343 74.2278 69.4406C74.437 70.7657 74.9883 72.0132 75.8274 73.0599C76.6664 74.1066 77.7641 74.9162 79.0119 75.4088C80.2597 75.9013 81.6144 76.0597 82.9421 75.8682C84.2699 75.6768 85.5247 75.1421 86.5825 74.3172C89.5781 71.8724 90.7594 67.3429 90.1549 63.4441ZM68.5923 71.3631C60.681 72.8993 59.5934 58.619 67.2681 55.8247C75.966 52.717 75.6219 70.0382 68.5923 71.3631ZM82.9694 74.2542C75.8654 74.7665 74.2255 67.5488 76.986 62.4755C78.8794 58.9423 84.1339 57.1465 86.8944 59.5507C91.3793 63.3005 88.6817 73.483 82.9679 74.2542H82.9694Z" fill="black"/>
<path d="M66.1839 62.4957C63.9848 62.4957 63.9564 69.5898 66.1839 69.5898C68.4113 69.5898 68.3691 62.4957 66.1839 62.4957Z" fill="black"/>
<path d="M80.9769 65.2875C78.4867 65.2875 78.4844 72.3808 80.9769 72.3808C83.4693 72.3808 83.4686 65.2875 80.9769 65.2875Z" fill="black"/>
<path d="M101.381 70.7949C104.331 74.5355 111.29 63.6824 104.131 61.6293C104.688 60.2721 105.762 57.5446 106.938 57.2381C109.186 56.6505 108.639 60.9457 108.858 61.0017C109.097 61.0632 110.114 58.1598 108.742 56.735C108.474 56.4755 108.146 56.2861 107.787 56.1833C107.429 56.0806 107.05 56.0677 106.686 56.1459C105.222 56.4685 104.363 58.1813 103.738 59.5454C102.325 62.5464 99.825 68.0828 101.381 70.7949ZM103.549 63.1286C108.311 64.1402 104.01 70.3809 102.904 70.2534C102.388 70.3817 101.53 68.6281 103.549 63.1286Z" fill="black"/>
<path d="M93.0676 59.7112C92.8679 59.2273 89.8724 60.5623 86.7001 57.7142C83.7814 55.2156 83.6132 51.7676 83.1024 51.7745C82.7483 51.7792 82.471 54.2002 83.7107 56.4599C85.1371 59.2842 88.3293 61.1598 90.97 60.732C92.4539 60.5169 93.1544 59.8702 93.0676 59.7112Z" fill="black"/>
<path d="M68.7197 51.4043C73.4188 50.365 75.0656 54.3652 75.6217 54.2055C75.8191 54.1486 75.8859 53.4812 75.4274 52.5341C75.1064 51.9193 74.6665 51.3744 74.1332 50.9311C73.5998 50.4877 72.9837 50.1548 72.3206 49.9515C71.6575 49.7483 70.9607 49.6788 70.2705 49.7472C69.5803 49.8155 68.9106 50.0203 68.3003 50.3497C67.3893 50.8766 67.0713 51.4672 67.2027 51.6247C67.3517 51.8037 67.8901 51.5786 68.7197 51.4043Z" fill="black"/>
<path d="M84.4318 77.7205C80.0868 70.1878 55.2091 68.5164 59.2108 78.1306C60.3691 80.9472 63.2241 81.9258 66.1321 82.7392C67.5193 85.3891 71.1485 86.3392 73.9474 83.6724C75.4368 84.2001 76.9921 84.5188 78.569 84.6195C82.9725 84.7354 86.6224 81.7698 84.4318 77.7205ZM83.3995 80.4656C83.2327 80.9783 82.9483 81.445 82.5692 81.8284C82.1901 82.2118 81.7267 82.5013 81.2158 82.6739C79.2188 83.5188 76.956 83.1593 74.8522 82.6478C75.1162 82.2847 75.4951 82.0216 75.9275 81.9012C76.7809 81.6815 78.8632 81.8244 78.8317 81.428C78.8148 81.2114 76.8155 80.703 75.7286 80.7836C74.2815 80.9265 73.7777 81.9549 72.803 82.7154C70.6792 84.432 68.1729 83.6309 67.2727 81.6892C66.7673 80.6515 66.7927 77.9885 63.6258 77.5822C63.0743 77.5154 62.7663 77.5822 62.7479 77.6897C62.7295 77.7973 62.9998 77.9348 63.4392 78.179C65.2058 79.1591 65.2442 79.3312 65.6451 81.3205C64.4059 80.9409 63.2381 80.3591 62.1887 79.5984C60.7777 78.4893 59.919 76.7143 60.9129 75.2203C63.9469 70.6963 84.3489 74.5813 83.3995 80.4656Z" fill="black"/>
<path d="M92.4573 70.6836C92.0794 70.6152 91.5018 72.7705 89.7775 74.6731C88.0815 76.6002 85.967 77.3199 86.0638 77.6878C86.1605 78.0557 88.7774 77.7984 90.7729 75.5663C92.7454 73.3919 92.8306 70.7512 92.4573 70.6836Z" fill="black"/>
<path d="M60.0157 72.2381C60.2461 72.0476 59.7046 70.9977 59.3897 69.5828C59.0518 68.1726 58.8521 66.9352 58.5395 66.9398C58.0448 66.9337 57.8528 70.0652 59.2423 71.7342C59.5902 72.1567 59.9059 72.3288 60.0157 72.2381Z" fill="black"/>
<path d="M72.7032 94.724C71.4857 88.2551 67.1207 87.2796 65.7135 95.2394C64.1812 104.632 74.2432 103.93 72.7032 94.724ZM68.0071 99.8203C66.4386 98.3033 67.3273 93.2477 68.2229 91.4888C69.216 89.5394 71.2184 89.9457 71.5303 94.8745C71.8022 99.8302 69.2905 101.092 68.0071 99.8203Z" fill="black"/>
<path d="M100.503 96.2127C103.11 93.3384 105.058 89.9301 106.212 86.2255C107.366 82.5209 107.698 78.6092 107.186 74.763C108.807 73.5341 110.128 71.953 111.05 70.1391C113.416 65.175 115.87 57.0048 113.042 52.1927C111.131 48.8961 106.713 48.3185 103.087 51.2456C100.814 53.1006 103.08 52.9708 98.5377 48.8C93.2878 43.9181 84.8895 42.3389 78.7693 43.789C73.097 34.5942 58.1354 37.5783 58.1238 41.6238C58.0966 42.2434 58.3071 42.8501 58.7122 43.3197C56.0761 44.0248 52.516 45.9182 53.7734 48.3054C55.4747 51.1473 57.7528 48.8792 61.6471 51.708C60.0429 52.694 58.6705 54.0148 57.6238 55.58C56.7021 51.7011 52.8893 50.5106 50.4429 52.8317C45.1569 57.7844 48.1241 74.0118 54.2834 75.4958C49.4982 80.4592 49.2009 91.949 56.0999 94.4161C56.2514 96.044 56.6953 97.6312 57.4103 99.1015C54.3057 103.467 52.2403 109.346 52.6927 114.701C40.9209 121.975 37.94 141.43 51.1319 146.067C70.0269 152.501 92.7263 151.497 104.668 147.639C109.985 145.908 112.997 143.085 114.108 135.267C115.511 124.859 111.842 105.059 100.503 96.2127ZM49.8646 58.0555C51.0866 51.7787 55.9087 52.1128 56.5185 57.4795C54.0553 62.5704 54.3871 68.755 55.4493 74.3122C50.7724 74.1885 48.9674 62.5765 49.8646 58.0555ZM112.359 135.018C111.306 142.105 108.776 144.389 104.098 145.884C92.171 149.689 70.0331 150.508 51.6911 144.424C40.1697 140.457 42.6176 123.143 52.8632 116.052C53.0829 117.308 53.4008 118.016 53.5906 117.989C54.4262 117.877 53.0621 109.066 58.4533 100.887C63.8246 108.65 75.9189 107.994 81.3463 102.467C84.2696 102.357 86.8665 101.814 88.902 99.7114C91.2201 97.3188 91.6878 93.9745 91.3491 93.8739C90.9336 93.7203 90.2407 96.5115 87.8397 98.5761C86.4603 99.7121 84.7542 100.378 82.97 100.477C85.04 97.3241 86.0424 93.5897 85.8311 89.8237C85.7175 86.9856 85.0293 85.3419 84.8188 85.3919C84.1905 85.5009 86.5247 102.889 72.7398 104.583C75.0932 102.777 75.1816 99.7544 74.7637 99.8212C74.5533 99.8043 74.4565 100.826 73.6039 102.066C71.06 105.656 66.2809 105.005 64.4053 101.221C63.7516 99.8266 63.4528 98.8281 63.2531 98.8818C62.9782 98.951 63.1464 101.893 64.6864 103.691C63.8827 103.35 63.1251 102.909 62.4313 102.379C53.5982 95.6697 60.3398 82.626 59.2591 82.2243C58.8343 82.0599 56.1337 87.4142 56.0331 92.5412C50.7909 89.4274 51.9699 78.4936 57.1967 74.3229C57.8304 73.8167 58.2298 73.5617 58.1722 73.4258C58.1354 73.3313 57.7075 73.3451 57.0055 73.6209C56.3818 68.7758 56.0646 63.3446 57.8227 58.7629C60.1001 52.7042 64.8124 51.1681 64.5051 50.569C64.4506 50.4614 64.0135 50.569 63.2393 50.8762C60.2438 48.0704 57.1153 48.2977 56.1905 48.0343C53.0798 47.1625 60.4565 42.7444 68.1482 45.4112C71.3227 46.5096 73.4119 48.2616 73.62 48.0227C73.8973 47.7078 68.8579 42.3174 61.3391 42.8827C55.2896 41.3703 69.6029 36.0329 76.9075 43.4457C79.118 45.687 79.8585 48.2186 80.1934 48.1188C80.3716 48.0681 80.1795 46.6187 79.3861 44.935C83.4589 44.6111 87.5534 45.1788 91.3844 46.5987C95.8324 48.1433 98.891 51.2679 101.007 53.5015C98.4916 57.0923 97.1144 63.2916 97.6766 63.4375C98.0952 63.5497 99.4233 59.7016 101.317 56.378C105.479 49.1273 111.577 49.9706 112.337 55.8941C112.936 60.561 110.465 67.6559 108.796 70.3788C106.348 74.3805 101.31 77.0312 101.679 77.6096C101.927 78.0036 104.937 76.2931 105.629 75.8529C106.514 93.3992 92.6572 100.774 93.0696 101.447C93.2294 101.762 96.5982 100.124 99.6522 97.0914C110.862 106.161 113.571 126.439 112.359 135.02V135.018Z" fill="black"/>
<path d="M55.7233 134.053C55.4553 133.797 55.1266 133.613 54.7681 133.519C54.4097 133.425 54.0331 133.424 53.674 133.515C51.8306 134.184 51.4895 137.638 52.4919 139.318C53.3107 140.735 54.8845 140.399 54.7524 140.119C54.7063 139.974 53.6986 140.131 53.2162 138.938C52.6386 137.632 53.1033 134.225 54.4866 134.624C56.0128 135.274 55.9721 138.789 54.8515 139.944C54.5366 140.269 55.0535 140.204 55.4344 139.948C56.7794 139.043 57.1319 135.545 55.7233 134.053Z" fill="black"/>
<path d="M42.9107 79.6017L25.9874 82.5612C24.9374 82.745 24.0033 83.3384 23.3907 84.2109C22.7781 85.0833 22.5371 86.1634 22.7207 87.2135L28.3493 119.39C28.533 120.44 29.1262 121.374 29.9986 121.987C30.8709 122.6 31.9508 122.841 33.0009 122.657L49.9234 119.697C50.4434 119.606 50.9404 119.414 51.386 119.131C51.8316 118.848 52.2171 118.48 52.5205 118.048C52.824 117.616 53.0393 117.128 53.1543 116.613C53.2694 116.098 53.2818 115.565 53.1909 115.045L47.5623 82.8684C47.3786 81.8184 46.7854 80.8844 45.913 80.2717C45.0407 79.6591 43.9608 79.4181 42.9107 79.6017Z" fill="#92FCFF"/>
<path d="M53.9802 114.906L48.3524 82.7309C48.1304 81.4721 47.4182 80.3526 46.3719 79.6182C45.3257 78.8839 44.0308 78.5945 42.7714 78.8137L25.8489 81.7731C24.5902 81.9954 23.471 82.7078 22.7367 83.7539C22.0024 84.8001 21.7129 86.0948 21.9316 87.3541L27.5586 119.53C27.7549 120.647 28.3382 121.66 29.2063 122.39C30.0744 123.121 31.1718 123.522 32.3062 123.524C32.9099 123.524 31.7486 123.693 50.0621 120.492C50.6865 120.383 51.2834 120.152 51.8184 119.813C52.3534 119.473 52.816 119.031 53.1798 118.512C53.5438 117.993 53.8018 117.407 53.9391 116.789C54.0765 116.17 54.0904 115.53 53.9802 114.906ZM49.5667 118.275C48.8032 119.361 50.1743 118.84 32.8623 121.866C32.0218 122.011 31.1581 121.817 30.4601 121.327C29.7621 120.837 29.2867 120.09 29.1378 119.251L23.5108 87.0745C23.3644 86.2346 23.5571 85.3709 24.0467 84.673C24.5363 83.975 25.2827 83.4998 26.1223 83.3516L42.0502 80.5657C42.6847 80.7638 43.2526 81.1326 43.6915 81.6318C44.1304 82.1311 44.4236 82.7414 44.5388 83.3961C50.6013 118.042 50.7726 116.563 49.5667 118.277V118.275ZM51.8625 117.584C51.4513 118.172 50.8539 118.605 50.1666 118.813C51.7443 116.648 51.3571 117.707 45.3322 83.2555C44.9129 80.8568 43.0441 80.3368 43.604 80.3368C44.3605 80.3389 45.0921 80.6067 45.6711 81.0935C46.2501 81.5802 46.6396 82.255 46.7716 82.9998C52.8465 117.753 52.9371 116.058 51.8625 117.588V117.584Z" fill="black"/>
<path d="M34.0097 84.4598C34.3744 84.4605 34.7271 84.5896 35.0061 84.8244C35.285 85.0593 35.4723 85.3849 35.5351 85.744L36.8409 93.2206C36.8762 93.4212 36.8717 93.6267 36.8275 93.8255C36.7832 94.0243 36.7003 94.2124 36.5833 94.3791C36.4662 94.5457 36.3175 94.6877 36.1456 94.7968C35.9736 94.9059 35.7819 94.98 35.5812 95.0149L28.8935 96.1847C28.6929 96.2198 28.4874 96.2151 28.2886 96.1707C28.0899 96.1264 27.9018 96.0433 27.7352 95.9262C27.5686 95.8092 27.4266 95.6605 27.3175 95.4885C27.2084 95.3166 27.1342 95.1249 27.0992 94.9243L25.7935 87.4477C25.723 87.0426 25.8161 86.6262 26.0524 86.2897C26.2888 85.9533 26.6489 85.7245 27.0539 85.6534C34.3354 84.3791 33.8169 84.4598 34.0097 84.4598ZM33.5642 83.4774C23.0191 85.3139 24.1167 83.8215 26.0938 95.1002C26.1807 95.6018 26.4148 96.0663 26.7662 96.4346C27.1177 96.8029 27.5708 97.0584 28.0678 97.1686C28.3973 97.2416 28.7383 97.2493 29.0709 97.1909L35.7587 96.0211C36.4305 95.9034 37.028 95.5237 37.4201 94.9656C37.8121 94.4075 37.9665 93.7166 37.8494 93.0447L36.5436 85.5682C36.4899 85.2333 36.3696 84.9127 36.1898 84.6252C36.0101 84.3377 35.7745 84.0891 35.497 83.8942C35.2195 83.6993 34.9058 83.562 34.5744 83.4904C34.2429 83.4188 33.9005 83.4144 33.5673 83.4774H33.5642Z" fill="black"/>
<path d="M33.3628 88.2673C32.9184 88.2862 32.4991 88.4786 32.195 88.8031C31.8909 89.1277 31.7262 89.5586 31.7363 90.0032C31.7463 90.4479 31.9303 90.8709 32.2488 91.1814C32.5673 91.4919 32.9948 91.6651 33.4396 91.6638C33.884 91.645 34.3032 91.4526 34.6073 91.128C34.9114 90.8035 35.0761 90.3726 35.0661 89.9279C35.056 89.4833 34.872 89.0603 34.5535 88.7498C34.2351 88.4393 33.8075 88.2661 33.3628 88.2673Z" fill="white"/>
<path d="M30.7196 88.5651C30.7146 88.3422 30.6657 88.1225 30.5757 87.9185C30.4857 87.7145 30.3565 87.5302 30.1953 87.3761C30.0341 87.222 29.8441 87.1012 29.6362 87.0206C29.4284 86.9399 29.2066 86.901 28.9837 86.9061C28.7608 86.9111 28.5411 86.96 28.3371 87.05C28.133 87.1399 27.9487 87.2692 27.7947 87.4304C27.6406 87.5916 27.5198 87.7816 27.4392 87.9894C27.3585 88.1973 27.3196 88.419 27.3247 88.642C27.3348 89.0922 27.5234 89.5199 27.849 89.831C28.1745 90.1421 28.6103 90.3112 29.0605 90.301C29.5107 90.2908 29.9384 90.1022 30.2496 89.7767C30.5607 89.4512 30.7298 89.0153 30.7196 88.5651Z" fill="white"/>
<path d="M29.7222 91.2783C29.2778 91.2972 28.8585 91.4896 28.5544 91.8141C28.2503 92.1387 28.0856 92.5696 28.0956 93.0142C28.1057 93.4589 28.2897 93.8819 28.6082 94.1924C28.9267 94.5028 29.3542 94.6761 29.799 94.6748C30.2433 94.656 30.6626 94.4636 30.9667 94.139C31.2708 93.8145 31.4355 93.3836 31.4255 92.9389C31.4154 92.4943 31.2314 92.0713 30.9129 91.7608C30.5944 91.4503 30.1669 91.2771 29.7222 91.2783Z" fill="white"/>
<path d="M33.3537 87.8694C30.607 87.9317 30.6561 92.0678 33.4013 92.0678C36.2117 92.0655 36.161 87.8072 33.3537 87.8694ZM33.4305 91.2644C33.1773 91.2622 32.9304 91.186 32.7201 91.0451C32.5098 90.9042 32.3453 90.7048 32.247 90.4716C32.1486 90.2383 32.1207 89.9814 32.1667 89.7324C32.2127 89.4835 32.3305 89.2535 32.5057 89.0707C32.74 88.825 33.0618 88.6813 33.4005 88.6706C33.7337 88.6824 34.0496 88.8219 34.2827 89.0603C34.5157 89.2987 34.6482 89.6176 34.6525 89.951C34.6572 90.2846 34.533 90.6071 34.3058 90.8513C34.0786 91.0956 33.7658 91.2427 33.4328 91.2621L33.4305 91.2644Z" fill="black"/>
<path d="M29.07 90.7036C31.8428 90.6391 31.753 86.4476 28.9725 86.5052C26.159 86.5713 26.3395 90.8273 29.07 90.7036ZM27.7243 88.6374C27.7182 88.2947 27.8481 87.9634 28.0856 87.7163C28.3231 87.4691 28.6489 87.3261 28.9917 87.3186C29.334 87.311 29.6655 87.4389 29.914 87.6746C30.1624 87.9102 30.3077 88.2345 30.3182 88.5768C30.3243 88.9195 30.1944 89.2508 29.9569 89.4979C29.7194 89.7451 29.3936 89.8881 29.0508 89.8956C28.7085 89.9032 28.377 89.7753 28.1285 89.5396C27.8801 89.304 27.7348 88.9797 27.7243 88.6374Z" fill="black"/>
<path d="M29.713 90.8774C26.9671 90.9419 27.0147 95.0765 29.7607 95.0765C32.5872 95.0765 32.4797 90.8098 29.713 90.8774ZM30.7 93.8729C30.477 94.1035 30.1765 94.2433 29.8564 94.2654C29.5364 94.2875 29.2195 94.1903 28.9669 93.9926C28.7143 93.7949 28.5439 93.5106 28.4885 93.1946C28.4331 92.8786 28.4966 92.5533 28.6669 92.2814C28.7815 92.1017 28.9386 91.9529 29.1242 91.848C29.3098 91.7431 29.5183 91.6855 29.7315 91.68C29.9879 91.6742 30.2402 91.7445 30.4567 91.882C30.6732 92.0195 30.844 92.2181 30.9477 92.4527C31.0513 92.6873 31.0831 92.9473 31.039 93.2C30.995 93.4526 30.877 93.6865 30.7 93.8722V93.8729Z" fill="black"/>
<path d="M33.8891 85.4116C33.7402 85.4124 33.5948 85.4571 33.4712 85.5401C33.3476 85.6232 33.2513 85.7409 33.1943 85.8785C33.1373 86.0161 33.1222 86.1674 33.1509 86.3135C33.1796 86.4597 33.2508 86.5941 33.3555 86.6999C33.4614 86.8047 33.5958 86.8759 33.7419 86.9046C33.888 86.9333 34.0394 86.9182 34.177 86.8612C34.3146 86.8042 34.4323 86.7078 34.5153 86.5842C34.5984 86.4606 34.6431 86.3152 34.6438 86.1663C34.6439 86.0672 34.6245 85.969 34.5866 85.8774C34.5487 85.7858 34.4931 85.7025 34.423 85.6324C34.3529 85.5623 34.2697 85.5068 34.1781 85.4689C34.0865 85.431 33.9883 85.4115 33.8891 85.4116Z" fill="black"/>
<path d="M35.1863 103.97C35.5419 104.157 37.9906 104.892 38.2963 104.626C39.6842 103.559 41.5507 103.059 40.4316 101.491C39.7364 100.518 39.2341 102.405 38.2809 101.096C37.7179 100.276 38.7779 99.5858 38.1565 98.9345C37.8761 98.6403 37.0404 97.7708 36.9567 97.8453C36.8607 97.8054 34.1532 103.53 35.1863 103.97ZM37.6841 104.112C36.9222 103.971 36.1737 103.766 35.4467 103.498C35.3699 103.421 35.4897 103.421 37.6542 102.546C38.0221 104.41 38.1688 104.213 37.6841 104.112ZM38.1112 104.096C37.9115 101.806 37.2302 102.591 40.215 102.483C40.0421 102.968 38.6627 103.701 38.1112 104.096ZM37.85 99.191C38.0697 99.4629 37.7732 99.6665 37.6265 100.325C37.5739 100.708 37.6599 101.096 37.8691 101.42C38.0782 101.744 38.3965 101.983 38.7663 102.092C39.0091 102.15 39.2034 102.169 39.9569 101.75C40.0613 101.881 40.1451 102.027 40.205 102.183C40.2772 102.413 40.2872 102.35 39.7318 102.296C39.1083 102.199 38.476 102.17 37.8462 102.21C37.0673 97.4774 36.6188 97.6679 37.85 99.191ZM36.9383 98.1741C37.0151 99.1027 37.403 101.26 37.6012 102.279C36.8569 102.577 36.1318 102.92 35.429 103.306C35.472 102.497 36.595 99.9576 36.9383 98.1741Z" fill="black"/>
<path d="M40.7233 103.439C38.0296 105.436 38.3023 105.235 38.1886 105.217C37.1675 105.133 36.1773 104.826 35.2883 104.317C35.2517 104.295 35.2097 104.284 35.1672 104.286C35.1248 104.287 35.0836 104.301 35.0487 104.325C35.0141 104.35 34.9873 104.384 34.9714 104.423C34.9554 104.462 34.9511 104.505 34.9588 104.547C35.2345 105.939 38.8906 109.44 39.085 109.194C39.5128 109.432 42.4362 102.17 40.7233 103.439ZM36.1785 105.647C35.6409 104.931 35.6232 105.28 37.1594 105.575C37.5388 105.689 37.9322 105.749 38.3284 105.755C38.4436 106.837 38.6518 107.906 38.9498 108.952C38.555 108.448 37.3744 107.232 36.1785 105.647ZM40.658 104.151C40.2587 105.787 39.7275 107.389 39.0696 108.94C39.012 107.605 38.4129 105.748 38.4897 105.714C38.621 105.651 40.8262 104.022 40.6588 104.153L40.658 104.151Z" fill="black"/>
<path d="M40.916 83.9867C39.9666 83.8861 39.2707 82.1748 38.8698 81.4819C38.7713 81.2273 38.5955 81.0101 38.367 80.8607C38.1386 80.7113 37.869 80.6374 37.5963 80.6493C36.024 80.4704 34.0838 80.2653 32.8549 79.1531C30.9346 77.4111 31.9385 74.4992 34.1898 73.6152C36.9004 72.5498 39.9551 72.5851 42.8201 72.4262C45.2342 72.2925 48.3557 72.5337 49.1084 75.3879C50.2552 79.7338 43.9154 80.1923 43.2364 80.7115C42.4053 81.3468 42.5658 84.1618 40.916 83.9867Z" fill="white"/>
<path d="M42.0697 82.5167C42.9146 82.8186 42.6381 82.9507 43.0682 81.7256C43.3524 80.9214 43.5345 80.9613 43.97 80.8546C45.8272 80.4006 48.4656 79.6909 49.3535 77.902C50.3582 75.8758 49.4303 72.4755 45.129 71.9478C44.1113 71.8226 37.3775 71.7366 33.9218 73.156C30.5683 74.5332 30.1712 79.237 34.4311 80.5588C35.5886 80.8453 36.7653 81.0473 37.952 81.1618C38.326 81.267 38.4128 81.5643 38.899 82.4376C40.3646 85.0875 41.9714 84.8955 42.7195 82.7448L42.0713 82.5144C40.9422 85.556 39.4951 81.5643 38.9689 80.8246C38.1394 79.6609 34.0025 80.5327 32.646 78.0764C31.9294 76.7791 32.4709 74.6676 35.0816 73.8619C37.2658 73.3049 39.51 73.0176 41.764 73.0062C43.5391 72.9233 46.189 72.6836 47.6829 73.964C48.7844 74.9088 49.3781 77.094 47.7543 78.402C46.7318 79.1256 45.5778 79.6425 44.3571 79.9236C42.7564 80.376 42.7679 80.1955 42.0697 82.5167Z" fill="black"/>
<path d="M36.8465 75.52C36.4981 75.52 36.1639 75.6584 35.9175 75.9048C35.6711 76.1512 35.5327 76.4854 35.5327 76.8338C35.5327 77.1823 35.6711 77.5165 35.9175 77.7628C36.1639 78.0092 36.4981 78.1477 36.8465 78.1477C37.1893 78.1389 37.5151 77.9967 37.7546 77.7514C37.9941 77.5061 38.1286 77.1771 38.1292 76.8342C38.1293 76.4911 37.9952 76.1615 37.7555 75.9159C37.5158 75.6703 37.1896 75.5282 36.8465 75.52Z" fill="black"/>
<path d="M40.7329 75.3802C40.3845 75.3802 40.0504 75.5186 39.8041 75.7649C39.5578 76.0113 39.4194 76.3453 39.4194 76.6937C39.4194 77.042 39.5578 77.3761 39.8041 77.6224C40.0504 77.8687 40.3845 78.0071 40.7329 78.0071C41.0812 78.0071 41.4153 77.8687 41.6616 77.6224C41.9079 77.3761 42.0463 77.042 42.0463 76.6937C42.0463 76.3453 41.9079 76.0113 41.6616 75.7649C41.4153 75.5186 41.0812 75.3802 40.7329 75.3802Z" fill="black"/>
<path d="M44.5551 75.1913C44.2068 75.1913 43.8727 75.3297 43.6264 75.576C43.3801 75.8223 43.2417 76.1564 43.2417 76.5047C43.2417 76.8531 43.3801 77.1871 43.6264 77.4335C43.8727 77.6798 44.2068 77.8182 44.5551 77.8182C44.9035 77.8182 45.2376 77.6798 45.4839 77.4335C45.7302 77.1871 45.8686 76.8531 45.8686 76.5047C45.8686 76.1564 45.7302 75.8223 45.4839 75.576C45.2376 75.3297 44.9035 75.1913 44.5551 75.1913Z" fill="black"/>
<path d="M123.929 41.0929C130.876 38.6934 138.929 42.9325 140.616 50.0865C142.106 56.4078 138.17 63.0587 131.947 65.0404C125.418 67.1189 117.891 63.581 115.801 56.8049C113.768 50.2109 117.719 43.2389 123.929 41.0929Z" fill="white"/>
<path d="M128.108 66.1904C125.754 66.2454 123.428 65.6666 121.375 64.5146C119.321 63.3627 117.615 61.6799 116.434 59.6423C115.254 57.6048 114.643 55.2875 114.666 52.9329C114.688 50.5783 115.343 48.2731 116.562 46.2584C118.195 43.56 120.745 41.5396 123.746 40.5669C131.051 38.0429 139.407 42.5301 141.16 49.9606C141.571 51.9105 141.544 53.9274 141.08 55.8655C140.616 57.8035 139.728 59.6144 138.479 61.167C137.23 62.7201 135.652 63.9763 133.858 64.8451C132.065 65.7138 130.101 66.1733 128.108 66.1904ZM124.114 41.623C114.249 45.0302 112.691 58.6393 122.234 63.6288C131.848 68.6536 142.358 59.9051 140.075 50.2164C138.473 43.4365 130.795 39.3133 124.111 41.623H124.114Z" fill="black"/>
<path d="M121.248 59.331C122.206 60.5246 123.71 60.0108 127.994 60.5446C129.491 60.8188 131.005 60.9985 132.525 61.0823C135.706 61.0707 135.431 55.1326 135.779 52.9052C135.955 51.7738 137.287 47.4287 134.464 46.4117C134.061 46.2905 133.643 46.2224 133.222 46.209C127.1 45.6913 121.887 43.367 121.4 47.3481C120.277 56.4968 119.655 57.3463 121.248 59.331Z" fill="#92FCFF"/>
<path d="M124.711 44.626C124.257 44.5699 123.797 44.6038 123.356 44.7259C122.916 44.8479 122.504 45.0557 122.143 45.3374C121.783 45.619 121.482 45.9689 121.258 46.3671C121.033 46.7653 120.889 47.2038 120.834 47.6577C119.113 61.7084 117.709 59.9418 131.795 61.6715C132.711 61.7818 133.633 61.5246 134.359 60.9564C135.086 60.3882 135.558 59.5552 135.672 58.6398C137.389 44.5876 138.796 46.3435 124.711 44.626ZM132.138 58.8749L124.971 57.9993C124.301 57.9163 123.692 57.5715 123.277 57.0404C122.862 56.5093 122.674 55.8352 122.755 55.1658L123.63 47.9995C123.696 47.4715 123.925 46.9774 124.286 46.5862C124.647 46.1951 125.121 45.9265 125.642 45.8181C137.661 47.2867 136.208 45.4341 134.739 57.4508C134.508 57.9293 134.132 58.3234 133.666 58.5782C133.2 58.8329 132.665 58.9356 132.138 58.8718V58.8749ZM131.925 60.6092C122.308 59.4379 122.106 59.6468 121.286 58.5976C120.466 57.5484 120.698 57.5922 121.9 47.7875C121.967 47.2373 122.222 46.7269 122.622 46.3427C123.021 45.9584 123.541 45.7238 124.093 45.6783C122.659 46.8036 122.876 47.5932 121.962 55.0682C121.856 55.9493 122.104 56.8363 122.651 57.535C123.198 58.2337 124 58.687 124.881 58.7958C132.331 59.7075 133.062 60.1146 134.508 58.9886C134.329 59.5139 133.974 59.9615 133.504 60.2561C133.033 60.5507 132.476 60.6743 131.925 60.6062V60.6092Z" fill="black"/>
<path d="M133.446 51.8077C133.062 48.998 132.893 48.8406 131.573 49.4958C130.481 50.0334 128.678 50.4021 130.805 51.8592C130.948 51.959 131.069 51.6595 129.449 54.3048C128.732 51.0673 128.758 50.5304 128.006 50.5672C127.589 50.5918 127.446 50.8745 127.217 51.1495C124.759 54.1204 123.346 56.5061 125.887 53.9084C128.406 51.3338 127.808 51.2385 128.132 52.7256C128.73 55.4638 128.685 55.4047 128.917 55.5752C129.027 55.6623 129.162 55.712 129.302 55.717C129.441 55.722 129.579 55.682 129.695 55.6028C129.772 55.5501 129.836 55.4815 129.884 55.4016L131.677 52.4721C132.048 52.7141 132.453 52.8992 132.878 53.0228C133.471 53.0228 133.527 52.3953 133.446 51.8077ZM130.709 50.7708C130.951 50.6594 131.337 50.4751 131.754 50.2976C132.455 50.0058 132.276 49.7984 132.455 50.7285C132.532 51.1126 132.647 51.8154 132.673 52.1019C131.973 51.7286 131.315 51.2824 130.709 50.7708Z" fill="black"/>
<path d="M125.338 37.6962C125.594 38.9636 124.647 40.8385 125.293 41.8163C125.48 42.0474 125.738 42.2103 126.027 42.2797C126.317 42.3492 126.621 42.3213 126.892 42.2003C127.43 41.9455 127.899 41.5648 128.259 41.0904C130.369 46.8296 122.51 50.8536 118.188 46.583C116.137 44.5576 116.552 38.492 117.47 40.794C117.658 41.3004 117.964 41.7547 118.363 42.1194C118.761 42.484 119.241 42.7485 119.762 42.8908C120.662 42.9523 121.33 41.8462 120.702 40.6695C120.111 39.565 119.473 38.9352 121.245 38.0258C123.226 37.0096 123.355 37.0226 123.327 36.336C123.307 36.0353 123.348 35.7336 123.446 35.4488C123.626 35.2053 125.087 36.4573 125.338 37.6962Z" fill="#FDFE1F"/>
<path d="M128.675 41.2125C128.49 40.6134 128.277 40.3315 128.214 40.3576C128.138 40.3499 128.061 40.5158 127.927 40.7831C126.937 42.7233 125.008 42.3385 125.561 40.4805C126.197 38.1693 126.573 36.541 123.852 35.2421C123.315 34.9787 123.161 35.0732 123.224 35.7875C123.363 37.3698 121.873 36.8682 120.497 37.849C120.092 38.1045 119.781 38.4848 119.611 38.9326C119.44 39.3803 119.42 39.8713 119.553 40.3315C119.807 41.0666 120.552 41.7294 120.406 42.0981C120.329 42.4875 119.684 42.7587 118.841 42.2441C117.477 41.4068 117.535 39.6556 117.376 39.6456C117.202 39.4881 116.097 40.8054 116.336 43.0129C116.489 44.5258 117.163 45.9385 118.242 47.0091C119.322 48.0796 120.741 48.7414 122.255 48.8811C123.234 48.9719 124.221 48.8236 125.13 48.449C126.039 48.0744 126.844 47.4847 127.476 46.7305C128.107 45.9764 128.546 45.0803 128.755 44.1192C128.964 43.1581 128.937 42.1607 128.675 41.2125ZM117.086 42.9069C116.922 42.1339 116.931 41.334 117.113 40.565C117.116 41.3049 117.394 42.0172 117.894 42.5625C118.394 43.1078 119.08 43.4467 119.817 43.5129C120.086 43.526 120.353 43.4699 120.594 43.3499C120.835 43.2299 121.041 43.0501 121.192 42.8277C121.343 42.6052 121.435 42.3477 121.458 42.0797C121.481 41.8116 121.435 41.5421 121.325 41.297C120.962 40.4598 119.815 39.664 121.094 38.6348C122.003 37.8982 124.412 37.6908 123.629 35.6884C123.524 35.458 123.53 35.4895 123.603 35.5755C124.023 36.0517 124.193 36.1646 124.475 36.5164C126.017 38.4136 123.977 39.9398 124.456 41.6979C124.876 43.3985 127.708 43.5414 128.267 41.2924C128.887 49.1046 118.481 50.2222 117.086 42.9069Z" fill="black"/>
<path d="M25.8093 35.8312C35.5925 32.4516 46.9318 38.4227 49.3067 48.497C51.409 57.3976 45.8649 66.7622 37.1002 69.5534C27.9108 72.4798 17.3081 67.4972 14.3648 57.9552C11.5052 48.669 17.0708 38.8521 25.8093 35.8319V35.8312Z" fill="white"/>
<path d="M31.697 70.9606C23.8087 70.9606 16.2584 66.0449 13.8182 58.1274C10.9356 48.7774 16.2315 38.5319 25.6245 35.2875C25.7551 35.6638 25.974 36.2983 25.6245 35.2875C28.1174 34.4533 30.7573 34.1502 33.3745 34.3976C35.9916 34.6449 38.5279 35.4373 40.8204 36.7238C57.7268 46.033 50.3055 70.9599 31.697 70.9606ZM14.9204 57.7871C17.757 66.9835 28.0056 71.8432 36.9285 69.0012C50.7672 64.5962 54.1713 45.394 40.2643 37.7346C26.04 29.9047 10.5016 43.4546 14.9204 57.7871Z" fill="black"/>
<path d="M39.8878 62.4456C37.9351 63.6093 35.8265 64.4886 33.6256 65.0571C23.4292 67.5818 16.67 47.1936 23.1411 42.8109C24.0121 42.221 29.2536 39.75 31.9027 40.065C41.8019 41.2401 46.7261 58.4715 39.8878 62.4456Z" fill="#FDFE1F"/>
<path d="M29.3819 39.7731C27.8527 40.1234 23.3601 41.8001 22.3155 42.8002C19.3753 45.5131 19.7739 52.0334 21.4153 56.2909C24.2711 63.7107 29.5571 66.2561 32.4259 65.8337C34.8231 65.5357 40.3195 63.5378 42.2175 60.8334C46.4934 53.8038 39.2872 37.5787 29.3819 39.7731ZM27.5869 41.3769C26.311 42.5519 25.5114 44.1549 25.3402 45.881C23.45 46.7259 23.9093 46.8795 21.3969 47.2129C22.0267 43.4285 23.5744 42.8993 27.5869 41.3769ZM21.2886 48.0593C23.7971 47.1199 21.8063 47.6161 25.2488 46.8042C25.1748 48.4894 25.3518 50.1761 25.7742 51.8091C23.7434 52.6179 24.5184 52.7493 21.6012 53.1103C21.2277 51.4539 21.1211 49.7485 21.2855 48.0585L21.2886 48.0593ZM21.7855 53.8676C25.5492 52.4121 23.9101 53.2447 26.0008 52.6532C26.5028 54.4 27.2062 56.0824 28.0969 57.6666C24.8487 58.9808 26.9448 58.3463 23.9047 58.9355C22.9748 57.3479 22.261 55.6433 21.7824 53.8668L21.7855 53.8676ZM24.3502 59.6513C27.7098 58.1666 26.6306 58.9769 28.5486 58.4308C29.3013 59.6882 30.2363 60.8271 31.3229 61.8104C29.0509 63.1753 29.5071 62.6891 27.7014 63.2759C26.367 62.2885 25.2302 61.0589 24.3502 59.6513ZM28.4848 63.769C28.9066 63.5002 29.3491 63.2654 29.8082 63.067C29.885 63.067 31.9942 62.428 32.071 62.3911C33.3317 63.2376 34.8235 63.6731 36.3416 63.6377C32.1209 65.3283 30.5433 64.9266 28.481 63.769H28.4848ZM39.9747 61.7981C28.822 69.7425 19.3576 39.1679 31.7753 40.5389C42.0669 41.6757 45.561 58.4093 39.9708 61.7981H39.9747Z" fill="black"/>
<path d="M39.8025 49.5094C38.8646 47.5239 41.046 52.0825 40.5091 56.3247C40.0198 60.182 37.6295 61.6245 35.7953 61.1544C32.1085 60.215 26.2172 50.4734 28.5315 44.7065C29.7796 41.5074 34.2922 40.6718 38.4775 47.2412C39.1296 48.2805 39.8601 49.756 39.3454 48.461C36.3783 41.022 29.8035 39.9113 27.9677 44.4815C26.3709 48.3358 28.106 55.7954 33.4834 60.5653C38.5313 65.0217 43.4901 57.3094 39.8025 49.5094Z" fill="black"/>
<path d="M35.437 50.7868C36.977 48.8835 36.1014 46.2229 33.8425 46.1629C33.7042 45.2743 33.0851 44.7957 32.9307 44.9194C32.7763 45.0431 32.9976 45.6422 33.1873 46.2182C32.1665 46.3972 32.3116 46.5155 32.261 46.3365C31.8662 44.9678 31.221 45.1383 31.6204 46.5216C31.711 46.8335 31.6741 46.4533 30.9053 47.0823C31.161 47.9272 32.9108 52.0811 32.9108 52.4229C34.7296 58.8157 34.1827 58.1067 35.1797 57.6797C35.2772 57.6589 35.2189 57.6336 35.3187 57.884C35.6797 58.7988 36.5769 59.2666 35.9393 57.6382C35.8687 57.4631 35.8487 57.5161 36.0515 57.4477C36.9425 57.1528 36.8142 57.0099 36.8695 57.1605C37.484 58.8311 37.8895 58.0054 37.497 56.9354C37.3964 56.652 37.3711 56.7488 37.5078 56.6228C39.6861 54.6265 37.6384 51.2101 35.437 50.7868ZM34.7196 47.12C35.765 47.5086 35.9585 49.0878 34.8003 50.0387C34.2926 50.4279 33.7322 50.7429 33.1358 50.9743C32.8639 49.8267 32.6358 48.6201 32.4315 47.6945C33.1673 47.2797 33.9815 46.832 34.7196 47.12ZM35.2273 56.3371C34.5614 55.0689 33.9897 53.7534 33.5168 52.4014C34.1079 52.0279 34.7874 51.8175 35.4862 51.7915C37.7989 52.0527 39.405 55.8447 35.2242 56.3401L35.2273 56.3371Z" fill="black"/>
<path d="M18.1041 45.1512C20.7517 47.7412 25.5123 48.1191 29.8029 44.8816C31.9581 43.2548 32.2124 42.0397 32.2776 39.5818C32.3376 37.3543 32.2892 35.9871 30.3229 33.169C29.9242 34.739 29.279 36.3735 27.9141 37.2552C27.1529 37.7468 26.4939 36.726 26.2658 35.9303C25.5661 33.4877 27.3626 30.7495 24.8118 29.0812C24.735 29.0305 23.0452 26.6686 20.9714 27.3914C21.4158 27.8202 21.7002 28.3881 21.777 29.0009C21.8539 29.6137 21.7186 30.2343 21.3938 30.7595C21.0014 31.458 20.499 32.0887 19.906 32.6275C19.068 33.4493 18.2331 33.5031 18.1793 34.3734C18.0664 36.1953 22.2418 38.7054 20.9483 39.5618C17.4758 41.8599 16.9466 39.144 15.8382 38.5464C15.3774 38.2983 15.4334 38.1723 15.1416 37.8712C14.7491 37.4649 14.7099 38.9166 15.2691 40.1893C15.9135 41.6641 16.6124 43.6926 18.1041 45.1512Z" fill="#D9B343"/>
<path d="M32.6633 37.0479C32.1356 34.3166 30.1631 32.3779 29.9665 32.5722C29.7445 32.659 30.1723 33.6944 29.266 35.1937C28.8658 35.8512 27.918 36.7299 27.3657 36.4995C26.5608 36.3136 26.6975 34.5915 26.782 33.7628C26.9279 32.2504 27.0624 31.0314 26.2628 29.6089C25.8014 28.7446 25.1049 28.0285 24.2539 27.5431C23.4028 27.0578 22.4318 26.8231 21.453 26.8661C20.224 26.9944 20.6772 27.2386 21.125 27.9744C21.4548 28.4971 21.5863 29.1207 21.4956 29.732C21.405 30.3433 21.0983 30.9019 20.6311 31.3064C19.9967 31.8886 18.6525 32.0591 18.0196 33.2896C17.781 33.7334 17.6628 34.2319 17.677 34.7356C17.6911 35.2392 17.8371 35.7303 18.1003 36.16C18.6533 36.8367 19.3139 37.4189 20.0551 37.882C21.4491 39.0695 20.3708 40.1786 18.694 39.9305C16.2269 39.5918 15.1124 37.0018 14.8474 37.1132C14.5563 37.0901 13.4579 43.1458 19.3139 46.6068C25.6245 50.2736 34.3308 45.0821 32.6633 37.0479ZM30.869 42.2932C27.6776 48.6967 16.5372 47.8956 15.097 38.4811C14.9534 37.4304 15.0832 38.9643 16.7162 40.204C19.7248 42.4314 22.8463 40.2385 21.8148 38.0364C21.0467 36.3067 19.0258 36.193 18.9867 34.6714C18.9598 33.0853 20.4138 33.1506 21.3992 32.1029C21.738 31.7945 22.0037 31.4144 22.1771 30.9904C22.3505 30.5663 22.4271 30.1089 22.4014 29.6515C22.3757 29.1941 22.2484 28.7482 22.0287 28.3462C21.8089 27.9442 21.5023 27.5963 21.1312 27.3277C21.9867 27.4351 22.8027 27.7512 23.5073 28.2481C24.212 28.745 24.7837 29.4075 25.1721 30.1773C26.2336 32.3664 24.5929 35.0969 25.9701 36.9649C26.9932 38.4013 29.1669 37.7507 30.1055 35.6231C30.8513 33.901 30.1109 32.8964 30.6201 33.7904C31.3517 35.08 31.7568 36.5289 31.8002 38.0109C31.8436 39.4929 31.5239 40.963 30.869 42.2932Z" fill="black"/>
<path d="M117.1 109.519C126.356 106.321 137.085 111.97 139.333 121.501C141.319 129.922 136.074 138.783 127.783 141.424C119.087 144.194 109.055 139.479 106.272 130.452C103.562 121.665 108.827 112.376 117.1 109.519Z" fill="white"/>
<path d="M122.666 142.956C115.103 142.956 107.89 138.234 105.558 130.672C101.038 116.014 116.903 102.211 131.395 110.189C147.514 119.064 140.562 142.956 122.666 142.956ZM122.502 109.365C106.025 109.365 99.8737 131.717 114.838 139.541C127.646 146.238 141.651 134.581 138.607 121.673C136.904 114.446 129.947 109.365 122.503 109.365H122.502Z" fill="black"/>
<path d="M111.71 132.749C111.752 133.303 111.933 133.838 112.234 134.305C112.536 134.772 112.95 135.156 113.438 135.422C113.878 135.595 114.342 135.702 114.813 135.74C127.343 137.369 130.597 138.551 131.219 134.9C131.603 132.662 133.959 119.274 132.844 117.323C131.627 115.195 124.947 115.352 120.9 114.396C119.76 114.127 118.35 114.366 117.174 114.268C116.652 114.216 116.125 114.269 115.624 114.424C115.123 114.578 114.658 114.831 114.256 115.168C113.388 115.912 113.659 116.551 113.186 119.387C112.898 121.097 111.543 131.442 111.71 132.749Z" fill="#92FCFF"/>
<path d="M134.181 119.088C134.24 118.608 134.204 118.12 134.074 117.653C133.945 117.186 133.724 116.749 133.426 116.368C132.822 115.597 131.938 115.098 130.966 114.979C116.284 113.187 115.895 112.752 114.267 114.027C112.654 115.288 113.051 115.082 110.948 132.278C110.888 132.759 110.924 133.247 111.054 133.714C111.184 134.181 111.405 134.618 111.703 134.999C112.002 135.381 112.373 135.7 112.795 135.938C113.217 136.176 113.681 136.329 114.162 136.387C129.389 138.249 128.265 138.123 128.591 138.123C129.491 138.122 130.36 137.791 131.034 137.194C131.708 136.597 132.14 135.775 132.251 134.881L134.181 119.088ZM116.659 116.947C116.715 116.481 116.908 116.041 117.213 115.684C117.519 115.327 117.923 115.068 118.375 114.941C131.546 116.554 131.476 116.296 132.251 117.286C133.026 118.276 132.817 117.972 130.991 132.906C130.758 133.314 130.41 133.644 129.99 133.854C129.57 134.064 129.097 134.146 128.631 134.088C116.012 132.544 116.363 132.826 115.55 131.783C114.717 130.721 114.927 131.127 116.659 116.947ZM128.321 136.618L114.342 134.91C114.055 134.875 113.777 134.784 113.525 134.642C113.273 134.501 113.051 134.31 112.873 134.082C112.694 133.855 112.562 133.594 112.485 133.316C112.407 133.037 112.386 132.746 112.422 132.459C114.495 115.506 114.188 115.977 115.18 115.2C115.576 114.888 116.068 114.724 116.572 114.733C116.003 115.288 115.641 116.022 115.546 116.812C113.836 130.81 113.472 130.952 114.665 132.472C115.858 133.992 116.155 133.691 128.491 135.196C129.286 135.296 130.091 135.118 130.769 134.691C130.735 134.979 130.645 135.257 130.503 135.509C130.362 135.762 130.172 135.984 129.944 136.162C129.485 136.523 128.901 136.687 128.321 136.618Z" fill="black"/>
<path d="M119.637 122.923C119.33 120.53 120.611 120.936 119.627 118.833C119.421 118.395 120.491 118.121 120.963 118.021C122.115 120.681 123.234 120.286 123.682 121.989C123.931 122.993 124.43 123.917 125.133 124.674C125.837 125.432 126.721 125.998 127.703 126.321C128.476 126.58 129.672 126.398 129.9 127.166C130.504 129.196 127.008 130.859 123.413 128.646C122.404 128.026 121.543 127.192 120.89 126.204C120.238 125.215 119.81 124.095 119.637 122.923Z" fill="#FDFE1F"/>
<path d="M117.295 126.18C118.377 125.169 118.897 124.602 119.579 124.374C120.275 124.143 121.456 124.326 122.49 123.145C123.524 121.963 123.175 121.019 126.001 119.199C126.526 118.861 126.344 118.866 126.538 119.135C128.164 121.392 127.945 121.227 128.481 121.9C128.981 122.529 129.162 122.565 129.204 122.745C129.293 123.133 127.605 124.347 127.36 124.501C126.275 125.183 126.385 125.192 126.145 126.114C125.552 128.379 123.534 127.971 121.982 128.922C119.231 130.611 120.205 131.755 118.54 129.191C116.81 126.52 116.333 127.08 117.295 126.18Z" fill="white"/>
<path d="M130.372 127.666C130.354 125.152 127.837 127.183 125.338 124.303C123.644 122.347 124.57 121.586 122.754 120.006C120.521 118.128 122.128 117.068 120.001 117.962C118.968 118.405 119.24 118.767 119.527 119.379C119.655 119.608 119.722 119.867 119.722 120.129C119.722 120.392 119.655 120.65 119.527 120.88C118.782 123.357 120.186 127.337 123.739 129.252C127.412 131.183 130.424 129.386 130.372 127.666ZM119.951 118.735C120.2 118.58 120.481 118.482 120.772 118.448C121.107 119.23 121.011 118.595 120.13 119.175C120.062 119.032 120.002 118.885 119.951 118.735ZM120.088 121.056C120.315 120.616 120.385 120.111 120.284 119.625C120.598 119.557 120.89 119.407 121.129 119.192C122.188 121.112 122.68 120.128 123.413 122.431C123.729 123.503 124.323 124.472 125.134 125.24C125.946 126.008 126.946 126.548 128.034 126.804C129.718 127.087 128.725 126.736 128.47 127.638C128.424 127.845 128.433 128.059 128.496 128.261C128.558 128.464 128.672 128.646 128.827 128.79C124.922 131.227 118.63 125.416 120.088 121.056ZM129.062 128.623C128.921 127.926 128.849 127.59 129.479 127.163C129.589 127.417 129.608 127.702 129.532 127.968C129.456 128.234 129.29 128.466 129.062 128.623Z" fill="black"/>
<path d="M127.342 127.775C126.786 127.683 126.244 127.519 125.729 127.29C126.14 126.807 126.428 126.233 126.568 125.615C126.687 125.218 126.764 125.241 129.592 123.011C129.165 122.432 127.025 119.489 126.499 118.983C126.371 118.859 126.394 118.704 124.244 120.349C122.985 121.312 123.448 121.061 123.033 122.035C122.792 122.598 122.399 123.084 121.898 123.438C121.239 122.209 121.152 121.459 121.009 121.473C120.835 121.488 120.874 122.585 121.444 123.713C120.959 123.929 120.439 124.057 119.908 124.092C119.389 124.191 119.276 124.35 116.433 126.704C120.463 132.176 120.421 131.769 117.079 126.793C119.629 124.781 119.656 124.682 120.02 124.618C120.638 124.577 121.242 124.41 121.792 124.127C122.558 123.704 123.152 123.026 123.471 122.211C123.855 121.213 123.435 121.553 124.478 120.65C126.866 118.685 126.3 118.968 126.398 118.984C126.475 118.995 125.916 118.425 128.939 122.915C126.598 124.681 126.23 124.885 126.067 125.441C125.954 125.972 125.717 126.469 125.376 126.891C125.034 127.313 124.598 127.648 124.103 127.87C123.638 128.032 123.157 128.146 122.668 128.209C121.888 128.477 116.794 132.938 121.761 129.298C122.059 129.015 122.407 128.791 122.788 128.636C123.71 128.599 124.598 128.271 125.322 127.699C126.769 128.38 128.222 128.131 128.214 127.986C128.207 127.905 127.866 127.868 127.342 127.775Z" fill="black"/>
<path d="M108.296 110.725C108.204 112.729 108.342 113.474 109.65 114.969C111.76 117.384 114.05 117.907 116.089 117.411C120.326 116.38 121.108 111.056 120.136 109.264C119.876 108.787 119.786 110.011 118.784 110.65C117.754 111.307 116.579 110.787 116.608 109.312C116.621 108.643 117.46 105.981 115.03 104.451C114.8 104.306 114.173 104.016 114.015 104.132C113.815 104.278 114.159 104.977 114.113 105.334C114.055 105.785 113.68 106.036 112.183 107.422C109.94 109.5 112.939 110.85 112.603 111.877C112.423 112.425 111.177 112.858 110.049 112.094C109.012 111.39 108.713 110.333 108.555 110.307C108.37 110.275 108.302 110.605 108.296 110.725Z" fill="#FDFE1F"/>
<path d="M121.03 111.812C120.989 109.778 119.972 108.241 119.783 108.367C119.589 108.382 119.33 110.838 117.709 110.407C115.908 109.971 119.129 105.61 114.961 104.162C112.992 103.471 114.067 104.422 113.94 105.253C113.774 106.405 110.795 106.526 110.72 108.91C110.657 110.358 112.268 111.026 112.162 111.587C112.148 112.209 110.864 112.54 109.759 111.492C108.824 110.59 108.792 109.633 108.624 109.654C108.151 109.36 106.773 113.663 110.468 116.679C114.639 120.19 121.182 117.134 121.03 111.812ZM108.932 113.024C108.622 112.268 108.483 111.453 108.526 110.637C108.666 111.389 109.082 112.062 109.691 112.524C110.301 112.985 111.061 113.203 111.823 113.134C112.099 113.098 112.361 112.991 112.584 112.825C112.807 112.658 112.983 112.437 113.096 112.182C113.209 111.928 113.254 111.648 113.228 111.371C113.202 111.094 113.105 110.828 112.946 110.6C112.425 109.818 111.107 109.217 112.217 107.933C113.005 107.016 115.417 106.359 114.251 104.466C114.098 104.244 114.119 104.287 114.204 104.356C114.725 104.768 114.895 104.833 115.266 105.151C117.186 106.796 115.393 108.725 116.207 110.427C116.954 112.089 119.858 111.687 120.008 109.308C122.101 117.198 111.682 120.148 108.932 113.024Z" fill="black"/>
<path d="M92.4419 88.5759C92.8943 89.1274 93.7284 89.079 94.432 89.1996C95.8029 89.5515 96.9953 90.3976 97.7801 91.5753C99.8048 94.1987 100.903 97.4194 100.902 100.733C108.899 98.0258 107.994 98.1026 113.388 98.7293C116.916 100.296 120.097 102.551 122.743 105.361C123.115 102.804 124.37 100.458 126.29 98.7296C128.21 97.0007 130.674 95.9977 133.255 95.8943C133.789 95.8736 134.324 95.9035 134.851 95.9834C135.588 96.2261 136.46 96.3214 136.066 95.6278C134.268 92.4702 133.03 87.2771 134.126 84.6226C134.161 84.5389 135.827 80.9281 135.877 79.5317C135.664 79.5086 132.061 79.0148 131.59 78.8197C130.483 78.2023 129.462 77.4403 128.556 76.5538C125.964 73.834 126.319 70.3231 125.835 69.7608C125.528 69.4067 125.04 70.131 123.109 70.8561C119.237 72.3109 114.34 71.0512 112.09 69.0473C111.448 68.4766 110.957 67.6647 109.255 65.8743C108.821 65.4134 108.52 65.4948 108.272 66.0817C106.073 71.2855 100.878 73.0045 95.7762 72.4261C95.3238 74.2357 97.8638 75.414 96.2309 82.2853C95.9712 83.9793 95.1931 85.5512 94.0034 86.7848C93.4105 87.3723 93.1954 87.9077 92.6209 88.2779C92.5721 88.3125 92.531 88.3569 92.5002 88.4082C92.4694 88.4595 92.4495 88.5166 92.4419 88.5759Z" fill="#FDFE1F"/>
<path d="M135.688 93.773C134.855 91.8741 134.412 89.8272 134.386 87.7538C134.36 85.6804 134.75 83.6228 135.535 81.7033C136.949 78.339 137.429 79.4044 134.178 78.9005C132.365 78.6175 130.685 77.7785 129.369 76.4995C125.929 73.2366 126.66 69.4999 126.074 69.4284C125.871 69.0329 122.89 70.7012 120.349 70.9147C117.931 71.0207 115.542 70.3552 113.528 69.0144C111.634 67.7563 109.052 65.0649 108.734 65.3768C107.877 64.962 105.867 71.9147 98.0226 72.1098C95.1177 72.1866 95.2644 71.6582 95.7544 75.0009C96.375 79.3222 96.0993 82.996 93.5446 86.5584C91.4954 89.4479 91.3579 88.3473 94.2682 89.7283C100.745 92.8006 100.08 100.95 100.896 100.948C101.214 101.508 111.358 95.6303 120.461 103.665C124.68 107.533 122.151 107.053 124.58 102.456C125.978 99.8079 130.325 96.9537 133.867 96.5681C137.279 96.1971 137.128 97.3785 135.688 93.773ZM122.733 105.034C122.191 103.979 121.481 103.019 120.631 102.192C115.444 96.6488 105 96.8999 101.091 100.651C101.6 98.95 101.279 95.2163 99.601 92.488C99.0689 91.5534 98.3552 90.7346 97.5018 90.0801C96.6491 89.4247 95.674 88.9466 94.6338 88.6737C92.2097 88.0546 92.4478 89.1983 94.3949 87.2835C97.1431 84.6266 98.5257 79.833 96.8413 74.749C95.7967 71.6037 95.1384 72.752 97.9473 73.2266C100.001 73.5737 102.112 73.2056 103.928 72.1836C106.616 70.6474 108.598 67.436 108.788 65.7132C109.802 67.4339 111.121 68.9555 112.681 70.2034C116.868 73.358 122.309 73.1153 125.791 69.8501C124.051 74.9564 130.158 81.4483 135.68 79.7731C131.635 83.6258 132.043 91.8912 135.854 95.8262C130.643 93.8929 122.354 99.1927 122.733 105.034Z" fill="black"/>
<path d="M118.387 78.8459C118.502 77.7107 115.771 76.8611 115.184 79.316C113.571 86.0606 113.477 86.7472 112.909 87.7227C112.333 88.7135 111.345 88.0975 112.538 83.7717C113.009 81.9364 113.304 80.0608 113.422 78.17C113.351 77.8402 113.173 77.5434 112.915 77.3265C112.656 77.1096 112.333 76.9851 111.996 76.9725C111.659 76.9591 111.328 77.0582 111.053 77.2544C110.779 77.4505 110.578 77.7324 110.482 78.0555C110.159 80.3531 109.671 82.6245 109.023 84.8524C108.675 84.7755 108.571 84.3085 107.899 82.7486C107.834 82.6432 107.799 82.5216 107.799 82.3975C107.799 82.2735 107.834 82.1519 107.899 82.0465C108.243 81.3291 108.953 80.3629 108.842 79.541C108.556 78.2009 107.878 76.9763 106.893 76.0232C105.05 74.5277 103.311 75.6076 101.832 75.262C101.472 75.1775 101.253 75.6414 101.181 76.004C100.819 77.8343 99.4218 86.8179 99.8335 88C100.211 89.0884 102.484 89.4048 103.626 89.5899C104.243 89.7725 104.902 89.754 105.508 89.5373C106.114 89.3205 106.635 88.9166 106.997 88.384C107.995 87.1451 108.27 85.7672 108.827 85.8263C108.077 91.9603 113.947 92.991 116.07 87.6574C117.017 84.7689 117.791 81.8265 118.387 78.8459ZM104.786 86.45C103.934 87.0383 102.824 87.0506 103.003 85.824C103.139 85.1834 103.224 84.5328 103.258 83.8784C103.251 83.2609 106.696 85.1327 104.786 86.4492V86.45ZM105.492 80.4958C104.964 80.7609 104.358 80.8258 103.785 80.6786C103.766 80.6779 103.747 80.6732 103.73 80.6647C103.704 80.6513 103.684 80.6296 103.672 80.6032C103.66 80.5767 103.657 80.547 103.664 80.5188C103.841 79.6585 103.933 77.8881 104.106 77.8597C105.318 77.6577 106.961 79.4327 105.492 80.4958Z" fill="white"/>
<path d="M124.554 85.692C125.498 84.9454 127.54 82.8731 127.619 81.8977C127.625 81.6685 127.586 81.4404 127.503 81.2265C127.421 81.0127 127.296 80.8174 127.138 80.6521C126.979 80.4867 126.789 80.3545 126.578 80.2633C126.368 80.172 126.142 80.1234 125.912 80.1203C125.228 80.1579 123.011 82.3977 122.541 82.8854C121.84 83.6059 122.22 81.0704 121.865 80.0619C121.778 79.7797 121.618 79.5253 121.401 79.3242C121.185 79.1231 120.919 78.9823 120.631 78.9159C117.52 78.5626 119.55 86.1199 119.396 86.8902C119.17 88.0278 117.225 90.3981 116.78 91.6248C116.102 93.4866 117.807 94.4521 118.881 93.8369C119.626 93.409 119.859 92.4704 120.247 91.7039C120.686 90.8359 121.386 90.1216 121.826 89.2544C122.767 87.3957 122.051 87.6775 124.554 85.692Z" fill="white"/>
<path d="M129.13 82.2931C128.315 82.903 125.117 89.5039 124.66 90.8043C124.389 91.5839 125.687 93.2622 126.925 92.2583C128.077 91.3228 131.241 83.946 131.271 83.83C131.367 83.5503 131.37 83.2471 131.28 82.9655C131.19 82.6839 131.011 82.4389 130.771 82.267C130.53 82.0949 130.241 82.0045 129.946 82.0092C129.651 82.0139 129.365 82.1134 129.13 82.2931Z" fill="white"/>
<path d="M125.515 94.1554C124.649 92.8757 122.909 93.13 122.585 93.9027C122.384 94.2947 122.328 94.7455 122.428 95.1747C122.528 95.604 122.777 95.9839 123.131 96.2469C124.509 97.134 126.334 95.3636 125.515 94.1554Z" fill="white"/>
<path d="M102.345 89.9631C98.5664 88.9884 98.9343 89.3156 99.9905 82.167C100.242 80.458 100.858 77.2136 101.114 75.6859C101.252 74.8702 101.809 74.854 103.213 74.8963C104.03 74.8565 104.844 75.0357 105.569 75.4155C105.521 75.5829 104.627 75.1136 102.006 75.5491C101.732 75.5945 101.837 74.9562 100.937 82.2899C100.928 82.3667 100.158 87.9308 100.399 88.1696C101.675 88.7738 103.059 89.1154 104.47 89.1743C106.237 89.0875 107.501 87.5336 107.85 85.8915C108.026 85.2899 108.051 84.6538 107.921 84.0404C107.791 83.4273 107.51 82.8562 107.105 82.3782C107.412 82.0382 107.675 81.66 107.886 81.253C108.256 80.4464 108.369 79.5455 108.21 78.6724C108.051 77.7992 107.628 76.9961 106.997 76.3718C106.247 75.6805 105.707 75.6114 105.752 75.47C106.305 75.4969 106.835 75.7005 107.263 76.0515C108.189 76.7993 108.799 77.8694 108.971 79.0477C109.143 80.226 108.863 81.4256 108.188 82.4067C108.544 82.9422 108.783 83.5462 108.891 84.1799C108.999 84.8135 108.974 85.4627 108.816 86.0858C108.404 88.2434 106.753 90.1244 104.528 90.2335C103.79 90.2553 103.054 90.1641 102.345 89.9631Z" fill="black"/>
<path d="M103.119 86.5025C103.113 86.5424 103.096 86.5585 103.134 86.5662C103.444 86.5893 103.756 86.5946 104.067 86.5839C105.127 86.5071 105.179 85.5201 105.352 85.5416C105.553 85.5155 105.505 86.9725 104.159 87.2191C103.815 87.2719 103.468 87.2991 103.119 87.3005C102.072 87.3297 102.351 86.302 102.476 85.1499C102.517 84.6368 102.597 84.1275 102.719 83.6267C103.004 82.6574 104.569 83.4731 105.034 83.9778C105.246 84.1644 105.393 84.4152 105.451 84.6923C105.508 84.9694 105.474 85.2578 105.354 85.5139C105.184 85.5339 105.261 84.5323 104.083 84.0861C103.98 84.0469 103.392 83.871 103.42 83.9624C103.444 83.8756 103.152 86.2928 103.119 86.5025Z" fill="black"/>
<path d="M103.827 80.5635C103.821 80.6027 103.805 80.6188 103.843 80.6265C104.153 80.6496 104.464 80.6557 104.775 80.645C105.835 80.5682 105.887 79.5804 106.06 79.6019C106.261 79.5758 106.214 81.0336 104.868 81.2794C104.524 81.3332 104.176 81.3608 103.827 81.3608C102.78 81.39 103.059 80.3623 103.184 79.2102C103.222 78.6763 103.31 78.1471 103.445 77.6294C103.711 76.8299 105.181 77.4259 105.741 78.0373C105.955 78.2237 106.101 78.4744 106.159 78.7516C106.217 79.0288 106.183 79.3173 106.062 79.5735C105.892 79.5934 105.969 78.5903 104.791 78.1456C104.691 78.1072 104.1 77.9305 104.128 78.0212C104.154 77.9374 103.839 80.486 103.827 80.5635Z" fill="black"/>
<path d="M108.614 89.3011C108.291 88.1881 108.275 87.0082 108.569 85.8869C109.014 83.1216 109.614 80.3834 110.366 77.6853C110.852 76.5946 112.347 76.7382 112.316 76.9172C112.324 77.0109 111.774 76.908 111.172 77.3949C110.788 77.7022 110.838 77.9664 110.723 78.6723C109.846 84.032 109.063 87.5322 109.603 88.9148C109.781 89.3681 110.07 89.7696 110.443 90.0822C110.816 90.3948 111.262 90.6085 111.74 90.7036C112.217 90.7998 112.71 90.7746 113.175 90.6303C113.64 90.4861 114.061 90.2274 114.4 89.8779C115.629 88.7296 116.963 83.83 117.396 82.2124C118.134 79.4312 118.566 78.7798 117.721 78.0647C117.558 77.928 117.451 77.8658 117.464 77.8266C117.519 77.6622 118.874 78.1338 118.661 79.4911C118.245 82.1371 117.064 88.7972 115.133 90.6468C114.672 91.1257 114.097 91.4802 113.463 91.6772C112.828 91.8742 112.153 91.9074 111.502 91.7736C110.851 91.6391 110.245 91.3418 109.74 90.9094C109.235 90.4771 108.847 89.9237 108.614 89.3011Z" fill="black"/>
<path d="M112.413 87.7467C112.379 87.8235 112.87 87.1844 113.742 83.8417C115.156 78.4243 115.111 77.8805 116.371 77.6263C117.088 77.4811 117.446 77.7653 117.416 77.8176C117.396 77.899 117.032 77.8068 116.494 78.0303C115.55 78.4236 116.001 78.3153 114.716 84.0767C114.447 85.2865 113.686 88.8258 112.469 89.0486C111.909 89.1515 111.218 88.5662 111.337 87.5316C111.44 85.5768 112.838 80.2347 113.249 78.4359C113.496 77.3605 112.311 77.0395 112.351 76.9235C112.311 76.7115 113.955 77.0003 113.851 78.5104C113.645 80.1057 112.251 87.9087 112.413 87.7467Z" fill="black"/>
<path d="M118.019 94.4751C117.724 94.4529 117.438 94.3605 117.186 94.2055C116.933 94.0506 116.722 93.8375 116.568 93.5841C116.415 93.3306 116.324 93.0438 116.305 92.7479C116.285 92.4521 116.337 92.1559 116.456 91.8844C119.554 84.1743 118.936 89.875 118.739 83.0298C118.691 82.0095 118.717 80.9871 118.816 79.9705C119.161 78.7085 120.635 78.7477 120.621 78.9136C120.613 79.0104 119.453 79.0235 119.265 80.0765C119.214 80.3615 119.4 82.7041 119.424 82.9953C119.838 87.8826 120.155 86.4517 119.117 88.5724C117.672 91.5088 117.398 92.1209 117.357 92.2269C117.293 92.3612 117.263 92.5094 117.27 92.6581C117.278 92.8067 117.322 92.9513 117.399 93.0787C117.475 93.2062 117.582 93.3128 117.71 93.3891C117.838 93.4655 117.982 93.5092 118.131 93.5166C119.093 93.6133 119.142 93.0795 119.922 91.531C120.748 89.5877 121.852 87.7744 123.199 86.1475C124.641 84.5798 127.359 82.7065 127.474 81.7817C127.561 81.0796 127.049 80.671 127.098 80.6027C127.16 80.5166 127.821 80.9637 127.851 81.7986C127.892 82.9784 125.144 85.1014 123.801 86.6782C120.526 90.5133 120.78 94.7171 118.019 94.4751Z" fill="black"/>
<path d="M122.563 82.5318C123.394 81.6544 124.302 80.8522 125.275 80.1346C126.309 79.6953 127.195 80.4296 127.078 80.5863C126.989 80.7038 126.257 80.3005 125.585 80.7453C125.355 80.8951 124.489 82.0088 121.698 84.7601C121.556 84.9244 121.642 80.1577 121.616 80.0263C121.455 79.2291 120.632 79.0655 120.643 78.9141C120.659 78.6945 121.838 78.7644 122.267 79.8143C122.417 80.7138 122.515 81.6209 122.563 82.5318Z" fill="black"/>
<path d="M124.314 90.5033C124.561 89.7805 127.415 84.3993 128.477 82.5689C129.205 81.3138 130.914 82.0389 130.684 82.2018C130.651 82.2786 129.382 81.8907 128.971 82.827C125.676 90.3243 125.137 90.577 125.202 91.2575C125.216 91.4042 125.265 91.5453 125.345 91.6692C125.425 91.793 125.533 91.8961 125.661 91.9699C125.789 92.0437 125.932 92.086 126.079 92.0934C126.226 92.1009 126.373 92.0731 126.507 92.0126C127.118 91.7683 126.803 91.4119 130.954 84.0429C131.106 83.7456 131.162 83.4085 131.113 83.0781C131.065 82.7478 130.915 82.4407 130.684 82.1995C130.726 82.1226 131.252 82.33 131.495 82.9307C131.837 83.7756 131.382 84.4669 130.804 85.7549C130.596 86.2212 127.922 92.0195 127.596 92.4128C127.375 92.6661 127.093 92.8577 126.776 92.9687C126.459 93.0797 126.118 93.1062 125.788 93.0457C125.458 92.9852 125.149 92.8396 124.892 92.6235C124.635 92.4073 124.439 92.1279 124.322 91.8129C124.167 91.3906 124.164 90.9275 124.314 90.5033Z" fill="black"/>
<path d="M121.744 94.7684C121.752 94.308 121.907 93.8623 122.186 93.4961C122.465 93.1299 122.854 92.8626 123.296 92.733C123.579 92.6509 123.876 92.6303 124.168 92.6727C124.459 92.7151 124.738 92.8195 124.986 92.9787C125.234 93.1388 125.444 93.35 125.603 93.5982C125.762 93.8464 125.866 94.1257 125.907 94.4174C125.926 94.7361 125.842 94.899 125.784 94.8959C125.642 94.912 125.608 94.2192 124.881 93.7353C124.648 93.5647 124.368 93.4717 124.079 93.4693C123.791 93.467 123.509 93.5555 123.273 93.7222C123.038 93.8893 122.862 94.1256 122.767 94.3982C122.673 94.6707 122.667 94.9659 122.749 95.2423C122.804 95.4255 122.897 95.5953 123.021 95.7409C123.145 95.8864 123.299 96.0046 123.471 96.088C124.826 96.7201 125.706 94.8967 125.784 94.8959C125.903 94.8959 126.009 95.4336 125.654 95.9413C124.18 98.0627 121.728 96.7793 121.744 94.7684Z" fill="black"/>
<path d="M19.3158 110.127C19.3158 110.127 16.2165 107.416 17.8817 104.123C19.547 100.83 23.2668 99.4744 24.8161 97.3437C26.3653 95.213 30.4723 96.2584 30.8594 98.2347C31.2465 100.211 29.6973 104.2 29.6973 104.2C29.6973 104.2 33.1836 105.285 33.6491 107.493C34.1146 109.702 31.5952 115.279 26.598 116.132C21.6008 116.985 20.3611 116.209 20.3611 116.209C20.3611 116.209 17.1851 113.653 19.3158 110.127Z" fill="white"/>
<path d="M31.801 103.963C29.9522 103.026 30.6412 104.731 31.4991 101.519C32.8609 96.1865 27.5557 93.3161 24.5932 96.0282C23.3535 97.1304 22.8811 98.5007 20.0446 100.692C18.99 101.509 17.6481 102.414 17.0237 103.902C16.6021 104.925 16.4978 106.052 16.7242 107.136C16.9506 108.219 17.4973 109.21 18.2933 109.979C17.367 111.454 17.4408 113.908 19.1889 116.066C19.712 116.664 20.2028 117.29 20.6568 117.943L22.2467 116.953C21.3035 115.439 20.0884 114.659 19.6966 113.07C19.3525 111.727 19.7189 110.571 21.0024 110.093C21.8427 109.862 22.6553 109.542 23.4273 109.138C26.8299 107.242 30.0129 103.608 32.0383 106.647C33.2949 108.487 32.9884 110.503 31.6619 112.211C29.2233 115.301 24.5141 116.16 24.5579 116.509C24.5924 116.822 27.4766 116.751 30.3562 115.145C36.0762 112.103 35.3749 105.778 31.801 103.963ZM21.557 107.947C20.6977 108.135 19.8856 108.495 19.1697 109.006C18.6695 108.4 18.3482 107.666 18.242 106.888C18.1357 106.109 18.2488 105.316 18.5683 104.599C19.3364 102.902 21.6269 102.432 24.4826 99.0061C25.3713 97.9408 25.9197 96.9215 27.2017 96.8117C29.2647 96.6642 31.4446 99.1927 29.161 103.714C26.3806 104.357 23.5363 107.311 21.557 107.947Z" fill="black"/>
<path d="M90.0929 119.361C86.6565 120.69 81.7814 120.36 79.8912 119.875C78.9488 119.541 77.9683 119.326 76.9724 119.236C75.4186 118.762 76.7535 122.809 74.3486 128.056C73.7088 129.451 73.7088 130.137 75.1229 130.708C90.1928 136.797 104.632 123.642 103.054 114.875C102.385 111.155 100.61 107.138 99.0397 110.291C97.1033 114.185 94.1462 117.796 90.0929 119.361Z" fill="#D9B343"/>
<path d="M55.2273 95.4836C56.4401 97.2502 56.0538 100.423 59.8435 103.165C63.0127 105.457 61.4028 104.346 62.9159 105.95C64.6564 107.793 67.9085 108.114 68.8763 110.458C69.0115 110.978 69.225 111.472 69.5092 111.927C69.8932 112.388 70.7934 112.413 71.3687 112.584C75.0909 113.693 76.3728 117.537 76.1593 121.166C76.0825 122.441 76.2569 123.753 75.8521 124.964C75.2724 126.91 74.3811 128.749 73.2129 130.409C69.9432 134.736 64.969 134.717 62.8537 131.821C62.3721 131.163 62.2392 130.838 61.3252 130.635C60.1262 130.371 58.8235 130.586 57.6952 130.098C56.2734 129.483 55.5046 127.93 54.2388 127.038C51.9092 125.398 48.442 126.303 44.5608 121.914C42.1798 119.217 42.6998 116.808 44.0862 115.859C44.4648 115.671 44.811 115.423 45.1116 115.126C45.6561 114.405 45.1423 113.398 45.0593 112.498C45.0535 111.807 45.2458 111.13 45.6133 110.545C45.9809 109.961 46.5084 109.494 47.1332 109.2C49.4374 107.966 52.0597 108.624 51.4644 107.785C45.0686 98.7948 52.4422 91.4243 55.2273 95.4836Z" fill="white"/>
<path d="M103.36 117.15C102.904 116.989 101.145 123.884 93.9892 128.324C88.5403 131.704 80.2542 132.645 74.4797 129.618C76.2536 126.783 77.1385 123.483 77.0205 120.141C80.4759 121.611 84.3224 121.887 87.9527 120.928C91.5829 119.968 94.79 117.826 97.0677 114.841C98.7037 112.664 99.7145 109.755 99.3481 109.614C98.8873 109.435 97.2144 114.413 91.5321 117.579C89.2864 118.793 86.7943 119.48 84.244 119.589C81.6937 119.698 79.152 119.227 76.8108 118.209C76.1726 114.721 74.1371 112.015 70.5125 111.882C70.1203 110.764 69.4993 109.741 68.6891 108.878C67.7349 108.128 66.6868 107.507 65.5714 107.03C63.2769 105.35 61.1608 103.439 59.2561 101.327C56.3228 98.0876 57.7 95.8109 55.5286 94.0574C51.8418 91.0764 45.7539 95.9776 48.6227 103.712C49.1287 105.028 49.7605 106.291 50.5091 107.485C46.4843 106.941 43.4734 109.221 44.6847 114.115C41.875 114.841 41.1684 118.727 42.8098 121.345C44.697 124.354 48.5106 125.953 52.0968 126.741C53.9091 128.752 56.1701 130.307 58.6962 131.281C59.853 131.709 61.0888 131.884 62.3193 131.793C63.1545 132.808 64.2793 133.545 65.5438 133.905C66.8083 134.265 68.1524 134.231 69.3972 133.808C70.9928 133.242 72.4055 132.255 73.4858 130.951C83.0869 136.725 99.3881 131.701 103.067 119.132C103.428 117.897 103.47 117.18 103.36 117.15ZM55.0808 127.228C58.0249 127.553 60.2877 127.354 60.3038 127.056C60.3407 126.49 54.4387 126.399 49.6151 124.257C41.9196 120.841 43.2998 116.222 45.3 115.764C46.5519 115.477 47.8884 116.179 50.3693 117.188C53.4417 118.438 55.3112 119.288 55.448 119.063C55.7383 118.586 49.0859 114.701 46.9137 114.16C46.7395 114.118 46.5637 114.082 46.3868 114.053C46.1973 113.353 46.1231 112.626 46.1671 111.902C46.4421 109.017 49.4307 108.879 52.0883 109.643C55.6215 110.659 59.1548 113.707 59.4866 113.302C59.7239 113.011 56.6485 109.502 52.8096 108.071C50.9116 104.795 48.5851 100.763 50.3732 97.0445C51.109 95.5083 52.4209 94.8685 53.6153 95.1197C56.1346 95.6489 54.378 98.6298 58.1255 102.393C59.0772 103.351 60.0844 104.252 61.1418 105.091C59.1763 104.292 57.6086 103.724 57.5886 103.755C57.2814 104.256 64.4761 107.837 65.9309 108.653C66.6028 108.953 67.2056 109.389 67.7014 109.933C68.1973 110.477 68.5756 111.117 68.8127 111.814C73.5157 123.739 65.268 135.217 55.0808 127.228ZM72.3267 129.904C69.6576 133.13 65.8487 133.311 63.7241 131.566C67.3096 130.672 70.2829 127.484 71.3405 123.338C72.0284 119.957 71.8901 116.459 70.9373 113.143C77.3485 114.522 75.7732 125.743 72.3267 129.904Z" fill="black"/>
</svg>
