<svg width="155" height="154" viewBox="0 0 155 154" fill="none" xmlns="http://www.w3.org/2000/svg">
<path d="M149.986 105.703C149.042 98.3585 146.925 97.8262 143.925 97.3169C134.664 95.79 139.122 99.5037 135.42 93.637C132.216 88.5384 128.021 84.1457 123.795 79.9112C120.859 76.9702 119.052 72.5245 114.816 72.5092C111.724 72.4877 108.796 75.1007 109.126 80.7208C109.452 88.8487 113.917 92.0117 114.74 94.9305C110.635 94.5941 106.565 93.9234 102.57 92.925C96.3523 91.4126 90.2936 85.6366 83.9945 88.7773C81.6649 89.9379 79.5503 92.4058 81.1971 94.6279C81.9283 95.6264 82.6619 96.0419 87.0768 99.0213C85.5522 101.571 84.7334 103.809 87.358 108.602C90.3259 114.015 92.7277 115.313 96.4322 115.991C96.2484 117.456 96.3887 118.943 96.8431 120.348C98.5083 125.063 104.555 127.204 109.407 128.326C114.892 129.595 121.834 131.182 127.356 129.65C129.113 129.165 128.24 128.667 130.674 131.152C132.704 133.226 134.542 135.048 137.279 134.552C143.451 133.43 151.926 120.91 149.986 105.703Z" fill="white"/>
<path d="M150.104 101.388C149.33 99.0836 148.184 97.4475 145.866 96.85C143.244 96.2973 140.551 96.1576 137.885 96.436C134.706 89.7444 129.692 84.2886 124.598 79.104C121.792 76.2175 119.752 71.3686 114.825 71.3325C108.935 71.2718 107.186 77.5801 108.253 83.4268C109.271 89.1007 112.525 92.7307 113.289 93.9496C109.32 93.3144 105.389 92.4558 101.516 91.3781C96.7243 89.7367 91.5082 85.8985 86.1884 86.7972C83.3242 87.3164 80.1205 89.3319 79.506 92.1032C78.7525 95.4912 82.1629 97.1303 85.4887 99.3754C84.2014 101.94 83.8673 104.671 86.3205 109.169C88.5956 113.348 91.0512 116.093 95.4501 116.983C95.312 118.415 95.5181 119.859 96.0512 121.195C96.5842 122.531 97.4289 123.721 98.5147 124.664C103.477 129.145 120.738 133.406 128.762 130.053C131.771 133.125 134.545 137.807 140.456 134.344C149.832 128.429 153.548 112.064 150.104 101.388ZM144.998 127.047C143.212 129.984 139.724 133.923 136.365 133.969C133.996 134.002 131.752 131.225 129.947 129.484C135.417 126.488 138.032 118.554 137.793 118.448C137.664 118.389 137.163 119.268 136.231 120.822C132.509 126.895 129.377 129.836 121.362 129.591C116.916 129.458 104.487 127.566 99.7122 123.348C98.8276 122.607 98.1276 121.672 97.6675 120.614C97.2067 119.557 96.9985 118.407 97.0592 117.255C106.133 118.561 111.316 119.66 111.422 119.227C111.483 118.986 109.531 118.238 106.276 117.36C96.275 114.679 93.9008 116.071 90.393 111.974C88.9582 110.284 86.8597 106.884 86.4311 104.264C86.1878 102.95 86.3917 101.594 87.0103 100.41C95.4055 106.076 94.1313 106.149 108.242 107.476C116.451 108.298 116.473 107.707 108.431 106.183C93.1681 103.377 98.4349 106.022 83.4571 95.7754C82.2597 94.9551 81.0253 93.932 81.3064 92.5102C81.785 90.6161 84.3327 89.0085 86.4995 88.6199C91.0781 87.8464 95.9716 91.408 100.926 93.1301C108.584 95.6233 121.925 96.2462 121.952 95.4651C121.964 95.1732 119.15 94.866 115.237 94.2623C114.514 92.226 109.522 87.4132 109.794 79.8613C109.892 77.627 110.198 75.5508 111.979 74.1452C112.695 73.5817 113.561 73.2427 114.468 73.1709C115.376 73.0991 116.285 73.2978 117.079 73.742C119.768 75.1483 120.229 77.2752 124.244 81.2946C132.681 89.8972 141.231 99.9062 139.399 112.249C139.217 114.246 138.486 116.356 138.641 116.415C138.908 116.515 143.019 108.335 138.421 97.6165C140.36 97.552 145.35 97.744 146.828 98.9922C149.851 101.414 151.722 116.024 144.998 127.047Z" fill="black"/>
<path d="M80.5091 89.9535C79.6811 85.2005 74.7016 87.7944 67.056 85.0945C61.5872 83.1974 61.0088 80.837 53.3164 83.4347C51.4323 84.0707 53.47 83.8641 53.6236 77.3484C53.7558 70.3649 49.5389 67.3532 46.1832 67.8133C43.3758 68.1973 42.0193 70.9287 40.3733 73.2521C35.3807 80.2594 22.1696 86.1345 17.0664 94.0313C13.8688 98.9831 17.0073 97.5683 11.9425 97.8717C9.77646 98.0046 8.20955 98.3326 6.85234 99.8419C4.4244 102.539 4.50121 105.91 5.03043 109.557C6.64342 120.547 11.8104 138.674 21.9922 134.213C24.5438 133.076 25.9094 131.468 27.3227 130.009C32.6041 132.562 38.0583 130.138 43.8843 127.551C46.3913 126.435 45.551 126.608 46.5211 126.992C50.3209 128.482 53.2381 124.559 59.9358 122.792C62.0711 122.235 64.509 121.883 66.3186 120.626C68.9486 118.8 69.9363 114.227 66.2933 110.022C70.6714 106.763 68.394 100.873 64.3577 98.0937C63.0212 97.1597 63.8031 98.0707 67.9109 98.2227C74.1478 98.4455 81.5291 95.4545 80.5091 89.9535Z" fill="white"/>
<path d="M81.6702 89.7628C81.5629 88.9443 81.2396 88.169 80.7335 87.5168C80.2275 86.8645 79.5569 86.3587 78.7906 86.0514C76.59 85.1866 74.9387 85.7757 70.8693 84.9761C62.6231 83.3746 61.9249 79.4904 53.9867 82.5436C55.7333 75.9557 54.7164 68.4944 48.4611 66.7931C42.854 65.2339 40.5858 71.4493 38.5181 73.7197C31.8357 81.4168 18.2482 86.8656 14.6305 97.2763C10.8861 97.1142 7.85905 96.9452 5.60086 99.9339C3.00242 103.339 3.59538 107.699 4.22368 111.762C5.51637 119.817 8.1947 129.318 14.4032 134.493C18.5509 137.565 23.823 135.094 27.0667 131.025C31.7597 133.287 36.2469 132.143 41.4446 129.838C46.4371 127.606 45.2597 127.677 46.1084 128.025C47.9825 128.793 50.1224 128.362 51.9612 127.528C54.3853 126.438 56.3601 124.755 61.9357 123.48C65.9781 122.471 68.9821 121.099 69.4814 116.926C69.9653 112.964 67.4682 110.59 67.5842 110.493C70.2402 108.271 70.3931 104.498 68.7893 101.414C67.28 98.5052 66.0181 98.8731 67.8523 99.0175C74.9033 99.526 82.7609 96.1917 81.6702 89.7628ZM64.6447 120.79C61.9126 121.967 59.1191 121.788 54.4499 124.161C52.3176 125.231 50.3621 126.64 48.1454 126.623C44.0998 126.615 42.0521 120.366 47.7567 114.997C54.0873 116.852 55.1703 116.275 58.6636 114.747C61.6384 113.446 64.3014 112.797 66.5288 111.305C68.5689 113.899 69.0305 118.907 64.6447 120.79ZM79.2799 93.1693C76.8635 97.1956 69.0413 98.3785 64.4366 97.019C60.0769 94.5104 54.8892 94.6824 54.8662 95.0281C54.8247 95.5796 69.0128 96.979 67.9076 106.583C67.7729 107.234 67.4898 107.845 67.0803 108.368C64.6916 110.903 61.7313 111.419 59.0423 112.568C54.6642 114.438 54.5566 114.883 49.1946 113.478C37.6963 110.45 41.3101 105.12 45.2005 104.065C48.756 103.116 51.5058 104.986 53.4905 104.141C54.0704 103.911 59.8273 100.948 59.6406 100.544C59.4532 100.14 53.6134 102.618 53.0174 102.796C51.5872 103.216 48.627 101.362 44.7512 102.31C39.2878 103.692 35.902 110.885 46.3772 114.553C41.9715 118.652 41.7049 123.856 44.2135 126.677C39.0673 128.962 32.8519 131.982 27.7841 129.48C24.2839 127.876 22.2484 124.31 20.3021 121.415C18.9733 119.418 18.8381 119.721 19.6661 121.751C21.0994 125.208 22.9382 128.315 26.0228 130.406C23.1579 133.548 18.726 135.725 15.414 133.15C7.60788 126.244 4.72908 108.25 5.6024 103.895C6.02408 101.651 7.3813 99.6973 9.13561 99.0498C10.8026 98.5772 12.5364 98.3841 14.2665 98.4784C11.9468 107.444 17.6046 117.297 17.7997 117.204C18.0862 117.078 15.8026 112.441 15.0683 107.083C13.0083 91.8674 25.8462 87.3825 36.4981 78.21C42.4385 73.0707 42.0176 70.7787 44.6782 69.0498C47.7713 67.0896 53.1065 69.6688 52.9621 77.3374C52.8407 82.2878 51.2538 86.0238 48.3881 90.0386C46.5039 92.8874 43.771 95.071 40.5766 96.2801C38.108 97.2471 36.4481 97.6089 36.4896 97.8654C36.5457 98.2095 44.2473 98.3032 49.7353 91.0425C51.3644 88.9327 52.6445 86.5751 53.5266 84.0598C58.7496 82.2693 60.2858 82.7771 63.5164 84.314C71.0329 88.03 76.0209 86.9132 78.0863 87.7627C80.1094 88.4694 80.3499 91.3812 79.2799 93.1693Z" fill="black"/>
<path d="M40.2874 113.198C38.4117 104.393 34.5835 102.73 35.0643 102.143C35.241 101.884 40.0477 104.453 41.8374 112.868C43.2345 119.434 41.9411 125.705 41.4856 125.646C40.9625 125.578 41.7045 119.849 40.2874 113.198Z" fill="black"/>
<path d="M29.5938 119.389C35.2147 115.13 34.1256 107.491 33.5487 107.56C33.3529 107.578 33.3406 108.601 33.1032 110.182C31.5809 120.172 23.963 120.348 24.2641 121.233C24.3155 121.387 25.3394 121.328 26.9639 120.804C28.636 120.45 30.3674 120.489 32.0218 120.918C35.0941 121.614 37.0282 123.453 37.3101 123.192C37.7033 122.826 34.6379 119.109 29.5938 119.389Z" fill="black"/>
<path d="M75.8729 31.7527C73.5241 26.8761 44.299 22.6854 42.6561 29.3194C42.1407 31.4033 38.6835 61.0799 38.5737 62.1C37.3363 73.7365 36.062 83.926 43.4718 90.7966C48.4375 95.5173 50.592 93.1554 49.956 98.0827C49.8892 98.6065 46.9244 125.08 46.6225 125.657C45.8137 127.183 41.4379 125.805 35.5182 128.422C30.6462 130.578 59.3221 134.291 62.343 132.221C64.3116 130.899 56.0493 128.941 52.6236 127.554C51.7526 127.197 51.1642 126.988 51.2741 125.941C54.8841 92.61 53.4716 95.366 57.322 93.9189C61.3443 92.2629 64.8582 89.5743 67.5084 86.1251C69.9417 82.8591 70.7766 79.7614 71.5939 75.7182C74.3452 62.1107 74.5818 50.7023 74.8368 50.9765C76.3476 33.4579 76.6971 33.3504 75.8729 31.7527Z" fill="white"/>
<path d="M43.5699 126.303C42.6713 126.398 36.0764 127.282 35.2991 127.961C32.1592 130.707 44.7674 131.639 48.849 132.221C52.406 132.729 59.7559 134.486 62.4542 132.647C62.7745 132.429 62.8521 132.217 62.6078 131.819C61.7506 130.426 60.0501 129.85 58.4847 129.376C50.1509 126.85 51.5012 127.863 51.8645 124.204C52.7233 115.555 53.4913 106.882 54.5129 98.251C54.8777 95.164 56.0645 94.7853 59.2413 93.5364C64.0434 91.6492 68.7064 87.4324 70.3786 82.4368C72.1344 77.1884 75.3312 54.8784 75.5363 51.0219C75.5839 50.1224 75.2874 49.6915 74.4111 49.9273C71.5799 50.6877 70.9938 53.0857 70.44 53.3692C69.8601 53.6664 69.1834 53.0619 68.5398 53.1587C67.5935 53.3039 67.4153 54.7586 66.5151 55.0835C65.7293 55.3662 64.843 54.6227 64.0572 54.9138C63.4427 55.1388 63.2046 55.8747 62.733 56.3286C61.6039 57.417 60.3558 56.324 59.9909 56.2702C59.0078 56.1251 58.6253 57.7043 57.6598 57.937C56.6805 58.1743 55.801 56.887 54.8271 57.1443C54.1181 57.3317 53.7763 58.2603 53.0535 58.3855C52.0934 58.5522 51.4114 57.1881 50.442 57.2711C49.6263 57.3402 49.1708 58.3948 48.3559 58.4823C47.3804 58.5876 46.7014 57.2534 45.7237 57.3386C44.527 57.4462 44.7405 58.8541 41.7795 57.374C39.5812 56.2748 38.6419 57.076 38.4475 59.1191C37.2739 71.4853 37.5205 67.9813 37.5512 75.484C37.5327 76.7974 37.5857 78.1101 37.7094 79.4174C38.0783 82.3671 39.1418 85.1873 40.8124 87.6461C42.4831 90.1049 44.7133 92.1324 47.3197 93.5618C50.6149 95.3422 50.0803 95.5995 49.8598 98.4668C49.7062 100.445 49.7346 100.039 46.4618 124.711C46.3681 125.398 46.8251 125.958 43.5699 126.303Z" fill="#92FCFF"/>
<path d="M75.9972 29.8786C72.0876 26.4099 52.7079 22.5518 44.4087 26.0289C41.9984 27.0443 41.6105 28.3531 41.2426 30.3448C41.2265 30.4331 36.9513 64.7153 36.78 74.4647C36.611 92.2406 48.571 94.1723 49.197 95.5764C49.7423 96.6003 49.3214 96.846 46.1907 122.613C45.8489 125.434 46.0301 125.378 45.1 125.464C30.802 126.881 31.3988 130.171 38.8646 131.784C42.6774 132.582 54.3532 134.45 60.1952 134.004C61.4322 133.946 62.6191 133.498 63.5856 132.724C66.5266 129.474 53.3231 127.204 52.4836 126.141C55.3002 97.9521 55.2672 97.7839 55.6597 96.5795C56.0138 95.3859 57.1052 95.7346 60.4019 93.9019C69.8816 88.6213 71.914 82.0503 73.6192 72.1804C75.577 60.9662 77.6132 34.2252 77.6132 34.1415C77.5963 32.4509 77.2645 30.9885 75.9972 29.8786ZM56.3456 93.736C53.1073 95.0787 53.8424 93.8082 50.8921 124.397C50.5188 128.408 50.5365 127.199 58.4824 130.096C59.7152 130.517 60.9081 131.047 62.0471 131.679C62.2775 131.906 60.6069 132.313 59.3119 132.358C52.1019 132.705 33.6485 129.759 35.9075 128.83C38.4226 127.868 41.0648 127.278 43.7504 127.079C46.766 126.762 46.9849 126.919 47.4565 124.205C50.6886 96.0779 51.4014 95.5879 49.5303 94.1838C48.8951 93.7115 43.2842 91.7759 40.1965 85.4837C38.2394 81.5219 38.1465 78.0662 38.2087 74.4892C38.3531 68.7478 38.9307 63.3519 39.622 57.5705C40.1673 57.7472 40.7311 57.8632 41.3018 57.9154C42.4539 58.0076 42.3855 58.8924 43.5546 58.9815C44.7267 59.0437 44.7728 58.1627 45.9295 58.2234C47.087 58.2487 47.0678 59.152 48.2445 59.1582C49.4212 59.1643 49.4128 58.2818 50.5711 58.2457C51.7294 58.2096 51.7754 59.0906 52.9522 59.0084C54.1289 58.9262 54.0521 58.0452 55.2034 57.9092C56.3548 57.7733 56.48 58.6512 57.6513 58.4538C58.8227 58.2564 58.6583 57.3939 59.7897 57.1396C60.9211 56.8854 61.1385 57.7541 62.2852 57.4254C63.432 57.0966 63.1754 56.2655 64.2707 55.8892C65.366 55.5128 65.6817 56.3462 66.7855 55.8892C67.8892 55.4322 67.5359 54.6333 68.5813 54.1295C69.6266 53.6256 70.0184 54.3876 71.0791 53.8407C72.1068 53.2354 71.6582 52.4735 72.6575 51.8844C73.2375 51.552 73.7916 51.1764 74.3151 50.7606C71.6121 79.6193 70.4009 87.8847 56.3456 93.736ZM75.587 36.657C75.4173 37.8583 75.4057 38.2024 74.4088 49.7813C74.1246 49.491 73.0323 49.895 71.8741 50.6193C70.9255 51.2115 71.3556 51.9435 70.3648 52.528C69.3417 53.0549 68.9499 52.2937 67.9437 52.7792C66.9375 53.2646 67.2901 54.0619 66.2271 54.502C65.164 54.9421 64.8499 54.1049 63.7945 54.4713C62.7392 54.8377 62.9965 55.671 61.8897 55.986C60.7828 56.3009 60.5662 55.436 59.474 55.6787C58.3818 55.9214 58.5469 56.7848 57.4117 56.9768C56.2764 57.1688 56.1513 56.2924 55.0368 56.4238C53.9223 56.5551 54.0006 57.4323 52.8523 57.5152C51.704 57.5982 51.6572 56.7156 50.5288 56.7471C49.4005 56.7786 49.4097 57.6642 48.2576 57.6581C47.1055 57.6519 47.1239 56.7502 45.9902 56.7256C44.8557 56.6665 44.8096 57.5459 43.6583 57.4845C42.1167 57.367 42.9209 56.0136 39.7625 56.4314C39.7717 56.3546 42.9117 30.5207 43.1513 29.5206C44.3035 24.6517 64.581 25.8853 73.8903 30.6359C76.0555 31.7804 76.0041 33.4118 75.587 36.657Z" fill="black"/>
<path d="M72.8345 32.6775C71.5618 31.3795 69.4135 30.8019 67.6177 30.4793C67.2912 30.4224 62.8686 29.7603 62.8248 29.99C62.6896 30.7189 69.7376 31.0699 71.9482 33.5194C73.4129 35.1093 72.7839 37.3391 67.3788 37.2262C56.654 37.1286 41.9128 33.1814 47.2372 30.3548C49.2987 29.2864 53.2091 29.5507 54.8497 29.4447C57.7562 29.3425 57.8391 29.1213 54.8743 28.8302C52.474 28.6712 49.0814 28.1673 46.6918 29.2619C45.2325 29.9685 44.4237 31.3226 45.1042 32.7736C47.7925 37.6048 68.5901 40.5274 72.6249 37.5211C74.1825 36.3959 74.4744 34.3274 72.8345 32.6775Z" fill="black"/>
<path d="M124.79 100.952C119.03 67.5603 113.936 48.8973 113.305 45.2112C113.295 44.4867 113.027 43.7896 112.549 43.2449C107.396 38.5841 77.3784 44.7811 75.9444 55.7648C75.6371 58.132 88.5618 92.4027 91.8023 99.9146C93.1081 102.943 94.8225 109.23 97.7635 110.815C100.347 112.206 110.836 112.377 121.023 106.175C124.783 103.888 125.241 103.562 124.79 100.952Z" fill="white"/>
<path d="M89.3449 94.4391C91.2068 97.5844 91.239 99.9539 91.6615 101.352C91.981 102.413 92.2721 102.877 95.2423 108.5C97.0803 111.981 98.2509 111.558 102.144 111.623C105.431 111.677 106.542 112.586 112.163 110.722C115.427 109.64 121.828 107.118 124.341 104.783C124.627 104.582 124.843 104.295 124.958 103.965C125.073 103.634 125.082 103.275 124.982 102.94C124.348 98.4132 124.012 93.661 122.931 89.2253C121.856 84.8064 120.991 80.3454 120.181 75.8712C117.921 75.2299 116.66 76.223 115.908 76.1616C114.942 76.0848 114.287 74.8036 113.334 74.9779C112.778 75.0793 112.392 75.6646 111.829 75.723C110.884 75.8213 110.37 74.4326 109.425 74.3404C108.618 74.2636 107.953 75.1807 107.149 75.0701C106.483 74.978 106.132 74.2513 105.604 73.8335C104.398 72.8826 103.282 73.918 102.916 73.9618C102.111 74.0593 101.836 72.8096 101.084 72.5093C100.037 72.0853 98.8623 73.7206 97.9014 73.1238C97.4352 72.835 97.3592 72.1698 96.9551 71.7996C96.0181 70.9416 94.5618 72.219 93.9727 72.2059C92.9964 72.1829 92.8973 70.5253 91.9641 70.2365C91.325 70.0391 90.6806 70.6052 90.0139 70.5591C89.0054 70.4892 88.5461 69.1397 87.5737 68.8693C86.6789 68.6174 85.5406 69.3302 84.8754 68.6773C84.4384 68.251 84.5221 67.4576 84.0489 67.0705C83.4437 66.5743 82.5128 67.1473 81.7631 66.9291C80.5234 66.5758 80.5088 64.4229 77.9902 64.386C81.4228 74.7552 80.134 70.4908 82.5389 76.7138C83.6426 79.5642 85.0674 87.2129 89.3449 94.4391Z" fill="#D9B343"/>
<path d="M98.6754 55.9399C97.6645 55.6196 95.9102 56.41 91.6489 57.4707C89.5581 57.9907 83.0516 59.5015 80.9809 58.9147C79.4931 58.493 78.4876 57.4315 78.7703 55.9345C79.692 51.0472 92.8263 46.5077 93.0099 47.0247C93.0867 47.2551 80.5669 52.2477 80.0699 56.1312C79.5814 59.9109 92.0936 55.5036 96.7989 54.4575C99.1393 53.9367 99.6255 54.5089 102.676 56.3823C103.144 56.6496 103.597 56.943 104.031 57.261C104.027 56.9292 103.303 54.1556 102.719 52.1786C104.413 51.4724 105.997 50.5272 107.424 49.372C109.557 47.8166 110.019 46.57 107.515 45.8057C103.927 44.7097 95.8864 46.7274 95.7942 46.3641C95.6698 45.8779 101.968 44.7657 103.902 44.5084C108.99 43.8317 113.286 46.5654 108.244 50.4611C107.085 51.4293 105.829 52.2746 104.495 52.9835C104.792 53.6909 105.163 55.7033 106.723 61.1068C106.282 60.7904 100.513 56.5229 98.6754 55.9399Z" fill="black"/>
<path d="M126.005 100.741C122.962 84.8414 121.026 73.7279 114.638 47.8087C113.617 43.6749 114.034 42.8692 111.345 41.8253C102.022 38.3113 73.7085 45.3286 74.7708 56.9959C74.843 58.1626 88.4628 96.7737 93.1228 106.773C95.477 111.829 97.3719 112.896 102.216 112.836C109.976 112.768 117.528 110.315 123.848 105.811C126.128 104.215 126.435 103.274 126.005 100.741ZM76.4383 56.7754C76.2425 54.6947 77.7441 52.362 79.3571 50.802C88.2254 42.4482 110.501 40.5257 112.426 43.9045C112.744 44.466 119.156 74.2764 119.338 75.1228C116.702 74.4361 117.374 75.7334 115.897 75.5706C114.796 75.417 114.922 74.5467 113.834 74.3824C112.747 74.218 112.605 75.0836 111.508 74.8939C110.41 74.7042 110.57 73.8332 109.485 73.6319C108.399 73.4307 108.23 74.2894 107.14 74.0736C106.049 73.8578 106.228 72.989 105.143 72.7594C104.057 72.5297 103.873 73.3908 102.785 73.1526C101.698 72.9145 101.891 72.0504 100.808 71.8085C99.7237 71.5665 99.5287 72.423 98.4433 72.1764C97.358 71.9298 97.5539 71.0688 96.4678 70.8207C95.3817 70.5726 95.1966 71.4352 94.1182 71.1571C93.0398 70.8791 93.2879 70.0165 92.2464 69.7093C91.2095 69.3867 90.9353 70.2193 89.8845 69.8629C88.8422 69.4789 89.1502 68.6616 88.1402 68.263C87.1371 67.849 86.7876 68.6708 85.7752 68.2161C84.7629 67.7614 85.1439 66.9588 84.1715 66.4779C83.1991 65.9971 82.7935 66.7621 81.818 66.2345C80.6551 65.5793 81.5484 64.4156 78.7349 63.5991C78.1396 61.8587 77.6834 60.5475 76.4383 56.7754ZM124.399 102.463C124.316 103.355 123.564 103.846 122.814 104.359C121.47 105.319 120.058 106.18 118.59 106.935C109.926 111.433 100.616 111.511 98.1799 110.435C96.5039 109.449 95.6575 107.843 94.8003 105.999C92.0352 100.085 82.381 74.2295 79.3947 65.5247C80.7212 66.3958 80.0468 66.9534 81.0899 67.541C82.0938 68.084 82.5024 67.3106 83.5009 67.8129C84.4994 68.3152 84.1223 69.1071 85.1615 69.5795C86.2007 70.0519 86.5518 69.2239 87.5841 69.6494C88.6225 70.0603 88.3145 70.8783 89.386 71.2731C90.466 71.6395 90.7409 70.8061 91.807 71.1379C92.8824 71.4544 92.6343 72.3139 93.7372 72.6035C94.8402 72.893 95.053 72.0236 96.1345 72.277C97.2159 72.5305 97.0231 73.3861 98.1092 73.6342C99.1953 73.8823 99.3919 73.0198 100.478 73.2663C101.564 73.5129 101.372 74.3731 102.464 74.6128C103.555 74.8524 103.742 73.9883 104.832 74.2211C105.921 74.4538 105.743 75.3148 106.841 75.5399C107.938 75.7649 108.11 74.8931 109.204 75.1005C110.299 75.3079 110.142 76.1758 111.25 76.3679C112.357 76.5599 112.502 75.6827 113.603 75.8586C114.704 76.0345 114.579 76.9002 115.697 77.053C116.895 77.1851 116.557 76.3356 118.411 76.4385C118.811 76.4639 119.212 76.4531 119.61 76.4063C119.868 77.603 124.504 101.295 124.399 102.463Z" fill="black"/>
<path d="M110.707 82.0696C115.516 76.7836 110.777 62.5601 101.337 61.4763C98.5716 61.1598 94.8848 63.0125 92.3655 64.339C85.0509 68.184 90.7724 86.748 100.919 86.6389C103.273 86.6136 109.316 83.5981 110.707 82.0696Z" fill="#FDFE1F"/>
<path d="M100.457 60.955C98.1618 60.9711 95.3829 62.3276 93.309 63.343C91.6384 64.2009 90.3135 64.6579 89.358 67.1066C86.5606 75.0909 92.3681 86.6591 100.55 87.1015C103.014 87.2889 108.231 84.6828 110.505 82.9162C117.031 77.8591 110.526 60.5725 100.457 60.955ZM96.2324 63.1179C94.9681 64.3292 94.1809 65.9543 94.0141 67.6973C92.1769 68.6113 92.6162 68.8018 89.9041 69.3287C90.5262 65.4498 92.2921 64.8469 96.2324 63.1179ZM89.7966 70.2112C90.1468 70.0576 91.802 69.2419 91.9019 69.2419C92.5394 69.0115 93.3428 68.8287 93.9289 68.6574C93.8843 70.3126 94.0971 71.9648 94.5595 73.5547C92.4641 74.4941 93.3444 74.5855 90.1914 75.1746C89.7826 73.554 89.6492 71.8761 89.7966 70.2112ZM90.4041 75.9466C94.2384 74.2391 92.9135 75.0625 94.8191 74.4104C95.3721 76.0939 96.1295 77.7033 97.0742 79.2025C96.522 79.4567 95.6655 79.9552 94.9305 80.2279C94.8314 80.3277 93.0264 80.7026 92.683 80.7909C91.6953 79.2934 90.9274 77.662 90.4026 75.9466H90.4041ZM93.1792 81.4983C93.2829 81.4469 94.9105 80.595 95.0626 80.595C95.9167 80.2978 97.0673 80.1342 97.5781 79.956C98.3831 81.1419 99.3678 82.1952 100.497 83.0783C98.1426 84.6229 98.6887 84.0607 96.724 84.8119C95.33 83.9579 94.1232 82.8308 93.1762 81.4983H93.1792ZM97.5865 85.262C98.0205 84.9609 98.476 84.6936 98.9507 84.4624C99.0275 84.4624 101.236 83.6682 101.313 83.6259C102.656 84.3496 104.178 84.6697 105.698 84.5476C101.254 86.5562 99.6381 86.2159 97.585 85.2635L97.5865 85.262ZM109.441 82.4861C97.85 90.8583 87.0768 61.2868 101.564 61.9988C103.315 62.247 104.971 62.9445 106.373 64.0235C112.105 68.3317 114.61 78.7547 109.44 82.4876L109.441 82.4861Z" fill="black"/>
<path d="M109.178 70.2459C107.614 67.2619 112.303 75.7224 108.732 80.4461C104.828 85.7882 98.0176 77.2593 96.9469 70.7743C95.7909 63.5543 102.15 60.3152 107.734 68.0369C108.481 69.0868 108.802 69.7343 108.852 69.7074C108.633 69.0651 108.33 68.4544 107.951 67.8909C103.842 61.4251 98.3241 62.2624 96.794 65.9707C94.7117 70.7943 98.066 78.2601 102.885 81.7818C108.126 85.6108 113.113 77.7639 109.178 70.2451V70.2459Z" fill="black"/>
<path d="M102.827 73.3963C104.512 73.6743 105.357 72.3302 105.796 70.678C104.455 68.6294 102.895 66.7333 101.143 65.0233C100.733 67.5701 100.549 70.1481 100.593 72.7273C101.004 73.3794 102.067 73.2711 102.827 73.3963ZM101.606 66.611C102.868 67.8996 104 69.3095 104.985 70.8201C104.792 71.4456 104.452 72.0159 103.994 72.483C103.631 72.8064 103.072 72.6658 102.598 72.6243C102.172 72.5977 101.748 72.5337 101.333 72.4331C101.276 70.4883 101.368 68.542 101.606 66.611Z" fill="black"/>
<path d="M101.203 74.735C101.346 75.1667 105.695 79.8213 106.618 79.8213C106.712 79.8097 106.805 79.7891 106.895 79.7599C107.322 78.5579 107.387 77.2571 107.082 76.0185C106.893 74.6913 106.923 74.3994 106.682 73.3179C106.552 72.7477 106.458 72.1697 106.402 71.5874C105.966 72.0377 105.612 72.5613 105.358 73.1343C104.467 74.9885 104.104 74.3955 100.742 73.9024C101.143 74.6421 101.135 74.6298 101.203 74.735ZM102.339 74.9247C103.075 75.1249 103.846 75.1624 104.598 75.0346C106.058 74.6805 105.887 72.4561 106.126 74.3763C106.412 76.676 106.67 77.8542 106.396 78.9311C104.912 77.7349 103.553 76.3915 102.339 74.9217V74.9247Z" fill="black"/>
<path d="M94.3594 31.505C94.8565 31.1372 95.3909 30.8229 95.9539 30.5671C99.3543 29.2476 101.239 32.4374 99.7859 33.8822C98.8235 34.84 96.0991 35.2993 93.1865 36.7503C92.8885 36.8985 88.3767 39.1866 88.0557 39.2719C88.3629 38.7135 88.6379 38.1374 88.8806 37.5483C91.0397 34.3016 91.5789 33.3645 94.3594 31.505Z" fill="#D9B343"/>
<path d="M82.587 37.8007C82.9342 35.6631 83.3297 33.4157 84.7069 31.7443C86.389 29.7027 89.019 30.5369 88.098 34.024C87.4106 36.6271 85.8498 39.1095 82.3903 41.6465C81.5839 42.238 82.1 40.794 82.587 37.8007Z" fill="#D9B343"/>
<path d="M85.4792 31.9374C82.8792 35.095 82.5682 41.9924 81.9283 41.8841C81.6065 41.8296 82.0382 31.7292 85.8302 30.1239C87.7989 29.2905 90.2675 31.4619 87.9548 35.9767C85.831 40.1244 82.0835 42.1729 81.9283 41.8841C81.7816 41.669 87.6583 37.0851 87.6053 32.6064C87.5869 31.0663 86.4247 30.7891 85.4792 31.9374Z" fill="black"/>
<path d="M99.3644 31.5486C97.0255 29.3327 92.7719 33.1578 90.6788 35.651C88.8154 37.87 88.0435 39.5498 87.8553 39.4592C87.7178 39.4108 88.1917 37.5628 89.9553 35.0911C97.1308 25.0345 103.623 31.3497 100.069 34.4228C99.1762 35.0572 98.1784 35.5296 97.1216 35.8184C92.9685 37.383 88.0012 39.7534 87.8553 39.4592C87.6065 38.9584 94.6913 35.5673 96.6799 34.7116C97.8005 34.2285 99.6824 33.7331 99.7861 32.5034C99.7937 32.3226 99.7596 32.1424 99.6864 31.9769C99.6133 31.8113 99.5031 31.6648 99.3644 31.5486Z" fill="black"/>
<path d="M75.5723 25.1548C75.5723 25.1548 76.0999 18.5792 73.8886 16.2304C72.7365 15.0083 71.2487 15.3747 71.3293 17.4424C71.4538 20.6369 72.8578 18.9548 68.3699 16.3994C66.8821 15.5545 63.8074 14.3777 62.9449 15.8202C62.3527 16.8087 63.4825 18.9509 64.3005 19.6276C65.4965 20.3724 66.7622 20.9991 68.0795 21.4987C69.4391 22.0095 69.9875 21.6131 73.2019 23.614C73.6067 23.866 75.573 25.1548 75.573 25.1548H75.5723Z" fill="#92FCFF"/>
<path d="M75.9193 22.7026C75.8524 20.1395 75.97 18.2316 74.9039 16.6017C73.3754 14.2674 70.5004 15.057 70.8138 17.5341C70.8337 17.6778 70.8645 17.8199 70.9059 17.9589C69.6401 16.3868 67.9016 15.2643 65.9479 14.7575C62.3702 13.9694 61.3778 16.2069 62.6882 18.4796C63.7635 20.3538 65.6914 20.9944 67.6308 21.6672C70.2946 22.6542 72.8867 23.8248 75.3885 25.1705C75.6381 25.2711 75.7157 25.2696 75.7994 24.8847C75.9167 24.1637 75.9568 23.4322 75.9193 22.7026ZM67.991 20.681C66.3435 20.0489 64.5707 19.452 63.6744 17.9105C63.338 17.3314 63.0806 16.3152 63.5699 15.9227C63.9263 15.577 65.2459 15.6922 65.7405 15.7867C69.3352 16.4511 71.6879 19.9836 72.3814 20.5781C72.5635 20.797 72.701 20.9229 72.7448 20.903C73.0382 20.7701 71.7908 18.376 71.7539 17.4466C71.6963 15.9595 73.1741 16.0056 73.9568 17.2361C74.7856 18.5419 74.6995 20.0719 75.1151 22.7664C75.2802 23.8417 75.397 24.6236 75.5068 24.9846C73.2674 23.129 70.7249 21.6731 67.991 20.681Z" fill="black"/>
<path d="M141.643 30.1653C141.643 30.1653 142.813 62.6194 143.25 70.2374L146.061 70.116C146.209 70.1097 146.355 70.1449 146.483 70.2174C146.611 70.29 146.717 70.3971 146.787 70.5265C146.857 70.6559 146.89 70.8025 146.882 70.9496C146.873 71.0967 146.823 71.2385 146.738 71.3588C142.718 77.0227 142.871 77.038 142.3 77.038C141.791 77.038 142.03 77.1294 137.265 71.782C137.166 71.6706 137.101 71.5336 137.077 71.3867C137.052 71.2398 137.07 71.089 137.128 70.9517C137.186 70.8147 137.282 70.6969 137.405 70.612C137.527 70.5271 137.671 70.4784 137.82 70.4716L140.599 70.3518C139.976 59.4672 139.846 51.3946 139.336 37.8163C135.477 43.1637 132.916 46.6723 129.207 51.7648C126.95 43.3373 127.096 44.0032 126.55 41.8334C126.412 41.285 127.075 40.662 123.207 45.2698C122.792 45.7637 121.866 46.9389 120.96 48.0795C118.298 43.4372 114.317 34.8253 114.955 34.5358C115.279 34.3891 117.277 38.3801 120.341 43.4456C121.289 45.0133 121.14 44.7782 121.36 44.4341C121.86 43.6522 123.162 42.1299 127.553 36.2325C127.913 37.602 128.628 40.4047 128.944 41.5246C129.643 43.9979 130.291 45.8751 130.291 45.8751C130.291 45.8751 141.144 30.597 141.643 30.1653ZM142.289 28.0623C142.289 28.0623 141.809 27.7351 130.673 43.3296C129.862 40.6152 129.702 39.8425 128.062 33.6064C121.144 42.9003 125.998 36.383 121.222 42.6606C116.578 34.9551 116.132 32.763 114.487 33.4743C113.279 33.9966 113.642 35.2593 114.916 38.4446C116.578 42.4882 118.547 46.3987 120.805 50.1418C126.518 42.9463 125.837 43.7382 125.991 44.3143L128.714 54.4124L138.3 41.2312C138.698 52.4361 138.852 59.7668 139.375 69.2427L137.771 69.3118C137.495 69.3236 137.225 69.3938 136.979 69.5177C136.733 69.6415 136.516 69.8162 136.342 70.0303C136.168 70.2443 136.042 70.4928 135.971 70.7593C135.901 71.0257 135.888 71.3042 135.933 71.5761C135.992 71.9402 136.155 72.2797 136.4 72.5547C143.222 80.2118 141.842 80.2625 147.685 72.0308C147.895 71.7335 148.018 71.3832 148.039 71.0197C148.06 70.6563 147.979 70.2942 147.805 69.9744C147.631 69.6546 147.371 69.3899 147.054 69.2104C146.737 69.0308 146.377 68.9436 146.013 68.9585L144.346 69.0307C143.825 59.574 143.028 33.8967 143.034 33.4566C143.09 28.8319 142.285 28.0623 142.285 28.0623H142.289Z" fill="black"/>
<path d="M146.058 70.1156L143.247 70.2369C142.841 63.1651 141.64 30.1649 141.64 30.1649C141.28 30.4783 130.175 46.0206 130.308 45.834C130.246 45.9192 130.385 45.4975 130.345 45.5736C130.334 45.5582 130.231 45.8908 130.21 45.8462C128.552 40.2853 128.981 41.6678 127.55 36.2336C121.812 43.9452 122.108 43.2532 121.174 44.721C120.237 43.6272 115.303 34.3794 114.953 34.5346C114.453 34.755 117.186 40.8222 117.693 41.8929C118.79 44.2171 119.69 45.8701 120.958 48.0783C122.549 46.0721 125.874 42.0181 126.484 41.4174C126.674 42.6187 128.269 48.2688 129.205 51.7636C132.936 46.6397 135.401 43.2632 139.334 37.8151C139.861 51.948 139.98 59.5897 140.597 70.3506L137.817 70.4704C137.669 70.477 137.525 70.5256 137.403 70.6106C137.28 70.6956 137.185 70.8135 137.127 70.9506C137.069 71.0877 137.051 71.2385 137.075 71.3854C137.099 71.5323 137.164 71.6694 137.263 71.7808L141.71 76.7734C141.829 76.9059 141.99 76.9943 142.165 77.0243C142.341 77.0542 142.522 77.024 142.678 76.9385C142.782 76.8809 142.871 76.801 142.939 76.705L146.734 71.3576C146.82 71.2375 146.87 71.0958 146.878 70.9487C146.887 70.8016 146.854 70.655 146.783 70.5257C146.713 70.3961 146.608 70.2889 146.48 70.2163C146.352 70.1438 146.205 70.1089 146.058 70.1156Z" fill="#D9B343"/>
<path d="M33.4628 23.0581C34.1087 23.0581 33.9881 23.1695 37.3708 29.2797C37.4435 29.4094 37.4777 29.5571 37.4694 29.7055C37.4612 29.8539 37.4109 29.9969 37.3243 30.1178C37.2378 30.2386 37.1186 30.3324 36.9808 30.388C36.8429 30.4436 36.6921 30.4588 36.5459 30.4318L33.9398 29.9556C33.1717 32.7054 32.4758 38.2686 31.849 41.053C30.7345 46.0033 30.236 49.1502 29.597 52.8508C26.5016 49.7785 27.2159 50.4959 26.2942 49.5327C21.9691 45.014 20.8615 42.6306 20.7455 42.7474C20.7732 42.1114 20.5804 45.5762 20.0704 50.4628C19.6925 54.0859 17.7807 67.8009 17.422 71.2112C16.8498 76.6647 16.6086 79.8423 15.8505 79.8423C14.9902 79.8423 17.1647 62.2707 18.5672 34.2945C21.3669 38.8969 23.6658 42.9309 27.8726 47.369C27.8887 47.2822 31.0786 30.4095 31.3344 29.4848L28.4763 28.9686C28.332 28.9426 28.1979 28.8765 28.0892 28.778C27.9806 28.6795 27.9018 28.5525 27.8618 28.4114C27.8217 28.2703 27.8221 28.1208 27.8629 27.9799C27.9036 27.839 27.9831 27.7124 28.0923 27.6145C33.3214 22.9153 33.0449 23.0581 33.4628 23.0581ZM32.1701 22.3991C27.2105 26.854 26.3088 27.179 26.7481 28.7274C27.1537 30.1553 28.4579 30.1392 29.9188 30.4034C29.3466 33.0049 30.0525 30.2313 27.1706 44.8588C23.6305 40.7311 22.2671 38.1603 17.5963 30.4879C15.3113 76.0832 12.9578 80.9975 15.8443 80.9975C17.7937 80.9975 17.8291 78.3752 18.5641 71.3334C19.3023 64.2669 20.8776 55.2542 21.6503 45.9226C24.4723 49.5549 26.8196 51.7248 30.3543 55.2342C31.3528 49.4382 34.7785 31.3635 34.7954 31.2852C35.4176 31.438 36.0497 31.5402 36.688 31.5924C37.0245 31.591 37.355 31.502 37.6467 31.3342C37.9385 31.1664 38.1815 30.9255 38.352 30.6353C38.5225 30.3451 38.6145 30.0156 38.619 29.679C38.6235 29.3425 38.5404 29.0106 38.3778 28.7159C35.0573 22.7187 34.9744 21.9006 33.462 21.9006C32.9844 21.9003 32.5237 22.0781 32.1701 22.3991Z" fill="black"/>
<path d="M37.3708 29.2779L34.1494 23.4619C34.0923 23.3589 34.0127 23.2701 33.9165 23.2021C33.8203 23.1341 33.7101 23.0887 33.5939 23.0691C33.4778 23.0496 33.3587 23.0564 33.2456 23.0892C33.1325 23.1219 33.0282 23.1798 32.9405 23.2583L28.0892 27.6149C27.98 27.7129 27.9006 27.8395 27.8598 27.9804C27.819 28.1213 27.8187 28.2708 27.8587 28.4119C27.8987 28.553 27.9775 28.68 28.0862 28.7785C28.1948 28.877 28.3289 28.943 28.4732 28.9691L31.3313 29.4852C30.577 32.1997 29.8934 37.7269 29.2751 40.4782C27.6852 47.5446 27.9794 47.4924 27.8081 47.308C23.3831 42.552 21.8869 39.7577 18.5641 34.295C17.1362 62.8142 14.9802 79.8428 15.8474 79.8428C16.6063 79.8428 16.8459 76.6621 17.4189 71.2117C17.7776 67.8014 19.6871 54.0833 20.0673 50.4633C20.6303 45.0375 20.7117 42.5896 20.7586 42.7586C20.7017 42.6818 22.4053 45.7081 29.6 52.8513C30.8589 45.5468 33.6817 30.8824 33.9397 29.9546L36.5459 30.4269C36.6916 30.4531 36.8417 30.4375 36.9789 30.3819C37.116 30.3263 37.2347 30.233 37.321 30.1127C37.4073 29.9925 37.4578 29.8503 37.4666 29.7025C37.4754 29.5548 37.4422 29.4075 37.3708 29.2779Z" fill="#92FCFF"/>
<path d="M66.6512 69.1965C71.7605 63.2139 66.7602 49.6955 58.8604 47.468C55.1621 46.4249 52.1719 47.6477 47.697 49.7723C40.2596 53.2993 44.3558 72.0469 54.7504 73.7367C55.4416 73.8888 56.1575 73.8972 56.8526 73.7597C59.4257 73.282 64.6027 71.2788 66.6512 69.1965Z" fill="#FDFE1F"/>
<path d="M56.4459 46.5653C54.0141 46.4823 51.0155 47.7942 48.7596 48.7858C46.9492 49.623 45.5198 50.0501 44.403 52.6094C41.0864 60.9547 46.7426 73.4791 55.4051 74.3064C58.0035 74.6136 63.6413 72.0851 66.1484 70.3016C73.2755 65.2291 67.1745 46.6091 56.4459 46.5653ZM51.8703 48.6752C50.4758 49.9052 49.5695 51.5952 49.3164 53.4374C47.559 54.2224 47.7703 54.5519 44.8846 54.9881C45.701 50.9634 47.4753 50.3904 51.8703 48.6752ZM44.7317 55.9168C45.2886 55.704 46.8747 54.9805 47.0068 54.9805C47.6927 54.7669 48.5537 54.6049 49.1828 54.4482C49.063 56.2022 49.2164 57.9642 49.6375 59.6712C47.4484 60.5468 48.3279 60.7081 44.9337 61.1989C44.57 59.4621 44.5017 57.6763 44.7317 55.9168ZM45.1257 62.0269C49.2227 60.4032 47.7372 61.2243 49.8764 60.5898C50.3892 62.4001 51.1223 64.1405 52.0593 65.7721C51.8035 65.8774 49.914 66.7706 49.7397 66.7706C48.9716 67.0057 47.9654 67.134 47.3309 67.2691C46.3491 65.637 45.6064 63.8723 45.1257 62.0292V62.0269ZM47.8263 68.0388C47.9031 68.0042 49.6905 67.1624 49.8641 67.1624C50.7858 66.8843 52.0147 66.7607 52.5601 66.594C53.3636 67.8878 54.3639 69.0485 55.5249 70.0343C52.9618 71.5704 53.5586 70.999 51.4464 71.7087C50.005 70.7424 48.7738 69.4949 47.8263 68.0411V68.0388ZM52.3381 72.2249C52.8112 71.9253 53.3059 71.6618 53.8198 71.4368C53.8966 71.4368 56.273 70.6964 56.3621 70.6526C57.7551 71.4743 59.3545 71.8795 60.9707 71.8201C56.1916 73.7518 54.488 73.3301 52.3373 72.2272V72.2249H52.3381ZM65.0346 69.7985C52.3711 78.1706 42.23 46.3333 57.5734 47.7197C59.4199 48.0604 61.1468 48.8733 62.586 50.0793C68.4811 54.8998 70.6839 66.0671 65.0354 69.8008V69.7985H65.0346Z" fill="black"/>
<path d="M65.295 56.8016C63.7711 53.5756 68.3674 62.7535 64.3733 67.6033C58.4045 75.109 47.6743 55.0066 54.2652 50.2629C55.1037 49.7251 56.081 49.4439 57.0771 49.4539C58.0732 49.4638 59.0447 49.7645 59.8723 50.3189C63.8126 52.9012 64.7074 56.3369 64.9724 56.2171C65.2028 56.1126 61.7003 48.1859 56.124 48.9248C48.9923 49.865 50.6337 62.8111 58.1149 68.7692C63.5445 73.0866 69.1293 64.9234 65.295 56.8016Z" fill="black"/>
<path d="M60.5052 58.4334C60.1043 58.2275 60.112 58.3412 60.2986 58.1584C60.6704 57.7677 60.9296 57.2837 61.0486 56.7577C61.1675 56.2316 61.1419 55.6832 60.9744 55.1706C60.8069 54.6579 60.5038 54.2001 60.0972 53.8458C59.6906 53.4915 59.1956 53.2539 58.6649 53.1581C58.565 52.1596 57.9099 51.5713 57.737 51.6918C57.5642 51.8124 57.737 52.3347 57.9022 52.9515C57.9698 53.1958 58.0481 53.0114 56.9574 53.1159C56.621 51.4123 55.8053 51.5344 56.2531 53.218C55.9689 53.3271 55.6916 53.4554 55.4243 53.6021C55.7369 54.8387 56.7915 57.4287 57.3392 59.541C57.3392 59.6178 58.4322 64.6549 58.82 65.6703C59.6073 65.3792 59.4514 65.4238 59.6043 65.4207C59.8769 66.7103 61.0921 67.4892 60.324 65.3807C60.6825 65.3472 61.0361 65.2727 61.3778 65.1588C61.9254 67.1558 62.6144 66.4131 62.0237 64.8638C64.5369 63.3676 62.8372 59.6976 60.5052 58.4334ZM57.0419 54.4285C58.4721 53.9938 59.6496 53.9009 60.3232 55.2481C60.4856 55.6269 60.504 56.0521 60.3748 56.4435C60.2457 56.8349 59.9779 57.1656 59.6219 57.3734C59.0002 57.6842 58.3291 57.8843 57.6387 57.9648C57.4037 56.7305 57.2155 55.4378 57.0419 54.4285ZM59.6749 64.0174C59.0073 62.5718 58.4426 61.0808 57.9851 59.5555C58.665 59.309 59.3993 59.2524 60.1089 59.3919C62.6152 60.1685 64.328 64.4467 59.6749 64.0174Z" fill="black"/>
<path d="M116.714 130.231C128.778 131.614 132.345 128.143 136.23 121.956C138.12 118.947 137.751 114.227 137.291 110.782C136.041 101.428 128.675 96.4129 120.7 95.4704C113.774 94.6532 106.511 94.9328 100.176 92.014C95.8749 90.0339 91.6773 86.5552 87.0326 87.4685C85.1124 87.8456 81.1637 90.007 80.6636 91.7452C80.4724 92.6851 80.5798 93.6613 80.9709 94.5372C81.3265 95.1517 81.6744 95.3183 85.0748 97.6718C86.9635 98.9775 86.3367 99.569 85.882 100.585C85.3129 101.858 85.1447 104.615 86.3037 107.284C86.8352 108.509 87.6387 109.56 88.2792 110.72C90.2041 114.203 91.8125 114.428 95.7551 116.077C96.1583 116.245 96.2512 116.369 96.2413 116.889C96.0738 125.999 107.68 129.193 116.714 130.231Z" fill="white"/>
<path d="M137.794 118.448C137.073 118.119 134.42 127.059 127.176 128.999C121.462 130.587 113.665 128.703 107.798 127.233C102.202 125.684 96.9222 123.029 97.0597 117.252C106.085 118.546 111.318 119.651 111.423 119.225C111.483 118.983 109.482 118.222 106.146 117.328C98.5951 115.315 95.7946 115.626 93.3321 114.357C89.7413 112.536 84.8063 105.035 86.9946 100.396C94.0925 105.186 94.3314 105.938 101.611 106.74C102.366 106.817 114.352 108.306 114.432 107.712C114.515 107.097 102.956 105.214 101.829 105.051C94.6686 103.996 95.3852 103.837 85.622 97.2412C82.5727 95.1804 79.4888 93.5782 82.3961 90.7378C84.8071 88.2991 87.9463 88.0809 91.2537 89.0887C96.1257 90.5703 100.35 94.6781 115.737 95.662C119.566 95.8924 121.937 95.7065 121.946 95.4653C121.966 94.9638 114.814 94.5721 105.514 92.4199C97.0804 90.3983 97.4299 89.0625 91.7906 87.3198C87.8533 86.1208 84.0329 86.4749 81.0842 89.4358C78.6724 91.8346 78.5786 94.6688 82.3984 97.2934C85.0099 99.0869 84.2978 98.5792 85.4492 99.3557C82.4575 105.044 88.053 113.748 92.4895 116.006C93.4235 116.466 94.4167 116.795 95.4405 116.984C94.8015 126.27 105.39 128.938 114.467 130.592C123.313 132.153 130.549 131.758 135.282 124.133C136.815 121.685 137.999 118.54 137.794 118.448Z" fill="black"/>
<path d="M79.5917 85.7547C84.6549 73.6319 84.9107 73.3508 85.5014 73.0428C86.3163 72.6188 87.3578 73.2732 87.6843 74.1304C88.4117 76.0429 86.3709 80.63 86.0175 86.0197C85.7871 89.5429 84.8654 93.1045 84.87 96.6093C84.8946 106.774 82.6425 108.924 86.1688 134.386C86.6527 137.879 80.6332 138.15 78.1892 138.369C74.8917 138.669 71.3378 138.385 68.4344 136.664C66.6279 135.598 75.2842 96.0701 79.5917 85.7547Z" fill="#D9B343"/>
<path d="M73.1173 120.196C73.1688 121.34 74.4845 123.427 76.1352 123.493C77.7159 123.556 81.2652 121.447 82.7085 117.836C83.2976 116.362 83.1793 114.881 80.8251 113.689C77.3303 111.916 73.006 117.748 73.1173 120.196Z" fill="#FDFE1F"/>
<path d="M85.2042 105.222C84.5513 124.84 86.7604 135.55 86.2119 135.643C85.9508 135.687 85.1574 131.14 85.0683 130.529C81.0811 103.137 87.1114 74.7057 87.9402 74.8901C88.3565 74.983 85.811 87.0121 85.2042 105.222Z" fill="black"/>
<path d="M74.6321 104.114C69.6211 122.978 68.6087 136.383 68.1033 136.338C67.7024 136.302 68.5995 127.793 68.7355 126.676C72.5452 95.3098 84.7117 72.7418 85.3508 73.0752C85.8347 73.3294 80.5118 81.9804 74.6321 104.114Z" fill="black"/>
<path d="M83.3312 116.257C83.2314 114.736 81.8719 113.693 80.477 113.043C77.2019 111.567 72.114 118.036 72.9136 120.775C73.2442 121.765 73.8568 122.638 74.6764 123.284C74.9913 123.52 75.3562 123.678 75.744 123.745C78.9339 124.397 83.5701 119.418 83.3312 116.257ZM82.239 117.806C81.1483 117.268 81.2597 117.114 80.4993 116.25C80.6687 115.897 80.7609 115.512 80.7698 115.121C80.7786 114.729 80.704 114.34 80.5507 113.98C82.2037 114.913 82.9088 116.004 82.239 117.806ZM77.1519 114.445C79.427 112.886 80.679 113.754 80.2243 115.502C79.7926 117.352 77.2994 119.813 75.9998 120.341C71.5526 122.085 73.9475 116.652 77.1519 114.445ZM75.1426 122.621C74.5748 122.187 74.1087 121.634 73.777 121.002C74.3904 121.198 75.0499 121.198 75.6634 121.002C75.8124 121.186 76.5935 121.82 76.5935 121.91C76.7871 122.218 76.9576 122.541 77.1028 122.874C76.7772 122.977 76.433 123.008 76.0943 122.964C75.7557 122.92 75.4308 122.802 75.1426 122.618V122.621ZM77.7633 122.628C77.6266 122.462 76.8416 121.816 76.8416 121.725C76.6478 121.415 76.4769 121.091 76.3301 120.756C77.0369 120.418 77.6758 119.953 78.215 119.385C79.0814 120.094 79.0123 119.704 79.9493 121.052C79.3096 121.69 78.5715 122.221 77.7633 122.625V122.628ZM80.3656 120.622C78.9831 119.664 79.4977 119.858 78.6973 118.892C79.2878 118.294 79.7962 117.62 80.2089 116.889C80.8977 117.246 81.5113 117.733 82.0163 118.323C81.5723 119.159 81.017 119.932 80.3656 120.62V120.622Z" fill="black"/>
<path d="M79.3202 104.59C80.1443 105.733 80.3463 106.463 79.6904 107.622C79.5575 107.94 79.3275 108.209 79.033 108.389C78.7386 108.569 78.3947 108.652 78.0505 108.626C77.822 108.608 77.5999 108.542 77.3984 108.433C70.7483 106.018 75.1095 98.754 79.3202 104.59Z" fill="#FDFE1F"/>
<path d="M80.1779 105.612C79.6771 104.373 78.091 102.546 76.6086 102.156C76.1698 102.064 75.7139 102.098 75.2937 102.255C74.8734 102.411 74.506 102.683 74.2337 103.039C72.1207 105.199 76.4135 109.318 78.6633 108.771C79.2716 108.538 79.7675 108.08 80.0492 107.493C80.3309 106.906 80.377 106.233 80.1779 105.612ZM77.4305 103.012C78.6594 103.755 79.9398 105.316 79.8822 106.507C79.2117 107.686 76.0725 105.542 75.5502 103.788C75.2307 102.808 75.8574 102.074 77.4305 103.012ZM75.2891 102.851C75.2079 103.082 75.1765 103.328 75.1969 103.572C75.2173 103.816 75.289 104.053 75.4073 104.267C74.9695 104.829 75.0387 104.928 74.3781 105.306C73.8865 104.195 74.3036 103.488 75.2891 102.851ZM74.5379 105.616C74.831 105.228 75.1961 104.9 75.6132 104.651C75.8991 105.092 76.2424 105.494 76.634 105.846C76.2085 106.428 76.4804 106.343 75.6577 106.991C75.2241 106.587 74.8473 106.125 74.5379 105.619V105.616ZM75.935 107.244C76.4727 106.361 76.4373 106.615 76.955 106.135C77.3134 106.47 77.7299 106.736 78.184 106.921C77.6624 108.117 77.7738 107.575 77.3575 108.145C76.8386 107.923 76.3584 107.62 75.935 107.247V107.244ZM79.3661 107.648C79.205 107.909 78.9635 108.112 78.6777 108.225C78.3919 108.338 78.0772 108.355 77.7807 108.274C78.28 107.122 78.2662 107.531 78.6087 107.046C78.9995 107.145 79.4114 107.12 79.7878 106.976C79.695 107.227 79.5514 107.457 79.3661 107.651V107.648Z" fill="black"/>
<path d="M80.4041 97.4474C82.4672 98.1295 85.1086 94.4327 84.5848 92.7413C84.3786 92.2729 84.0419 91.8737 83.6149 91.5916C83.1878 91.3095 82.6886 91.1564 82.1768 91.1506C81.1906 91.2152 79.659 92.5954 79.1045 94.5771C78.9066 95.1307 78.9315 95.7395 79.174 96.275C79.4164 96.8106 79.8575 97.2309 80.4041 97.4474Z" fill="#FDFE1F"/>
<path d="M84.7726 92.6729C84.6214 92.243 84.3589 91.8608 84.0118 91.5655C83.6648 91.2701 83.2456 91.072 82.797 90.9915C81.0589 90.483 79.1555 93.3311 78.8283 95.0916C78.7465 95.4876 78.7815 95.8988 78.929 96.2753C79.0766 96.6518 79.3303 96.9773 79.6594 97.2123C82.0267 99.3906 85.2181 94.7521 84.7726 92.6729ZM84.2495 93.6898C83.5144 93.4463 83.5636 93.3227 83.0789 92.9064C83.1505 92.681 83.1733 92.443 83.1457 92.2082C83.1182 91.9734 83.0409 91.7472 82.9192 91.5445C83.9876 91.9647 84.4968 92.5546 84.2495 93.6898ZM79.8215 93.4932C81.3576 90.9585 83.0267 90.9639 82.8523 92.4808C82.5858 95.4334 77.4803 98.3652 79.8215 93.4932ZM80.8968 97.2875C80.3065 97.1649 79.7891 96.8129 79.4582 96.309C79.8414 96.3752 80.2357 96.3196 80.5857 96.15C81.0788 96.6109 80.8837 96.12 81.6034 97.1485C81.3807 97.2438 81.1403 97.2906 80.8976 97.2875H80.8968ZM81.9775 96.9473C81.363 96.382 81.7217 97.0295 80.9613 95.9488C81.3477 95.6945 81.6843 95.3717 81.9545 94.9963C81.9952 94.9441 82.6404 95.3274 82.6949 95.3689C82.8593 95.5071 83.0113 95.6592 83.1504 95.8228C82.8221 96.2577 82.4264 96.6374 81.9783 96.9473H81.9775ZM83.3647 95.5302C82.4691 95.0762 82.7356 95.1054 82.2225 94.6353C82.5251 94.2282 82.7732 93.7827 82.9583 93.3104C83.1565 93.4064 83.4384 93.5124 83.6458 93.6368C83.8232 93.7543 83.9945 93.8811 84.1589 94.017C83.9639 94.5549 83.697 95.0639 83.3654 95.5302H83.3647Z" fill="black"/>
<path d="M18.2962 98.2788C18.6494 99.4967 19.3273 100.595 20.2573 101.457C21.1872 102.32 22.3342 102.912 23.5753 103.172C27.2176 103.787 30.4581 101.08 33.7548 99.4148C40.113 96.2027 44.8967 97.0698 49.5421 89.9358C58.6993 75.8736 51.1129 66.1842 45.6656 67.612C43.3359 68.2265 42.3551 70.3004 41.1108 72.0915C34.1411 82.1266 15.1163 87.8182 18.2962 98.2788Z" fill="white"/>
<path d="M59.5102 100.596C52.0413 103.791 52.2641 103.745 51.7848 103.787C50.8124 103.877 47.7723 102.674 44.8028 103.342C40.4739 104.315 38.9961 108.785 42.6729 111.873C44.0906 112.929 45.6783 113.734 47.3675 114.254C39.3909 121.58 44.5908 129.889 51.5198 126.67C55.6928 124.732 53.2948 124.897 61.6432 122.902C65.284 122.033 68.2818 120.444 68.7096 116.466C69.1167 112.703 66.5091 111.25 66.6972 110.408C66.8286 109.817 68.735 108.027 68.9401 105.877C69.1574 103.579 67.1535 99.3478 63.0104 97.0543C62.0887 96.5451 60.7914 95.6825 59.895 96.5405C58.9088 97.4875 58.9349 99.4746 59.511 100.596H59.5102Z" fill="white"/>
<path d="M67.5512 110.523C72.0468 106.648 70.0575 98.1244 60.61 95.4614C58.1621 94.7962 54.8954 94.658 54.8693 95.0282C54.8239 95.6342 64.1716 96.1749 67.1733 102.228C68.3446 104.542 68.4022 107.528 66.3614 109.111C64.3913 110.878 61.2152 111.614 57.9124 113.058C54.188 114.689 53.9844 114.468 51.4897 114C45.8442 112.94 38.598 110.014 42.3824 105.765C45.0216 102.719 49.6316 104.107 51.6763 104.382C52.7783 104.445 53.8699 104.139 54.7794 103.514C61.4287 100.041 61.2659 99.4716 54.2302 102.328C51.3883 103.459 52.5081 102.658 48.6654 102.155C40.4852 101.08 35.4419 109.32 44.0115 113.574C47.5586 115.318 46.4871 113.42 44.0883 117.353C40.254 123.828 44.4109 130.953 51.9559 127.531C54.38 126.441 56.3547 124.758 61.9303 123.484C65.9728 122.474 68.9768 121.103 69.476 116.93C69.6036 115.787 69.4988 114.631 69.1681 113.53C68.8373 112.429 68.2873 111.406 67.5512 110.523ZM66.9137 119.152C65.7231 120.708 63.4465 121.278 61.5109 121.732C55.7579 122.961 53.4537 124.835 51.2032 125.858C44.1068 129.137 41.6174 120.775 47.7567 114.997C54.2356 116.895 55.0536 116.287 59.7466 114.277C60.9471 113.763 64.3459 112.766 66.5289 111.306C68.1933 113.422 68.6104 116.942 66.9129 119.152H66.9137Z" fill="black"/>
<path d="M54.3306 73.2204C52.756 67.0757 45.8747 63.6039 41.2039 69.9622C39.3605 72.4677 39.3882 73.2772 35.3134 76.8435C25.3421 85.5436 11.167 91.2498 14.0504 107.244C14.9545 112.206 17.5928 117.3 17.8025 117.204C18.089 117.078 15.8055 112.441 15.0712 107.083C13.0112 91.8673 25.849 87.3824 36.5009 78.2099C42.4413 73.0706 42.0204 70.7786 44.6811 69.0497C47.7742 67.0895 53.1093 69.6687 52.9649 77.3374C52.8436 82.2877 51.2567 86.0237 48.3909 90.0385C46.5068 92.8873 43.7739 95.071 40.5795 96.28C38.1108 97.247 36.451 97.6088 36.4925 97.8653C36.5247 98.0635 38.2468 98.1288 40.9589 97.4045C50.5524 94.6962 56.4851 81.6917 54.3306 73.2204Z" fill="black"/>
</svg>
