<svg width="155" height="154" viewBox="0 0 155 154" fill="none" xmlns="http://www.w3.org/2000/svg">
<path d="M36.1724 42.5017C37.2347 42.2076 37.0396 42.3274 26.6835 34.5082C18.7107 28.4879 18.9611 28.2944 18.8274 28.5171C18.5033 29.0463 33.5379 41.7598 36.1724 42.5017Z" fill="#D9B343"/>
<path d="M58.2946 20.9116C58.2554 20.7872 51.8925 6.49148 51.6698 6.22342C50.1897 4.43915 55.8482 19.4814 57.4228 21.1436C57.6678 21.4001 58.3176 21.6114 58.2946 20.9116Z" fill="#D9B343"/>
<path d="M86.6155 19.8646C87.3237 20.0105 87.0572 19.3415 89.3607 13.5094C92.0436 6.71561 93.2779 4.40827 93.3463 3.98505C93.6589 2.09478 84.3688 19.4014 86.6155 19.8646Z" fill="#D9B343"/>
<path d="M116.527 37.9532C116.97 38.2604 117.219 37.457 122.058 34.9983C129.344 31.2946 132.089 30.6448 132.331 30.1402C131.716 29.9696 113.953 36.1904 116.527 37.9532Z" fill="#D9B343"/>
<path d="M16.6226 61.2688C15.3084 60.874 10.7482 59.6734 10.6514 59.7157C10.5994 59.7384 10.5552 59.7758 10.5239 59.8232C10.5078 59.8447 23.1337 64.6199 27.9127 65.3926C29.773 64.8911 28.5533 64.8511 16.6226 61.2688Z" fill="#D9B343"/>
<path d="M123.355 67.5089C122.141 67.6502 122.064 68.5689 123.095 68.502C124.921 68.3845 136.46 67.7486 137.142 67.3829C138.442 66.6863 126.405 67.1517 123.355 67.5089Z" fill="#D9B343"/>
<path d="M103.538 136.329C101.637 139.484 102.49 139.31 101.556 135.822C101.299 134.864 100.623 134.759 100.284 135.153C99.8231 135.683 100.568 139.935 100.591 140.125C100.745 141.382 101.878 142.583 103.263 140.615C104.031 139.524 105.287 137.228 107.671 132.304C108.962 129.641 105.883 132.439 103.538 136.329Z" fill="#D9B343"/>
<path fill-rule="evenodd" clip-rule="evenodd" d="M143.897 136.194C121.245 134.646 114.198 134.555 114.198 134.555C114.198 134.555 115.694 133.416 114.659 130.668C114.337 129.812 113.898 129.513 113.576 129.295C113.316 129.118 113.133 128.994 113.151 128.671C113.318 125.713 113.975 121.982 114.78 117.412C116.546 107.383 119.024 93.3174 118.584 74.5436C117.875 44.3092 111.523 34.5261 94.7731 26.5595C85.9401 22.358 71.9279 22.1345 63.7577 24.471C53.9646 27.2692 47.9958 30.1011 41.3833 40.412C35.0035 50.3595 34.2131 60.8278 34.5511 72.9206C35.121 93.2813 36.8058 102.992 39.9876 121.331C40.2746 122.986 40.5738 124.711 40.8855 126.52C41.0088 127.236 41.0155 127.454 41.0251 127.767C41.0432 128.356 41.0715 129.284 41.9094 134.519C41.9123 134.538 41.9156 134.555 41.9188 134.57C41.9276 134.615 41.9344 134.649 41.9233 134.676C41.8879 134.762 41.6702 134.773 40.7571 134.817C39.694 134.87 37.6881 134.969 33.9297 135.287C14.7728 136.91 17.7998 138.419 18.0057 138.36C20.8676 137.542 36.2962 136.413 39.251 136.286C39.721 136.266 40.118 136.247 40.4534 136.232C41.9243 136.165 42.2122 136.151 42.293 136.274C42.3127 136.304 42.32 136.342 42.3292 136.389C42.3335 136.411 42.3383 136.436 42.3449 136.463L42.3641 136.539C42.4939 137.062 43.2183 139.98 43.5086 140.687C45.6946 146.002 69.7066 149.71 91.3482 147.515C93.5657 147.29 94.8868 147.082 95.6779 146.958C96.4652 146.834 96.7271 146.793 96.8239 146.9C96.8716 146.954 96.8792 147.044 96.89 147.178C96.9084 147.397 96.9353 147.733 97.1611 148.22C97.3163 148.605 97.5667 148.944 97.8893 149.204C98.2119 149.466 98.5959 149.639 99.0045 149.711C100.822 150.131 101.956 148.426 102.336 147.855C102.377 147.793 102.409 147.744 102.433 147.714C102.665 148.172 103.001 148.571 103.412 148.881C105.265 150.165 108.625 149.197 108.672 146.443C108.676 146.241 108.753 146.28 108.9 146.353C108.945 146.376 108.997 146.402 109.057 146.425C111.356 147.352 114.22 144.562 112.799 141.451C112.791 141.431 112.78 141.41 112.769 141.387C112.673 141.192 112.514 140.871 112.858 140.797C112.975 140.772 113.094 140.748 113.218 140.724H113.219C114.034 140.565 114.969 140.382 115.588 139.505C115.906 139.048 116.098 138.513 116.139 137.957C116.181 137.402 116.073 136.845 115.826 136.345L115.807 136.299C115.625 135.893 115.624 135.89 116.241 135.903C132.376 136.225 143.715 136.754 143.816 136.764C144.219 136.809 144.324 136.224 143.897 136.194ZM41.3318 123.771C38.37 107.76 36.4605 91.5723 35.6157 75.3117C35.0273 63.5599 35.7501 52.0109 41.1728 42.6294C48.154 30.5497 55.7949 27.442 66.6527 24.8704C70.3456 23.9956 76.604 23.918 79.2393 24.0447C87.3495 24.4372 94.5127 26.1378 103.997 33.523C123.685 48.8563 116.826 95.6555 113.132 120.857C113.021 121.612 112.914 122.347 112.809 123.062C112.769 123.337 112.684 123.26 112.347 122.951C110.888 121.617 104.71 115.968 77.0465 115.852C69.7657 115.822 44.4979 117.561 41.3318 123.771ZM81.426 133.654C75.4954 133.83 69.5596 133.64 63.6525 133.083C58.7974 132.516 45.4196 130.903 42.3687 126.596C36.3431 118.09 88.2313 112.941 107.349 121.236L107.459 121.284C109.039 121.968 111.673 123.111 111.967 125.023C112.147 126.195 111.218 127.13 110.354 127.767C110.277 127.825 110.194 127.881 110.159 127.694C109.515 124.31 105.68 122.907 103.318 126.662C103.304 126.685 103.175 126.722 103.097 126.57C101.954 124.364 97.4814 124.208 96.9292 128.817C96.5474 128.554 96.1027 128.398 95.6403 128.365C95.1779 128.332 94.7148 128.423 94.3 128.63C93.6279 128.944 93.0879 129.485 92.7761 130.159C92.4642 130.832 92.3997 131.594 92.5948 132.31C92.6033 132.357 92.614 132.401 92.624 132.442C92.6447 132.522 92.6624 132.591 92.6463 132.649C92.5633 132.95 91.6055 133.011 85.7419 133.379C84.526 133.456 83.0982 133.546 81.4237 133.654H81.426ZM108.75 129.292C108.568 129.266 108.321 129.127 108.106 129.007L108.105 129.006C108.047 128.974 107.993 128.944 107.942 128.917C106.43 128.111 105.318 127.995 104.674 127.928C103.979 127.856 103.826 127.84 104.297 127.078C104.867 126.33 105.27 125.946 105.659 125.75C105.978 125.586 106.288 125.548 106.673 125.542C108.036 125.649 108.884 126.881 109.084 128.243C109.13 129.09 109.033 129.338 108.75 129.292ZM99.8149 126.331C99.8118 126.332 99.808 126.333 99.8049 126.334C99.3509 126.5 98.9392 126.766 98.6005 127.112C98.2902 127.645 98.1228 128.249 98.1135 128.865L98.1197 128.983C98.1389 129.325 98.1473 129.478 98.2103 129.506C98.2295 129.514 98.2541 129.511 98.2864 129.497C98.3394 129.474 98.4131 129.422 98.5176 129.348C98.9477 129.042 99.894 128.368 102.035 127.957H102.032C102.034 127.956 102.035 127.956 102.036 127.956C102.284 127.908 102.31 127.897 102.289 127.661C102.286 127.648 102.282 127.635 102.278 127.623C102.271 127.358 102.068 126.991 101.698 126.706C101.588 126.61 101.468 126.526 101.338 126.457C101.105 126.332 100.849 126.257 100.586 126.236C100.326 126.215 100.063 126.248 99.8149 126.331ZM94.8015 133.848C94.8023 133.848 94.8023 133.849 94.8031 133.849C95.1771 133.128 95.4613 132.622 95.6818 132.257C96.0535 131.649 96.2502 131.435 96.3999 131.273C96.5359 131.125 96.6334 131.019 96.7878 130.697C96.8086 130.654 96.8308 130.607 96.8547 130.557H96.8562C96.7609 130.204 96.5336 129.902 96.221 129.714C95.9076 129.527 95.5343 129.467 95.1787 129.548C94.5842 129.684 94.164 129.973 93.9067 130.352C93.2577 131.296 93.6325 132.793 94.8008 133.849C94.8008 133.849 94.8015 133.848 94.8015 133.848ZM94.6648 140.196C94.6564 140.166 94.6449 140.132 94.6326 140.096C94.6226 140.069 94.6134 140.043 94.6041 140.014C94.6026 140.008 94.6003 140.002 94.5988 139.996C94.2232 138.683 94.1249 137.307 94.31 135.954C94.3246 135.883 94.3246 135.827 94.3123 135.782C94.1947 135.273 92.5019 136.33 92.0218 138.032H92.0172C91.9573 138.244 91.9442 138.466 91.9757 138.685C92.0971 139.604 92.9827 140.494 94.4605 140.424C94.6963 140.413 94.704 140.325 94.6648 140.196ZM95.3753 145.381C95.5504 145.391 95.7317 145.37 95.913 145.313C96.3907 145.168 96.8193 144.893 97.1504 144.52C97.3216 144.264 97.2848 144.224 96.9783 143.898C96.7871 143.695 96.4906 143.379 96.075 142.83C95.7655 142.423 95.5835 142.105 95.459 141.888C95.3269 141.656 95.2593 141.538 95.1702 141.543C95.1234 141.541 95.0711 141.574 95.0013 141.645C93.1286 143.527 94.0865 145.312 95.3753 145.381ZM101.669 146.67C101.558 147.101 101.336 147.496 101.025 147.816C100.714 148.134 100.326 148.367 99.8978 148.49C99.0929 148.653 98.3455 148.222 98.0513 147.216C97.9622 146.915 97.9138 146.564 97.9169 146.162C97.9338 146.015 97.9476 145.882 97.9607 145.764C98.0206 145.204 98.0467 144.965 98.145 144.924C98.1473 144.922 98.1497 144.922 98.1527 144.921C98.2265 144.892 98.3394 144.97 98.5337 145.103C98.834 145.307 99.3287 145.644 100.17 145.932C100.745 146.127 101.107 146.222 101.332 146.281C101.56 146.342 101.648 146.365 101.676 146.419C101.694 146.452 101.687 146.498 101.678 146.573C101.674 146.601 101.671 146.635 101.667 146.674L101.669 146.67ZM103.312 146.883C103.412 147.192 103.583 147.472 103.812 147.701C104.041 147.962 104.334 148.144 104.801 148.256C104.805 148.257 104.809 148.258 104.813 148.259C105.167 148.356 105.54 148.365 105.899 148.283C106.261 148.201 106.597 148.03 106.876 147.784C107.155 147.539 107.368 147.227 107.497 146.879C107.624 146.53 107.663 146.154 107.609 145.787C107.605 145.684 107.557 145.677 107.469 145.718C106.649 146.099 105.941 146.303 105.352 146.414C104.688 146.538 104.175 146.541 103.82 146.544C103.329 146.548 103.147 146.55 103.303 146.865L103.312 146.883ZM96.0558 133.969C95.8669 134.437 95.7217 134.924 95.6226 135.423C95.3623 136.738 95.4314 138.095 95.8231 139.377C96.2156 140.658 96.9184 141.822 97.8693 142.765C98.8202 143.709 99.99 144.402 101.273 144.784C102.558 145.166 103.916 145.224 105.228 144.954C109.229 144.269 111.594 140.881 111.752 137.355C111.872 134.708 110.748 131.985 108.137 130.269C107.027 129.519 105.749 129.055 104.416 128.919C103.084 128.782 101.738 128.978 100.499 129.488C99.2603 129.998 98.1673 130.806 97.3163 131.841C96.7878 132.484 96.3638 133.202 96.0558 133.969ZM108.845 145.023C108.856 144.919 109.017 144.793 109.274 144.591C109.797 144.182 110.721 143.458 111.607 141.969C111.608 141.967 111.609 141.966 111.61 141.965C111.615 141.956 111.62 141.947 111.626 141.94C111.746 141.772 111.842 142.054 111.951 142.375C112.057 142.695 112.089 143.011 112.061 143.312C111.944 144.584 110.746 145.584 109.617 145.424C109.398 145.393 109.181 145.318 108.975 145.193C108.964 145.186 108.952 145.178 108.941 145.171C108.865 145.123 108.835 145.076 108.845 145.023ZM109.914 130.094C109.993 129.722 110.707 129.349 111.216 129.436C112.481 129.653 113.286 130.02 113.696 131.465C113.712 131.534 113.724 131.605 113.734 131.676C113.791 132.073 113.75 132.479 113.613 132.859C113.452 133.304 113.165 133.694 112.788 133.981C112.641 134.063 112.537 134.077 112.451 134.032C112.314 133.967 112.224 133.754 112.084 133.423C111.829 132.823 111.411 131.836 110.258 130.645C110.181 130.566 110.101 130.485 110.017 130.405C109.918 130.308 109.891 130.201 109.914 130.094ZM112.921 137.052C112.82 138.293 112.706 138.961 112.645 139.319C112.632 139.4 112.62 139.464 112.613 139.516C112.594 139.643 112.594 139.699 112.621 139.724C112.644 139.744 112.684 139.743 112.748 139.742C112.767 139.741 112.788 139.741 112.811 139.741C113.33 139.734 113.801 139.581 114.177 139.326C115.097 138.707 115.452 137.476 114.572 136.297C114.098 135.667 112.828 135.162 112.813 135.598C112.813 135.604 112.812 135.61 112.812 135.616C112.809 136.097 112.845 136.577 112.921 137.052ZM50.8806 139.518C50.2425 139.129 49.5343 138.867 48.796 138.75C48.7579 138.738 48.7225 138.728 48.6898 138.718C48.5463 138.677 48.4523 138.649 48.3851 138.591C48.2573 138.48 48.2263 138.258 48.1362 137.613C48.0902 137.284 48.029 136.846 47.9319 136.257C47.6009 134.251 47.5479 134.021 47.4234 133.778C47.3792 133.663 47.2947 133.567 47.1855 133.509C47.0763 133.451 46.9498 133.435 46.8296 133.463C46.7092 133.491 46.6031 133.561 46.5308 133.662C46.4586 133.762 46.4251 133.886 46.4365 134.008C46.4078 134.669 46.7257 137.277 46.7701 137.642L46.7752 137.684C46.7881 137.808 46.7981 137.939 46.8084 138.072C46.8673 138.84 46.9326 139.689 47.5986 139.962C48.3258 140.311 49.1182 140.502 49.9243 140.524C51.0504 140.502 51.7639 140.209 50.8806 139.518ZM53.9292 134.631C53.8802 134.54 53.805 134.466 53.7136 134.419C53.622 134.371 53.5183 134.352 53.4158 134.363C53.3132 134.376 53.2165 134.418 53.1383 134.485C53.0601 134.552 53.0038 134.641 52.9767 134.741C52.9989 136.506 53.1403 138.266 53.4 140.012C53.9123 143.06 54.8025 143.327 54.7403 140.403C54.7264 139.737 54.5744 135.782 53.9292 134.631ZM59.0536 138.003C59.098 138.009 59.1585 137.912 59.3291 137.635C59.4695 137.407 59.6845 137.059 60.0263 136.549C60.1287 136.386 60.2763 136.255 60.4513 136.175C60.6263 136.093 60.8211 136.065 61.012 136.093C61.2028 136.121 61.3815 136.203 61.5261 136.33C61.6708 136.459 61.7753 136.625 61.8267 136.811C62.1724 137.84 62.7531 142.085 62.2392 143.135C61.9665 143.794 61.3275 142.646 61.137 141.937C60.917 141.116 60.8062 140.415 60.7257 139.906C60.5741 138.947 60.5304 138.67 60.0678 139.56C59.9819 139.735 59.8516 139.885 59.6899 139.994C59.5283 140.104 59.3408 140.169 59.1461 140.183C58.9515 140.198 58.7565 140.162 58.5803 140.077C58.4042 139.993 58.2531 139.864 58.1422 139.704C58.062 139.587 57.9995 139.49 57.9507 139.414L57.9507 139.414C57.8695 139.287 57.8264 139.22 57.8034 139.226C57.7778 139.233 57.7771 139.331 57.7756 139.54C57.7728 139.934 57.7671 140.722 57.5838 142.03C57.4087 143.282 56.3718 142.113 56.424 137.598C56.427 137.373 56.4268 137.158 56.4267 136.957V136.956C56.4256 135.4 56.4251 134.648 57.8834 136.076C58.3116 136.634 58.674 137.239 58.9633 137.88L58.9794 137.909C59.0097 137.963 59.0292 137.999 59.0536 138.003ZM64.3253 137.781L64.3262 137.862C64.3395 139.049 64.3868 143.278 65.0603 144.08C65.3676 144.447 65.5888 144.351 65.6287 144.1C65.9037 142.374 66.1756 137.495 65.363 136.748C65.0757 136.485 64.3091 136.35 64.3253 137.781ZM67.8563 136.808C68.3125 136.388 71.8449 136.065 72.8918 136.622C73.7083 137.056 72.5501 137.582 71.6038 137.707L71.5504 137.724C71.3013 137.804 71.2151 137.831 71.1918 137.886C71.1794 137.915 71.1846 137.951 71.1927 138.007C71.2004 138.059 71.2105 138.13 71.2105 138.228C71.2119 139.538 71.2163 140.485 71.2196 141.179V141.182C71.227 142.761 71.2283 143.03 71.1734 143.287C71.1621 143.34 71.1484 143.392 71.132 143.455C71.109 143.544 71.0805 143.653 71.0454 143.814C70.8579 144.672 69.8256 144.211 70.1475 138.22L70.1477 138.215C70.1543 138.089 70.1581 138.018 70.1247 137.98C70.0828 137.933 69.9826 137.937 69.7567 137.946C69.5275 137.956 69.1691 137.972 68.6113 137.944C67.7794 137.903 67.2487 137.368 67.8563 136.808ZM79.2923 143.291C79.0088 143.226 76.425 143.307 76.3367 143.312C76.0549 143.327 76.0584 143.2 76.0761 142.549V142.548C76.0822 142.326 76.09 142.043 76.0886 141.684C76.0886 141.481 76.1184 141.48 76.7201 141.456C76.9599 141.446 77.2904 141.433 77.7461 141.402C78.2192 141.37 79.24 141.113 79.2416 140.614C79.2416 140.166 76.9158 139.917 76.4235 140.063C75.9774 140.118 75.9739 140.05 75.9073 138.778L75.9004 138.646C75.8767 138.192 75.8998 138.194 76.211 138.219C76.4865 138.242 76.9879 138.283 77.8828 138.043C78.1033 137.988 78.3091 137.887 78.4865 137.747C78.6647 137.606 78.8099 137.429 78.9136 137.228C79.1102 136.725 74.9771 136.339 74.7989 137.433C74.5785 139.6 74.6805 141.788 75.1016 143.927C75.3589 144.965 77.9888 144.618 78.9827 144.193C79.5196 143.963 79.6433 143.371 79.2923 143.291ZM81.5581 143.297C81.1073 136.803 81.0735 136.317 83.6112 136.261C88.2966 136.16 87.9118 145.038 83.4231 144.513L83.2871 144.508C81.9675 144.467 81.638 144.457 81.5689 143.453L81.5581 143.297ZM82.6312 142.91C82.6312 143.265 83.6727 143.21 84.0252 143.133L84.0291 143.135C86.1636 142.683 85.8925 137.348 83.175 137.509C82.4783 137.551 82.5152 137.694 82.5828 137.95C82.6096 138.054 82.6419 138.177 82.6312 138.321C82.6281 138.357 82.6342 138.546 82.6427 138.826C82.6696 139.705 82.7241 141.49 82.6312 142.363V142.91Z" fill="#D9B343"/>
<path d="M106.551 48.75C106.453 47.7445 106.493 45.5747 105.509 45.3204C101.11 44.1883 83.3108 45.8681 83.2478 45.5509C82.4344 41.3678 82.7869 43.3326 82.4559 41.195C81.9743 38.072 81.6171 37.7601 81.3806 35.9167C81.26 35.3901 81.0987 34.8736 80.8982 34.3721C80.8306 33.7576 79.6693 33.8744 79.1109 34.2653C78.6385 34.5956 78.9926 34.8199 79.2745 37.3377C79.2745 37.3768 80.3682 44.6345 80.5034 45.7099C80.5349 45.961 80.445 45.8727 78.9672 45.9894C76.0815 46.2199 76.2866 46.3051 76.2466 46.0532C76.0347 44.7474 76.0592 39.5244 75.7274 39.2871C75.5502 39.128 75.3322 39.0216 75.0979 38.9796C74.8635 38.9378 74.6222 38.962 74.4009 39.0497C74.0553 39.1266 74.0637 38.7586 74.0338 45.9364C74.0338 46.418 74.1375 46.4818 71.7295 46.521C71.5759 46.521 71.3931 46.6984 71.2871 46.521C71.1811 46.3435 72.5091 38.3807 72.8233 35.3729C72.8847 34.7853 71.761 34.5848 71.1458 34.6647C70.5305 34.7446 70.7456 35.2984 70.4268 37.3039C68.9183 46.786 69.2931 46.6546 68.833 46.6915C46.1667 48.5272 56.8132 47.6516 48.4879 48.4627C46.4401 48.6624 47.4271 48.0295 47.0354 53.5467C46.4816 61.3405 48.1653 98.1835 49.7721 104.815C50.5794 108.147 48.9441 106.889 60.9908 107.339C61.4855 107.358 61.2312 106.619 60.6882 115.793C59.9839 127.706 60.1444 125.849 62.4203 125.764C63.1062 125.739 63.302 125.764 63.3274 125.399C63.6937 120.16 64.4933 108.203 64.4933 107.463C64.5233 107.166 69.128 107.374 76.4932 106.884C76.7897 106.864 76.7574 107.277 76.772 107.479C77.9195 123.448 76.4287 122.401 79.8912 122.11C81.518 121.973 80.5057 122.742 79.7376 108.924C79.5978 106.429 79.4135 106.605 80.3275 106.547C89.4179 105.977 89.0292 105.755 89.1006 106.092C90.2474 111.537 91.1491 120.851 91.9664 125.78C92.0247 126.134 92.004 126.061 93.541 125.918C94.5825 125.822 94.7699 125.783 94.7277 125.199C94.3436 119.899 93.521 114.875 92.7383 109.845C92.1423 106.01 91.7398 105.539 92.365 105.488C95.4681 105.236 98.8661 104.688 104.445 104.135C106.262 103.955 107.811 103.625 107.988 103.603C108.981 103.485 108.295 103.882 108.953 91.2169C109.799 74.928 106.552 48.7676 106.551 48.75ZM78.0278 97.4131C75.328 97.6366 75.7489 97.0452 76.0362 100.92C76.0362 101.159 76.0738 102.046 76.1898 104.331C76.2382 105.302 76.4748 105.451 76.1752 105.483C73.9855 105.768 71.777 105.881 69.5696 105.824C69.2463 105.824 69.2048 105.914 69.161 104.778C69.1042 103.3 67.8668 81.8262 67.8338 81.4729C67.6801 79.8661 67.5626 80.3208 67.2792 80.3208C65.359 80.3208 65.3044 80.4321 65.2906 80.1341C65.256 79.4067 65.3121 80.754 65.1132 76.1262C65.0825 75.4173 64.8758 75.5294 65.6585 75.4403C66.1793 75.3812 71.1588 75.1331 71.8102 75.1108C72.165 75.0978 71.9761 75.0401 72.1258 76.9496C72.3639 79.9843 72.4123 79.8991 72.9761 79.9452C73.2472 79.9667 77.461 79.7916 79.7476 79.6226C80.6739 79.5527 80.1846 78.2892 80.1017 76.8398C79.9788 74.6738 79.902 74.6776 80.2031 74.6415C85.0551 74.0639 84.668 74.1453 84.6841 74.4648C84.8239 77.2438 84.8085 76.296 84.8523 76.6985C85.0827 78.8445 84.8316 79.3199 85.8109 79.2416C87.5575 79.1026 87.5552 79.1579 89.0684 79.0649C90.0723 79.0027 90.2489 78.7262 90.2604 79.1056C90.4909 87.0377 90.3887 79.4789 90.7082 86.7505C91.0447 94.3968 91.5178 94.0227 90.8665 94.0304C88.0783 94.0611 88.2196 94.0442 88.2304 94.5903C88.2304 95.0312 88.2688 95.4706 88.3456 95.9045C88.3487 96.1626 88.3379 96.4207 88.3118 96.678C88.3318 96.9415 87.7019 96.6104 78.0278 97.4131ZM69.4636 67.9522C69.3822 67.3907 69.5573 67.486 73.5092 67.3147C75.2527 67.2379 87.7288 66.3246 88.8041 66.3246C89.2243 66.3246 89.1444 65.7255 89.543 70.9846C89.563 71.2558 89.5131 71.1382 87.8533 71.2919C81.4597 71.8772 69.9775 72.3964 68.3783 72.4655C66.5272 72.5423 67.3913 72.1099 67.0726 70.2995C67.018 69.9923 67.2492 70.0414 68.9375 69.96C69.3576 69.9393 69.615 70.0199 69.5988 69.7434C69.532 68.6819 69.5466 68.5283 69.4636 67.9522ZM81.2976 57.8011C81.2976 56.404 81.0426 56.765 83.0488 56.5899C84.1119 56.4969 83.9199 55.9754 84.1311 58.4617C84.181 59.0447 84.1311 58.9494 82.8384 59.0838C82.0327 59.1676 81.3544 59.3619 81.3183 58.5946C81.2799 57.7766 81.356 57.8011 81.2976 57.8011ZM87.0468 60.7114C87.0667 60.7998 86.9984 60.9042 86.9899 61.0041C86.9676 61.2637 86.9246 61.1953 85.4583 61.3029C84.1849 61.3029 84.3185 61.5671 84.2394 59.3957C84.2248 58.997 84.2693 59.0923 85.8885 58.974C87.4631 58.8588 86.5836 58.6322 87.0468 60.7114ZM107.667 102.771C107.667 103.063 79.455 105.778 79.3136 105.202C79.1723 104.626 79.2591 106.104 78.9979 100.608C78.9718 100.05 78.8743 100.183 80.8921 100.077C83.9644 99.9147 80.157 100.061 88.1889 99.616C89.0092 99.5706 89.0461 99.6759 88.8333 97.4515C88.8072 97.1734 88.8886 97.251 90.8849 97.1542C91.8028 97.1097 90.8742 94.5036 91.4072 94.492C91.6484 94.4867 93.5794 94.3945 93.6516 94.3822C94.4458 94.2432 94.0041 95.416 92.0962 67.019C92.0132 65.7793 91.4149 66.0612 94.6048 65.8991C95.0917 65.8745 94.9235 65.7793 94.8705 64.78C94.8083 63.6179 94.7991 63.601 95.0334 63.5895C98.2501 63.4358 97.4444 63.7016 97.5028 61.8997C97.4667 61.4627 97.4029 61.0283 97.313 60.5993C97.3084 60.5696 97.2985 60.5411 97.2831 60.5155C97.267 60.4897 97.247 60.4675 97.2224 60.4498C97.1986 60.4321 97.171 60.4195 97.1418 60.4126C97.1126 60.4056 97.0819 60.4047 97.0527 60.4096C89.0691 60.6769 89.6329 60.8051 89.6129 60.6139C88.9317 54.089 89.6852 56.3126 86.9369 55.7995C86.8232 54.9511 86.6635 54.1095 86.4584 53.2786C86.3163 53.0228 72.0183 53.6051 68.6925 54.3094C68.5488 54.3401 68.5181 54.4861 68.5527 54.6305C68.6099 55.2567 68.6099 55.8868 68.5527 56.513C68.5734 56.924 68.4137 56.7112 66.2123 57.1275C65.6808 57.2281 66.1969 58.7075 66.0019 59.6876C65.9312 60.0416 65.8482 59.7697 63.683 60.0877C63.2736 60.1476 63.2851 60.1492 63.4334 62.4396C63.5916 64.8791 63.7475 65.5481 63.7875 67.0858C63.9948 74.991 64.5141 74.8128 63.9649 74.938C60.3979 75.7537 60.7013 73.5992 61.0262 80.075C61.1629 82.8009 60.9924 82.8701 61.52 82.9092C65.4604 83.1965 64.6285 81.6511 64.8451 85.3548C66.114 107.073 66.6117 105.974 65.975 106.003C57.0728 106.41 53.4236 106.44 51.2077 106.534C50.3751 106.57 50.6884 106.854 50.4158 103.612C49.3404 90.819 47.7083 67.1158 47.8335 52.8078C47.8703 48.6163 47.6952 49.0994 48.2551 49.0879C52.6647 48.9942 78.266 46.6784 104.76 46.1561C105.843 46.1346 105.057 44.6614 106.353 58.6084C107.065 66.2908 107.754 91.3598 107.667 102.771Z" fill="#D9B343"/>
<path d="M85.8179 89.9157C85.8279 89.8128 85.8133 89.7083 85.7764 89.6116C85.7403 89.514 85.682 89.4272 85.6059 89.3558C85.5306 89.2851 85.44 89.2321 85.3409 89.2014C85.2418 89.1707 85.1366 89.163 85.0345 89.1791C77.5479 89.8535 77.7199 88.4955 78.2046 92.137C78.2683 92.6156 78.5587 92.5464 79.0779 92.5464C87.7343 92.0395 85.5944 92.5103 85.8179 89.9157Z" fill="#D9B343"/>
<path d="M81.4408 84.6772C86.4012 84.3945 85.8289 84.7263 85.8289 83.5488H85.8428C85.7045 81.3483 85.7951 81.5418 85.4318 81.5556C83.3065 81.6378 81.0622 81.8936 80.3256 82.0096C80.0083 82.0595 80.2034 82.2907 80.2434 82.8061C80.4285 85.1741 80.1005 84.7532 81.4408 84.6772Z" fill="#D9B343"/>
</svg>
