<svg width="154" height="155" viewBox="0 0 154 155" fill="none" xmlns="http://www.w3.org/2000/svg">
<path d="M90.8597 13.5018C92.2554 16.432 92.3291 18.4176 92.9005 18.2716C101.138 16.2016 107.571 17.111 111.441 18.2716C117.307 20.0321 122.181 23.6237 126.952 28.9849C128.971 31.4427 130.735 34.0988 132.218 36.9124C132.49 37.5883 125.957 44.6133 119.929 47.4352C118.817 47.9552 112.756 30.061 94.4498 27.0409C94.1564 26.9925 94.4559 26.7897 94.4498 31.7885C94.4498 32.333 94.3399 32.7056 93.8883 32.5635C87.6914 30.6156 80.2002 26.0554 80.5735 24.7466C81.572 21.2518 87.8166 14.6078 89.9503 13.1677C90.4757 12.8166 90.647 13.0486 90.8597 13.5018Z" fill="#D9B343"/>
<path d="M75.8469 130.899C74.7139 133.695 67.6706 139.978 64.5867 141.474C64.0152 141.751 63.8562 141.638 62.7886 137.571C62.2118 135.375 62.9238 135.949 60.3353 136.133C54.3819 136.607 48.4164 135.38 43.1333 132.595C37.8502 129.81 33.4667 125.581 30.4935 120.402C28.7457 117.536 27.3475 114.471 26.3289 111.273C26.2006 110.581 31.6287 106.425 39.6253 103.168C40.3381 102.877 40.4003 102.926 40.5785 103.354C45.0849 114.224 49.8778 123.171 62.0958 126.909C62.2002 126.942 62.2356 126.899 62.2494 126.805C62.3554 125.79 62.7725 122.418 63.1481 121.612C63.3017 121.276 63.4737 121.2 63.804 121.366C66.2634 122.61 74.1018 128.253 75.8469 130.899Z" fill="#D9B343"/>
<path d="M121.686 124.843C141.63 117.377 149.451 89.029 132.832 71.9697C116.537 55.243 87.7814 59.3131 78.4614 83.9519C69.3349 108.087 93.1595 135.521 121.686 124.843ZM77.6917 94.0623C78.35 70.8598 102.57 56.1187 123.051 66.3104C148.135 78.7904 145.953 114.599 119.695 124.086C115.728 125.486 111.523 126.085 107.323 125.845C103.124 125.606 99.0139 124.535 95.2318 122.693C84.3557 117.152 77.3745 105.245 77.6917 94.0623Z" fill="#D9B343"/>
<path d="M108.987 103.8C109.144 103.887 109.321 103.932 109.501 103.932C109.68 103.932 109.856 103.887 110.014 103.8C111.473 102.991 125.518 95.6408 126.306 94.2344C125.057 90.6943 113.503 69.9059 109.952 66.1223C109.015 65.1238 98.7929 79.7091 92.4884 92.1928C92.3594 92.3695 92.3018 92.5892 92.3271 92.8065C92.3525 93.0239 92.4593 93.2236 92.6252 93.3665C97.8535 97.1862 103.319 100.671 108.987 103.8ZM118.386 97.9328C109.469 103.018 109.993 103.309 109.993 102.296C109.993 86.923 109.986 103.206 109.993 87.8331C109.993 87.1741 109.794 87.1964 112.562 88.3462C116.815 90.1128 117.975 90.6121 124.209 93.517C126.067 94.3819 126.066 93.5539 118.388 97.9328H118.386ZM109.978 85.8254C110.115 84.3368 110.055 68.2799 110.204 67.8044C110.767 68.1547 124.709 92.4601 124.721 93.0277C123.897 92.9509 120.755 90.109 110.736 86.6925C110.283 86.5366 109.929 86.3745 109.979 85.8254H109.978ZM109.328 67.4895C109.397 68.3306 109.251 84.8783 109.124 86.138C109.118 86.204 109.098 86.2678 109.066 86.3254C109.034 86.3838 108.99 86.4337 108.937 86.4736C108.783 86.5835 103.855 88.092 102.083 88.7211C96.3842 90.7411 94.3127 91.947 93.8579 91.904C94.1491 90.2787 109.229 66.2575 109.33 67.4895H109.328ZM95.4003 92.3971C98.1086 91.3364 106.051 88.0551 108.884 87.3408C109.217 87.2563 109.144 87.2356 109.144 89.897C109.144 91.944 109.164 99.9836 109.251 102.049C109.288 102.935 109.578 103.302 108.359 102.51C107.141 101.718 94.4425 93.6537 93.8572 93.2466C93.4893 92.9955 93.8902 92.9886 95.4003 92.3971Z" fill="#D9B343"/>
<path d="M108.923 121.907C109.333 121.894 109.588 121.72 110.32 120.643C111.42 119.03 115.931 114.234 120.01 107.721C120.997 106.145 124.921 99.8623 125.751 98.0174C125.942 97.5934 125.421 97.3437 124.836 97.7193C124.461 97.9597 111.087 105.957 110.582 106.245C108.893 107.198 108.879 107.155 108.693 106.994C108.254 106.61 107.008 105.947 105.676 105.084C93.149 96.9697 92.3472 95.329 92.0353 96.4697C91.6935 97.717 107.33 120.989 108.923 121.907ZM109.433 108.302C109.356 107.82 109.74 107.683 110.667 107.134C125.451 98.3676 123.916 99.1933 124.185 99.1872C124.068 100.062 111.58 117.971 109.479 119.989C109.275 118.171 109.593 109.291 109.433 108.302ZM93.9248 98.2401C94.073 98.0965 94.9602 98.9206 101.178 103.167C108.581 108.224 108.585 107.617 108.547 108.36C108.454 110.198 108.414 117.153 108.652 120.022C108.711 120.739 93.8165 98.343 93.9248 98.2378V98.2401Z" fill="#D9B343"/>
<path fill-rule="evenodd" clip-rule="evenodd" d="M72.2309 83.4548C71.6507 84.047 71.0539 84.62 70.4421 85.173C64.6454 109.351 82.5458 135.984 112.094 134.842C126.683 134.279 142.467 123.965 147.964 107.278C150.38 100.095 150.735 92.3785 148.988 85.004C147.052 77.0201 142.726 69.8169 136.589 64.3568C130.45 58.8966 122.792 55.4395 114.637 54.4473C106.482 53.4551 98.2187 54.9752 90.9502 58.8043C87.904 60.4088 85.0943 62.3869 82.578 64.6798C82.3906 65.5043 82.174 66.3269 81.929 67.1464C87.6298 61.3859 94.9312 57.4716 102.409 56.213C137.507 50.3063 160.321 87.9658 142.564 115.54C136.053 125.652 125.305 132.381 114.211 133.322C84.8454 135.814 64.8528 109.902 72.109 83.8819C72.1488 83.739 72.1894 83.5969 72.2309 83.4548Z" fill="#D9B343"/>
<path d="M62.1543 19.6964C52.6967 15.1468 41.842 14.448 31.8792 17.7472C21.9164 21.0464 13.6242 28.0858 8.75132 37.3809C-5.04896 63.4061 13.4689 97.6375 46.8839 96.3471C61.4723 95.7834 77.2573 85.4702 82.7537 68.7827C89.2372 49.1011 79.7551 27.9579 62.1543 19.6964ZM77.351 77.0412C70.8399 87.1523 60.0928 93.8854 48.9985 94.8317C19.6329 97.3364 -0.358233 71.4126 6.89561 45.392C10.9788 30.7353 23.799 19.9606 37.1983 17.7078C72.2931 11.8065 95.1069 49.4691 77.351 77.0412Z" fill="#D9B343"/>
<path d="M44.612 23.4267C34.0016 23.3437 23.8574 27.8693 16.6804 38.4083C6.31807 53.6264 11.4343 74.4317 26.5765 83.9153C57.7609 103.456 92.5162 64.0609 69.0042 35.1631C66.0718 31.5107 62.3591 28.561 58.1384 26.5301C53.9176 24.4993 49.2959 23.4389 44.612 23.4267ZM68.0157 76.292C64.8883 80.0556 60.9237 83.0351 56.4388 84.9922C51.9539 86.95 47.0732 87.8302 42.1871 87.5637C24.6893 86.5936 11.5442 70.8624 12.3791 55.3262C12.6478 50.1626 14.1387 45.1367 16.7293 40.6621C19.3199 36.1873 22.936 32.3916 27.28 29.5875C56.966 10.5028 90.9171 48.7805 68.0157 76.292Z" fill="#D9B343"/>
<path d="M58.6166 52.9655C59.5966 52.247 60.395 51.3093 60.9479 50.2271C61.5007 49.1449 61.7926 47.9484 61.8003 46.7332C61.9931 40.1 57.2624 36.9646 50.5562 37.3249C50.2751 37.3395 50.2697 37.3249 50.2682 37.0453C50.2574 35.4031 50.12 32.3016 49.9909 31.6894C49.8619 31.0772 49.9272 30.6433 48.8787 30.5903C48.2642 30.5595 44.8078 30.4366 43.7978 30.8053C43.5113 30.9106 43.4752 31.5212 43.4591 32.3338C43.4268 33.9107 43.5082 36.4854 43.5244 36.9984C43.5497 37.8057 43.4299 37.586 42.204 37.6129C42.0166 37.6168 42.0919 35.1189 42.0166 33.4291C41.9498 31.9314 42.0074 32.0228 41.9997 31.515C41.992 31.0073 41.833 30.7231 41.4044 30.7262C35.3273 30.7731 35.5669 30.8522 35.4994 31.7171C35.3381 33.8746 35.3695 36.4869 35.3895 36.9608C35.4072 37.4009 35.5431 37.3802 32.7972 37.3594C32.1827 37.3548 28.3192 37.1559 27.4843 37.4363C27.2947 37.4791 27.124 37.5821 26.9978 37.73C26.8715 37.8778 26.7964 38.0626 26.7838 38.2566C26.619 40.1511 26.5897 42.0549 26.6963 43.9535C26.6856 44.1815 26.7619 44.4051 26.9098 44.579C27.0577 44.753 27.266 44.8644 27.4928 44.8906C27.8538 44.952 30.6934 45.121 32.3356 45.121C32.9723 45.121 32.566 44.5902 32.523 50.364C32.4132 64.4546 32.99 65.2903 32.5998 65.7619C32.3963 66.0069 31.9515 65.9923 27.3707 66.073C27.2601 66.066 27.1493 66.0819 27.0452 66.1197C26.9411 66.1574 26.8459 66.2164 26.7656 66.2926C26.6853 66.3689 26.6215 66.4609 26.5784 66.563C26.5354 66.665 26.5137 66.7748 26.515 66.8856C26.515 67.2259 25.9604 71.2683 26.6801 72.9735C26.8691 73.422 27.1702 73.399 28.5236 73.4643C31.2188 73.5941 30.9584 73.5634 35.0615 73.5595C35.6921 73.5595 35.4909 73.3859 35.408 75.2194C35.3818 75.7954 35.325 79.811 35.7559 80.0883C36.3082 80.4432 36.4887 80.5031 40.2508 80.4985C41.6118 80.4985 41.9267 80.4493 42.0051 79.3632C42.0504 78.7434 42.1349 73.7754 42.2824 73.4866C43.2041 73.4627 43.4061 73.3222 43.4176 73.6025C43.4767 75.1234 43.4176 79.0445 43.4621 79.6482C43.4658 79.7496 43.4896 79.8494 43.5323 79.9408C43.575 80.033 43.6357 80.1159 43.7108 80.1843C43.7858 80.2519 43.8738 80.3049 43.9695 80.3387C44.0652 80.3717 44.1666 80.3863 44.2679 80.3802C45.8789 80.566 47.5035 80.6037 49.1214 80.4923C49.5185 80.4593 49.8803 80.2941 50.0378 79.6144C50.3581 78.2264 50.1069 74.2654 50.2244 73.4459C54.1578 73.2339 57.5981 73.1901 61.3018 70.0593C63.7366 68.0001 64.8957 63.8793 64.6407 60.3814C64.4772 58.6898 63.8185 57.0841 62.747 55.765C61.6754 54.446 60.2387 53.4722 58.6166 52.9655ZM61.1881 68.4924C58.2586 71.8597 54.7723 72.3129 49.7828 72.4435C49.0108 72.4635 49.4663 73.0073 49.2812 79.0191C49.2605 79.6797 49.0223 79.6474 48.6667 79.6482C43.797 79.6543 44.2802 79.7565 44.2802 79.3502C44.2802 75.5827 44.3086 74.2116 44.1757 73.0426C44.1173 72.5334 43.7917 72.4381 43.0727 72.4696C42.3538 72.5011 41.3576 72.3314 41.3875 72.9696C41.174 76.605 41.1202 78.0713 41.1103 79.2526C41.1064 79.6274 41.0649 79.6858 40.7108 79.6482C39.389 79.5076 38.0655 79.599 36.7429 79.5806C36.3834 79.5752 36.3673 79.6313 36.3197 78.9661C36.1146 76.138 36.3197 73.4098 36.2244 73.1417C36.1008 72.5072 35.8604 72.7323 27.5404 72.6455C27.2216 72.6455 27.3653 72.6156 27.3215 69.9372C27.3031 68.8458 27.2539 67.8549 27.2539 67.4186C27.2539 66.7427 26.7992 67.0215 31.7334 66.9263C33.7243 66.8879 33.7589 66.3641 33.7389 65.3548C33.6682 61.8377 33.2665 49.8432 33.6997 44.9236C33.8042 43.7338 33.033 44.2999 27.7201 43.9965C27.3922 43.9773 27.5243 44.0802 27.5327 41.8912C27.5396 40.206 27.5197 39.2904 27.5327 38.805C27.5458 38.3196 27.9544 38.2604 28.3438 38.2566C32.3924 38.2174 33.5254 38.2696 34.9694 38.2827C35.7313 38.2896 36.3312 38.2535 36.4172 37.5484C36.4756 37.0683 36.3404 35.0352 36.5086 31.9175C36.5086 31.6379 36.4318 31.7401 39.7784 31.6103C41.7754 31.5335 40.8168 30.6886 41.2708 36.6459C41.4329 38.772 40.9121 38.5661 43.8823 38.4739C44.1596 38.4655 44.3339 38.3656 44.3639 37.9624C44.4 37.4739 44.3639 33.5689 44.3977 32.4437C44.4184 31.7455 44.3562 31.5919 44.6742 31.5335C45.9868 31.3962 47.3081 31.3618 48.626 31.4306C48.914 31.4475 48.9801 31.522 49.0101 31.6871C49.2489 32.8761 49.0938 36.7665 49.2943 37.7043C49.547 38.4271 50.2006 38.2474 50.9518 38.2474C54.8176 38.2474 56.4344 39.0216 57.6657 39.7682C58.5653 40.3705 59.3092 41.1778 59.8362 42.1235C60.3633 43.0693 60.6584 44.1266 60.6973 45.2086C61.2519 51.6836 56.9029 52.255 57.0604 53.1414C57.1426 53.6022 57.2954 53.5877 58.2778 53.8734C64.1675 55.5885 65.2828 63.7833 61.1881 68.4924Z" fill="#D9B343"/>
<path d="M53.0077 57.3004C50.1812 55.5553 46.2823 55.7704 41.7322 56.04C41.3858 56.0607 40.8796 56.04 40.835 56.4763C40.5025 59.7291 40.6254 65.3523 40.9787 66.3024C41.0808 66.5759 41.2675 66.8347 42.5878 66.8101C47.4568 66.7195 53.6775 67.324 54.961 62.7992C55.2725 61.7946 55.2506 60.7162 54.8985 59.7251C54.5465 58.734 53.8831 57.8834 53.0077 57.3004ZM41.9956 65.7917C41.809 65.7917 41.779 65.6734 41.7713 65.5067C41.6177 62.3391 41.6607 58.3135 41.7391 57.5124C41.8067 56.8211 41.9488 56.8588 42.2092 56.8342C45.0749 56.5654 50.4938 56.3733 52.7412 58.1676C53.5667 58.822 54.1153 59.7635 54.2774 60.8044C55.0977 66.2671 47.5236 65.8485 41.9956 65.7917Z" fill="#D9B343"/>
<path d="M41.2417 51.1664C41.4107 51.4844 46.5562 51.6411 49.8021 50.6925C50.6816 50.4966 51.4551 49.9771 51.9693 49.2371C52.4834 48.4972 52.7004 47.591 52.5772 46.6985C52.323 43.9003 50.3751 43.136 47.5639 42.7973C46.1652 42.6291 42.3685 42.4693 41.5129 42.7205C40.9883 42.8741 40.9929 42.8457 40.8523 44.1323C40.6987 45.5363 40.5704 49.9006 41.2417 51.1664ZM42.7119 43.4149C45.7489 43.3381 48.3312 43.4149 49.8989 44.0969C50.467 44.3278 50.9521 44.7253 51.29 45.2371C51.6279 45.7489 51.8031 46.351 51.7922 46.9642C52.0073 50.5573 47.6929 50.552 42.652 50.552C41.9707 50.552 41.9 50.3215 41.8447 49.8177C41.6419 47.999 41.6062 46.1656 41.7379 44.3404C41.8216 43.7928 41.7379 43.4394 42.7119 43.4141V43.4149Z" fill="#D9B343"/>
</svg>
